G75*
%MOIN*%
%OFA0B0*%
%FSLAX25Y25*%
%IPPOS*%
%LPD*%
%AMOC8*
5,1,8,0,0,1.08239X$1,22.5*
%
%ADD10C,0.00591*%
%ADD11C,0.00394*%
%ADD12R,0.03937X0.05512*%
%ADD13R,0.04331X0.03937*%
%ADD14R,0.03937X0.04331*%
D10*
X0001394Y0004890D02*
X0355724Y0004890D01*
X0355724Y0189929D01*
X0324228Y0189929D01*
X0324228Y0178118D01*
X0111630Y0178118D01*
X0111630Y0189929D01*
X0080134Y0189929D01*
X0080134Y0162370D01*
X0032890Y0162370D01*
X0032890Y0189929D01*
X0001394Y0189929D01*
D11*
X0001394Y0004890D01*
D12*
X0059772Y0059772D03*
X0063512Y0068433D03*
X0056031Y0068433D03*
X0116780Y0068827D03*
X0124260Y0068827D03*
X0120520Y0060165D03*
X0175024Y0068252D03*
X0182504Y0068252D03*
X0178764Y0059591D03*
X0233496Y0068244D03*
X0240976Y0068244D03*
X0237236Y0059583D03*
X0293197Y0068646D03*
X0300677Y0068646D03*
X0296937Y0059984D03*
D13*
X0285654Y0071394D03*
X0285654Y0078087D03*
X0225976Y0078031D03*
X0225976Y0071339D03*
X0167543Y0071094D03*
X0167543Y0077787D03*
X0109457Y0077976D03*
X0109457Y0071283D03*
X0049402Y0071433D03*
X0049402Y0078126D03*
D14*
X0056402Y0078118D03*
X0063094Y0078118D03*
X0040866Y0078126D03*
X0040866Y0071433D03*
X0100528Y0071283D03*
X0100528Y0077976D03*
X0116638Y0077843D03*
X0123331Y0077843D03*
X0158614Y0077787D03*
X0158614Y0071094D03*
X0174724Y0077606D03*
X0181417Y0077606D03*
X0217047Y0077898D03*
X0217047Y0071205D03*
X0233504Y0077787D03*
X0240197Y0077787D03*
X0277118Y0078087D03*
X0277118Y0071394D03*
X0293071Y0078189D03*
X0299764Y0078189D03*
M02*
