G75*
%MOIN*%
%OFA0B0*%
%FSLAX25Y25*%
%IPPOS*%
%LPD*%
%AMOC8*
5,1,8,0,0,1.08239X$1,22.5*
%
%ADD10C,0.00591*%
%ADD11C,0.00394*%
%ADD12C,0.00400*%
%ADD13C,0.00600*%
%ADD14C,0.02600*%
%ADD15C,0.00500*%
%ADD16R,0.02600X0.03000*%
%ADD17R,0.02600X0.02600*%
%ADD18R,0.02600X0.03200*%
%ADD19R,0.03000X0.02600*%
%ADD20R,0.03200X0.02600*%
D10*
X0001394Y0004890D02*
X0355724Y0004890D01*
X0355724Y0189929D01*
X0324228Y0189929D01*
X0324228Y0178118D01*
X0111630Y0178118D01*
X0111630Y0189929D01*
X0080134Y0189929D01*
X0080134Y0162370D01*
X0032890Y0162370D01*
X0032890Y0189929D01*
X0001394Y0189929D01*
D11*
X0001394Y0004890D01*
D12*
X0045620Y0033102D02*
X0045620Y0036642D01*
X0047390Y0036642D01*
X0047980Y0036052D01*
X0047980Y0034872D01*
X0047390Y0034282D01*
X0045620Y0034282D01*
X0046800Y0034282D02*
X0047980Y0033102D01*
X0049245Y0033102D02*
X0051605Y0033102D01*
X0050425Y0033102D02*
X0050425Y0036642D01*
X0049245Y0035462D01*
X0052870Y0036052D02*
X0052870Y0033692D01*
X0055230Y0036052D01*
X0055230Y0033692D01*
X0054640Y0033102D01*
X0053460Y0033102D01*
X0052870Y0033692D01*
X0052870Y0036052D02*
X0053460Y0036642D01*
X0054640Y0036642D01*
X0055230Y0036052D01*
X0032191Y0045247D02*
X0032191Y0047017D01*
X0031601Y0047607D01*
X0029831Y0047607D01*
X0029831Y0045247D01*
X0028566Y0045247D02*
X0026796Y0045247D01*
X0026206Y0045837D01*
X0026206Y0047017D01*
X0026796Y0047607D01*
X0028566Y0047607D01*
X0028566Y0044657D01*
X0027976Y0044067D01*
X0027386Y0044067D01*
X0024941Y0044657D02*
X0024941Y0047607D01*
X0023171Y0047607D01*
X0022581Y0047017D01*
X0022581Y0045837D01*
X0023171Y0045247D01*
X0024941Y0045247D01*
X0024941Y0044657D02*
X0024351Y0044067D01*
X0023761Y0044067D01*
X0021316Y0045247D02*
X0021316Y0047017D01*
X0020726Y0047607D01*
X0018956Y0047607D01*
X0018956Y0045247D01*
X0017690Y0045247D02*
X0015920Y0045247D01*
X0015330Y0045837D01*
X0015920Y0046427D01*
X0017690Y0046427D01*
X0017690Y0047017D02*
X0017690Y0045247D01*
X0017690Y0047017D02*
X0017100Y0047607D01*
X0015920Y0047607D01*
X0014080Y0047607D02*
X0013490Y0047607D01*
X0012309Y0046427D01*
X0012309Y0045247D02*
X0012309Y0047607D01*
X0011044Y0048787D02*
X0008684Y0048787D01*
X0008684Y0045247D01*
X0008684Y0047017D02*
X0009864Y0047017D01*
X0009864Y0051153D02*
X0008684Y0051153D01*
X0009274Y0051153D02*
X0009274Y0053513D01*
X0008684Y0053513D01*
X0009274Y0054693D02*
X0009274Y0055283D01*
X0008684Y0057058D02*
X0011044Y0057058D01*
X0012309Y0057058D02*
X0012309Y0059418D01*
X0014080Y0059418D01*
X0014670Y0058828D01*
X0014670Y0057058D01*
X0016525Y0057648D02*
X0017115Y0057058D01*
X0016525Y0057648D02*
X0016525Y0060008D01*
X0015935Y0059418D02*
X0017115Y0059418D01*
X0018351Y0059418D02*
X0018351Y0057648D01*
X0018941Y0057058D01*
X0019531Y0057648D01*
X0020121Y0057058D01*
X0020711Y0057648D01*
X0020711Y0059418D01*
X0021977Y0058828D02*
X0022567Y0059418D01*
X0023747Y0059418D01*
X0024337Y0058828D01*
X0024337Y0057648D01*
X0023747Y0057058D01*
X0022567Y0057058D01*
X0021977Y0057648D01*
X0021977Y0058828D01*
X0025602Y0058238D02*
X0026782Y0059418D01*
X0027372Y0059418D01*
X0028623Y0058828D02*
X0029803Y0058828D01*
X0029213Y0060008D02*
X0029213Y0057058D01*
X0031039Y0057058D02*
X0031039Y0059418D01*
X0032809Y0059418D01*
X0033399Y0058828D01*
X0033399Y0057058D01*
X0029803Y0060598D02*
X0029213Y0060008D01*
X0025602Y0059418D02*
X0025602Y0057058D01*
X0013461Y0052923D02*
X0013461Y0051153D01*
X0013461Y0052923D02*
X0012871Y0053513D01*
X0011101Y0053513D01*
X0011101Y0051153D01*
X0008684Y0057058D02*
X0008684Y0060598D01*
X0011044Y0060598D01*
X0009864Y0058828D02*
X0008684Y0058828D01*
X0074035Y0012567D02*
X0075805Y0012567D01*
X0076395Y0011977D01*
X0076395Y0010797D01*
X0075805Y0010207D01*
X0074035Y0010207D01*
X0074035Y0009027D02*
X0074035Y0012567D01*
X0077660Y0011977D02*
X0077660Y0009617D01*
X0078250Y0009027D01*
X0079430Y0009027D01*
X0080020Y0009617D01*
X0080020Y0011977D01*
X0079430Y0012567D01*
X0078250Y0012567D01*
X0077660Y0011977D01*
X0081285Y0012567D02*
X0083055Y0012567D01*
X0083645Y0011977D01*
X0083645Y0010797D01*
X0083055Y0010207D01*
X0081285Y0010207D01*
X0082465Y0010207D02*
X0083645Y0009027D01*
X0081285Y0009027D02*
X0081285Y0012567D01*
X0084910Y0012567D02*
X0087270Y0012567D01*
X0086090Y0012567D02*
X0086090Y0009027D01*
X0110453Y0025552D02*
X0111043Y0024962D01*
X0111633Y0024962D01*
X0112223Y0025552D01*
X0112223Y0026732D01*
X0112813Y0027322D01*
X0113403Y0027322D01*
X0113993Y0026732D01*
X0113993Y0025552D01*
X0113403Y0024962D01*
X0110453Y0025552D02*
X0110453Y0026732D01*
X0111043Y0027322D01*
X0110453Y0028587D02*
X0112813Y0028587D01*
X0113993Y0029768D01*
X0112813Y0030948D01*
X0110453Y0030948D01*
X0111043Y0032213D02*
X0110453Y0032803D01*
X0110453Y0033983D01*
X0111043Y0034573D01*
X0111633Y0034573D01*
X0113993Y0032213D01*
X0113993Y0034573D01*
X0130728Y0024772D02*
X0132498Y0024772D01*
X0133088Y0024182D01*
X0133088Y0023002D01*
X0132498Y0022412D01*
X0130728Y0022412D01*
X0130728Y0021231D02*
X0130728Y0024772D01*
X0134353Y0024772D02*
X0134353Y0021231D01*
X0134353Y0023002D02*
X0136713Y0023002D01*
X0137978Y0024182D02*
X0137978Y0021821D01*
X0138568Y0021231D01*
X0139748Y0021231D01*
X0140338Y0021821D01*
X0140338Y0024182D01*
X0139748Y0024772D01*
X0138568Y0024772D01*
X0137978Y0024182D01*
X0136713Y0024772D02*
X0136713Y0021231D01*
X0141603Y0021231D02*
X0141603Y0024772D01*
X0143963Y0021231D01*
X0143963Y0024772D01*
X0145228Y0024182D02*
X0145228Y0021821D01*
X0145818Y0021231D01*
X0146998Y0021231D01*
X0147588Y0021821D01*
X0147588Y0024182D01*
X0146998Y0024772D01*
X0145818Y0024772D01*
X0145228Y0024182D01*
X0146525Y0031527D02*
X0146525Y0035067D01*
X0148295Y0035067D01*
X0148885Y0034477D01*
X0148885Y0033297D01*
X0148295Y0032707D01*
X0146525Y0032707D01*
X0147705Y0032707D02*
X0148885Y0031527D01*
X0150150Y0031527D02*
X0152511Y0031527D01*
X0151330Y0031527D02*
X0151330Y0035067D01*
X0150150Y0033887D01*
X0153776Y0033297D02*
X0155546Y0035067D01*
X0155546Y0031527D01*
X0156136Y0033297D02*
X0153776Y0033297D01*
X0168103Y0033297D02*
X0169873Y0033297D01*
X0170463Y0033887D01*
X0170463Y0035067D01*
X0169873Y0035657D01*
X0168103Y0035657D01*
X0168103Y0032117D01*
X0169283Y0033297D02*
X0170463Y0032117D01*
X0171728Y0032117D02*
X0174088Y0032117D01*
X0172908Y0032117D02*
X0172908Y0035657D01*
X0171728Y0034477D01*
X0193719Y0012960D02*
X0192539Y0011780D01*
X0192539Y0009420D01*
X0192539Y0011190D02*
X0194899Y0011190D01*
X0194899Y0011780D02*
X0194899Y0009420D01*
X0196164Y0010010D02*
X0196754Y0009420D01*
X0197934Y0009420D01*
X0198524Y0010010D01*
X0198524Y0012960D01*
X0199789Y0012960D02*
X0202149Y0009420D01*
X0199789Y0009420D02*
X0202149Y0012960D01*
X0196164Y0012960D02*
X0196164Y0010010D01*
X0194899Y0011780D02*
X0193719Y0012960D01*
X0225606Y0030089D02*
X0225606Y0031269D01*
X0226196Y0031859D01*
X0226786Y0031859D01*
X0227376Y0031269D01*
X0227966Y0031859D01*
X0228556Y0031859D01*
X0229146Y0031269D01*
X0229146Y0030089D01*
X0228556Y0029499D01*
X0227376Y0030679D02*
X0227376Y0031269D01*
X0226786Y0033124D02*
X0225606Y0034304D01*
X0229146Y0034304D01*
X0229146Y0033124D02*
X0229146Y0035484D01*
X0227376Y0036749D02*
X0227376Y0039109D01*
X0225606Y0038519D02*
X0227376Y0036749D01*
X0229146Y0038519D02*
X0225606Y0038519D01*
X0225606Y0030089D02*
X0226196Y0029499D01*
X0264084Y0033298D02*
X0264084Y0036838D01*
X0265854Y0036838D01*
X0266444Y0036248D01*
X0266444Y0035068D01*
X0265854Y0034478D01*
X0264084Y0034478D01*
X0265264Y0034478D02*
X0266444Y0033298D01*
X0267710Y0033298D02*
X0270070Y0033298D01*
X0268890Y0033298D02*
X0268890Y0036838D01*
X0267710Y0035658D01*
X0271335Y0035658D02*
X0271335Y0036248D01*
X0271925Y0036838D01*
X0273105Y0036838D01*
X0273695Y0036248D01*
X0273695Y0035658D01*
X0273105Y0035068D01*
X0271925Y0035068D01*
X0271335Y0035658D01*
X0271925Y0035068D02*
X0271335Y0034478D01*
X0271335Y0033888D01*
X0271925Y0033298D01*
X0273105Y0033298D01*
X0273695Y0033888D01*
X0273695Y0034478D01*
X0273105Y0035068D01*
X0285410Y0035067D02*
X0285410Y0031527D01*
X0285410Y0032707D02*
X0287180Y0032707D01*
X0287770Y0033297D01*
X0287770Y0034477D01*
X0287180Y0035067D01*
X0285410Y0035067D01*
X0286590Y0032707D02*
X0287770Y0031527D01*
X0289035Y0031527D02*
X0291395Y0033887D01*
X0291395Y0034477D01*
X0290805Y0035067D01*
X0289625Y0035067D01*
X0289035Y0034477D01*
X0289035Y0031527D02*
X0291395Y0031527D01*
X0279430Y0013354D02*
X0277660Y0013354D01*
X0277660Y0009814D01*
X0279430Y0009814D01*
X0280020Y0010404D01*
X0280020Y0012764D01*
X0279430Y0013354D01*
X0276395Y0012764D02*
X0275805Y0013354D01*
X0274625Y0013354D01*
X0274035Y0012764D01*
X0274035Y0010404D01*
X0274625Y0009814D01*
X0275805Y0009814D01*
X0276395Y0010404D01*
X0261261Y0110643D02*
X0261851Y0111233D01*
X0261851Y0112413D01*
X0261261Y0113003D01*
X0258311Y0113003D01*
X0258311Y0114268D02*
X0260081Y0114268D01*
X0259491Y0115448D01*
X0259491Y0116038D01*
X0260081Y0116628D01*
X0261261Y0116628D01*
X0261851Y0116038D01*
X0261851Y0114858D01*
X0261261Y0114268D01*
X0258311Y0114268D02*
X0258311Y0116628D01*
X0258311Y0110643D02*
X0261261Y0110643D01*
X0246205Y0125129D02*
X0245025Y0125129D01*
X0244435Y0125719D01*
X0243169Y0126309D02*
X0243169Y0128669D01*
X0244435Y0128079D02*
X0245025Y0128669D01*
X0246205Y0128669D01*
X0246795Y0128079D01*
X0246795Y0127489D01*
X0246205Y0126899D01*
X0246795Y0126309D01*
X0246795Y0125719D01*
X0246205Y0125129D01*
X0246205Y0126899D02*
X0245615Y0126899D01*
X0243169Y0126309D02*
X0241989Y0125129D01*
X0240809Y0126309D01*
X0240809Y0128669D01*
X0239544Y0128079D02*
X0238954Y0128669D01*
X0237774Y0128669D01*
X0237184Y0128079D01*
X0237184Y0127489D01*
X0237774Y0126899D01*
X0238954Y0126899D01*
X0239544Y0126309D01*
X0239544Y0125719D01*
X0238954Y0125129D01*
X0237774Y0125129D01*
X0237184Y0125719D01*
X0220545Y0124637D02*
X0218185Y0124637D01*
X0219365Y0124637D02*
X0219365Y0128177D01*
X0218185Y0126997D01*
X0216920Y0127587D02*
X0216330Y0128177D01*
X0215150Y0128177D01*
X0214560Y0127587D01*
X0214560Y0125227D01*
X0215150Y0124637D01*
X0216330Y0124637D01*
X0216920Y0125227D01*
X0210309Y0124637D02*
X0207949Y0124637D01*
X0210309Y0126997D01*
X0210309Y0127587D01*
X0209719Y0128177D01*
X0208539Y0128177D01*
X0207949Y0127587D01*
X0206684Y0127587D02*
X0206094Y0128177D01*
X0204914Y0128177D01*
X0204324Y0127587D01*
X0204324Y0125227D01*
X0204914Y0124637D01*
X0206094Y0124637D01*
X0206684Y0125227D01*
X0202796Y0116628D02*
X0202796Y0114268D01*
X0200436Y0116628D01*
X0199846Y0116628D01*
X0199256Y0116038D01*
X0199256Y0114858D01*
X0199846Y0114268D01*
X0199256Y0113003D02*
X0202206Y0113003D01*
X0202796Y0112413D01*
X0202796Y0111233D01*
X0202206Y0110643D01*
X0199256Y0110643D01*
X0143741Y0111233D02*
X0143151Y0110643D01*
X0140201Y0110643D01*
X0143741Y0111233D02*
X0143741Y0112413D01*
X0143151Y0113003D01*
X0140201Y0113003D01*
X0141971Y0114268D02*
X0140201Y0116038D01*
X0143741Y0116038D01*
X0141971Y0116628D02*
X0141971Y0114268D01*
X0131719Y0125129D02*
X0130539Y0125129D01*
X0129949Y0125719D01*
X0132309Y0128079D01*
X0132309Y0125719D01*
X0131719Y0125129D01*
X0129949Y0125719D02*
X0129949Y0128079D01*
X0130539Y0128669D01*
X0131719Y0128669D01*
X0132309Y0128079D01*
X0128684Y0125129D02*
X0126324Y0125129D01*
X0127504Y0125129D02*
X0127504Y0128669D01*
X0126324Y0127489D01*
X0125059Y0126309D02*
X0123879Y0125129D01*
X0122699Y0126309D01*
X0122699Y0128669D01*
X0121434Y0128079D02*
X0120844Y0128669D01*
X0119664Y0128669D01*
X0119074Y0128079D01*
X0119074Y0127489D01*
X0119664Y0126899D01*
X0120844Y0126899D01*
X0121434Y0126309D01*
X0121434Y0125719D01*
X0120844Y0125129D01*
X0119664Y0125129D01*
X0119074Y0125719D01*
X0125059Y0126309D02*
X0125059Y0128669D01*
X0084686Y0116628D02*
X0084686Y0114268D01*
X0084686Y0115448D02*
X0081146Y0115448D01*
X0082326Y0114268D01*
X0081146Y0113003D02*
X0084096Y0113003D01*
X0084686Y0112413D01*
X0084686Y0111233D01*
X0084096Y0110643D01*
X0081146Y0110643D01*
X0074974Y0135011D02*
X0074974Y0135601D01*
X0077334Y0137961D01*
X0077334Y0138551D01*
X0074974Y0138551D01*
X0075550Y0140917D02*
X0076730Y0143277D01*
X0077995Y0143867D02*
X0078585Y0144457D01*
X0079765Y0144457D01*
X0080355Y0143867D01*
X0080355Y0143277D01*
X0079765Y0142687D01*
X0080355Y0142097D01*
X0080355Y0141507D01*
X0079765Y0140917D01*
X0078585Y0140917D01*
X0077995Y0141507D01*
X0079175Y0142687D02*
X0079765Y0142687D01*
X0075550Y0140917D02*
X0074370Y0143277D01*
X0069494Y0143277D02*
X0068904Y0143277D01*
X0067724Y0142097D01*
X0067724Y0140917D02*
X0067724Y0143277D01*
X0066458Y0142687D02*
X0066458Y0142097D01*
X0064098Y0142097D01*
X0064098Y0142687D02*
X0064688Y0143277D01*
X0065868Y0143277D01*
X0066458Y0142687D01*
X0065868Y0140917D02*
X0064688Y0140917D01*
X0064098Y0141507D01*
X0064098Y0142687D01*
X0062862Y0140917D02*
X0061682Y0140917D01*
X0062272Y0140917D02*
X0062272Y0144457D01*
X0061682Y0144457D01*
X0059827Y0144457D02*
X0059827Y0145047D01*
X0058647Y0145047D02*
X0058647Y0144457D01*
X0058647Y0143277D02*
X0059827Y0143277D01*
X0060417Y0142687D01*
X0060417Y0140917D01*
X0058647Y0140917D01*
X0058057Y0141507D01*
X0058647Y0142097D01*
X0060417Y0142097D01*
X0056791Y0140917D02*
X0056791Y0143277D01*
X0054431Y0143277D02*
X0054431Y0141507D01*
X0055021Y0140917D01*
X0056791Y0140917D01*
X0055021Y0138551D02*
X0055021Y0135011D01*
X0054431Y0135011D02*
X0055611Y0135011D01*
X0056848Y0135601D02*
X0056848Y0136781D01*
X0057438Y0137371D01*
X0059208Y0137371D01*
X0059208Y0138551D02*
X0059208Y0135011D01*
X0057438Y0135011D01*
X0056848Y0135601D01*
X0053166Y0135601D02*
X0052576Y0136191D01*
X0051396Y0136191D01*
X0050806Y0136781D01*
X0051396Y0137371D01*
X0053166Y0137371D01*
X0054431Y0138551D02*
X0055021Y0138551D01*
X0053166Y0140917D02*
X0051986Y0142097D01*
X0051396Y0140917D02*
X0050806Y0141507D01*
X0050806Y0143867D01*
X0051396Y0144457D01*
X0052576Y0144457D01*
X0053166Y0143867D01*
X0053166Y0141507D01*
X0052576Y0140917D01*
X0051396Y0140917D01*
X0053166Y0135601D02*
X0052576Y0135011D01*
X0050806Y0135011D01*
X0064098Y0135011D02*
X0066458Y0137371D01*
X0066458Y0137961D01*
X0065868Y0138551D01*
X0064688Y0138551D01*
X0064098Y0137961D01*
X0067724Y0137961D02*
X0068314Y0138551D01*
X0069494Y0138551D01*
X0070084Y0137961D01*
X0067724Y0135601D01*
X0068314Y0135011D01*
X0069494Y0135011D01*
X0070084Y0135601D01*
X0070084Y0137961D01*
X0071349Y0137371D02*
X0072529Y0138551D01*
X0072529Y0135011D01*
X0071349Y0135011D02*
X0073709Y0135011D01*
X0067724Y0135601D02*
X0067724Y0137961D01*
X0066458Y0135011D02*
X0064098Y0135011D01*
X0064098Y0146822D02*
X0065278Y0146822D01*
X0064688Y0146822D02*
X0064688Y0150362D01*
X0064098Y0150362D01*
X0062272Y0150362D02*
X0062272Y0146822D01*
X0061682Y0146822D02*
X0062862Y0146822D01*
X0060417Y0146822D02*
X0060417Y0148592D01*
X0059827Y0149182D01*
X0058647Y0149182D01*
X0058647Y0148002D02*
X0060417Y0148002D01*
X0060417Y0146822D02*
X0058647Y0146822D01*
X0058057Y0147412D01*
X0058647Y0148002D01*
X0056791Y0146822D02*
X0056791Y0149182D01*
X0054431Y0149182D02*
X0054431Y0147412D01*
X0055021Y0146822D01*
X0056791Y0146822D01*
X0053166Y0146822D02*
X0051986Y0148002D01*
X0051396Y0146822D02*
X0050806Y0147412D01*
X0050806Y0149772D01*
X0051396Y0150362D01*
X0052576Y0150362D01*
X0053166Y0149772D01*
X0053166Y0147412D01*
X0052576Y0146822D01*
X0051396Y0146822D01*
X0061682Y0150362D02*
X0062272Y0150362D01*
X0066515Y0148592D02*
X0067105Y0149182D01*
X0068285Y0149182D01*
X0068875Y0148592D01*
X0068875Y0148002D01*
X0066515Y0148002D01*
X0066515Y0147412D02*
X0066515Y0148592D01*
X0066515Y0147412D02*
X0067105Y0146822D01*
X0068285Y0146822D01*
X0070140Y0146822D02*
X0070140Y0149182D01*
X0071910Y0149182D01*
X0072500Y0148592D01*
X0072500Y0146822D01*
X0317366Y0116038D02*
X0317956Y0116628D01*
X0318546Y0116628D01*
X0319136Y0116038D01*
X0319726Y0116628D01*
X0320316Y0116628D01*
X0320906Y0116038D01*
X0320906Y0114858D01*
X0320316Y0114268D01*
X0320316Y0113003D02*
X0317366Y0113003D01*
X0317956Y0114268D02*
X0317366Y0114858D01*
X0317366Y0116038D01*
X0319136Y0116038D02*
X0319136Y0115448D01*
X0320316Y0113003D02*
X0320906Y0112413D01*
X0320906Y0111233D01*
X0320316Y0110643D01*
X0317366Y0110643D01*
X0336397Y0127294D02*
X0336987Y0126704D01*
X0338167Y0126704D01*
X0338757Y0127294D01*
X0338757Y0127884D01*
X0338167Y0128474D01*
X0336987Y0128474D01*
X0336397Y0129064D01*
X0336397Y0129654D01*
X0336987Y0130244D01*
X0338167Y0130244D01*
X0338757Y0129654D01*
X0340022Y0130244D02*
X0340022Y0127884D01*
X0341202Y0126704D01*
X0342382Y0127884D01*
X0342382Y0130244D01*
X0343647Y0128474D02*
X0346007Y0128474D01*
X0345417Y0126704D02*
X0345417Y0130244D01*
X0343647Y0128474D01*
D13*
X0344677Y0123630D02*
X0355677Y0123630D01*
X0355677Y0113630D01*
X0355677Y0103630D01*
X0344677Y0103630D01*
X0344677Y0113630D01*
X0344677Y0123630D01*
X0344677Y0113630D02*
X0355677Y0113630D01*
X0355677Y0103630D02*
X0355677Y0093630D01*
X0355677Y0083630D01*
X0355677Y0073630D01*
X0344677Y0073630D01*
X0344677Y0083630D01*
X0344677Y0093630D01*
X0344677Y0103630D01*
X0344677Y0093630D02*
X0355677Y0093630D01*
X0355677Y0083630D02*
X0344677Y0083630D01*
X0344677Y0073630D02*
X0344677Y0063630D01*
X0344677Y0053630D01*
X0355677Y0053630D01*
X0355677Y0063630D01*
X0355677Y0073630D01*
X0355677Y0063630D02*
X0344677Y0063630D01*
X0344677Y0053630D02*
X0344677Y0043630D01*
X0355677Y0043630D01*
X0355677Y0053630D01*
X0316169Y0041693D02*
X0313669Y0041693D01*
X0313669Y0046693D01*
X0313669Y0041693D02*
X0277169Y0041693D01*
X0277169Y0044693D01*
X0277169Y0114693D01*
X0285669Y0114693D01*
X0291169Y0115193D02*
X0291169Y0117693D01*
X0277169Y0117693D01*
X0277169Y0114693D01*
X0287965Y0107270D02*
X0293369Y0107270D01*
X0293369Y0109071D02*
X0293369Y0105468D01*
X0289766Y0105468D02*
X0287965Y0107270D01*
X0288865Y0100071D02*
X0287965Y0099170D01*
X0287965Y0097369D01*
X0288865Y0096468D01*
X0289766Y0100071D02*
X0293369Y0096468D01*
X0293369Y0100071D01*
X0289766Y0100071D02*
X0288865Y0100071D01*
X0313669Y0102693D02*
X0313669Y0106693D01*
X0313669Y0112693D02*
X0313669Y0117693D01*
X0306669Y0117693D01*
X0306669Y0115193D01*
X0291169Y0115193D01*
X0291169Y0117693D02*
X0306669Y0117693D01*
X0313669Y0117693D02*
X0316169Y0117693D01*
X0316169Y0041693D01*
X0303369Y0047369D02*
X0303369Y0049170D01*
X0302469Y0050071D01*
X0301568Y0050071D01*
X0300667Y0049170D01*
X0300667Y0047369D01*
X0299766Y0046468D01*
X0298865Y0046468D01*
X0297965Y0047369D01*
X0297965Y0049170D01*
X0298865Y0050071D01*
X0299766Y0050071D01*
X0300667Y0049170D01*
X0300667Y0047369D02*
X0301568Y0046468D01*
X0302469Y0046468D01*
X0303369Y0047369D01*
X0293369Y0046468D02*
X0292469Y0046468D01*
X0288865Y0050071D01*
X0287965Y0050071D01*
X0287965Y0046468D01*
X0285669Y0044693D02*
X0277169Y0044693D01*
X0290667Y0056468D02*
X0290667Y0059170D01*
X0291568Y0060071D01*
X0292469Y0060071D01*
X0293369Y0059170D01*
X0293369Y0057369D01*
X0292469Y0056468D01*
X0290667Y0056468D01*
X0288865Y0058270D01*
X0287965Y0060071D01*
X0313669Y0062693D02*
X0313669Y0066693D01*
X0313669Y0072693D02*
X0313669Y0076693D01*
X0313669Y0082693D02*
X0313669Y0086693D01*
X0313669Y0092693D02*
X0313669Y0096693D01*
X0254614Y0096693D02*
X0254614Y0092693D01*
X0254614Y0086693D02*
X0254614Y0082693D01*
X0254614Y0076693D02*
X0254614Y0072693D01*
X0254614Y0066693D02*
X0254614Y0062693D01*
X0254614Y0056693D02*
X0254614Y0052693D01*
X0254614Y0046693D02*
X0254614Y0041693D01*
X0257114Y0041693D01*
X0257114Y0117693D01*
X0254614Y0117693D01*
X0254614Y0112693D01*
X0247614Y0115193D02*
X0232114Y0115193D01*
X0232114Y0117693D01*
X0218114Y0117693D01*
X0218114Y0114693D01*
X0218114Y0044693D01*
X0218114Y0041693D01*
X0254614Y0041693D01*
X0244314Y0047369D02*
X0243413Y0046468D01*
X0242513Y0046468D01*
X0241612Y0047369D01*
X0241612Y0049170D01*
X0242513Y0050071D01*
X0243413Y0050071D01*
X0244314Y0049170D01*
X0244314Y0047369D01*
X0241612Y0047369D02*
X0240711Y0046468D01*
X0239810Y0046468D01*
X0238910Y0047369D01*
X0238910Y0049170D01*
X0239810Y0050071D01*
X0240711Y0050071D01*
X0241612Y0049170D01*
X0234314Y0046468D02*
X0233413Y0046468D01*
X0229810Y0050071D01*
X0228910Y0050071D01*
X0228910Y0046468D01*
X0226614Y0044693D02*
X0218114Y0044693D01*
X0232614Y0035500D02*
X0235114Y0038000D01*
X0240114Y0038000D01*
X0242614Y0035500D01*
X0242614Y0030500D01*
X0240114Y0028000D01*
X0242614Y0025500D01*
X0242614Y0020500D01*
X0240114Y0018000D01*
X0242614Y0015500D01*
X0242614Y0010500D01*
X0240114Y0008000D01*
X0235114Y0008000D01*
X0232614Y0010500D01*
X0232614Y0015500D01*
X0235114Y0018000D01*
X0232614Y0020500D01*
X0232614Y0025500D01*
X0235114Y0028000D01*
X0232614Y0030500D01*
X0232614Y0035500D01*
X0223929Y0028488D02*
X0223929Y0006488D01*
X0211929Y0006488D01*
X0211929Y0028488D01*
X0223929Y0028488D01*
X0251299Y0028488D02*
X0251299Y0006488D01*
X0263299Y0006488D01*
X0263299Y0028488D01*
X0251299Y0028488D01*
X0290669Y0028488D02*
X0290669Y0006488D01*
X0302669Y0006488D01*
X0302669Y0028488D01*
X0290669Y0028488D01*
X0313669Y0052693D02*
X0313669Y0056693D01*
X0234314Y0057369D02*
X0234314Y0059170D01*
X0233413Y0060071D01*
X0232513Y0060071D01*
X0231612Y0059170D01*
X0231612Y0056468D01*
X0233413Y0056468D01*
X0234314Y0057369D01*
X0231612Y0056468D02*
X0229810Y0058270D01*
X0228910Y0060071D01*
X0195559Y0062693D02*
X0195559Y0066693D01*
X0195559Y0072693D02*
X0195559Y0076693D01*
X0195559Y0082693D02*
X0195559Y0086693D01*
X0195559Y0092693D02*
X0195559Y0096693D01*
X0195559Y0102693D02*
X0195559Y0106693D01*
X0195559Y0112693D02*
X0195559Y0117693D01*
X0188559Y0117693D01*
X0188559Y0115193D01*
X0173059Y0115193D01*
X0173059Y0117693D01*
X0159059Y0117693D01*
X0159059Y0114693D01*
X0159059Y0044693D01*
X0159059Y0041693D01*
X0195559Y0041693D01*
X0198059Y0041693D01*
X0198059Y0117693D01*
X0195559Y0117693D01*
X0188559Y0117693D02*
X0173059Y0117693D01*
X0167559Y0114693D02*
X0159059Y0114693D01*
X0169854Y0107270D02*
X0175259Y0107270D01*
X0175259Y0109071D02*
X0175259Y0105468D01*
X0171656Y0105468D02*
X0169854Y0107270D01*
X0170755Y0100071D02*
X0169854Y0099170D01*
X0169854Y0097369D01*
X0170755Y0096468D01*
X0170755Y0100071D02*
X0171656Y0100071D01*
X0175259Y0096468D01*
X0175259Y0100071D01*
X0139004Y0117693D02*
X0136504Y0117693D01*
X0136504Y0112693D01*
X0129504Y0115193D02*
X0114004Y0115193D01*
X0114004Y0117693D01*
X0100004Y0117693D01*
X0100004Y0114693D01*
X0100004Y0044693D01*
X0100004Y0041693D01*
X0136504Y0041693D01*
X0139004Y0041693D01*
X0139004Y0117693D01*
X0136504Y0117693D02*
X0129504Y0117693D01*
X0129504Y0115193D01*
X0129504Y0117693D02*
X0114004Y0117693D01*
X0108504Y0114693D02*
X0100004Y0114693D01*
X0110799Y0107270D02*
X0116204Y0107270D01*
X0116204Y0109071D02*
X0116204Y0105468D01*
X0112601Y0105468D02*
X0110799Y0107270D01*
X0111700Y0100071D02*
X0110799Y0099170D01*
X0110799Y0097369D01*
X0111700Y0096468D01*
X0112601Y0100071D02*
X0116204Y0096468D01*
X0116204Y0100071D01*
X0112601Y0100071D02*
X0111700Y0100071D01*
X0136504Y0102693D02*
X0136504Y0106693D01*
X0136504Y0096693D02*
X0136504Y0092693D01*
X0136504Y0086693D02*
X0136504Y0082693D01*
X0136504Y0076693D02*
X0136504Y0072693D01*
X0136504Y0066693D02*
X0136504Y0062693D01*
X0136504Y0056693D02*
X0136504Y0052693D01*
X0126204Y0049170D02*
X0126204Y0047369D01*
X0125303Y0046468D01*
X0124402Y0046468D01*
X0123502Y0047369D01*
X0123502Y0049170D01*
X0124402Y0050071D01*
X0125303Y0050071D01*
X0126204Y0049170D01*
X0123502Y0049170D02*
X0122601Y0050071D01*
X0121700Y0050071D01*
X0120799Y0049170D01*
X0120799Y0047369D01*
X0121700Y0046468D01*
X0122601Y0046468D01*
X0123502Y0047369D01*
X0116204Y0046468D02*
X0115303Y0046468D01*
X0111700Y0050071D01*
X0110799Y0050071D01*
X0110799Y0046468D01*
X0108504Y0044693D02*
X0100004Y0044693D01*
X0117260Y0035500D02*
X0119760Y0038000D01*
X0124760Y0038000D01*
X0127260Y0035500D01*
X0127260Y0030500D01*
X0124760Y0028000D01*
X0127260Y0025500D01*
X0127260Y0020500D01*
X0124760Y0018000D01*
X0127260Y0015500D01*
X0127260Y0010500D01*
X0124760Y0008000D01*
X0119760Y0008000D01*
X0117260Y0010500D01*
X0117260Y0015500D01*
X0119760Y0018000D01*
X0117260Y0020500D01*
X0117260Y0025500D01*
X0119760Y0028000D01*
X0117260Y0030500D01*
X0117260Y0035500D01*
X0105819Y0028488D02*
X0105819Y0006488D01*
X0093819Y0006488D01*
X0093819Y0028488D01*
X0105819Y0028488D01*
X0079949Y0041693D02*
X0077449Y0041693D01*
X0077449Y0046693D01*
X0077449Y0041693D02*
X0040949Y0041693D01*
X0040949Y0044693D01*
X0040949Y0114693D01*
X0049449Y0114693D01*
X0054949Y0115193D02*
X0054949Y0117693D01*
X0040949Y0117693D01*
X0040949Y0114693D01*
X0051744Y0107270D02*
X0057149Y0107270D01*
X0057149Y0109071D02*
X0057149Y0105468D01*
X0053546Y0105468D02*
X0051744Y0107270D01*
X0052645Y0100071D02*
X0051744Y0099170D01*
X0051744Y0097369D01*
X0052645Y0096468D01*
X0052645Y0100071D02*
X0053546Y0100071D01*
X0057149Y0096468D01*
X0057149Y0100071D01*
X0077449Y0102693D02*
X0077449Y0106693D01*
X0077449Y0112693D02*
X0077449Y0117693D01*
X0070449Y0117693D01*
X0070449Y0115193D01*
X0054949Y0115193D01*
X0054949Y0117693D02*
X0070449Y0117693D01*
X0077449Y0117693D02*
X0079949Y0117693D01*
X0079949Y0041693D01*
X0067149Y0047369D02*
X0067149Y0049170D01*
X0066248Y0050071D01*
X0065347Y0050071D01*
X0064447Y0049170D01*
X0064447Y0047369D01*
X0063546Y0046468D01*
X0062645Y0046468D01*
X0061744Y0047369D01*
X0061744Y0049170D01*
X0062645Y0050071D01*
X0063546Y0050071D01*
X0064447Y0049170D01*
X0064447Y0047369D02*
X0065347Y0046468D01*
X0066248Y0046468D01*
X0067149Y0047369D01*
X0057149Y0046468D02*
X0056248Y0046468D01*
X0052645Y0050071D01*
X0051744Y0050071D01*
X0051744Y0046468D01*
X0049449Y0044693D02*
X0040949Y0044693D01*
X0054447Y0056468D02*
X0054447Y0059170D01*
X0055347Y0060071D01*
X0056248Y0060071D01*
X0057149Y0059170D01*
X0057149Y0057369D01*
X0056248Y0056468D01*
X0054447Y0056468D01*
X0052645Y0058270D01*
X0051744Y0060071D01*
X0077449Y0062693D02*
X0077449Y0066693D01*
X0077449Y0072693D02*
X0077449Y0076693D01*
X0077449Y0082693D02*
X0077449Y0086693D01*
X0077449Y0092693D02*
X0077449Y0096693D01*
X0110799Y0060071D02*
X0111700Y0058270D01*
X0113502Y0056468D01*
X0113502Y0059170D01*
X0114402Y0060071D01*
X0115303Y0060071D01*
X0116204Y0059170D01*
X0116204Y0057369D01*
X0115303Y0056468D01*
X0113502Y0056468D01*
X0136504Y0046693D02*
X0136504Y0041693D01*
X0159059Y0044693D02*
X0167559Y0044693D01*
X0169854Y0046468D02*
X0169854Y0050071D01*
X0170755Y0050071D01*
X0174358Y0046468D01*
X0175259Y0046468D01*
X0179854Y0047369D02*
X0179854Y0049170D01*
X0180755Y0050071D01*
X0181656Y0050071D01*
X0182557Y0049170D01*
X0182557Y0047369D01*
X0181656Y0046468D01*
X0180755Y0046468D01*
X0179854Y0047369D01*
X0182557Y0047369D02*
X0183458Y0046468D01*
X0184358Y0046468D01*
X0185259Y0047369D01*
X0185259Y0049170D01*
X0184358Y0050071D01*
X0183458Y0050071D01*
X0182557Y0049170D01*
X0195559Y0046693D02*
X0195559Y0041693D01*
X0195559Y0052693D02*
X0195559Y0056693D01*
X0175259Y0057369D02*
X0175259Y0059170D01*
X0174358Y0060071D01*
X0173458Y0060071D01*
X0172557Y0059170D01*
X0172557Y0056468D01*
X0174358Y0056468D01*
X0175259Y0057369D01*
X0172557Y0056468D02*
X0170755Y0058270D01*
X0169854Y0060071D01*
X0172559Y0028488D02*
X0172559Y0006488D01*
X0184559Y0006488D01*
X0184559Y0028488D01*
X0172559Y0028488D01*
X0077449Y0052693D02*
X0077449Y0056693D01*
X0066449Y0028488D02*
X0054449Y0028488D01*
X0054449Y0006488D01*
X0066449Y0006488D01*
X0066449Y0028488D01*
X0228910Y0097369D02*
X0229810Y0096468D01*
X0228910Y0097369D02*
X0228910Y0099170D01*
X0229810Y0100071D01*
X0230711Y0100071D01*
X0234314Y0096468D01*
X0234314Y0100071D01*
X0234314Y0105468D02*
X0234314Y0109071D01*
X0234314Y0107270D02*
X0228910Y0107270D01*
X0230711Y0105468D01*
X0226614Y0114693D02*
X0218114Y0114693D01*
X0232114Y0117693D02*
X0247614Y0117693D01*
X0247614Y0115193D01*
X0247614Y0117693D02*
X0254614Y0117693D01*
X0254614Y0106693D02*
X0254614Y0102693D01*
X0256984Y0150929D02*
X0246984Y0150929D01*
X0236984Y0150929D01*
X0236984Y0161929D01*
X0246984Y0161929D01*
X0256984Y0161929D01*
X0256984Y0150929D01*
X0266984Y0150929D01*
X0266984Y0161929D01*
X0256984Y0161929D01*
X0246984Y0161929D02*
X0246984Y0150929D01*
X0266984Y0150929D02*
X0276984Y0150929D01*
X0276984Y0161929D01*
X0286984Y0161929D01*
X0286984Y0150929D01*
X0276984Y0150929D01*
X0286984Y0150929D02*
X0296984Y0150929D01*
X0306984Y0150929D01*
X0306984Y0161929D01*
X0296984Y0161929D01*
X0286984Y0161929D01*
X0276984Y0161929D02*
X0266984Y0161929D01*
X0296984Y0161929D02*
X0296984Y0150929D01*
X0306984Y0150929D02*
X0316984Y0150929D01*
X0316984Y0161929D01*
X0306984Y0161929D01*
X0198874Y0161929D02*
X0198874Y0150929D01*
X0188874Y0150929D01*
X0178874Y0150929D01*
X0168874Y0150929D01*
X0168874Y0161929D01*
X0158874Y0161929D01*
X0148874Y0161929D01*
X0138874Y0161929D01*
X0128874Y0161929D01*
X0118874Y0161929D01*
X0118874Y0150929D01*
X0128874Y0150929D01*
X0138874Y0150929D01*
X0138874Y0161929D01*
X0128874Y0161929D02*
X0128874Y0150929D01*
X0138874Y0150929D02*
X0148874Y0150929D01*
X0148874Y0161929D01*
X0158874Y0161929D02*
X0158874Y0150929D01*
X0148874Y0150929D01*
X0158874Y0150929D02*
X0168874Y0150929D01*
X0178874Y0150929D02*
X0178874Y0161929D01*
X0188874Y0161929D01*
X0188874Y0150929D01*
X0188874Y0161929D02*
X0198874Y0161929D01*
X0178874Y0161929D02*
X0168874Y0161929D01*
D14*
X0163874Y0164929D02*
X0163874Y0183429D01*
X0173874Y0183429D02*
X0173874Y0164929D01*
X0183874Y0164929D02*
X0183874Y0183429D01*
X0193874Y0183429D02*
X0193874Y0164929D01*
X0153874Y0164929D02*
X0153874Y0183429D01*
X0143874Y0183429D02*
X0143874Y0164929D01*
X0133874Y0164929D02*
X0133874Y0183429D01*
X0123874Y0183429D02*
X0123874Y0164929D01*
X0241984Y0164929D02*
X0241984Y0183429D01*
X0251984Y0183429D02*
X0251984Y0164929D01*
X0261984Y0164929D02*
X0261984Y0183429D01*
X0271984Y0183429D02*
X0271984Y0164929D01*
X0281984Y0164929D02*
X0281984Y0183429D01*
X0291984Y0183429D02*
X0291984Y0164929D01*
X0301984Y0164929D02*
X0301984Y0183429D01*
X0311984Y0183429D02*
X0311984Y0164929D01*
X0358677Y0118630D02*
X0377177Y0118630D01*
X0377177Y0108630D02*
X0358677Y0108630D01*
X0358677Y0098630D02*
X0377177Y0098630D01*
X0377177Y0088630D02*
X0358677Y0088630D01*
X0358677Y0078630D02*
X0377177Y0078630D01*
X0377177Y0068630D02*
X0358677Y0068630D01*
X0358677Y0058630D02*
X0377177Y0058630D01*
X0377177Y0048630D02*
X0358677Y0048630D01*
D15*
X0354034Y0047881D02*
X0354034Y0047131D01*
X0353283Y0046380D01*
X0351782Y0046380D01*
X0351031Y0047131D01*
X0351031Y0048632D01*
X0353283Y0048632D01*
X0354034Y0047881D01*
X0352532Y0050133D02*
X0351031Y0048632D01*
X0352532Y0050133D02*
X0354034Y0050884D01*
X0347928Y0050884D02*
X0347928Y0046380D01*
X0346427Y0046380D02*
X0349430Y0046380D01*
X0346427Y0049382D02*
X0347928Y0050884D01*
X0347928Y0056380D02*
X0347928Y0060884D01*
X0346427Y0059382D01*
X0351031Y0058632D02*
X0354034Y0058632D01*
X0353283Y0056380D02*
X0353283Y0060884D01*
X0351031Y0058632D01*
X0349430Y0056380D02*
X0346427Y0056380D01*
X0346427Y0066380D02*
X0349430Y0066380D01*
X0347928Y0066380D02*
X0347928Y0070884D01*
X0346427Y0069382D01*
X0351031Y0070133D02*
X0351782Y0070884D01*
X0353283Y0070884D01*
X0354034Y0070133D01*
X0354034Y0069382D01*
X0351031Y0066380D01*
X0354034Y0066380D01*
X0353283Y0076380D02*
X0351782Y0076380D01*
X0351031Y0077131D01*
X0354034Y0080133D01*
X0354034Y0077131D01*
X0353283Y0076380D01*
X0351031Y0077131D02*
X0351031Y0080133D01*
X0351782Y0080884D01*
X0353283Y0080884D01*
X0354034Y0080133D01*
X0349430Y0076380D02*
X0346427Y0076380D01*
X0347928Y0076380D02*
X0347928Y0080884D01*
X0346427Y0079382D01*
X0348678Y0086380D02*
X0347927Y0087131D01*
X0347927Y0087881D01*
X0348678Y0088632D01*
X0350179Y0088632D01*
X0350930Y0087881D01*
X0350930Y0087131D01*
X0350179Y0086380D01*
X0348678Y0086380D01*
X0348678Y0088632D02*
X0347927Y0089382D01*
X0347927Y0090133D01*
X0348678Y0090884D01*
X0350179Y0090884D01*
X0350930Y0090133D01*
X0350930Y0089382D01*
X0350179Y0088632D01*
X0350179Y0096380D02*
X0348678Y0096380D01*
X0347927Y0097131D01*
X0347927Y0098632D01*
X0350179Y0098632D01*
X0350930Y0097881D01*
X0350930Y0097131D01*
X0350179Y0096380D01*
X0347927Y0098632D02*
X0349428Y0100133D01*
X0350930Y0100884D01*
X0350179Y0106380D02*
X0350179Y0110884D01*
X0347927Y0108632D01*
X0350930Y0108632D01*
X0350930Y0116380D02*
X0347927Y0116380D01*
X0350930Y0119382D01*
X0350930Y0120133D01*
X0350179Y0120884D01*
X0348678Y0120884D01*
X0347927Y0120133D01*
X0314234Y0152679D02*
X0314234Y0155682D01*
X0314234Y0154180D02*
X0309730Y0154180D01*
X0311232Y0152679D01*
X0304234Y0152679D02*
X0304234Y0155682D01*
X0304234Y0154180D02*
X0299730Y0154180D01*
X0301232Y0152679D01*
X0294234Y0152679D02*
X0294234Y0155682D01*
X0294234Y0154180D02*
X0289730Y0154180D01*
X0291232Y0152679D01*
X0284234Y0152679D02*
X0284234Y0155682D01*
X0284234Y0154180D02*
X0279730Y0154180D01*
X0281232Y0152679D01*
X0274234Y0154930D02*
X0274234Y0156431D01*
X0273484Y0157182D01*
X0272733Y0157182D01*
X0271982Y0156431D01*
X0271982Y0154930D01*
X0271232Y0154179D01*
X0270481Y0154179D01*
X0269730Y0154930D01*
X0269730Y0156431D01*
X0270481Y0157182D01*
X0271232Y0157182D01*
X0271982Y0156431D01*
X0271982Y0154930D02*
X0272733Y0154179D01*
X0273484Y0154179D01*
X0274234Y0154930D01*
X0279730Y0158034D02*
X0279730Y0159535D01*
X0280481Y0160286D01*
X0283484Y0157283D01*
X0284234Y0158034D01*
X0284234Y0159535D01*
X0283484Y0160286D01*
X0280481Y0160286D01*
X0279730Y0158034D02*
X0280481Y0157283D01*
X0283484Y0157283D01*
X0289730Y0158034D02*
X0290481Y0157283D01*
X0289730Y0158034D02*
X0289730Y0159535D01*
X0290481Y0160286D01*
X0291232Y0160286D01*
X0294234Y0157283D01*
X0294234Y0160286D01*
X0299730Y0159535D02*
X0301982Y0157283D01*
X0301982Y0160286D01*
X0304234Y0159535D02*
X0299730Y0159535D01*
X0309730Y0160286D02*
X0310481Y0158784D01*
X0311982Y0157283D01*
X0311982Y0159535D01*
X0312733Y0160286D01*
X0313484Y0160286D01*
X0314234Y0159535D01*
X0314234Y0158034D01*
X0313484Y0157283D01*
X0311982Y0157283D01*
X0264234Y0156431D02*
X0264234Y0154930D01*
X0263484Y0154179D01*
X0261982Y0154179D01*
X0261982Y0156431D01*
X0262733Y0157182D01*
X0263484Y0157182D01*
X0264234Y0156431D01*
X0261982Y0154179D02*
X0260481Y0155680D01*
X0259730Y0157182D01*
X0254234Y0156431D02*
X0249730Y0156431D01*
X0251982Y0154179D01*
X0251982Y0157182D01*
X0244234Y0157182D02*
X0244234Y0154179D01*
X0241232Y0157182D01*
X0240481Y0157182D01*
X0239730Y0156431D01*
X0239730Y0154930D01*
X0240481Y0154179D01*
X0196124Y0154180D02*
X0191620Y0154180D01*
X0193121Y0152679D01*
X0196124Y0152679D02*
X0196124Y0155682D01*
X0195373Y0157283D02*
X0196124Y0158034D01*
X0196124Y0159535D01*
X0195373Y0160286D01*
X0194623Y0160286D01*
X0193872Y0159535D01*
X0193872Y0157283D01*
X0195373Y0157283D01*
X0193872Y0157283D02*
X0192371Y0158784D01*
X0191620Y0160286D01*
X0186124Y0159535D02*
X0181620Y0159535D01*
X0183872Y0157283D01*
X0183872Y0160286D01*
X0186124Y0155682D02*
X0186124Y0152679D01*
X0186124Y0154180D02*
X0181620Y0154180D01*
X0183121Y0152679D01*
X0176124Y0152679D02*
X0176124Y0155682D01*
X0176124Y0154180D02*
X0171620Y0154180D01*
X0173121Y0152679D01*
X0166124Y0152679D02*
X0166124Y0155682D01*
X0166124Y0154180D02*
X0161620Y0154180D01*
X0163121Y0152679D01*
X0156124Y0154930D02*
X0155373Y0154179D01*
X0154623Y0154179D01*
X0153872Y0154930D01*
X0153872Y0156431D01*
X0154623Y0157182D01*
X0155373Y0157182D01*
X0156124Y0156431D01*
X0156124Y0154930D01*
X0153872Y0154930D02*
X0153121Y0154179D01*
X0152371Y0154179D01*
X0151620Y0154930D01*
X0151620Y0156431D01*
X0152371Y0157182D01*
X0153121Y0157182D01*
X0153872Y0156431D01*
X0146124Y0156431D02*
X0146124Y0154930D01*
X0145373Y0154179D01*
X0143872Y0154179D01*
X0143872Y0156431D01*
X0144623Y0157182D01*
X0145373Y0157182D01*
X0146124Y0156431D01*
X0143872Y0154179D02*
X0142371Y0155680D01*
X0141620Y0157182D01*
X0136124Y0156431D02*
X0131620Y0156431D01*
X0133872Y0154179D01*
X0133872Y0157182D01*
X0126124Y0157182D02*
X0126124Y0154179D01*
X0123121Y0157182D01*
X0122371Y0157182D01*
X0121620Y0156431D01*
X0121620Y0154930D01*
X0122371Y0154179D01*
X0161620Y0158034D02*
X0161620Y0159535D01*
X0162371Y0160286D01*
X0165373Y0157283D01*
X0166124Y0158034D01*
X0166124Y0159535D01*
X0165373Y0160286D01*
X0162371Y0160286D01*
X0161620Y0158034D02*
X0162371Y0157283D01*
X0165373Y0157283D01*
X0171620Y0158034D02*
X0172371Y0157283D01*
X0171620Y0158034D02*
X0171620Y0159535D01*
X0172371Y0160286D01*
X0173121Y0160286D01*
X0176124Y0157283D01*
X0176124Y0160286D01*
X0124510Y0006253D02*
X0124510Y0003250D01*
X0124510Y0004751D02*
X0120006Y0004751D01*
X0121507Y0003250D01*
X0235360Y0004751D02*
X0236862Y0003250D01*
X0235360Y0004751D02*
X0239864Y0004751D01*
X0239864Y0003250D02*
X0239864Y0006253D01*
D16*
X0241984Y0163429D03*
X0251984Y0163429D03*
X0261984Y0163429D03*
X0271984Y0163429D03*
X0281984Y0163429D03*
X0291984Y0163429D03*
X0301984Y0163429D03*
X0311984Y0163429D03*
X0193874Y0163429D03*
X0183874Y0163429D03*
X0173874Y0163429D03*
X0163874Y0163429D03*
X0153874Y0163429D03*
X0143874Y0163429D03*
X0133874Y0163429D03*
X0123874Y0163429D03*
D17*
X0123874Y0149629D03*
X0133874Y0149629D03*
X0143874Y0149629D03*
X0153874Y0149629D03*
X0163874Y0149629D03*
X0173874Y0149629D03*
X0183874Y0149629D03*
X0193874Y0149629D03*
X0241984Y0149629D03*
X0251984Y0149629D03*
X0261984Y0149629D03*
X0271984Y0149629D03*
X0281984Y0149629D03*
X0291984Y0149629D03*
X0301984Y0149629D03*
X0311984Y0149629D03*
X0343377Y0118630D03*
X0343377Y0108630D03*
X0343377Y0098630D03*
X0343377Y0088630D03*
X0343377Y0078630D03*
X0343377Y0068630D03*
X0343377Y0058630D03*
X0343377Y0048630D03*
D18*
X0311984Y0139929D03*
X0301984Y0139929D03*
X0291984Y0139929D03*
X0281984Y0139929D03*
X0271984Y0139929D03*
X0261984Y0139929D03*
X0251984Y0139929D03*
X0241984Y0139929D03*
X0193874Y0139929D03*
X0183874Y0139929D03*
X0173874Y0139929D03*
X0163874Y0139929D03*
X0153874Y0139929D03*
X0143874Y0139929D03*
X0133874Y0139929D03*
X0123874Y0139929D03*
D19*
X0357177Y0118630D03*
X0357177Y0108630D03*
X0357177Y0098630D03*
X0357177Y0088630D03*
X0357177Y0078630D03*
X0357177Y0068630D03*
X0357177Y0058630D03*
X0357177Y0048630D03*
D20*
X0333677Y0048630D03*
X0333677Y0058630D03*
X0333677Y0068630D03*
X0333677Y0078630D03*
X0333677Y0088630D03*
X0333677Y0098630D03*
X0333677Y0108630D03*
X0333677Y0118630D03*
M02*
