G75*
%MOIN*%
%OFA0B0*%
%FSLAX25Y25*%
%IPPOS*%
%LPD*%
%AMOC8*
5,1,8,0,0,1.08239X$1,22.5*
%
%ADD10C,0.00591*%
%ADD11C,0.00394*%
%ADD12C,0.04800*%
%ADD13R,0.03937X0.05512*%
%ADD14R,0.04331X0.03937*%
%ADD15OC8,0.06000*%
%ADD16R,0.03937X0.04331*%
%ADD17C,0.06000*%
%ADD18C,0.05118*%
%ADD19C,0.26378*%
%ADD20C,0.26772*%
%ADD21C,0.00787*%
%ADD22C,0.01575*%
%ADD23C,0.03937*%
%ADD24C,0.03150*%
D10*
X0001394Y0004890D02*
X0355724Y0004890D01*
X0355724Y0189929D01*
X0324228Y0189929D01*
X0324228Y0178118D01*
X0111630Y0178118D01*
X0111630Y0189929D01*
X0080134Y0189929D01*
X0080134Y0162370D01*
X0032890Y0162370D01*
X0032890Y0189929D01*
X0001394Y0189929D01*
D11*
X0001394Y0004890D01*
D12*
X0043049Y0049693D02*
X0047849Y0049693D01*
X0047849Y0059693D02*
X0043049Y0059693D01*
X0073049Y0059693D02*
X0077849Y0059693D01*
X0077849Y0049693D02*
X0073049Y0049693D01*
X0102104Y0049693D02*
X0106904Y0049693D01*
X0106904Y0059693D02*
X0102104Y0059693D01*
X0132104Y0059693D02*
X0136904Y0059693D01*
X0136904Y0049693D02*
X0132104Y0049693D01*
X0161159Y0049693D02*
X0165959Y0049693D01*
X0165959Y0059693D02*
X0161159Y0059693D01*
X0191159Y0059693D02*
X0195959Y0059693D01*
X0195959Y0049693D02*
X0191159Y0049693D01*
X0220214Y0049693D02*
X0225014Y0049693D01*
X0225014Y0059693D02*
X0220214Y0059693D01*
X0250214Y0059693D02*
X0255014Y0059693D01*
X0255014Y0049693D02*
X0250214Y0049693D01*
X0279269Y0049693D02*
X0284069Y0049693D01*
X0284069Y0059693D02*
X0279269Y0059693D01*
X0309269Y0059693D02*
X0314069Y0059693D01*
X0314069Y0049693D02*
X0309269Y0049693D01*
X0309269Y0099693D02*
X0314069Y0099693D01*
X0314069Y0109693D02*
X0309269Y0109693D01*
X0284069Y0109693D02*
X0279269Y0109693D01*
X0279269Y0099693D02*
X0284069Y0099693D01*
X0255014Y0099693D02*
X0250214Y0099693D01*
X0250214Y0109693D02*
X0255014Y0109693D01*
X0225014Y0109693D02*
X0220214Y0109693D01*
X0220214Y0099693D02*
X0225014Y0099693D01*
X0195959Y0099693D02*
X0191159Y0099693D01*
X0191159Y0109693D02*
X0195959Y0109693D01*
X0165959Y0109693D02*
X0161159Y0109693D01*
X0161159Y0099693D02*
X0165959Y0099693D01*
X0136904Y0099693D02*
X0132104Y0099693D01*
X0132104Y0109693D02*
X0136904Y0109693D01*
X0106904Y0109693D02*
X0102104Y0109693D01*
X0102104Y0099693D02*
X0106904Y0099693D01*
X0077849Y0099693D02*
X0073049Y0099693D01*
X0073049Y0109693D02*
X0077849Y0109693D01*
X0047849Y0109693D02*
X0043049Y0109693D01*
X0043049Y0099693D02*
X0047849Y0099693D01*
D13*
X0056031Y0068433D03*
X0063512Y0068433D03*
X0059772Y0059772D03*
X0116780Y0068827D03*
X0124260Y0068827D03*
X0120520Y0060165D03*
X0175024Y0068252D03*
X0182504Y0068252D03*
X0178764Y0059591D03*
X0233496Y0068244D03*
X0240976Y0068244D03*
X0237236Y0059583D03*
X0293197Y0068646D03*
X0300677Y0068646D03*
X0296937Y0059984D03*
D14*
X0285654Y0071394D03*
X0285654Y0078087D03*
X0225976Y0078031D03*
X0225976Y0071339D03*
X0167543Y0071094D03*
X0167543Y0077787D03*
X0109457Y0077976D03*
X0109457Y0071283D03*
X0049402Y0071433D03*
X0049402Y0078126D03*
D15*
X0123874Y0134929D03*
X0133874Y0134929D03*
X0143874Y0134929D03*
X0153874Y0134929D03*
X0163874Y0134929D03*
X0173874Y0134929D03*
X0183874Y0134929D03*
X0193874Y0134929D03*
X0193874Y0144929D03*
X0183874Y0144929D03*
X0173874Y0144929D03*
X0163874Y0144929D03*
X0153874Y0144929D03*
X0143874Y0144929D03*
X0133874Y0144929D03*
X0123874Y0144929D03*
X0241984Y0144929D03*
X0251984Y0144929D03*
X0261984Y0144929D03*
X0271984Y0144929D03*
X0281984Y0144929D03*
X0291984Y0144929D03*
X0301984Y0144929D03*
X0311984Y0144929D03*
X0311984Y0134929D03*
X0301984Y0134929D03*
X0291984Y0134929D03*
X0281984Y0134929D03*
X0271984Y0134929D03*
X0261984Y0134929D03*
X0251984Y0134929D03*
X0241984Y0134929D03*
X0328677Y0118630D03*
X0338677Y0118630D03*
X0338677Y0108630D03*
X0328677Y0108630D03*
X0328677Y0098630D03*
X0338677Y0098630D03*
X0338677Y0088630D03*
X0328677Y0088630D03*
X0328677Y0078630D03*
X0338677Y0078630D03*
X0338677Y0068630D03*
X0328677Y0068630D03*
X0328677Y0058630D03*
X0338677Y0058630D03*
X0338677Y0048630D03*
X0328677Y0048630D03*
D16*
X0277118Y0071394D03*
X0277118Y0078087D03*
X0293071Y0078189D03*
X0299764Y0078189D03*
X0240197Y0077787D03*
X0233504Y0077787D03*
X0217047Y0077898D03*
X0217047Y0071205D03*
X0181417Y0077606D03*
X0174724Y0077606D03*
X0158614Y0077787D03*
X0158614Y0071094D03*
X0123331Y0077843D03*
X0116638Y0077843D03*
X0100528Y0077976D03*
X0100528Y0071283D03*
X0063094Y0078118D03*
X0056402Y0078118D03*
X0040866Y0078126D03*
X0040866Y0071433D03*
D17*
X0119260Y0033000D02*
X0125260Y0033000D01*
X0125260Y0023000D02*
X0119260Y0023000D01*
X0119260Y0013000D02*
X0125260Y0013000D01*
X0234614Y0013000D02*
X0240614Y0013000D01*
X0240614Y0023000D02*
X0234614Y0023000D01*
X0234614Y0033000D02*
X0240614Y0033000D01*
D18*
X0217929Y0033630D03*
X0192732Y0034417D03*
X0148244Y0033039D03*
X0099622Y0035008D03*
X0074425Y0035008D03*
X0266354Y0035205D03*
X0267929Y0017488D03*
X0310055Y0033827D03*
X0311630Y0067882D03*
X0311630Y0083630D03*
X0217535Y0145638D03*
X0208874Y0145638D03*
D19*
X0017142Y0174181D03*
D20*
X0095882Y0174181D03*
X0339976Y0174181D03*
X0339976Y0020638D03*
X0017142Y0020638D03*
D21*
X0003984Y0020608D02*
X0353035Y0020608D01*
X0353035Y0019822D02*
X0003984Y0019822D01*
X0003984Y0019036D02*
X0353035Y0019036D01*
X0353035Y0018250D02*
X0003984Y0018250D01*
X0003984Y0017464D02*
X0353035Y0017464D01*
X0353035Y0016678D02*
X0242711Y0016678D01*
X0242994Y0016561D02*
X0241450Y0017201D01*
X0233779Y0017201D01*
X0232235Y0016561D01*
X0231053Y0015380D01*
X0230413Y0013836D01*
X0230413Y0012164D01*
X0231053Y0010620D01*
X0232235Y0009439D01*
X0233779Y0008799D01*
X0241450Y0008799D01*
X0242994Y0009439D01*
X0244175Y0010620D01*
X0244815Y0012164D01*
X0244815Y0013836D01*
X0244175Y0015380D01*
X0242994Y0016561D01*
X0243662Y0015893D02*
X0353035Y0015893D01*
X0353035Y0015107D02*
X0244288Y0015107D01*
X0244614Y0014321D02*
X0353035Y0014321D01*
X0353035Y0013535D02*
X0244815Y0013535D01*
X0244815Y0012749D02*
X0353035Y0012749D01*
X0353035Y0011963D02*
X0244732Y0011963D01*
X0244406Y0011177D02*
X0353035Y0011177D01*
X0353035Y0010391D02*
X0243946Y0010391D01*
X0243160Y0009605D02*
X0353035Y0009605D01*
X0353035Y0008819D02*
X0241498Y0008819D01*
X0233730Y0008819D02*
X0126144Y0008819D01*
X0126095Y0008799D02*
X0127639Y0009439D01*
X0128821Y0010620D01*
X0129461Y0012164D01*
X0129461Y0013836D01*
X0128821Y0015380D01*
X0127639Y0016561D01*
X0126095Y0017201D01*
X0118424Y0017201D01*
X0116880Y0016561D01*
X0115699Y0015380D01*
X0115059Y0013836D01*
X0115059Y0012164D01*
X0115699Y0010620D01*
X0116880Y0009439D01*
X0118424Y0008799D01*
X0126095Y0008799D01*
X0127806Y0009605D02*
X0232068Y0009605D01*
X0231282Y0010391D02*
X0128592Y0010391D01*
X0129052Y0011177D02*
X0230822Y0011177D01*
X0230497Y0011963D02*
X0129377Y0011963D01*
X0129461Y0012749D02*
X0230413Y0012749D01*
X0230413Y0013535D02*
X0129461Y0013535D01*
X0129260Y0014321D02*
X0230614Y0014321D01*
X0230940Y0015107D02*
X0128934Y0015107D01*
X0128308Y0015893D02*
X0231566Y0015893D01*
X0232518Y0016678D02*
X0127356Y0016678D01*
X0117163Y0016678D02*
X0003984Y0016678D01*
X0003984Y0015893D02*
X0116212Y0015893D01*
X0115586Y0015107D02*
X0003984Y0015107D01*
X0003984Y0014321D02*
X0115260Y0014321D01*
X0115059Y0013535D02*
X0003984Y0013535D01*
X0003984Y0012749D02*
X0115059Y0012749D01*
X0115142Y0011963D02*
X0003984Y0011963D01*
X0003984Y0011177D02*
X0115468Y0011177D01*
X0115928Y0010391D02*
X0003984Y0010391D01*
X0003984Y0009605D02*
X0116714Y0009605D01*
X0118376Y0008819D02*
X0003984Y0008819D01*
X0003984Y0008033D02*
X0353035Y0008033D01*
X0353035Y0007579D02*
X0003984Y0007579D01*
X0003984Y0187240D01*
X0030201Y0187240D01*
X0030201Y0161835D01*
X0030610Y0160847D01*
X0031367Y0160090D01*
X0032355Y0159681D01*
X0080669Y0159681D01*
X0081657Y0160090D01*
X0082413Y0160847D01*
X0082823Y0161835D01*
X0082823Y0187240D01*
X0108941Y0187240D01*
X0108941Y0177583D01*
X0109350Y0176595D01*
X0110107Y0175839D01*
X0111095Y0175429D01*
X0324763Y0175429D01*
X0325752Y0175839D01*
X0326508Y0176595D01*
X0326917Y0177583D01*
X0326917Y0187240D01*
X0353035Y0187240D01*
X0353035Y0007579D01*
X0353035Y0021394D02*
X0003984Y0021394D01*
X0003984Y0022180D02*
X0353035Y0022180D01*
X0353035Y0022966D02*
X0003984Y0022966D01*
X0003984Y0023752D02*
X0353035Y0023752D01*
X0353035Y0024538D02*
X0003984Y0024538D01*
X0003984Y0025323D02*
X0353035Y0025323D01*
X0353035Y0026109D02*
X0003984Y0026109D01*
X0003984Y0026895D02*
X0353035Y0026895D01*
X0353035Y0027681D02*
X0003984Y0027681D01*
X0003984Y0028467D02*
X0353035Y0028467D01*
X0353035Y0029253D02*
X0242545Y0029253D01*
X0242994Y0029439D02*
X0241450Y0028799D01*
X0233779Y0028799D01*
X0232235Y0029439D01*
X0231053Y0030620D01*
X0230413Y0032164D01*
X0230413Y0033836D01*
X0231053Y0035380D01*
X0232235Y0036561D01*
X0233779Y0037201D01*
X0241450Y0037201D01*
X0242994Y0036561D01*
X0244175Y0035380D01*
X0244815Y0033836D01*
X0244815Y0032164D01*
X0244175Y0030620D01*
X0242994Y0029439D01*
X0243594Y0030039D02*
X0353035Y0030039D01*
X0353035Y0030825D02*
X0244260Y0030825D01*
X0244586Y0031611D02*
X0353035Y0031611D01*
X0353035Y0032397D02*
X0244815Y0032397D01*
X0244815Y0033183D02*
X0353035Y0033183D01*
X0353035Y0033969D02*
X0244760Y0033969D01*
X0244434Y0034754D02*
X0353035Y0034754D01*
X0353035Y0035540D02*
X0244015Y0035540D01*
X0243229Y0036326D02*
X0353035Y0036326D01*
X0353035Y0037112D02*
X0241664Y0037112D01*
X0233565Y0037112D02*
X0126309Y0037112D01*
X0126095Y0037201D02*
X0118424Y0037201D01*
X0116880Y0036561D01*
X0115699Y0035380D01*
X0115059Y0033836D01*
X0115059Y0032164D01*
X0115699Y0030620D01*
X0116880Y0029439D01*
X0118424Y0028799D01*
X0126095Y0028799D01*
X0127639Y0029439D01*
X0128821Y0030620D01*
X0129461Y0032164D01*
X0129461Y0033836D01*
X0128821Y0035380D01*
X0127639Y0036561D01*
X0126095Y0037201D01*
X0127874Y0036326D02*
X0232000Y0036326D01*
X0231214Y0035540D02*
X0128660Y0035540D01*
X0129080Y0034754D02*
X0230794Y0034754D01*
X0230468Y0033969D02*
X0129406Y0033969D01*
X0129461Y0033183D02*
X0230413Y0033183D01*
X0230413Y0032397D02*
X0129461Y0032397D01*
X0129231Y0031611D02*
X0230643Y0031611D01*
X0230968Y0030825D02*
X0128906Y0030825D01*
X0128240Y0030039D02*
X0231634Y0030039D01*
X0232683Y0029253D02*
X0127191Y0029253D01*
X0117329Y0029253D02*
X0003984Y0029253D01*
X0003984Y0030039D02*
X0116280Y0030039D01*
X0115614Y0030825D02*
X0003984Y0030825D01*
X0003984Y0031611D02*
X0115288Y0031611D01*
X0115059Y0032397D02*
X0003984Y0032397D01*
X0003984Y0033183D02*
X0115059Y0033183D01*
X0115114Y0033969D02*
X0003984Y0033969D01*
X0003984Y0034754D02*
X0115440Y0034754D01*
X0115859Y0035540D02*
X0003984Y0035540D01*
X0003984Y0036326D02*
X0116645Y0036326D01*
X0118210Y0037112D02*
X0003984Y0037112D01*
X0003984Y0037898D02*
X0353035Y0037898D01*
X0353035Y0038684D02*
X0003984Y0038684D01*
X0003984Y0039470D02*
X0353035Y0039470D01*
X0353035Y0040256D02*
X0003984Y0040256D01*
X0003984Y0041042D02*
X0353035Y0041042D01*
X0353035Y0041828D02*
X0003984Y0041828D01*
X0003984Y0042614D02*
X0353035Y0042614D01*
X0353035Y0043399D02*
X0003984Y0043399D01*
X0003984Y0044185D02*
X0353035Y0044185D01*
X0353035Y0044971D02*
X0340959Y0044971D01*
X0340417Y0044429D02*
X0342878Y0046890D01*
X0342878Y0050370D01*
X0340417Y0052831D01*
X0336937Y0052831D01*
X0334476Y0050370D01*
X0334476Y0046890D01*
X0336937Y0044429D01*
X0340417Y0044429D01*
X0341745Y0045757D02*
X0353035Y0045757D01*
X0353035Y0046543D02*
X0342531Y0046543D01*
X0342878Y0047329D02*
X0353035Y0047329D01*
X0353035Y0048115D02*
X0342878Y0048115D01*
X0342878Y0048901D02*
X0353035Y0048901D01*
X0353035Y0049687D02*
X0342878Y0049687D01*
X0342775Y0050473D02*
X0353035Y0050473D01*
X0353035Y0051259D02*
X0341989Y0051259D01*
X0341203Y0052045D02*
X0353035Y0052045D01*
X0353035Y0052830D02*
X0340417Y0052830D01*
X0336937Y0052830D02*
X0330417Y0052830D01*
X0330417Y0052831D02*
X0326937Y0052831D01*
X0324476Y0050370D01*
X0324476Y0046890D01*
X0326937Y0044429D01*
X0330417Y0044429D01*
X0332878Y0046890D01*
X0332878Y0050370D01*
X0330417Y0052831D01*
X0331203Y0052045D02*
X0336151Y0052045D01*
X0335365Y0051259D02*
X0331989Y0051259D01*
X0332775Y0050473D02*
X0334579Y0050473D01*
X0334476Y0049687D02*
X0332878Y0049687D01*
X0332878Y0048901D02*
X0334476Y0048901D01*
X0334476Y0048115D02*
X0332878Y0048115D01*
X0332878Y0047329D02*
X0334476Y0047329D01*
X0334823Y0046543D02*
X0332531Y0046543D01*
X0331745Y0045757D02*
X0335609Y0045757D01*
X0336395Y0044971D02*
X0330959Y0044971D01*
X0326395Y0044971D02*
X0003984Y0044971D01*
X0003984Y0045757D02*
X0325609Y0045757D01*
X0324823Y0046543D02*
X0315874Y0046543D01*
X0316109Y0046640D02*
X0317122Y0047653D01*
X0317670Y0048977D01*
X0317670Y0050409D01*
X0317122Y0051733D01*
X0316109Y0052745D01*
X0314786Y0053294D01*
X0308553Y0053294D01*
X0307230Y0052745D01*
X0306217Y0051733D01*
X0305669Y0050409D01*
X0305669Y0048977D01*
X0306217Y0047653D01*
X0307230Y0046640D01*
X0308553Y0046092D01*
X0314786Y0046092D01*
X0316109Y0046640D01*
X0316798Y0047329D02*
X0324476Y0047329D01*
X0324476Y0048115D02*
X0317313Y0048115D01*
X0317639Y0048901D02*
X0324476Y0048901D01*
X0324476Y0049687D02*
X0317670Y0049687D01*
X0317644Y0050473D02*
X0324579Y0050473D01*
X0325365Y0051259D02*
X0317318Y0051259D01*
X0316810Y0052045D02*
X0326151Y0052045D01*
X0326937Y0052830D02*
X0315904Y0052830D01*
X0314786Y0056092D02*
X0308553Y0056092D01*
X0307230Y0056640D01*
X0306217Y0057653D01*
X0305669Y0058977D01*
X0305669Y0060409D01*
X0306217Y0061733D01*
X0307230Y0062745D01*
X0308553Y0063294D01*
X0314786Y0063294D01*
X0316109Y0062745D01*
X0317122Y0061733D01*
X0317670Y0060409D01*
X0317670Y0058977D01*
X0317122Y0057653D01*
X0316109Y0056640D01*
X0314786Y0056092D01*
X0316229Y0056760D02*
X0324606Y0056760D01*
X0324476Y0056890D02*
X0326937Y0054429D01*
X0330417Y0054429D01*
X0332878Y0056890D01*
X0332878Y0060370D01*
X0330417Y0062831D01*
X0326937Y0062831D01*
X0324476Y0060370D01*
X0324476Y0056890D01*
X0324476Y0057546D02*
X0317015Y0057546D01*
X0317403Y0058332D02*
X0324476Y0058332D01*
X0324476Y0059118D02*
X0317670Y0059118D01*
X0317670Y0059904D02*
X0324476Y0059904D01*
X0324796Y0060690D02*
X0317554Y0060690D01*
X0317228Y0061475D02*
X0325582Y0061475D01*
X0326368Y0062261D02*
X0316593Y0062261D01*
X0315380Y0063047D02*
X0353035Y0063047D01*
X0353035Y0062261D02*
X0330986Y0062261D01*
X0331772Y0061475D02*
X0353035Y0061475D01*
X0353035Y0060690D02*
X0332558Y0060690D01*
X0332878Y0059904D02*
X0353035Y0059904D01*
X0353035Y0059118D02*
X0332878Y0059118D01*
X0332878Y0058332D02*
X0353035Y0058332D01*
X0353035Y0057546D02*
X0332878Y0057546D01*
X0332748Y0056760D02*
X0353035Y0056760D01*
X0353035Y0055974D02*
X0331962Y0055974D01*
X0331176Y0055188D02*
X0353035Y0055188D01*
X0353035Y0054402D02*
X0003984Y0054402D01*
X0003984Y0053616D02*
X0353035Y0053616D01*
X0353035Y0063833D02*
X0299511Y0063833D01*
X0299403Y0063941D02*
X0294471Y0063941D01*
X0293768Y0063238D01*
X0293768Y0061681D01*
X0287143Y0061681D01*
X0287122Y0061733D01*
X0286109Y0062745D01*
X0284786Y0063294D01*
X0278553Y0063294D01*
X0277230Y0062745D01*
X0276217Y0061733D01*
X0275669Y0060409D01*
X0275669Y0058977D01*
X0276217Y0057653D01*
X0277230Y0056640D01*
X0278553Y0056092D01*
X0284786Y0056092D01*
X0286109Y0056640D01*
X0287122Y0057653D01*
X0287143Y0057705D01*
X0293768Y0057705D01*
X0293768Y0056731D01*
X0294471Y0056028D01*
X0299403Y0056028D01*
X0300106Y0056731D01*
X0300106Y0063238D01*
X0299403Y0063941D01*
X0300106Y0063047D02*
X0307958Y0063047D01*
X0306746Y0062261D02*
X0300106Y0062261D01*
X0300106Y0061475D02*
X0306110Y0061475D01*
X0305785Y0060690D02*
X0300106Y0060690D01*
X0300106Y0059904D02*
X0305669Y0059904D01*
X0305669Y0059118D02*
X0300106Y0059118D01*
X0300106Y0058332D02*
X0305936Y0058332D01*
X0306324Y0057546D02*
X0300106Y0057546D01*
X0300106Y0056760D02*
X0307110Y0056760D01*
X0307435Y0052830D02*
X0285904Y0052830D01*
X0286109Y0052745D02*
X0284786Y0053294D01*
X0278553Y0053294D01*
X0277230Y0052745D01*
X0276217Y0051733D01*
X0275669Y0050409D01*
X0275669Y0048977D01*
X0276217Y0047653D01*
X0277230Y0046640D01*
X0278553Y0046092D01*
X0284786Y0046092D01*
X0286109Y0046640D01*
X0287122Y0047653D01*
X0287670Y0048977D01*
X0287670Y0050409D01*
X0287122Y0051733D01*
X0286109Y0052745D01*
X0286810Y0052045D02*
X0306529Y0052045D01*
X0306020Y0051259D02*
X0287318Y0051259D01*
X0287644Y0050473D02*
X0305695Y0050473D01*
X0305669Y0049687D02*
X0287670Y0049687D01*
X0287639Y0048901D02*
X0305700Y0048901D01*
X0306025Y0048115D02*
X0287313Y0048115D01*
X0286798Y0047329D02*
X0306541Y0047329D01*
X0307464Y0046543D02*
X0285874Y0046543D01*
X0277464Y0046543D02*
X0256819Y0046543D01*
X0257054Y0046640D02*
X0258067Y0047653D01*
X0258615Y0048977D01*
X0258615Y0050409D01*
X0258067Y0051733D01*
X0257054Y0052745D01*
X0255730Y0053294D01*
X0249498Y0053294D01*
X0248174Y0052745D01*
X0247162Y0051733D01*
X0246613Y0050409D01*
X0246613Y0048977D01*
X0247162Y0047653D01*
X0248174Y0046640D01*
X0249498Y0046092D01*
X0255730Y0046092D01*
X0257054Y0046640D01*
X0257743Y0047329D02*
X0276541Y0047329D01*
X0276025Y0048115D02*
X0258258Y0048115D01*
X0258584Y0048901D02*
X0275700Y0048901D01*
X0275669Y0049687D02*
X0258615Y0049687D01*
X0258589Y0050473D02*
X0275695Y0050473D01*
X0276020Y0051259D02*
X0258263Y0051259D01*
X0257755Y0052045D02*
X0276529Y0052045D01*
X0277435Y0052830D02*
X0256849Y0052830D01*
X0255730Y0056092D02*
X0249498Y0056092D01*
X0248174Y0056640D01*
X0247162Y0057653D01*
X0246613Y0058977D01*
X0246613Y0060409D01*
X0247162Y0061733D01*
X0248174Y0062745D01*
X0249498Y0063294D01*
X0255730Y0063294D01*
X0257054Y0062745D01*
X0258067Y0061733D01*
X0258615Y0060409D01*
X0258615Y0058977D01*
X0258067Y0057653D01*
X0257054Y0056640D01*
X0255730Y0056092D01*
X0257174Y0056760D02*
X0277110Y0056760D01*
X0276324Y0057546D02*
X0257959Y0057546D01*
X0258348Y0058332D02*
X0275936Y0058332D01*
X0275669Y0059118D02*
X0258615Y0059118D01*
X0258615Y0059904D02*
X0275669Y0059904D01*
X0275785Y0060690D02*
X0258499Y0060690D01*
X0258173Y0061475D02*
X0276110Y0061475D01*
X0276746Y0062261D02*
X0257538Y0062261D01*
X0256325Y0063047D02*
X0277958Y0063047D01*
X0285380Y0063047D02*
X0293768Y0063047D01*
X0293768Y0062261D02*
X0286593Y0062261D01*
X0290028Y0065392D02*
X0290731Y0064689D01*
X0295663Y0064689D01*
X0296366Y0065392D01*
X0296366Y0071899D01*
X0295663Y0072602D01*
X0292052Y0072602D01*
X0291272Y0073382D01*
X0289020Y0073382D01*
X0289020Y0073860D01*
X0288316Y0074563D01*
X0282991Y0074563D01*
X0282287Y0073860D01*
X0282287Y0068928D01*
X0282991Y0068224D01*
X0288316Y0068224D01*
X0289020Y0068928D01*
X0289020Y0069406D01*
X0289625Y0069406D01*
X0290028Y0069003D01*
X0290028Y0065392D01*
X0290028Y0065405D02*
X0236665Y0065405D01*
X0236665Y0064991D02*
X0235962Y0064287D01*
X0231030Y0064287D01*
X0230327Y0064991D01*
X0230327Y0068602D01*
X0229578Y0069350D01*
X0229343Y0069350D01*
X0229343Y0068873D01*
X0228639Y0068169D01*
X0223314Y0068169D01*
X0222610Y0068873D01*
X0222610Y0073804D01*
X0223314Y0074508D01*
X0228639Y0074508D01*
X0229343Y0073804D01*
X0229343Y0073327D01*
X0231225Y0073327D01*
X0232351Y0072201D01*
X0235962Y0072201D01*
X0236665Y0071497D01*
X0236665Y0064991D01*
X0236294Y0064619D02*
X0309682Y0064619D01*
X0309500Y0064694D02*
X0310882Y0064122D01*
X0312378Y0064122D01*
X0313760Y0064694D01*
X0314817Y0065752D01*
X0315390Y0067134D01*
X0315390Y0068630D01*
X0314817Y0070012D01*
X0314799Y0070030D01*
X0314799Y0081482D01*
X0314817Y0081500D01*
X0315390Y0082882D01*
X0315390Y0084378D01*
X0314817Y0085760D01*
X0313760Y0086817D01*
X0312378Y0087390D01*
X0310882Y0087390D01*
X0309500Y0086817D01*
X0308442Y0085760D01*
X0307870Y0084378D01*
X0307870Y0082882D01*
X0308442Y0081500D01*
X0308461Y0081482D01*
X0308461Y0070030D01*
X0308442Y0070012D01*
X0307870Y0068630D01*
X0307870Y0067134D01*
X0308442Y0065752D01*
X0309500Y0064694D01*
X0308790Y0065405D02*
X0296366Y0065405D01*
X0296366Y0066191D02*
X0308261Y0066191D01*
X0307935Y0066977D02*
X0296366Y0066977D01*
X0296366Y0067763D02*
X0307870Y0067763D01*
X0307870Y0068549D02*
X0296366Y0068549D01*
X0296366Y0069335D02*
X0308162Y0069335D01*
X0308461Y0070121D02*
X0296366Y0070121D01*
X0296366Y0070906D02*
X0308461Y0070906D01*
X0308461Y0071692D02*
X0296366Y0071692D01*
X0295787Y0072478D02*
X0308461Y0072478D01*
X0308461Y0073264D02*
X0291390Y0073264D01*
X0290605Y0074823D02*
X0295537Y0074823D01*
X0296240Y0075526D01*
X0296240Y0080852D01*
X0295537Y0081555D01*
X0290605Y0081555D01*
X0289902Y0080852D01*
X0289902Y0079681D01*
X0289020Y0079681D01*
X0289020Y0080552D01*
X0288316Y0081256D01*
X0282991Y0081256D01*
X0282287Y0080552D01*
X0282287Y0079681D01*
X0280287Y0079681D01*
X0280287Y0080749D01*
X0279584Y0081453D01*
X0274652Y0081453D01*
X0273949Y0080749D01*
X0273949Y0079713D01*
X0269866Y0079713D01*
X0269108Y0080471D01*
X0268088Y0080894D01*
X0266983Y0080894D01*
X0265963Y0080471D01*
X0265182Y0079690D01*
X0264760Y0078670D01*
X0264760Y0077566D01*
X0265182Y0076546D01*
X0265963Y0075765D01*
X0266983Y0075343D01*
X0268088Y0075343D01*
X0269108Y0075765D01*
X0269866Y0076524D01*
X0273949Y0076524D01*
X0273949Y0075424D01*
X0274652Y0074720D01*
X0279584Y0074720D01*
X0280287Y0075424D01*
X0280287Y0076492D01*
X0282287Y0076492D01*
X0282287Y0075621D01*
X0282991Y0074917D01*
X0288316Y0074917D01*
X0289020Y0075621D01*
X0289020Y0076492D01*
X0289902Y0076492D01*
X0289902Y0075526D01*
X0290605Y0074823D01*
X0290592Y0074836D02*
X0279700Y0074836D01*
X0280287Y0075622D02*
X0282287Y0075622D01*
X0282287Y0076408D02*
X0280287Y0076408D01*
X0282478Y0074050D02*
X0229097Y0074050D01*
X0228639Y0074862D02*
X0229343Y0075566D01*
X0229343Y0076437D01*
X0230335Y0076437D01*
X0230335Y0075125D01*
X0231038Y0074421D01*
X0235970Y0074421D01*
X0236673Y0075125D01*
X0236673Y0080450D01*
X0235970Y0081154D01*
X0231038Y0081154D01*
X0230335Y0080450D01*
X0230335Y0079626D01*
X0229343Y0079626D01*
X0229343Y0080497D01*
X0228639Y0081201D01*
X0223314Y0081201D01*
X0222610Y0080497D01*
X0222610Y0079492D01*
X0220217Y0079492D01*
X0220217Y0080560D01*
X0219513Y0081264D01*
X0214581Y0081264D01*
X0213878Y0080560D01*
X0213878Y0078925D01*
X0211599Y0078925D01*
X0210840Y0079684D01*
X0209820Y0080106D01*
X0208716Y0080106D01*
X0207695Y0079684D01*
X0206915Y0078903D01*
X0206492Y0077883D01*
X0206492Y0076779D01*
X0206915Y0075758D01*
X0207695Y0074978D01*
X0208716Y0074555D01*
X0209820Y0074555D01*
X0210840Y0074978D01*
X0211599Y0075736D01*
X0213878Y0075736D01*
X0213878Y0075235D01*
X0214581Y0074531D01*
X0219513Y0074531D01*
X0220217Y0075235D01*
X0220217Y0076303D01*
X0222610Y0076303D01*
X0222610Y0075566D01*
X0223314Y0074862D01*
X0228639Y0074862D01*
X0229343Y0075622D02*
X0230335Y0075622D01*
X0230335Y0076408D02*
X0229343Y0076408D01*
X0230623Y0074836D02*
X0219818Y0074836D01*
X0220217Y0075622D02*
X0222610Y0075622D01*
X0222856Y0074050D02*
X0170420Y0074050D01*
X0170206Y0074264D02*
X0170909Y0073560D01*
X0170909Y0073083D01*
X0173005Y0073083D01*
X0173879Y0072209D01*
X0177490Y0072209D01*
X0178193Y0071505D01*
X0178193Y0064999D01*
X0177490Y0064295D01*
X0172558Y0064295D01*
X0171854Y0064999D01*
X0171854Y0068610D01*
X0171358Y0069106D01*
X0170909Y0069106D01*
X0170909Y0068629D01*
X0170206Y0067925D01*
X0164881Y0067925D01*
X0164177Y0068629D01*
X0164177Y0073560D01*
X0164881Y0074264D01*
X0170206Y0074264D01*
X0170206Y0074618D02*
X0164881Y0074618D01*
X0164177Y0075322D01*
X0164177Y0076193D01*
X0161783Y0076193D01*
X0161783Y0075125D01*
X0161080Y0074421D01*
X0156148Y0074421D01*
X0155445Y0075125D01*
X0155445Y0076193D01*
X0152213Y0076193D01*
X0151785Y0075765D01*
X0150765Y0075343D01*
X0149660Y0075343D01*
X0148640Y0075765D01*
X0147860Y0076546D01*
X0147437Y0077566D01*
X0147437Y0078670D01*
X0147860Y0079690D01*
X0148640Y0080471D01*
X0149660Y0080894D01*
X0150765Y0080894D01*
X0151785Y0080471D01*
X0152566Y0079690D01*
X0152693Y0079382D01*
X0155445Y0079382D01*
X0155445Y0080450D01*
X0156148Y0081154D01*
X0161080Y0081154D01*
X0161783Y0080450D01*
X0161783Y0079382D01*
X0164177Y0079382D01*
X0164177Y0080253D01*
X0164881Y0080957D01*
X0170206Y0080957D01*
X0170909Y0080253D01*
X0170909Y0079382D01*
X0171555Y0079382D01*
X0171555Y0080269D01*
X0172259Y0080972D01*
X0177190Y0080972D01*
X0177894Y0080269D01*
X0177894Y0074944D01*
X0177190Y0074240D01*
X0172259Y0074240D01*
X0171555Y0074944D01*
X0171555Y0076193D01*
X0170909Y0076193D01*
X0170909Y0075322D01*
X0170206Y0074618D01*
X0170424Y0074836D02*
X0171663Y0074836D01*
X0171555Y0075622D02*
X0170909Y0075622D01*
X0170909Y0073264D02*
X0222610Y0073264D01*
X0222610Y0072478D02*
X0173609Y0072478D01*
X0178006Y0071692D02*
X0222610Y0071692D01*
X0222610Y0070906D02*
X0178193Y0070906D01*
X0178193Y0070121D02*
X0222610Y0070121D01*
X0222610Y0069335D02*
X0178193Y0069335D01*
X0178193Y0068549D02*
X0222934Y0068549D01*
X0225730Y0063294D02*
X0219498Y0063294D01*
X0218174Y0062745D01*
X0217162Y0061733D01*
X0216613Y0060409D01*
X0216613Y0058977D01*
X0217162Y0057653D01*
X0218174Y0056640D01*
X0219498Y0056092D01*
X0225730Y0056092D01*
X0227054Y0056640D01*
X0228067Y0057653D01*
X0228088Y0057705D01*
X0234067Y0057705D01*
X0234067Y0056329D01*
X0234770Y0055626D01*
X0239702Y0055626D01*
X0240405Y0056329D01*
X0240405Y0062836D01*
X0239702Y0063539D01*
X0234770Y0063539D01*
X0234067Y0062836D01*
X0234067Y0061681D01*
X0228088Y0061681D01*
X0228067Y0061733D01*
X0227054Y0062745D01*
X0225730Y0063294D01*
X0226325Y0063047D02*
X0234278Y0063047D01*
X0234067Y0062261D02*
X0227538Y0062261D01*
X0230698Y0064619D02*
X0177813Y0064619D01*
X0178193Y0065405D02*
X0230327Y0065405D01*
X0230327Y0066191D02*
X0178193Y0066191D01*
X0178193Y0066977D02*
X0230327Y0066977D01*
X0230327Y0067763D02*
X0178193Y0067763D01*
X0171854Y0067763D02*
X0119949Y0067763D01*
X0119949Y0068549D02*
X0164257Y0068549D01*
X0164177Y0069335D02*
X0119949Y0069335D01*
X0119949Y0070121D02*
X0164177Y0070121D01*
X0164177Y0070906D02*
X0119949Y0070906D01*
X0119949Y0071692D02*
X0164177Y0071692D01*
X0164177Y0072478D02*
X0119551Y0072478D01*
X0119245Y0072783D02*
X0119949Y0072080D01*
X0119949Y0065573D01*
X0119245Y0064870D01*
X0114314Y0064870D01*
X0113610Y0065573D01*
X0113610Y0069184D01*
X0113499Y0069295D01*
X0112823Y0069295D01*
X0112823Y0068818D01*
X0112119Y0068114D01*
X0106794Y0068114D01*
X0106091Y0068818D01*
X0106091Y0073749D01*
X0106794Y0074453D01*
X0112119Y0074453D01*
X0112823Y0073749D01*
X0112823Y0073272D01*
X0115146Y0073272D01*
X0115635Y0072783D01*
X0119245Y0072783D01*
X0119104Y0074476D02*
X0119807Y0075180D01*
X0119807Y0080505D01*
X0119104Y0081209D01*
X0114172Y0081209D01*
X0113469Y0080505D01*
X0113469Y0079571D01*
X0112823Y0079571D01*
X0112823Y0080442D01*
X0112119Y0081146D01*
X0106794Y0081146D01*
X0106091Y0080442D01*
X0106091Y0079571D01*
X0103697Y0079571D01*
X0103697Y0080639D01*
X0102993Y0081343D01*
X0098062Y0081343D01*
X0097358Y0080639D01*
X0097358Y0079713D01*
X0092701Y0079713D01*
X0091942Y0080471D01*
X0090922Y0080894D01*
X0089818Y0080894D01*
X0088798Y0080471D01*
X0088017Y0079690D01*
X0087594Y0078670D01*
X0087594Y0077566D01*
X0088017Y0076546D01*
X0088798Y0075765D01*
X0089818Y0075343D01*
X0090922Y0075343D01*
X0091942Y0075765D01*
X0092701Y0076524D01*
X0097358Y0076524D01*
X0097358Y0075314D01*
X0098062Y0074610D01*
X0102993Y0074610D01*
X0103697Y0075314D01*
X0103697Y0076382D01*
X0106091Y0076382D01*
X0106091Y0075510D01*
X0106794Y0074807D01*
X0112119Y0074807D01*
X0112823Y0075510D01*
X0112823Y0076382D01*
X0113469Y0076382D01*
X0113469Y0075180D01*
X0114172Y0074476D01*
X0119104Y0074476D01*
X0119463Y0074836D02*
X0155734Y0074836D01*
X0155445Y0075622D02*
X0151439Y0075622D01*
X0150543Y0077787D02*
X0150213Y0078118D01*
X0150543Y0077787D02*
X0158614Y0077787D01*
X0167543Y0077787D01*
X0174543Y0077787D01*
X0174724Y0077606D01*
X0177894Y0077980D02*
X0206532Y0077980D01*
X0206492Y0077194D02*
X0177894Y0077194D01*
X0177894Y0076408D02*
X0206646Y0076408D01*
X0207051Y0075622D02*
X0177894Y0075622D01*
X0177786Y0074836D02*
X0208037Y0074836D01*
X0210498Y0074836D02*
X0214277Y0074836D01*
X0213878Y0075622D02*
X0211484Y0075622D01*
X0209268Y0077331D02*
X0216480Y0077331D01*
X0217047Y0077898D01*
X0225843Y0077898D01*
X0225976Y0078031D01*
X0233260Y0078031D01*
X0233504Y0077787D01*
X0236673Y0077980D02*
X0264760Y0077980D01*
X0264799Y0078766D02*
X0236673Y0078766D01*
X0236673Y0079551D02*
X0265125Y0079551D01*
X0265829Y0080337D02*
X0236673Y0080337D01*
X0236000Y0081123D02*
X0274323Y0081123D01*
X0273949Y0080337D02*
X0269241Y0080337D01*
X0267535Y0078118D02*
X0277087Y0078118D01*
X0277118Y0078087D01*
X0285654Y0078087D01*
X0292969Y0078087D01*
X0293071Y0078189D01*
X0296240Y0077980D02*
X0308461Y0077980D01*
X0308461Y0078766D02*
X0296240Y0078766D01*
X0296240Y0079551D02*
X0308461Y0079551D01*
X0308461Y0080337D02*
X0296240Y0080337D01*
X0295969Y0081123D02*
X0308461Y0081123D01*
X0308273Y0081909D02*
X0003984Y0081909D01*
X0003984Y0081123D02*
X0038031Y0081123D01*
X0037697Y0080789D02*
X0038400Y0081492D01*
X0043332Y0081492D01*
X0044035Y0080789D01*
X0044035Y0079720D01*
X0046035Y0079720D01*
X0046035Y0080592D01*
X0046739Y0081295D01*
X0052064Y0081295D01*
X0052768Y0080592D01*
X0052768Y0079713D01*
X0053232Y0079713D01*
X0053232Y0080781D01*
X0053936Y0081484D01*
X0058867Y0081484D01*
X0059571Y0080781D01*
X0059571Y0075455D01*
X0058867Y0074752D01*
X0053936Y0074752D01*
X0053232Y0075455D01*
X0053232Y0076524D01*
X0052768Y0076524D01*
X0052768Y0075660D01*
X0052064Y0074957D01*
X0046739Y0074957D01*
X0046035Y0075660D01*
X0046035Y0076531D01*
X0044035Y0076531D01*
X0044035Y0075463D01*
X0043332Y0074760D01*
X0038400Y0074760D01*
X0037697Y0075463D01*
X0037697Y0076524D01*
X0032858Y0076524D01*
X0032100Y0075765D01*
X0031080Y0075343D01*
X0029975Y0075343D01*
X0028955Y0075765D01*
X0028175Y0076546D01*
X0027752Y0077566D01*
X0027752Y0078670D01*
X0028175Y0079690D01*
X0028955Y0080471D01*
X0029975Y0080894D01*
X0031080Y0080894D01*
X0032100Y0080471D01*
X0032858Y0079713D01*
X0037697Y0079713D01*
X0037697Y0080789D01*
X0037697Y0080337D02*
X0032234Y0080337D01*
X0030528Y0078118D02*
X0040858Y0078118D01*
X0040866Y0078126D01*
X0049402Y0078126D01*
X0049409Y0078118D01*
X0056402Y0078118D01*
X0059571Y0077980D02*
X0087594Y0077980D01*
X0087634Y0078766D02*
X0059571Y0078766D01*
X0059571Y0079551D02*
X0087960Y0079551D01*
X0088664Y0080337D02*
X0059571Y0080337D01*
X0059228Y0081123D02*
X0097842Y0081123D01*
X0097358Y0080337D02*
X0092076Y0080337D01*
X0090370Y0078118D02*
X0100386Y0078118D01*
X0100528Y0077976D01*
X0109457Y0077976D01*
X0116504Y0077976D01*
X0116638Y0077843D01*
X0119807Y0077980D02*
X0147437Y0077980D01*
X0147477Y0078766D02*
X0119807Y0078766D01*
X0119807Y0079551D02*
X0147802Y0079551D01*
X0148507Y0080337D02*
X0119807Y0080337D01*
X0119189Y0081123D02*
X0156118Y0081123D01*
X0155445Y0080337D02*
X0151919Y0080337D01*
X0152623Y0079551D02*
X0155445Y0079551D01*
X0161110Y0081123D02*
X0214441Y0081123D01*
X0213878Y0080337D02*
X0177825Y0080337D01*
X0177894Y0079551D02*
X0207563Y0079551D01*
X0206858Y0078766D02*
X0177894Y0078766D01*
X0171555Y0079551D02*
X0170909Y0079551D01*
X0170825Y0080337D02*
X0171623Y0080337D01*
X0164261Y0080337D02*
X0161783Y0080337D01*
X0161783Y0079551D02*
X0164177Y0079551D01*
X0164177Y0075622D02*
X0161783Y0075622D01*
X0161495Y0074836D02*
X0164663Y0074836D01*
X0164667Y0074050D02*
X0112522Y0074050D01*
X0112148Y0074836D02*
X0113812Y0074836D01*
X0113469Y0075622D02*
X0112823Y0075622D01*
X0115154Y0073264D02*
X0164177Y0073264D01*
X0170830Y0068549D02*
X0171854Y0068549D01*
X0171854Y0066977D02*
X0119949Y0066977D01*
X0119949Y0066191D02*
X0171854Y0066191D01*
X0171854Y0065405D02*
X0119780Y0065405D01*
X0118054Y0064122D02*
X0117350Y0063419D01*
X0117350Y0061681D01*
X0109978Y0061681D01*
X0109957Y0061733D01*
X0108944Y0062745D01*
X0107620Y0063294D01*
X0101388Y0063294D01*
X0100064Y0062745D01*
X0099051Y0061733D01*
X0098503Y0060409D01*
X0098503Y0058977D01*
X0099051Y0057653D01*
X0100064Y0056640D01*
X0101388Y0056092D01*
X0107620Y0056092D01*
X0108944Y0056640D01*
X0109957Y0057653D01*
X0109978Y0057705D01*
X0117350Y0057705D01*
X0117350Y0056912D01*
X0118054Y0056209D01*
X0122986Y0056209D01*
X0123689Y0056912D01*
X0123689Y0063419D01*
X0122986Y0064122D01*
X0118054Y0064122D01*
X0117765Y0063833D02*
X0003984Y0063833D01*
X0003984Y0063047D02*
X0041738Y0063047D01*
X0042333Y0063294D02*
X0041009Y0062745D01*
X0039996Y0061733D01*
X0039448Y0060409D01*
X0039448Y0058977D01*
X0039996Y0057653D01*
X0041009Y0056640D01*
X0042333Y0056092D01*
X0048565Y0056092D01*
X0049888Y0056640D01*
X0050901Y0057653D01*
X0050923Y0057705D01*
X0056602Y0057705D01*
X0056602Y0056518D01*
X0057306Y0055815D01*
X0062238Y0055815D01*
X0062941Y0056518D01*
X0062941Y0063025D01*
X0062238Y0063728D01*
X0057306Y0063728D01*
X0056602Y0063025D01*
X0056602Y0061681D01*
X0050923Y0061681D01*
X0050901Y0061733D01*
X0049888Y0062745D01*
X0048565Y0063294D01*
X0042333Y0063294D01*
X0040525Y0062261D02*
X0003984Y0062261D01*
X0003984Y0061475D02*
X0039890Y0061475D01*
X0039564Y0060690D02*
X0003984Y0060690D01*
X0003984Y0059904D02*
X0039448Y0059904D01*
X0039448Y0059118D02*
X0003984Y0059118D01*
X0003984Y0058332D02*
X0039715Y0058332D01*
X0040104Y0057546D02*
X0003984Y0057546D01*
X0003984Y0056760D02*
X0040889Y0056760D01*
X0042333Y0053294D02*
X0041009Y0052745D01*
X0039996Y0051733D01*
X0039448Y0050409D01*
X0039448Y0048977D01*
X0039996Y0047653D01*
X0041009Y0046640D01*
X0042333Y0046092D01*
X0048565Y0046092D01*
X0049888Y0046640D01*
X0050901Y0047653D01*
X0051450Y0048977D01*
X0051450Y0050409D01*
X0050901Y0051733D01*
X0049888Y0052745D01*
X0048565Y0053294D01*
X0042333Y0053294D01*
X0041214Y0052830D02*
X0003984Y0052830D01*
X0003984Y0052045D02*
X0040308Y0052045D01*
X0039800Y0051259D02*
X0003984Y0051259D01*
X0003984Y0050473D02*
X0039474Y0050473D01*
X0039448Y0049687D02*
X0003984Y0049687D01*
X0003984Y0048901D02*
X0039479Y0048901D01*
X0039805Y0048115D02*
X0003984Y0048115D01*
X0003984Y0047329D02*
X0040320Y0047329D01*
X0041244Y0046543D02*
X0003984Y0046543D01*
X0003984Y0055188D02*
X0326178Y0055188D01*
X0325392Y0055974D02*
X0240050Y0055974D01*
X0240405Y0056760D02*
X0248055Y0056760D01*
X0247269Y0057546D02*
X0240405Y0057546D01*
X0240405Y0058332D02*
X0246880Y0058332D01*
X0246613Y0059118D02*
X0240405Y0059118D01*
X0240405Y0059904D02*
X0246613Y0059904D01*
X0246730Y0060690D02*
X0240405Y0060690D01*
X0240405Y0061475D02*
X0247055Y0061475D01*
X0247690Y0062261D02*
X0240405Y0062261D01*
X0240194Y0063047D02*
X0248903Y0063047D01*
X0236665Y0066191D02*
X0290028Y0066191D01*
X0290028Y0066977D02*
X0236665Y0066977D01*
X0236665Y0067763D02*
X0290028Y0067763D01*
X0290028Y0068549D02*
X0288641Y0068549D01*
X0289020Y0069335D02*
X0289696Y0069335D01*
X0288829Y0074050D02*
X0308461Y0074050D01*
X0308461Y0074836D02*
X0295550Y0074836D01*
X0296240Y0075622D02*
X0308461Y0075622D01*
X0308461Y0076408D02*
X0296240Y0076408D01*
X0296240Y0077194D02*
X0308461Y0077194D01*
X0314799Y0077194D02*
X0353035Y0077194D01*
X0353035Y0077980D02*
X0314799Y0077980D01*
X0314799Y0078766D02*
X0353035Y0078766D01*
X0353035Y0079551D02*
X0314799Y0079551D01*
X0314799Y0080337D02*
X0353035Y0080337D01*
X0353035Y0081123D02*
X0314799Y0081123D01*
X0314987Y0081909D02*
X0353035Y0081909D01*
X0353035Y0082695D02*
X0315312Y0082695D01*
X0315390Y0083481D02*
X0353035Y0083481D01*
X0353035Y0084267D02*
X0315390Y0084267D01*
X0315110Y0085053D02*
X0326313Y0085053D01*
X0326937Y0084429D02*
X0324476Y0086890D01*
X0324476Y0087154D01*
X0323962Y0087154D01*
X0323028Y0088088D01*
X0319484Y0091631D01*
X0319484Y0148324D01*
X0317269Y0150539D01*
X0162684Y0150539D01*
X0160468Y0148324D01*
X0160468Y0139662D01*
X0159534Y0138728D01*
X0157775Y0136969D01*
X0158075Y0136669D01*
X0158075Y0133189D01*
X0155614Y0130728D01*
X0152134Y0130728D01*
X0149673Y0133189D01*
X0149673Y0136669D01*
X0152134Y0139130D01*
X0155426Y0139130D01*
X0157280Y0140983D01*
X0157280Y0142394D01*
X0155614Y0140728D01*
X0152134Y0140728D01*
X0149673Y0143189D01*
X0149673Y0146669D01*
X0152134Y0149130D01*
X0152280Y0149130D01*
X0152280Y0152519D01*
X0155705Y0155944D01*
X0156639Y0156878D01*
X0319377Y0156878D01*
X0324101Y0152154D01*
X0325035Y0151220D01*
X0325035Y0120929D01*
X0326937Y0122831D01*
X0330417Y0122831D01*
X0332878Y0120370D01*
X0332878Y0116890D01*
X0330417Y0114429D01*
X0326937Y0114429D01*
X0325035Y0116331D01*
X0325035Y0110929D01*
X0326937Y0112831D01*
X0330417Y0112831D01*
X0332878Y0110370D01*
X0332878Y0106890D01*
X0330417Y0104429D01*
X0326937Y0104429D01*
X0325035Y0106331D01*
X0325035Y0100929D01*
X0326937Y0102831D01*
X0330417Y0102831D01*
X0332878Y0100370D01*
X0332878Y0096890D01*
X0331055Y0095067D01*
X0334495Y0095067D01*
X0336834Y0092728D01*
X0336937Y0092831D01*
X0340417Y0092831D01*
X0342878Y0090370D01*
X0342878Y0086890D01*
X0340417Y0084429D01*
X0336937Y0084429D01*
X0334476Y0086890D01*
X0334476Y0090370D01*
X0334579Y0090473D01*
X0333174Y0091878D01*
X0331370Y0091878D01*
X0332878Y0090370D01*
X0332878Y0086890D01*
X0330417Y0084429D01*
X0326937Y0084429D01*
X0325527Y0085839D02*
X0314738Y0085839D01*
X0313952Y0086625D02*
X0324742Y0086625D01*
X0323705Y0087411D02*
X0003984Y0087411D01*
X0003984Y0088197D02*
X0322919Y0088197D01*
X0322133Y0088982D02*
X0003984Y0088982D01*
X0003984Y0089768D02*
X0321347Y0089768D01*
X0320561Y0090554D02*
X0003984Y0090554D01*
X0003984Y0091340D02*
X0319775Y0091340D01*
X0319484Y0092126D02*
X0003984Y0092126D01*
X0003984Y0092912D02*
X0319484Y0092912D01*
X0319484Y0093698D02*
X0003984Y0093698D01*
X0003984Y0094484D02*
X0319484Y0094484D01*
X0319484Y0095270D02*
X0003984Y0095270D01*
X0003984Y0096056D02*
X0319484Y0096056D01*
X0319484Y0096842D02*
X0316310Y0096842D01*
X0316109Y0096640D02*
X0317122Y0097653D01*
X0317670Y0098977D01*
X0317670Y0100409D01*
X0317122Y0101733D01*
X0316109Y0102745D01*
X0314786Y0103294D01*
X0308553Y0103294D01*
X0307230Y0102745D01*
X0306217Y0101733D01*
X0305669Y0100409D01*
X0305669Y0098977D01*
X0306217Y0097653D01*
X0307230Y0096640D01*
X0308553Y0096092D01*
X0314786Y0096092D01*
X0316109Y0096640D01*
X0317096Y0097627D02*
X0319484Y0097627D01*
X0319484Y0098413D02*
X0317437Y0098413D01*
X0317670Y0099199D02*
X0319484Y0099199D01*
X0319484Y0099985D02*
X0317670Y0099985D01*
X0317520Y0100771D02*
X0319484Y0100771D01*
X0319484Y0101557D02*
X0317195Y0101557D01*
X0316512Y0102343D02*
X0319484Y0102343D01*
X0319484Y0103129D02*
X0315183Y0103129D01*
X0319484Y0103915D02*
X0003984Y0103915D01*
X0003984Y0104701D02*
X0319484Y0104701D01*
X0319484Y0105487D02*
X0003984Y0105487D01*
X0003984Y0106273D02*
X0041897Y0106273D01*
X0042333Y0106092D02*
X0048565Y0106092D01*
X0049888Y0106640D01*
X0050901Y0107653D01*
X0051450Y0108977D01*
X0051450Y0110409D01*
X0050901Y0111733D01*
X0049888Y0112745D01*
X0048565Y0113294D01*
X0042333Y0113294D01*
X0041009Y0112745D01*
X0039996Y0111733D01*
X0039448Y0110409D01*
X0039448Y0108977D01*
X0039996Y0107653D01*
X0041009Y0106640D01*
X0042333Y0106092D01*
X0040591Y0107058D02*
X0003984Y0107058D01*
X0003984Y0107844D02*
X0039917Y0107844D01*
X0039592Y0108630D02*
X0003984Y0108630D01*
X0003984Y0109416D02*
X0039448Y0109416D01*
X0039448Y0110202D02*
X0003984Y0110202D01*
X0003984Y0110988D02*
X0039688Y0110988D01*
X0040038Y0111774D02*
X0003984Y0111774D01*
X0003984Y0112560D02*
X0040823Y0112560D01*
X0050074Y0112560D02*
X0070823Y0112560D01*
X0071009Y0112745D02*
X0069996Y0111733D01*
X0069448Y0110409D01*
X0069448Y0108977D01*
X0069996Y0107653D01*
X0071009Y0106640D01*
X0072333Y0106092D01*
X0078565Y0106092D01*
X0079888Y0106640D01*
X0080901Y0107653D01*
X0081450Y0108977D01*
X0081450Y0110409D01*
X0080901Y0111733D01*
X0079888Y0112745D01*
X0078565Y0113294D01*
X0072333Y0113294D01*
X0071009Y0112745D01*
X0070038Y0111774D02*
X0050860Y0111774D01*
X0051210Y0110988D02*
X0069688Y0110988D01*
X0069448Y0110202D02*
X0051450Y0110202D01*
X0051450Y0109416D02*
X0069448Y0109416D01*
X0069592Y0108630D02*
X0051306Y0108630D01*
X0050981Y0107844D02*
X0069917Y0107844D01*
X0070591Y0107058D02*
X0050307Y0107058D01*
X0049001Y0106273D02*
X0071897Y0106273D01*
X0072333Y0103294D02*
X0071009Y0102745D01*
X0069996Y0101733D01*
X0069448Y0100409D01*
X0069448Y0098977D01*
X0069996Y0097653D01*
X0071009Y0096640D01*
X0072333Y0096092D01*
X0078565Y0096092D01*
X0079888Y0096640D01*
X0080901Y0097653D01*
X0081450Y0098977D01*
X0081450Y0100409D01*
X0080901Y0101733D01*
X0079888Y0102745D01*
X0078565Y0103294D01*
X0072333Y0103294D01*
X0071935Y0103129D02*
X0048963Y0103129D01*
X0048565Y0103294D02*
X0049888Y0102745D01*
X0050901Y0101733D01*
X0051450Y0100409D01*
X0051450Y0098977D01*
X0050901Y0097653D01*
X0049888Y0096640D01*
X0048565Y0096092D01*
X0042333Y0096092D01*
X0041009Y0096640D01*
X0039996Y0097653D01*
X0039448Y0098977D01*
X0039448Y0100409D01*
X0039996Y0101733D01*
X0041009Y0102745D01*
X0042333Y0103294D01*
X0048565Y0103294D01*
X0050291Y0102343D02*
X0070607Y0102343D01*
X0069924Y0101557D02*
X0050974Y0101557D01*
X0051300Y0100771D02*
X0069598Y0100771D01*
X0069448Y0099985D02*
X0051450Y0099985D01*
X0051450Y0099199D02*
X0069448Y0099199D01*
X0069681Y0098413D02*
X0051216Y0098413D01*
X0050876Y0097627D02*
X0070022Y0097627D01*
X0070808Y0096842D02*
X0050090Y0096842D01*
X0040808Y0096842D02*
X0003984Y0096842D01*
X0003984Y0097627D02*
X0040022Y0097627D01*
X0039681Y0098413D02*
X0003984Y0098413D01*
X0003984Y0099199D02*
X0039448Y0099199D01*
X0039448Y0099985D02*
X0003984Y0099985D01*
X0003984Y0100771D02*
X0039598Y0100771D01*
X0039924Y0101557D02*
X0003984Y0101557D01*
X0003984Y0102343D02*
X0040607Y0102343D01*
X0041935Y0103129D02*
X0003984Y0103129D01*
X0003984Y0113346D02*
X0319484Y0113346D01*
X0319484Y0114132D02*
X0003984Y0114132D01*
X0003984Y0114918D02*
X0319484Y0114918D01*
X0319484Y0115703D02*
X0003984Y0115703D01*
X0003984Y0116489D02*
X0319484Y0116489D01*
X0319484Y0117275D02*
X0003984Y0117275D01*
X0003984Y0118061D02*
X0319484Y0118061D01*
X0319484Y0118847D02*
X0003984Y0118847D01*
X0003984Y0119633D02*
X0319484Y0119633D01*
X0319484Y0120419D02*
X0003984Y0120419D01*
X0003984Y0121205D02*
X0319484Y0121205D01*
X0319484Y0121991D02*
X0003984Y0121991D01*
X0003984Y0122777D02*
X0319484Y0122777D01*
X0319484Y0123563D02*
X0003984Y0123563D01*
X0003984Y0124349D02*
X0319484Y0124349D01*
X0319484Y0125134D02*
X0003984Y0125134D01*
X0003984Y0125920D02*
X0319484Y0125920D01*
X0319484Y0126706D02*
X0003984Y0126706D01*
X0003984Y0127492D02*
X0319484Y0127492D01*
X0319484Y0128278D02*
X0003984Y0128278D01*
X0003984Y0129064D02*
X0319484Y0129064D01*
X0319484Y0129850D02*
X0003984Y0129850D01*
X0003984Y0130636D02*
X0319484Y0130636D01*
X0319484Y0131422D02*
X0294418Y0131422D01*
X0293724Y0130728D02*
X0296185Y0133189D01*
X0296185Y0136669D01*
X0293724Y0139130D01*
X0290244Y0139130D01*
X0287783Y0136669D01*
X0287783Y0133189D01*
X0290244Y0130728D01*
X0293724Y0130728D01*
X0295204Y0132208D02*
X0319484Y0132208D01*
X0319484Y0132994D02*
X0295989Y0132994D01*
X0296185Y0133779D02*
X0319484Y0133779D01*
X0319484Y0134565D02*
X0296185Y0134565D01*
X0296185Y0135351D02*
X0319484Y0135351D01*
X0319484Y0136137D02*
X0296185Y0136137D01*
X0295931Y0136923D02*
X0319484Y0136923D01*
X0319484Y0137709D02*
X0295145Y0137709D01*
X0294359Y0138495D02*
X0319484Y0138495D01*
X0319484Y0139281D02*
X0160087Y0139281D01*
X0160468Y0140067D02*
X0319484Y0140067D01*
X0319484Y0140853D02*
X0293849Y0140853D01*
X0293724Y0140728D02*
X0296185Y0143189D01*
X0296185Y0146669D01*
X0293724Y0149130D01*
X0290244Y0149130D01*
X0287783Y0146669D01*
X0287783Y0143189D01*
X0290244Y0140728D01*
X0293724Y0140728D01*
X0294635Y0141639D02*
X0319484Y0141639D01*
X0319484Y0142425D02*
X0295420Y0142425D01*
X0296185Y0143210D02*
X0319484Y0143210D01*
X0319484Y0143996D02*
X0296185Y0143996D01*
X0296185Y0144782D02*
X0319484Y0144782D01*
X0319484Y0145568D02*
X0296185Y0145568D01*
X0296185Y0146354D02*
X0319484Y0146354D01*
X0319484Y0147140D02*
X0295714Y0147140D01*
X0294928Y0147926D02*
X0319484Y0147926D01*
X0319096Y0148712D02*
X0294142Y0148712D01*
X0289826Y0148712D02*
X0284142Y0148712D01*
X0283724Y0149130D02*
X0280244Y0149130D01*
X0277783Y0146669D01*
X0277783Y0143189D01*
X0280244Y0140728D01*
X0283724Y0140728D01*
X0286185Y0143189D01*
X0286185Y0146669D01*
X0283724Y0149130D01*
X0284928Y0147926D02*
X0289040Y0147926D01*
X0288254Y0147140D02*
X0285714Y0147140D01*
X0286185Y0146354D02*
X0287783Y0146354D01*
X0287783Y0145568D02*
X0286185Y0145568D01*
X0286185Y0144782D02*
X0287783Y0144782D01*
X0287783Y0143996D02*
X0286185Y0143996D01*
X0286185Y0143210D02*
X0287783Y0143210D01*
X0288548Y0142425D02*
X0285420Y0142425D01*
X0284635Y0141639D02*
X0289334Y0141639D01*
X0290120Y0140853D02*
X0283849Y0140853D01*
X0283724Y0139130D02*
X0280244Y0139130D01*
X0277783Y0136669D01*
X0277783Y0133189D01*
X0280244Y0130728D01*
X0283724Y0130728D01*
X0286185Y0133189D01*
X0286185Y0136669D01*
X0283724Y0139130D01*
X0284359Y0138495D02*
X0289609Y0138495D01*
X0288823Y0137709D02*
X0285145Y0137709D01*
X0285931Y0136923D02*
X0288037Y0136923D01*
X0287783Y0136137D02*
X0286185Y0136137D01*
X0286185Y0135351D02*
X0287783Y0135351D01*
X0287783Y0134565D02*
X0286185Y0134565D01*
X0286185Y0133779D02*
X0287783Y0133779D01*
X0287979Y0132994D02*
X0285989Y0132994D01*
X0285204Y0132208D02*
X0288765Y0132208D01*
X0289551Y0131422D02*
X0284418Y0131422D01*
X0279551Y0131422D02*
X0196307Y0131422D01*
X0195614Y0130728D02*
X0198075Y0133189D01*
X0198075Y0136669D01*
X0195614Y0139130D01*
X0192134Y0139130D01*
X0189673Y0136669D01*
X0189673Y0133189D01*
X0192134Y0130728D01*
X0195614Y0130728D01*
X0197093Y0132208D02*
X0278765Y0132208D01*
X0277979Y0132994D02*
X0197879Y0132994D01*
X0198075Y0133779D02*
X0277783Y0133779D01*
X0277783Y0134565D02*
X0198075Y0134565D01*
X0198075Y0135351D02*
X0277783Y0135351D01*
X0277783Y0136137D02*
X0198075Y0136137D01*
X0197821Y0136923D02*
X0278037Y0136923D01*
X0278823Y0137709D02*
X0197035Y0137709D01*
X0196249Y0138495D02*
X0279609Y0138495D01*
X0280120Y0140853D02*
X0195738Y0140853D01*
X0195614Y0140728D02*
X0198075Y0143189D01*
X0198075Y0146669D01*
X0195614Y0149130D01*
X0192134Y0149130D01*
X0189673Y0146669D01*
X0189673Y0143189D01*
X0192134Y0140728D01*
X0195614Y0140728D01*
X0196524Y0141639D02*
X0279334Y0141639D01*
X0278548Y0142425D02*
X0197310Y0142425D01*
X0198075Y0143210D02*
X0277783Y0143210D01*
X0277783Y0143996D02*
X0198075Y0143996D01*
X0198075Y0144782D02*
X0277783Y0144782D01*
X0277783Y0145568D02*
X0198075Y0145568D01*
X0198075Y0146354D02*
X0277783Y0146354D01*
X0278254Y0147140D02*
X0197604Y0147140D01*
X0196818Y0147926D02*
X0279040Y0147926D01*
X0279826Y0148712D02*
X0196032Y0148712D01*
X0191716Y0148712D02*
X0176032Y0148712D01*
X0175614Y0149130D02*
X0172134Y0149130D01*
X0169673Y0146669D01*
X0169673Y0143189D01*
X0172134Y0140728D01*
X0175614Y0140728D01*
X0178075Y0143189D01*
X0178075Y0146669D01*
X0175614Y0149130D01*
X0176818Y0147926D02*
X0190930Y0147926D01*
X0190144Y0147140D02*
X0177604Y0147140D01*
X0178075Y0146354D02*
X0189673Y0146354D01*
X0189673Y0145568D02*
X0178075Y0145568D01*
X0178075Y0144782D02*
X0189673Y0144782D01*
X0189673Y0143996D02*
X0178075Y0143996D01*
X0178075Y0143210D02*
X0189673Y0143210D01*
X0190438Y0142425D02*
X0177310Y0142425D01*
X0176524Y0141639D02*
X0191224Y0141639D01*
X0192010Y0140853D02*
X0175738Y0140853D01*
X0172010Y0140853D02*
X0160468Y0140853D01*
X0160468Y0141639D02*
X0171224Y0141639D01*
X0170438Y0142425D02*
X0160468Y0142425D01*
X0160468Y0143210D02*
X0169673Y0143210D01*
X0169673Y0143996D02*
X0160468Y0143996D01*
X0160468Y0144782D02*
X0169673Y0144782D01*
X0169673Y0145568D02*
X0160468Y0145568D01*
X0160468Y0146354D02*
X0169673Y0146354D01*
X0170144Y0147140D02*
X0160468Y0147140D01*
X0160468Y0147926D02*
X0170930Y0147926D01*
X0171716Y0148712D02*
X0160857Y0148712D01*
X0161642Y0149498D02*
X0318310Y0149498D01*
X0317524Y0150284D02*
X0162428Y0150284D01*
X0162024Y0152134D02*
X0158874Y0148984D01*
X0158874Y0140323D01*
X0153874Y0135323D01*
X0153874Y0134929D01*
X0150713Y0137709D02*
X0147035Y0137709D01*
X0147821Y0136923D02*
X0149927Y0136923D01*
X0149673Y0136137D02*
X0148075Y0136137D01*
X0148075Y0136669D02*
X0145614Y0139130D01*
X0142134Y0139130D01*
X0139673Y0136669D01*
X0139673Y0133189D01*
X0142134Y0130728D01*
X0145614Y0130728D01*
X0148075Y0133189D01*
X0148075Y0136669D01*
X0148075Y0135351D02*
X0149673Y0135351D01*
X0149673Y0134565D02*
X0148075Y0134565D01*
X0148075Y0133779D02*
X0149673Y0133779D01*
X0149869Y0132994D02*
X0147879Y0132994D01*
X0147093Y0132208D02*
X0150655Y0132208D01*
X0151441Y0131422D02*
X0146307Y0131422D01*
X0141441Y0131422D02*
X0136307Y0131422D01*
X0135614Y0130728D02*
X0138075Y0133189D01*
X0138075Y0136669D01*
X0135614Y0139130D01*
X0132134Y0139130D01*
X0129673Y0136669D01*
X0129673Y0133189D01*
X0132134Y0130728D01*
X0135614Y0130728D01*
X0137093Y0132208D02*
X0140655Y0132208D01*
X0139869Y0132994D02*
X0137879Y0132994D01*
X0138075Y0133779D02*
X0139673Y0133779D01*
X0139673Y0134565D02*
X0138075Y0134565D01*
X0138075Y0135351D02*
X0139673Y0135351D01*
X0139673Y0136137D02*
X0138075Y0136137D01*
X0137821Y0136923D02*
X0139927Y0136923D01*
X0140713Y0137709D02*
X0137035Y0137709D01*
X0136249Y0138495D02*
X0141499Y0138495D01*
X0142134Y0140728D02*
X0145614Y0140728D01*
X0148075Y0143189D01*
X0148075Y0146669D01*
X0145614Y0149130D01*
X0142134Y0149130D01*
X0139673Y0146669D01*
X0139673Y0143189D01*
X0142134Y0140728D01*
X0142010Y0140853D02*
X0135738Y0140853D01*
X0135614Y0140728D02*
X0138075Y0143189D01*
X0138075Y0146669D01*
X0135614Y0149130D01*
X0132134Y0149130D01*
X0129673Y0146669D01*
X0129673Y0143189D01*
X0132134Y0140728D01*
X0135614Y0140728D01*
X0136524Y0141639D02*
X0141224Y0141639D01*
X0140438Y0142425D02*
X0137310Y0142425D01*
X0138075Y0143210D02*
X0139673Y0143210D01*
X0139673Y0143996D02*
X0138075Y0143996D01*
X0138075Y0144782D02*
X0139673Y0144782D01*
X0139673Y0145568D02*
X0138075Y0145568D01*
X0138075Y0146354D02*
X0139673Y0146354D01*
X0140144Y0147140D02*
X0137604Y0147140D01*
X0136818Y0147926D02*
X0140930Y0147926D01*
X0141716Y0148712D02*
X0136032Y0148712D01*
X0131716Y0148712D02*
X0126032Y0148712D01*
X0125614Y0149130D02*
X0122134Y0149130D01*
X0119673Y0146669D01*
X0119673Y0143189D01*
X0122134Y0140728D01*
X0125614Y0140728D01*
X0128075Y0143189D01*
X0128075Y0146669D01*
X0125614Y0149130D01*
X0126818Y0147926D02*
X0130930Y0147926D01*
X0130144Y0147140D02*
X0127604Y0147140D01*
X0128075Y0146354D02*
X0129673Y0146354D01*
X0129673Y0145568D02*
X0128075Y0145568D01*
X0128075Y0144782D02*
X0129673Y0144782D01*
X0129673Y0143996D02*
X0128075Y0143996D01*
X0128075Y0143210D02*
X0129673Y0143210D01*
X0130438Y0142425D02*
X0127310Y0142425D01*
X0126524Y0141639D02*
X0131224Y0141639D01*
X0132010Y0140853D02*
X0125738Y0140853D01*
X0125614Y0139130D02*
X0122134Y0139130D01*
X0119673Y0136669D01*
X0119673Y0133189D01*
X0122134Y0130728D01*
X0125614Y0130728D01*
X0128075Y0133189D01*
X0128075Y0136669D01*
X0125614Y0139130D01*
X0126249Y0138495D02*
X0131499Y0138495D01*
X0130713Y0137709D02*
X0127035Y0137709D01*
X0127821Y0136923D02*
X0129927Y0136923D01*
X0129673Y0136137D02*
X0128075Y0136137D01*
X0128075Y0135351D02*
X0129673Y0135351D01*
X0129673Y0134565D02*
X0128075Y0134565D01*
X0128075Y0133779D02*
X0129673Y0133779D01*
X0129869Y0132994D02*
X0127879Y0132994D01*
X0127093Y0132208D02*
X0130655Y0132208D01*
X0131441Y0131422D02*
X0126307Y0131422D01*
X0121441Y0131422D02*
X0003984Y0131422D01*
X0003984Y0132208D02*
X0120655Y0132208D01*
X0119869Y0132994D02*
X0003984Y0132994D01*
X0003984Y0133779D02*
X0119673Y0133779D01*
X0119673Y0134565D02*
X0003984Y0134565D01*
X0003984Y0135351D02*
X0119673Y0135351D01*
X0119673Y0136137D02*
X0003984Y0136137D01*
X0003984Y0136923D02*
X0119927Y0136923D01*
X0120713Y0137709D02*
X0003984Y0137709D01*
X0003984Y0138495D02*
X0121499Y0138495D01*
X0122010Y0140853D02*
X0003984Y0140853D01*
X0003984Y0141639D02*
X0121224Y0141639D01*
X0120438Y0142425D02*
X0003984Y0142425D01*
X0003984Y0143210D02*
X0119673Y0143210D01*
X0119673Y0143996D02*
X0003984Y0143996D01*
X0003984Y0144782D02*
X0119673Y0144782D01*
X0119673Y0145568D02*
X0003984Y0145568D01*
X0003984Y0146354D02*
X0119673Y0146354D01*
X0120144Y0147140D02*
X0003984Y0147140D01*
X0003984Y0147926D02*
X0120930Y0147926D01*
X0121716Y0148712D02*
X0003984Y0148712D01*
X0003984Y0149498D02*
X0152280Y0149498D01*
X0152280Y0150284D02*
X0003984Y0150284D01*
X0003984Y0151070D02*
X0152280Y0151070D01*
X0152280Y0151855D02*
X0003984Y0151855D01*
X0003984Y0152641D02*
X0152402Y0152641D01*
X0153188Y0153427D02*
X0003984Y0153427D01*
X0003984Y0154213D02*
X0153974Y0154213D01*
X0154760Y0154999D02*
X0003984Y0154999D01*
X0003984Y0155785D02*
X0155546Y0155785D01*
X0156332Y0156571D02*
X0003984Y0156571D01*
X0003984Y0157357D02*
X0353035Y0157357D01*
X0353035Y0158143D02*
X0003984Y0158143D01*
X0003984Y0158929D02*
X0353035Y0158929D01*
X0353035Y0159715D02*
X0080750Y0159715D01*
X0082067Y0160501D02*
X0353035Y0160501D01*
X0353035Y0161286D02*
X0082596Y0161286D01*
X0082823Y0162072D02*
X0353035Y0162072D01*
X0353035Y0162858D02*
X0082823Y0162858D01*
X0082823Y0163644D02*
X0353035Y0163644D01*
X0353035Y0164430D02*
X0082823Y0164430D01*
X0082823Y0165216D02*
X0353035Y0165216D01*
X0353035Y0166002D02*
X0082823Y0166002D01*
X0082823Y0166788D02*
X0353035Y0166788D01*
X0353035Y0167574D02*
X0082823Y0167574D01*
X0082823Y0168360D02*
X0353035Y0168360D01*
X0353035Y0169146D02*
X0082823Y0169146D01*
X0082823Y0169931D02*
X0353035Y0169931D01*
X0353035Y0170717D02*
X0082823Y0170717D01*
X0082823Y0171503D02*
X0353035Y0171503D01*
X0353035Y0172289D02*
X0082823Y0172289D01*
X0082823Y0173075D02*
X0353035Y0173075D01*
X0353035Y0173861D02*
X0082823Y0173861D01*
X0082823Y0174647D02*
X0353035Y0174647D01*
X0353035Y0175433D02*
X0324772Y0175433D01*
X0326132Y0176219D02*
X0353035Y0176219D01*
X0353035Y0177005D02*
X0326678Y0177005D01*
X0326917Y0177791D02*
X0353035Y0177791D01*
X0353035Y0178577D02*
X0326917Y0178577D01*
X0326917Y0179362D02*
X0353035Y0179362D01*
X0353035Y0180148D02*
X0326917Y0180148D01*
X0326917Y0180934D02*
X0353035Y0180934D01*
X0353035Y0181720D02*
X0326917Y0181720D01*
X0326917Y0182506D02*
X0353035Y0182506D01*
X0353035Y0183292D02*
X0326917Y0183292D01*
X0326917Y0184078D02*
X0353035Y0184078D01*
X0353035Y0184864D02*
X0326917Y0184864D01*
X0326917Y0185650D02*
X0353035Y0185650D01*
X0353035Y0186436D02*
X0326917Y0186436D01*
X0326917Y0187222D02*
X0353035Y0187222D01*
X0353035Y0156571D02*
X0319684Y0156571D01*
X0320470Y0155785D02*
X0353035Y0155785D01*
X0353035Y0154999D02*
X0321256Y0154999D01*
X0322042Y0154213D02*
X0353035Y0154213D01*
X0353035Y0153427D02*
X0322828Y0153427D01*
X0323614Y0152641D02*
X0353035Y0152641D01*
X0353035Y0151855D02*
X0324399Y0151855D01*
X0325035Y0151070D02*
X0353035Y0151070D01*
X0353035Y0150284D02*
X0325035Y0150284D01*
X0325035Y0149498D02*
X0353035Y0149498D01*
X0353035Y0148712D02*
X0325035Y0148712D01*
X0325035Y0147926D02*
X0353035Y0147926D01*
X0353035Y0147140D02*
X0325035Y0147140D01*
X0325035Y0146354D02*
X0353035Y0146354D01*
X0353035Y0145568D02*
X0325035Y0145568D01*
X0325035Y0144782D02*
X0353035Y0144782D01*
X0353035Y0143996D02*
X0325035Y0143996D01*
X0325035Y0143210D02*
X0353035Y0143210D01*
X0353035Y0142425D02*
X0325035Y0142425D01*
X0325035Y0141639D02*
X0353035Y0141639D01*
X0353035Y0140853D02*
X0325035Y0140853D01*
X0325035Y0140067D02*
X0353035Y0140067D01*
X0353035Y0139281D02*
X0325035Y0139281D01*
X0325035Y0138495D02*
X0353035Y0138495D01*
X0353035Y0137709D02*
X0325035Y0137709D01*
X0325035Y0136923D02*
X0353035Y0136923D01*
X0353035Y0136137D02*
X0325035Y0136137D01*
X0325035Y0135351D02*
X0353035Y0135351D01*
X0353035Y0134565D02*
X0325035Y0134565D01*
X0325035Y0133779D02*
X0353035Y0133779D01*
X0353035Y0132994D02*
X0325035Y0132994D01*
X0325035Y0132208D02*
X0353035Y0132208D01*
X0353035Y0131422D02*
X0325035Y0131422D01*
X0325035Y0130636D02*
X0353035Y0130636D01*
X0353035Y0129850D02*
X0325035Y0129850D01*
X0325035Y0129064D02*
X0353035Y0129064D01*
X0353035Y0128278D02*
X0325035Y0128278D01*
X0325035Y0127492D02*
X0353035Y0127492D01*
X0353035Y0126706D02*
X0325035Y0126706D01*
X0325035Y0125920D02*
X0353035Y0125920D01*
X0353035Y0125134D02*
X0325035Y0125134D01*
X0325035Y0124349D02*
X0353035Y0124349D01*
X0353035Y0123563D02*
X0325035Y0123563D01*
X0325035Y0122777D02*
X0326883Y0122777D01*
X0326097Y0121991D02*
X0325035Y0121991D01*
X0325035Y0121205D02*
X0325311Y0121205D01*
X0330471Y0122777D02*
X0336883Y0122777D01*
X0336937Y0122831D02*
X0334476Y0120370D01*
X0334476Y0116890D01*
X0336937Y0114429D01*
X0340417Y0114429D01*
X0342878Y0116890D01*
X0342878Y0120370D01*
X0340417Y0122831D01*
X0336937Y0122831D01*
X0336097Y0121991D02*
X0331257Y0121991D01*
X0332043Y0121205D02*
X0335311Y0121205D01*
X0334525Y0120419D02*
X0332829Y0120419D01*
X0332878Y0119633D02*
X0334476Y0119633D01*
X0334476Y0118847D02*
X0332878Y0118847D01*
X0332878Y0118061D02*
X0334476Y0118061D01*
X0334476Y0117275D02*
X0332878Y0117275D01*
X0332477Y0116489D02*
X0334877Y0116489D01*
X0335663Y0115703D02*
X0331692Y0115703D01*
X0330906Y0114918D02*
X0336449Y0114918D01*
X0340906Y0114918D02*
X0353035Y0114918D01*
X0353035Y0115703D02*
X0341692Y0115703D01*
X0342477Y0116489D02*
X0353035Y0116489D01*
X0353035Y0117275D02*
X0342878Y0117275D01*
X0342878Y0118061D02*
X0353035Y0118061D01*
X0353035Y0118847D02*
X0342878Y0118847D01*
X0342878Y0119633D02*
X0353035Y0119633D01*
X0353035Y0120419D02*
X0342829Y0120419D01*
X0342043Y0121205D02*
X0353035Y0121205D01*
X0353035Y0121991D02*
X0341257Y0121991D01*
X0340471Y0122777D02*
X0353035Y0122777D01*
X0353035Y0114132D02*
X0325035Y0114132D01*
X0325035Y0114918D02*
X0326449Y0114918D01*
X0325663Y0115703D02*
X0325035Y0115703D01*
X0325035Y0113346D02*
X0353035Y0113346D01*
X0353035Y0112560D02*
X0340688Y0112560D01*
X0340417Y0112831D02*
X0336937Y0112831D01*
X0334476Y0110370D01*
X0334476Y0106890D01*
X0336937Y0104429D01*
X0340417Y0104429D01*
X0342878Y0106890D01*
X0342878Y0110370D01*
X0340417Y0112831D01*
X0341474Y0111774D02*
X0353035Y0111774D01*
X0353035Y0110988D02*
X0342260Y0110988D01*
X0342878Y0110202D02*
X0353035Y0110202D01*
X0353035Y0109416D02*
X0342878Y0109416D01*
X0342878Y0108630D02*
X0353035Y0108630D01*
X0353035Y0107844D02*
X0342878Y0107844D01*
X0342878Y0107058D02*
X0353035Y0107058D01*
X0353035Y0106273D02*
X0342261Y0106273D01*
X0341475Y0105487D02*
X0353035Y0105487D01*
X0353035Y0104701D02*
X0340689Y0104701D01*
X0340417Y0102831D02*
X0336937Y0102831D01*
X0334476Y0100370D01*
X0334476Y0096890D01*
X0336937Y0094429D01*
X0340417Y0094429D01*
X0342878Y0096890D01*
X0342878Y0100370D01*
X0340417Y0102831D01*
X0340905Y0102343D02*
X0353035Y0102343D01*
X0353035Y0103129D02*
X0325035Y0103129D01*
X0325035Y0103915D02*
X0353035Y0103915D01*
X0353035Y0101557D02*
X0341691Y0101557D01*
X0342477Y0100771D02*
X0353035Y0100771D01*
X0353035Y0099985D02*
X0342878Y0099985D01*
X0342878Y0099199D02*
X0353035Y0099199D01*
X0353035Y0098413D02*
X0342878Y0098413D01*
X0342878Y0097627D02*
X0353035Y0097627D01*
X0353035Y0096842D02*
X0342830Y0096842D01*
X0342044Y0096056D02*
X0353035Y0096056D01*
X0353035Y0095270D02*
X0341258Y0095270D01*
X0340472Y0094484D02*
X0353035Y0094484D01*
X0353035Y0093698D02*
X0335864Y0093698D01*
X0335078Y0094484D02*
X0336882Y0094484D01*
X0336097Y0095270D02*
X0331258Y0095270D01*
X0332044Y0096056D02*
X0335311Y0096056D01*
X0334525Y0096842D02*
X0332830Y0096842D01*
X0332878Y0097627D02*
X0334476Y0097627D01*
X0334476Y0098413D02*
X0332878Y0098413D01*
X0332878Y0099199D02*
X0334476Y0099199D01*
X0334476Y0099985D02*
X0332878Y0099985D01*
X0332477Y0100771D02*
X0334878Y0100771D01*
X0335663Y0101557D02*
X0331691Y0101557D01*
X0330905Y0102343D02*
X0336449Y0102343D01*
X0336666Y0104701D02*
X0330689Y0104701D01*
X0331475Y0105487D02*
X0335880Y0105487D01*
X0335094Y0106273D02*
X0332261Y0106273D01*
X0332878Y0107058D02*
X0334476Y0107058D01*
X0334476Y0107844D02*
X0332878Y0107844D01*
X0332878Y0108630D02*
X0334476Y0108630D01*
X0334476Y0109416D02*
X0332878Y0109416D01*
X0332878Y0110202D02*
X0334476Y0110202D01*
X0335094Y0110988D02*
X0332260Y0110988D01*
X0331474Y0111774D02*
X0335880Y0111774D01*
X0336666Y0112560D02*
X0330688Y0112560D01*
X0326666Y0112560D02*
X0325035Y0112560D01*
X0325035Y0111774D02*
X0325880Y0111774D01*
X0325094Y0110988D02*
X0325035Y0110988D01*
X0319484Y0110988D02*
X0317430Y0110988D01*
X0317670Y0110409D02*
X0317122Y0111733D01*
X0316109Y0112745D01*
X0314786Y0113294D01*
X0308553Y0113294D01*
X0307230Y0112745D01*
X0306217Y0111733D01*
X0305669Y0110409D01*
X0305669Y0108977D01*
X0306217Y0107653D01*
X0307230Y0106640D01*
X0308553Y0106092D01*
X0314786Y0106092D01*
X0316109Y0106640D01*
X0317122Y0107653D01*
X0317670Y0108977D01*
X0317670Y0110409D01*
X0317670Y0110202D02*
X0319484Y0110202D01*
X0319484Y0109416D02*
X0317670Y0109416D01*
X0317527Y0108630D02*
X0319484Y0108630D01*
X0319484Y0107844D02*
X0317201Y0107844D01*
X0316527Y0107058D02*
X0319484Y0107058D01*
X0319484Y0106273D02*
X0315221Y0106273D01*
X0308118Y0106273D02*
X0285221Y0106273D01*
X0284786Y0106092D02*
X0286109Y0106640D01*
X0287122Y0107653D01*
X0287670Y0108977D01*
X0287670Y0110409D01*
X0287122Y0111733D01*
X0286109Y0112745D01*
X0284786Y0113294D01*
X0278553Y0113294D01*
X0277230Y0112745D01*
X0276217Y0111733D01*
X0275669Y0110409D01*
X0275669Y0108977D01*
X0276217Y0107653D01*
X0277230Y0106640D01*
X0278553Y0106092D01*
X0284786Y0106092D01*
X0286527Y0107058D02*
X0306811Y0107058D01*
X0306138Y0107844D02*
X0287201Y0107844D01*
X0287527Y0108630D02*
X0305812Y0108630D01*
X0305669Y0109416D02*
X0287670Y0109416D01*
X0287670Y0110202D02*
X0305669Y0110202D01*
X0305908Y0110988D02*
X0287430Y0110988D01*
X0287081Y0111774D02*
X0306258Y0111774D01*
X0307044Y0112560D02*
X0286295Y0112560D01*
X0277044Y0112560D02*
X0257240Y0112560D01*
X0257054Y0112745D02*
X0255730Y0113294D01*
X0249498Y0113294D01*
X0248174Y0112745D01*
X0247162Y0111733D01*
X0246613Y0110409D01*
X0246613Y0108977D01*
X0247162Y0107653D01*
X0248174Y0106640D01*
X0249498Y0106092D01*
X0255730Y0106092D01*
X0257054Y0106640D01*
X0258067Y0107653D01*
X0258615Y0108977D01*
X0258615Y0110409D01*
X0258067Y0111733D01*
X0257054Y0112745D01*
X0258025Y0111774D02*
X0276258Y0111774D01*
X0275908Y0110988D02*
X0258375Y0110988D01*
X0258615Y0110202D02*
X0275669Y0110202D01*
X0275669Y0109416D02*
X0258615Y0109416D01*
X0258471Y0108630D02*
X0275812Y0108630D01*
X0276138Y0107844D02*
X0258146Y0107844D01*
X0257472Y0107058D02*
X0276811Y0107058D01*
X0278118Y0106273D02*
X0256166Y0106273D01*
X0255730Y0103294D02*
X0249498Y0103294D01*
X0248174Y0102745D01*
X0247162Y0101733D01*
X0246613Y0100409D01*
X0246613Y0098977D01*
X0247162Y0097653D01*
X0248174Y0096640D01*
X0249498Y0096092D01*
X0255730Y0096092D01*
X0257054Y0096640D01*
X0258067Y0097653D01*
X0258615Y0098977D01*
X0258615Y0100409D01*
X0258067Y0101733D01*
X0257054Y0102745D01*
X0255730Y0103294D01*
X0256128Y0103129D02*
X0278155Y0103129D01*
X0278553Y0103294D02*
X0277230Y0102745D01*
X0276217Y0101733D01*
X0275669Y0100409D01*
X0275669Y0098977D01*
X0276217Y0097653D01*
X0277230Y0096640D01*
X0278553Y0096092D01*
X0284786Y0096092D01*
X0286109Y0096640D01*
X0287122Y0097653D01*
X0287670Y0098977D01*
X0287670Y0100409D01*
X0287122Y0101733D01*
X0286109Y0102745D01*
X0284786Y0103294D01*
X0278553Y0103294D01*
X0276827Y0102343D02*
X0257456Y0102343D01*
X0258139Y0101557D02*
X0276144Y0101557D01*
X0275818Y0100771D02*
X0258465Y0100771D01*
X0258615Y0099985D02*
X0275669Y0099985D01*
X0275669Y0099199D02*
X0258615Y0099199D01*
X0258382Y0098413D02*
X0275902Y0098413D01*
X0276242Y0097627D02*
X0258041Y0097627D01*
X0257255Y0096842D02*
X0277028Y0096842D01*
X0286310Y0096842D02*
X0307028Y0096842D01*
X0306242Y0097627D02*
X0287096Y0097627D01*
X0287437Y0098413D02*
X0305902Y0098413D01*
X0305669Y0099199D02*
X0287670Y0099199D01*
X0287670Y0099985D02*
X0305669Y0099985D01*
X0305818Y0100771D02*
X0287520Y0100771D01*
X0287195Y0101557D02*
X0306144Y0101557D01*
X0306827Y0102343D02*
X0286512Y0102343D01*
X0285183Y0103129D02*
X0308155Y0103129D01*
X0325035Y0102343D02*
X0326449Y0102343D01*
X0325664Y0101557D02*
X0325035Y0101557D01*
X0325035Y0104701D02*
X0326666Y0104701D01*
X0325880Y0105487D02*
X0325035Y0105487D01*
X0325035Y0106273D02*
X0325094Y0106273D01*
X0319484Y0111774D02*
X0317081Y0111774D01*
X0316295Y0112560D02*
X0319484Y0112560D01*
X0323441Y0095835D02*
X0325803Y0093472D01*
X0333835Y0093472D01*
X0338677Y0088630D01*
X0334476Y0088982D02*
X0332878Y0088982D01*
X0332878Y0088197D02*
X0334476Y0088197D01*
X0334476Y0087411D02*
X0332878Y0087411D01*
X0332613Y0086625D02*
X0334742Y0086625D01*
X0335527Y0085839D02*
X0331827Y0085839D01*
X0331041Y0085053D02*
X0336313Y0085053D01*
X0341041Y0085053D02*
X0353035Y0085053D01*
X0353035Y0085839D02*
X0341827Y0085839D01*
X0342613Y0086625D02*
X0353035Y0086625D01*
X0353035Y0087411D02*
X0342878Y0087411D01*
X0342878Y0088197D02*
X0353035Y0088197D01*
X0353035Y0088982D02*
X0342878Y0088982D01*
X0342878Y0089768D02*
X0353035Y0089768D01*
X0353035Y0090554D02*
X0342694Y0090554D01*
X0341908Y0091340D02*
X0353035Y0091340D01*
X0353035Y0092126D02*
X0341122Y0092126D01*
X0336650Y0092912D02*
X0353035Y0092912D01*
X0334498Y0090554D02*
X0332694Y0090554D01*
X0332878Y0089768D02*
X0334476Y0089768D01*
X0333712Y0091340D02*
X0331908Y0091340D01*
X0328677Y0088630D02*
X0328559Y0088748D01*
X0324622Y0088748D01*
X0321079Y0092291D01*
X0321079Y0148984D01*
X0317929Y0152134D01*
X0162024Y0152134D01*
X0157299Y0155283D02*
X0318717Y0155283D01*
X0323441Y0150559D01*
X0323441Y0095835D01*
X0309307Y0086625D02*
X0003984Y0086625D01*
X0003984Y0085839D02*
X0308522Y0085839D01*
X0308150Y0085053D02*
X0003984Y0085053D01*
X0003984Y0084267D02*
X0307870Y0084267D01*
X0307870Y0083481D02*
X0003984Y0083481D01*
X0003984Y0082695D02*
X0307947Y0082695D01*
X0314799Y0076408D02*
X0353035Y0076408D01*
X0353035Y0075622D02*
X0314799Y0075622D01*
X0314799Y0074836D02*
X0353035Y0074836D01*
X0353035Y0074050D02*
X0314799Y0074050D01*
X0314799Y0073264D02*
X0353035Y0073264D01*
X0353035Y0072478D02*
X0340770Y0072478D01*
X0340417Y0072831D02*
X0336937Y0072831D01*
X0334476Y0070370D01*
X0334476Y0066890D01*
X0336937Y0064429D01*
X0340417Y0064429D01*
X0342878Y0066890D01*
X0342878Y0070370D01*
X0340417Y0072831D01*
X0341556Y0071692D02*
X0353035Y0071692D01*
X0353035Y0070906D02*
X0342341Y0070906D01*
X0342878Y0070121D02*
X0353035Y0070121D01*
X0353035Y0069335D02*
X0342878Y0069335D01*
X0342878Y0068549D02*
X0353035Y0068549D01*
X0353035Y0067763D02*
X0342878Y0067763D01*
X0342878Y0066977D02*
X0353035Y0066977D01*
X0353035Y0066191D02*
X0342179Y0066191D01*
X0341393Y0065405D02*
X0353035Y0065405D01*
X0353035Y0064619D02*
X0340607Y0064619D01*
X0336747Y0064619D02*
X0313578Y0064619D01*
X0314470Y0065405D02*
X0335961Y0065405D01*
X0335175Y0066191D02*
X0314999Y0066191D01*
X0315325Y0066977D02*
X0334476Y0066977D01*
X0334476Y0067763D02*
X0315390Y0067763D01*
X0315390Y0068549D02*
X0334476Y0068549D01*
X0334476Y0069335D02*
X0315098Y0069335D01*
X0314799Y0070121D02*
X0334476Y0070121D01*
X0335013Y0070906D02*
X0314799Y0070906D01*
X0314799Y0071692D02*
X0335799Y0071692D01*
X0336585Y0072478D02*
X0314799Y0072478D01*
X0294363Y0063833D02*
X0123274Y0063833D01*
X0123689Y0063047D02*
X0130793Y0063047D01*
X0131388Y0063294D02*
X0130064Y0062745D01*
X0129051Y0061733D01*
X0128503Y0060409D01*
X0128503Y0058977D01*
X0129051Y0057653D01*
X0130064Y0056640D01*
X0131388Y0056092D01*
X0137620Y0056092D01*
X0138944Y0056640D01*
X0139957Y0057653D01*
X0140505Y0058977D01*
X0140505Y0060409D01*
X0139957Y0061733D01*
X0138944Y0062745D01*
X0137620Y0063294D01*
X0131388Y0063294D01*
X0129580Y0062261D02*
X0123689Y0062261D01*
X0123689Y0061475D02*
X0128945Y0061475D01*
X0128619Y0060690D02*
X0123689Y0060690D01*
X0123689Y0059904D02*
X0128503Y0059904D01*
X0128503Y0059118D02*
X0123689Y0059118D01*
X0123689Y0058332D02*
X0128770Y0058332D01*
X0129159Y0057546D02*
X0123689Y0057546D01*
X0123537Y0056760D02*
X0129945Y0056760D01*
X0131388Y0053294D02*
X0130064Y0052745D01*
X0129051Y0051733D01*
X0128503Y0050409D01*
X0128503Y0048977D01*
X0129051Y0047653D01*
X0130064Y0046640D01*
X0131388Y0046092D01*
X0137620Y0046092D01*
X0138944Y0046640D01*
X0139957Y0047653D01*
X0140505Y0048977D01*
X0140505Y0050409D01*
X0139957Y0051733D01*
X0138944Y0052745D01*
X0137620Y0053294D01*
X0131388Y0053294D01*
X0130269Y0052830D02*
X0108739Y0052830D01*
X0108944Y0052745D02*
X0107620Y0053294D01*
X0101388Y0053294D01*
X0100064Y0052745D01*
X0099051Y0051733D01*
X0098503Y0050409D01*
X0098503Y0048977D01*
X0099051Y0047653D01*
X0100064Y0046640D01*
X0101388Y0046092D01*
X0107620Y0046092D01*
X0108944Y0046640D01*
X0109957Y0047653D01*
X0110505Y0048977D01*
X0110505Y0050409D01*
X0109957Y0051733D01*
X0108944Y0052745D01*
X0109645Y0052045D02*
X0129363Y0052045D01*
X0128855Y0051259D02*
X0110153Y0051259D01*
X0110478Y0050473D02*
X0128529Y0050473D01*
X0128503Y0049687D02*
X0110505Y0049687D01*
X0110473Y0048901D02*
X0128535Y0048901D01*
X0128860Y0048115D02*
X0110148Y0048115D01*
X0109632Y0047329D02*
X0129376Y0047329D01*
X0130299Y0046543D02*
X0108709Y0046543D01*
X0100299Y0046543D02*
X0079654Y0046543D01*
X0079888Y0046640D02*
X0078565Y0046092D01*
X0072333Y0046092D01*
X0071009Y0046640D01*
X0069996Y0047653D01*
X0069448Y0048977D01*
X0069448Y0050409D01*
X0069996Y0051733D01*
X0071009Y0052745D01*
X0072333Y0053294D01*
X0078565Y0053294D01*
X0079888Y0052745D01*
X0080901Y0051733D01*
X0081450Y0050409D01*
X0081450Y0048977D01*
X0080901Y0047653D01*
X0079888Y0046640D01*
X0080577Y0047329D02*
X0099376Y0047329D01*
X0098860Y0048115D02*
X0081093Y0048115D01*
X0081418Y0048901D02*
X0098535Y0048901D01*
X0098503Y0049687D02*
X0081450Y0049687D01*
X0081423Y0050473D02*
X0098529Y0050473D01*
X0098855Y0051259D02*
X0081098Y0051259D01*
X0080589Y0052045D02*
X0099363Y0052045D01*
X0100269Y0052830D02*
X0079683Y0052830D01*
X0078565Y0056092D02*
X0072333Y0056092D01*
X0071009Y0056640D01*
X0069996Y0057653D01*
X0069448Y0058977D01*
X0069448Y0060409D01*
X0069996Y0061733D01*
X0071009Y0062745D01*
X0072333Y0063294D01*
X0078565Y0063294D01*
X0079888Y0062745D01*
X0080901Y0061733D01*
X0081450Y0060409D01*
X0081450Y0058977D01*
X0080901Y0057653D01*
X0079888Y0056640D01*
X0078565Y0056092D01*
X0080008Y0056760D02*
X0099945Y0056760D01*
X0099159Y0057546D02*
X0080794Y0057546D01*
X0081182Y0058332D02*
X0098770Y0058332D01*
X0098503Y0059118D02*
X0081450Y0059118D01*
X0081450Y0059904D02*
X0098503Y0059904D01*
X0098619Y0060690D02*
X0081333Y0060690D01*
X0081008Y0061475D02*
X0098945Y0061475D01*
X0099580Y0062261D02*
X0080373Y0062261D01*
X0079160Y0063047D02*
X0100793Y0063047D01*
X0108215Y0063047D02*
X0117350Y0063047D01*
X0117350Y0062261D02*
X0109428Y0062261D01*
X0109849Y0057546D02*
X0117350Y0057546D01*
X0117502Y0056760D02*
X0109063Y0056760D01*
X0113779Y0065405D02*
X0059201Y0065405D01*
X0059201Y0065180D02*
X0059201Y0071686D01*
X0058497Y0072390D01*
X0054887Y0072390D01*
X0053855Y0073421D01*
X0052768Y0073421D01*
X0052768Y0073899D01*
X0052064Y0074602D01*
X0046739Y0074602D01*
X0046035Y0073899D01*
X0046035Y0068967D01*
X0046739Y0068264D01*
X0052064Y0068264D01*
X0052727Y0068926D01*
X0052862Y0068791D01*
X0052862Y0065180D01*
X0053566Y0064476D01*
X0058497Y0064476D01*
X0059201Y0065180D01*
X0058640Y0064619D02*
X0172234Y0064619D01*
X0175594Y0062844D02*
X0175594Y0061681D01*
X0169033Y0061681D01*
X0169012Y0061733D01*
X0167999Y0062745D01*
X0166675Y0063294D01*
X0160443Y0063294D01*
X0159119Y0062745D01*
X0158106Y0061733D01*
X0157558Y0060409D01*
X0157558Y0058977D01*
X0158106Y0057653D01*
X0159119Y0056640D01*
X0160443Y0056092D01*
X0166675Y0056092D01*
X0167999Y0056640D01*
X0169012Y0057653D01*
X0169033Y0057705D01*
X0175594Y0057705D01*
X0175594Y0056337D01*
X0176298Y0055634D01*
X0181230Y0055634D01*
X0181933Y0056337D01*
X0181933Y0062844D01*
X0181230Y0063547D01*
X0176298Y0063547D01*
X0175594Y0062844D01*
X0175798Y0063047D02*
X0167270Y0063047D01*
X0168483Y0062261D02*
X0175594Y0062261D01*
X0181730Y0063047D02*
X0189848Y0063047D01*
X0190443Y0063294D02*
X0189119Y0062745D01*
X0188106Y0061733D01*
X0187558Y0060409D01*
X0187558Y0058977D01*
X0188106Y0057653D01*
X0189119Y0056640D01*
X0190443Y0056092D01*
X0196675Y0056092D01*
X0197999Y0056640D01*
X0199012Y0057653D01*
X0199560Y0058977D01*
X0199560Y0060409D01*
X0199012Y0061733D01*
X0197999Y0062745D01*
X0196675Y0063294D01*
X0190443Y0063294D01*
X0188635Y0062261D02*
X0181933Y0062261D01*
X0181933Y0061475D02*
X0188000Y0061475D01*
X0187674Y0060690D02*
X0181933Y0060690D01*
X0181933Y0059904D02*
X0187558Y0059904D01*
X0187558Y0059118D02*
X0181933Y0059118D01*
X0181933Y0058332D02*
X0187825Y0058332D01*
X0188214Y0057546D02*
X0181933Y0057546D01*
X0181933Y0056760D02*
X0189000Y0056760D01*
X0190443Y0053294D02*
X0189119Y0052745D01*
X0188106Y0051733D01*
X0187558Y0050409D01*
X0187558Y0048977D01*
X0188106Y0047653D01*
X0189119Y0046640D01*
X0190443Y0046092D01*
X0196675Y0046092D01*
X0197999Y0046640D01*
X0199012Y0047653D01*
X0199560Y0048977D01*
X0199560Y0050409D01*
X0199012Y0051733D01*
X0197999Y0052745D01*
X0196675Y0053294D01*
X0190443Y0053294D01*
X0189324Y0052830D02*
X0167794Y0052830D01*
X0167999Y0052745D02*
X0166675Y0053294D01*
X0160443Y0053294D01*
X0159119Y0052745D01*
X0158106Y0051733D01*
X0157558Y0050409D01*
X0157558Y0048977D01*
X0158106Y0047653D01*
X0159119Y0046640D01*
X0160443Y0046092D01*
X0166675Y0046092D01*
X0167999Y0046640D01*
X0169012Y0047653D01*
X0169560Y0048977D01*
X0169560Y0050409D01*
X0169012Y0051733D01*
X0167999Y0052745D01*
X0168700Y0052045D02*
X0188418Y0052045D01*
X0187910Y0051259D02*
X0169208Y0051259D01*
X0169534Y0050473D02*
X0187585Y0050473D01*
X0187558Y0049687D02*
X0169560Y0049687D01*
X0169528Y0048901D02*
X0187590Y0048901D01*
X0187915Y0048115D02*
X0169203Y0048115D01*
X0168687Y0047329D02*
X0188431Y0047329D01*
X0189354Y0046543D02*
X0167764Y0046543D01*
X0159354Y0046543D02*
X0138709Y0046543D01*
X0139632Y0047329D02*
X0158431Y0047329D01*
X0157915Y0048115D02*
X0140148Y0048115D01*
X0140473Y0048901D02*
X0157590Y0048901D01*
X0157558Y0049687D02*
X0140505Y0049687D01*
X0140478Y0050473D02*
X0157585Y0050473D01*
X0157910Y0051259D02*
X0140153Y0051259D01*
X0139645Y0052045D02*
X0158418Y0052045D01*
X0159324Y0052830D02*
X0138739Y0052830D01*
X0139063Y0056760D02*
X0159000Y0056760D01*
X0158214Y0057546D02*
X0139849Y0057546D01*
X0140238Y0058332D02*
X0157825Y0058332D01*
X0157558Y0059118D02*
X0140505Y0059118D01*
X0140505Y0059904D02*
X0157558Y0059904D01*
X0157674Y0060690D02*
X0140389Y0060690D01*
X0140063Y0061475D02*
X0158000Y0061475D01*
X0158635Y0062261D02*
X0139428Y0062261D01*
X0138215Y0063047D02*
X0159848Y0063047D01*
X0168904Y0057546D02*
X0175594Y0057546D01*
X0175594Y0056760D02*
X0168118Y0056760D01*
X0175958Y0055974D02*
X0062397Y0055974D01*
X0062941Y0056760D02*
X0070889Y0056760D01*
X0070104Y0057546D02*
X0062941Y0057546D01*
X0062941Y0058332D02*
X0069715Y0058332D01*
X0069448Y0059118D02*
X0062941Y0059118D01*
X0062941Y0059904D02*
X0069448Y0059904D01*
X0069564Y0060690D02*
X0062941Y0060690D01*
X0062941Y0061475D02*
X0069890Y0061475D01*
X0070525Y0062261D02*
X0062941Y0062261D01*
X0062919Y0063047D02*
X0071738Y0063047D01*
X0059201Y0066191D02*
X0113610Y0066191D01*
X0113610Y0066977D02*
X0059201Y0066977D01*
X0059201Y0067763D02*
X0113610Y0067763D01*
X0113610Y0068549D02*
X0112554Y0068549D01*
X0106359Y0068549D02*
X0059201Y0068549D01*
X0059201Y0069335D02*
X0106091Y0069335D01*
X0106091Y0070121D02*
X0059201Y0070121D01*
X0059201Y0070906D02*
X0106091Y0070906D01*
X0106091Y0071692D02*
X0059195Y0071692D01*
X0054798Y0072478D02*
X0106091Y0072478D01*
X0106091Y0073264D02*
X0054012Y0073264D01*
X0053852Y0074836D02*
X0043408Y0074836D01*
X0044035Y0075622D02*
X0046074Y0075622D01*
X0046035Y0076408D02*
X0044035Y0076408D01*
X0046187Y0074050D02*
X0003984Y0074050D01*
X0003984Y0073264D02*
X0046035Y0073264D01*
X0046035Y0072478D02*
X0003984Y0072478D01*
X0003984Y0071692D02*
X0046035Y0071692D01*
X0046035Y0070906D02*
X0003984Y0070906D01*
X0003984Y0070121D02*
X0046035Y0070121D01*
X0046035Y0069335D02*
X0003984Y0069335D01*
X0003984Y0068549D02*
X0046454Y0068549D01*
X0052349Y0068549D02*
X0052862Y0068549D01*
X0052862Y0067763D02*
X0003984Y0067763D01*
X0003984Y0066977D02*
X0052862Y0066977D01*
X0052862Y0066191D02*
X0003984Y0066191D01*
X0003984Y0065405D02*
X0052862Y0065405D01*
X0053423Y0064619D02*
X0003984Y0064619D01*
X0003984Y0055974D02*
X0057147Y0055974D01*
X0056602Y0056760D02*
X0050008Y0056760D01*
X0050794Y0057546D02*
X0056602Y0057546D01*
X0056602Y0062261D02*
X0050373Y0062261D01*
X0049160Y0063047D02*
X0056625Y0063047D01*
X0049683Y0052830D02*
X0071214Y0052830D01*
X0070308Y0052045D02*
X0050589Y0052045D01*
X0051098Y0051259D02*
X0069800Y0051259D01*
X0069474Y0050473D02*
X0051423Y0050473D01*
X0051450Y0049687D02*
X0069448Y0049687D01*
X0069479Y0048901D02*
X0051418Y0048901D01*
X0051093Y0048115D02*
X0069805Y0048115D01*
X0070320Y0047329D02*
X0050577Y0047329D01*
X0049654Y0046543D02*
X0071244Y0046543D01*
X0052617Y0074050D02*
X0106391Y0074050D01*
X0106765Y0074836D02*
X0103219Y0074836D01*
X0103697Y0075622D02*
X0106091Y0075622D01*
X0106091Y0080337D02*
X0103697Y0080337D01*
X0103213Y0081123D02*
X0106772Y0081123D01*
X0112142Y0081123D02*
X0114087Y0081123D01*
X0113469Y0080337D02*
X0112823Y0080337D01*
X0119807Y0077194D02*
X0147591Y0077194D01*
X0147998Y0076408D02*
X0119807Y0076408D01*
X0119807Y0075622D02*
X0148986Y0075622D01*
X0181570Y0055974D02*
X0234422Y0055974D01*
X0234067Y0056760D02*
X0227174Y0056760D01*
X0227959Y0057546D02*
X0234067Y0057546D01*
X0228067Y0051733D02*
X0227054Y0052745D01*
X0225730Y0053294D01*
X0219498Y0053294D01*
X0218174Y0052745D01*
X0217162Y0051733D01*
X0216613Y0050409D01*
X0216613Y0048977D01*
X0217162Y0047653D01*
X0218174Y0046640D01*
X0219498Y0046092D01*
X0225730Y0046092D01*
X0227054Y0046640D01*
X0228067Y0047653D01*
X0228615Y0048977D01*
X0228615Y0050409D01*
X0228067Y0051733D01*
X0227755Y0052045D02*
X0247474Y0052045D01*
X0246965Y0051259D02*
X0228263Y0051259D01*
X0228589Y0050473D02*
X0246640Y0050473D01*
X0246613Y0049687D02*
X0228615Y0049687D01*
X0228584Y0048901D02*
X0246645Y0048901D01*
X0246970Y0048115D02*
X0228258Y0048115D01*
X0227743Y0047329D02*
X0247486Y0047329D01*
X0248409Y0046543D02*
X0226819Y0046543D01*
X0218409Y0046543D02*
X0197764Y0046543D01*
X0198687Y0047329D02*
X0217486Y0047329D01*
X0216970Y0048115D02*
X0199203Y0048115D01*
X0199528Y0048901D02*
X0216645Y0048901D01*
X0216613Y0049687D02*
X0199560Y0049687D01*
X0199534Y0050473D02*
X0216640Y0050473D01*
X0216965Y0051259D02*
X0199208Y0051259D01*
X0198700Y0052045D02*
X0217474Y0052045D01*
X0218380Y0052830D02*
X0197794Y0052830D01*
X0198118Y0056760D02*
X0218055Y0056760D01*
X0217269Y0057546D02*
X0198904Y0057546D01*
X0199293Y0058332D02*
X0216880Y0058332D01*
X0216613Y0059118D02*
X0199560Y0059118D01*
X0199560Y0059904D02*
X0216613Y0059904D01*
X0216730Y0060690D02*
X0199444Y0060690D01*
X0199118Y0061475D02*
X0217055Y0061475D01*
X0217690Y0062261D02*
X0198483Y0062261D01*
X0197270Y0063047D02*
X0218903Y0063047D01*
X0229019Y0068549D02*
X0230327Y0068549D01*
X0229594Y0069335D02*
X0229343Y0069335D01*
X0232074Y0072478D02*
X0282287Y0072478D01*
X0282287Y0071692D02*
X0236470Y0071692D01*
X0236665Y0070906D02*
X0282287Y0070906D01*
X0282287Y0070121D02*
X0236665Y0070121D01*
X0236665Y0069335D02*
X0282287Y0069335D01*
X0282666Y0068549D02*
X0236665Y0068549D01*
X0231288Y0073264D02*
X0282287Y0073264D01*
X0289020Y0075622D02*
X0289902Y0075622D01*
X0289902Y0076408D02*
X0289020Y0076408D01*
X0289020Y0080337D02*
X0289902Y0080337D01*
X0290173Y0081123D02*
X0288449Y0081123D01*
X0282858Y0081123D02*
X0279913Y0081123D01*
X0280287Y0080337D02*
X0282287Y0080337D01*
X0273949Y0076408D02*
X0269750Y0076408D01*
X0268762Y0075622D02*
X0273949Y0075622D01*
X0274537Y0074836D02*
X0236385Y0074836D01*
X0236673Y0075622D02*
X0266309Y0075622D01*
X0265320Y0076408D02*
X0236673Y0076408D01*
X0236673Y0077194D02*
X0264914Y0077194D01*
X0231008Y0081123D02*
X0228717Y0081123D01*
X0229343Y0080337D02*
X0230335Y0080337D01*
X0223236Y0081123D02*
X0219654Y0081123D01*
X0220217Y0080337D02*
X0222610Y0080337D01*
X0222610Y0079551D02*
X0220217Y0079551D01*
X0213878Y0079551D02*
X0210972Y0079551D01*
X0218174Y0096640D02*
X0219498Y0096092D01*
X0225730Y0096092D01*
X0227054Y0096640D01*
X0228067Y0097653D01*
X0228615Y0098977D01*
X0228615Y0100409D01*
X0228067Y0101733D01*
X0227054Y0102745D01*
X0225730Y0103294D01*
X0219498Y0103294D01*
X0218174Y0102745D01*
X0217162Y0101733D01*
X0216613Y0100409D01*
X0216613Y0098977D01*
X0217162Y0097653D01*
X0218174Y0096640D01*
X0217973Y0096842D02*
X0198200Y0096842D01*
X0197999Y0096640D02*
X0199012Y0097653D01*
X0199560Y0098977D01*
X0199560Y0100409D01*
X0199012Y0101733D01*
X0197999Y0102745D01*
X0196675Y0103294D01*
X0190443Y0103294D01*
X0189119Y0102745D01*
X0188106Y0101733D01*
X0187558Y0100409D01*
X0187558Y0098977D01*
X0188106Y0097653D01*
X0189119Y0096640D01*
X0190443Y0096092D01*
X0196675Y0096092D01*
X0197999Y0096640D01*
X0198986Y0097627D02*
X0217187Y0097627D01*
X0216847Y0098413D02*
X0199327Y0098413D01*
X0199560Y0099199D02*
X0216613Y0099199D01*
X0216613Y0099985D02*
X0199560Y0099985D01*
X0199410Y0100771D02*
X0216763Y0100771D01*
X0217089Y0101557D02*
X0199084Y0101557D01*
X0198401Y0102343D02*
X0217772Y0102343D01*
X0219100Y0103129D02*
X0197073Y0103129D01*
X0190045Y0103129D02*
X0167073Y0103129D01*
X0166675Y0103294D02*
X0167999Y0102745D01*
X0169012Y0101733D01*
X0169560Y0100409D01*
X0169560Y0098977D01*
X0169012Y0097653D01*
X0167999Y0096640D01*
X0166675Y0096092D01*
X0160443Y0096092D01*
X0159119Y0096640D01*
X0158106Y0097653D01*
X0157558Y0098977D01*
X0157558Y0100409D01*
X0158106Y0101733D01*
X0159119Y0102745D01*
X0160443Y0103294D01*
X0166675Y0103294D01*
X0168401Y0102343D02*
X0188717Y0102343D01*
X0188034Y0101557D02*
X0169084Y0101557D01*
X0169410Y0100771D02*
X0187708Y0100771D01*
X0187558Y0099985D02*
X0169560Y0099985D01*
X0169560Y0099199D02*
X0187558Y0099199D01*
X0187792Y0098413D02*
X0169327Y0098413D01*
X0168986Y0097627D02*
X0188132Y0097627D01*
X0188918Y0096842D02*
X0168200Y0096842D01*
X0158918Y0096842D02*
X0139145Y0096842D01*
X0138944Y0096640D02*
X0139957Y0097653D01*
X0140505Y0098977D01*
X0140505Y0100409D01*
X0139957Y0101733D01*
X0138944Y0102745D01*
X0137620Y0103294D01*
X0131388Y0103294D01*
X0130064Y0102745D01*
X0129051Y0101733D01*
X0128503Y0100409D01*
X0128503Y0098977D01*
X0129051Y0097653D01*
X0130064Y0096640D01*
X0131388Y0096092D01*
X0137620Y0096092D01*
X0138944Y0096640D01*
X0139931Y0097627D02*
X0158132Y0097627D01*
X0157792Y0098413D02*
X0140271Y0098413D01*
X0140505Y0099199D02*
X0157558Y0099199D01*
X0157558Y0099985D02*
X0140505Y0099985D01*
X0140355Y0100771D02*
X0157708Y0100771D01*
X0158034Y0101557D02*
X0140029Y0101557D01*
X0139346Y0102343D02*
X0158717Y0102343D01*
X0160045Y0103129D02*
X0138018Y0103129D01*
X0137620Y0106092D02*
X0131388Y0106092D01*
X0130064Y0106640D01*
X0129051Y0107653D01*
X0128503Y0108977D01*
X0128503Y0110409D01*
X0129051Y0111733D01*
X0130064Y0112745D01*
X0131388Y0113294D01*
X0137620Y0113294D01*
X0138662Y0112862D01*
X0159401Y0112862D01*
X0160443Y0113294D01*
X0166675Y0113294D01*
X0167999Y0112745D01*
X0169012Y0111733D01*
X0169560Y0110409D01*
X0169560Y0108977D01*
X0169012Y0107653D01*
X0167999Y0106640D01*
X0166675Y0106092D01*
X0160443Y0106092D01*
X0159401Y0106524D01*
X0138662Y0106524D01*
X0137620Y0106092D01*
X0138056Y0106273D02*
X0160007Y0106273D01*
X0167111Y0106273D02*
X0190007Y0106273D01*
X0190443Y0106092D02*
X0196675Y0106092D01*
X0197999Y0106640D01*
X0199012Y0107653D01*
X0199560Y0108977D01*
X0199560Y0110409D01*
X0199012Y0111733D01*
X0197999Y0112745D01*
X0196675Y0113294D01*
X0190443Y0113294D01*
X0189119Y0112745D01*
X0188106Y0111733D01*
X0187558Y0110409D01*
X0187558Y0108977D01*
X0188106Y0107653D01*
X0189119Y0106640D01*
X0190443Y0106092D01*
X0188701Y0107058D02*
X0168417Y0107058D01*
X0169091Y0107844D02*
X0188027Y0107844D01*
X0187702Y0108630D02*
X0169416Y0108630D01*
X0169560Y0109416D02*
X0187558Y0109416D01*
X0187558Y0110202D02*
X0169560Y0110202D01*
X0169320Y0110988D02*
X0187798Y0110988D01*
X0188148Y0111774D02*
X0168970Y0111774D01*
X0168184Y0112560D02*
X0188934Y0112560D01*
X0198184Y0112560D02*
X0217989Y0112560D01*
X0218174Y0112745D02*
X0217162Y0111733D01*
X0216613Y0110409D01*
X0216613Y0108977D01*
X0217162Y0107653D01*
X0218174Y0106640D01*
X0219498Y0106092D01*
X0225730Y0106092D01*
X0227054Y0106640D01*
X0228067Y0107653D01*
X0228615Y0108977D01*
X0228615Y0110409D01*
X0228067Y0111733D01*
X0227054Y0112745D01*
X0225730Y0113294D01*
X0219498Y0113294D01*
X0218174Y0112745D01*
X0217203Y0111774D02*
X0198970Y0111774D01*
X0199320Y0110988D02*
X0216853Y0110988D01*
X0216613Y0110202D02*
X0199560Y0110202D01*
X0199560Y0109416D02*
X0216613Y0109416D01*
X0216757Y0108630D02*
X0199416Y0108630D01*
X0199091Y0107844D02*
X0217082Y0107844D01*
X0217756Y0107058D02*
X0198417Y0107058D01*
X0197111Y0106273D02*
X0219062Y0106273D01*
X0226166Y0106273D02*
X0249062Y0106273D01*
X0247756Y0107058D02*
X0227472Y0107058D01*
X0228146Y0107844D02*
X0247082Y0107844D01*
X0246757Y0108630D02*
X0228471Y0108630D01*
X0228615Y0109416D02*
X0246613Y0109416D01*
X0246613Y0110202D02*
X0228615Y0110202D01*
X0228375Y0110988D02*
X0246853Y0110988D01*
X0247203Y0111774D02*
X0228025Y0111774D01*
X0227240Y0112560D02*
X0247989Y0112560D01*
X0249100Y0103129D02*
X0226128Y0103129D01*
X0227456Y0102343D02*
X0247772Y0102343D01*
X0247089Y0101557D02*
X0228139Y0101557D01*
X0228465Y0100771D02*
X0246763Y0100771D01*
X0246613Y0099985D02*
X0228615Y0099985D01*
X0228615Y0099199D02*
X0246613Y0099199D01*
X0246847Y0098413D02*
X0228382Y0098413D01*
X0228041Y0097627D02*
X0247187Y0097627D01*
X0247973Y0096842D02*
X0227255Y0096842D01*
X0191441Y0131422D02*
X0186307Y0131422D01*
X0185614Y0130728D02*
X0188075Y0133189D01*
X0188075Y0136669D01*
X0185614Y0139130D01*
X0182134Y0139130D01*
X0179673Y0136669D01*
X0179673Y0133189D01*
X0182134Y0130728D01*
X0185614Y0130728D01*
X0187093Y0132208D02*
X0190655Y0132208D01*
X0189869Y0132994D02*
X0187879Y0132994D01*
X0188075Y0133779D02*
X0189673Y0133779D01*
X0189673Y0134565D02*
X0188075Y0134565D01*
X0188075Y0135351D02*
X0189673Y0135351D01*
X0189673Y0136137D02*
X0188075Y0136137D01*
X0187821Y0136923D02*
X0189927Y0136923D01*
X0190713Y0137709D02*
X0187035Y0137709D01*
X0186249Y0138495D02*
X0191499Y0138495D01*
X0181499Y0138495D02*
X0159301Y0138495D01*
X0158515Y0137709D02*
X0180713Y0137709D01*
X0179927Y0136923D02*
X0157821Y0136923D01*
X0158075Y0136137D02*
X0179673Y0136137D01*
X0179673Y0135351D02*
X0158075Y0135351D01*
X0158075Y0134565D02*
X0179673Y0134565D01*
X0179673Y0133779D02*
X0158075Y0133779D01*
X0157879Y0132994D02*
X0179869Y0132994D01*
X0180655Y0132208D02*
X0157093Y0132208D01*
X0156307Y0131422D02*
X0181441Y0131422D01*
X0157149Y0140853D02*
X0155738Y0140853D01*
X0156363Y0140067D02*
X0003984Y0140067D01*
X0003984Y0139281D02*
X0155577Y0139281D01*
X0152010Y0140853D02*
X0145738Y0140853D01*
X0146524Y0141639D02*
X0151224Y0141639D01*
X0150438Y0142425D02*
X0147310Y0142425D01*
X0148075Y0143210D02*
X0149673Y0143210D01*
X0149673Y0143996D02*
X0148075Y0143996D01*
X0148075Y0144782D02*
X0149673Y0144782D01*
X0149673Y0145568D02*
X0148075Y0145568D01*
X0148075Y0146354D02*
X0149673Y0146354D01*
X0150144Y0147140D02*
X0147604Y0147140D01*
X0146818Y0147926D02*
X0150930Y0147926D01*
X0151716Y0148712D02*
X0146032Y0148712D01*
X0153874Y0151858D02*
X0153874Y0144929D01*
X0156524Y0141639D02*
X0157280Y0141639D01*
X0151499Y0138495D02*
X0146249Y0138495D01*
X0153874Y0151858D02*
X0157299Y0155283D01*
X0111086Y0175433D02*
X0082823Y0175433D01*
X0082823Y0176219D02*
X0109726Y0176219D01*
X0109181Y0177005D02*
X0082823Y0177005D01*
X0082823Y0177791D02*
X0108941Y0177791D01*
X0108941Y0178577D02*
X0082823Y0178577D01*
X0082823Y0179362D02*
X0108941Y0179362D01*
X0108941Y0180148D02*
X0082823Y0180148D01*
X0082823Y0180934D02*
X0108941Y0180934D01*
X0108941Y0181720D02*
X0082823Y0181720D01*
X0082823Y0182506D02*
X0108941Y0182506D01*
X0108941Y0183292D02*
X0082823Y0183292D01*
X0082823Y0184078D02*
X0108941Y0184078D01*
X0108941Y0184864D02*
X0082823Y0184864D01*
X0082823Y0185650D02*
X0108941Y0185650D01*
X0108941Y0186436D02*
X0082823Y0186436D01*
X0082823Y0187222D02*
X0108941Y0187222D01*
X0032274Y0159715D02*
X0003984Y0159715D01*
X0003984Y0160501D02*
X0030957Y0160501D01*
X0030428Y0161286D02*
X0003984Y0161286D01*
X0003984Y0162072D02*
X0030201Y0162072D01*
X0030201Y0162858D02*
X0003984Y0162858D01*
X0003984Y0163644D02*
X0030201Y0163644D01*
X0030201Y0164430D02*
X0003984Y0164430D01*
X0003984Y0165216D02*
X0030201Y0165216D01*
X0030201Y0166002D02*
X0003984Y0166002D01*
X0003984Y0166788D02*
X0030201Y0166788D01*
X0030201Y0167574D02*
X0003984Y0167574D01*
X0003984Y0168360D02*
X0030201Y0168360D01*
X0030201Y0169146D02*
X0003984Y0169146D01*
X0003984Y0169931D02*
X0030201Y0169931D01*
X0030201Y0170717D02*
X0003984Y0170717D01*
X0003984Y0171503D02*
X0030201Y0171503D01*
X0030201Y0172289D02*
X0003984Y0172289D01*
X0003984Y0173075D02*
X0030201Y0173075D01*
X0030201Y0173861D02*
X0003984Y0173861D01*
X0003984Y0174647D02*
X0030201Y0174647D01*
X0030201Y0175433D02*
X0003984Y0175433D01*
X0003984Y0176219D02*
X0030201Y0176219D01*
X0030201Y0177005D02*
X0003984Y0177005D01*
X0003984Y0177791D02*
X0030201Y0177791D01*
X0030201Y0178577D02*
X0003984Y0178577D01*
X0003984Y0179362D02*
X0030201Y0179362D01*
X0030201Y0180148D02*
X0003984Y0180148D01*
X0003984Y0180934D02*
X0030201Y0180934D01*
X0030201Y0181720D02*
X0003984Y0181720D01*
X0003984Y0182506D02*
X0030201Y0182506D01*
X0030201Y0183292D02*
X0003984Y0183292D01*
X0003984Y0184078D02*
X0030201Y0184078D01*
X0030201Y0184864D02*
X0003984Y0184864D01*
X0003984Y0185650D02*
X0030201Y0185650D01*
X0030201Y0186436D02*
X0003984Y0186436D01*
X0003984Y0187222D02*
X0030201Y0187222D01*
X0100064Y0112745D02*
X0101388Y0113294D01*
X0107620Y0113294D01*
X0108944Y0112745D01*
X0109957Y0111733D01*
X0110505Y0110409D01*
X0110505Y0108977D01*
X0109957Y0107653D01*
X0108944Y0106640D01*
X0107620Y0106092D01*
X0101388Y0106092D01*
X0100064Y0106640D01*
X0099051Y0107653D01*
X0098503Y0108977D01*
X0098503Y0110409D01*
X0099051Y0111733D01*
X0100064Y0112745D01*
X0099879Y0112560D02*
X0080074Y0112560D01*
X0080860Y0111774D02*
X0099093Y0111774D01*
X0098743Y0110988D02*
X0081210Y0110988D01*
X0081450Y0110202D02*
X0098503Y0110202D01*
X0098503Y0109416D02*
X0081450Y0109416D01*
X0081306Y0108630D02*
X0098647Y0108630D01*
X0098972Y0107844D02*
X0080981Y0107844D01*
X0080307Y0107058D02*
X0099646Y0107058D01*
X0100952Y0106273D02*
X0079001Y0106273D01*
X0078963Y0103129D02*
X0100990Y0103129D01*
X0101388Y0103294D02*
X0100064Y0102745D01*
X0099051Y0101733D01*
X0098503Y0100409D01*
X0098503Y0098977D01*
X0099051Y0097653D01*
X0100064Y0096640D01*
X0101388Y0096092D01*
X0107620Y0096092D01*
X0108944Y0096640D01*
X0109957Y0097653D01*
X0110505Y0098977D01*
X0110505Y0100409D01*
X0109957Y0101733D01*
X0108944Y0102745D01*
X0107620Y0103294D01*
X0101388Y0103294D01*
X0099662Y0102343D02*
X0080291Y0102343D01*
X0080974Y0101557D02*
X0098979Y0101557D01*
X0098653Y0100771D02*
X0081300Y0100771D01*
X0081450Y0099985D02*
X0098503Y0099985D01*
X0098503Y0099199D02*
X0081450Y0099199D01*
X0081216Y0098413D02*
X0098736Y0098413D01*
X0099077Y0097627D02*
X0080876Y0097627D01*
X0080090Y0096842D02*
X0099863Y0096842D01*
X0109145Y0096842D02*
X0129863Y0096842D01*
X0129077Y0097627D02*
X0109931Y0097627D01*
X0110271Y0098413D02*
X0128736Y0098413D01*
X0128503Y0099199D02*
X0110505Y0099199D01*
X0110505Y0099985D02*
X0128503Y0099985D01*
X0128653Y0100771D02*
X0110355Y0100771D01*
X0110029Y0101557D02*
X0128979Y0101557D01*
X0129662Y0102343D02*
X0109346Y0102343D01*
X0108018Y0103129D02*
X0130990Y0103129D01*
X0130952Y0106273D02*
X0108056Y0106273D01*
X0109362Y0107058D02*
X0129646Y0107058D01*
X0128972Y0107844D02*
X0110036Y0107844D01*
X0110361Y0108630D02*
X0128647Y0108630D01*
X0128503Y0109416D02*
X0110505Y0109416D01*
X0110505Y0110202D02*
X0128503Y0110202D01*
X0128743Y0110988D02*
X0110265Y0110988D01*
X0109915Y0111774D02*
X0129093Y0111774D01*
X0129879Y0112560D02*
X0109129Y0112560D01*
X0053575Y0081123D02*
X0052236Y0081123D01*
X0052768Y0080337D02*
X0053232Y0080337D01*
X0059571Y0077194D02*
X0087749Y0077194D01*
X0088155Y0076408D02*
X0059571Y0076408D01*
X0059571Y0075622D02*
X0089143Y0075622D01*
X0091597Y0075622D02*
X0097358Y0075622D01*
X0097358Y0076408D02*
X0092585Y0076408D01*
X0097836Y0074836D02*
X0058952Y0074836D01*
X0053232Y0075622D02*
X0052730Y0075622D01*
X0052768Y0076408D02*
X0053232Y0076408D01*
X0046035Y0080337D02*
X0044035Y0080337D01*
X0043701Y0081123D02*
X0046567Y0081123D01*
X0037697Y0076408D02*
X0032743Y0076408D01*
X0031754Y0075622D02*
X0037697Y0075622D01*
X0038324Y0074836D02*
X0003984Y0074836D01*
X0003984Y0075622D02*
X0029301Y0075622D01*
X0028313Y0076408D02*
X0003984Y0076408D01*
X0003984Y0077194D02*
X0027906Y0077194D01*
X0027752Y0077980D02*
X0003984Y0077980D01*
X0003984Y0078766D02*
X0027791Y0078766D01*
X0028117Y0079551D02*
X0003984Y0079551D01*
X0003984Y0080337D02*
X0028822Y0080337D01*
X0226849Y0052830D02*
X0248380Y0052830D01*
X0286229Y0056760D02*
X0293768Y0056760D01*
X0293768Y0057546D02*
X0287015Y0057546D01*
D22*
X0281669Y0059693D02*
X0296646Y0059693D01*
X0296937Y0059984D01*
X0293197Y0068646D02*
X0290449Y0071394D01*
X0285654Y0071394D01*
X0237236Y0059583D02*
X0237126Y0059693D01*
X0222614Y0059693D01*
X0233496Y0068244D02*
X0230402Y0071339D01*
X0225976Y0071339D01*
X0178764Y0059591D02*
X0178661Y0059693D01*
X0163559Y0059693D01*
X0172181Y0071094D02*
X0175024Y0068252D01*
X0172181Y0071094D02*
X0167543Y0071094D01*
X0120520Y0060165D02*
X0120047Y0059693D01*
X0104504Y0059693D01*
X0114323Y0071283D02*
X0116780Y0068827D01*
X0114323Y0071283D02*
X0109457Y0071283D01*
X0059772Y0059772D02*
X0059693Y0059693D01*
X0045449Y0059693D01*
X0056031Y0068433D02*
X0053031Y0071433D01*
X0049402Y0071433D01*
D23*
X0134504Y0109693D02*
X0163559Y0109693D01*
X0311630Y0083630D02*
X0311630Y0067882D01*
D24*
X0267535Y0078118D03*
X0209268Y0077331D03*
X0150213Y0078118D03*
X0090370Y0078118D03*
X0030528Y0078118D03*
M02*
