G75*
%MOIN*%
%OFA0B0*%
%FSLAX25Y25*%
%IPPOS*%
%LPD*%
%AMOC8*
5,1,8,0,0,1.08239X$1,22.5*
%
%ADD10C,0.00591*%
%ADD11C,0.00394*%
%ADD12C,0.04800*%
%ADD13R,0.03937X0.04331*%
%ADD14OC8,0.06000*%
%ADD15R,0.10000X0.20000*%
%ADD16C,0.06000*%
%ADD17C,0.26378*%
%ADD18C,0.26772*%
D10*
X0001394Y0004890D02*
X0355724Y0004890D01*
X0355724Y0189929D01*
X0324228Y0189929D01*
X0324228Y0178118D01*
X0111630Y0178118D01*
X0111630Y0189929D01*
X0080134Y0189929D01*
X0080134Y0162370D01*
X0032890Y0162370D01*
X0032890Y0189929D01*
X0001394Y0189929D01*
D11*
X0001394Y0004890D01*
D12*
X0043049Y0049693D02*
X0047849Y0049693D01*
X0047849Y0059693D02*
X0043049Y0059693D01*
X0073049Y0059693D02*
X0077849Y0059693D01*
X0077849Y0049693D02*
X0073049Y0049693D01*
X0102104Y0049693D02*
X0106904Y0049693D01*
X0106904Y0059693D02*
X0102104Y0059693D01*
X0132104Y0059693D02*
X0136904Y0059693D01*
X0136904Y0049693D02*
X0132104Y0049693D01*
X0161159Y0049693D02*
X0165959Y0049693D01*
X0165959Y0059693D02*
X0161159Y0059693D01*
X0191159Y0059693D02*
X0195959Y0059693D01*
X0195959Y0049693D02*
X0191159Y0049693D01*
X0220214Y0049693D02*
X0225014Y0049693D01*
X0225014Y0059693D02*
X0220214Y0059693D01*
X0250214Y0059693D02*
X0255014Y0059693D01*
X0255014Y0049693D02*
X0250214Y0049693D01*
X0279269Y0049693D02*
X0284069Y0049693D01*
X0284069Y0059693D02*
X0279269Y0059693D01*
X0309269Y0059693D02*
X0314069Y0059693D01*
X0314069Y0049693D02*
X0309269Y0049693D01*
X0309269Y0099693D02*
X0314069Y0099693D01*
X0314069Y0109693D02*
X0309269Y0109693D01*
X0284069Y0109693D02*
X0279269Y0109693D01*
X0279269Y0099693D02*
X0284069Y0099693D01*
X0255014Y0099693D02*
X0250214Y0099693D01*
X0250214Y0109693D02*
X0255014Y0109693D01*
X0225014Y0109693D02*
X0220214Y0109693D01*
X0220214Y0099693D02*
X0225014Y0099693D01*
X0195959Y0099693D02*
X0191159Y0099693D01*
X0191159Y0109693D02*
X0195959Y0109693D01*
X0165959Y0109693D02*
X0161159Y0109693D01*
X0161159Y0099693D02*
X0165959Y0099693D01*
X0136904Y0099693D02*
X0132104Y0099693D01*
X0132104Y0109693D02*
X0136904Y0109693D01*
X0106904Y0109693D02*
X0102104Y0109693D01*
X0102104Y0099693D02*
X0106904Y0099693D01*
X0077849Y0099693D02*
X0073049Y0099693D01*
X0073049Y0109693D02*
X0077849Y0109693D01*
X0047849Y0109693D02*
X0043049Y0109693D01*
X0043049Y0099693D02*
X0047849Y0099693D01*
D13*
X0060291Y0035008D03*
X0066984Y0035008D03*
X0134425Y0033039D03*
X0141118Y0033039D03*
X0178756Y0034417D03*
X0185449Y0034417D03*
X0252378Y0035205D03*
X0259071Y0035205D03*
X0296457Y0033827D03*
X0303150Y0033827D03*
X0217535Y0133039D03*
X0208874Y0133039D03*
X0208874Y0139732D03*
X0217535Y0139732D03*
D14*
X0193874Y0134929D03*
X0183874Y0134929D03*
X0173874Y0134929D03*
X0163874Y0134929D03*
X0153874Y0134929D03*
X0143874Y0134929D03*
X0133874Y0134929D03*
X0123874Y0134929D03*
X0123874Y0144929D03*
X0133874Y0144929D03*
X0143874Y0144929D03*
X0153874Y0144929D03*
X0163874Y0144929D03*
X0173874Y0144929D03*
X0183874Y0144929D03*
X0193874Y0144929D03*
X0241984Y0144929D03*
X0251984Y0144929D03*
X0261984Y0144929D03*
X0271984Y0144929D03*
X0281984Y0144929D03*
X0291984Y0144929D03*
X0301984Y0144929D03*
X0311984Y0144929D03*
X0311984Y0134929D03*
X0301984Y0134929D03*
X0291984Y0134929D03*
X0281984Y0134929D03*
X0271984Y0134929D03*
X0261984Y0134929D03*
X0251984Y0134929D03*
X0241984Y0134929D03*
X0328677Y0118630D03*
X0338677Y0118630D03*
X0338677Y0108630D03*
X0328677Y0108630D03*
X0328677Y0098630D03*
X0338677Y0098630D03*
X0338677Y0088630D03*
X0328677Y0088630D03*
X0328677Y0078630D03*
X0338677Y0078630D03*
X0338677Y0068630D03*
X0328677Y0068630D03*
X0328677Y0058630D03*
X0338677Y0058630D03*
X0338677Y0048630D03*
X0328677Y0048630D03*
D15*
X0296669Y0017488D03*
X0257299Y0017488D03*
X0217929Y0017488D03*
X0178559Y0017488D03*
X0099819Y0017488D03*
X0060449Y0017488D03*
D16*
X0119260Y0013000D02*
X0125260Y0013000D01*
X0125260Y0023000D02*
X0119260Y0023000D01*
X0119260Y0033000D02*
X0125260Y0033000D01*
X0234614Y0033000D02*
X0240614Y0033000D01*
X0240614Y0023000D02*
X0234614Y0023000D01*
X0234614Y0013000D02*
X0240614Y0013000D01*
D17*
X0017142Y0174181D03*
D18*
X0095882Y0174181D03*
X0339976Y0174181D03*
X0339976Y0020638D03*
X0017142Y0020638D03*
M02*
