G75*
%MOIN*%
%OFA0B0*%
%FSLAX25Y25*%
%IPPOS*%
%LPD*%
%AMOC8*
5,1,8,0,0,1.08239X$1,22.5*
%
%ADD10C,0.00591*%
%ADD11C,0.00394*%
%ADD12C,0.00400*%
D10*
X0001394Y0004890D02*
X0355724Y0004890D01*
X0355724Y0189929D01*
X0324228Y0189929D01*
X0324228Y0178118D01*
X0111630Y0178118D01*
X0111630Y0189929D01*
X0080134Y0189929D01*
X0080134Y0162370D01*
X0032890Y0162370D01*
X0032890Y0189929D01*
X0001394Y0189929D01*
D11*
X0001394Y0004890D01*
D12*
X0056486Y0050306D02*
X0057076Y0049716D01*
X0058256Y0049716D01*
X0058846Y0050306D01*
X0060112Y0050306D02*
X0060702Y0049716D01*
X0061882Y0049716D01*
X0062472Y0050306D01*
X0062472Y0052666D01*
X0061882Y0053256D01*
X0060702Y0053256D01*
X0060112Y0052666D01*
X0060112Y0050306D01*
X0060112Y0049716D02*
X0061292Y0050896D01*
X0058846Y0052666D02*
X0058256Y0053256D01*
X0057076Y0053256D01*
X0056486Y0052666D01*
X0056486Y0052076D01*
X0057076Y0051486D01*
X0056486Y0050896D01*
X0056486Y0050306D01*
X0057076Y0051486D02*
X0057666Y0051486D01*
X0117234Y0051092D02*
X0119594Y0051092D01*
X0117824Y0052862D01*
X0117824Y0049322D01*
X0120860Y0049322D02*
X0122040Y0050502D01*
X0122630Y0049322D02*
X0123220Y0049912D01*
X0123220Y0052272D01*
X0122630Y0052862D01*
X0121450Y0052862D01*
X0120860Y0052272D01*
X0120860Y0049912D01*
X0121450Y0049322D01*
X0122630Y0049322D01*
X0175479Y0051109D02*
X0177839Y0051109D01*
X0175479Y0053469D01*
X0175479Y0054059D01*
X0176069Y0054649D01*
X0177249Y0054649D01*
X0177839Y0054059D01*
X0179104Y0054059D02*
X0179104Y0051699D01*
X0179694Y0051109D01*
X0180874Y0051109D01*
X0181464Y0051699D01*
X0181464Y0054059D01*
X0180874Y0054649D01*
X0179694Y0054649D01*
X0179104Y0054059D01*
X0180284Y0052289D02*
X0179104Y0051109D01*
X0230993Y0045046D02*
X0233353Y0045046D01*
X0232173Y0045046D02*
X0232173Y0048586D01*
X0233353Y0047406D01*
X0234618Y0046226D02*
X0234618Y0048586D01*
X0234618Y0046226D02*
X0235798Y0045046D01*
X0236978Y0046226D01*
X0236978Y0048586D01*
X0238243Y0047996D02*
X0238833Y0048586D01*
X0240013Y0048586D01*
X0240603Y0047996D01*
X0240603Y0047406D01*
X0240013Y0046816D01*
X0238833Y0046816D01*
X0238243Y0046226D01*
X0238243Y0045636D01*
X0238833Y0045046D01*
X0240013Y0045046D01*
X0240603Y0045636D01*
X0239740Y0051102D02*
X0238560Y0051102D01*
X0237970Y0051692D01*
X0237970Y0054052D01*
X0238560Y0054642D01*
X0239740Y0054642D01*
X0240330Y0054052D01*
X0240330Y0051692D01*
X0239740Y0051102D01*
X0239150Y0052282D02*
X0237970Y0051102D01*
X0236705Y0051692D02*
X0236115Y0051102D01*
X0234935Y0051102D01*
X0234345Y0051692D01*
X0234345Y0052872D01*
X0234935Y0053462D01*
X0235525Y0053462D01*
X0236705Y0052872D01*
X0236705Y0054642D01*
X0234345Y0054642D01*
X0218091Y0082206D02*
X0215731Y0082206D01*
X0215141Y0082796D01*
X0215141Y0083976D01*
X0215731Y0084566D01*
X0215731Y0085831D02*
X0215141Y0085831D01*
X0215731Y0085831D02*
X0218091Y0088191D01*
X0218681Y0088191D01*
X0218681Y0085831D01*
X0218091Y0084566D02*
X0218681Y0083976D01*
X0218681Y0082796D01*
X0218091Y0082206D01*
X0223724Y0082431D02*
X0227264Y0082431D01*
X0227264Y0084201D01*
X0226674Y0084791D01*
X0225494Y0084791D01*
X0224904Y0084201D01*
X0224904Y0082431D01*
X0224904Y0083611D02*
X0223724Y0084791D01*
X0223724Y0086056D02*
X0223724Y0088416D01*
X0223724Y0087236D02*
X0227264Y0087236D01*
X0226084Y0086056D01*
X0226084Y0089681D02*
X0225494Y0090271D01*
X0225494Y0092041D01*
X0226674Y0092041D02*
X0227264Y0091451D01*
X0227264Y0090271D01*
X0226674Y0089681D01*
X0226084Y0089681D01*
X0224314Y0089681D02*
X0223724Y0090271D01*
X0223724Y0091451D01*
X0224314Y0092041D01*
X0226674Y0092041D01*
X0232266Y0086705D02*
X0232266Y0086115D01*
X0232856Y0085525D01*
X0232266Y0084935D01*
X0232266Y0084345D01*
X0232856Y0083755D01*
X0234036Y0083755D01*
X0234626Y0084345D01*
X0235891Y0084345D02*
X0236481Y0083755D01*
X0237661Y0083755D01*
X0238251Y0084345D01*
X0239516Y0083755D02*
X0240696Y0084935D01*
X0240106Y0084935D02*
X0241876Y0084935D01*
X0241876Y0083755D02*
X0241876Y0087295D01*
X0240106Y0087295D01*
X0239516Y0086705D01*
X0239516Y0085525D01*
X0240106Y0084935D01*
X0238251Y0086705D02*
X0237661Y0087295D01*
X0236481Y0087295D01*
X0235891Y0086705D01*
X0235891Y0086115D01*
X0236481Y0085525D01*
X0235891Y0084935D01*
X0235891Y0084345D01*
X0236481Y0085525D02*
X0237071Y0085525D01*
X0234626Y0086705D02*
X0234036Y0087295D01*
X0232856Y0087295D01*
X0232266Y0086705D01*
X0232856Y0085525D02*
X0233446Y0085525D01*
X0275212Y0086610D02*
X0275802Y0086020D01*
X0276982Y0086020D01*
X0276982Y0087790D01*
X0276392Y0088380D01*
X0275802Y0088380D01*
X0275212Y0087790D01*
X0275212Y0086610D01*
X0276982Y0086020D02*
X0278162Y0087200D01*
X0278752Y0088380D01*
X0283338Y0088246D02*
X0283338Y0087066D01*
X0283928Y0086476D01*
X0283338Y0085211D02*
X0284518Y0084031D01*
X0284518Y0084621D02*
X0284518Y0082851D01*
X0283338Y0082851D02*
X0286878Y0082851D01*
X0286878Y0084621D01*
X0286288Y0085211D01*
X0285108Y0085211D01*
X0284518Y0084621D01*
X0286288Y0086476D02*
X0286878Y0087066D01*
X0286878Y0088246D01*
X0286288Y0088836D01*
X0285698Y0088836D01*
X0285108Y0088246D01*
X0284518Y0088836D01*
X0283928Y0088836D01*
X0283338Y0088246D01*
X0285108Y0088246D02*
X0285108Y0087656D01*
X0292227Y0086909D02*
X0293407Y0086319D01*
X0294587Y0085139D01*
X0292817Y0085139D01*
X0292227Y0084549D01*
X0292227Y0083959D01*
X0292817Y0083369D01*
X0293997Y0083369D01*
X0294587Y0083959D01*
X0294587Y0085139D01*
X0295852Y0084549D02*
X0295852Y0083959D01*
X0296442Y0083369D01*
X0297622Y0083369D01*
X0298212Y0083959D01*
X0299477Y0083369D02*
X0300657Y0084549D01*
X0300067Y0084549D02*
X0301837Y0084549D01*
X0301837Y0083369D02*
X0301837Y0086909D01*
X0300067Y0086909D01*
X0299477Y0086319D01*
X0299477Y0085139D01*
X0300067Y0084549D01*
X0298212Y0086319D02*
X0297622Y0086909D01*
X0296442Y0086909D01*
X0295852Y0086319D01*
X0295852Y0085729D01*
X0296442Y0085139D01*
X0295852Y0084549D01*
X0296442Y0085139D02*
X0297032Y0085139D01*
X0278752Y0084165D02*
X0278752Y0082985D01*
X0278162Y0082395D01*
X0275802Y0082395D01*
X0275212Y0082985D01*
X0275212Y0084165D01*
X0275802Y0084755D01*
X0278162Y0084755D02*
X0278752Y0084165D01*
X0294832Y0054649D02*
X0294832Y0051109D01*
X0296012Y0051109D02*
X0293652Y0051109D01*
X0296012Y0053469D02*
X0294832Y0054649D01*
X0297277Y0054059D02*
X0297277Y0051699D01*
X0297867Y0051109D01*
X0299047Y0051109D01*
X0299637Y0051699D01*
X0299637Y0054059D01*
X0299047Y0054649D01*
X0297867Y0054649D01*
X0297277Y0054059D01*
X0298457Y0052289D02*
X0297277Y0051109D01*
X0183490Y0082787D02*
X0183490Y0086327D01*
X0181720Y0086327D01*
X0181130Y0085737D01*
X0181130Y0084557D01*
X0181720Y0083967D01*
X0183490Y0083967D01*
X0182310Y0083967D02*
X0181130Y0082787D01*
X0179865Y0083377D02*
X0179275Y0082787D01*
X0178095Y0082787D01*
X0177505Y0083377D01*
X0177505Y0083967D01*
X0178095Y0084557D01*
X0178685Y0084557D01*
X0178095Y0084557D02*
X0177505Y0085147D01*
X0177505Y0085737D01*
X0178095Y0086327D01*
X0179275Y0086327D01*
X0179865Y0085737D01*
X0176240Y0086327D02*
X0176240Y0084557D01*
X0175060Y0085147D01*
X0174470Y0085147D01*
X0173880Y0084557D01*
X0173880Y0083377D01*
X0174470Y0082787D01*
X0175650Y0082787D01*
X0176240Y0083377D01*
X0176240Y0086327D02*
X0173880Y0086327D01*
X0169161Y0085595D02*
X0169161Y0087955D01*
X0168571Y0087955D01*
X0166211Y0085595D01*
X0165621Y0085595D01*
X0165621Y0084329D02*
X0166801Y0083149D01*
X0166801Y0083739D02*
X0166801Y0081969D01*
X0165621Y0081969D02*
X0169161Y0081969D01*
X0169161Y0083739D01*
X0168571Y0084329D01*
X0167391Y0084329D01*
X0166801Y0083739D01*
X0160642Y0083472D02*
X0160642Y0082292D01*
X0160052Y0081702D01*
X0157692Y0081702D01*
X0157102Y0082292D01*
X0157102Y0083472D01*
X0157692Y0084062D01*
X0157692Y0085327D02*
X0157102Y0085917D01*
X0157102Y0087097D01*
X0157692Y0087687D01*
X0158872Y0087687D01*
X0159462Y0087097D01*
X0159462Y0086507D01*
X0158872Y0085327D01*
X0160642Y0085327D01*
X0160642Y0087687D01*
X0160052Y0084062D02*
X0160642Y0083472D01*
X0125010Y0083417D02*
X0125010Y0086957D01*
X0123240Y0086957D01*
X0122650Y0086367D01*
X0122650Y0085187D01*
X0123240Y0084597D01*
X0125010Y0084597D01*
X0123830Y0084597D02*
X0122650Y0083417D01*
X0121385Y0084007D02*
X0120795Y0083417D01*
X0119615Y0083417D01*
X0119025Y0084007D01*
X0119025Y0084597D01*
X0119615Y0085187D01*
X0120205Y0085187D01*
X0119615Y0085187D02*
X0119025Y0085777D01*
X0119025Y0086367D01*
X0119615Y0086957D01*
X0120795Y0086957D01*
X0121385Y0086367D01*
X0117760Y0085187D02*
X0115400Y0085187D01*
X0115990Y0083417D02*
X0115990Y0086957D01*
X0117760Y0085187D01*
X0111106Y0083862D02*
X0111106Y0082092D01*
X0107566Y0082092D01*
X0108746Y0082092D02*
X0108746Y0083862D01*
X0109336Y0084452D01*
X0110516Y0084452D01*
X0111106Y0083862D01*
X0109926Y0085717D02*
X0111106Y0086897D01*
X0107566Y0086897D01*
X0107566Y0085717D02*
X0107566Y0088077D01*
X0108156Y0089343D02*
X0107566Y0089933D01*
X0107566Y0091113D01*
X0108156Y0091703D01*
X0109336Y0091703D01*
X0109926Y0091113D01*
X0109926Y0090523D01*
X0109336Y0089343D01*
X0111106Y0089343D01*
X0111106Y0091703D01*
X0102555Y0087286D02*
X0101965Y0087876D01*
X0101375Y0087876D01*
X0100785Y0087286D01*
X0100785Y0086106D01*
X0101375Y0085516D01*
X0101965Y0085516D01*
X0102555Y0086106D01*
X0102555Y0087286D01*
X0100785Y0087286D02*
X0100195Y0087876D01*
X0099605Y0087876D01*
X0099015Y0087286D01*
X0099015Y0086106D01*
X0099605Y0085516D01*
X0100195Y0085516D01*
X0100785Y0086106D01*
X0101965Y0084251D02*
X0102555Y0083661D01*
X0102555Y0082481D01*
X0101965Y0081891D01*
X0099605Y0081891D01*
X0099015Y0082481D01*
X0099015Y0083661D01*
X0099605Y0084251D01*
X0107566Y0084452D02*
X0108746Y0083272D01*
X0065168Y0084086D02*
X0065168Y0087626D01*
X0063398Y0087626D01*
X0062808Y0087036D01*
X0062808Y0085856D01*
X0063398Y0085266D01*
X0065168Y0085266D01*
X0063988Y0085266D02*
X0062808Y0084086D01*
X0061542Y0084676D02*
X0060952Y0084086D01*
X0059772Y0084086D01*
X0059182Y0084676D01*
X0059182Y0085266D01*
X0059772Y0085856D01*
X0060362Y0085856D01*
X0059772Y0085856D02*
X0059182Y0086446D01*
X0059182Y0087036D01*
X0059772Y0087626D01*
X0060952Y0087626D01*
X0061542Y0087036D01*
X0057917Y0087626D02*
X0055557Y0087626D01*
X0055557Y0087036D01*
X0057917Y0084676D01*
X0057917Y0084086D01*
X0051083Y0083713D02*
X0051083Y0081943D01*
X0047543Y0081943D01*
X0048723Y0081943D02*
X0048723Y0083713D01*
X0049313Y0084303D01*
X0050493Y0084303D01*
X0051083Y0083713D01*
X0049903Y0085568D02*
X0051083Y0086748D01*
X0047543Y0086748D01*
X0047543Y0085568D02*
X0047543Y0087928D01*
X0047543Y0089193D02*
X0047543Y0091553D01*
X0047543Y0090373D02*
X0051083Y0090373D01*
X0049903Y0089193D01*
X0047543Y0084303D02*
X0048723Y0083123D01*
X0042894Y0083417D02*
X0042894Y0082237D01*
X0042304Y0081647D01*
X0039944Y0081647D01*
X0039354Y0082237D01*
X0039354Y0083417D01*
X0039944Y0084007D01*
X0041124Y0085272D02*
X0041124Y0087632D01*
X0039354Y0087042D02*
X0042894Y0087042D01*
X0041124Y0085272D01*
X0042304Y0084007D02*
X0042894Y0083417D01*
M02*
