%
M48
M72
T01C0.01575
T02C0.02362
T03C0.03200
T04C0.04000
T05C0.12598
%
T01
X30528Y78118
X90370Y78118
X150213Y78118
X209268Y77331
X267535Y78118
T02
X311630Y83630
X311630Y67882
X266354Y35205
X267929Y17488
X310055Y33827
X217929Y33630
X192732Y34417
X148244Y33039
X99622Y35008
X74425Y35008
X208874Y145638
X217535Y145638
T03
X222614Y109693
X222614Y99693
X193559Y99693
X193559Y109693
X163559Y109693
X163559Y99693
X134504Y99693
X134504Y109693
X104504Y109693
X104504Y99693
X75449Y99693
X75449Y109693
X45449Y109693
X45449Y99693
X45449Y59693
X45449Y49693
X75449Y49693
X75449Y59693
X104504Y59693
X104504Y49693
X134504Y49693
X134504Y59693
X163559Y59693
X163559Y49693
X193559Y49693
X193559Y59693
X222614Y59693
X222614Y49693
X252614Y49693
X252614Y59693
X281669Y59693
X281669Y49693
X311669Y49693
X311669Y59693
X311669Y99693
X311669Y109693
X281669Y109693
X281669Y99693
X252614Y99693
X252614Y109693
T04
X251984Y134929
X241984Y134929
X241984Y144929
X251984Y144929
X261984Y144929
X271984Y144929
X281984Y144929
X291984Y144929
X301984Y144929
X311984Y144929
X311984Y134929
X301984Y134929
X291984Y134929
X281984Y134929
X271984Y134929
X261984Y134929
X328677Y118630
X338677Y118630
X338677Y108630
X328677Y108630
X328677Y98630
X338677Y98630
X338677Y88630
X328677Y88630
X328677Y78630
X338677Y78630
X338677Y68630
X328677Y68630
X328677Y58630
X338677Y58630
X338677Y48630
X328677Y48630
X237614Y33000
X237614Y23000
X237614Y13000
X122260Y13000
X122260Y23000
X122260Y33000
X123874Y134929
X133874Y134929
X143874Y134929
X153874Y134929
X163874Y134929
X173874Y134929
X183874Y134929
X193874Y134929
X193874Y144929
X183874Y144929
X173874Y144929
X163874Y144929
X153874Y144929
X143874Y144929
X133874Y144929
X123874Y144929
T05
X17142Y20638
X17142Y174181
X95882Y174181
X339976Y174181
X339976Y20638
M30
