%
M48
M72
T01C0.01969
T02C0.04000
T03C0.12598
%
T01
X63008Y17142
X99819Y59268
X117535Y35449
X134465Y28559
X157890Y49622
X157102Y67535
X167929Y67535
X184858Y67929
X162811Y92142
X152969Y91748
X139976Y98244
X130528Y98244
X118913Y93717
X144701Y114976
X131315Y124622
X131315Y134465
X144701Y155331
X159661Y155134
X157102Y133087
X169504Y130921
X168323Y102969
X102378Y138795
X92142Y151197
X82693Y151197
X88598Y118717
X59661Y99228
X59661Y88795
X54937Y77969
X54740Y69307
X34661Y95291
X46079Y120882
X42929Y155528
X43126Y164583
X121866Y183677
X129346Y176984
X138402Y176787
T02
X41470Y36854
X47206Y28663
X35734Y45046
X29998Y53237
X24262Y61429
X18527Y69621
X26465Y121630
X36465Y121630
X36465Y131630
X36465Y141630
X26465Y141630
X26465Y131630
T03
X13205Y99819
X95882Y13205
X186433Y99819
X99819Y186433
M30
