G75*
%MOIN*%
%OFA0B0*%
%FSLAX25Y25*%
%IPPOS*%
%LPD*%
%AMOC8*
5,1,8,0,0,1.08239X$1,22.5*
%
%ADD10C,0.01600*%
%ADD11C,0.00000*%
%ADD12R,0.05118X0.05906*%
%ADD13R,0.05906X0.05118*%
%ADD14R,0.07087X0.05512*%
%ADD15R,0.02600X0.08000*%
%ADD16R,0.02362X0.08661*%
%ADD17R,0.06299X0.07098*%
%ADD18C,0.06000*%
%ADD19C,0.06000*%
%ADD20OC8,0.06000*%
%ADD21R,0.04724X0.04724*%
%ADD22OC8,0.03543*%
%ADD23C,0.00984*%
%ADD24OC8,0.03169*%
D10*
X0002582Y0099819D02*
X0002611Y0102205D01*
X0002699Y0104590D01*
X0002845Y0106972D01*
X0003050Y0109350D01*
X0003313Y0111722D01*
X0003634Y0114087D01*
X0004014Y0116443D01*
X0004450Y0118789D01*
X0004945Y0121124D01*
X0005496Y0123446D01*
X0006104Y0125753D01*
X0006769Y0128045D01*
X0007490Y0130320D01*
X0008266Y0132577D01*
X0009098Y0134814D01*
X0009984Y0137030D01*
X0010924Y0139223D01*
X0011918Y0141393D01*
X0012965Y0143538D01*
X0014064Y0145656D01*
X0015214Y0147747D01*
X0016416Y0149809D01*
X0017668Y0151841D01*
X0018969Y0153841D01*
X0020320Y0155809D01*
X0021718Y0157743D01*
X0023163Y0159642D01*
X0024654Y0161505D01*
X0026190Y0163332D01*
X0027771Y0165119D01*
X0029395Y0166868D01*
X0031062Y0168576D01*
X0032770Y0170243D01*
X0034519Y0171867D01*
X0036306Y0173448D01*
X0038133Y0174984D01*
X0039996Y0176475D01*
X0041895Y0177920D01*
X0043829Y0179318D01*
X0045797Y0180669D01*
X0047797Y0181970D01*
X0049829Y0183222D01*
X0051891Y0184424D01*
X0053982Y0185574D01*
X0056100Y0186673D01*
X0058245Y0187720D01*
X0060415Y0188714D01*
X0062608Y0189654D01*
X0064824Y0190540D01*
X0067061Y0191372D01*
X0069318Y0192148D01*
X0071593Y0192869D01*
X0073885Y0193534D01*
X0076192Y0194142D01*
X0078514Y0194693D01*
X0080849Y0195188D01*
X0083195Y0195624D01*
X0085551Y0196004D01*
X0087916Y0196325D01*
X0090288Y0196588D01*
X0092666Y0196793D01*
X0095048Y0196939D01*
X0097433Y0197027D01*
X0099819Y0197056D01*
X0102205Y0197027D01*
X0104590Y0196939D01*
X0106972Y0196793D01*
X0109350Y0196588D01*
X0111722Y0196325D01*
X0114087Y0196004D01*
X0116443Y0195624D01*
X0118789Y0195188D01*
X0121124Y0194693D01*
X0123446Y0194142D01*
X0125753Y0193534D01*
X0128045Y0192869D01*
X0130320Y0192148D01*
X0132577Y0191372D01*
X0134814Y0190540D01*
X0137030Y0189654D01*
X0139223Y0188714D01*
X0141393Y0187720D01*
X0143538Y0186673D01*
X0145656Y0185574D01*
X0147747Y0184424D01*
X0149809Y0183222D01*
X0151841Y0181970D01*
X0153841Y0180669D01*
X0155809Y0179318D01*
X0157743Y0177920D01*
X0159642Y0176475D01*
X0161505Y0174984D01*
X0163332Y0173448D01*
X0165119Y0171867D01*
X0166868Y0170243D01*
X0168576Y0168576D01*
X0170243Y0166868D01*
X0171867Y0165119D01*
X0173448Y0163332D01*
X0174984Y0161505D01*
X0176475Y0159642D01*
X0177920Y0157743D01*
X0179318Y0155809D01*
X0180669Y0153841D01*
X0181970Y0151841D01*
X0183222Y0149809D01*
X0184424Y0147747D01*
X0185574Y0145656D01*
X0186673Y0143538D01*
X0187720Y0141393D01*
X0188714Y0139223D01*
X0189654Y0137030D01*
X0190540Y0134814D01*
X0191372Y0132577D01*
X0192148Y0130320D01*
X0192869Y0128045D01*
X0193534Y0125753D01*
X0194142Y0123446D01*
X0194693Y0121124D01*
X0195188Y0118789D01*
X0195624Y0116443D01*
X0196004Y0114087D01*
X0196325Y0111722D01*
X0196588Y0109350D01*
X0196793Y0106972D01*
X0196939Y0104590D01*
X0197027Y0102205D01*
X0197056Y0099819D01*
X0197027Y0097433D01*
X0196939Y0095048D01*
X0196793Y0092666D01*
X0196588Y0090288D01*
X0196325Y0087916D01*
X0196004Y0085551D01*
X0195624Y0083195D01*
X0195188Y0080849D01*
X0194693Y0078514D01*
X0194142Y0076192D01*
X0193534Y0073885D01*
X0192869Y0071593D01*
X0192148Y0069318D01*
X0191372Y0067061D01*
X0190540Y0064824D01*
X0189654Y0062608D01*
X0188714Y0060415D01*
X0187720Y0058245D01*
X0186673Y0056100D01*
X0185574Y0053982D01*
X0184424Y0051891D01*
X0183222Y0049829D01*
X0181970Y0047797D01*
X0180669Y0045797D01*
X0179318Y0043829D01*
X0177920Y0041895D01*
X0176475Y0039996D01*
X0174984Y0038133D01*
X0173448Y0036306D01*
X0171867Y0034519D01*
X0170243Y0032770D01*
X0168576Y0031062D01*
X0166868Y0029395D01*
X0165119Y0027771D01*
X0163332Y0026190D01*
X0161505Y0024654D01*
X0159642Y0023163D01*
X0157743Y0021718D01*
X0155809Y0020320D01*
X0153841Y0018969D01*
X0151841Y0017668D01*
X0149809Y0016416D01*
X0147747Y0015214D01*
X0145656Y0014064D01*
X0143538Y0012965D01*
X0141393Y0011918D01*
X0139223Y0010924D01*
X0137030Y0009984D01*
X0134814Y0009098D01*
X0132577Y0008266D01*
X0130320Y0007490D01*
X0128045Y0006769D01*
X0125753Y0006104D01*
X0123446Y0005496D01*
X0121124Y0004945D01*
X0118789Y0004450D01*
X0116443Y0004014D01*
X0114087Y0003634D01*
X0111722Y0003313D01*
X0109350Y0003050D01*
X0106972Y0002845D01*
X0104590Y0002699D01*
X0102205Y0002611D01*
X0099819Y0002582D01*
X0097433Y0002611D01*
X0095048Y0002699D01*
X0092666Y0002845D01*
X0090288Y0003050D01*
X0087916Y0003313D01*
X0085551Y0003634D01*
X0083195Y0004014D01*
X0080849Y0004450D01*
X0078514Y0004945D01*
X0076192Y0005496D01*
X0073885Y0006104D01*
X0071593Y0006769D01*
X0069318Y0007490D01*
X0067061Y0008266D01*
X0064824Y0009098D01*
X0062608Y0009984D01*
X0060415Y0010924D01*
X0058245Y0011918D01*
X0056100Y0012965D01*
X0053982Y0014064D01*
X0051891Y0015214D01*
X0049829Y0016416D01*
X0047797Y0017668D01*
X0045797Y0018969D01*
X0043829Y0020320D01*
X0041895Y0021718D01*
X0039996Y0023163D01*
X0038133Y0024654D01*
X0036306Y0026190D01*
X0034519Y0027771D01*
X0032770Y0029395D01*
X0031062Y0031062D01*
X0029395Y0032770D01*
X0027771Y0034519D01*
X0026190Y0036306D01*
X0024654Y0038133D01*
X0023163Y0039996D01*
X0021718Y0041895D01*
X0020320Y0043829D01*
X0018969Y0045797D01*
X0017668Y0047797D01*
X0016416Y0049829D01*
X0015214Y0051891D01*
X0014064Y0053982D01*
X0012965Y0056100D01*
X0011918Y0058245D01*
X0010924Y0060415D01*
X0009984Y0062608D01*
X0009098Y0064824D01*
X0008266Y0067061D01*
X0007490Y0069318D01*
X0006769Y0071593D01*
X0006104Y0073885D01*
X0005496Y0076192D01*
X0004945Y0078514D01*
X0004450Y0080849D01*
X0004014Y0083195D01*
X0003634Y0085551D01*
X0003313Y0087916D01*
X0003050Y0090288D01*
X0002845Y0092666D01*
X0002699Y0095048D01*
X0002611Y0097433D01*
X0002582Y0099819D01*
D11*
X0006906Y0099819D02*
X0006908Y0099977D01*
X0006914Y0100135D01*
X0006924Y0100293D01*
X0006938Y0100451D01*
X0006956Y0100608D01*
X0006977Y0100765D01*
X0007003Y0100921D01*
X0007033Y0101077D01*
X0007066Y0101232D01*
X0007104Y0101385D01*
X0007145Y0101538D01*
X0007190Y0101690D01*
X0007239Y0101841D01*
X0007292Y0101990D01*
X0007348Y0102138D01*
X0007408Y0102284D01*
X0007472Y0102429D01*
X0007540Y0102572D01*
X0007611Y0102714D01*
X0007685Y0102854D01*
X0007763Y0102991D01*
X0007845Y0103127D01*
X0007929Y0103261D01*
X0008018Y0103392D01*
X0008109Y0103521D01*
X0008204Y0103648D01*
X0008301Y0103773D01*
X0008402Y0103895D01*
X0008506Y0104014D01*
X0008613Y0104131D01*
X0008723Y0104245D01*
X0008836Y0104356D01*
X0008951Y0104465D01*
X0009069Y0104570D01*
X0009190Y0104672D01*
X0009313Y0104772D01*
X0009439Y0104868D01*
X0009567Y0104961D01*
X0009697Y0105051D01*
X0009830Y0105137D01*
X0009965Y0105221D01*
X0010101Y0105300D01*
X0010240Y0105377D01*
X0010381Y0105449D01*
X0010523Y0105519D01*
X0010667Y0105584D01*
X0010813Y0105646D01*
X0010960Y0105704D01*
X0011109Y0105759D01*
X0011259Y0105810D01*
X0011410Y0105857D01*
X0011562Y0105900D01*
X0011715Y0105939D01*
X0011870Y0105975D01*
X0012025Y0106006D01*
X0012181Y0106034D01*
X0012337Y0106058D01*
X0012494Y0106078D01*
X0012652Y0106094D01*
X0012809Y0106106D01*
X0012968Y0106114D01*
X0013126Y0106118D01*
X0013284Y0106118D01*
X0013442Y0106114D01*
X0013601Y0106106D01*
X0013758Y0106094D01*
X0013916Y0106078D01*
X0014073Y0106058D01*
X0014229Y0106034D01*
X0014385Y0106006D01*
X0014540Y0105975D01*
X0014695Y0105939D01*
X0014848Y0105900D01*
X0015000Y0105857D01*
X0015151Y0105810D01*
X0015301Y0105759D01*
X0015450Y0105704D01*
X0015597Y0105646D01*
X0015743Y0105584D01*
X0015887Y0105519D01*
X0016029Y0105449D01*
X0016170Y0105377D01*
X0016309Y0105300D01*
X0016445Y0105221D01*
X0016580Y0105137D01*
X0016713Y0105051D01*
X0016843Y0104961D01*
X0016971Y0104868D01*
X0017097Y0104772D01*
X0017220Y0104672D01*
X0017341Y0104570D01*
X0017459Y0104465D01*
X0017574Y0104356D01*
X0017687Y0104245D01*
X0017797Y0104131D01*
X0017904Y0104014D01*
X0018008Y0103895D01*
X0018109Y0103773D01*
X0018206Y0103648D01*
X0018301Y0103521D01*
X0018392Y0103392D01*
X0018481Y0103261D01*
X0018565Y0103127D01*
X0018647Y0102991D01*
X0018725Y0102854D01*
X0018799Y0102714D01*
X0018870Y0102572D01*
X0018938Y0102429D01*
X0019002Y0102284D01*
X0019062Y0102138D01*
X0019118Y0101990D01*
X0019171Y0101841D01*
X0019220Y0101690D01*
X0019265Y0101538D01*
X0019306Y0101385D01*
X0019344Y0101232D01*
X0019377Y0101077D01*
X0019407Y0100921D01*
X0019433Y0100765D01*
X0019454Y0100608D01*
X0019472Y0100451D01*
X0019486Y0100293D01*
X0019496Y0100135D01*
X0019502Y0099977D01*
X0019504Y0099819D01*
X0019502Y0099661D01*
X0019496Y0099503D01*
X0019486Y0099345D01*
X0019472Y0099187D01*
X0019454Y0099030D01*
X0019433Y0098873D01*
X0019407Y0098717D01*
X0019377Y0098561D01*
X0019344Y0098406D01*
X0019306Y0098253D01*
X0019265Y0098100D01*
X0019220Y0097948D01*
X0019171Y0097797D01*
X0019118Y0097648D01*
X0019062Y0097500D01*
X0019002Y0097354D01*
X0018938Y0097209D01*
X0018870Y0097066D01*
X0018799Y0096924D01*
X0018725Y0096784D01*
X0018647Y0096647D01*
X0018565Y0096511D01*
X0018481Y0096377D01*
X0018392Y0096246D01*
X0018301Y0096117D01*
X0018206Y0095990D01*
X0018109Y0095865D01*
X0018008Y0095743D01*
X0017904Y0095624D01*
X0017797Y0095507D01*
X0017687Y0095393D01*
X0017574Y0095282D01*
X0017459Y0095173D01*
X0017341Y0095068D01*
X0017220Y0094966D01*
X0017097Y0094866D01*
X0016971Y0094770D01*
X0016843Y0094677D01*
X0016713Y0094587D01*
X0016580Y0094501D01*
X0016445Y0094417D01*
X0016309Y0094338D01*
X0016170Y0094261D01*
X0016029Y0094189D01*
X0015887Y0094119D01*
X0015743Y0094054D01*
X0015597Y0093992D01*
X0015450Y0093934D01*
X0015301Y0093879D01*
X0015151Y0093828D01*
X0015000Y0093781D01*
X0014848Y0093738D01*
X0014695Y0093699D01*
X0014540Y0093663D01*
X0014385Y0093632D01*
X0014229Y0093604D01*
X0014073Y0093580D01*
X0013916Y0093560D01*
X0013758Y0093544D01*
X0013601Y0093532D01*
X0013442Y0093524D01*
X0013284Y0093520D01*
X0013126Y0093520D01*
X0012968Y0093524D01*
X0012809Y0093532D01*
X0012652Y0093544D01*
X0012494Y0093560D01*
X0012337Y0093580D01*
X0012181Y0093604D01*
X0012025Y0093632D01*
X0011870Y0093663D01*
X0011715Y0093699D01*
X0011562Y0093738D01*
X0011410Y0093781D01*
X0011259Y0093828D01*
X0011109Y0093879D01*
X0010960Y0093934D01*
X0010813Y0093992D01*
X0010667Y0094054D01*
X0010523Y0094119D01*
X0010381Y0094189D01*
X0010240Y0094261D01*
X0010101Y0094338D01*
X0009965Y0094417D01*
X0009830Y0094501D01*
X0009697Y0094587D01*
X0009567Y0094677D01*
X0009439Y0094770D01*
X0009313Y0094866D01*
X0009190Y0094966D01*
X0009069Y0095068D01*
X0008951Y0095173D01*
X0008836Y0095282D01*
X0008723Y0095393D01*
X0008613Y0095507D01*
X0008506Y0095624D01*
X0008402Y0095743D01*
X0008301Y0095865D01*
X0008204Y0095990D01*
X0008109Y0096117D01*
X0008018Y0096246D01*
X0007929Y0096377D01*
X0007845Y0096511D01*
X0007763Y0096647D01*
X0007685Y0096784D01*
X0007611Y0096924D01*
X0007540Y0097066D01*
X0007472Y0097209D01*
X0007408Y0097354D01*
X0007348Y0097500D01*
X0007292Y0097648D01*
X0007239Y0097797D01*
X0007190Y0097948D01*
X0007145Y0098100D01*
X0007104Y0098253D01*
X0007066Y0098406D01*
X0007033Y0098561D01*
X0007003Y0098717D01*
X0006977Y0098873D01*
X0006956Y0099030D01*
X0006938Y0099187D01*
X0006924Y0099345D01*
X0006914Y0099503D01*
X0006908Y0099661D01*
X0006906Y0099819D01*
X0089583Y0013205D02*
X0089585Y0013363D01*
X0089591Y0013521D01*
X0089601Y0013679D01*
X0089615Y0013837D01*
X0089633Y0013994D01*
X0089654Y0014151D01*
X0089680Y0014307D01*
X0089710Y0014463D01*
X0089743Y0014618D01*
X0089781Y0014771D01*
X0089822Y0014924D01*
X0089867Y0015076D01*
X0089916Y0015227D01*
X0089969Y0015376D01*
X0090025Y0015524D01*
X0090085Y0015670D01*
X0090149Y0015815D01*
X0090217Y0015958D01*
X0090288Y0016100D01*
X0090362Y0016240D01*
X0090440Y0016377D01*
X0090522Y0016513D01*
X0090606Y0016647D01*
X0090695Y0016778D01*
X0090786Y0016907D01*
X0090881Y0017034D01*
X0090978Y0017159D01*
X0091079Y0017281D01*
X0091183Y0017400D01*
X0091290Y0017517D01*
X0091400Y0017631D01*
X0091513Y0017742D01*
X0091628Y0017851D01*
X0091746Y0017956D01*
X0091867Y0018058D01*
X0091990Y0018158D01*
X0092116Y0018254D01*
X0092244Y0018347D01*
X0092374Y0018437D01*
X0092507Y0018523D01*
X0092642Y0018607D01*
X0092778Y0018686D01*
X0092917Y0018763D01*
X0093058Y0018835D01*
X0093200Y0018905D01*
X0093344Y0018970D01*
X0093490Y0019032D01*
X0093637Y0019090D01*
X0093786Y0019145D01*
X0093936Y0019196D01*
X0094087Y0019243D01*
X0094239Y0019286D01*
X0094392Y0019325D01*
X0094547Y0019361D01*
X0094702Y0019392D01*
X0094858Y0019420D01*
X0095014Y0019444D01*
X0095171Y0019464D01*
X0095329Y0019480D01*
X0095486Y0019492D01*
X0095645Y0019500D01*
X0095803Y0019504D01*
X0095961Y0019504D01*
X0096119Y0019500D01*
X0096278Y0019492D01*
X0096435Y0019480D01*
X0096593Y0019464D01*
X0096750Y0019444D01*
X0096906Y0019420D01*
X0097062Y0019392D01*
X0097217Y0019361D01*
X0097372Y0019325D01*
X0097525Y0019286D01*
X0097677Y0019243D01*
X0097828Y0019196D01*
X0097978Y0019145D01*
X0098127Y0019090D01*
X0098274Y0019032D01*
X0098420Y0018970D01*
X0098564Y0018905D01*
X0098706Y0018835D01*
X0098847Y0018763D01*
X0098986Y0018686D01*
X0099122Y0018607D01*
X0099257Y0018523D01*
X0099390Y0018437D01*
X0099520Y0018347D01*
X0099648Y0018254D01*
X0099774Y0018158D01*
X0099897Y0018058D01*
X0100018Y0017956D01*
X0100136Y0017851D01*
X0100251Y0017742D01*
X0100364Y0017631D01*
X0100474Y0017517D01*
X0100581Y0017400D01*
X0100685Y0017281D01*
X0100786Y0017159D01*
X0100883Y0017034D01*
X0100978Y0016907D01*
X0101069Y0016778D01*
X0101158Y0016647D01*
X0101242Y0016513D01*
X0101324Y0016377D01*
X0101402Y0016240D01*
X0101476Y0016100D01*
X0101547Y0015958D01*
X0101615Y0015815D01*
X0101679Y0015670D01*
X0101739Y0015524D01*
X0101795Y0015376D01*
X0101848Y0015227D01*
X0101897Y0015076D01*
X0101942Y0014924D01*
X0101983Y0014771D01*
X0102021Y0014618D01*
X0102054Y0014463D01*
X0102084Y0014307D01*
X0102110Y0014151D01*
X0102131Y0013994D01*
X0102149Y0013837D01*
X0102163Y0013679D01*
X0102173Y0013521D01*
X0102179Y0013363D01*
X0102181Y0013205D01*
X0102179Y0013047D01*
X0102173Y0012889D01*
X0102163Y0012731D01*
X0102149Y0012573D01*
X0102131Y0012416D01*
X0102110Y0012259D01*
X0102084Y0012103D01*
X0102054Y0011947D01*
X0102021Y0011792D01*
X0101983Y0011639D01*
X0101942Y0011486D01*
X0101897Y0011334D01*
X0101848Y0011183D01*
X0101795Y0011034D01*
X0101739Y0010886D01*
X0101679Y0010740D01*
X0101615Y0010595D01*
X0101547Y0010452D01*
X0101476Y0010310D01*
X0101402Y0010170D01*
X0101324Y0010033D01*
X0101242Y0009897D01*
X0101158Y0009763D01*
X0101069Y0009632D01*
X0100978Y0009503D01*
X0100883Y0009376D01*
X0100786Y0009251D01*
X0100685Y0009129D01*
X0100581Y0009010D01*
X0100474Y0008893D01*
X0100364Y0008779D01*
X0100251Y0008668D01*
X0100136Y0008559D01*
X0100018Y0008454D01*
X0099897Y0008352D01*
X0099774Y0008252D01*
X0099648Y0008156D01*
X0099520Y0008063D01*
X0099390Y0007973D01*
X0099257Y0007887D01*
X0099122Y0007803D01*
X0098986Y0007724D01*
X0098847Y0007647D01*
X0098706Y0007575D01*
X0098564Y0007505D01*
X0098420Y0007440D01*
X0098274Y0007378D01*
X0098127Y0007320D01*
X0097978Y0007265D01*
X0097828Y0007214D01*
X0097677Y0007167D01*
X0097525Y0007124D01*
X0097372Y0007085D01*
X0097217Y0007049D01*
X0097062Y0007018D01*
X0096906Y0006990D01*
X0096750Y0006966D01*
X0096593Y0006946D01*
X0096435Y0006930D01*
X0096278Y0006918D01*
X0096119Y0006910D01*
X0095961Y0006906D01*
X0095803Y0006906D01*
X0095645Y0006910D01*
X0095486Y0006918D01*
X0095329Y0006930D01*
X0095171Y0006946D01*
X0095014Y0006966D01*
X0094858Y0006990D01*
X0094702Y0007018D01*
X0094547Y0007049D01*
X0094392Y0007085D01*
X0094239Y0007124D01*
X0094087Y0007167D01*
X0093936Y0007214D01*
X0093786Y0007265D01*
X0093637Y0007320D01*
X0093490Y0007378D01*
X0093344Y0007440D01*
X0093200Y0007505D01*
X0093058Y0007575D01*
X0092917Y0007647D01*
X0092778Y0007724D01*
X0092642Y0007803D01*
X0092507Y0007887D01*
X0092374Y0007973D01*
X0092244Y0008063D01*
X0092116Y0008156D01*
X0091990Y0008252D01*
X0091867Y0008352D01*
X0091746Y0008454D01*
X0091628Y0008559D01*
X0091513Y0008668D01*
X0091400Y0008779D01*
X0091290Y0008893D01*
X0091183Y0009010D01*
X0091079Y0009129D01*
X0090978Y0009251D01*
X0090881Y0009376D01*
X0090786Y0009503D01*
X0090695Y0009632D01*
X0090606Y0009763D01*
X0090522Y0009897D01*
X0090440Y0010033D01*
X0090362Y0010170D01*
X0090288Y0010310D01*
X0090217Y0010452D01*
X0090149Y0010595D01*
X0090085Y0010740D01*
X0090025Y0010886D01*
X0089969Y0011034D01*
X0089916Y0011183D01*
X0089867Y0011334D01*
X0089822Y0011486D01*
X0089781Y0011639D01*
X0089743Y0011792D01*
X0089710Y0011947D01*
X0089680Y0012103D01*
X0089654Y0012259D01*
X0089633Y0012416D01*
X0089615Y0012573D01*
X0089601Y0012731D01*
X0089591Y0012889D01*
X0089585Y0013047D01*
X0089583Y0013205D01*
X0180134Y0099819D02*
X0180136Y0099977D01*
X0180142Y0100135D01*
X0180152Y0100293D01*
X0180166Y0100451D01*
X0180184Y0100608D01*
X0180205Y0100765D01*
X0180231Y0100921D01*
X0180261Y0101077D01*
X0180294Y0101232D01*
X0180332Y0101385D01*
X0180373Y0101538D01*
X0180418Y0101690D01*
X0180467Y0101841D01*
X0180520Y0101990D01*
X0180576Y0102138D01*
X0180636Y0102284D01*
X0180700Y0102429D01*
X0180768Y0102572D01*
X0180839Y0102714D01*
X0180913Y0102854D01*
X0180991Y0102991D01*
X0181073Y0103127D01*
X0181157Y0103261D01*
X0181246Y0103392D01*
X0181337Y0103521D01*
X0181432Y0103648D01*
X0181529Y0103773D01*
X0181630Y0103895D01*
X0181734Y0104014D01*
X0181841Y0104131D01*
X0181951Y0104245D01*
X0182064Y0104356D01*
X0182179Y0104465D01*
X0182297Y0104570D01*
X0182418Y0104672D01*
X0182541Y0104772D01*
X0182667Y0104868D01*
X0182795Y0104961D01*
X0182925Y0105051D01*
X0183058Y0105137D01*
X0183193Y0105221D01*
X0183329Y0105300D01*
X0183468Y0105377D01*
X0183609Y0105449D01*
X0183751Y0105519D01*
X0183895Y0105584D01*
X0184041Y0105646D01*
X0184188Y0105704D01*
X0184337Y0105759D01*
X0184487Y0105810D01*
X0184638Y0105857D01*
X0184790Y0105900D01*
X0184943Y0105939D01*
X0185098Y0105975D01*
X0185253Y0106006D01*
X0185409Y0106034D01*
X0185565Y0106058D01*
X0185722Y0106078D01*
X0185880Y0106094D01*
X0186037Y0106106D01*
X0186196Y0106114D01*
X0186354Y0106118D01*
X0186512Y0106118D01*
X0186670Y0106114D01*
X0186829Y0106106D01*
X0186986Y0106094D01*
X0187144Y0106078D01*
X0187301Y0106058D01*
X0187457Y0106034D01*
X0187613Y0106006D01*
X0187768Y0105975D01*
X0187923Y0105939D01*
X0188076Y0105900D01*
X0188228Y0105857D01*
X0188379Y0105810D01*
X0188529Y0105759D01*
X0188678Y0105704D01*
X0188825Y0105646D01*
X0188971Y0105584D01*
X0189115Y0105519D01*
X0189257Y0105449D01*
X0189398Y0105377D01*
X0189537Y0105300D01*
X0189673Y0105221D01*
X0189808Y0105137D01*
X0189941Y0105051D01*
X0190071Y0104961D01*
X0190199Y0104868D01*
X0190325Y0104772D01*
X0190448Y0104672D01*
X0190569Y0104570D01*
X0190687Y0104465D01*
X0190802Y0104356D01*
X0190915Y0104245D01*
X0191025Y0104131D01*
X0191132Y0104014D01*
X0191236Y0103895D01*
X0191337Y0103773D01*
X0191434Y0103648D01*
X0191529Y0103521D01*
X0191620Y0103392D01*
X0191709Y0103261D01*
X0191793Y0103127D01*
X0191875Y0102991D01*
X0191953Y0102854D01*
X0192027Y0102714D01*
X0192098Y0102572D01*
X0192166Y0102429D01*
X0192230Y0102284D01*
X0192290Y0102138D01*
X0192346Y0101990D01*
X0192399Y0101841D01*
X0192448Y0101690D01*
X0192493Y0101538D01*
X0192534Y0101385D01*
X0192572Y0101232D01*
X0192605Y0101077D01*
X0192635Y0100921D01*
X0192661Y0100765D01*
X0192682Y0100608D01*
X0192700Y0100451D01*
X0192714Y0100293D01*
X0192724Y0100135D01*
X0192730Y0099977D01*
X0192732Y0099819D01*
X0192730Y0099661D01*
X0192724Y0099503D01*
X0192714Y0099345D01*
X0192700Y0099187D01*
X0192682Y0099030D01*
X0192661Y0098873D01*
X0192635Y0098717D01*
X0192605Y0098561D01*
X0192572Y0098406D01*
X0192534Y0098253D01*
X0192493Y0098100D01*
X0192448Y0097948D01*
X0192399Y0097797D01*
X0192346Y0097648D01*
X0192290Y0097500D01*
X0192230Y0097354D01*
X0192166Y0097209D01*
X0192098Y0097066D01*
X0192027Y0096924D01*
X0191953Y0096784D01*
X0191875Y0096647D01*
X0191793Y0096511D01*
X0191709Y0096377D01*
X0191620Y0096246D01*
X0191529Y0096117D01*
X0191434Y0095990D01*
X0191337Y0095865D01*
X0191236Y0095743D01*
X0191132Y0095624D01*
X0191025Y0095507D01*
X0190915Y0095393D01*
X0190802Y0095282D01*
X0190687Y0095173D01*
X0190569Y0095068D01*
X0190448Y0094966D01*
X0190325Y0094866D01*
X0190199Y0094770D01*
X0190071Y0094677D01*
X0189941Y0094587D01*
X0189808Y0094501D01*
X0189673Y0094417D01*
X0189537Y0094338D01*
X0189398Y0094261D01*
X0189257Y0094189D01*
X0189115Y0094119D01*
X0188971Y0094054D01*
X0188825Y0093992D01*
X0188678Y0093934D01*
X0188529Y0093879D01*
X0188379Y0093828D01*
X0188228Y0093781D01*
X0188076Y0093738D01*
X0187923Y0093699D01*
X0187768Y0093663D01*
X0187613Y0093632D01*
X0187457Y0093604D01*
X0187301Y0093580D01*
X0187144Y0093560D01*
X0186986Y0093544D01*
X0186829Y0093532D01*
X0186670Y0093524D01*
X0186512Y0093520D01*
X0186354Y0093520D01*
X0186196Y0093524D01*
X0186037Y0093532D01*
X0185880Y0093544D01*
X0185722Y0093560D01*
X0185565Y0093580D01*
X0185409Y0093604D01*
X0185253Y0093632D01*
X0185098Y0093663D01*
X0184943Y0093699D01*
X0184790Y0093738D01*
X0184638Y0093781D01*
X0184487Y0093828D01*
X0184337Y0093879D01*
X0184188Y0093934D01*
X0184041Y0093992D01*
X0183895Y0094054D01*
X0183751Y0094119D01*
X0183609Y0094189D01*
X0183468Y0094261D01*
X0183329Y0094338D01*
X0183193Y0094417D01*
X0183058Y0094501D01*
X0182925Y0094587D01*
X0182795Y0094677D01*
X0182667Y0094770D01*
X0182541Y0094866D01*
X0182418Y0094966D01*
X0182297Y0095068D01*
X0182179Y0095173D01*
X0182064Y0095282D01*
X0181951Y0095393D01*
X0181841Y0095507D01*
X0181734Y0095624D01*
X0181630Y0095743D01*
X0181529Y0095865D01*
X0181432Y0095990D01*
X0181337Y0096117D01*
X0181246Y0096246D01*
X0181157Y0096377D01*
X0181073Y0096511D01*
X0180991Y0096647D01*
X0180913Y0096784D01*
X0180839Y0096924D01*
X0180768Y0097066D01*
X0180700Y0097209D01*
X0180636Y0097354D01*
X0180576Y0097500D01*
X0180520Y0097648D01*
X0180467Y0097797D01*
X0180418Y0097948D01*
X0180373Y0098100D01*
X0180332Y0098253D01*
X0180294Y0098406D01*
X0180261Y0098561D01*
X0180231Y0098717D01*
X0180205Y0098873D01*
X0180184Y0099030D01*
X0180166Y0099187D01*
X0180152Y0099345D01*
X0180142Y0099503D01*
X0180136Y0099661D01*
X0180134Y0099819D01*
X0093520Y0186433D02*
X0093522Y0186591D01*
X0093528Y0186749D01*
X0093538Y0186907D01*
X0093552Y0187065D01*
X0093570Y0187222D01*
X0093591Y0187379D01*
X0093617Y0187535D01*
X0093647Y0187691D01*
X0093680Y0187846D01*
X0093718Y0187999D01*
X0093759Y0188152D01*
X0093804Y0188304D01*
X0093853Y0188455D01*
X0093906Y0188604D01*
X0093962Y0188752D01*
X0094022Y0188898D01*
X0094086Y0189043D01*
X0094154Y0189186D01*
X0094225Y0189328D01*
X0094299Y0189468D01*
X0094377Y0189605D01*
X0094459Y0189741D01*
X0094543Y0189875D01*
X0094632Y0190006D01*
X0094723Y0190135D01*
X0094818Y0190262D01*
X0094915Y0190387D01*
X0095016Y0190509D01*
X0095120Y0190628D01*
X0095227Y0190745D01*
X0095337Y0190859D01*
X0095450Y0190970D01*
X0095565Y0191079D01*
X0095683Y0191184D01*
X0095804Y0191286D01*
X0095927Y0191386D01*
X0096053Y0191482D01*
X0096181Y0191575D01*
X0096311Y0191665D01*
X0096444Y0191751D01*
X0096579Y0191835D01*
X0096715Y0191914D01*
X0096854Y0191991D01*
X0096995Y0192063D01*
X0097137Y0192133D01*
X0097281Y0192198D01*
X0097427Y0192260D01*
X0097574Y0192318D01*
X0097723Y0192373D01*
X0097873Y0192424D01*
X0098024Y0192471D01*
X0098176Y0192514D01*
X0098329Y0192553D01*
X0098484Y0192589D01*
X0098639Y0192620D01*
X0098795Y0192648D01*
X0098951Y0192672D01*
X0099108Y0192692D01*
X0099266Y0192708D01*
X0099423Y0192720D01*
X0099582Y0192728D01*
X0099740Y0192732D01*
X0099898Y0192732D01*
X0100056Y0192728D01*
X0100215Y0192720D01*
X0100372Y0192708D01*
X0100530Y0192692D01*
X0100687Y0192672D01*
X0100843Y0192648D01*
X0100999Y0192620D01*
X0101154Y0192589D01*
X0101309Y0192553D01*
X0101462Y0192514D01*
X0101614Y0192471D01*
X0101765Y0192424D01*
X0101915Y0192373D01*
X0102064Y0192318D01*
X0102211Y0192260D01*
X0102357Y0192198D01*
X0102501Y0192133D01*
X0102643Y0192063D01*
X0102784Y0191991D01*
X0102923Y0191914D01*
X0103059Y0191835D01*
X0103194Y0191751D01*
X0103327Y0191665D01*
X0103457Y0191575D01*
X0103585Y0191482D01*
X0103711Y0191386D01*
X0103834Y0191286D01*
X0103955Y0191184D01*
X0104073Y0191079D01*
X0104188Y0190970D01*
X0104301Y0190859D01*
X0104411Y0190745D01*
X0104518Y0190628D01*
X0104622Y0190509D01*
X0104723Y0190387D01*
X0104820Y0190262D01*
X0104915Y0190135D01*
X0105006Y0190006D01*
X0105095Y0189875D01*
X0105179Y0189741D01*
X0105261Y0189605D01*
X0105339Y0189468D01*
X0105413Y0189328D01*
X0105484Y0189186D01*
X0105552Y0189043D01*
X0105616Y0188898D01*
X0105676Y0188752D01*
X0105732Y0188604D01*
X0105785Y0188455D01*
X0105834Y0188304D01*
X0105879Y0188152D01*
X0105920Y0187999D01*
X0105958Y0187846D01*
X0105991Y0187691D01*
X0106021Y0187535D01*
X0106047Y0187379D01*
X0106068Y0187222D01*
X0106086Y0187065D01*
X0106100Y0186907D01*
X0106110Y0186749D01*
X0106116Y0186591D01*
X0106118Y0186433D01*
X0106116Y0186275D01*
X0106110Y0186117D01*
X0106100Y0185959D01*
X0106086Y0185801D01*
X0106068Y0185644D01*
X0106047Y0185487D01*
X0106021Y0185331D01*
X0105991Y0185175D01*
X0105958Y0185020D01*
X0105920Y0184867D01*
X0105879Y0184714D01*
X0105834Y0184562D01*
X0105785Y0184411D01*
X0105732Y0184262D01*
X0105676Y0184114D01*
X0105616Y0183968D01*
X0105552Y0183823D01*
X0105484Y0183680D01*
X0105413Y0183538D01*
X0105339Y0183398D01*
X0105261Y0183261D01*
X0105179Y0183125D01*
X0105095Y0182991D01*
X0105006Y0182860D01*
X0104915Y0182731D01*
X0104820Y0182604D01*
X0104723Y0182479D01*
X0104622Y0182357D01*
X0104518Y0182238D01*
X0104411Y0182121D01*
X0104301Y0182007D01*
X0104188Y0181896D01*
X0104073Y0181787D01*
X0103955Y0181682D01*
X0103834Y0181580D01*
X0103711Y0181480D01*
X0103585Y0181384D01*
X0103457Y0181291D01*
X0103327Y0181201D01*
X0103194Y0181115D01*
X0103059Y0181031D01*
X0102923Y0180952D01*
X0102784Y0180875D01*
X0102643Y0180803D01*
X0102501Y0180733D01*
X0102357Y0180668D01*
X0102211Y0180606D01*
X0102064Y0180548D01*
X0101915Y0180493D01*
X0101765Y0180442D01*
X0101614Y0180395D01*
X0101462Y0180352D01*
X0101309Y0180313D01*
X0101154Y0180277D01*
X0100999Y0180246D01*
X0100843Y0180218D01*
X0100687Y0180194D01*
X0100530Y0180174D01*
X0100372Y0180158D01*
X0100215Y0180146D01*
X0100056Y0180138D01*
X0099898Y0180134D01*
X0099740Y0180134D01*
X0099582Y0180138D01*
X0099423Y0180146D01*
X0099266Y0180158D01*
X0099108Y0180174D01*
X0098951Y0180194D01*
X0098795Y0180218D01*
X0098639Y0180246D01*
X0098484Y0180277D01*
X0098329Y0180313D01*
X0098176Y0180352D01*
X0098024Y0180395D01*
X0097873Y0180442D01*
X0097723Y0180493D01*
X0097574Y0180548D01*
X0097427Y0180606D01*
X0097281Y0180668D01*
X0097137Y0180733D01*
X0096995Y0180803D01*
X0096854Y0180875D01*
X0096715Y0180952D01*
X0096579Y0181031D01*
X0096444Y0181115D01*
X0096311Y0181201D01*
X0096181Y0181291D01*
X0096053Y0181384D01*
X0095927Y0181480D01*
X0095804Y0181580D01*
X0095683Y0181682D01*
X0095565Y0181787D01*
X0095450Y0181896D01*
X0095337Y0182007D01*
X0095227Y0182121D01*
X0095120Y0182238D01*
X0095016Y0182357D01*
X0094915Y0182479D01*
X0094818Y0182604D01*
X0094723Y0182731D01*
X0094632Y0182860D01*
X0094543Y0182991D01*
X0094459Y0183125D01*
X0094377Y0183261D01*
X0094299Y0183398D01*
X0094225Y0183538D01*
X0094154Y0183680D01*
X0094086Y0183823D01*
X0094022Y0183968D01*
X0093962Y0184114D01*
X0093906Y0184262D01*
X0093853Y0184411D01*
X0093804Y0184562D01*
X0093759Y0184714D01*
X0093718Y0184867D01*
X0093680Y0185020D01*
X0093647Y0185175D01*
X0093617Y0185331D01*
X0093591Y0185487D01*
X0093570Y0185644D01*
X0093552Y0185801D01*
X0093538Y0185959D01*
X0093528Y0186117D01*
X0093522Y0186275D01*
X0093520Y0186433D01*
D12*
X0057654Y0164457D03*
X0050173Y0164457D03*
X0050173Y0155402D03*
X0057654Y0155402D03*
X0073638Y0128362D03*
X0081118Y0128362D03*
X0095685Y0123638D03*
X0103165Y0123638D03*
X0104323Y0093850D03*
X0111803Y0093850D03*
X0069189Y0077898D03*
X0061709Y0077898D03*
X0061709Y0069276D03*
X0069189Y0069276D03*
X0043780Y0072937D03*
X0036299Y0072937D03*
X0041709Y0095323D03*
X0049189Y0095323D03*
X0052969Y0120882D03*
X0060449Y0120882D03*
X0133756Y0044575D03*
X0141236Y0044575D03*
X0151197Y0039850D03*
X0158677Y0039850D03*
X0149425Y0030598D03*
X0141945Y0030598D03*
X0131984Y0035520D03*
X0124504Y0035520D03*
X0072189Y0024307D03*
X0064709Y0024307D03*
D13*
X0058150Y0047134D03*
X0058150Y0054614D03*
X0069835Y0052008D03*
X0069835Y0059488D03*
X0101000Y0075488D03*
X0101000Y0082969D03*
X0094575Y0094008D03*
X0094575Y0101488D03*
X0112024Y0111236D03*
X0112024Y0118717D03*
X0122976Y0121354D03*
X0122976Y0128835D03*
X0129417Y0145370D03*
X0129417Y0152850D03*
X0129417Y0162260D03*
X0129417Y0169740D03*
X0138472Y0169661D03*
X0138472Y0162181D03*
X0113598Y0162417D03*
X0113598Y0169898D03*
X0057102Y0144504D03*
X0057102Y0137024D03*
X0117220Y0079913D03*
X0117220Y0072433D03*
X0117339Y0062134D03*
X0117339Y0054654D03*
X0102567Y0051331D03*
X0102567Y0043850D03*
X0139661Y0058772D03*
X0139661Y0066252D03*
X0139850Y0083165D03*
X0139850Y0090646D03*
X0130598Y0090606D03*
X0130598Y0083126D03*
D14*
X0092567Y0046803D03*
X0082386Y0046803D03*
X0082386Y0033417D03*
X0092567Y0033417D03*
X0083394Y0091449D03*
X0073213Y0091449D03*
X0073213Y0104835D03*
X0083394Y0104835D03*
D15*
X0081984Y0139144D03*
X0086984Y0139144D03*
X0091984Y0139144D03*
X0096984Y0139144D03*
X0076984Y0139144D03*
X0071984Y0139144D03*
X0066984Y0139144D03*
X0066984Y0163344D03*
X0071984Y0163344D03*
X0076984Y0163344D03*
X0081984Y0163344D03*
X0086984Y0163344D03*
X0091984Y0163344D03*
X0096984Y0163344D03*
X0139661Y0147045D03*
X0144661Y0147045D03*
X0149661Y0147045D03*
X0154661Y0147045D03*
X0159661Y0147045D03*
X0164661Y0147045D03*
X0169661Y0147045D03*
X0169661Y0122845D03*
X0164661Y0122845D03*
X0159661Y0122845D03*
X0154661Y0122845D03*
X0149661Y0122845D03*
X0144661Y0122845D03*
X0139661Y0122845D03*
X0147929Y0082872D03*
X0152929Y0082872D03*
X0157929Y0082872D03*
X0162929Y0082872D03*
X0167929Y0082872D03*
X0172929Y0082872D03*
X0177929Y0082872D03*
X0177929Y0058672D03*
X0172929Y0058672D03*
X0167929Y0058672D03*
X0162929Y0058672D03*
X0157929Y0058672D03*
X0152929Y0058672D03*
X0147929Y0058672D03*
D16*
X0092831Y0060480D03*
X0087831Y0060480D03*
X0082831Y0060480D03*
X0077831Y0060480D03*
X0077831Y0080953D03*
X0082831Y0080953D03*
X0087831Y0080953D03*
X0092831Y0080953D03*
D17*
X0051252Y0085039D03*
X0040055Y0085039D03*
X0058819Y0037362D03*
X0070016Y0037362D03*
D18*
X0043927Y0038575D02*
X0039012Y0035134D01*
X0033277Y0043325D02*
X0038191Y0046767D01*
X0032456Y0054958D02*
X0027541Y0051517D01*
X0021805Y0059708D02*
X0026720Y0063150D01*
X0020984Y0071341D02*
X0016069Y0067900D01*
X0044748Y0026942D02*
X0049663Y0030384D01*
D19*
X0036465Y0121630D03*
D20*
X0036465Y0131630D03*
X0036465Y0141630D03*
X0026465Y0141630D03*
X0026465Y0131630D03*
X0026465Y0121630D03*
D21*
X0046276Y0128756D03*
X0054543Y0128756D03*
X0094701Y0114976D03*
X0102969Y0114976D03*
X0112024Y0127181D03*
X0112024Y0135449D03*
X0113598Y0177969D03*
X0121866Y0177969D03*
D22*
X0121866Y0183677D03*
X0129346Y0176984D03*
X0138402Y0176787D03*
X0144701Y0155331D03*
X0159661Y0155134D03*
X0157102Y0133087D03*
X0169504Y0130921D03*
X0144701Y0114976D03*
X0131315Y0124622D03*
X0131315Y0134465D03*
X0102378Y0138795D03*
X0092142Y0151197D03*
X0082693Y0151197D03*
X0088598Y0118717D03*
X0118913Y0093717D03*
X0130528Y0098244D03*
X0139976Y0098244D03*
X0152969Y0091748D03*
X0162811Y0092142D03*
X0168323Y0102969D03*
X0184858Y0067929D03*
X0167929Y0067535D03*
X0157102Y0067535D03*
X0157890Y0049622D03*
X0134465Y0028559D03*
X0117535Y0035449D03*
X0099819Y0059268D03*
X0063008Y0017142D03*
X0054740Y0069307D03*
X0054937Y0077969D03*
X0034661Y0095291D03*
X0046079Y0120882D03*
X0042929Y0155528D03*
X0043126Y0164583D03*
D23*
X0043252Y0164457D01*
X0050173Y0164457D01*
X0057654Y0164457D02*
X0057654Y0166906D01*
X0063205Y0172457D01*
X0096866Y0172457D01*
X0107063Y0162260D01*
X0113402Y0162260D01*
X0113559Y0162417D01*
X0113598Y0162417D01*
X0113402Y0162260D02*
X0129417Y0162260D01*
X0129417Y0152850D01*
X0129299Y0145488D02*
X0129417Y0145370D01*
X0129417Y0142071D01*
X0134268Y0137220D01*
X0164780Y0137220D01*
X0164661Y0137102D01*
X0164661Y0122845D01*
X0169661Y0122845D02*
X0169661Y0130764D01*
X0169504Y0130921D01*
X0167339Y0137220D02*
X0164780Y0137220D01*
X0167339Y0137220D02*
X0169701Y0139583D01*
X0169701Y0141669D01*
X0169661Y0141709D01*
X0169661Y0147045D01*
X0164780Y0146927D02*
X0164661Y0147045D01*
X0164780Y0146927D02*
X0164780Y0141157D01*
X0163205Y0139583D01*
X0151787Y0139583D01*
X0149661Y0141709D01*
X0149661Y0147045D01*
X0149819Y0147202D01*
X0149819Y0155921D01*
X0155724Y0161827D01*
X0167732Y0161827D01*
X0176984Y0152575D01*
X0176984Y0116551D01*
X0173441Y0113008D01*
X0173441Y0100213D01*
X0183283Y0090370D01*
X0183283Y0073835D01*
X0172929Y0063480D01*
X0172929Y0058672D01*
X0167929Y0058672D02*
X0167929Y0042732D01*
X0165173Y0039976D01*
X0160661Y0039976D01*
X0158677Y0039850D01*
X0160449Y0039850D01*
X0149425Y0030598D01*
X0141945Y0030598D02*
X0139906Y0028559D01*
X0134465Y0028559D01*
X0131984Y0035520D02*
X0133882Y0037417D01*
X0138008Y0037417D01*
X0141236Y0040646D01*
X0141236Y0044575D01*
X0143000Y0044575D01*
X0152929Y0054504D01*
X0152929Y0058672D01*
X0147929Y0058672D02*
X0147929Y0063480D01*
X0151984Y0067535D01*
X0157102Y0067535D01*
X0163205Y0072260D02*
X0138402Y0072260D01*
X0133677Y0076984D01*
X0125803Y0076984D01*
X0122874Y0079913D01*
X0117220Y0079913D01*
X0117197Y0079937D01*
X0112811Y0079937D01*
X0108362Y0075488D01*
X0101000Y0075488D01*
X0099346Y0073835D01*
X0084661Y0073835D01*
X0082831Y0075665D01*
X0082831Y0080953D01*
X0087831Y0080953D02*
X0087831Y0087012D01*
X0083394Y0091449D01*
X0073213Y0091449D01*
X0066850Y0091449D01*
X0065567Y0092732D01*
X0056709Y0092732D01*
X0051252Y0087276D01*
X0051252Y0085039D01*
X0051433Y0084858D01*
X0045685Y0089189D02*
X0049031Y0092535D01*
X0049031Y0095165D01*
X0049189Y0095323D01*
X0049220Y0095291D01*
X0065370Y0095291D01*
X0066945Y0096866D01*
X0066945Y0102181D01*
X0069598Y0104835D01*
X0073213Y0104835D01*
X0083394Y0104835D01*
X0093087Y0104835D01*
X0094575Y0101488D01*
X0096685Y0101488D01*
X0104323Y0093850D01*
X0111803Y0093850D02*
X0118780Y0093850D01*
X0118913Y0093717D01*
X0124228Y0085843D02*
X0124228Y0107496D01*
X0124226Y0107620D01*
X0124220Y0107743D01*
X0124211Y0107867D01*
X0124197Y0107989D01*
X0124180Y0108112D01*
X0124158Y0108234D01*
X0124133Y0108355D01*
X0124104Y0108475D01*
X0124072Y0108594D01*
X0124035Y0108713D01*
X0123995Y0108830D01*
X0123952Y0108945D01*
X0123904Y0109060D01*
X0123853Y0109172D01*
X0123799Y0109283D01*
X0123741Y0109393D01*
X0123680Y0109500D01*
X0123615Y0109606D01*
X0123547Y0109709D01*
X0123476Y0109810D01*
X0123402Y0109909D01*
X0123325Y0110006D01*
X0123244Y0110100D01*
X0123161Y0110191D01*
X0123075Y0110280D01*
X0122986Y0110366D01*
X0122895Y0110449D01*
X0122801Y0110530D01*
X0122704Y0110607D01*
X0122605Y0110681D01*
X0122504Y0110752D01*
X0122401Y0110820D01*
X0122295Y0110885D01*
X0122188Y0110946D01*
X0122078Y0111004D01*
X0121967Y0111058D01*
X0121855Y0111109D01*
X0121740Y0111157D01*
X0121625Y0111200D01*
X0121508Y0111240D01*
X0121389Y0111277D01*
X0121270Y0111309D01*
X0121150Y0111338D01*
X0121029Y0111363D01*
X0120907Y0111385D01*
X0120784Y0111402D01*
X0120662Y0111416D01*
X0120538Y0111425D01*
X0120415Y0111431D01*
X0120291Y0111433D01*
X0120094Y0111433D01*
X0112220Y0111433D01*
X0112024Y0111236D01*
X0111630Y0110843D01*
X0108677Y0110843D01*
X0106512Y0108677D01*
X0090961Y0108677D01*
X0088205Y0111433D01*
X0059268Y0111433D01*
X0059268Y0099622D01*
X0059661Y0099228D01*
X0059661Y0088795D02*
X0069189Y0079268D01*
X0069189Y0077898D01*
X0069110Y0077976D01*
X0069189Y0077898D02*
X0069189Y0069276D01*
X0069189Y0060134D01*
X0069835Y0059488D01*
X0069835Y0052008D02*
X0064953Y0052008D01*
X0062614Y0054346D01*
X0058417Y0054346D01*
X0058150Y0054614D01*
X0058079Y0054543D01*
X0052575Y0054543D01*
X0043077Y0045046D01*
X0037811Y0045046D01*
X0031584Y0051273D01*
X0031584Y0053237D01*
X0044110Y0065764D01*
X0044110Y0072606D01*
X0043780Y0072937D01*
X0045685Y0074843D01*
X0045685Y0089189D01*
X0040055Y0085039D02*
X0040055Y0082181D01*
X0036236Y0078362D01*
X0036236Y0073000D01*
X0036299Y0072937D01*
X0036039Y0072677D01*
X0036039Y0069110D01*
X0028358Y0061429D01*
X0024262Y0061429D01*
X0029998Y0053237D02*
X0031584Y0053237D01*
X0035734Y0045046D02*
X0037811Y0045046D01*
X0041470Y0036854D02*
X0058311Y0036854D01*
X0058819Y0037362D01*
X0058819Y0046465D01*
X0058150Y0047134D01*
X0064323Y0042339D02*
X0069835Y0047850D01*
X0069835Y0052008D01*
X0076984Y0046669D02*
X0082252Y0046669D01*
X0082386Y0046803D01*
X0082831Y0047248D01*
X0082831Y0060480D01*
X0087831Y0060480D02*
X0087831Y0054327D01*
X0089583Y0052575D01*
X0101323Y0052575D01*
X0102567Y0051331D01*
X0109795Y0051331D01*
X0113205Y0054740D01*
X0117252Y0054740D01*
X0117339Y0054654D01*
X0117339Y0062134D02*
X0109945Y0062134D01*
X0104543Y0067535D01*
X0078953Y0067535D01*
X0077831Y0066413D01*
X0077831Y0060480D01*
X0080921Y0070685D02*
X0117110Y0070685D01*
X0117220Y0072433D01*
X0127598Y0072433D01*
X0133780Y0066252D01*
X0139661Y0066252D01*
X0139661Y0058772D02*
X0130803Y0058772D01*
X0127441Y0062134D01*
X0117339Y0062134D01*
X0099819Y0059268D02*
X0098606Y0060480D01*
X0092831Y0060480D01*
X0080921Y0070685D02*
X0077831Y0073776D01*
X0077831Y0080953D01*
X0072244Y0080953D01*
X0069189Y0077898D01*
X0061709Y0077898D02*
X0055008Y0077898D01*
X0054937Y0077969D01*
X0054740Y0069307D02*
X0054772Y0069276D01*
X0061709Y0069276D01*
X0077799Y0080921D02*
X0077831Y0080953D01*
X0072906Y0091142D02*
X0073213Y0091449D01*
X0074457Y0103984D02*
X0075409Y0104937D01*
X0073315Y0104937D01*
X0073213Y0104835D01*
X0066551Y0114583D02*
X0066551Y0127969D01*
X0066945Y0128362D01*
X0073638Y0128362D01*
X0066551Y0127969D02*
X0066551Y0138711D01*
X0066984Y0139144D01*
X0066945Y0139105D01*
X0062417Y0138598D02*
X0060843Y0137024D01*
X0057102Y0137024D01*
X0062417Y0138598D02*
X0062417Y0145402D01*
X0064472Y0147457D01*
X0071866Y0147457D01*
X0071984Y0147339D01*
X0071984Y0139144D01*
X0071984Y0147575D01*
X0075606Y0151197D01*
X0082693Y0151197D01*
X0078205Y0154189D02*
X0067575Y0154189D01*
X0057890Y0144504D01*
X0057102Y0144504D01*
X0052772Y0144504D01*
X0042535Y0134268D01*
X0042535Y0128559D01*
X0042732Y0128756D01*
X0046276Y0128756D01*
X0042535Y0128559D02*
X0042535Y0118913D01*
X0040370Y0116748D01*
X0027772Y0116748D01*
X0026465Y0118055D01*
X0026465Y0121630D01*
X0020488Y0118717D02*
X0024622Y0114583D01*
X0066551Y0114583D01*
X0084071Y0114583D01*
X0084071Y0120685D01*
X0087417Y0124031D01*
X0087417Y0127772D01*
X0091984Y0132339D01*
X0104976Y0132339D01*
X0108087Y0135449D01*
X0112024Y0135449D01*
X0112024Y0127181D02*
X0112024Y0118717D01*
X0120094Y0111433D02*
X0120199Y0111435D01*
X0120304Y0111441D01*
X0120409Y0111450D01*
X0120514Y0111464D01*
X0120617Y0111481D01*
X0120721Y0111502D01*
X0120823Y0111527D01*
X0120924Y0111555D01*
X0121025Y0111587D01*
X0121124Y0111623D01*
X0121221Y0111663D01*
X0121317Y0111705D01*
X0121412Y0111752D01*
X0121505Y0111802D01*
X0121595Y0111855D01*
X0121684Y0111911D01*
X0121771Y0111971D01*
X0121855Y0112034D01*
X0121938Y0112100D01*
X0122017Y0112169D01*
X0122094Y0112240D01*
X0122169Y0112315D01*
X0122240Y0112392D01*
X0122309Y0112471D01*
X0122375Y0112554D01*
X0122438Y0112638D01*
X0122498Y0112725D01*
X0122554Y0112814D01*
X0122607Y0112904D01*
X0122657Y0112997D01*
X0122704Y0113092D01*
X0122746Y0113188D01*
X0122786Y0113285D01*
X0122822Y0113384D01*
X0122854Y0113485D01*
X0122882Y0113586D01*
X0122907Y0113688D01*
X0122928Y0113792D01*
X0122945Y0113895D01*
X0122959Y0114000D01*
X0122968Y0114105D01*
X0122974Y0114210D01*
X0122976Y0114315D01*
X0122976Y0121354D01*
X0122976Y0128835D02*
X0122654Y0129157D01*
X0122654Y0140961D01*
X0121276Y0142339D01*
X0105921Y0142339D01*
X0101787Y0146472D01*
X0087181Y0146472D01*
X0086984Y0146276D01*
X0086984Y0139144D01*
X0086984Y0134228D01*
X0081118Y0128362D01*
X0081984Y0139144D02*
X0076984Y0139144D01*
X0086984Y0146276D02*
X0086984Y0163344D01*
X0081984Y0163344D02*
X0081984Y0157969D01*
X0078205Y0154189D01*
X0076984Y0163344D02*
X0071984Y0163344D01*
X0076984Y0163344D02*
X0076984Y0167142D01*
X0076986Y0167250D01*
X0076992Y0167358D01*
X0077002Y0167465D01*
X0077015Y0167572D01*
X0077033Y0167678D01*
X0077055Y0167784D01*
X0077080Y0167889D01*
X0077109Y0167993D01*
X0077142Y0168095D01*
X0077179Y0168197D01*
X0077219Y0168297D01*
X0077263Y0168395D01*
X0077311Y0168492D01*
X0077362Y0168587D01*
X0077416Y0168680D01*
X0077474Y0168771D01*
X0077535Y0168860D01*
X0077600Y0168947D01*
X0077667Y0169031D01*
X0077738Y0169113D01*
X0077811Y0169192D01*
X0077887Y0169268D01*
X0077966Y0169341D01*
X0078048Y0169412D01*
X0078132Y0169479D01*
X0078219Y0169544D01*
X0078308Y0169605D01*
X0078399Y0169663D01*
X0078492Y0169717D01*
X0078587Y0169768D01*
X0078684Y0169816D01*
X0078782Y0169860D01*
X0078882Y0169900D01*
X0078984Y0169937D01*
X0079086Y0169970D01*
X0079190Y0169999D01*
X0079295Y0170024D01*
X0079401Y0170046D01*
X0079507Y0170064D01*
X0079614Y0170077D01*
X0079721Y0170087D01*
X0079829Y0170093D01*
X0079937Y0170095D01*
X0079937Y0170094D02*
X0093717Y0170094D01*
X0093831Y0170092D01*
X0093945Y0170086D01*
X0094059Y0170076D01*
X0094173Y0170063D01*
X0094286Y0170045D01*
X0094398Y0170024D01*
X0094509Y0169999D01*
X0094620Y0169970D01*
X0094729Y0169937D01*
X0094838Y0169901D01*
X0094944Y0169861D01*
X0095050Y0169817D01*
X0095154Y0169770D01*
X0095256Y0169719D01*
X0095357Y0169665D01*
X0095456Y0169607D01*
X0095552Y0169546D01*
X0095647Y0169482D01*
X0095739Y0169414D01*
X0095829Y0169344D01*
X0095916Y0169270D01*
X0096001Y0169193D01*
X0096083Y0169114D01*
X0096162Y0169032D01*
X0096239Y0168947D01*
X0096313Y0168860D01*
X0096383Y0168770D01*
X0096451Y0168678D01*
X0096515Y0168583D01*
X0096576Y0168487D01*
X0096634Y0168388D01*
X0096688Y0168287D01*
X0096739Y0168185D01*
X0096786Y0168081D01*
X0096830Y0167975D01*
X0096870Y0167869D01*
X0096906Y0167760D01*
X0096939Y0167651D01*
X0096968Y0167540D01*
X0096993Y0167429D01*
X0097014Y0167317D01*
X0097032Y0167204D01*
X0097045Y0167090D01*
X0097055Y0166976D01*
X0097061Y0166862D01*
X0097063Y0166748D01*
X0097048Y0166746D01*
X0097033Y0166742D01*
X0097019Y0166735D01*
X0097007Y0166725D01*
X0096997Y0166713D01*
X0096990Y0166699D01*
X0096986Y0166684D01*
X0096984Y0166669D01*
X0096984Y0163344D01*
X0092142Y0163187D02*
X0091984Y0163344D01*
X0092142Y0163187D02*
X0092142Y0151197D01*
X0101197Y0151197D01*
X0106906Y0145488D01*
X0129299Y0145488D01*
X0139661Y0147045D02*
X0139661Y0160992D01*
X0138472Y0162181D01*
X0129496Y0162181D01*
X0129417Y0162260D01*
X0129417Y0169740D02*
X0129417Y0176913D01*
X0129346Y0176984D01*
X0121866Y0177969D02*
X0121866Y0183677D01*
X0113598Y0177969D02*
X0113598Y0169898D01*
X0138472Y0169661D02*
X0138472Y0176717D01*
X0138402Y0176787D01*
X0157693Y0159661D02*
X0166354Y0159661D01*
X0173835Y0152181D01*
X0173835Y0118717D01*
X0170685Y0115567D01*
X0151000Y0115567D01*
X0149819Y0116748D01*
X0149819Y0122687D01*
X0149661Y0122845D01*
X0149661Y0129110D01*
X0147850Y0130921D01*
X0125063Y0130921D01*
X0122976Y0128835D01*
X0131315Y0124622D02*
X0139583Y0124622D01*
X0139976Y0125016D01*
X0139976Y0123160D01*
X0139661Y0122845D01*
X0139661Y0112732D01*
X0141748Y0110646D01*
X0151000Y0110646D01*
X0158677Y0102969D01*
X0168323Y0102969D01*
X0171472Y0097850D02*
X0154740Y0097850D01*
X0152969Y0096079D01*
X0152969Y0091748D01*
X0152969Y0082911D01*
X0152929Y0082872D01*
X0147929Y0082872D02*
X0147929Y0076906D01*
X0149031Y0075803D01*
X0156512Y0075803D01*
X0158087Y0077378D01*
X0158087Y0082714D01*
X0157929Y0082872D01*
X0162811Y0082990D02*
X0162929Y0082872D01*
X0162811Y0082990D02*
X0162811Y0092142D01*
X0171472Y0097850D02*
X0177929Y0091394D01*
X0177929Y0082872D01*
X0172929Y0082872D02*
X0172929Y0071551D01*
X0170882Y0069504D01*
X0167929Y0067535D01*
X0163205Y0072260D02*
X0167929Y0076984D01*
X0167929Y0082872D01*
X0163205Y0072260D02*
X0163205Y0058947D01*
X0162929Y0058672D01*
X0162929Y0047969D01*
X0160449Y0045488D01*
X0151787Y0045488D01*
X0149228Y0042929D01*
X0149228Y0039961D01*
X0151197Y0039850D01*
X0157890Y0049622D02*
X0157929Y0049661D01*
X0157929Y0058672D01*
X0147929Y0058672D02*
X0147916Y0058685D01*
X0139661Y0058772D01*
X0139780Y0058654D01*
X0139780Y0053953D01*
X0133756Y0047929D01*
X0133756Y0044575D01*
X0124504Y0035520D02*
X0117606Y0035520D01*
X0117535Y0035449D01*
X0102567Y0043850D02*
X0092874Y0033724D01*
X0092567Y0033417D01*
X0082386Y0033417D01*
X0082386Y0027268D01*
X0079346Y0024228D01*
X0074039Y0024228D01*
X0072189Y0024307D01*
X0073835Y0024433D01*
X0073835Y0028559D01*
X0072260Y0030134D01*
X0065567Y0030134D01*
X0064323Y0031378D01*
X0064323Y0042339D01*
X0070016Y0039701D02*
X0070016Y0037362D01*
X0070016Y0039701D02*
X0076984Y0046669D01*
X0082386Y0046803D02*
X0092567Y0046803D01*
X0064709Y0024307D02*
X0064662Y0024258D01*
X0064612Y0024213D01*
X0064560Y0024170D01*
X0064505Y0024130D01*
X0064449Y0024093D01*
X0064390Y0024060D01*
X0064330Y0024030D01*
X0064268Y0024003D01*
X0064204Y0023980D01*
X0064140Y0023960D01*
X0064074Y0023944D01*
X0064007Y0023932D01*
X0063940Y0023924D01*
X0063873Y0023919D01*
X0063806Y0023918D01*
X0063738Y0023921D01*
X0063671Y0023928D01*
X0063604Y0023938D01*
X0063538Y0023952D01*
X0063473Y0023970D01*
X0063409Y0023991D01*
X0063346Y0024016D01*
X0063285Y0024045D01*
X0063225Y0024077D01*
X0063168Y0024112D01*
X0063112Y0024150D01*
X0063059Y0024192D01*
X0063008Y0024236D01*
X0063008Y0017142D01*
X0092831Y0080953D02*
X0098984Y0080953D01*
X0101000Y0082969D01*
X0092831Y0080953D02*
X0092831Y0092264D01*
X0094575Y0094008D01*
X0094307Y0114583D02*
X0084071Y0114583D01*
X0088598Y0118717D02*
X0088795Y0118520D01*
X0095685Y0123638D01*
X0103165Y0123638D02*
X0103165Y0115173D01*
X0102969Y0114976D01*
X0094701Y0114976D02*
X0094307Y0114583D01*
X0091984Y0132339D02*
X0091984Y0139144D01*
X0096984Y0139144D02*
X0097333Y0138795D01*
X0102378Y0138795D01*
X0131315Y0134465D02*
X0150606Y0134465D01*
X0154661Y0130409D01*
X0154661Y0122845D01*
X0159661Y0122845D02*
X0159661Y0130528D01*
X0157102Y0133087D01*
X0144661Y0122845D02*
X0144661Y0115213D01*
X0144701Y0114976D01*
X0139976Y0098244D02*
X0139976Y0090772D01*
X0139974Y0090752D01*
X0139970Y0090733D01*
X0139962Y0090715D01*
X0139952Y0090698D01*
X0139939Y0090683D01*
X0139924Y0090670D01*
X0139907Y0090660D01*
X0139889Y0090652D01*
X0139870Y0090648D01*
X0139850Y0090646D01*
X0139850Y0083165D02*
X0147635Y0083165D01*
X0147635Y0083166D02*
X0147668Y0083164D01*
X0147700Y0083159D01*
X0147732Y0083150D01*
X0147763Y0083137D01*
X0147791Y0083121D01*
X0147818Y0083102D01*
X0147843Y0083080D01*
X0147865Y0083055D01*
X0147884Y0083028D01*
X0147900Y0083000D01*
X0147913Y0082969D01*
X0147922Y0082937D01*
X0147927Y0082905D01*
X0147929Y0082872D01*
X0147929Y0085173D01*
X0147850Y0085252D01*
X0139850Y0083165D02*
X0139849Y0083155D01*
X0139845Y0083146D01*
X0139839Y0083137D01*
X0139831Y0083131D01*
X0139821Y0083127D01*
X0139811Y0083126D01*
X0130598Y0083126D01*
X0130597Y0083116D01*
X0130593Y0083107D01*
X0130587Y0083098D01*
X0130579Y0083092D01*
X0130569Y0083088D01*
X0130559Y0083087D01*
X0126984Y0083087D01*
X0126881Y0083089D01*
X0126778Y0083095D01*
X0126675Y0083104D01*
X0126573Y0083118D01*
X0126472Y0083135D01*
X0126371Y0083156D01*
X0126271Y0083181D01*
X0126172Y0083209D01*
X0126074Y0083242D01*
X0125977Y0083278D01*
X0125882Y0083317D01*
X0125788Y0083360D01*
X0125696Y0083406D01*
X0125606Y0083456D01*
X0125518Y0083509D01*
X0125431Y0083566D01*
X0125347Y0083626D01*
X0125266Y0083688D01*
X0125186Y0083754D01*
X0125109Y0083823D01*
X0125035Y0083894D01*
X0124964Y0083968D01*
X0124895Y0084045D01*
X0124829Y0084125D01*
X0124767Y0084206D01*
X0124707Y0084290D01*
X0124650Y0084377D01*
X0124597Y0084465D01*
X0124547Y0084555D01*
X0124501Y0084647D01*
X0124458Y0084741D01*
X0124419Y0084836D01*
X0124383Y0084933D01*
X0124350Y0085031D01*
X0124322Y0085130D01*
X0124297Y0085230D01*
X0124276Y0085331D01*
X0124259Y0085432D01*
X0124245Y0085534D01*
X0124236Y0085637D01*
X0124230Y0085740D01*
X0124228Y0085843D01*
X0130598Y0090606D02*
X0130598Y0098173D01*
X0130599Y0098173D02*
X0130597Y0098189D01*
X0130592Y0098204D01*
X0130584Y0098217D01*
X0130572Y0098229D01*
X0130559Y0098237D01*
X0130544Y0098242D01*
X0130528Y0098244D01*
X0144661Y0147045D02*
X0144661Y0155291D01*
X0144701Y0155331D01*
X0154661Y0156630D02*
X0154661Y0147045D01*
X0159661Y0147045D02*
X0159661Y0155134D01*
X0157693Y0159661D02*
X0154661Y0156630D01*
X0066984Y0163344D02*
X0065872Y0164457D01*
X0057654Y0164457D01*
X0057654Y0155402D01*
X0057654Y0153717D01*
X0054150Y0150213D01*
X0041354Y0150213D01*
X0038795Y0147654D01*
X0028559Y0147654D01*
X0026394Y0145488D01*
X0026394Y0141701D01*
X0026465Y0141630D01*
X0020961Y0141630D01*
X0017535Y0138205D01*
X0017535Y0115173D01*
X0021276Y0111433D01*
X0059268Y0111433D01*
X0060449Y0120882D02*
X0060449Y0126591D01*
X0058283Y0128756D01*
X0054543Y0128756D01*
X0052969Y0120882D02*
X0046079Y0120882D01*
X0026465Y0131630D02*
X0023559Y0131630D01*
X0020488Y0128559D01*
X0020488Y0118717D01*
X0034693Y0095323D02*
X0041709Y0095323D01*
X0034693Y0095323D02*
X0034661Y0095291D01*
X0049189Y0095323D02*
X0049417Y0095094D01*
X0050173Y0155402D02*
X0043055Y0155402D01*
X0042929Y0155528D01*
X0177929Y0061000D02*
X0177929Y0058672D01*
X0177929Y0061000D02*
X0184858Y0067929D01*
D24*
X0059661Y0088795D03*
X0059661Y0099228D03*
M02*
