G75*
%MOIN*%
%OFA0B0*%
%FSLAX25Y25*%
%IPPOS*%
%LPD*%
%AMOC8*
5,1,8,0,0,1.08239X$1,22.5*
%
%ADD10C,0.01600*%
%ADD11C,0.00000*%
%ADD12C,0.00300*%
%ADD13C,0.00800*%
%ADD14R,0.06200X0.02400*%
%ADD15C,0.00600*%
%ADD16C,0.00200*%
%ADD17C,0.00400*%
%ADD18C,0.00500*%
%ADD19R,0.00787X0.00787*%
D10*
X0002582Y0099819D02*
X0002611Y0102205D01*
X0002699Y0104590D01*
X0002845Y0106972D01*
X0003050Y0109350D01*
X0003313Y0111722D01*
X0003634Y0114087D01*
X0004014Y0116443D01*
X0004450Y0118789D01*
X0004945Y0121124D01*
X0005496Y0123446D01*
X0006104Y0125753D01*
X0006769Y0128045D01*
X0007490Y0130320D01*
X0008266Y0132577D01*
X0009098Y0134814D01*
X0009984Y0137030D01*
X0010924Y0139223D01*
X0011918Y0141393D01*
X0012965Y0143538D01*
X0014064Y0145656D01*
X0015214Y0147747D01*
X0016416Y0149809D01*
X0017668Y0151841D01*
X0018969Y0153841D01*
X0020320Y0155809D01*
X0021718Y0157743D01*
X0023163Y0159642D01*
X0024654Y0161505D01*
X0026190Y0163332D01*
X0027771Y0165119D01*
X0029395Y0166868D01*
X0031062Y0168576D01*
X0032770Y0170243D01*
X0034519Y0171867D01*
X0036306Y0173448D01*
X0038133Y0174984D01*
X0039996Y0176475D01*
X0041895Y0177920D01*
X0043829Y0179318D01*
X0045797Y0180669D01*
X0047797Y0181970D01*
X0049829Y0183222D01*
X0051891Y0184424D01*
X0053982Y0185574D01*
X0056100Y0186673D01*
X0058245Y0187720D01*
X0060415Y0188714D01*
X0062608Y0189654D01*
X0064824Y0190540D01*
X0067061Y0191372D01*
X0069318Y0192148D01*
X0071593Y0192869D01*
X0073885Y0193534D01*
X0076192Y0194142D01*
X0078514Y0194693D01*
X0080849Y0195188D01*
X0083195Y0195624D01*
X0085551Y0196004D01*
X0087916Y0196325D01*
X0090288Y0196588D01*
X0092666Y0196793D01*
X0095048Y0196939D01*
X0097433Y0197027D01*
X0099819Y0197056D01*
X0102205Y0197027D01*
X0104590Y0196939D01*
X0106972Y0196793D01*
X0109350Y0196588D01*
X0111722Y0196325D01*
X0114087Y0196004D01*
X0116443Y0195624D01*
X0118789Y0195188D01*
X0121124Y0194693D01*
X0123446Y0194142D01*
X0125753Y0193534D01*
X0128045Y0192869D01*
X0130320Y0192148D01*
X0132577Y0191372D01*
X0134814Y0190540D01*
X0137030Y0189654D01*
X0139223Y0188714D01*
X0141393Y0187720D01*
X0143538Y0186673D01*
X0145656Y0185574D01*
X0147747Y0184424D01*
X0149809Y0183222D01*
X0151841Y0181970D01*
X0153841Y0180669D01*
X0155809Y0179318D01*
X0157743Y0177920D01*
X0159642Y0176475D01*
X0161505Y0174984D01*
X0163332Y0173448D01*
X0165119Y0171867D01*
X0166868Y0170243D01*
X0168576Y0168576D01*
X0170243Y0166868D01*
X0171867Y0165119D01*
X0173448Y0163332D01*
X0174984Y0161505D01*
X0176475Y0159642D01*
X0177920Y0157743D01*
X0179318Y0155809D01*
X0180669Y0153841D01*
X0181970Y0151841D01*
X0183222Y0149809D01*
X0184424Y0147747D01*
X0185574Y0145656D01*
X0186673Y0143538D01*
X0187720Y0141393D01*
X0188714Y0139223D01*
X0189654Y0137030D01*
X0190540Y0134814D01*
X0191372Y0132577D01*
X0192148Y0130320D01*
X0192869Y0128045D01*
X0193534Y0125753D01*
X0194142Y0123446D01*
X0194693Y0121124D01*
X0195188Y0118789D01*
X0195624Y0116443D01*
X0196004Y0114087D01*
X0196325Y0111722D01*
X0196588Y0109350D01*
X0196793Y0106972D01*
X0196939Y0104590D01*
X0197027Y0102205D01*
X0197056Y0099819D01*
X0197027Y0097433D01*
X0196939Y0095048D01*
X0196793Y0092666D01*
X0196588Y0090288D01*
X0196325Y0087916D01*
X0196004Y0085551D01*
X0195624Y0083195D01*
X0195188Y0080849D01*
X0194693Y0078514D01*
X0194142Y0076192D01*
X0193534Y0073885D01*
X0192869Y0071593D01*
X0192148Y0069318D01*
X0191372Y0067061D01*
X0190540Y0064824D01*
X0189654Y0062608D01*
X0188714Y0060415D01*
X0187720Y0058245D01*
X0186673Y0056100D01*
X0185574Y0053982D01*
X0184424Y0051891D01*
X0183222Y0049829D01*
X0181970Y0047797D01*
X0180669Y0045797D01*
X0179318Y0043829D01*
X0177920Y0041895D01*
X0176475Y0039996D01*
X0174984Y0038133D01*
X0173448Y0036306D01*
X0171867Y0034519D01*
X0170243Y0032770D01*
X0168576Y0031062D01*
X0166868Y0029395D01*
X0165119Y0027771D01*
X0163332Y0026190D01*
X0161505Y0024654D01*
X0159642Y0023163D01*
X0157743Y0021718D01*
X0155809Y0020320D01*
X0153841Y0018969D01*
X0151841Y0017668D01*
X0149809Y0016416D01*
X0147747Y0015214D01*
X0145656Y0014064D01*
X0143538Y0012965D01*
X0141393Y0011918D01*
X0139223Y0010924D01*
X0137030Y0009984D01*
X0134814Y0009098D01*
X0132577Y0008266D01*
X0130320Y0007490D01*
X0128045Y0006769D01*
X0125753Y0006104D01*
X0123446Y0005496D01*
X0121124Y0004945D01*
X0118789Y0004450D01*
X0116443Y0004014D01*
X0114087Y0003634D01*
X0111722Y0003313D01*
X0109350Y0003050D01*
X0106972Y0002845D01*
X0104590Y0002699D01*
X0102205Y0002611D01*
X0099819Y0002582D01*
X0097433Y0002611D01*
X0095048Y0002699D01*
X0092666Y0002845D01*
X0090288Y0003050D01*
X0087916Y0003313D01*
X0085551Y0003634D01*
X0083195Y0004014D01*
X0080849Y0004450D01*
X0078514Y0004945D01*
X0076192Y0005496D01*
X0073885Y0006104D01*
X0071593Y0006769D01*
X0069318Y0007490D01*
X0067061Y0008266D01*
X0064824Y0009098D01*
X0062608Y0009984D01*
X0060415Y0010924D01*
X0058245Y0011918D01*
X0056100Y0012965D01*
X0053982Y0014064D01*
X0051891Y0015214D01*
X0049829Y0016416D01*
X0047797Y0017668D01*
X0045797Y0018969D01*
X0043829Y0020320D01*
X0041895Y0021718D01*
X0039996Y0023163D01*
X0038133Y0024654D01*
X0036306Y0026190D01*
X0034519Y0027771D01*
X0032770Y0029395D01*
X0031062Y0031062D01*
X0029395Y0032770D01*
X0027771Y0034519D01*
X0026190Y0036306D01*
X0024654Y0038133D01*
X0023163Y0039996D01*
X0021718Y0041895D01*
X0020320Y0043829D01*
X0018969Y0045797D01*
X0017668Y0047797D01*
X0016416Y0049829D01*
X0015214Y0051891D01*
X0014064Y0053982D01*
X0012965Y0056100D01*
X0011918Y0058245D01*
X0010924Y0060415D01*
X0009984Y0062608D01*
X0009098Y0064824D01*
X0008266Y0067061D01*
X0007490Y0069318D01*
X0006769Y0071593D01*
X0006104Y0073885D01*
X0005496Y0076192D01*
X0004945Y0078514D01*
X0004450Y0080849D01*
X0004014Y0083195D01*
X0003634Y0085551D01*
X0003313Y0087916D01*
X0003050Y0090288D01*
X0002845Y0092666D01*
X0002699Y0095048D01*
X0002611Y0097433D01*
X0002582Y0099819D01*
D11*
X0006906Y0099819D02*
X0006908Y0099977D01*
X0006914Y0100135D01*
X0006924Y0100293D01*
X0006938Y0100451D01*
X0006956Y0100608D01*
X0006977Y0100765D01*
X0007003Y0100921D01*
X0007033Y0101077D01*
X0007066Y0101232D01*
X0007104Y0101385D01*
X0007145Y0101538D01*
X0007190Y0101690D01*
X0007239Y0101841D01*
X0007292Y0101990D01*
X0007348Y0102138D01*
X0007408Y0102284D01*
X0007472Y0102429D01*
X0007540Y0102572D01*
X0007611Y0102714D01*
X0007685Y0102854D01*
X0007763Y0102991D01*
X0007845Y0103127D01*
X0007929Y0103261D01*
X0008018Y0103392D01*
X0008109Y0103521D01*
X0008204Y0103648D01*
X0008301Y0103773D01*
X0008402Y0103895D01*
X0008506Y0104014D01*
X0008613Y0104131D01*
X0008723Y0104245D01*
X0008836Y0104356D01*
X0008951Y0104465D01*
X0009069Y0104570D01*
X0009190Y0104672D01*
X0009313Y0104772D01*
X0009439Y0104868D01*
X0009567Y0104961D01*
X0009697Y0105051D01*
X0009830Y0105137D01*
X0009965Y0105221D01*
X0010101Y0105300D01*
X0010240Y0105377D01*
X0010381Y0105449D01*
X0010523Y0105519D01*
X0010667Y0105584D01*
X0010813Y0105646D01*
X0010960Y0105704D01*
X0011109Y0105759D01*
X0011259Y0105810D01*
X0011410Y0105857D01*
X0011562Y0105900D01*
X0011715Y0105939D01*
X0011870Y0105975D01*
X0012025Y0106006D01*
X0012181Y0106034D01*
X0012337Y0106058D01*
X0012494Y0106078D01*
X0012652Y0106094D01*
X0012809Y0106106D01*
X0012968Y0106114D01*
X0013126Y0106118D01*
X0013284Y0106118D01*
X0013442Y0106114D01*
X0013601Y0106106D01*
X0013758Y0106094D01*
X0013916Y0106078D01*
X0014073Y0106058D01*
X0014229Y0106034D01*
X0014385Y0106006D01*
X0014540Y0105975D01*
X0014695Y0105939D01*
X0014848Y0105900D01*
X0015000Y0105857D01*
X0015151Y0105810D01*
X0015301Y0105759D01*
X0015450Y0105704D01*
X0015597Y0105646D01*
X0015743Y0105584D01*
X0015887Y0105519D01*
X0016029Y0105449D01*
X0016170Y0105377D01*
X0016309Y0105300D01*
X0016445Y0105221D01*
X0016580Y0105137D01*
X0016713Y0105051D01*
X0016843Y0104961D01*
X0016971Y0104868D01*
X0017097Y0104772D01*
X0017220Y0104672D01*
X0017341Y0104570D01*
X0017459Y0104465D01*
X0017574Y0104356D01*
X0017687Y0104245D01*
X0017797Y0104131D01*
X0017904Y0104014D01*
X0018008Y0103895D01*
X0018109Y0103773D01*
X0018206Y0103648D01*
X0018301Y0103521D01*
X0018392Y0103392D01*
X0018481Y0103261D01*
X0018565Y0103127D01*
X0018647Y0102991D01*
X0018725Y0102854D01*
X0018799Y0102714D01*
X0018870Y0102572D01*
X0018938Y0102429D01*
X0019002Y0102284D01*
X0019062Y0102138D01*
X0019118Y0101990D01*
X0019171Y0101841D01*
X0019220Y0101690D01*
X0019265Y0101538D01*
X0019306Y0101385D01*
X0019344Y0101232D01*
X0019377Y0101077D01*
X0019407Y0100921D01*
X0019433Y0100765D01*
X0019454Y0100608D01*
X0019472Y0100451D01*
X0019486Y0100293D01*
X0019496Y0100135D01*
X0019502Y0099977D01*
X0019504Y0099819D01*
X0019502Y0099661D01*
X0019496Y0099503D01*
X0019486Y0099345D01*
X0019472Y0099187D01*
X0019454Y0099030D01*
X0019433Y0098873D01*
X0019407Y0098717D01*
X0019377Y0098561D01*
X0019344Y0098406D01*
X0019306Y0098253D01*
X0019265Y0098100D01*
X0019220Y0097948D01*
X0019171Y0097797D01*
X0019118Y0097648D01*
X0019062Y0097500D01*
X0019002Y0097354D01*
X0018938Y0097209D01*
X0018870Y0097066D01*
X0018799Y0096924D01*
X0018725Y0096784D01*
X0018647Y0096647D01*
X0018565Y0096511D01*
X0018481Y0096377D01*
X0018392Y0096246D01*
X0018301Y0096117D01*
X0018206Y0095990D01*
X0018109Y0095865D01*
X0018008Y0095743D01*
X0017904Y0095624D01*
X0017797Y0095507D01*
X0017687Y0095393D01*
X0017574Y0095282D01*
X0017459Y0095173D01*
X0017341Y0095068D01*
X0017220Y0094966D01*
X0017097Y0094866D01*
X0016971Y0094770D01*
X0016843Y0094677D01*
X0016713Y0094587D01*
X0016580Y0094501D01*
X0016445Y0094417D01*
X0016309Y0094338D01*
X0016170Y0094261D01*
X0016029Y0094189D01*
X0015887Y0094119D01*
X0015743Y0094054D01*
X0015597Y0093992D01*
X0015450Y0093934D01*
X0015301Y0093879D01*
X0015151Y0093828D01*
X0015000Y0093781D01*
X0014848Y0093738D01*
X0014695Y0093699D01*
X0014540Y0093663D01*
X0014385Y0093632D01*
X0014229Y0093604D01*
X0014073Y0093580D01*
X0013916Y0093560D01*
X0013758Y0093544D01*
X0013601Y0093532D01*
X0013442Y0093524D01*
X0013284Y0093520D01*
X0013126Y0093520D01*
X0012968Y0093524D01*
X0012809Y0093532D01*
X0012652Y0093544D01*
X0012494Y0093560D01*
X0012337Y0093580D01*
X0012181Y0093604D01*
X0012025Y0093632D01*
X0011870Y0093663D01*
X0011715Y0093699D01*
X0011562Y0093738D01*
X0011410Y0093781D01*
X0011259Y0093828D01*
X0011109Y0093879D01*
X0010960Y0093934D01*
X0010813Y0093992D01*
X0010667Y0094054D01*
X0010523Y0094119D01*
X0010381Y0094189D01*
X0010240Y0094261D01*
X0010101Y0094338D01*
X0009965Y0094417D01*
X0009830Y0094501D01*
X0009697Y0094587D01*
X0009567Y0094677D01*
X0009439Y0094770D01*
X0009313Y0094866D01*
X0009190Y0094966D01*
X0009069Y0095068D01*
X0008951Y0095173D01*
X0008836Y0095282D01*
X0008723Y0095393D01*
X0008613Y0095507D01*
X0008506Y0095624D01*
X0008402Y0095743D01*
X0008301Y0095865D01*
X0008204Y0095990D01*
X0008109Y0096117D01*
X0008018Y0096246D01*
X0007929Y0096377D01*
X0007845Y0096511D01*
X0007763Y0096647D01*
X0007685Y0096784D01*
X0007611Y0096924D01*
X0007540Y0097066D01*
X0007472Y0097209D01*
X0007408Y0097354D01*
X0007348Y0097500D01*
X0007292Y0097648D01*
X0007239Y0097797D01*
X0007190Y0097948D01*
X0007145Y0098100D01*
X0007104Y0098253D01*
X0007066Y0098406D01*
X0007033Y0098561D01*
X0007003Y0098717D01*
X0006977Y0098873D01*
X0006956Y0099030D01*
X0006938Y0099187D01*
X0006924Y0099345D01*
X0006914Y0099503D01*
X0006908Y0099661D01*
X0006906Y0099819D01*
X0089583Y0013205D02*
X0089585Y0013363D01*
X0089591Y0013521D01*
X0089601Y0013679D01*
X0089615Y0013837D01*
X0089633Y0013994D01*
X0089654Y0014151D01*
X0089680Y0014307D01*
X0089710Y0014463D01*
X0089743Y0014618D01*
X0089781Y0014771D01*
X0089822Y0014924D01*
X0089867Y0015076D01*
X0089916Y0015227D01*
X0089969Y0015376D01*
X0090025Y0015524D01*
X0090085Y0015670D01*
X0090149Y0015815D01*
X0090217Y0015958D01*
X0090288Y0016100D01*
X0090362Y0016240D01*
X0090440Y0016377D01*
X0090522Y0016513D01*
X0090606Y0016647D01*
X0090695Y0016778D01*
X0090786Y0016907D01*
X0090881Y0017034D01*
X0090978Y0017159D01*
X0091079Y0017281D01*
X0091183Y0017400D01*
X0091290Y0017517D01*
X0091400Y0017631D01*
X0091513Y0017742D01*
X0091628Y0017851D01*
X0091746Y0017956D01*
X0091867Y0018058D01*
X0091990Y0018158D01*
X0092116Y0018254D01*
X0092244Y0018347D01*
X0092374Y0018437D01*
X0092507Y0018523D01*
X0092642Y0018607D01*
X0092778Y0018686D01*
X0092917Y0018763D01*
X0093058Y0018835D01*
X0093200Y0018905D01*
X0093344Y0018970D01*
X0093490Y0019032D01*
X0093637Y0019090D01*
X0093786Y0019145D01*
X0093936Y0019196D01*
X0094087Y0019243D01*
X0094239Y0019286D01*
X0094392Y0019325D01*
X0094547Y0019361D01*
X0094702Y0019392D01*
X0094858Y0019420D01*
X0095014Y0019444D01*
X0095171Y0019464D01*
X0095329Y0019480D01*
X0095486Y0019492D01*
X0095645Y0019500D01*
X0095803Y0019504D01*
X0095961Y0019504D01*
X0096119Y0019500D01*
X0096278Y0019492D01*
X0096435Y0019480D01*
X0096593Y0019464D01*
X0096750Y0019444D01*
X0096906Y0019420D01*
X0097062Y0019392D01*
X0097217Y0019361D01*
X0097372Y0019325D01*
X0097525Y0019286D01*
X0097677Y0019243D01*
X0097828Y0019196D01*
X0097978Y0019145D01*
X0098127Y0019090D01*
X0098274Y0019032D01*
X0098420Y0018970D01*
X0098564Y0018905D01*
X0098706Y0018835D01*
X0098847Y0018763D01*
X0098986Y0018686D01*
X0099122Y0018607D01*
X0099257Y0018523D01*
X0099390Y0018437D01*
X0099520Y0018347D01*
X0099648Y0018254D01*
X0099774Y0018158D01*
X0099897Y0018058D01*
X0100018Y0017956D01*
X0100136Y0017851D01*
X0100251Y0017742D01*
X0100364Y0017631D01*
X0100474Y0017517D01*
X0100581Y0017400D01*
X0100685Y0017281D01*
X0100786Y0017159D01*
X0100883Y0017034D01*
X0100978Y0016907D01*
X0101069Y0016778D01*
X0101158Y0016647D01*
X0101242Y0016513D01*
X0101324Y0016377D01*
X0101402Y0016240D01*
X0101476Y0016100D01*
X0101547Y0015958D01*
X0101615Y0015815D01*
X0101679Y0015670D01*
X0101739Y0015524D01*
X0101795Y0015376D01*
X0101848Y0015227D01*
X0101897Y0015076D01*
X0101942Y0014924D01*
X0101983Y0014771D01*
X0102021Y0014618D01*
X0102054Y0014463D01*
X0102084Y0014307D01*
X0102110Y0014151D01*
X0102131Y0013994D01*
X0102149Y0013837D01*
X0102163Y0013679D01*
X0102173Y0013521D01*
X0102179Y0013363D01*
X0102181Y0013205D01*
X0102179Y0013047D01*
X0102173Y0012889D01*
X0102163Y0012731D01*
X0102149Y0012573D01*
X0102131Y0012416D01*
X0102110Y0012259D01*
X0102084Y0012103D01*
X0102054Y0011947D01*
X0102021Y0011792D01*
X0101983Y0011639D01*
X0101942Y0011486D01*
X0101897Y0011334D01*
X0101848Y0011183D01*
X0101795Y0011034D01*
X0101739Y0010886D01*
X0101679Y0010740D01*
X0101615Y0010595D01*
X0101547Y0010452D01*
X0101476Y0010310D01*
X0101402Y0010170D01*
X0101324Y0010033D01*
X0101242Y0009897D01*
X0101158Y0009763D01*
X0101069Y0009632D01*
X0100978Y0009503D01*
X0100883Y0009376D01*
X0100786Y0009251D01*
X0100685Y0009129D01*
X0100581Y0009010D01*
X0100474Y0008893D01*
X0100364Y0008779D01*
X0100251Y0008668D01*
X0100136Y0008559D01*
X0100018Y0008454D01*
X0099897Y0008352D01*
X0099774Y0008252D01*
X0099648Y0008156D01*
X0099520Y0008063D01*
X0099390Y0007973D01*
X0099257Y0007887D01*
X0099122Y0007803D01*
X0098986Y0007724D01*
X0098847Y0007647D01*
X0098706Y0007575D01*
X0098564Y0007505D01*
X0098420Y0007440D01*
X0098274Y0007378D01*
X0098127Y0007320D01*
X0097978Y0007265D01*
X0097828Y0007214D01*
X0097677Y0007167D01*
X0097525Y0007124D01*
X0097372Y0007085D01*
X0097217Y0007049D01*
X0097062Y0007018D01*
X0096906Y0006990D01*
X0096750Y0006966D01*
X0096593Y0006946D01*
X0096435Y0006930D01*
X0096278Y0006918D01*
X0096119Y0006910D01*
X0095961Y0006906D01*
X0095803Y0006906D01*
X0095645Y0006910D01*
X0095486Y0006918D01*
X0095329Y0006930D01*
X0095171Y0006946D01*
X0095014Y0006966D01*
X0094858Y0006990D01*
X0094702Y0007018D01*
X0094547Y0007049D01*
X0094392Y0007085D01*
X0094239Y0007124D01*
X0094087Y0007167D01*
X0093936Y0007214D01*
X0093786Y0007265D01*
X0093637Y0007320D01*
X0093490Y0007378D01*
X0093344Y0007440D01*
X0093200Y0007505D01*
X0093058Y0007575D01*
X0092917Y0007647D01*
X0092778Y0007724D01*
X0092642Y0007803D01*
X0092507Y0007887D01*
X0092374Y0007973D01*
X0092244Y0008063D01*
X0092116Y0008156D01*
X0091990Y0008252D01*
X0091867Y0008352D01*
X0091746Y0008454D01*
X0091628Y0008559D01*
X0091513Y0008668D01*
X0091400Y0008779D01*
X0091290Y0008893D01*
X0091183Y0009010D01*
X0091079Y0009129D01*
X0090978Y0009251D01*
X0090881Y0009376D01*
X0090786Y0009503D01*
X0090695Y0009632D01*
X0090606Y0009763D01*
X0090522Y0009897D01*
X0090440Y0010033D01*
X0090362Y0010170D01*
X0090288Y0010310D01*
X0090217Y0010452D01*
X0090149Y0010595D01*
X0090085Y0010740D01*
X0090025Y0010886D01*
X0089969Y0011034D01*
X0089916Y0011183D01*
X0089867Y0011334D01*
X0089822Y0011486D01*
X0089781Y0011639D01*
X0089743Y0011792D01*
X0089710Y0011947D01*
X0089680Y0012103D01*
X0089654Y0012259D01*
X0089633Y0012416D01*
X0089615Y0012573D01*
X0089601Y0012731D01*
X0089591Y0012889D01*
X0089585Y0013047D01*
X0089583Y0013205D01*
X0180134Y0099819D02*
X0180136Y0099977D01*
X0180142Y0100135D01*
X0180152Y0100293D01*
X0180166Y0100451D01*
X0180184Y0100608D01*
X0180205Y0100765D01*
X0180231Y0100921D01*
X0180261Y0101077D01*
X0180294Y0101232D01*
X0180332Y0101385D01*
X0180373Y0101538D01*
X0180418Y0101690D01*
X0180467Y0101841D01*
X0180520Y0101990D01*
X0180576Y0102138D01*
X0180636Y0102284D01*
X0180700Y0102429D01*
X0180768Y0102572D01*
X0180839Y0102714D01*
X0180913Y0102854D01*
X0180991Y0102991D01*
X0181073Y0103127D01*
X0181157Y0103261D01*
X0181246Y0103392D01*
X0181337Y0103521D01*
X0181432Y0103648D01*
X0181529Y0103773D01*
X0181630Y0103895D01*
X0181734Y0104014D01*
X0181841Y0104131D01*
X0181951Y0104245D01*
X0182064Y0104356D01*
X0182179Y0104465D01*
X0182297Y0104570D01*
X0182418Y0104672D01*
X0182541Y0104772D01*
X0182667Y0104868D01*
X0182795Y0104961D01*
X0182925Y0105051D01*
X0183058Y0105137D01*
X0183193Y0105221D01*
X0183329Y0105300D01*
X0183468Y0105377D01*
X0183609Y0105449D01*
X0183751Y0105519D01*
X0183895Y0105584D01*
X0184041Y0105646D01*
X0184188Y0105704D01*
X0184337Y0105759D01*
X0184487Y0105810D01*
X0184638Y0105857D01*
X0184790Y0105900D01*
X0184943Y0105939D01*
X0185098Y0105975D01*
X0185253Y0106006D01*
X0185409Y0106034D01*
X0185565Y0106058D01*
X0185722Y0106078D01*
X0185880Y0106094D01*
X0186037Y0106106D01*
X0186196Y0106114D01*
X0186354Y0106118D01*
X0186512Y0106118D01*
X0186670Y0106114D01*
X0186829Y0106106D01*
X0186986Y0106094D01*
X0187144Y0106078D01*
X0187301Y0106058D01*
X0187457Y0106034D01*
X0187613Y0106006D01*
X0187768Y0105975D01*
X0187923Y0105939D01*
X0188076Y0105900D01*
X0188228Y0105857D01*
X0188379Y0105810D01*
X0188529Y0105759D01*
X0188678Y0105704D01*
X0188825Y0105646D01*
X0188971Y0105584D01*
X0189115Y0105519D01*
X0189257Y0105449D01*
X0189398Y0105377D01*
X0189537Y0105300D01*
X0189673Y0105221D01*
X0189808Y0105137D01*
X0189941Y0105051D01*
X0190071Y0104961D01*
X0190199Y0104868D01*
X0190325Y0104772D01*
X0190448Y0104672D01*
X0190569Y0104570D01*
X0190687Y0104465D01*
X0190802Y0104356D01*
X0190915Y0104245D01*
X0191025Y0104131D01*
X0191132Y0104014D01*
X0191236Y0103895D01*
X0191337Y0103773D01*
X0191434Y0103648D01*
X0191529Y0103521D01*
X0191620Y0103392D01*
X0191709Y0103261D01*
X0191793Y0103127D01*
X0191875Y0102991D01*
X0191953Y0102854D01*
X0192027Y0102714D01*
X0192098Y0102572D01*
X0192166Y0102429D01*
X0192230Y0102284D01*
X0192290Y0102138D01*
X0192346Y0101990D01*
X0192399Y0101841D01*
X0192448Y0101690D01*
X0192493Y0101538D01*
X0192534Y0101385D01*
X0192572Y0101232D01*
X0192605Y0101077D01*
X0192635Y0100921D01*
X0192661Y0100765D01*
X0192682Y0100608D01*
X0192700Y0100451D01*
X0192714Y0100293D01*
X0192724Y0100135D01*
X0192730Y0099977D01*
X0192732Y0099819D01*
X0192730Y0099661D01*
X0192724Y0099503D01*
X0192714Y0099345D01*
X0192700Y0099187D01*
X0192682Y0099030D01*
X0192661Y0098873D01*
X0192635Y0098717D01*
X0192605Y0098561D01*
X0192572Y0098406D01*
X0192534Y0098253D01*
X0192493Y0098100D01*
X0192448Y0097948D01*
X0192399Y0097797D01*
X0192346Y0097648D01*
X0192290Y0097500D01*
X0192230Y0097354D01*
X0192166Y0097209D01*
X0192098Y0097066D01*
X0192027Y0096924D01*
X0191953Y0096784D01*
X0191875Y0096647D01*
X0191793Y0096511D01*
X0191709Y0096377D01*
X0191620Y0096246D01*
X0191529Y0096117D01*
X0191434Y0095990D01*
X0191337Y0095865D01*
X0191236Y0095743D01*
X0191132Y0095624D01*
X0191025Y0095507D01*
X0190915Y0095393D01*
X0190802Y0095282D01*
X0190687Y0095173D01*
X0190569Y0095068D01*
X0190448Y0094966D01*
X0190325Y0094866D01*
X0190199Y0094770D01*
X0190071Y0094677D01*
X0189941Y0094587D01*
X0189808Y0094501D01*
X0189673Y0094417D01*
X0189537Y0094338D01*
X0189398Y0094261D01*
X0189257Y0094189D01*
X0189115Y0094119D01*
X0188971Y0094054D01*
X0188825Y0093992D01*
X0188678Y0093934D01*
X0188529Y0093879D01*
X0188379Y0093828D01*
X0188228Y0093781D01*
X0188076Y0093738D01*
X0187923Y0093699D01*
X0187768Y0093663D01*
X0187613Y0093632D01*
X0187457Y0093604D01*
X0187301Y0093580D01*
X0187144Y0093560D01*
X0186986Y0093544D01*
X0186829Y0093532D01*
X0186670Y0093524D01*
X0186512Y0093520D01*
X0186354Y0093520D01*
X0186196Y0093524D01*
X0186037Y0093532D01*
X0185880Y0093544D01*
X0185722Y0093560D01*
X0185565Y0093580D01*
X0185409Y0093604D01*
X0185253Y0093632D01*
X0185098Y0093663D01*
X0184943Y0093699D01*
X0184790Y0093738D01*
X0184638Y0093781D01*
X0184487Y0093828D01*
X0184337Y0093879D01*
X0184188Y0093934D01*
X0184041Y0093992D01*
X0183895Y0094054D01*
X0183751Y0094119D01*
X0183609Y0094189D01*
X0183468Y0094261D01*
X0183329Y0094338D01*
X0183193Y0094417D01*
X0183058Y0094501D01*
X0182925Y0094587D01*
X0182795Y0094677D01*
X0182667Y0094770D01*
X0182541Y0094866D01*
X0182418Y0094966D01*
X0182297Y0095068D01*
X0182179Y0095173D01*
X0182064Y0095282D01*
X0181951Y0095393D01*
X0181841Y0095507D01*
X0181734Y0095624D01*
X0181630Y0095743D01*
X0181529Y0095865D01*
X0181432Y0095990D01*
X0181337Y0096117D01*
X0181246Y0096246D01*
X0181157Y0096377D01*
X0181073Y0096511D01*
X0180991Y0096647D01*
X0180913Y0096784D01*
X0180839Y0096924D01*
X0180768Y0097066D01*
X0180700Y0097209D01*
X0180636Y0097354D01*
X0180576Y0097500D01*
X0180520Y0097648D01*
X0180467Y0097797D01*
X0180418Y0097948D01*
X0180373Y0098100D01*
X0180332Y0098253D01*
X0180294Y0098406D01*
X0180261Y0098561D01*
X0180231Y0098717D01*
X0180205Y0098873D01*
X0180184Y0099030D01*
X0180166Y0099187D01*
X0180152Y0099345D01*
X0180142Y0099503D01*
X0180136Y0099661D01*
X0180134Y0099819D01*
X0093520Y0186433D02*
X0093522Y0186591D01*
X0093528Y0186749D01*
X0093538Y0186907D01*
X0093552Y0187065D01*
X0093570Y0187222D01*
X0093591Y0187379D01*
X0093617Y0187535D01*
X0093647Y0187691D01*
X0093680Y0187846D01*
X0093718Y0187999D01*
X0093759Y0188152D01*
X0093804Y0188304D01*
X0093853Y0188455D01*
X0093906Y0188604D01*
X0093962Y0188752D01*
X0094022Y0188898D01*
X0094086Y0189043D01*
X0094154Y0189186D01*
X0094225Y0189328D01*
X0094299Y0189468D01*
X0094377Y0189605D01*
X0094459Y0189741D01*
X0094543Y0189875D01*
X0094632Y0190006D01*
X0094723Y0190135D01*
X0094818Y0190262D01*
X0094915Y0190387D01*
X0095016Y0190509D01*
X0095120Y0190628D01*
X0095227Y0190745D01*
X0095337Y0190859D01*
X0095450Y0190970D01*
X0095565Y0191079D01*
X0095683Y0191184D01*
X0095804Y0191286D01*
X0095927Y0191386D01*
X0096053Y0191482D01*
X0096181Y0191575D01*
X0096311Y0191665D01*
X0096444Y0191751D01*
X0096579Y0191835D01*
X0096715Y0191914D01*
X0096854Y0191991D01*
X0096995Y0192063D01*
X0097137Y0192133D01*
X0097281Y0192198D01*
X0097427Y0192260D01*
X0097574Y0192318D01*
X0097723Y0192373D01*
X0097873Y0192424D01*
X0098024Y0192471D01*
X0098176Y0192514D01*
X0098329Y0192553D01*
X0098484Y0192589D01*
X0098639Y0192620D01*
X0098795Y0192648D01*
X0098951Y0192672D01*
X0099108Y0192692D01*
X0099266Y0192708D01*
X0099423Y0192720D01*
X0099582Y0192728D01*
X0099740Y0192732D01*
X0099898Y0192732D01*
X0100056Y0192728D01*
X0100215Y0192720D01*
X0100372Y0192708D01*
X0100530Y0192692D01*
X0100687Y0192672D01*
X0100843Y0192648D01*
X0100999Y0192620D01*
X0101154Y0192589D01*
X0101309Y0192553D01*
X0101462Y0192514D01*
X0101614Y0192471D01*
X0101765Y0192424D01*
X0101915Y0192373D01*
X0102064Y0192318D01*
X0102211Y0192260D01*
X0102357Y0192198D01*
X0102501Y0192133D01*
X0102643Y0192063D01*
X0102784Y0191991D01*
X0102923Y0191914D01*
X0103059Y0191835D01*
X0103194Y0191751D01*
X0103327Y0191665D01*
X0103457Y0191575D01*
X0103585Y0191482D01*
X0103711Y0191386D01*
X0103834Y0191286D01*
X0103955Y0191184D01*
X0104073Y0191079D01*
X0104188Y0190970D01*
X0104301Y0190859D01*
X0104411Y0190745D01*
X0104518Y0190628D01*
X0104622Y0190509D01*
X0104723Y0190387D01*
X0104820Y0190262D01*
X0104915Y0190135D01*
X0105006Y0190006D01*
X0105095Y0189875D01*
X0105179Y0189741D01*
X0105261Y0189605D01*
X0105339Y0189468D01*
X0105413Y0189328D01*
X0105484Y0189186D01*
X0105552Y0189043D01*
X0105616Y0188898D01*
X0105676Y0188752D01*
X0105732Y0188604D01*
X0105785Y0188455D01*
X0105834Y0188304D01*
X0105879Y0188152D01*
X0105920Y0187999D01*
X0105958Y0187846D01*
X0105991Y0187691D01*
X0106021Y0187535D01*
X0106047Y0187379D01*
X0106068Y0187222D01*
X0106086Y0187065D01*
X0106100Y0186907D01*
X0106110Y0186749D01*
X0106116Y0186591D01*
X0106118Y0186433D01*
X0106116Y0186275D01*
X0106110Y0186117D01*
X0106100Y0185959D01*
X0106086Y0185801D01*
X0106068Y0185644D01*
X0106047Y0185487D01*
X0106021Y0185331D01*
X0105991Y0185175D01*
X0105958Y0185020D01*
X0105920Y0184867D01*
X0105879Y0184714D01*
X0105834Y0184562D01*
X0105785Y0184411D01*
X0105732Y0184262D01*
X0105676Y0184114D01*
X0105616Y0183968D01*
X0105552Y0183823D01*
X0105484Y0183680D01*
X0105413Y0183538D01*
X0105339Y0183398D01*
X0105261Y0183261D01*
X0105179Y0183125D01*
X0105095Y0182991D01*
X0105006Y0182860D01*
X0104915Y0182731D01*
X0104820Y0182604D01*
X0104723Y0182479D01*
X0104622Y0182357D01*
X0104518Y0182238D01*
X0104411Y0182121D01*
X0104301Y0182007D01*
X0104188Y0181896D01*
X0104073Y0181787D01*
X0103955Y0181682D01*
X0103834Y0181580D01*
X0103711Y0181480D01*
X0103585Y0181384D01*
X0103457Y0181291D01*
X0103327Y0181201D01*
X0103194Y0181115D01*
X0103059Y0181031D01*
X0102923Y0180952D01*
X0102784Y0180875D01*
X0102643Y0180803D01*
X0102501Y0180733D01*
X0102357Y0180668D01*
X0102211Y0180606D01*
X0102064Y0180548D01*
X0101915Y0180493D01*
X0101765Y0180442D01*
X0101614Y0180395D01*
X0101462Y0180352D01*
X0101309Y0180313D01*
X0101154Y0180277D01*
X0100999Y0180246D01*
X0100843Y0180218D01*
X0100687Y0180194D01*
X0100530Y0180174D01*
X0100372Y0180158D01*
X0100215Y0180146D01*
X0100056Y0180138D01*
X0099898Y0180134D01*
X0099740Y0180134D01*
X0099582Y0180138D01*
X0099423Y0180146D01*
X0099266Y0180158D01*
X0099108Y0180174D01*
X0098951Y0180194D01*
X0098795Y0180218D01*
X0098639Y0180246D01*
X0098484Y0180277D01*
X0098329Y0180313D01*
X0098176Y0180352D01*
X0098024Y0180395D01*
X0097873Y0180442D01*
X0097723Y0180493D01*
X0097574Y0180548D01*
X0097427Y0180606D01*
X0097281Y0180668D01*
X0097137Y0180733D01*
X0096995Y0180803D01*
X0096854Y0180875D01*
X0096715Y0180952D01*
X0096579Y0181031D01*
X0096444Y0181115D01*
X0096311Y0181201D01*
X0096181Y0181291D01*
X0096053Y0181384D01*
X0095927Y0181480D01*
X0095804Y0181580D01*
X0095683Y0181682D01*
X0095565Y0181787D01*
X0095450Y0181896D01*
X0095337Y0182007D01*
X0095227Y0182121D01*
X0095120Y0182238D01*
X0095016Y0182357D01*
X0094915Y0182479D01*
X0094818Y0182604D01*
X0094723Y0182731D01*
X0094632Y0182860D01*
X0094543Y0182991D01*
X0094459Y0183125D01*
X0094377Y0183261D01*
X0094299Y0183398D01*
X0094225Y0183538D01*
X0094154Y0183680D01*
X0094086Y0183823D01*
X0094022Y0183968D01*
X0093962Y0184114D01*
X0093906Y0184262D01*
X0093853Y0184411D01*
X0093804Y0184562D01*
X0093759Y0184714D01*
X0093718Y0184867D01*
X0093680Y0185020D01*
X0093647Y0185175D01*
X0093617Y0185331D01*
X0093591Y0185487D01*
X0093570Y0185644D01*
X0093552Y0185801D01*
X0093538Y0185959D01*
X0093528Y0186117D01*
X0093522Y0186275D01*
X0093520Y0186433D01*
D12*
X0106370Y0171530D02*
X0105753Y0170913D01*
X0105753Y0169679D01*
X0106370Y0169061D01*
X0106988Y0169061D01*
X0107605Y0169679D01*
X0107605Y0171530D01*
X0108839Y0171530D02*
X0106370Y0171530D01*
X0108839Y0171530D02*
X0109456Y0170913D01*
X0109456Y0169679D01*
X0108839Y0169061D01*
X0109456Y0167847D02*
X0109456Y0165378D01*
X0109456Y0164164D02*
X0108222Y0162929D01*
X0108222Y0163547D02*
X0108222Y0161695D01*
X0109456Y0161695D02*
X0105753Y0161695D01*
X0105753Y0163547D01*
X0106370Y0164164D01*
X0107605Y0164164D01*
X0108222Y0163547D01*
X0106988Y0165378D02*
X0105753Y0166613D01*
X0109456Y0166613D01*
X0121352Y0167025D02*
X0121969Y0166408D01*
X0122586Y0166408D01*
X0123203Y0167025D01*
X0123203Y0168877D01*
X0121969Y0168877D02*
X0121352Y0168260D01*
X0121352Y0167025D01*
X0121969Y0165194D02*
X0121352Y0164576D01*
X0121352Y0163342D01*
X0121969Y0162725D01*
X0124438Y0162725D01*
X0125055Y0163342D01*
X0125055Y0164576D01*
X0124438Y0165194D01*
X0124438Y0166408D02*
X0125055Y0167025D01*
X0125055Y0168260D01*
X0124438Y0168877D01*
X0121969Y0168877D01*
X0122100Y0183119D02*
X0120249Y0183119D01*
X0120249Y0186822D01*
X0122100Y0186822D01*
X0122717Y0186204D01*
X0122717Y0183736D01*
X0122100Y0183119D01*
X0123932Y0183119D02*
X0126400Y0183119D01*
X0125166Y0183119D02*
X0125166Y0186822D01*
X0123932Y0185587D01*
X0119034Y0186822D02*
X0116565Y0186822D01*
X0116565Y0183119D01*
X0119034Y0183119D01*
X0117800Y0184970D02*
X0116565Y0184970D01*
X0115351Y0183119D02*
X0112882Y0183119D01*
X0112882Y0186822D01*
X0143005Y0170683D02*
X0143005Y0169448D01*
X0143622Y0168831D01*
X0146091Y0168831D01*
X0143622Y0171300D01*
X0146091Y0171300D01*
X0146708Y0170683D01*
X0146708Y0169448D01*
X0146091Y0168831D01*
X0146708Y0167617D02*
X0146708Y0165148D01*
X0146708Y0166382D02*
X0143005Y0166382D01*
X0144239Y0165148D01*
X0143622Y0163934D02*
X0143005Y0163317D01*
X0143005Y0162082D01*
X0143622Y0161465D01*
X0146091Y0161465D01*
X0146708Y0162082D01*
X0146708Y0163317D01*
X0146091Y0163934D01*
X0143005Y0170683D02*
X0143622Y0171300D01*
X0125055Y0153616D02*
X0125055Y0152382D01*
X0124438Y0151764D01*
X0123203Y0151764D02*
X0122586Y0152999D01*
X0122586Y0153616D01*
X0123203Y0154233D01*
X0124438Y0154233D01*
X0125055Y0153616D01*
X0123203Y0151764D02*
X0121352Y0151764D01*
X0121352Y0154233D01*
X0125055Y0150550D02*
X0125055Y0148081D01*
X0125055Y0146867D02*
X0123820Y0145632D01*
X0123820Y0146250D02*
X0123820Y0144398D01*
X0125055Y0144398D02*
X0121352Y0144398D01*
X0121352Y0146250D01*
X0121969Y0146867D01*
X0123203Y0146867D01*
X0123820Y0146250D01*
X0122586Y0148081D02*
X0121352Y0149316D01*
X0125055Y0149316D01*
X0118067Y0138802D02*
X0117450Y0138802D01*
X0116833Y0138185D01*
X0116833Y0137568D01*
X0116833Y0138185D02*
X0116216Y0138802D01*
X0115599Y0138802D01*
X0114981Y0138185D01*
X0114981Y0136950D01*
X0115599Y0136333D01*
X0115599Y0135119D02*
X0114981Y0134502D01*
X0114981Y0132650D01*
X0118685Y0132650D01*
X0118685Y0134502D01*
X0118067Y0135119D01*
X0115599Y0135119D01*
X0118067Y0136333D02*
X0118685Y0136950D01*
X0118685Y0138185D01*
X0118067Y0138802D01*
X0118685Y0131436D02*
X0118685Y0128967D01*
X0114981Y0128967D01*
X0114981Y0131436D01*
X0116833Y0130201D02*
X0116833Y0128967D01*
X0118685Y0127753D02*
X0118685Y0125284D01*
X0114981Y0125284D01*
X0116607Y0118381D02*
X0119075Y0115912D01*
X0119693Y0116529D01*
X0119693Y0117763D01*
X0119075Y0118381D01*
X0116607Y0118381D01*
X0115989Y0117763D01*
X0115989Y0116529D01*
X0116607Y0115912D01*
X0119075Y0115912D01*
X0119693Y0114697D02*
X0119693Y0112229D01*
X0117224Y0114697D01*
X0116607Y0114697D01*
X0115989Y0114080D01*
X0115989Y0112846D01*
X0116607Y0112229D01*
X0116607Y0111014D02*
X0117841Y0111014D01*
X0118458Y0110397D01*
X0118458Y0108545D01*
X0119693Y0108545D02*
X0115989Y0108545D01*
X0115989Y0110397D01*
X0116607Y0111014D01*
X0118458Y0109780D02*
X0119693Y0111014D01*
X0126942Y0119057D02*
X0126942Y0120909D01*
X0127559Y0121526D01*
X0128794Y0121526D01*
X0129411Y0120909D01*
X0129411Y0119057D01*
X0130645Y0119057D02*
X0126942Y0119057D01*
X0129411Y0120292D02*
X0130645Y0121526D01*
X0130645Y0122740D02*
X0130645Y0125209D01*
X0130645Y0123975D02*
X0126942Y0123975D01*
X0128177Y0122740D01*
X0128794Y0126424D02*
X0127559Y0127658D01*
X0126942Y0128892D01*
X0128794Y0128275D02*
X0128794Y0126424D01*
X0130028Y0126424D01*
X0130645Y0127041D01*
X0130645Y0128275D01*
X0130028Y0128892D01*
X0129411Y0128892D01*
X0128794Y0128275D01*
X0105335Y0128000D02*
X0102867Y0128000D01*
X0101652Y0128000D02*
X0099184Y0128000D01*
X0101652Y0130469D01*
X0101652Y0131086D01*
X0101035Y0131704D01*
X0099801Y0131704D01*
X0099184Y0131086D01*
X0097969Y0131086D02*
X0097969Y0129852D01*
X0097352Y0129235D01*
X0095500Y0129235D01*
X0095500Y0128000D02*
X0095500Y0131704D01*
X0097352Y0131704D01*
X0097969Y0131086D01*
X0096735Y0129235D02*
X0097969Y0128000D01*
X0102867Y0130469D02*
X0104101Y0131704D01*
X0104101Y0128000D01*
X0103683Y0111231D02*
X0103066Y0110614D01*
X0103683Y0111231D02*
X0104917Y0111231D01*
X0105534Y0110614D01*
X0105534Y0109997D01*
X0103066Y0107528D01*
X0105534Y0107528D01*
X0101851Y0108145D02*
X0101851Y0110614D01*
X0101234Y0111231D01*
X0099382Y0111231D01*
X0099382Y0107528D01*
X0101234Y0107528D01*
X0101851Y0108145D01*
X0098168Y0107528D02*
X0095699Y0107528D01*
X0095699Y0111231D01*
X0098168Y0111231D01*
X0096934Y0109380D02*
X0095699Y0109380D01*
X0094485Y0107528D02*
X0092016Y0107528D01*
X0092016Y0111231D01*
X0086337Y0110761D02*
X0083869Y0110761D01*
X0085720Y0112613D01*
X0085720Y0108910D01*
X0082654Y0109527D02*
X0082654Y0111996D01*
X0082037Y0112613D01*
X0080185Y0112613D01*
X0080185Y0108910D01*
X0082037Y0108910D01*
X0082654Y0109527D01*
X0074648Y0109574D02*
X0074031Y0108957D01*
X0072797Y0108957D01*
X0072179Y0109574D01*
X0070965Y0109574D02*
X0070965Y0112043D01*
X0070348Y0112660D01*
X0068496Y0112660D01*
X0068496Y0108957D01*
X0070348Y0108957D01*
X0070965Y0109574D01*
X0073414Y0110809D02*
X0074031Y0110809D01*
X0074648Y0110191D01*
X0074648Y0109574D01*
X0074031Y0110809D02*
X0074648Y0111426D01*
X0074648Y0112043D01*
X0074031Y0112660D01*
X0072797Y0112660D01*
X0072179Y0112043D01*
X0071341Y0120300D02*
X0071341Y0124003D01*
X0073192Y0124003D01*
X0073809Y0123386D01*
X0073809Y0122151D01*
X0073192Y0121534D01*
X0071341Y0121534D01*
X0072575Y0121534D02*
X0073809Y0120300D01*
X0075024Y0120300D02*
X0077493Y0120300D01*
X0076258Y0120300D02*
X0076258Y0124003D01*
X0075024Y0122768D01*
X0078707Y0122768D02*
X0078707Y0123386D01*
X0079324Y0124003D01*
X0080559Y0124003D01*
X0081176Y0123386D01*
X0081176Y0122768D01*
X0080559Y0122151D01*
X0079324Y0122151D01*
X0078707Y0122768D01*
X0079324Y0122151D02*
X0078707Y0121534D01*
X0078707Y0120917D01*
X0079324Y0120300D01*
X0080559Y0120300D01*
X0081176Y0120917D01*
X0081176Y0121534D01*
X0080559Y0122151D01*
X0061438Y0116126D02*
X0061438Y0115509D01*
X0058969Y0113040D01*
X0061438Y0113040D01*
X0061438Y0116126D02*
X0060821Y0116743D01*
X0059586Y0116743D01*
X0058969Y0116126D01*
X0057755Y0116126D02*
X0057755Y0115509D01*
X0055286Y0113040D01*
X0057755Y0113040D01*
X0054072Y0113040D02*
X0052837Y0114274D01*
X0053454Y0114274D02*
X0051603Y0114274D01*
X0050920Y0113515D02*
X0048451Y0113515D01*
X0048451Y0109811D01*
X0047230Y0109811D02*
X0045995Y0109811D01*
X0046612Y0109811D02*
X0046612Y0113515D01*
X0045995Y0113515D02*
X0047230Y0113515D01*
X0048451Y0111663D02*
X0049685Y0111663D01*
X0051603Y0113040D02*
X0051603Y0116743D01*
X0053454Y0116743D01*
X0054072Y0116126D01*
X0054072Y0114891D01*
X0053454Y0114274D01*
X0055286Y0116126D02*
X0055903Y0116743D01*
X0057137Y0116743D01*
X0057755Y0116126D01*
X0046575Y0103562D02*
X0045341Y0102327D01*
X0044127Y0102945D02*
X0043509Y0103562D01*
X0042275Y0103562D01*
X0041658Y0102945D01*
X0041658Y0100476D01*
X0042275Y0099859D01*
X0043509Y0099859D01*
X0044127Y0100476D01*
X0045341Y0099859D02*
X0047810Y0099859D01*
X0046575Y0099859D02*
X0046575Y0103562D01*
X0041098Y0109811D02*
X0039863Y0111046D01*
X0040481Y0111046D02*
X0038629Y0111046D01*
X0038629Y0109811D02*
X0038629Y0113515D01*
X0040481Y0113515D01*
X0041098Y0112897D01*
X0041098Y0111663D01*
X0040481Y0111046D01*
X0037415Y0109811D02*
X0034946Y0109811D01*
X0034946Y0113515D01*
X0037415Y0113515D01*
X0036180Y0111663D02*
X0034946Y0111663D01*
X0033731Y0109811D02*
X0031263Y0109811D01*
X0031263Y0113515D01*
X0030048Y0109811D02*
X0027580Y0109811D01*
X0027580Y0113515D01*
X0026365Y0112897D02*
X0025748Y0113515D01*
X0024514Y0113515D01*
X0023896Y0112897D01*
X0023896Y0110429D01*
X0024514Y0109811D01*
X0025748Y0109811D01*
X0026365Y0110429D01*
X0026365Y0112897D01*
X0022682Y0112897D02*
X0022682Y0111663D01*
X0022065Y0111046D01*
X0020213Y0111046D01*
X0020213Y0109811D02*
X0020213Y0113515D01*
X0022065Y0113515D01*
X0022682Y0112897D01*
X0021448Y0111046D02*
X0022682Y0109811D01*
X0018999Y0113515D02*
X0016530Y0113515D01*
X0015316Y0113515D02*
X0015316Y0109811D01*
X0012847Y0113515D01*
X0012847Y0109811D01*
X0011633Y0110429D02*
X0011633Y0112897D01*
X0011015Y0113515D01*
X0009781Y0113515D01*
X0009164Y0112897D01*
X0009164Y0110429D01*
X0009781Y0109811D01*
X0011015Y0109811D01*
X0011633Y0110429D01*
X0007949Y0110429D02*
X0007332Y0109811D01*
X0006098Y0109811D01*
X0005481Y0110429D01*
X0005481Y0112897D01*
X0006098Y0113515D01*
X0007332Y0113515D01*
X0007949Y0112897D01*
X0010035Y0119260D02*
X0011269Y0119260D01*
X0011886Y0119877D01*
X0013101Y0119260D02*
X0015570Y0119260D01*
X0016784Y0119260D02*
X0016784Y0122963D01*
X0017401Y0121112D02*
X0019253Y0119260D01*
X0016784Y0120495D02*
X0019253Y0122963D01*
X0013101Y0122963D02*
X0013101Y0119260D01*
X0010035Y0119260D02*
X0009418Y0119877D01*
X0009418Y0122346D01*
X0010035Y0122963D01*
X0011269Y0122963D01*
X0011886Y0122346D01*
X0011386Y0129496D02*
X0013855Y0129496D01*
X0015069Y0129496D02*
X0017538Y0133200D01*
X0018753Y0133200D02*
X0020604Y0133200D01*
X0021221Y0132582D01*
X0021221Y0131348D01*
X0020604Y0130731D01*
X0018753Y0130731D01*
X0019987Y0130731D02*
X0021221Y0129496D01*
X0018753Y0129496D02*
X0018753Y0133200D01*
X0019524Y0136977D02*
X0020141Y0137594D01*
X0020141Y0138828D01*
X0019524Y0139446D01*
X0018907Y0139446D01*
X0018290Y0138828D01*
X0018290Y0138211D01*
X0018290Y0138828D02*
X0017673Y0139446D01*
X0017055Y0139446D01*
X0016438Y0138828D01*
X0016438Y0137594D01*
X0017055Y0136977D01*
X0016438Y0140660D02*
X0018907Y0140660D01*
X0020141Y0141894D01*
X0018907Y0143129D01*
X0016438Y0143129D01*
X0017055Y0144343D02*
X0016438Y0144960D01*
X0016438Y0146195D01*
X0017055Y0146812D01*
X0017673Y0146812D01*
X0018290Y0146195D01*
X0018907Y0146812D01*
X0019524Y0146812D01*
X0020141Y0146195D01*
X0020141Y0144960D01*
X0019524Y0144343D01*
X0018290Y0145577D02*
X0018290Y0146195D01*
X0011386Y0133200D02*
X0011386Y0129496D01*
X0017765Y0113515D02*
X0017765Y0109811D01*
X0032347Y0091977D02*
X0034815Y0089508D01*
X0035433Y0090126D01*
X0035433Y0091360D01*
X0034815Y0091977D01*
X0032347Y0091977D01*
X0031730Y0091360D01*
X0031730Y0090126D01*
X0032347Y0089508D01*
X0034815Y0089508D01*
X0035433Y0088294D02*
X0035433Y0085825D01*
X0035433Y0084611D02*
X0034198Y0083377D01*
X0034198Y0083994D02*
X0034198Y0082142D01*
X0035433Y0082142D02*
X0031730Y0082142D01*
X0031730Y0083994D01*
X0032347Y0084611D01*
X0033581Y0084611D01*
X0034198Y0083994D01*
X0032964Y0085825D02*
X0031730Y0087060D01*
X0035433Y0087060D01*
X0036504Y0080389D02*
X0038356Y0080389D01*
X0038973Y0079771D01*
X0038973Y0078537D01*
X0038356Y0077920D01*
X0036504Y0077920D01*
X0037739Y0077920D02*
X0038973Y0076685D01*
X0040187Y0077303D02*
X0040187Y0078537D01*
X0042039Y0078537D01*
X0042656Y0077920D01*
X0042656Y0077303D01*
X0042039Y0076685D01*
X0040805Y0076685D01*
X0040187Y0077303D01*
X0040187Y0078537D02*
X0041422Y0079771D01*
X0042656Y0080389D01*
X0036504Y0080389D02*
X0036504Y0076685D01*
X0035989Y0066834D02*
X0035989Y0064366D01*
X0034754Y0065600D02*
X0037223Y0065600D01*
X0033540Y0065600D02*
X0031071Y0065600D01*
X0031071Y0066217D02*
X0031071Y0063748D01*
X0033540Y0063748D02*
X0033540Y0066217D01*
X0032306Y0067452D01*
X0031071Y0066217D01*
X0038211Y0056034D02*
X0039446Y0054800D01*
X0039446Y0052331D01*
X0039446Y0054183D02*
X0036977Y0054183D01*
X0036977Y0054800D02*
X0038211Y0056034D01*
X0036977Y0054800D02*
X0036977Y0052331D01*
X0040660Y0054183D02*
X0043129Y0054183D01*
X0044343Y0052331D02*
X0046812Y0056034D01*
X0048026Y0056034D02*
X0049878Y0056034D01*
X0050495Y0055417D01*
X0050495Y0054800D01*
X0049878Y0054183D01*
X0048026Y0054183D01*
X0048026Y0056034D02*
X0048026Y0052331D01*
X0049878Y0052331D01*
X0050495Y0052948D01*
X0050495Y0053565D01*
X0049878Y0054183D01*
X0050304Y0055213D02*
X0050304Y0057064D01*
X0050922Y0057682D01*
X0052156Y0057682D01*
X0052773Y0057064D01*
X0052773Y0055213D01*
X0052773Y0056447D02*
X0054007Y0057682D01*
X0054007Y0058896D02*
X0054007Y0061365D01*
X0054007Y0060130D02*
X0050304Y0060130D01*
X0051539Y0058896D01*
X0050304Y0055213D02*
X0054007Y0055213D01*
X0054178Y0054183D02*
X0051709Y0054183D01*
X0059519Y0061607D02*
X0058902Y0062224D01*
X0058902Y0064693D01*
X0059519Y0065310D01*
X0060753Y0065310D01*
X0061371Y0064693D01*
X0062585Y0063458D02*
X0065054Y0063458D01*
X0064437Y0061607D02*
X0064437Y0065310D01*
X0062585Y0063458D01*
X0061371Y0062224D02*
X0060753Y0061607D01*
X0059519Y0061607D01*
X0062115Y0057307D02*
X0063967Y0055455D01*
X0063967Y0057924D01*
X0065819Y0057307D02*
X0062115Y0057307D01*
X0062733Y0054241D02*
X0063967Y0054241D01*
X0064584Y0053623D01*
X0064584Y0051772D01*
X0064584Y0053006D02*
X0065819Y0054241D01*
X0062733Y0054241D02*
X0062115Y0053623D01*
X0062115Y0051772D01*
X0065819Y0051772D01*
X0054546Y0041978D02*
X0052077Y0041978D01*
X0050863Y0042595D02*
X0050246Y0041978D01*
X0048394Y0041978D01*
X0048394Y0043830D02*
X0050246Y0043830D01*
X0050863Y0043212D01*
X0050863Y0042595D01*
X0050246Y0041978D02*
X0050863Y0041361D01*
X0050863Y0040744D01*
X0050246Y0040126D01*
X0048394Y0040126D01*
X0048394Y0043830D01*
X0053312Y0043212D02*
X0053312Y0040744D01*
X0059174Y0032830D02*
X0061025Y0032830D01*
X0061642Y0032212D01*
X0061642Y0030978D01*
X0061025Y0030361D01*
X0059174Y0030361D01*
X0060408Y0030361D02*
X0061642Y0029126D01*
X0062857Y0029126D02*
X0065326Y0029126D01*
X0066540Y0029126D02*
X0069009Y0029126D01*
X0067774Y0029126D02*
X0067774Y0032830D01*
X0066540Y0031595D01*
X0064091Y0032830D02*
X0064091Y0029126D01*
X0062857Y0031595D02*
X0064091Y0032830D01*
X0059174Y0032830D02*
X0059174Y0029126D01*
X0066850Y0019160D02*
X0066233Y0018543D01*
X0066233Y0016074D01*
X0066850Y0015457D01*
X0068084Y0015457D01*
X0068701Y0016074D01*
X0069916Y0015457D02*
X0072384Y0017926D01*
X0072384Y0018543D01*
X0071767Y0019160D01*
X0070533Y0019160D01*
X0069916Y0018543D01*
X0068701Y0018543D02*
X0068084Y0019160D01*
X0066850Y0019160D01*
X0069916Y0015457D02*
X0072384Y0015457D01*
X0079158Y0025437D02*
X0081009Y0025437D01*
X0081627Y0026055D01*
X0081627Y0028523D01*
X0081009Y0029141D01*
X0079158Y0029141D01*
X0079158Y0025437D01*
X0082841Y0025437D02*
X0085310Y0025437D01*
X0084075Y0025437D02*
X0084075Y0029141D01*
X0082841Y0027906D01*
X0088733Y0028865D02*
X0088733Y0025162D01*
X0090584Y0025162D01*
X0091201Y0025779D01*
X0091201Y0028248D01*
X0090584Y0028865D01*
X0088733Y0028865D01*
X0092416Y0028248D02*
X0093033Y0028865D01*
X0094267Y0028865D01*
X0094884Y0028248D01*
X0094884Y0027631D01*
X0092416Y0025162D01*
X0094884Y0025162D01*
X0098906Y0036237D02*
X0098906Y0039940D01*
X0100757Y0039940D01*
X0101375Y0039323D01*
X0101375Y0038088D01*
X0100757Y0037471D01*
X0098906Y0037471D01*
X0100140Y0037471D02*
X0101375Y0036237D01*
X0102589Y0036854D02*
X0103206Y0036237D01*
X0104440Y0036237D01*
X0105058Y0036854D01*
X0105058Y0037471D01*
X0104440Y0038088D01*
X0103823Y0038088D01*
X0104440Y0038088D02*
X0105058Y0038705D01*
X0105058Y0039323D01*
X0104440Y0039940D01*
X0103206Y0039940D01*
X0102589Y0039323D01*
X0113693Y0047071D02*
X0113693Y0050774D01*
X0115545Y0050774D01*
X0116162Y0050157D01*
X0116162Y0048923D01*
X0115545Y0048306D01*
X0113693Y0048306D01*
X0114928Y0048306D02*
X0116162Y0047071D01*
X0117376Y0047071D02*
X0119845Y0049540D01*
X0119845Y0050157D01*
X0119228Y0050774D01*
X0117993Y0050774D01*
X0117376Y0050157D01*
X0117376Y0047071D02*
X0119845Y0047071D01*
X0132246Y0049111D02*
X0132246Y0052814D01*
X0134098Y0052814D01*
X0134715Y0052197D01*
X0134715Y0050962D01*
X0134098Y0050345D01*
X0132246Y0050345D01*
X0133481Y0050345D02*
X0134715Y0049111D01*
X0135929Y0049111D02*
X0138398Y0049111D01*
X0137164Y0049111D02*
X0137164Y0052814D01*
X0135929Y0051579D01*
X0139613Y0052197D02*
X0140230Y0052814D01*
X0141464Y0052814D01*
X0142081Y0052197D01*
X0142081Y0051579D01*
X0141464Y0050962D01*
X0142081Y0050345D01*
X0142081Y0049728D01*
X0141464Y0049111D01*
X0140230Y0049111D01*
X0139613Y0049728D01*
X0140847Y0050962D02*
X0141464Y0050962D01*
X0150868Y0047696D02*
X0150868Y0043993D01*
X0150868Y0045227D02*
X0152720Y0045227D01*
X0153337Y0045844D01*
X0153337Y0047078D01*
X0152720Y0047696D01*
X0150868Y0047696D01*
X0152103Y0045227D02*
X0153337Y0043993D01*
X0154551Y0043993D02*
X0157020Y0043993D01*
X0155786Y0043993D02*
X0155786Y0047696D01*
X0154551Y0046461D01*
X0158235Y0045844D02*
X0160703Y0045844D01*
X0160086Y0043993D02*
X0160086Y0047696D01*
X0158235Y0045844D01*
X0147652Y0026239D02*
X0146418Y0025622D01*
X0145183Y0024387D01*
X0147035Y0024387D01*
X0147652Y0023770D01*
X0147652Y0023153D01*
X0147035Y0022536D01*
X0145801Y0022536D01*
X0145183Y0023153D01*
X0145183Y0024387D01*
X0143969Y0023153D02*
X0143352Y0022536D01*
X0142117Y0022536D01*
X0141500Y0023153D01*
X0141500Y0025622D01*
X0142117Y0026239D01*
X0143352Y0026239D01*
X0143969Y0025622D01*
X0129424Y0028074D02*
X0128807Y0027457D01*
X0127572Y0027457D01*
X0126955Y0028074D01*
X0125741Y0028074D02*
X0125123Y0027457D01*
X0123889Y0027457D01*
X0123272Y0028074D01*
X0123272Y0030543D01*
X0123889Y0031160D01*
X0125123Y0031160D01*
X0125741Y0030543D01*
X0126955Y0031160D02*
X0126955Y0029309D01*
X0128189Y0029926D01*
X0128807Y0029926D01*
X0129424Y0029309D01*
X0129424Y0028074D01*
X0129424Y0031160D02*
X0126955Y0031160D01*
X0130808Y0060162D02*
X0130808Y0062013D01*
X0131425Y0062631D01*
X0132660Y0062631D01*
X0133277Y0062013D01*
X0133277Y0060162D01*
X0133277Y0061396D02*
X0134511Y0062631D01*
X0133894Y0063845D02*
X0134511Y0064462D01*
X0134511Y0065697D01*
X0133894Y0066314D01*
X0132660Y0066314D01*
X0132043Y0065697D01*
X0132043Y0065079D01*
X0132660Y0063845D01*
X0130808Y0063845D01*
X0130808Y0066314D01*
X0130808Y0060162D02*
X0134511Y0060162D01*
X0125677Y0072638D02*
X0121974Y0072638D01*
X0121974Y0074490D01*
X0122591Y0075107D01*
X0123825Y0075107D01*
X0124442Y0074490D01*
X0124442Y0072638D01*
X0124442Y0073872D02*
X0125677Y0075107D01*
X0125060Y0076321D02*
X0125677Y0076938D01*
X0125677Y0078173D01*
X0125060Y0078790D01*
X0122591Y0078790D01*
X0121974Y0078173D01*
X0121974Y0076938D01*
X0122591Y0076321D01*
X0123208Y0076321D01*
X0123825Y0076938D01*
X0123825Y0078790D01*
X0109456Y0079343D02*
X0108222Y0078109D01*
X0108222Y0078726D02*
X0108222Y0076874D01*
X0109456Y0076874D02*
X0105753Y0076874D01*
X0105753Y0078726D01*
X0106370Y0079343D01*
X0107605Y0079343D01*
X0108222Y0078726D01*
X0108839Y0080557D02*
X0109456Y0080557D01*
X0108839Y0080557D02*
X0106370Y0083026D01*
X0105753Y0083026D01*
X0105753Y0080557D01*
X0106069Y0097599D02*
X0104835Y0098833D01*
X0105452Y0098833D02*
X0103601Y0098833D01*
X0103601Y0097599D02*
X0103601Y0101302D01*
X0105452Y0101302D01*
X0106069Y0100685D01*
X0106069Y0099450D01*
X0105452Y0098833D01*
X0107284Y0097599D02*
X0109752Y0097599D01*
X0110967Y0097599D02*
X0113436Y0100068D01*
X0113436Y0100685D01*
X0112818Y0101302D01*
X0111584Y0101302D01*
X0110967Y0100685D01*
X0108518Y0101302D02*
X0108518Y0097599D01*
X0110967Y0097599D02*
X0113436Y0097599D01*
X0108518Y0101302D02*
X0107284Y0100068D01*
X0102637Y0099831D02*
X0101403Y0098597D01*
X0101403Y0099214D02*
X0101403Y0097362D01*
X0102637Y0097362D02*
X0098934Y0097362D01*
X0098934Y0099214D01*
X0099551Y0099831D01*
X0100786Y0099831D01*
X0101403Y0099214D01*
X0101403Y0101046D02*
X0100786Y0101663D01*
X0100786Y0102897D01*
X0101403Y0103514D01*
X0102020Y0103514D01*
X0102637Y0102897D01*
X0102637Y0101663D01*
X0102020Y0101046D01*
X0101403Y0101046D01*
X0100786Y0101663D02*
X0100169Y0101046D01*
X0099551Y0101046D01*
X0098934Y0101663D01*
X0098934Y0102897D01*
X0099551Y0103514D01*
X0100169Y0103514D01*
X0100786Y0102897D01*
X0123714Y0100766D02*
X0123714Y0098298D01*
X0124331Y0097083D02*
X0123714Y0096466D01*
X0123714Y0095232D01*
X0124331Y0094615D01*
X0126800Y0094615D01*
X0127417Y0095232D01*
X0127417Y0096466D01*
X0126800Y0097083D01*
X0126800Y0098298D02*
X0127417Y0098298D01*
X0126800Y0098298D02*
X0124331Y0100766D01*
X0123714Y0100766D01*
X0133753Y0100189D02*
X0133753Y0098954D01*
X0134370Y0098337D01*
X0134988Y0098337D01*
X0135605Y0098954D01*
X0135605Y0100189D01*
X0136222Y0100806D01*
X0136839Y0100806D01*
X0137456Y0100189D01*
X0137456Y0098954D01*
X0136839Y0098337D01*
X0136222Y0098337D01*
X0135605Y0098954D01*
X0135605Y0100189D02*
X0134988Y0100806D01*
X0134370Y0100806D01*
X0133753Y0100189D01*
X0134370Y0097123D02*
X0133753Y0096506D01*
X0133753Y0095271D01*
X0134370Y0094654D01*
X0136839Y0094654D01*
X0137456Y0095271D01*
X0137456Y0096506D01*
X0136839Y0097123D01*
X0076649Y0074900D02*
X0076649Y0073666D01*
X0076032Y0073048D01*
X0076032Y0071834D02*
X0076649Y0071217D01*
X0076649Y0069982D01*
X0076032Y0069365D01*
X0073563Y0069365D01*
X0072946Y0069982D01*
X0072946Y0071217D01*
X0073563Y0071834D01*
X0073563Y0073048D02*
X0072946Y0073666D01*
X0072946Y0074900D01*
X0073563Y0075517D01*
X0074180Y0075517D01*
X0074798Y0074900D01*
X0075415Y0075517D01*
X0076032Y0075517D01*
X0076649Y0074900D01*
X0074798Y0074900D02*
X0074798Y0074283D01*
X0076649Y0068144D02*
X0076649Y0066910D01*
X0076649Y0067527D02*
X0072946Y0067527D01*
X0072946Y0066910D02*
X0072946Y0068144D01*
X0067192Y0082040D02*
X0065958Y0082040D01*
X0065341Y0082657D01*
X0064127Y0082657D02*
X0063509Y0082040D01*
X0062275Y0082040D01*
X0061658Y0082657D01*
X0061658Y0085126D01*
X0062275Y0085743D01*
X0063509Y0085743D01*
X0064127Y0085126D01*
X0065341Y0085126D02*
X0065958Y0085743D01*
X0067192Y0085743D01*
X0067810Y0085126D01*
X0067810Y0084509D01*
X0067192Y0083891D01*
X0067810Y0083274D01*
X0067810Y0082657D01*
X0067192Y0082040D01*
X0067192Y0083891D02*
X0066575Y0083891D01*
X0025438Y0083858D02*
X0025438Y0082624D01*
X0024821Y0082006D01*
X0022969Y0082006D01*
X0022969Y0080772D02*
X0022969Y0084475D01*
X0024821Y0084475D01*
X0025438Y0083858D01*
X0024204Y0082006D02*
X0025438Y0080772D01*
X0021755Y0081389D02*
X0021755Y0083858D01*
X0021138Y0084475D01*
X0019903Y0084475D01*
X0019286Y0083858D01*
X0019286Y0081389D01*
X0019903Y0080772D01*
X0021138Y0080772D01*
X0021755Y0081389D01*
X0018072Y0084475D02*
X0015603Y0084475D01*
X0016837Y0084475D02*
X0016837Y0080772D01*
X0014389Y0081389D02*
X0014389Y0083858D01*
X0013771Y0084475D01*
X0012537Y0084475D01*
X0011920Y0083858D01*
X0011920Y0081389D01*
X0012537Y0080772D01*
X0013771Y0080772D01*
X0014389Y0081389D01*
X0013161Y0078475D02*
X0010692Y0078475D01*
X0010692Y0074772D01*
X0009471Y0074772D02*
X0008237Y0074772D01*
X0008854Y0074772D02*
X0008854Y0078475D01*
X0008237Y0078475D02*
X0009471Y0078475D01*
X0010692Y0076624D02*
X0011926Y0076624D01*
X0010705Y0080772D02*
X0010705Y0084475D01*
X0009471Y0083241D01*
X0008237Y0084475D01*
X0008237Y0080772D01*
X0043918Y0132567D02*
X0047622Y0132567D01*
X0047622Y0135036D01*
X0047622Y0136250D02*
X0047622Y0138719D01*
X0047622Y0139934D02*
X0047622Y0141785D01*
X0047004Y0142402D01*
X0044536Y0142402D01*
X0043918Y0141785D01*
X0043918Y0139934D01*
X0047622Y0139934D01*
X0049430Y0140969D02*
X0053133Y0140969D01*
X0053133Y0139735D02*
X0053133Y0142203D01*
X0053133Y0143418D02*
X0052516Y0143418D01*
X0050048Y0145887D01*
X0049430Y0145887D01*
X0049430Y0143418D01*
X0049430Y0140969D02*
X0050665Y0139735D01*
X0051282Y0138520D02*
X0051899Y0137903D01*
X0051899Y0136052D01*
X0051899Y0137286D02*
X0053133Y0138520D01*
X0051282Y0138520D02*
X0050048Y0138520D01*
X0049430Y0137903D01*
X0049430Y0136052D01*
X0053133Y0136052D01*
X0047622Y0136250D02*
X0043918Y0136250D01*
X0043918Y0138719D01*
X0045770Y0137485D02*
X0045770Y0136250D01*
X0045770Y0143617D02*
X0045770Y0146086D01*
X0043918Y0145468D02*
X0045770Y0143617D01*
X0047622Y0145468D02*
X0043918Y0145468D01*
X0044410Y0154032D02*
X0044410Y0157735D01*
X0043176Y0156501D01*
X0043176Y0154032D02*
X0045644Y0154032D01*
X0041961Y0154032D02*
X0039492Y0154032D01*
X0040727Y0154032D02*
X0040727Y0157735D01*
X0039492Y0156501D01*
X0038278Y0157118D02*
X0037661Y0157735D01*
X0036426Y0157735D01*
X0035809Y0157118D01*
X0035809Y0154649D01*
X0036426Y0154032D01*
X0037661Y0154032D01*
X0038278Y0154649D01*
X0047056Y0169386D02*
X0048291Y0169386D01*
X0048908Y0170003D01*
X0050122Y0169386D02*
X0052591Y0169386D01*
X0053805Y0169386D02*
X0056274Y0171855D01*
X0056274Y0172472D01*
X0055657Y0173089D01*
X0054423Y0173089D01*
X0053805Y0172472D01*
X0051357Y0173089D02*
X0051357Y0169386D01*
X0053805Y0169386D02*
X0056274Y0169386D01*
X0051357Y0173089D02*
X0050122Y0171855D01*
X0048908Y0172472D02*
X0048291Y0173089D01*
X0047056Y0173089D01*
X0046439Y0172472D01*
X0046439Y0170003D01*
X0047056Y0169386D01*
D13*
X0071244Y0100110D02*
X0075181Y0100110D01*
X0073213Y0096173D01*
X0071244Y0100110D01*
X0081425Y0096173D02*
X0085362Y0096173D01*
X0083394Y0100110D01*
X0081425Y0096173D01*
X0082386Y0042079D02*
X0080417Y0038142D01*
X0084354Y0038142D01*
X0082386Y0042079D01*
X0090598Y0042079D02*
X0094535Y0042079D01*
X0092567Y0038142D01*
X0090598Y0042079D01*
D14*
X0092567Y0037910D03*
X0082386Y0042310D03*
X0073213Y0095942D03*
X0083394Y0100342D03*
D15*
X0035940Y0036034D02*
X0038808Y0031939D01*
X0042290Y0031325D01*
X0041676Y0027843D01*
X0044544Y0023747D01*
X0048026Y0023133D01*
X0052121Y0026001D01*
X0052735Y0029483D01*
X0049867Y0033579D01*
X0046386Y0034193D01*
X0046999Y0037674D01*
X0044132Y0041770D01*
X0040650Y0042384D01*
X0041264Y0045866D01*
X0038396Y0049962D01*
X0034914Y0050576D01*
X0035528Y0054057D01*
X0032660Y0058153D01*
X0029178Y0058767D01*
X0029792Y0062249D01*
X0026924Y0066345D01*
X0023442Y0066959D01*
X0024056Y0070441D01*
X0021189Y0074536D01*
X0017707Y0075150D01*
X0013611Y0072282D01*
X0012997Y0068801D01*
X0015865Y0064705D01*
X0019347Y0064091D01*
X0018733Y0060609D01*
X0021601Y0056513D01*
X0025082Y0055899D01*
X0024469Y0052417D01*
X0027336Y0048322D01*
X0030818Y0047708D01*
X0030204Y0044226D01*
X0033072Y0040130D01*
X0036554Y0039516D01*
X0035940Y0036034D01*
X0038965Y0116630D02*
X0023965Y0116630D01*
X0021465Y0119130D01*
X0021465Y0124130D01*
X0023965Y0126630D01*
X0021465Y0129130D01*
X0021465Y0134130D01*
X0023965Y0136630D01*
X0021465Y0139130D01*
X0021465Y0144130D01*
X0023965Y0146630D01*
X0038965Y0146630D01*
X0041465Y0144130D01*
X0041465Y0139130D01*
X0038965Y0136630D01*
X0041465Y0134130D01*
X0041465Y0129130D01*
X0038965Y0126630D01*
X0041465Y0124130D01*
X0041465Y0119130D01*
X0038965Y0116630D01*
X0064484Y0145044D02*
X0064484Y0149244D01*
X0064484Y0153244D01*
X0064484Y0157444D01*
X0064486Y0157520D01*
X0064492Y0157596D01*
X0064501Y0157671D01*
X0064515Y0157746D01*
X0064532Y0157820D01*
X0064553Y0157893D01*
X0064577Y0157965D01*
X0064606Y0158036D01*
X0064637Y0158105D01*
X0064672Y0158172D01*
X0064711Y0158237D01*
X0064753Y0158301D01*
X0064798Y0158362D01*
X0064846Y0158421D01*
X0064897Y0158477D01*
X0064951Y0158531D01*
X0065007Y0158582D01*
X0065066Y0158630D01*
X0065127Y0158675D01*
X0065191Y0158717D01*
X0065256Y0158756D01*
X0065323Y0158791D01*
X0065392Y0158822D01*
X0065463Y0158851D01*
X0065535Y0158875D01*
X0065608Y0158896D01*
X0065682Y0158913D01*
X0065757Y0158927D01*
X0065832Y0158936D01*
X0065908Y0158942D01*
X0065984Y0158944D01*
X0064484Y0153244D02*
X0064572Y0153242D01*
X0064661Y0153236D01*
X0064749Y0153226D01*
X0064836Y0153213D01*
X0064923Y0153195D01*
X0065009Y0153174D01*
X0065094Y0153149D01*
X0065177Y0153120D01*
X0065260Y0153087D01*
X0065340Y0153051D01*
X0065419Y0153012D01*
X0065497Y0152969D01*
X0065572Y0152922D01*
X0065645Y0152872D01*
X0065716Y0152819D01*
X0065785Y0152763D01*
X0065851Y0152704D01*
X0065914Y0152642D01*
X0065974Y0152578D01*
X0066032Y0152511D01*
X0066086Y0152441D01*
X0066138Y0152369D01*
X0066186Y0152295D01*
X0066231Y0152218D01*
X0066272Y0152140D01*
X0066310Y0152060D01*
X0066344Y0151979D01*
X0066375Y0151896D01*
X0066402Y0151811D01*
X0066425Y0151726D01*
X0066444Y0151640D01*
X0066460Y0151552D01*
X0066472Y0151465D01*
X0066480Y0151377D01*
X0066484Y0151288D01*
X0066484Y0151200D01*
X0066480Y0151111D01*
X0066472Y0151023D01*
X0066460Y0150936D01*
X0066444Y0150848D01*
X0066425Y0150762D01*
X0066402Y0150677D01*
X0066375Y0150592D01*
X0066344Y0150509D01*
X0066310Y0150428D01*
X0066272Y0150348D01*
X0066231Y0150270D01*
X0066186Y0150193D01*
X0066138Y0150119D01*
X0066086Y0150047D01*
X0066032Y0149977D01*
X0065974Y0149910D01*
X0065914Y0149846D01*
X0065851Y0149784D01*
X0065785Y0149725D01*
X0065716Y0149669D01*
X0065645Y0149616D01*
X0065572Y0149566D01*
X0065497Y0149519D01*
X0065419Y0149476D01*
X0065340Y0149437D01*
X0065260Y0149401D01*
X0065177Y0149368D01*
X0065094Y0149339D01*
X0065009Y0149314D01*
X0064923Y0149293D01*
X0064836Y0149275D01*
X0064749Y0149262D01*
X0064661Y0149252D01*
X0064572Y0149246D01*
X0064484Y0149244D01*
X0064484Y0145044D02*
X0064486Y0144968D01*
X0064492Y0144892D01*
X0064501Y0144817D01*
X0064515Y0144742D01*
X0064532Y0144668D01*
X0064553Y0144595D01*
X0064577Y0144523D01*
X0064606Y0144452D01*
X0064637Y0144383D01*
X0064672Y0144316D01*
X0064711Y0144251D01*
X0064753Y0144187D01*
X0064798Y0144126D01*
X0064846Y0144067D01*
X0064897Y0144011D01*
X0064951Y0143957D01*
X0065007Y0143906D01*
X0065066Y0143858D01*
X0065127Y0143813D01*
X0065191Y0143771D01*
X0065256Y0143732D01*
X0065323Y0143697D01*
X0065392Y0143666D01*
X0065463Y0143637D01*
X0065535Y0143613D01*
X0065608Y0143592D01*
X0065682Y0143575D01*
X0065757Y0143561D01*
X0065832Y0143552D01*
X0065908Y0143546D01*
X0065984Y0143544D01*
X0097984Y0143544D02*
X0098060Y0143546D01*
X0098136Y0143552D01*
X0098211Y0143561D01*
X0098286Y0143575D01*
X0098360Y0143592D01*
X0098433Y0143613D01*
X0098505Y0143637D01*
X0098576Y0143666D01*
X0098645Y0143697D01*
X0098712Y0143732D01*
X0098777Y0143771D01*
X0098841Y0143813D01*
X0098902Y0143858D01*
X0098961Y0143906D01*
X0099017Y0143957D01*
X0099071Y0144011D01*
X0099122Y0144067D01*
X0099170Y0144126D01*
X0099215Y0144187D01*
X0099257Y0144251D01*
X0099296Y0144316D01*
X0099331Y0144383D01*
X0099362Y0144452D01*
X0099391Y0144523D01*
X0099415Y0144595D01*
X0099436Y0144668D01*
X0099453Y0144742D01*
X0099467Y0144817D01*
X0099476Y0144892D01*
X0099482Y0144968D01*
X0099484Y0145044D01*
X0099484Y0157444D01*
X0099482Y0157520D01*
X0099476Y0157596D01*
X0099467Y0157671D01*
X0099453Y0157746D01*
X0099436Y0157820D01*
X0099415Y0157893D01*
X0099391Y0157965D01*
X0099362Y0158036D01*
X0099331Y0158105D01*
X0099296Y0158172D01*
X0099257Y0158237D01*
X0099215Y0158301D01*
X0099170Y0158362D01*
X0099122Y0158421D01*
X0099071Y0158477D01*
X0099017Y0158531D01*
X0098961Y0158582D01*
X0098902Y0158630D01*
X0098841Y0158675D01*
X0098777Y0158717D01*
X0098712Y0158756D01*
X0098645Y0158791D01*
X0098576Y0158822D01*
X0098505Y0158851D01*
X0098433Y0158875D01*
X0098360Y0158896D01*
X0098286Y0158913D01*
X0098211Y0158927D01*
X0098136Y0158936D01*
X0098060Y0158942D01*
X0097984Y0158944D01*
X0137161Y0141145D02*
X0137161Y0136945D01*
X0137161Y0132945D01*
X0137161Y0128745D01*
X0137163Y0128669D01*
X0137169Y0128593D01*
X0137178Y0128518D01*
X0137192Y0128443D01*
X0137209Y0128369D01*
X0137230Y0128296D01*
X0137254Y0128224D01*
X0137283Y0128153D01*
X0137314Y0128084D01*
X0137349Y0128017D01*
X0137388Y0127952D01*
X0137430Y0127888D01*
X0137475Y0127827D01*
X0137523Y0127768D01*
X0137574Y0127712D01*
X0137628Y0127658D01*
X0137684Y0127607D01*
X0137743Y0127559D01*
X0137804Y0127514D01*
X0137868Y0127472D01*
X0137933Y0127433D01*
X0138000Y0127398D01*
X0138069Y0127367D01*
X0138140Y0127338D01*
X0138212Y0127314D01*
X0138285Y0127293D01*
X0138359Y0127276D01*
X0138434Y0127262D01*
X0138509Y0127253D01*
X0138585Y0127247D01*
X0138661Y0127245D01*
X0137161Y0132945D02*
X0137249Y0132947D01*
X0137338Y0132953D01*
X0137426Y0132963D01*
X0137513Y0132976D01*
X0137600Y0132994D01*
X0137686Y0133015D01*
X0137771Y0133040D01*
X0137854Y0133069D01*
X0137937Y0133102D01*
X0138017Y0133138D01*
X0138096Y0133177D01*
X0138174Y0133220D01*
X0138249Y0133267D01*
X0138322Y0133317D01*
X0138393Y0133370D01*
X0138462Y0133426D01*
X0138528Y0133485D01*
X0138591Y0133547D01*
X0138651Y0133611D01*
X0138709Y0133678D01*
X0138763Y0133748D01*
X0138815Y0133820D01*
X0138863Y0133894D01*
X0138908Y0133971D01*
X0138949Y0134049D01*
X0138987Y0134129D01*
X0139021Y0134210D01*
X0139052Y0134293D01*
X0139079Y0134378D01*
X0139102Y0134463D01*
X0139121Y0134549D01*
X0139137Y0134637D01*
X0139149Y0134724D01*
X0139157Y0134812D01*
X0139161Y0134901D01*
X0139161Y0134989D01*
X0139157Y0135078D01*
X0139149Y0135166D01*
X0139137Y0135253D01*
X0139121Y0135341D01*
X0139102Y0135427D01*
X0139079Y0135512D01*
X0139052Y0135597D01*
X0139021Y0135680D01*
X0138987Y0135761D01*
X0138949Y0135841D01*
X0138908Y0135919D01*
X0138863Y0135996D01*
X0138815Y0136070D01*
X0138763Y0136142D01*
X0138709Y0136212D01*
X0138651Y0136279D01*
X0138591Y0136343D01*
X0138528Y0136405D01*
X0138462Y0136464D01*
X0138393Y0136520D01*
X0138322Y0136573D01*
X0138249Y0136623D01*
X0138174Y0136670D01*
X0138096Y0136713D01*
X0138017Y0136752D01*
X0137937Y0136788D01*
X0137854Y0136821D01*
X0137771Y0136850D01*
X0137686Y0136875D01*
X0137600Y0136896D01*
X0137513Y0136914D01*
X0137426Y0136927D01*
X0137338Y0136937D01*
X0137249Y0136943D01*
X0137161Y0136945D01*
X0137161Y0141145D02*
X0137163Y0141221D01*
X0137169Y0141297D01*
X0137178Y0141372D01*
X0137192Y0141447D01*
X0137209Y0141521D01*
X0137230Y0141594D01*
X0137254Y0141666D01*
X0137283Y0141737D01*
X0137314Y0141806D01*
X0137349Y0141873D01*
X0137388Y0141938D01*
X0137430Y0142002D01*
X0137475Y0142063D01*
X0137523Y0142122D01*
X0137574Y0142178D01*
X0137628Y0142232D01*
X0137684Y0142283D01*
X0137743Y0142331D01*
X0137804Y0142376D01*
X0137868Y0142418D01*
X0137933Y0142457D01*
X0138000Y0142492D01*
X0138069Y0142523D01*
X0138140Y0142552D01*
X0138212Y0142576D01*
X0138285Y0142597D01*
X0138359Y0142614D01*
X0138434Y0142628D01*
X0138509Y0142637D01*
X0138585Y0142643D01*
X0138661Y0142645D01*
X0170661Y0142645D02*
X0170737Y0142643D01*
X0170813Y0142637D01*
X0170888Y0142628D01*
X0170963Y0142614D01*
X0171037Y0142597D01*
X0171110Y0142576D01*
X0171182Y0142552D01*
X0171253Y0142523D01*
X0171322Y0142492D01*
X0171389Y0142457D01*
X0171454Y0142418D01*
X0171518Y0142376D01*
X0171579Y0142331D01*
X0171638Y0142283D01*
X0171694Y0142232D01*
X0171748Y0142178D01*
X0171799Y0142122D01*
X0171847Y0142063D01*
X0171892Y0142002D01*
X0171934Y0141938D01*
X0171973Y0141873D01*
X0172008Y0141806D01*
X0172039Y0141737D01*
X0172068Y0141666D01*
X0172092Y0141594D01*
X0172113Y0141521D01*
X0172130Y0141447D01*
X0172144Y0141372D01*
X0172153Y0141297D01*
X0172159Y0141221D01*
X0172161Y0141145D01*
X0172161Y0128745D01*
X0172159Y0128669D01*
X0172153Y0128593D01*
X0172144Y0128518D01*
X0172130Y0128443D01*
X0172113Y0128369D01*
X0172092Y0128296D01*
X0172068Y0128224D01*
X0172039Y0128153D01*
X0172008Y0128084D01*
X0171973Y0128017D01*
X0171934Y0127952D01*
X0171892Y0127888D01*
X0171847Y0127827D01*
X0171799Y0127768D01*
X0171748Y0127712D01*
X0171694Y0127658D01*
X0171638Y0127607D01*
X0171579Y0127559D01*
X0171518Y0127514D01*
X0171454Y0127472D01*
X0171389Y0127433D01*
X0171322Y0127398D01*
X0171253Y0127367D01*
X0171182Y0127338D01*
X0171110Y0127314D01*
X0171037Y0127293D01*
X0170963Y0127276D01*
X0170888Y0127262D01*
X0170813Y0127253D01*
X0170737Y0127247D01*
X0170661Y0127245D01*
X0178929Y0078472D02*
X0179005Y0078470D01*
X0179081Y0078464D01*
X0179156Y0078455D01*
X0179231Y0078441D01*
X0179305Y0078424D01*
X0179378Y0078403D01*
X0179450Y0078379D01*
X0179521Y0078350D01*
X0179590Y0078319D01*
X0179657Y0078284D01*
X0179722Y0078245D01*
X0179786Y0078203D01*
X0179847Y0078158D01*
X0179906Y0078110D01*
X0179962Y0078059D01*
X0180016Y0078005D01*
X0180067Y0077949D01*
X0180115Y0077890D01*
X0180160Y0077829D01*
X0180202Y0077765D01*
X0180241Y0077700D01*
X0180276Y0077633D01*
X0180307Y0077564D01*
X0180336Y0077493D01*
X0180360Y0077421D01*
X0180381Y0077348D01*
X0180398Y0077274D01*
X0180412Y0077199D01*
X0180421Y0077124D01*
X0180427Y0077048D01*
X0180429Y0076972D01*
X0180429Y0064572D01*
X0180427Y0064496D01*
X0180421Y0064420D01*
X0180412Y0064345D01*
X0180398Y0064270D01*
X0180381Y0064196D01*
X0180360Y0064123D01*
X0180336Y0064051D01*
X0180307Y0063980D01*
X0180276Y0063911D01*
X0180241Y0063844D01*
X0180202Y0063779D01*
X0180160Y0063715D01*
X0180115Y0063654D01*
X0180067Y0063595D01*
X0180016Y0063539D01*
X0179962Y0063485D01*
X0179906Y0063434D01*
X0179847Y0063386D01*
X0179786Y0063341D01*
X0179722Y0063299D01*
X0179657Y0063260D01*
X0179590Y0063225D01*
X0179521Y0063194D01*
X0179450Y0063165D01*
X0179378Y0063141D01*
X0179305Y0063120D01*
X0179231Y0063103D01*
X0179156Y0063089D01*
X0179081Y0063080D01*
X0179005Y0063074D01*
X0178929Y0063072D01*
X0146929Y0063072D02*
X0146853Y0063074D01*
X0146777Y0063080D01*
X0146702Y0063089D01*
X0146627Y0063103D01*
X0146553Y0063120D01*
X0146480Y0063141D01*
X0146408Y0063165D01*
X0146337Y0063194D01*
X0146268Y0063225D01*
X0146201Y0063260D01*
X0146136Y0063299D01*
X0146072Y0063341D01*
X0146011Y0063386D01*
X0145952Y0063434D01*
X0145896Y0063485D01*
X0145842Y0063539D01*
X0145791Y0063595D01*
X0145743Y0063654D01*
X0145698Y0063715D01*
X0145656Y0063779D01*
X0145617Y0063844D01*
X0145582Y0063911D01*
X0145551Y0063980D01*
X0145522Y0064051D01*
X0145498Y0064123D01*
X0145477Y0064196D01*
X0145460Y0064270D01*
X0145446Y0064345D01*
X0145437Y0064420D01*
X0145431Y0064496D01*
X0145429Y0064572D01*
X0145429Y0068772D01*
X0145429Y0072772D01*
X0145429Y0076972D01*
X0145431Y0077048D01*
X0145437Y0077124D01*
X0145446Y0077199D01*
X0145460Y0077274D01*
X0145477Y0077348D01*
X0145498Y0077421D01*
X0145522Y0077493D01*
X0145551Y0077564D01*
X0145582Y0077633D01*
X0145617Y0077700D01*
X0145656Y0077765D01*
X0145698Y0077829D01*
X0145743Y0077890D01*
X0145791Y0077949D01*
X0145842Y0078005D01*
X0145896Y0078059D01*
X0145952Y0078110D01*
X0146011Y0078158D01*
X0146072Y0078203D01*
X0146136Y0078245D01*
X0146201Y0078284D01*
X0146268Y0078319D01*
X0146337Y0078350D01*
X0146408Y0078379D01*
X0146480Y0078403D01*
X0146553Y0078424D01*
X0146627Y0078441D01*
X0146702Y0078455D01*
X0146777Y0078464D01*
X0146853Y0078470D01*
X0146929Y0078472D01*
X0145429Y0072772D02*
X0145517Y0072770D01*
X0145606Y0072764D01*
X0145694Y0072754D01*
X0145781Y0072741D01*
X0145868Y0072723D01*
X0145954Y0072702D01*
X0146039Y0072677D01*
X0146122Y0072648D01*
X0146205Y0072615D01*
X0146285Y0072579D01*
X0146364Y0072540D01*
X0146442Y0072497D01*
X0146517Y0072450D01*
X0146590Y0072400D01*
X0146661Y0072347D01*
X0146730Y0072291D01*
X0146796Y0072232D01*
X0146859Y0072170D01*
X0146919Y0072106D01*
X0146977Y0072039D01*
X0147031Y0071969D01*
X0147083Y0071897D01*
X0147131Y0071823D01*
X0147176Y0071746D01*
X0147217Y0071668D01*
X0147255Y0071588D01*
X0147289Y0071507D01*
X0147320Y0071424D01*
X0147347Y0071339D01*
X0147370Y0071254D01*
X0147389Y0071168D01*
X0147405Y0071080D01*
X0147417Y0070993D01*
X0147425Y0070905D01*
X0147429Y0070816D01*
X0147429Y0070728D01*
X0147425Y0070639D01*
X0147417Y0070551D01*
X0147405Y0070464D01*
X0147389Y0070376D01*
X0147370Y0070290D01*
X0147347Y0070205D01*
X0147320Y0070120D01*
X0147289Y0070037D01*
X0147255Y0069956D01*
X0147217Y0069876D01*
X0147176Y0069798D01*
X0147131Y0069721D01*
X0147083Y0069647D01*
X0147031Y0069575D01*
X0146977Y0069505D01*
X0146919Y0069438D01*
X0146859Y0069374D01*
X0146796Y0069312D01*
X0146730Y0069253D01*
X0146661Y0069197D01*
X0146590Y0069144D01*
X0146517Y0069094D01*
X0146442Y0069047D01*
X0146364Y0069004D01*
X0146285Y0068965D01*
X0146205Y0068929D01*
X0146122Y0068896D01*
X0146039Y0068867D01*
X0145954Y0068842D01*
X0145868Y0068821D01*
X0145781Y0068803D01*
X0145694Y0068790D01*
X0145606Y0068780D01*
X0145517Y0068774D01*
X0145429Y0068772D01*
D16*
X0145429Y0064472D02*
X0180429Y0064472D01*
X0172161Y0128645D02*
X0137161Y0128645D01*
X0099484Y0144944D02*
X0064484Y0144944D01*
D17*
X0040194Y0148261D02*
X0039594Y0147661D01*
X0038393Y0147661D01*
X0037792Y0148261D01*
X0036511Y0148862D02*
X0036511Y0151264D01*
X0037792Y0150663D02*
X0038393Y0151264D01*
X0039594Y0151264D01*
X0040194Y0150663D01*
X0040194Y0150063D01*
X0039594Y0149462D01*
X0040194Y0148862D01*
X0040194Y0148261D01*
X0039594Y0149462D02*
X0038993Y0149462D01*
X0036511Y0148862D02*
X0035310Y0147661D01*
X0034109Y0148862D01*
X0034109Y0151264D01*
X0032828Y0150663D02*
X0032228Y0151264D01*
X0031027Y0151264D01*
X0030426Y0150663D01*
X0030426Y0150063D01*
X0031027Y0149462D01*
X0032228Y0149462D01*
X0032828Y0148862D01*
X0032828Y0148261D01*
X0032228Y0147661D01*
X0031027Y0147661D01*
X0030426Y0148261D01*
X0023721Y0079118D02*
X0023230Y0078773D01*
X0023082Y0077937D01*
X0023771Y0076953D01*
X0023623Y0076117D01*
X0023132Y0075772D01*
X0022295Y0075920D01*
X0021606Y0076904D01*
X0021754Y0077740D01*
X0023721Y0079118D02*
X0024558Y0078970D01*
X0025247Y0077986D01*
X0025099Y0077150D01*
X0026326Y0076445D02*
X0024358Y0075067D01*
X0024063Y0073395D01*
X0025736Y0073100D01*
X0027704Y0074477D01*
X0027455Y0072739D02*
X0029127Y0072444D01*
X0026176Y0070377D01*
X0026865Y0069394D02*
X0025487Y0071361D01*
X0101697Y0152554D02*
X0101697Y0153755D01*
X0101697Y0153155D02*
X0105300Y0153155D01*
X0105300Y0153755D02*
X0105300Y0152554D01*
X0104699Y0155010D02*
X0102297Y0155010D01*
X0101697Y0155610D01*
X0101697Y0156811D01*
X0102297Y0157412D01*
X0103498Y0158693D02*
X0103498Y0161095D01*
X0101697Y0160494D02*
X0103498Y0158693D01*
X0104699Y0157412D02*
X0105300Y0156811D01*
X0105300Y0155610D01*
X0104699Y0155010D01*
X0105300Y0160494D02*
X0101697Y0160494D01*
X0131465Y0141097D02*
X0131465Y0139896D01*
X0132065Y0139295D01*
X0132065Y0138014D02*
X0131465Y0137414D01*
X0131465Y0136213D01*
X0132065Y0135612D01*
X0134467Y0135612D01*
X0135068Y0136213D01*
X0135068Y0137414D01*
X0134467Y0138014D01*
X0135068Y0139295D02*
X0132666Y0141697D01*
X0132065Y0141697D01*
X0131465Y0141097D01*
X0135068Y0141697D02*
X0135068Y0139295D01*
X0135068Y0134358D02*
X0135068Y0133157D01*
X0135068Y0133757D02*
X0131465Y0133757D01*
X0131465Y0133157D02*
X0131465Y0134358D01*
X0134618Y0076016D02*
X0135819Y0076016D01*
X0135219Y0076016D02*
X0135219Y0072413D01*
X0135819Y0072413D02*
X0134618Y0072413D01*
X0137074Y0073013D02*
X0137074Y0075415D01*
X0137674Y0076016D01*
X0138875Y0076016D01*
X0139476Y0075415D01*
X0140757Y0074815D02*
X0141958Y0076016D01*
X0141958Y0072413D01*
X0140757Y0072413D02*
X0143159Y0072413D01*
X0139476Y0073013D02*
X0138875Y0072413D01*
X0137674Y0072413D01*
X0137074Y0073013D01*
D18*
X0056856Y0034501D02*
X0055380Y0035301D01*
X0053289Y0035669D01*
X0054581Y0033825D01*
X0054396Y0032779D01*
X0053781Y0032349D01*
X0052736Y0032533D01*
X0051875Y0033763D01*
X0052059Y0034808D01*
X0053289Y0035669D01*
X0012571Y0066364D02*
X0008882Y0063781D01*
X0008021Y0065011D02*
X0009743Y0062551D01*
X0010480Y0066733D02*
X0012571Y0066364D01*
X0044712Y0119380D02*
X0043211Y0120881D01*
X0047715Y0120881D01*
X0047715Y0119380D02*
X0047715Y0122382D01*
X0027964Y0147880D02*
X0026463Y0147880D01*
X0026463Y0150132D01*
X0027213Y0150882D01*
X0027964Y0150882D01*
X0028715Y0150132D01*
X0028715Y0148631D01*
X0027964Y0147880D01*
X0026463Y0147880D02*
X0024961Y0149381D01*
X0024211Y0150882D01*
D19*
X0050803Y0128756D03*
X0099228Y0114976D03*
X0112024Y0131709D03*
X0118126Y0177969D03*
M02*
