G75*
%MOIN*%
%OFA0B0*%
%FSLAX25Y25*%
%IPPOS*%
%LPD*%
%AMOC8*
5,1,8,0,0,1.08239X$1,22.5*
%
%ADD10C,0.01600*%
%ADD11C,0.00000*%
D10*
X0002582Y0099819D02*
X0002611Y0102205D01*
X0002699Y0104590D01*
X0002845Y0106972D01*
X0003050Y0109350D01*
X0003313Y0111722D01*
X0003634Y0114087D01*
X0004014Y0116443D01*
X0004450Y0118789D01*
X0004945Y0121124D01*
X0005496Y0123446D01*
X0006104Y0125753D01*
X0006769Y0128045D01*
X0007490Y0130320D01*
X0008266Y0132577D01*
X0009098Y0134814D01*
X0009984Y0137030D01*
X0010924Y0139223D01*
X0011918Y0141393D01*
X0012965Y0143538D01*
X0014064Y0145656D01*
X0015214Y0147747D01*
X0016416Y0149809D01*
X0017668Y0151841D01*
X0018969Y0153841D01*
X0020320Y0155809D01*
X0021718Y0157743D01*
X0023163Y0159642D01*
X0024654Y0161505D01*
X0026190Y0163332D01*
X0027771Y0165119D01*
X0029395Y0166868D01*
X0031062Y0168576D01*
X0032770Y0170243D01*
X0034519Y0171867D01*
X0036306Y0173448D01*
X0038133Y0174984D01*
X0039996Y0176475D01*
X0041895Y0177920D01*
X0043829Y0179318D01*
X0045797Y0180669D01*
X0047797Y0181970D01*
X0049829Y0183222D01*
X0051891Y0184424D01*
X0053982Y0185574D01*
X0056100Y0186673D01*
X0058245Y0187720D01*
X0060415Y0188714D01*
X0062608Y0189654D01*
X0064824Y0190540D01*
X0067061Y0191372D01*
X0069318Y0192148D01*
X0071593Y0192869D01*
X0073885Y0193534D01*
X0076192Y0194142D01*
X0078514Y0194693D01*
X0080849Y0195188D01*
X0083195Y0195624D01*
X0085551Y0196004D01*
X0087916Y0196325D01*
X0090288Y0196588D01*
X0092666Y0196793D01*
X0095048Y0196939D01*
X0097433Y0197027D01*
X0099819Y0197056D01*
X0102205Y0197027D01*
X0104590Y0196939D01*
X0106972Y0196793D01*
X0109350Y0196588D01*
X0111722Y0196325D01*
X0114087Y0196004D01*
X0116443Y0195624D01*
X0118789Y0195188D01*
X0121124Y0194693D01*
X0123446Y0194142D01*
X0125753Y0193534D01*
X0128045Y0192869D01*
X0130320Y0192148D01*
X0132577Y0191372D01*
X0134814Y0190540D01*
X0137030Y0189654D01*
X0139223Y0188714D01*
X0141393Y0187720D01*
X0143538Y0186673D01*
X0145656Y0185574D01*
X0147747Y0184424D01*
X0149809Y0183222D01*
X0151841Y0181970D01*
X0153841Y0180669D01*
X0155809Y0179318D01*
X0157743Y0177920D01*
X0159642Y0176475D01*
X0161505Y0174984D01*
X0163332Y0173448D01*
X0165119Y0171867D01*
X0166868Y0170243D01*
X0168576Y0168576D01*
X0170243Y0166868D01*
X0171867Y0165119D01*
X0173448Y0163332D01*
X0174984Y0161505D01*
X0176475Y0159642D01*
X0177920Y0157743D01*
X0179318Y0155809D01*
X0180669Y0153841D01*
X0181970Y0151841D01*
X0183222Y0149809D01*
X0184424Y0147747D01*
X0185574Y0145656D01*
X0186673Y0143538D01*
X0187720Y0141393D01*
X0188714Y0139223D01*
X0189654Y0137030D01*
X0190540Y0134814D01*
X0191372Y0132577D01*
X0192148Y0130320D01*
X0192869Y0128045D01*
X0193534Y0125753D01*
X0194142Y0123446D01*
X0194693Y0121124D01*
X0195188Y0118789D01*
X0195624Y0116443D01*
X0196004Y0114087D01*
X0196325Y0111722D01*
X0196588Y0109350D01*
X0196793Y0106972D01*
X0196939Y0104590D01*
X0197027Y0102205D01*
X0197056Y0099819D01*
X0197027Y0097433D01*
X0196939Y0095048D01*
X0196793Y0092666D01*
X0196588Y0090288D01*
X0196325Y0087916D01*
X0196004Y0085551D01*
X0195624Y0083195D01*
X0195188Y0080849D01*
X0194693Y0078514D01*
X0194142Y0076192D01*
X0193534Y0073885D01*
X0192869Y0071593D01*
X0192148Y0069318D01*
X0191372Y0067061D01*
X0190540Y0064824D01*
X0189654Y0062608D01*
X0188714Y0060415D01*
X0187720Y0058245D01*
X0186673Y0056100D01*
X0185574Y0053982D01*
X0184424Y0051891D01*
X0183222Y0049829D01*
X0181970Y0047797D01*
X0180669Y0045797D01*
X0179318Y0043829D01*
X0177920Y0041895D01*
X0176475Y0039996D01*
X0174984Y0038133D01*
X0173448Y0036306D01*
X0171867Y0034519D01*
X0170243Y0032770D01*
X0168576Y0031062D01*
X0166868Y0029395D01*
X0165119Y0027771D01*
X0163332Y0026190D01*
X0161505Y0024654D01*
X0159642Y0023163D01*
X0157743Y0021718D01*
X0155809Y0020320D01*
X0153841Y0018969D01*
X0151841Y0017668D01*
X0149809Y0016416D01*
X0147747Y0015214D01*
X0145656Y0014064D01*
X0143538Y0012965D01*
X0141393Y0011918D01*
X0139223Y0010924D01*
X0137030Y0009984D01*
X0134814Y0009098D01*
X0132577Y0008266D01*
X0130320Y0007490D01*
X0128045Y0006769D01*
X0125753Y0006104D01*
X0123446Y0005496D01*
X0121124Y0004945D01*
X0118789Y0004450D01*
X0116443Y0004014D01*
X0114087Y0003634D01*
X0111722Y0003313D01*
X0109350Y0003050D01*
X0106972Y0002845D01*
X0104590Y0002699D01*
X0102205Y0002611D01*
X0099819Y0002582D01*
X0097433Y0002611D01*
X0095048Y0002699D01*
X0092666Y0002845D01*
X0090288Y0003050D01*
X0087916Y0003313D01*
X0085551Y0003634D01*
X0083195Y0004014D01*
X0080849Y0004450D01*
X0078514Y0004945D01*
X0076192Y0005496D01*
X0073885Y0006104D01*
X0071593Y0006769D01*
X0069318Y0007490D01*
X0067061Y0008266D01*
X0064824Y0009098D01*
X0062608Y0009984D01*
X0060415Y0010924D01*
X0058245Y0011918D01*
X0056100Y0012965D01*
X0053982Y0014064D01*
X0051891Y0015214D01*
X0049829Y0016416D01*
X0047797Y0017668D01*
X0045797Y0018969D01*
X0043829Y0020320D01*
X0041895Y0021718D01*
X0039996Y0023163D01*
X0038133Y0024654D01*
X0036306Y0026190D01*
X0034519Y0027771D01*
X0032770Y0029395D01*
X0031062Y0031062D01*
X0029395Y0032770D01*
X0027771Y0034519D01*
X0026190Y0036306D01*
X0024654Y0038133D01*
X0023163Y0039996D01*
X0021718Y0041895D01*
X0020320Y0043829D01*
X0018969Y0045797D01*
X0017668Y0047797D01*
X0016416Y0049829D01*
X0015214Y0051891D01*
X0014064Y0053982D01*
X0012965Y0056100D01*
X0011918Y0058245D01*
X0010924Y0060415D01*
X0009984Y0062608D01*
X0009098Y0064824D01*
X0008266Y0067061D01*
X0007490Y0069318D01*
X0006769Y0071593D01*
X0006104Y0073885D01*
X0005496Y0076192D01*
X0004945Y0078514D01*
X0004450Y0080849D01*
X0004014Y0083195D01*
X0003634Y0085551D01*
X0003313Y0087916D01*
X0003050Y0090288D01*
X0002845Y0092666D01*
X0002699Y0095048D01*
X0002611Y0097433D01*
X0002582Y0099819D01*
D11*
X0089583Y0013205D02*
X0089585Y0013363D01*
X0089591Y0013521D01*
X0089601Y0013679D01*
X0089615Y0013837D01*
X0089633Y0013994D01*
X0089654Y0014151D01*
X0089680Y0014307D01*
X0089710Y0014463D01*
X0089743Y0014618D01*
X0089781Y0014771D01*
X0089822Y0014924D01*
X0089867Y0015076D01*
X0089916Y0015227D01*
X0089969Y0015376D01*
X0090025Y0015524D01*
X0090085Y0015670D01*
X0090149Y0015815D01*
X0090217Y0015958D01*
X0090288Y0016100D01*
X0090362Y0016240D01*
X0090440Y0016377D01*
X0090522Y0016513D01*
X0090606Y0016647D01*
X0090695Y0016778D01*
X0090786Y0016907D01*
X0090881Y0017034D01*
X0090978Y0017159D01*
X0091079Y0017281D01*
X0091183Y0017400D01*
X0091290Y0017517D01*
X0091400Y0017631D01*
X0091513Y0017742D01*
X0091628Y0017851D01*
X0091746Y0017956D01*
X0091867Y0018058D01*
X0091990Y0018158D01*
X0092116Y0018254D01*
X0092244Y0018347D01*
X0092374Y0018437D01*
X0092507Y0018523D01*
X0092642Y0018607D01*
X0092778Y0018686D01*
X0092917Y0018763D01*
X0093058Y0018835D01*
X0093200Y0018905D01*
X0093344Y0018970D01*
X0093490Y0019032D01*
X0093637Y0019090D01*
X0093786Y0019145D01*
X0093936Y0019196D01*
X0094087Y0019243D01*
X0094239Y0019286D01*
X0094392Y0019325D01*
X0094547Y0019361D01*
X0094702Y0019392D01*
X0094858Y0019420D01*
X0095014Y0019444D01*
X0095171Y0019464D01*
X0095329Y0019480D01*
X0095486Y0019492D01*
X0095645Y0019500D01*
X0095803Y0019504D01*
X0095961Y0019504D01*
X0096119Y0019500D01*
X0096278Y0019492D01*
X0096435Y0019480D01*
X0096593Y0019464D01*
X0096750Y0019444D01*
X0096906Y0019420D01*
X0097062Y0019392D01*
X0097217Y0019361D01*
X0097372Y0019325D01*
X0097525Y0019286D01*
X0097677Y0019243D01*
X0097828Y0019196D01*
X0097978Y0019145D01*
X0098127Y0019090D01*
X0098274Y0019032D01*
X0098420Y0018970D01*
X0098564Y0018905D01*
X0098706Y0018835D01*
X0098847Y0018763D01*
X0098986Y0018686D01*
X0099122Y0018607D01*
X0099257Y0018523D01*
X0099390Y0018437D01*
X0099520Y0018347D01*
X0099648Y0018254D01*
X0099774Y0018158D01*
X0099897Y0018058D01*
X0100018Y0017956D01*
X0100136Y0017851D01*
X0100251Y0017742D01*
X0100364Y0017631D01*
X0100474Y0017517D01*
X0100581Y0017400D01*
X0100685Y0017281D01*
X0100786Y0017159D01*
X0100883Y0017034D01*
X0100978Y0016907D01*
X0101069Y0016778D01*
X0101158Y0016647D01*
X0101242Y0016513D01*
X0101324Y0016377D01*
X0101402Y0016240D01*
X0101476Y0016100D01*
X0101547Y0015958D01*
X0101615Y0015815D01*
X0101679Y0015670D01*
X0101739Y0015524D01*
X0101795Y0015376D01*
X0101848Y0015227D01*
X0101897Y0015076D01*
X0101942Y0014924D01*
X0101983Y0014771D01*
X0102021Y0014618D01*
X0102054Y0014463D01*
X0102084Y0014307D01*
X0102110Y0014151D01*
X0102131Y0013994D01*
X0102149Y0013837D01*
X0102163Y0013679D01*
X0102173Y0013521D01*
X0102179Y0013363D01*
X0102181Y0013205D01*
X0102179Y0013047D01*
X0102173Y0012889D01*
X0102163Y0012731D01*
X0102149Y0012573D01*
X0102131Y0012416D01*
X0102110Y0012259D01*
X0102084Y0012103D01*
X0102054Y0011947D01*
X0102021Y0011792D01*
X0101983Y0011639D01*
X0101942Y0011486D01*
X0101897Y0011334D01*
X0101848Y0011183D01*
X0101795Y0011034D01*
X0101739Y0010886D01*
X0101679Y0010740D01*
X0101615Y0010595D01*
X0101547Y0010452D01*
X0101476Y0010310D01*
X0101402Y0010170D01*
X0101324Y0010033D01*
X0101242Y0009897D01*
X0101158Y0009763D01*
X0101069Y0009632D01*
X0100978Y0009503D01*
X0100883Y0009376D01*
X0100786Y0009251D01*
X0100685Y0009129D01*
X0100581Y0009010D01*
X0100474Y0008893D01*
X0100364Y0008779D01*
X0100251Y0008668D01*
X0100136Y0008559D01*
X0100018Y0008454D01*
X0099897Y0008352D01*
X0099774Y0008252D01*
X0099648Y0008156D01*
X0099520Y0008063D01*
X0099390Y0007973D01*
X0099257Y0007887D01*
X0099122Y0007803D01*
X0098986Y0007724D01*
X0098847Y0007647D01*
X0098706Y0007575D01*
X0098564Y0007505D01*
X0098420Y0007440D01*
X0098274Y0007378D01*
X0098127Y0007320D01*
X0097978Y0007265D01*
X0097828Y0007214D01*
X0097677Y0007167D01*
X0097525Y0007124D01*
X0097372Y0007085D01*
X0097217Y0007049D01*
X0097062Y0007018D01*
X0096906Y0006990D01*
X0096750Y0006966D01*
X0096593Y0006946D01*
X0096435Y0006930D01*
X0096278Y0006918D01*
X0096119Y0006910D01*
X0095961Y0006906D01*
X0095803Y0006906D01*
X0095645Y0006910D01*
X0095486Y0006918D01*
X0095329Y0006930D01*
X0095171Y0006946D01*
X0095014Y0006966D01*
X0094858Y0006990D01*
X0094702Y0007018D01*
X0094547Y0007049D01*
X0094392Y0007085D01*
X0094239Y0007124D01*
X0094087Y0007167D01*
X0093936Y0007214D01*
X0093786Y0007265D01*
X0093637Y0007320D01*
X0093490Y0007378D01*
X0093344Y0007440D01*
X0093200Y0007505D01*
X0093058Y0007575D01*
X0092917Y0007647D01*
X0092778Y0007724D01*
X0092642Y0007803D01*
X0092507Y0007887D01*
X0092374Y0007973D01*
X0092244Y0008063D01*
X0092116Y0008156D01*
X0091990Y0008252D01*
X0091867Y0008352D01*
X0091746Y0008454D01*
X0091628Y0008559D01*
X0091513Y0008668D01*
X0091400Y0008779D01*
X0091290Y0008893D01*
X0091183Y0009010D01*
X0091079Y0009129D01*
X0090978Y0009251D01*
X0090881Y0009376D01*
X0090786Y0009503D01*
X0090695Y0009632D01*
X0090606Y0009763D01*
X0090522Y0009897D01*
X0090440Y0010033D01*
X0090362Y0010170D01*
X0090288Y0010310D01*
X0090217Y0010452D01*
X0090149Y0010595D01*
X0090085Y0010740D01*
X0090025Y0010886D01*
X0089969Y0011034D01*
X0089916Y0011183D01*
X0089867Y0011334D01*
X0089822Y0011486D01*
X0089781Y0011639D01*
X0089743Y0011792D01*
X0089710Y0011947D01*
X0089680Y0012103D01*
X0089654Y0012259D01*
X0089633Y0012416D01*
X0089615Y0012573D01*
X0089601Y0012731D01*
X0089591Y0012889D01*
X0089585Y0013047D01*
X0089583Y0013205D01*
X0006906Y0099819D02*
X0006908Y0099977D01*
X0006914Y0100135D01*
X0006924Y0100293D01*
X0006938Y0100451D01*
X0006956Y0100608D01*
X0006977Y0100765D01*
X0007003Y0100921D01*
X0007033Y0101077D01*
X0007066Y0101232D01*
X0007104Y0101385D01*
X0007145Y0101538D01*
X0007190Y0101690D01*
X0007239Y0101841D01*
X0007292Y0101990D01*
X0007348Y0102138D01*
X0007408Y0102284D01*
X0007472Y0102429D01*
X0007540Y0102572D01*
X0007611Y0102714D01*
X0007685Y0102854D01*
X0007763Y0102991D01*
X0007845Y0103127D01*
X0007929Y0103261D01*
X0008018Y0103392D01*
X0008109Y0103521D01*
X0008204Y0103648D01*
X0008301Y0103773D01*
X0008402Y0103895D01*
X0008506Y0104014D01*
X0008613Y0104131D01*
X0008723Y0104245D01*
X0008836Y0104356D01*
X0008951Y0104465D01*
X0009069Y0104570D01*
X0009190Y0104672D01*
X0009313Y0104772D01*
X0009439Y0104868D01*
X0009567Y0104961D01*
X0009697Y0105051D01*
X0009830Y0105137D01*
X0009965Y0105221D01*
X0010101Y0105300D01*
X0010240Y0105377D01*
X0010381Y0105449D01*
X0010523Y0105519D01*
X0010667Y0105584D01*
X0010813Y0105646D01*
X0010960Y0105704D01*
X0011109Y0105759D01*
X0011259Y0105810D01*
X0011410Y0105857D01*
X0011562Y0105900D01*
X0011715Y0105939D01*
X0011870Y0105975D01*
X0012025Y0106006D01*
X0012181Y0106034D01*
X0012337Y0106058D01*
X0012494Y0106078D01*
X0012652Y0106094D01*
X0012809Y0106106D01*
X0012968Y0106114D01*
X0013126Y0106118D01*
X0013284Y0106118D01*
X0013442Y0106114D01*
X0013601Y0106106D01*
X0013758Y0106094D01*
X0013916Y0106078D01*
X0014073Y0106058D01*
X0014229Y0106034D01*
X0014385Y0106006D01*
X0014540Y0105975D01*
X0014695Y0105939D01*
X0014848Y0105900D01*
X0015000Y0105857D01*
X0015151Y0105810D01*
X0015301Y0105759D01*
X0015450Y0105704D01*
X0015597Y0105646D01*
X0015743Y0105584D01*
X0015887Y0105519D01*
X0016029Y0105449D01*
X0016170Y0105377D01*
X0016309Y0105300D01*
X0016445Y0105221D01*
X0016580Y0105137D01*
X0016713Y0105051D01*
X0016843Y0104961D01*
X0016971Y0104868D01*
X0017097Y0104772D01*
X0017220Y0104672D01*
X0017341Y0104570D01*
X0017459Y0104465D01*
X0017574Y0104356D01*
X0017687Y0104245D01*
X0017797Y0104131D01*
X0017904Y0104014D01*
X0018008Y0103895D01*
X0018109Y0103773D01*
X0018206Y0103648D01*
X0018301Y0103521D01*
X0018392Y0103392D01*
X0018481Y0103261D01*
X0018565Y0103127D01*
X0018647Y0102991D01*
X0018725Y0102854D01*
X0018799Y0102714D01*
X0018870Y0102572D01*
X0018938Y0102429D01*
X0019002Y0102284D01*
X0019062Y0102138D01*
X0019118Y0101990D01*
X0019171Y0101841D01*
X0019220Y0101690D01*
X0019265Y0101538D01*
X0019306Y0101385D01*
X0019344Y0101232D01*
X0019377Y0101077D01*
X0019407Y0100921D01*
X0019433Y0100765D01*
X0019454Y0100608D01*
X0019472Y0100451D01*
X0019486Y0100293D01*
X0019496Y0100135D01*
X0019502Y0099977D01*
X0019504Y0099819D01*
X0019502Y0099661D01*
X0019496Y0099503D01*
X0019486Y0099345D01*
X0019472Y0099187D01*
X0019454Y0099030D01*
X0019433Y0098873D01*
X0019407Y0098717D01*
X0019377Y0098561D01*
X0019344Y0098406D01*
X0019306Y0098253D01*
X0019265Y0098100D01*
X0019220Y0097948D01*
X0019171Y0097797D01*
X0019118Y0097648D01*
X0019062Y0097500D01*
X0019002Y0097354D01*
X0018938Y0097209D01*
X0018870Y0097066D01*
X0018799Y0096924D01*
X0018725Y0096784D01*
X0018647Y0096647D01*
X0018565Y0096511D01*
X0018481Y0096377D01*
X0018392Y0096246D01*
X0018301Y0096117D01*
X0018206Y0095990D01*
X0018109Y0095865D01*
X0018008Y0095743D01*
X0017904Y0095624D01*
X0017797Y0095507D01*
X0017687Y0095393D01*
X0017574Y0095282D01*
X0017459Y0095173D01*
X0017341Y0095068D01*
X0017220Y0094966D01*
X0017097Y0094866D01*
X0016971Y0094770D01*
X0016843Y0094677D01*
X0016713Y0094587D01*
X0016580Y0094501D01*
X0016445Y0094417D01*
X0016309Y0094338D01*
X0016170Y0094261D01*
X0016029Y0094189D01*
X0015887Y0094119D01*
X0015743Y0094054D01*
X0015597Y0093992D01*
X0015450Y0093934D01*
X0015301Y0093879D01*
X0015151Y0093828D01*
X0015000Y0093781D01*
X0014848Y0093738D01*
X0014695Y0093699D01*
X0014540Y0093663D01*
X0014385Y0093632D01*
X0014229Y0093604D01*
X0014073Y0093580D01*
X0013916Y0093560D01*
X0013758Y0093544D01*
X0013601Y0093532D01*
X0013442Y0093524D01*
X0013284Y0093520D01*
X0013126Y0093520D01*
X0012968Y0093524D01*
X0012809Y0093532D01*
X0012652Y0093544D01*
X0012494Y0093560D01*
X0012337Y0093580D01*
X0012181Y0093604D01*
X0012025Y0093632D01*
X0011870Y0093663D01*
X0011715Y0093699D01*
X0011562Y0093738D01*
X0011410Y0093781D01*
X0011259Y0093828D01*
X0011109Y0093879D01*
X0010960Y0093934D01*
X0010813Y0093992D01*
X0010667Y0094054D01*
X0010523Y0094119D01*
X0010381Y0094189D01*
X0010240Y0094261D01*
X0010101Y0094338D01*
X0009965Y0094417D01*
X0009830Y0094501D01*
X0009697Y0094587D01*
X0009567Y0094677D01*
X0009439Y0094770D01*
X0009313Y0094866D01*
X0009190Y0094966D01*
X0009069Y0095068D01*
X0008951Y0095173D01*
X0008836Y0095282D01*
X0008723Y0095393D01*
X0008613Y0095507D01*
X0008506Y0095624D01*
X0008402Y0095743D01*
X0008301Y0095865D01*
X0008204Y0095990D01*
X0008109Y0096117D01*
X0008018Y0096246D01*
X0007929Y0096377D01*
X0007845Y0096511D01*
X0007763Y0096647D01*
X0007685Y0096784D01*
X0007611Y0096924D01*
X0007540Y0097066D01*
X0007472Y0097209D01*
X0007408Y0097354D01*
X0007348Y0097500D01*
X0007292Y0097648D01*
X0007239Y0097797D01*
X0007190Y0097948D01*
X0007145Y0098100D01*
X0007104Y0098253D01*
X0007066Y0098406D01*
X0007033Y0098561D01*
X0007003Y0098717D01*
X0006977Y0098873D01*
X0006956Y0099030D01*
X0006938Y0099187D01*
X0006924Y0099345D01*
X0006914Y0099503D01*
X0006908Y0099661D01*
X0006906Y0099819D01*
X0093520Y0186433D02*
X0093522Y0186591D01*
X0093528Y0186749D01*
X0093538Y0186907D01*
X0093552Y0187065D01*
X0093570Y0187222D01*
X0093591Y0187379D01*
X0093617Y0187535D01*
X0093647Y0187691D01*
X0093680Y0187846D01*
X0093718Y0187999D01*
X0093759Y0188152D01*
X0093804Y0188304D01*
X0093853Y0188455D01*
X0093906Y0188604D01*
X0093962Y0188752D01*
X0094022Y0188898D01*
X0094086Y0189043D01*
X0094154Y0189186D01*
X0094225Y0189328D01*
X0094299Y0189468D01*
X0094377Y0189605D01*
X0094459Y0189741D01*
X0094543Y0189875D01*
X0094632Y0190006D01*
X0094723Y0190135D01*
X0094818Y0190262D01*
X0094915Y0190387D01*
X0095016Y0190509D01*
X0095120Y0190628D01*
X0095227Y0190745D01*
X0095337Y0190859D01*
X0095450Y0190970D01*
X0095565Y0191079D01*
X0095683Y0191184D01*
X0095804Y0191286D01*
X0095927Y0191386D01*
X0096053Y0191482D01*
X0096181Y0191575D01*
X0096311Y0191665D01*
X0096444Y0191751D01*
X0096579Y0191835D01*
X0096715Y0191914D01*
X0096854Y0191991D01*
X0096995Y0192063D01*
X0097137Y0192133D01*
X0097281Y0192198D01*
X0097427Y0192260D01*
X0097574Y0192318D01*
X0097723Y0192373D01*
X0097873Y0192424D01*
X0098024Y0192471D01*
X0098176Y0192514D01*
X0098329Y0192553D01*
X0098484Y0192589D01*
X0098639Y0192620D01*
X0098795Y0192648D01*
X0098951Y0192672D01*
X0099108Y0192692D01*
X0099266Y0192708D01*
X0099423Y0192720D01*
X0099582Y0192728D01*
X0099740Y0192732D01*
X0099898Y0192732D01*
X0100056Y0192728D01*
X0100215Y0192720D01*
X0100372Y0192708D01*
X0100530Y0192692D01*
X0100687Y0192672D01*
X0100843Y0192648D01*
X0100999Y0192620D01*
X0101154Y0192589D01*
X0101309Y0192553D01*
X0101462Y0192514D01*
X0101614Y0192471D01*
X0101765Y0192424D01*
X0101915Y0192373D01*
X0102064Y0192318D01*
X0102211Y0192260D01*
X0102357Y0192198D01*
X0102501Y0192133D01*
X0102643Y0192063D01*
X0102784Y0191991D01*
X0102923Y0191914D01*
X0103059Y0191835D01*
X0103194Y0191751D01*
X0103327Y0191665D01*
X0103457Y0191575D01*
X0103585Y0191482D01*
X0103711Y0191386D01*
X0103834Y0191286D01*
X0103955Y0191184D01*
X0104073Y0191079D01*
X0104188Y0190970D01*
X0104301Y0190859D01*
X0104411Y0190745D01*
X0104518Y0190628D01*
X0104622Y0190509D01*
X0104723Y0190387D01*
X0104820Y0190262D01*
X0104915Y0190135D01*
X0105006Y0190006D01*
X0105095Y0189875D01*
X0105179Y0189741D01*
X0105261Y0189605D01*
X0105339Y0189468D01*
X0105413Y0189328D01*
X0105484Y0189186D01*
X0105552Y0189043D01*
X0105616Y0188898D01*
X0105676Y0188752D01*
X0105732Y0188604D01*
X0105785Y0188455D01*
X0105834Y0188304D01*
X0105879Y0188152D01*
X0105920Y0187999D01*
X0105958Y0187846D01*
X0105991Y0187691D01*
X0106021Y0187535D01*
X0106047Y0187379D01*
X0106068Y0187222D01*
X0106086Y0187065D01*
X0106100Y0186907D01*
X0106110Y0186749D01*
X0106116Y0186591D01*
X0106118Y0186433D01*
X0106116Y0186275D01*
X0106110Y0186117D01*
X0106100Y0185959D01*
X0106086Y0185801D01*
X0106068Y0185644D01*
X0106047Y0185487D01*
X0106021Y0185331D01*
X0105991Y0185175D01*
X0105958Y0185020D01*
X0105920Y0184867D01*
X0105879Y0184714D01*
X0105834Y0184562D01*
X0105785Y0184411D01*
X0105732Y0184262D01*
X0105676Y0184114D01*
X0105616Y0183968D01*
X0105552Y0183823D01*
X0105484Y0183680D01*
X0105413Y0183538D01*
X0105339Y0183398D01*
X0105261Y0183261D01*
X0105179Y0183125D01*
X0105095Y0182991D01*
X0105006Y0182860D01*
X0104915Y0182731D01*
X0104820Y0182604D01*
X0104723Y0182479D01*
X0104622Y0182357D01*
X0104518Y0182238D01*
X0104411Y0182121D01*
X0104301Y0182007D01*
X0104188Y0181896D01*
X0104073Y0181787D01*
X0103955Y0181682D01*
X0103834Y0181580D01*
X0103711Y0181480D01*
X0103585Y0181384D01*
X0103457Y0181291D01*
X0103327Y0181201D01*
X0103194Y0181115D01*
X0103059Y0181031D01*
X0102923Y0180952D01*
X0102784Y0180875D01*
X0102643Y0180803D01*
X0102501Y0180733D01*
X0102357Y0180668D01*
X0102211Y0180606D01*
X0102064Y0180548D01*
X0101915Y0180493D01*
X0101765Y0180442D01*
X0101614Y0180395D01*
X0101462Y0180352D01*
X0101309Y0180313D01*
X0101154Y0180277D01*
X0100999Y0180246D01*
X0100843Y0180218D01*
X0100687Y0180194D01*
X0100530Y0180174D01*
X0100372Y0180158D01*
X0100215Y0180146D01*
X0100056Y0180138D01*
X0099898Y0180134D01*
X0099740Y0180134D01*
X0099582Y0180138D01*
X0099423Y0180146D01*
X0099266Y0180158D01*
X0099108Y0180174D01*
X0098951Y0180194D01*
X0098795Y0180218D01*
X0098639Y0180246D01*
X0098484Y0180277D01*
X0098329Y0180313D01*
X0098176Y0180352D01*
X0098024Y0180395D01*
X0097873Y0180442D01*
X0097723Y0180493D01*
X0097574Y0180548D01*
X0097427Y0180606D01*
X0097281Y0180668D01*
X0097137Y0180733D01*
X0096995Y0180803D01*
X0096854Y0180875D01*
X0096715Y0180952D01*
X0096579Y0181031D01*
X0096444Y0181115D01*
X0096311Y0181201D01*
X0096181Y0181291D01*
X0096053Y0181384D01*
X0095927Y0181480D01*
X0095804Y0181580D01*
X0095683Y0181682D01*
X0095565Y0181787D01*
X0095450Y0181896D01*
X0095337Y0182007D01*
X0095227Y0182121D01*
X0095120Y0182238D01*
X0095016Y0182357D01*
X0094915Y0182479D01*
X0094818Y0182604D01*
X0094723Y0182731D01*
X0094632Y0182860D01*
X0094543Y0182991D01*
X0094459Y0183125D01*
X0094377Y0183261D01*
X0094299Y0183398D01*
X0094225Y0183538D01*
X0094154Y0183680D01*
X0094086Y0183823D01*
X0094022Y0183968D01*
X0093962Y0184114D01*
X0093906Y0184262D01*
X0093853Y0184411D01*
X0093804Y0184562D01*
X0093759Y0184714D01*
X0093718Y0184867D01*
X0093680Y0185020D01*
X0093647Y0185175D01*
X0093617Y0185331D01*
X0093591Y0185487D01*
X0093570Y0185644D01*
X0093552Y0185801D01*
X0093538Y0185959D01*
X0093528Y0186117D01*
X0093522Y0186275D01*
X0093520Y0186433D01*
X0180134Y0099819D02*
X0180136Y0099977D01*
X0180142Y0100135D01*
X0180152Y0100293D01*
X0180166Y0100451D01*
X0180184Y0100608D01*
X0180205Y0100765D01*
X0180231Y0100921D01*
X0180261Y0101077D01*
X0180294Y0101232D01*
X0180332Y0101385D01*
X0180373Y0101538D01*
X0180418Y0101690D01*
X0180467Y0101841D01*
X0180520Y0101990D01*
X0180576Y0102138D01*
X0180636Y0102284D01*
X0180700Y0102429D01*
X0180768Y0102572D01*
X0180839Y0102714D01*
X0180913Y0102854D01*
X0180991Y0102991D01*
X0181073Y0103127D01*
X0181157Y0103261D01*
X0181246Y0103392D01*
X0181337Y0103521D01*
X0181432Y0103648D01*
X0181529Y0103773D01*
X0181630Y0103895D01*
X0181734Y0104014D01*
X0181841Y0104131D01*
X0181951Y0104245D01*
X0182064Y0104356D01*
X0182179Y0104465D01*
X0182297Y0104570D01*
X0182418Y0104672D01*
X0182541Y0104772D01*
X0182667Y0104868D01*
X0182795Y0104961D01*
X0182925Y0105051D01*
X0183058Y0105137D01*
X0183193Y0105221D01*
X0183329Y0105300D01*
X0183468Y0105377D01*
X0183609Y0105449D01*
X0183751Y0105519D01*
X0183895Y0105584D01*
X0184041Y0105646D01*
X0184188Y0105704D01*
X0184337Y0105759D01*
X0184487Y0105810D01*
X0184638Y0105857D01*
X0184790Y0105900D01*
X0184943Y0105939D01*
X0185098Y0105975D01*
X0185253Y0106006D01*
X0185409Y0106034D01*
X0185565Y0106058D01*
X0185722Y0106078D01*
X0185880Y0106094D01*
X0186037Y0106106D01*
X0186196Y0106114D01*
X0186354Y0106118D01*
X0186512Y0106118D01*
X0186670Y0106114D01*
X0186829Y0106106D01*
X0186986Y0106094D01*
X0187144Y0106078D01*
X0187301Y0106058D01*
X0187457Y0106034D01*
X0187613Y0106006D01*
X0187768Y0105975D01*
X0187923Y0105939D01*
X0188076Y0105900D01*
X0188228Y0105857D01*
X0188379Y0105810D01*
X0188529Y0105759D01*
X0188678Y0105704D01*
X0188825Y0105646D01*
X0188971Y0105584D01*
X0189115Y0105519D01*
X0189257Y0105449D01*
X0189398Y0105377D01*
X0189537Y0105300D01*
X0189673Y0105221D01*
X0189808Y0105137D01*
X0189941Y0105051D01*
X0190071Y0104961D01*
X0190199Y0104868D01*
X0190325Y0104772D01*
X0190448Y0104672D01*
X0190569Y0104570D01*
X0190687Y0104465D01*
X0190802Y0104356D01*
X0190915Y0104245D01*
X0191025Y0104131D01*
X0191132Y0104014D01*
X0191236Y0103895D01*
X0191337Y0103773D01*
X0191434Y0103648D01*
X0191529Y0103521D01*
X0191620Y0103392D01*
X0191709Y0103261D01*
X0191793Y0103127D01*
X0191875Y0102991D01*
X0191953Y0102854D01*
X0192027Y0102714D01*
X0192098Y0102572D01*
X0192166Y0102429D01*
X0192230Y0102284D01*
X0192290Y0102138D01*
X0192346Y0101990D01*
X0192399Y0101841D01*
X0192448Y0101690D01*
X0192493Y0101538D01*
X0192534Y0101385D01*
X0192572Y0101232D01*
X0192605Y0101077D01*
X0192635Y0100921D01*
X0192661Y0100765D01*
X0192682Y0100608D01*
X0192700Y0100451D01*
X0192714Y0100293D01*
X0192724Y0100135D01*
X0192730Y0099977D01*
X0192732Y0099819D01*
X0192730Y0099661D01*
X0192724Y0099503D01*
X0192714Y0099345D01*
X0192700Y0099187D01*
X0192682Y0099030D01*
X0192661Y0098873D01*
X0192635Y0098717D01*
X0192605Y0098561D01*
X0192572Y0098406D01*
X0192534Y0098253D01*
X0192493Y0098100D01*
X0192448Y0097948D01*
X0192399Y0097797D01*
X0192346Y0097648D01*
X0192290Y0097500D01*
X0192230Y0097354D01*
X0192166Y0097209D01*
X0192098Y0097066D01*
X0192027Y0096924D01*
X0191953Y0096784D01*
X0191875Y0096647D01*
X0191793Y0096511D01*
X0191709Y0096377D01*
X0191620Y0096246D01*
X0191529Y0096117D01*
X0191434Y0095990D01*
X0191337Y0095865D01*
X0191236Y0095743D01*
X0191132Y0095624D01*
X0191025Y0095507D01*
X0190915Y0095393D01*
X0190802Y0095282D01*
X0190687Y0095173D01*
X0190569Y0095068D01*
X0190448Y0094966D01*
X0190325Y0094866D01*
X0190199Y0094770D01*
X0190071Y0094677D01*
X0189941Y0094587D01*
X0189808Y0094501D01*
X0189673Y0094417D01*
X0189537Y0094338D01*
X0189398Y0094261D01*
X0189257Y0094189D01*
X0189115Y0094119D01*
X0188971Y0094054D01*
X0188825Y0093992D01*
X0188678Y0093934D01*
X0188529Y0093879D01*
X0188379Y0093828D01*
X0188228Y0093781D01*
X0188076Y0093738D01*
X0187923Y0093699D01*
X0187768Y0093663D01*
X0187613Y0093632D01*
X0187457Y0093604D01*
X0187301Y0093580D01*
X0187144Y0093560D01*
X0186986Y0093544D01*
X0186829Y0093532D01*
X0186670Y0093524D01*
X0186512Y0093520D01*
X0186354Y0093520D01*
X0186196Y0093524D01*
X0186037Y0093532D01*
X0185880Y0093544D01*
X0185722Y0093560D01*
X0185565Y0093580D01*
X0185409Y0093604D01*
X0185253Y0093632D01*
X0185098Y0093663D01*
X0184943Y0093699D01*
X0184790Y0093738D01*
X0184638Y0093781D01*
X0184487Y0093828D01*
X0184337Y0093879D01*
X0184188Y0093934D01*
X0184041Y0093992D01*
X0183895Y0094054D01*
X0183751Y0094119D01*
X0183609Y0094189D01*
X0183468Y0094261D01*
X0183329Y0094338D01*
X0183193Y0094417D01*
X0183058Y0094501D01*
X0182925Y0094587D01*
X0182795Y0094677D01*
X0182667Y0094770D01*
X0182541Y0094866D01*
X0182418Y0094966D01*
X0182297Y0095068D01*
X0182179Y0095173D01*
X0182064Y0095282D01*
X0181951Y0095393D01*
X0181841Y0095507D01*
X0181734Y0095624D01*
X0181630Y0095743D01*
X0181529Y0095865D01*
X0181432Y0095990D01*
X0181337Y0096117D01*
X0181246Y0096246D01*
X0181157Y0096377D01*
X0181073Y0096511D01*
X0180991Y0096647D01*
X0180913Y0096784D01*
X0180839Y0096924D01*
X0180768Y0097066D01*
X0180700Y0097209D01*
X0180636Y0097354D01*
X0180576Y0097500D01*
X0180520Y0097648D01*
X0180467Y0097797D01*
X0180418Y0097948D01*
X0180373Y0098100D01*
X0180332Y0098253D01*
X0180294Y0098406D01*
X0180261Y0098561D01*
X0180231Y0098717D01*
X0180205Y0098873D01*
X0180184Y0099030D01*
X0180166Y0099187D01*
X0180152Y0099345D01*
X0180142Y0099503D01*
X0180136Y0099661D01*
X0180134Y0099819D01*
M02*
