M48
METRIC,LZ
VER,1
FMAT,2
T01C0.8128F042B423S6H2000
T02C0.89916F042B423S6H2000
T03C1.00076F042B423S6H2000
T04C1.016F042B423S6H2000
T05C1.6002F042B423S6H2000
T06C3.2004F042B423S6H2000
T07C3.2512F042B423S6H2000
DETECT,ON
ATC,ON
%
T01
X036911Y015624
X039451
X041991
X044531
X047071
X049611
X052151
X054691
X057231
X059771
X062311
X064851
X067391
X069931
X072471
X075011
X077551
X080091
X082631
X085171
X091651Y015893
X094191
X096731
X099271
Y023513
X096731
X094191
X091651
X085171Y030864
X082631
X080091
X077551
X075011
X072471
X069931
X067391
X064851
X062311
X059771
X057231
X054691
X052151
X049611
X047071
X044531
X041991
X039451
X036911
X038842Y037915
Y040455
Y042995
Y045535
Y048075
Y050615
Y053155
Y055695
Y058235
Y060775
Y063315
Y065855
Y068395
Y070935
X031222
Y068395
Y065855
Y063315
Y060775
Y058235
Y055695
Y053155
Y050615
Y048075
Y045535
Y042995
Y040455
Y037915
T02
X049891Y052883
X053891Y054384
X05589Y055885
X050391Y058885
X048892Y056883
X046192Y062984
X02003Y061849
Y059309
X01749Y058039
Y060579
Y063119
Y065659
Y068199
X02003Y066929
Y064389
Y069469
X057391Y038384
X089891Y040884
X091892
Y047884
X089792
X078491Y007684
X012192Y008283
X00779Y012883
T03
X007076Y057125
Y059665
Y067843
Y070383
T04
X036911Y076584
X039451
X041991
X044531
X047071
X049611
X052151
X054691
X057231
X059771
X062311
X064851
X067391
X094061Y060074
X099141
X100411Y066424
Y068964
Y071504
X096601Y049914
X097871Y046104
X100411
Y043564
Y041024
Y038484
Y035944
Y033404
Y030864
X097871
Y033404
Y035944
Y038484
Y041024
Y043564
X067391Y005464
X064851
X062311
X059771
X057231
X054691
X052151
X049611
X047071
X044531
X041991
X039451
X036911
X008971Y018164
Y020704
Y023244
Y025784
Y028324
Y035944
Y038484
Y041024
T05
X014188Y056007
Y071501
T06
X006891Y003383
X100891
Y077384
X006891
T07
X01114Y069469
Y058039
M30
