%
M48
M72
T01C0.0320
T02C0.0354
T03C0.0394
T04C0.0400
T05C0.0630
T06C0.1260
T07C0.1280
%
T01
X14532Y6151
X15532Y6151
X16532Y6151
X17532Y6151
X18532Y6151
X19532Y6151
X20532Y6151
X21532Y6151
X22532Y6151
X23532Y6151
X24532Y6151
X25532Y6151
X26532Y6151
X27532Y6151
X28532Y6151
X29532Y6151
X30532Y6151
X31532Y6151
X32532Y6151
X33532Y6151
X36083Y6257
X37083Y6257
X38083Y6257
X39083Y6257
X39083Y9257
X38083Y9257
X37083Y9257
X36083Y9257
X33532Y12151
X32532Y12151
X31532Y12151
X30532Y12151
X29532Y12151
X28532Y12151
X27532Y12151
X26532Y12151
X25532Y12151
X24532Y12151
X23532Y12151
X22532Y12151
X21532Y12151
X20532Y12151
X19532Y12151
X18532Y12151
X17532Y12151
X16532Y12151
X15532Y12151
X14532Y12151
X15292Y14927
X15292Y15927
X15292Y16927
X15292Y17927
X15292Y18927
X15292Y19927
X15292Y20927
X15292Y21927
X15292Y22927
X15292Y23927
X15292Y24927
X15292Y25927
X15292Y26927
X15292Y27927
X12292Y27927
X12292Y26927
X12292Y25927
X12292Y24927
X12292Y23927
X12292Y22927
X12292Y21927
X12292Y20927
X12292Y19927
X12292Y18927
X12292Y17927
X12292Y16927
X12292Y15927
X12292Y14927
T02
X19642Y20820
X21217Y21411
X22004Y22002
X19839Y23183
X19249Y22395
X18186Y24797
X7886Y24350
X7886Y23350
X6886Y22850
X6886Y23850
X6886Y24850
X6886Y25850
X6886Y26850
X7886Y26350
X7886Y25350
X7886Y27350
X22595Y15112
X35390Y16096
X36178Y16096
X36178Y18852
X35351Y18852
X30902Y3025
X4800Y3261
X3067Y5072
T03
X2786Y22490
X2786Y23490
X2786Y26710
X2786Y27710
T04
X14532Y30151
X15532Y30151
X16532Y30151
X17532Y30151
X18532Y30151
X19532Y30151
X20532Y30151
X21532Y30151
X22532Y30151
X23532Y30151
X24532Y30151
X25532Y30151
X26532Y30151
X37032Y23651
X39032Y23651
X39532Y26151
X39532Y27151
X39532Y28151
X38032Y19651
X38532Y18151
X39532Y18151
X39532Y17151
X39532Y16151
X39532Y15151
X39532Y14151
X39532Y13151
X39532Y12151
X38532Y12151
X38532Y13151
X38532Y14151
X38532Y15151
X38532Y16151
X38532Y17151
X26532Y2151
X25532Y2151
X24532Y2151
X23532Y2151
X22532Y2151
X21532Y2151
X20532Y2151
X19532Y2151
X18532Y2151
X17532Y2151
X16532Y2151
X15532Y2151
X14532Y2151
X3532Y7151
X3532Y8151
X3532Y9151
X3532Y10151
X3532Y11151
X3532Y14151
X3532Y15151
X3532Y16151
T05
X5586Y22050
X5586Y28150
T06
X2713Y1332
X39721Y1332
X39721Y30466
X2713Y30466
T07
X4386Y27350
X4386Y22850
M30
