G75*
G70*
%OFA0B0*%
%FSLAX24Y24*%
%IPPOS*%
%LPD*%
%AMOC8*
5,1,8,0,0,1.08239X$1,22.5*
%
%ADD10C,0.0079*%
%ADD11C,0.0000*%
D10*
X001532Y000151D02*
X001532Y031647D01*
X040902Y031647D01*
X040902Y000151D01*
X001532Y000151D01*
D11*
X002083Y001332D02*
X002085Y001382D01*
X002091Y001432D01*
X002101Y001481D01*
X002115Y001529D01*
X002132Y001576D01*
X002153Y001621D01*
X002178Y001665D01*
X002206Y001706D01*
X002238Y001745D01*
X002272Y001782D01*
X002309Y001816D01*
X002349Y001846D01*
X002391Y001873D01*
X002435Y001897D01*
X002481Y001918D01*
X002528Y001934D01*
X002576Y001947D01*
X002626Y001956D01*
X002675Y001961D01*
X002726Y001962D01*
X002776Y001959D01*
X002825Y001952D01*
X002874Y001941D01*
X002922Y001926D01*
X002968Y001908D01*
X003013Y001886D01*
X003056Y001860D01*
X003097Y001831D01*
X003136Y001799D01*
X003172Y001764D01*
X003204Y001726D01*
X003234Y001686D01*
X003261Y001643D01*
X003284Y001599D01*
X003303Y001553D01*
X003319Y001505D01*
X003331Y001456D01*
X003339Y001407D01*
X003343Y001357D01*
X003343Y001307D01*
X003339Y001257D01*
X003331Y001208D01*
X003319Y001159D01*
X003303Y001111D01*
X003284Y001065D01*
X003261Y001021D01*
X003234Y000978D01*
X003204Y000938D01*
X003172Y000900D01*
X003136Y000865D01*
X003097Y000833D01*
X003056Y000804D01*
X003013Y000778D01*
X002968Y000756D01*
X002922Y000738D01*
X002874Y000723D01*
X002825Y000712D01*
X002776Y000705D01*
X002726Y000702D01*
X002675Y000703D01*
X002626Y000708D01*
X002576Y000717D01*
X002528Y000730D01*
X002481Y000746D01*
X002435Y000767D01*
X002391Y000791D01*
X002349Y000818D01*
X002309Y000848D01*
X002272Y000882D01*
X002238Y000919D01*
X002206Y000958D01*
X002178Y000999D01*
X002153Y001043D01*
X002132Y001088D01*
X002115Y001135D01*
X002101Y001183D01*
X002091Y001232D01*
X002085Y001282D01*
X002083Y001332D01*
X003746Y022850D02*
X003748Y022900D01*
X003754Y022950D01*
X003764Y022999D01*
X003777Y023048D01*
X003795Y023095D01*
X003816Y023141D01*
X003840Y023184D01*
X003868Y023226D01*
X003899Y023266D01*
X003933Y023303D01*
X003970Y023337D01*
X004010Y023368D01*
X004052Y023396D01*
X004095Y023420D01*
X004141Y023441D01*
X004188Y023459D01*
X004237Y023472D01*
X004286Y023482D01*
X004336Y023488D01*
X004386Y023490D01*
X004436Y023488D01*
X004486Y023482D01*
X004535Y023472D01*
X004584Y023459D01*
X004631Y023441D01*
X004677Y023420D01*
X004720Y023396D01*
X004762Y023368D01*
X004802Y023337D01*
X004839Y023303D01*
X004873Y023266D01*
X004904Y023226D01*
X004932Y023184D01*
X004956Y023141D01*
X004977Y023095D01*
X004995Y023048D01*
X005008Y022999D01*
X005018Y022950D01*
X005024Y022900D01*
X005026Y022850D01*
X005024Y022800D01*
X005018Y022750D01*
X005008Y022701D01*
X004995Y022652D01*
X004977Y022605D01*
X004956Y022559D01*
X004932Y022516D01*
X004904Y022474D01*
X004873Y022434D01*
X004839Y022397D01*
X004802Y022363D01*
X004762Y022332D01*
X004720Y022304D01*
X004677Y022280D01*
X004631Y022259D01*
X004584Y022241D01*
X004535Y022228D01*
X004486Y022218D01*
X004436Y022212D01*
X004386Y022210D01*
X004336Y022212D01*
X004286Y022218D01*
X004237Y022228D01*
X004188Y022241D01*
X004141Y022259D01*
X004095Y022280D01*
X004052Y022304D01*
X004010Y022332D01*
X003970Y022363D01*
X003933Y022397D01*
X003899Y022434D01*
X003868Y022474D01*
X003840Y022516D01*
X003816Y022559D01*
X003795Y022605D01*
X003777Y022652D01*
X003764Y022701D01*
X003754Y022750D01*
X003748Y022800D01*
X003746Y022850D01*
X003746Y027350D02*
X003748Y027400D01*
X003754Y027450D01*
X003764Y027499D01*
X003777Y027548D01*
X003795Y027595D01*
X003816Y027641D01*
X003840Y027684D01*
X003868Y027726D01*
X003899Y027766D01*
X003933Y027803D01*
X003970Y027837D01*
X004010Y027868D01*
X004052Y027896D01*
X004095Y027920D01*
X004141Y027941D01*
X004188Y027959D01*
X004237Y027972D01*
X004286Y027982D01*
X004336Y027988D01*
X004386Y027990D01*
X004436Y027988D01*
X004486Y027982D01*
X004535Y027972D01*
X004584Y027959D01*
X004631Y027941D01*
X004677Y027920D01*
X004720Y027896D01*
X004762Y027868D01*
X004802Y027837D01*
X004839Y027803D01*
X004873Y027766D01*
X004904Y027726D01*
X004932Y027684D01*
X004956Y027641D01*
X004977Y027595D01*
X004995Y027548D01*
X005008Y027499D01*
X005018Y027450D01*
X005024Y027400D01*
X005026Y027350D01*
X005024Y027300D01*
X005018Y027250D01*
X005008Y027201D01*
X004995Y027152D01*
X004977Y027105D01*
X004956Y027059D01*
X004932Y027016D01*
X004904Y026974D01*
X004873Y026934D01*
X004839Y026897D01*
X004802Y026863D01*
X004762Y026832D01*
X004720Y026804D01*
X004677Y026780D01*
X004631Y026759D01*
X004584Y026741D01*
X004535Y026728D01*
X004486Y026718D01*
X004436Y026712D01*
X004386Y026710D01*
X004336Y026712D01*
X004286Y026718D01*
X004237Y026728D01*
X004188Y026741D01*
X004141Y026759D01*
X004095Y026780D01*
X004052Y026804D01*
X004010Y026832D01*
X003970Y026863D01*
X003933Y026897D01*
X003899Y026934D01*
X003868Y026974D01*
X003840Y027016D01*
X003816Y027059D01*
X003795Y027105D01*
X003777Y027152D01*
X003764Y027201D01*
X003754Y027250D01*
X003748Y027300D01*
X003746Y027350D01*
X002083Y030466D02*
X002085Y030516D01*
X002091Y030566D01*
X002101Y030615D01*
X002115Y030663D01*
X002132Y030710D01*
X002153Y030755D01*
X002178Y030799D01*
X002206Y030840D01*
X002238Y030879D01*
X002272Y030916D01*
X002309Y030950D01*
X002349Y030980D01*
X002391Y031007D01*
X002435Y031031D01*
X002481Y031052D01*
X002528Y031068D01*
X002576Y031081D01*
X002626Y031090D01*
X002675Y031095D01*
X002726Y031096D01*
X002776Y031093D01*
X002825Y031086D01*
X002874Y031075D01*
X002922Y031060D01*
X002968Y031042D01*
X003013Y031020D01*
X003056Y030994D01*
X003097Y030965D01*
X003136Y030933D01*
X003172Y030898D01*
X003204Y030860D01*
X003234Y030820D01*
X003261Y030777D01*
X003284Y030733D01*
X003303Y030687D01*
X003319Y030639D01*
X003331Y030590D01*
X003339Y030541D01*
X003343Y030491D01*
X003343Y030441D01*
X003339Y030391D01*
X003331Y030342D01*
X003319Y030293D01*
X003303Y030245D01*
X003284Y030199D01*
X003261Y030155D01*
X003234Y030112D01*
X003204Y030072D01*
X003172Y030034D01*
X003136Y029999D01*
X003097Y029967D01*
X003056Y029938D01*
X003013Y029912D01*
X002968Y029890D01*
X002922Y029872D01*
X002874Y029857D01*
X002825Y029846D01*
X002776Y029839D01*
X002726Y029836D01*
X002675Y029837D01*
X002626Y029842D01*
X002576Y029851D01*
X002528Y029864D01*
X002481Y029880D01*
X002435Y029901D01*
X002391Y029925D01*
X002349Y029952D01*
X002309Y029982D01*
X002272Y030016D01*
X002238Y030053D01*
X002206Y030092D01*
X002178Y030133D01*
X002153Y030177D01*
X002132Y030222D01*
X002115Y030269D01*
X002101Y030317D01*
X002091Y030366D01*
X002085Y030416D01*
X002083Y030466D01*
X039091Y030466D02*
X039093Y030516D01*
X039099Y030566D01*
X039109Y030615D01*
X039123Y030663D01*
X039140Y030710D01*
X039161Y030755D01*
X039186Y030799D01*
X039214Y030840D01*
X039246Y030879D01*
X039280Y030916D01*
X039317Y030950D01*
X039357Y030980D01*
X039399Y031007D01*
X039443Y031031D01*
X039489Y031052D01*
X039536Y031068D01*
X039584Y031081D01*
X039634Y031090D01*
X039683Y031095D01*
X039734Y031096D01*
X039784Y031093D01*
X039833Y031086D01*
X039882Y031075D01*
X039930Y031060D01*
X039976Y031042D01*
X040021Y031020D01*
X040064Y030994D01*
X040105Y030965D01*
X040144Y030933D01*
X040180Y030898D01*
X040212Y030860D01*
X040242Y030820D01*
X040269Y030777D01*
X040292Y030733D01*
X040311Y030687D01*
X040327Y030639D01*
X040339Y030590D01*
X040347Y030541D01*
X040351Y030491D01*
X040351Y030441D01*
X040347Y030391D01*
X040339Y030342D01*
X040327Y030293D01*
X040311Y030245D01*
X040292Y030199D01*
X040269Y030155D01*
X040242Y030112D01*
X040212Y030072D01*
X040180Y030034D01*
X040144Y029999D01*
X040105Y029967D01*
X040064Y029938D01*
X040021Y029912D01*
X039976Y029890D01*
X039930Y029872D01*
X039882Y029857D01*
X039833Y029846D01*
X039784Y029839D01*
X039734Y029836D01*
X039683Y029837D01*
X039634Y029842D01*
X039584Y029851D01*
X039536Y029864D01*
X039489Y029880D01*
X039443Y029901D01*
X039399Y029925D01*
X039357Y029952D01*
X039317Y029982D01*
X039280Y030016D01*
X039246Y030053D01*
X039214Y030092D01*
X039186Y030133D01*
X039161Y030177D01*
X039140Y030222D01*
X039123Y030269D01*
X039109Y030317D01*
X039099Y030366D01*
X039093Y030416D01*
X039091Y030466D01*
X039091Y001332D02*
X039093Y001382D01*
X039099Y001432D01*
X039109Y001481D01*
X039123Y001529D01*
X039140Y001576D01*
X039161Y001621D01*
X039186Y001665D01*
X039214Y001706D01*
X039246Y001745D01*
X039280Y001782D01*
X039317Y001816D01*
X039357Y001846D01*
X039399Y001873D01*
X039443Y001897D01*
X039489Y001918D01*
X039536Y001934D01*
X039584Y001947D01*
X039634Y001956D01*
X039683Y001961D01*
X039734Y001962D01*
X039784Y001959D01*
X039833Y001952D01*
X039882Y001941D01*
X039930Y001926D01*
X039976Y001908D01*
X040021Y001886D01*
X040064Y001860D01*
X040105Y001831D01*
X040144Y001799D01*
X040180Y001764D01*
X040212Y001726D01*
X040242Y001686D01*
X040269Y001643D01*
X040292Y001599D01*
X040311Y001553D01*
X040327Y001505D01*
X040339Y001456D01*
X040347Y001407D01*
X040351Y001357D01*
X040351Y001307D01*
X040347Y001257D01*
X040339Y001208D01*
X040327Y001159D01*
X040311Y001111D01*
X040292Y001065D01*
X040269Y001021D01*
X040242Y000978D01*
X040212Y000938D01*
X040180Y000900D01*
X040144Y000865D01*
X040105Y000833D01*
X040064Y000804D01*
X040021Y000778D01*
X039976Y000756D01*
X039930Y000738D01*
X039882Y000723D01*
X039833Y000712D01*
X039784Y000705D01*
X039734Y000702D01*
X039683Y000703D01*
X039634Y000708D01*
X039584Y000717D01*
X039536Y000730D01*
X039489Y000746D01*
X039443Y000767D01*
X039399Y000791D01*
X039357Y000818D01*
X039317Y000848D01*
X039280Y000882D01*
X039246Y000919D01*
X039214Y000958D01*
X039186Y000999D01*
X039161Y001043D01*
X039140Y001088D01*
X039123Y001135D01*
X039109Y001183D01*
X039099Y001232D01*
X039093Y001282D01*
X039091Y001332D01*
M02*
