%
M48
M72
T01C0.01575
T02C0.02362
T03C0.03937
T04C0.04000
T05C0.04700
T06C0.05118
T07C0.08268
T08C0.10827
T09C0.12598
%
T01
X68013Y65380
X126674Y40183
X138485Y40183
X142816Y35458
X142816Y25222
X177461Y37427
X193603Y41364
X189666Y55537
X214469Y55537
X221556Y35458
X247540Y35458
X247540Y25222
X257776Y62230
X257776Y72466
X258170Y84277
X261320Y89002
X258564Y93726
X264469Y99238
X258564Y103962
X258564Y114198
X267619Y109474
X274706Y114198
X277461Y109474
X274706Y103962
X277855Y99238
X274706Y93726
X277855Y89002
X274706Y84277
X287304Y75222
X276280Y67348
X274706Y72466
X274706Y62230
X295965Y83883
X298721Y98057
X316831Y100419
X333761Y100419
X337304Y96088
X340060Y99631
X345572Y94120
X352265Y87427
X352265Y75222
X352265Y63411
X352265Y51994
X352265Y39395
X352265Y27191
X350690Y14986
X334154Y90576
X348328Y103175
X348328Y121285
X342816Y123647
X337304Y121285
X369981Y169710
X369981Y177978
X369981Y186246
X369981Y194513
X369981Y202781
X369981Y211049
X369981Y219317
X369981Y227584
X369587Y235852
X369587Y244120
X268013Y278765
X268013Y289789
X251477Y257112
X248328Y223647
X231398Y223647
X227461Y220498
X226280Y208293
X227855Y201994
X232580Y201994
X238091Y207112
X239666Y195694
X239666Y184277
X239666Y173647
X255020Y164592
X255020Y156324
X243997Y155143
X239666Y156718
X235729Y151994
X243997Y144513
X245178Y137820
X238879Y137820
X241635Y132309
X236910Y124041
X239666Y117742
X239666Y107899
X245178Y104750
X239666Y101600
X239666Y80340
X203839Y76797
X206595Y104750
X206918Y124112
X195572Y140183
X195572Y148450
X195572Y156718
X189272Y156718
X184548Y156718
X179824Y156718
X175099Y156718
X175887Y170891
X180611Y170891
X185335Y170891
X190060Y170891
X170769Y176009
X156989Y176009
X148328Y194907
X154627Y200419
X157776Y208293
X151477Y208293
X134942Y208293
X123524Y215773
X117225Y216167
X123524Y220498
X117225Y223254
X111713Y223254
X111713Y216167
X110139Y207899
X118406Y209474
X122737Y194907
X126280Y176009
X113682Y176009
X107776Y159080
X101477Y156324
X91635Y166167
X91635Y174828
X94784Y190576
X91241Y205931
X98328Y205931
X94784Y212230
X90454Y215773
X90454Y220498
X72343Y205931
X55808Y205931
X43209Y218529
X37698Y207506
X37698Y199238
X43209Y234277
X43209Y240576
X49902Y237427
X43209Y255931
X37698Y261443
X62501Y277978
X67619Y275616
X77855Y277978
X107383Y257112
X135729Y255143
X164076Y249631
X169194Y252387
X174312Y249631
X181398Y249631
X190060Y249631
X190060Y260655
X181398Y260655
X174312Y260655
X164076Y260655
X169194Y270891
X210926Y297663
X223524Y297663
X201871Y214198
X197146Y214198
X192422Y214198
X187698Y214198
X191241Y208293
X192422Y202387
X187698Y202387
X197146Y202387
X201871Y202387
X201477Y208293
X213682Y208293
X223131Y201994
X178249Y208293
X171162Y208293
X174706Y200419
X173918Y194907
X183367Y142151
X169981Y124435
X143603Y137033
X131398Y121285
X107776Y118923
X101477Y124041
X107776Y139789
X148721Y100813
X148721Y91757
X164469Y82309
X166438Y67348
X147146Y65773
X193603Y24041
X277461Y121679
X277461Y129946
X258957Y129159
T02
X125099Y60261
X102658Y79159
X90847Y66561
X101083Y95301
T03
X256202Y49631
X276674Y49631
X131398Y276009
X116517Y276009
T04
X120611Y292663
X130611Y292663
X130611Y302663
X120611Y302663
X110611Y302663
X110611Y292663
X140611Y292663
X150611Y292663
X150611Y302663
X140611Y302663
X183603Y302663
X183603Y292663
X193603Y292663
X203603Y292663
X203603Y302663
X193603Y302663
X237146Y302663
X247146Y302663
X247146Y292663
X237146Y292663
X257146Y292663
X257146Y302663
X290296Y302663
X290296Y292663
X300296Y292663
X310296Y292663
X310296Y302663
X300296Y302663
X284666Y241639
X274666Y241639
X264666Y241639
X254666Y241639
X244666Y241639
X234666Y241639
X224666Y241639
X214666Y241639
X204666Y241639
X194666Y241639
X184666Y241639
X174666Y241639
X164666Y241639
X154666Y241639
X144666Y241639
X134666Y241639
X124666Y241639
X114666Y241639
X104666Y241639
X94666Y241639
X94666Y231639
X104666Y231639
X114666Y231639
X124666Y231639
X134666Y231639
X144666Y231639
X154666Y231639
X164666Y231639
X174666Y231639
X184666Y231639
X194666Y231639
X204666Y231639
X214666Y231639
X224666Y231639
X234666Y231639
X244666Y231639
X254666Y231639
X264666Y231639
X274666Y231639
X284666Y231639
X77619Y292663
X77619Y302663
X67619Y302663
X57619Y302663
X57619Y292663
X67619Y292663
X29312Y267663
X29312Y257663
X19312Y257663
X19312Y267663
X19312Y247663
X29312Y247663
X29312Y237663
X29312Y227663
X19312Y227663
X19312Y237663
X19312Y179395
X19312Y169395
X19312Y159395
X19312Y149395
X29312Y149395
X29312Y159395
X29312Y169395
X29312Y179395
X29312Y139395
X29312Y129395
X29312Y119395
X29312Y109395
X29312Y99395
X19312Y99395
X19312Y109395
X19312Y119395
X19312Y129395
X19312Y139395
X61162Y21561
X71162Y21561
X81162Y21561
X81162Y11561
X71162Y11561
X61162Y11561
X114312Y11561
X114312Y21561
X124312Y21561
X134312Y21561
X134312Y11561
X124312Y11561
X167461Y11561
X167461Y21561
X177461Y21561
X187461Y21561
X187461Y11561
X177461Y11561
X221005Y11561
X231005Y11561
X231005Y21561
X221005Y21561
X241005Y21561
X241005Y11561
X272776Y11561
X282776Y11561
X282776Y21561
X272776Y21561
X292776Y21561
X302776Y21561
X302776Y11561
X292776Y11561
X312776Y11561
X322776Y11561
X322776Y21561
X312776Y21561
X332776Y21561
X342776Y21561
X342776Y11561
X332776Y11561
T05
X21300Y46324
X21300Y66324
T06
X176044Y276009
X195887Y276009
X215729Y276009
T07
X250690Y271285
X376674Y271285
T08
X303839Y236639
X75493Y236639
X75493Y43726
X303839Y43726
T09
X18406Y17348
X18406Y300813
X380611Y300813
X380611Y17348
M30
