G75*
%MOIN*%
%OFA0B0*%
%FSLAX25Y25*%
%IPPOS*%
%LPD*%
%AMOC8*
5,1,8,0,0,1.08239X$1,22.5*
%
%ADD10C,0.00394*%
%ADD11R,0.04331X0.03937*%
%ADD12R,0.03150X0.03150*%
%ADD13R,0.07098X0.06299*%
%ADD14R,0.03937X0.04331*%
%ADD15R,0.02600X0.08000*%
%ADD16OC8,0.06000*%
%ADD17C,0.06000*%
%ADD18R,0.06693X0.02559*%
%ADD19C,0.24409*%
%ADD20R,0.05512X0.03937*%
%ADD21R,0.07008X0.08504*%
%ADD22R,0.03543X0.02362*%
%ADD23R,0.13780X0.03150*%
%ADD24R,0.07480X0.13386*%
%ADD25R,0.06299X0.07087*%
%ADD26C,0.07050*%
%ADD27C,0.06299*%
%ADD28C,0.07874*%
%ADD29C,0.03150*%
%ADD30C,0.01575*%
%ADD31C,0.00787*%
%ADD32C,0.05906*%
%ADD33C,0.04724*%
%ADD34C,0.03937*%
%ADD35C,0.15748*%
%ADD36C,0.23622*%
%ADD37C,0.03150*%
%ADD38C,0.02362*%
%ADD39C,0.02775*%
%ADD40C,0.03543*%
%ADD41C,0.06693*%
D10*
X0002658Y0001600D02*
X0002658Y0316561D01*
X0396359Y0316561D01*
X0396359Y0001600D01*
X0002658Y0001600D01*
D11*
X0125099Y0047072D03*
X0125099Y0053765D03*
X0153146Y0065844D03*
X0159839Y0065844D03*
X0173328Y0067836D03*
X0173328Y0061143D03*
X0181469Y0061143D03*
X0181469Y0067836D03*
X0197753Y0067836D03*
X0197753Y0061143D03*
X0206288Y0061143D03*
X0206288Y0067836D03*
X0236910Y0058096D03*
X0236910Y0051403D03*
X0243603Y0068332D03*
X0243603Y0075025D03*
X0189666Y0112427D03*
X0189666Y0119120D03*
X0178643Y0119120D03*
X0178643Y0112427D03*
X0161320Y0112427D03*
X0161320Y0119120D03*
X0152658Y0119120D03*
X0152658Y0112427D03*
X0155587Y0100734D03*
X0162280Y0100734D03*
X0161887Y0091553D03*
X0155194Y0091553D03*
X0122737Y0126206D03*
X0122737Y0132899D03*
X0114076Y0132899D03*
X0114076Y0126206D03*
X0092816Y0128962D03*
X0092816Y0135655D03*
X0084154Y0135655D03*
X0084154Y0128962D03*
X0084154Y0144317D03*
X0084154Y0151009D03*
X0092816Y0151009D03*
X0092816Y0144317D03*
X0098627Y0166057D03*
X0105320Y0166057D03*
X0105320Y0174844D03*
X0098627Y0174844D03*
X0104926Y0182348D03*
X0104926Y0189041D03*
X0113839Y0189041D03*
X0113839Y0182348D03*
X0131359Y0182277D03*
X0131359Y0188970D03*
X0139824Y0188844D03*
X0139824Y0182151D03*
X0156965Y0182183D03*
X0156965Y0188876D03*
X0165485Y0188939D03*
X0165485Y0182246D03*
X0129824Y0215183D03*
X0129824Y0221876D03*
X0145178Y0223057D03*
X0145178Y0216364D03*
X0142225Y0255143D03*
X0148918Y0255143D03*
X0092028Y0260065D03*
X0092028Y0266757D03*
X0165650Y0137230D03*
X0165650Y0130537D03*
X0175099Y0130537D03*
X0175099Y0137230D03*
X0265847Y0129946D03*
X0272540Y0129946D03*
X0272540Y0121679D03*
X0265847Y0121679D03*
X0286910Y0135261D03*
X0286910Y0141954D03*
X0334548Y0145104D03*
X0334548Y0151009D03*
X0334548Y0157702D03*
X0334548Y0138411D03*
D12*
X0333367Y0268332D03*
X0333367Y0274238D03*
X0343209Y0274238D03*
X0343209Y0268332D03*
X0353052Y0268332D03*
X0353052Y0274238D03*
X0362894Y0274238D03*
X0362894Y0268332D03*
X0323524Y0268332D03*
X0323524Y0274238D03*
X0313682Y0274238D03*
X0313682Y0268332D03*
X0303839Y0268332D03*
X0303839Y0274238D03*
X0293997Y0274238D03*
X0293997Y0268332D03*
X0284154Y0268332D03*
X0284154Y0274238D03*
X0274312Y0274238D03*
X0274312Y0268332D03*
X0264469Y0268332D03*
X0264469Y0274238D03*
X0020572Y0199238D03*
X0014666Y0199238D03*
X0013879Y0207506D03*
X0019784Y0207506D03*
D13*
X0198855Y0128836D03*
X0198855Y0117639D03*
X0274312Y0138915D03*
X0274312Y0150112D03*
X0283367Y0154269D03*
X0283367Y0165466D03*
D14*
X0357580Y0169710D03*
X0364272Y0169710D03*
X0364272Y0177978D03*
X0357580Y0177978D03*
X0357580Y0186246D03*
X0364272Y0186246D03*
X0364272Y0194513D03*
X0357580Y0194513D03*
X0357580Y0202781D03*
X0364272Y0202781D03*
X0364272Y0211049D03*
X0357580Y0211049D03*
X0357580Y0219317D03*
X0364272Y0219317D03*
X0364272Y0227584D03*
X0357580Y0227584D03*
X0357580Y0235852D03*
X0364272Y0235852D03*
X0364272Y0244120D03*
X0357580Y0244120D03*
X0263879Y0257112D03*
X0257186Y0257112D03*
X0173879Y0188939D03*
X0173879Y0182246D03*
X0148359Y0182065D03*
X0148359Y0188757D03*
X0122769Y0189041D03*
X0122769Y0182348D03*
X0101477Y0151009D03*
X0101477Y0144317D03*
X0101477Y0135655D03*
X0101477Y0128962D03*
X0131398Y0126206D03*
X0131398Y0132899D03*
X0169981Y0119120D03*
X0169981Y0112427D03*
X0183367Y0130537D03*
X0183367Y0137230D03*
X0200493Y0140183D03*
X0207186Y0140183D03*
X0207186Y0148450D03*
X0200493Y0148450D03*
X0200493Y0156718D03*
X0207186Y0156718D03*
X0159839Y0082521D03*
X0153146Y0082521D03*
X0153146Y0073986D03*
X0159839Y0073986D03*
X0189611Y0067836D03*
X0189611Y0061143D03*
X0214430Y0061143D03*
X0214430Y0067836D03*
X0237107Y0051206D03*
X0243800Y0051206D03*
X0243800Y0068135D03*
X0250493Y0068135D03*
X0104430Y0066561D03*
X0097737Y0066561D03*
X0032383Y0199238D03*
X0025690Y0199238D03*
X0025690Y0207506D03*
X0032383Y0207506D03*
X0122146Y0255143D03*
X0128839Y0255143D03*
D15*
X0128729Y0168338D03*
X0133729Y0168338D03*
X0138729Y0168338D03*
X0143729Y0168338D03*
X0123729Y0168338D03*
X0118729Y0168338D03*
X0113729Y0168338D03*
X0113729Y0144138D03*
X0118729Y0144138D03*
X0123729Y0144138D03*
X0128729Y0144138D03*
X0133729Y0144138D03*
X0138729Y0144138D03*
X0143729Y0144138D03*
X0169666Y0102661D03*
X0174666Y0102661D03*
X0179666Y0102661D03*
X0184666Y0102661D03*
X0189666Y0102661D03*
X0194666Y0102661D03*
X0199666Y0102661D03*
X0199666Y0078461D03*
X0194666Y0078461D03*
X0189666Y0078461D03*
X0184666Y0078461D03*
X0179666Y0078461D03*
X0174666Y0078461D03*
X0169666Y0078461D03*
D16*
X0167461Y0021561D03*
X0177461Y0021561D03*
X0187461Y0021561D03*
X0187461Y0011561D03*
X0177461Y0011561D03*
X0134312Y0011561D03*
X0124312Y0011561D03*
X0124312Y0021561D03*
X0134312Y0021561D03*
X0114312Y0021561D03*
X0081162Y0021561D03*
X0071162Y0021561D03*
X0061162Y0021561D03*
X0071162Y0011561D03*
X0081162Y0011561D03*
X0029312Y0099395D03*
X0019312Y0099395D03*
X0019312Y0109395D03*
X0029312Y0109395D03*
X0029312Y0119395D03*
X0019312Y0119395D03*
X0019312Y0129395D03*
X0029312Y0129395D03*
X0029312Y0139395D03*
X0019312Y0139395D03*
X0019312Y0149395D03*
X0029312Y0149395D03*
X0029312Y0159395D03*
X0019312Y0159395D03*
X0019312Y0169395D03*
X0029312Y0169395D03*
X0029312Y0179395D03*
X0019312Y0179395D03*
X0019312Y0227663D03*
X0029312Y0227663D03*
X0029312Y0237663D03*
X0029312Y0247663D03*
X0019312Y0247663D03*
X0019312Y0237663D03*
X0019312Y0257663D03*
X0029312Y0257663D03*
X0029312Y0267663D03*
X0019312Y0267663D03*
X0057619Y0292663D03*
X0067619Y0292663D03*
X0077619Y0292663D03*
X0067619Y0302663D03*
X0057619Y0302663D03*
X0110611Y0302663D03*
X0110611Y0292663D03*
X0120611Y0292663D03*
X0130611Y0292663D03*
X0130611Y0302663D03*
X0120611Y0302663D03*
X0140611Y0302663D03*
X0150611Y0302663D03*
X0150611Y0292663D03*
X0140611Y0292663D03*
X0183603Y0292663D03*
X0183603Y0302663D03*
X0193603Y0302663D03*
X0193603Y0292663D03*
X0203603Y0292663D03*
X0237146Y0292663D03*
X0247146Y0292663D03*
X0247146Y0302663D03*
X0237146Y0302663D03*
X0257146Y0292663D03*
X0290296Y0292663D03*
X0290296Y0302663D03*
X0300296Y0302663D03*
X0300296Y0292663D03*
X0310296Y0292663D03*
X0284666Y0241639D03*
X0274666Y0241639D03*
X0264666Y0241639D03*
X0254666Y0241639D03*
X0244666Y0241639D03*
X0234666Y0241639D03*
X0224666Y0241639D03*
X0214666Y0241639D03*
X0204666Y0241639D03*
X0194666Y0241639D03*
X0184666Y0241639D03*
X0174666Y0241639D03*
X0164666Y0241639D03*
X0154666Y0241639D03*
X0144666Y0241639D03*
X0134666Y0241639D03*
X0124666Y0241639D03*
X0114666Y0241639D03*
X0104666Y0241639D03*
X0094666Y0241639D03*
X0094666Y0231639D03*
X0104666Y0231639D03*
X0114666Y0231639D03*
X0124666Y0231639D03*
X0134666Y0231639D03*
X0144666Y0231639D03*
X0154666Y0231639D03*
X0164666Y0231639D03*
X0174666Y0231639D03*
X0184666Y0231639D03*
X0194666Y0231639D03*
X0204666Y0231639D03*
X0214666Y0231639D03*
X0224666Y0231639D03*
X0234666Y0231639D03*
X0244666Y0231639D03*
X0254666Y0231639D03*
X0264666Y0231639D03*
X0274666Y0231639D03*
X0284666Y0231639D03*
X0282776Y0021561D03*
X0272776Y0021561D03*
X0272776Y0011561D03*
X0282776Y0011561D03*
X0292776Y0011561D03*
X0302776Y0011561D03*
X0302776Y0021561D03*
X0292776Y0021561D03*
X0312776Y0021561D03*
X0322776Y0021561D03*
X0322776Y0011561D03*
X0312776Y0011561D03*
X0332776Y0011561D03*
X0342776Y0011561D03*
X0342776Y0021561D03*
X0332776Y0021561D03*
X0241005Y0021561D03*
X0231005Y0021561D03*
X0221005Y0021561D03*
X0231005Y0011561D03*
X0241005Y0011561D03*
D17*
X0221005Y0011561D03*
X0167461Y0011561D03*
X0114312Y0011561D03*
X0061162Y0011561D03*
X0077619Y0302663D03*
X0203603Y0302663D03*
X0257146Y0302663D03*
X0310296Y0302663D03*
D18*
X0252312Y0149112D03*
X0252312Y0144112D03*
X0252312Y0139112D03*
X0252312Y0134112D03*
X0252312Y0129112D03*
X0252312Y0124112D03*
X0252312Y0119112D03*
X0252312Y0114112D03*
X0252312Y0109112D03*
X0252312Y0104112D03*
X0252312Y0099112D03*
X0252312Y0094112D03*
X0252312Y0089112D03*
X0252312Y0084112D03*
X0214674Y0084112D03*
X0214674Y0089112D03*
X0214674Y0094112D03*
X0214674Y0099112D03*
X0214674Y0104112D03*
X0214674Y0109112D03*
X0214674Y0114112D03*
X0214674Y0119112D03*
X0214674Y0124112D03*
X0214674Y0129112D03*
X0214674Y0134112D03*
X0214674Y0139112D03*
X0214674Y0144112D03*
X0214674Y0149112D03*
D19*
X0303839Y0236639D03*
X0075493Y0236639D03*
X0075493Y0043726D03*
X0303839Y0043726D03*
D20*
X0304233Y0135655D03*
X0295572Y0139395D03*
X0304233Y0143135D03*
X0316831Y0143135D03*
X0325493Y0139395D03*
X0316831Y0135655D03*
X0316831Y0156128D03*
X0316831Y0163608D03*
X0325493Y0159868D03*
X0299902Y0163608D03*
X0299902Y0156128D03*
X0291241Y0159868D03*
X0110532Y0262624D03*
X0101871Y0266364D03*
X0101871Y0258883D03*
X0057383Y0087230D03*
X0057383Y0079750D03*
X0048721Y0083490D03*
D21*
X0078918Y0079159D03*
X0094942Y0079159D03*
D22*
X0104430Y0055340D03*
X0104430Y0051600D03*
X0104430Y0047860D03*
X0113485Y0047860D03*
X0113485Y0051600D03*
X0113485Y0055340D03*
D23*
X0048721Y0057998D03*
X0048721Y0046777D03*
D24*
X0077265Y0095301D03*
X0092619Y0095301D03*
D25*
X0059745Y0065380D03*
X0048721Y0065380D03*
D26*
X0024825Y0066324D02*
X0017775Y0066324D01*
X0017775Y0046324D02*
X0024825Y0046324D01*
D27*
X0116517Y0276009D03*
X0131398Y0276009D03*
D28*
X0176044Y0276009D03*
X0195887Y0276009D03*
X0215729Y0276009D03*
D29*
X0251477Y0257112D03*
X0238091Y0207112D03*
X0226280Y0208293D03*
X0213682Y0208293D03*
X0201477Y0208293D03*
X0191241Y0208293D03*
X0178249Y0208293D03*
X0171162Y0208293D03*
X0174706Y0200419D03*
X0173918Y0194907D03*
X0157776Y0208293D03*
X0151477Y0208293D03*
X0154627Y0200419D03*
X0148328Y0194907D03*
X0134942Y0208293D03*
X0118406Y0209474D03*
X0110139Y0207899D03*
X0111713Y0216167D03*
X0117225Y0216167D03*
X0117225Y0223254D03*
X0111713Y0223254D03*
X0094784Y0212230D03*
X0091241Y0205931D03*
X0098328Y0205931D03*
X0094784Y0190576D03*
X0091635Y0174828D03*
X0091635Y0166167D03*
X0101477Y0156324D03*
X0107776Y0159080D03*
X0113682Y0176009D03*
X0126280Y0176009D03*
X0122737Y0194907D03*
X0156989Y0176009D03*
X0170769Y0176009D03*
X0175887Y0170891D03*
X0180611Y0170891D03*
X0185335Y0170891D03*
X0190060Y0170891D03*
X0189272Y0156718D03*
X0184548Y0156718D03*
X0179824Y0156718D03*
X0175099Y0156718D03*
X0183367Y0142151D03*
X0195572Y0140183D03*
X0195572Y0148450D03*
X0195572Y0156718D03*
X0206918Y0124112D03*
X0206595Y0104750D03*
X0203839Y0076797D03*
X0214469Y0055537D03*
X0193603Y0041364D03*
X0189666Y0055537D03*
X0177461Y0037427D03*
X0193603Y0024041D03*
X0221556Y0035458D03*
X0247540Y0035458D03*
X0247540Y0025222D03*
X0257776Y0062230D03*
X0257776Y0072466D03*
X0274706Y0072466D03*
X0276280Y0067348D03*
X0274706Y0062230D03*
X0287304Y0075222D03*
X0295965Y0083883D03*
X0298721Y0098057D03*
X0316831Y0100419D03*
X0333761Y0100419D03*
X0337304Y0096088D03*
X0340060Y0099631D03*
X0345572Y0094120D03*
X0352265Y0087427D03*
X0352265Y0075222D03*
X0352265Y0063411D03*
X0352265Y0051994D03*
X0352265Y0039395D03*
X0352265Y0027191D03*
X0350690Y0014986D03*
X0334154Y0090576D03*
X0348328Y0103175D03*
X0348328Y0121285D03*
X0342816Y0123647D03*
X0337304Y0121285D03*
X0369981Y0169710D03*
X0369981Y0177978D03*
X0369981Y0186246D03*
X0369981Y0194513D03*
X0369981Y0202781D03*
X0369981Y0211049D03*
X0369981Y0219317D03*
X0369981Y0227584D03*
X0369587Y0235852D03*
X0369587Y0244120D03*
X0255020Y0164592D03*
X0255020Y0156324D03*
X0243997Y0155143D03*
X0239666Y0156718D03*
X0235729Y0151994D03*
X0243997Y0144513D03*
X0245178Y0137820D03*
X0238879Y0137820D03*
X0241635Y0132309D03*
X0236910Y0124041D03*
X0239666Y0117742D03*
X0239666Y0107899D03*
X0245178Y0104750D03*
X0239666Y0101600D03*
X0239666Y0080340D03*
X0277461Y0121679D03*
X0277461Y0129946D03*
X0258957Y0129159D03*
X0239666Y0173647D03*
X0239666Y0184277D03*
X0239666Y0195694D03*
X0169981Y0124435D03*
X0143603Y0137033D03*
X0131398Y0121285D03*
X0107776Y0118923D03*
X0101477Y0124041D03*
X0107776Y0139789D03*
X0148721Y0100813D03*
X0148721Y0091757D03*
X0164469Y0082309D03*
X0166438Y0067348D03*
X0147146Y0065773D03*
X0138485Y0040183D03*
X0142816Y0035458D03*
X0142816Y0025222D03*
X0126674Y0040183D03*
X0037698Y0199238D03*
X0037698Y0207506D03*
X0043209Y0218529D03*
X0055808Y0205931D03*
X0072343Y0205931D03*
X0043209Y0234277D03*
X0043209Y0240576D03*
X0049902Y0237427D03*
X0043209Y0255931D03*
X0037698Y0261443D03*
X0107383Y0257112D03*
X0135729Y0255143D03*
D30*
X0128839Y0255143D01*
X0135729Y0255143D02*
X0142225Y0255143D01*
X0141241Y0261443D02*
X0150690Y0261443D01*
X0154627Y0257506D01*
X0197934Y0257506D01*
X0201871Y0261443D01*
X0183603Y0279710D01*
X0183603Y0292663D01*
X0202658Y0262230D02*
X0210926Y0262230D01*
X0222343Y0273647D01*
X0222343Y0280340D01*
X0219981Y0282702D01*
X0219981Y0292939D01*
X0220257Y0292663D01*
X0237146Y0292663D01*
X0219981Y0292939D02*
X0219981Y0307899D01*
X0223131Y0311049D01*
X0275887Y0311049D01*
X0279824Y0307112D01*
X0279824Y0296876D01*
X0284036Y0292663D01*
X0290296Y0292663D01*
X0257186Y0257112D02*
X0251477Y0257112D01*
X0202658Y0262230D02*
X0201871Y0261443D01*
X0141241Y0261443D02*
X0137304Y0265380D01*
X0137304Y0277584D01*
X0133761Y0281128D01*
X0090060Y0281128D01*
X0084942Y0286246D01*
X0084942Y0294513D01*
X0081792Y0297663D01*
X0072737Y0297663D01*
X0067737Y0292663D01*
X0067619Y0292663D01*
X0067619Y0275616D02*
X0067619Y0274041D01*
X0049902Y0256324D01*
X0049902Y0237427D01*
X0049902Y0221285D01*
X0058839Y0212348D01*
X0094666Y0212348D01*
X0094784Y0212230D01*
X0094666Y0212348D02*
X0094666Y0231639D01*
X0101871Y0258883D02*
X0107383Y0257112D01*
X0110532Y0262624D02*
X0125887Y0262624D01*
X0131792Y0268529D01*
X0131792Y0275616D01*
X0131398Y0276009D01*
X0174706Y0200419D02*
X0180611Y0194513D01*
X0180611Y0179553D01*
X0177461Y0176403D01*
X0171162Y0176403D01*
X0170769Y0176009D01*
X0156965Y0176033D02*
X0156965Y0182183D01*
X0148359Y0188757D02*
X0148359Y0194876D01*
X0131359Y0181088D02*
X0126280Y0176009D01*
X0113682Y0176009D02*
X0106485Y0176009D01*
X0105808Y0175222D02*
X0105808Y0181466D01*
X0104926Y0182348D02*
X0104493Y0181915D01*
X0098721Y0181915D01*
X0094784Y0185852D01*
X0094784Y0190576D01*
X0091650Y0174844D02*
X0091635Y0174828D01*
X0091650Y0174844D02*
X0098627Y0174844D01*
X0105808Y0175222D02*
X0105808Y0166545D01*
X0108548Y0166545D01*
X0108564Y0166561D02*
X0109745Y0166561D01*
X0111522Y0168338D01*
X0113729Y0168338D01*
X0105414Y0165962D02*
X0105414Y0162624D01*
X0106005Y0162033D01*
X0089076Y0162033D01*
X0084154Y0157112D01*
X0084154Y0151009D01*
X0101477Y0151009D02*
X0101477Y0156324D01*
X0107776Y0159080D02*
X0107776Y0160261D01*
X0106005Y0162033D01*
X0098627Y0166057D02*
X0091745Y0166057D01*
X0091635Y0166167D01*
X0122769Y0189041D02*
X0122769Y0194876D01*
X0173879Y0194868D02*
X0173879Y0188939D01*
X0195572Y0156718D02*
X0200493Y0156718D01*
X0200493Y0148450D02*
X0195572Y0148450D01*
X0195572Y0140183D02*
X0200493Y0140183D01*
X0183367Y0142151D02*
X0183367Y0137230D01*
X0169981Y0124435D02*
X0169981Y0119120D01*
X0165650Y0130537D02*
X0149706Y0130537D01*
X0146753Y0127584D01*
X0146753Y0112820D01*
X0146359Y0112427D01*
X0143800Y0112427D01*
X0142422Y0113805D01*
X0112894Y0113805D01*
X0107776Y0118923D01*
X0114076Y0125222D01*
X0114076Y0126206D01*
X0101477Y0124041D02*
X0101477Y0128962D01*
X0131398Y0126206D02*
X0131398Y0121285D01*
X0146359Y0112427D02*
X0152658Y0112427D01*
X0152658Y0109474D01*
X0155020Y0107112D01*
X0160139Y0107112D01*
X0162107Y0105143D01*
X0162107Y0100907D01*
X0162280Y0100734D01*
X0162280Y0091946D01*
X0161887Y0091553D02*
X0161713Y0091380D01*
X0161713Y0087427D01*
X0159839Y0085553D01*
X0159839Y0082521D01*
X0160052Y0082309D01*
X0164469Y0082309D01*
X0162076Y0091364D02*
X0167619Y0091364D01*
X0169666Y0093411D01*
X0169666Y0096088D01*
X0170060Y0095694D01*
X0195178Y0095694D01*
X0194784Y0096088D01*
X0194784Y0102543D01*
X0194666Y0102661D01*
X0195178Y0095694D02*
X0203446Y0095694D01*
X0206595Y0098844D01*
X0206595Y0104750D01*
X0206595Y0108687D01*
X0198855Y0116427D01*
X0198855Y0117639D01*
X0169666Y0102661D02*
X0169666Y0096088D01*
X0155587Y0100734D02*
X0148800Y0100734D01*
X0148721Y0100813D01*
X0148721Y0091757D02*
X0148926Y0091553D01*
X0155194Y0091553D01*
X0132580Y0070104D02*
X0131792Y0070891D01*
X0147146Y0065773D02*
X0153076Y0065773D01*
X0166438Y0067348D02*
X0166438Y0056718D01*
X0170769Y0052387D01*
X0193603Y0052387D01*
X0193603Y0041364D01*
X0193603Y0052387D02*
X0193603Y0066167D01*
X0195272Y0067836D01*
X0197753Y0067836D01*
X0189666Y0061088D02*
X0189666Y0055537D01*
X0172839Y0067348D02*
X0166438Y0067348D01*
X0199902Y0076403D02*
X0199902Y0078224D01*
X0199666Y0078461D01*
X0200296Y0076797D02*
X0199902Y0076403D01*
X0200296Y0076797D02*
X0203839Y0076797D01*
X0214469Y0061104D02*
X0214469Y0055537D01*
X0193603Y0024041D02*
X0193603Y0020104D01*
X0197146Y0016561D01*
X0226005Y0016561D01*
X0231005Y0021561D01*
X0245178Y0104750D02*
X0246359Y0105931D01*
X0246359Y0122860D01*
X0247611Y0124112D01*
X0252312Y0124112D01*
X0258493Y0124112D01*
X0260926Y0121679D01*
X0265847Y0121679D01*
X0265847Y0129946D01*
X0265847Y0134474D01*
X0270375Y0139002D01*
X0274225Y0139002D01*
X0274312Y0138915D01*
X0275580Y0138915D01*
X0281792Y0132702D01*
X0286603Y0132702D01*
X0286910Y0135261D01*
X0277461Y0129946D02*
X0272540Y0129946D01*
X0272540Y0121679D02*
X0277461Y0121679D01*
X0258957Y0129159D02*
X0252265Y0129159D01*
X0252312Y0129112D01*
X0143729Y0137159D02*
X0143603Y0137033D01*
X0143729Y0137159D02*
X0143729Y0144138D01*
X0065650Y0079946D02*
X0084942Y0060655D01*
X0091635Y0060655D01*
X0096950Y0055340D01*
X0104430Y0055340D01*
X0104430Y0066561D01*
X0108957Y0067742D02*
X0115454Y0074238D01*
X0108957Y0067742D02*
X0108957Y0052781D01*
X0107776Y0051600D01*
X0104430Y0051600D01*
X0104430Y0047860D02*
X0097540Y0047860D01*
X0088682Y0056718D01*
X0083367Y0056718D01*
X0067225Y0072860D01*
X0048721Y0072860D01*
X0057383Y0079750D02*
X0057580Y0079946D01*
X0065650Y0079946D01*
X0113485Y0055340D02*
X0113485Y0051600D01*
X0113485Y0047860D01*
X0114272Y0047072D01*
X0125099Y0047072D01*
X0037698Y0199238D02*
X0032383Y0199238D01*
X0032383Y0207506D02*
X0037698Y0207506D01*
X0364272Y0211049D02*
X0369981Y0211049D01*
X0369981Y0219317D02*
X0364272Y0219317D01*
X0364272Y0227584D02*
X0369981Y0227584D01*
X0369587Y0235852D02*
X0364272Y0235852D01*
X0364272Y0244120D02*
X0369587Y0244120D01*
X0369981Y0202781D02*
X0364272Y0202781D01*
X0364272Y0194513D02*
X0369981Y0194513D01*
X0369981Y0186246D02*
X0364272Y0186246D01*
X0364272Y0177978D02*
X0369981Y0177978D01*
X0369981Y0169710D02*
X0364272Y0169710D01*
D31*
X0357580Y0169710D02*
X0357186Y0170104D01*
X0353052Y0170104D01*
X0340454Y0182702D01*
X0340454Y0195301D01*
X0319194Y0216561D01*
X0319194Y0244120D01*
X0312107Y0251206D01*
X0288485Y0251206D01*
X0274312Y0265380D01*
X0274312Y0268332D01*
X0278249Y0267742D02*
X0278249Y0272466D01*
X0276477Y0274238D01*
X0274312Y0274238D01*
X0270375Y0276403D02*
X0272737Y0278765D01*
X0351871Y0278765D01*
X0353446Y0277191D01*
X0353446Y0274631D01*
X0353052Y0274238D01*
X0353052Y0268332D02*
X0353052Y0261443D01*
X0344391Y0252781D01*
X0344391Y0237820D01*
X0346753Y0235458D01*
X0357186Y0235458D01*
X0357580Y0235852D01*
X0357580Y0244120D02*
X0347540Y0244120D01*
X0345965Y0245694D01*
X0345965Y0251994D01*
X0357776Y0263805D01*
X0360926Y0263805D01*
X0362894Y0265773D01*
X0362894Y0268332D01*
X0362894Y0274238D02*
X0362894Y0277978D01*
X0358170Y0282702D01*
X0236517Y0282702D01*
X0231792Y0277978D01*
X0231792Y0257506D01*
X0229824Y0255537D01*
X0229824Y0225222D01*
X0231398Y0223647D01*
X0171162Y0223647D01*
X0164666Y0230143D01*
X0164666Y0231639D01*
X0167225Y0236246D02*
X0169587Y0233883D01*
X0169587Y0229159D01*
X0173524Y0225222D01*
X0207383Y0225222D01*
X0209745Y0227584D01*
X0209745Y0234671D01*
X0208170Y0236246D01*
X0201083Y0236246D01*
X0199509Y0237820D01*
X0199509Y0250419D01*
X0205808Y0256718D01*
X0223918Y0256718D01*
X0227068Y0259868D01*
X0227068Y0280340D01*
X0234154Y0287427D01*
X0245178Y0287427D01*
X0247146Y0289395D01*
X0247146Y0292663D01*
X0234942Y0285852D02*
X0228643Y0279553D01*
X0228643Y0259080D01*
X0224706Y0255143D01*
X0208170Y0255143D01*
X0204666Y0251639D01*
X0204666Y0241639D01*
X0196359Y0237033D02*
X0191635Y0237033D01*
X0190060Y0238608D01*
X0190060Y0249631D01*
X0194666Y0251324D02*
X0190847Y0255143D01*
X0148918Y0255143D01*
X0148918Y0257702D01*
X0147540Y0259080D01*
X0123131Y0259080D01*
X0122343Y0258293D01*
X0122343Y0255340D01*
X0122146Y0255143D01*
X0118406Y0255143D01*
X0116831Y0253569D01*
X0094784Y0253569D01*
X0092028Y0256324D01*
X0092028Y0260065D01*
X0092422Y0266364D02*
X0092028Y0266757D01*
X0092422Y0266364D02*
X0101871Y0266364D01*
X0119587Y0247269D02*
X0121950Y0249631D01*
X0157776Y0249631D01*
X0160532Y0252387D01*
X0169194Y0252387D01*
X0164666Y0249041D02*
X0164076Y0249631D01*
X0164666Y0249041D02*
X0164666Y0241639D01*
X0167225Y0236246D02*
X0149902Y0236246D01*
X0145296Y0231639D01*
X0144666Y0231639D01*
X0139272Y0237033D02*
X0139272Y0224435D01*
X0140847Y0222860D01*
X0144981Y0222860D01*
X0145178Y0223057D01*
X0145375Y0222860D01*
X0149902Y0222860D01*
X0150887Y0221876D01*
X0197737Y0221876D01*
X0201871Y0217742D01*
X0201871Y0214198D01*
X0197146Y0214198D02*
X0197146Y0216954D01*
X0194391Y0219710D01*
X0134154Y0219710D01*
X0131989Y0221876D01*
X0129824Y0221876D01*
X0129824Y0236246D01*
X0124666Y0241403D01*
X0124666Y0241639D01*
X0119587Y0238608D02*
X0119587Y0247269D01*
X0119587Y0238608D02*
X0124666Y0233529D01*
X0124666Y0231639D01*
X0119981Y0235065D02*
X0118800Y0236246D01*
X0109272Y0236246D01*
X0104666Y0231639D01*
X0104666Y0227545D01*
X0108957Y0223254D01*
X0108957Y0211049D01*
X0106595Y0208687D01*
X0056989Y0208687D01*
X0045965Y0219710D01*
X0045965Y0259474D01*
X0037776Y0267663D01*
X0029312Y0267663D01*
X0029312Y0257663D02*
X0037146Y0257663D01*
X0040454Y0254356D01*
X0040454Y0217348D01*
X0054627Y0203175D01*
X0111713Y0203175D01*
X0114076Y0205537D01*
X0114469Y0205537D01*
X0114469Y0231443D01*
X0114666Y0231639D01*
X0119981Y0235065D02*
X0119981Y0212624D01*
X0121556Y0211049D01*
X0238091Y0211049D01*
X0242422Y0206718D01*
X0243997Y0155143D01*
X0245178Y0151994D02*
X0248328Y0155143D01*
X0248328Y0223647D01*
X0249902Y0226797D02*
X0249902Y0236403D01*
X0244666Y0241639D01*
X0239666Y0237820D02*
X0239666Y0251206D01*
X0233367Y0257506D01*
X0233367Y0277191D01*
X0237304Y0281128D01*
X0261713Y0281128D01*
X0264076Y0278765D01*
X0264076Y0274631D01*
X0264469Y0274238D01*
X0268013Y0274828D02*
X0268013Y0278765D01*
X0270375Y0276403D02*
X0270375Y0245694D01*
X0269587Y0244907D01*
X0269587Y0239395D01*
X0266831Y0236639D01*
X0257383Y0236639D01*
X0254666Y0233923D01*
X0254666Y0231639D01*
X0249902Y0226797D02*
X0251871Y0224828D01*
X0251871Y0163017D01*
X0254233Y0160655D01*
X0262107Y0160655D01*
X0266831Y0165380D01*
X0283280Y0165380D01*
X0283367Y0165466D01*
X0277855Y0159868D02*
X0291241Y0159868D01*
X0307383Y0159868D01*
X0311320Y0155931D01*
X0316635Y0155931D01*
X0316831Y0156128D01*
X0321162Y0153569D02*
X0319194Y0151600D01*
X0310139Y0151600D01*
X0305808Y0155931D01*
X0300099Y0155931D01*
X0299902Y0156128D01*
X0298044Y0154269D01*
X0283367Y0154269D01*
X0277855Y0159868D02*
X0274312Y0156324D01*
X0274312Y0150112D01*
X0274225Y0150025D01*
X0268013Y0150025D01*
X0262099Y0144112D01*
X0254627Y0144112D01*
X0254225Y0144513D01*
X0254627Y0144112D02*
X0252312Y0144112D01*
X0251910Y0144513D01*
X0243997Y0144513D01*
X0243997Y0140576D01*
X0242422Y0139002D01*
X0242422Y0135458D01*
X0244391Y0133490D01*
X0244391Y0119710D01*
X0242422Y0117742D01*
X0242422Y0078765D01*
X0243603Y0077584D01*
X0243603Y0075025D01*
X0243603Y0068332D02*
X0243603Y0057112D01*
X0241241Y0054750D01*
X0230611Y0054750D01*
X0229036Y0053175D01*
X0229036Y0037427D01*
X0227068Y0035458D01*
X0221556Y0035458D01*
X0215257Y0033883D02*
X0223131Y0041757D01*
X0223131Y0070104D01*
X0234154Y0081128D01*
X0234154Y0145694D01*
X0237304Y0148844D01*
X0244391Y0148844D01*
X0245178Y0149631D01*
X0245178Y0151994D01*
X0246753Y0151206D02*
X0247540Y0151994D01*
X0250690Y0151994D01*
X0255020Y0156324D01*
X0255020Y0164592D02*
X0255020Y0218923D01*
X0259351Y0223254D01*
X0270769Y0223254D01*
X0274666Y0227151D01*
X0274666Y0231639D01*
X0264666Y0241639D02*
X0265650Y0242624D01*
X0265650Y0243332D01*
X0268800Y0246482D01*
X0268800Y0274041D01*
X0268013Y0274828D01*
X0264469Y0268332D02*
X0264469Y0257702D01*
X0263879Y0257112D01*
X0278249Y0267742D02*
X0293209Y0252781D01*
X0312894Y0252781D01*
X0320769Y0244907D01*
X0320769Y0217348D01*
X0342028Y0196088D01*
X0342028Y0185852D01*
X0353839Y0174041D01*
X0378249Y0174041D01*
X0381398Y0170891D01*
X0381398Y0119710D01*
X0379036Y0117348D01*
X0271950Y0117348D01*
X0271950Y0038608D01*
X0275887Y0034671D01*
X0291635Y0034671D01*
X0297146Y0029159D01*
X0301083Y0029159D01*
X0302776Y0027466D01*
X0302776Y0021561D01*
X0297934Y0017348D02*
X0297934Y0026009D01*
X0290847Y0033096D01*
X0275099Y0033096D01*
X0270375Y0037820D01*
X0270375Y0112624D01*
X0268800Y0114198D01*
X0258564Y0114198D01*
X0252398Y0114198D01*
X0252312Y0114112D01*
X0252674Y0109474D02*
X0252312Y0109112D01*
X0252674Y0109474D02*
X0267619Y0109474D01*
X0267225Y0109474D01*
X0268800Y0107899D01*
X0268800Y0037033D01*
X0274312Y0031521D01*
X0290060Y0031521D01*
X0292776Y0028805D01*
X0292776Y0021561D01*
X0297934Y0017348D02*
X0302776Y0012506D01*
X0302776Y0011561D01*
X0292776Y0011561D02*
X0292698Y0011561D01*
X0287698Y0016561D01*
X0287698Y0027584D01*
X0285335Y0029946D01*
X0273524Y0029946D01*
X0267225Y0036246D01*
X0267225Y0102387D01*
X0265650Y0103962D01*
X0258564Y0103962D01*
X0252461Y0103962D01*
X0252312Y0104112D01*
X0252438Y0099238D02*
X0252312Y0099112D01*
X0252438Y0099238D02*
X0264469Y0099238D01*
X0264076Y0099238D01*
X0265650Y0097663D01*
X0265650Y0035458D01*
X0272737Y0028372D01*
X0280611Y0028372D01*
X0282776Y0026206D01*
X0282776Y0021561D01*
X0278249Y0016561D02*
X0270375Y0016561D01*
X0262501Y0024435D01*
X0262501Y0088214D01*
X0261713Y0089002D01*
X0261320Y0089002D01*
X0252422Y0089002D01*
X0252312Y0089112D01*
X0252698Y0093726D02*
X0252312Y0094112D01*
X0252698Y0093726D02*
X0258564Y0093726D01*
X0262501Y0093726D01*
X0264076Y0092151D01*
X0264076Y0034671D01*
X0272776Y0025970D01*
X0272776Y0021561D01*
X0278249Y0016561D02*
X0282776Y0012033D01*
X0282776Y0011561D01*
X0272776Y0011561D02*
X0272501Y0011836D01*
X0266438Y0011836D01*
X0262107Y0016167D01*
X0260926Y0017348D01*
X0260926Y0081915D01*
X0258564Y0084277D01*
X0258170Y0084277D01*
X0252477Y0084277D01*
X0252312Y0084112D01*
X0257776Y0072466D02*
X0253446Y0068135D01*
X0250493Y0068135D01*
X0243800Y0068135D02*
X0243603Y0068332D01*
X0236910Y0058096D02*
X0236910Y0119317D01*
X0239666Y0122072D01*
X0239666Y0126009D01*
X0238879Y0126797D01*
X0238879Y0137820D01*
X0245178Y0137820D02*
X0246469Y0139112D01*
X0252312Y0139112D01*
X0261430Y0139112D01*
X0266831Y0144513D01*
X0280217Y0144513D01*
X0282973Y0141757D01*
X0286713Y0141757D01*
X0286910Y0141954D01*
X0293013Y0141954D01*
X0295572Y0139395D01*
X0295572Y0134671D01*
X0299115Y0131128D01*
X0312304Y0131128D01*
X0316831Y0135655D01*
X0314666Y0135655D01*
X0308564Y0135458D02*
X0304430Y0135458D01*
X0304233Y0135655D01*
X0303643Y0135655D01*
X0299902Y0139395D01*
X0299902Y0156128D01*
X0299902Y0163608D02*
X0299902Y0164986D01*
X0302658Y0167742D01*
X0322910Y0167742D01*
X0325493Y0165159D01*
X0325493Y0159868D01*
X0332383Y0159868D01*
X0334548Y0157702D01*
X0345769Y0157702D01*
X0348328Y0155143D01*
X0348328Y0121285D01*
X0342816Y0123647D02*
X0342816Y0143332D01*
X0341044Y0145104D01*
X0334548Y0145104D01*
X0334548Y0151009D01*
X0325493Y0146088D02*
X0322737Y0148844D01*
X0307383Y0148844D01*
X0304233Y0145694D01*
X0304233Y0143135D01*
X0304430Y0143332D01*
X0295572Y0139395D02*
X0295288Y0139112D01*
X0308564Y0135458D02*
X0316241Y0143135D01*
X0316831Y0143135D01*
X0325493Y0146088D02*
X0325493Y0139395D01*
X0333564Y0139395D01*
X0334548Y0138411D01*
X0334548Y0124041D01*
X0337304Y0121285D01*
X0337217Y0121372D01*
X0348328Y0103175D02*
X0348328Y0096088D01*
X0355414Y0089002D01*
X0355414Y0014986D01*
X0351989Y0011561D01*
X0342776Y0011561D01*
X0345965Y0016561D02*
X0327776Y0016561D01*
X0322776Y0011561D01*
X0345965Y0016561D02*
X0349115Y0019710D01*
X0349115Y0086639D01*
X0339666Y0096088D01*
X0337304Y0096088D01*
X0334154Y0096088D01*
X0332580Y0097663D01*
X0302658Y0097663D01*
X0298721Y0093726D01*
X0298721Y0082702D01*
X0278249Y0062230D01*
X0274706Y0062230D01*
X0274706Y0072466D02*
X0280611Y0072466D01*
X0293209Y0085065D01*
X0293209Y0096876D01*
X0299509Y0103175D01*
X0348328Y0103175D01*
X0334154Y0090576D02*
X0319981Y0090576D01*
X0315257Y0085852D01*
X0315257Y0059868D01*
X0332186Y0043726D02*
X0332580Y0044120D01*
X0287698Y0087427D02*
X0284548Y0084277D01*
X0274706Y0084277D01*
X0277855Y0089002D02*
X0283761Y0089002D01*
X0286123Y0091364D01*
X0286123Y0106324D01*
X0287698Y0107899D01*
X0383761Y0107899D01*
X0390847Y0114986D01*
X0390847Y0219710D01*
X0386910Y0223647D01*
X0349115Y0223647D01*
X0339666Y0233096D01*
X0339666Y0255143D01*
X0337304Y0257506D01*
X0337304Y0273254D01*
X0336320Y0274238D01*
X0333367Y0274238D01*
X0333367Y0268332D02*
X0333367Y0258293D01*
X0338091Y0253569D01*
X0338091Y0232309D01*
X0351477Y0218923D01*
X0357186Y0218923D01*
X0357580Y0219317D01*
X0353052Y0214986D02*
X0385335Y0214986D01*
X0389272Y0211049D01*
X0389272Y0115773D01*
X0382973Y0109474D01*
X0286123Y0109474D01*
X0284548Y0107899D01*
X0284548Y0096088D01*
X0282186Y0093726D01*
X0274706Y0093726D01*
X0277855Y0099238D02*
X0281398Y0099238D01*
X0282973Y0100813D01*
X0282973Y0109474D01*
X0284548Y0111049D01*
X0382186Y0111049D01*
X0387698Y0116561D01*
X0387698Y0203175D01*
X0383761Y0207112D01*
X0354627Y0207112D01*
X0333367Y0228372D01*
X0333367Y0251206D01*
X0317619Y0266954D01*
X0317619Y0272466D01*
X0316044Y0274041D01*
X0313879Y0274041D01*
X0313682Y0274238D01*
X0313682Y0268332D02*
X0313682Y0265380D01*
X0315257Y0263805D01*
X0318406Y0263805D01*
X0331792Y0250419D01*
X0331792Y0225222D01*
X0353839Y0203175D01*
X0357186Y0203175D01*
X0357580Y0202781D01*
X0354627Y0198450D02*
X0382186Y0198450D01*
X0386123Y0194513D01*
X0386123Y0117348D01*
X0381398Y0112624D01*
X0282973Y0112624D01*
X0281398Y0111049D01*
X0281398Y0105537D01*
X0279824Y0103962D01*
X0274706Y0103962D01*
X0277461Y0109474D02*
X0282186Y0114198D01*
X0380611Y0114198D01*
X0384548Y0118135D01*
X0384548Y0187427D01*
X0381398Y0190576D01*
X0353839Y0190576D01*
X0348328Y0196088D01*
X0348328Y0199238D01*
X0327068Y0220498D01*
X0327068Y0248057D01*
X0316044Y0259080D01*
X0300296Y0259080D01*
X0297934Y0261443D01*
X0297934Y0272466D01*
X0296162Y0274238D01*
X0293997Y0274238D01*
X0288091Y0272466D02*
X0288091Y0262624D01*
X0294784Y0255931D01*
X0314469Y0255931D01*
X0323918Y0246482D01*
X0323918Y0218923D01*
X0345178Y0197663D01*
X0345178Y0189789D01*
X0353052Y0181915D01*
X0379824Y0181915D01*
X0382973Y0178765D01*
X0382973Y0118923D01*
X0379824Y0115773D01*
X0280611Y0115773D01*
X0279036Y0114198D01*
X0274706Y0114198D01*
X0271950Y0117348D02*
X0259351Y0117348D01*
X0257587Y0119112D01*
X0252312Y0119112D01*
X0252312Y0129112D02*
X0252359Y0129159D01*
X0236910Y0125616D02*
X0235729Y0126797D01*
X0235729Y0144907D01*
X0238091Y0147269D01*
X0245178Y0147269D01*
X0246753Y0148844D01*
X0246753Y0151206D01*
X0252304Y0144120D02*
X0252312Y0144112D01*
X0236910Y0153175D02*
X0235729Y0151994D01*
X0236910Y0153175D02*
X0236910Y0203962D01*
X0235335Y0205537D01*
X0114469Y0205537D01*
X0116831Y0200813D02*
X0131005Y0200813D01*
X0132580Y0199238D01*
X0153446Y0199238D01*
X0154627Y0200419D01*
X0151477Y0197663D02*
X0156989Y0192151D01*
X0156989Y0188899D01*
X0156965Y0188876D01*
X0165422Y0188876D01*
X0165485Y0188939D01*
X0165485Y0182246D02*
X0173879Y0182246D01*
X0165485Y0182246D02*
X0165257Y0182017D01*
X0165257Y0174435D01*
X0163288Y0172466D01*
X0149115Y0172466D01*
X0145572Y0176009D01*
X0142028Y0176009D01*
X0138729Y0172710D01*
X0138729Y0168338D01*
X0133729Y0168338D02*
X0133729Y0162261D01*
X0135729Y0160261D01*
X0146753Y0160261D01*
X0152658Y0166167D01*
X0216831Y0166167D01*
X0226280Y0156718D01*
X0226280Y0100813D01*
X0224312Y0098844D01*
X0214942Y0098844D01*
X0214674Y0099112D01*
X0214674Y0104112D02*
X0214918Y0104356D01*
X0222737Y0104356D01*
X0224706Y0106324D01*
X0224706Y0155931D01*
X0216044Y0164592D01*
X0154233Y0164592D01*
X0147540Y0157899D01*
X0126280Y0157899D01*
X0123729Y0160450D01*
X0123729Y0168338D01*
X0118729Y0168338D02*
X0118729Y0173576D01*
X0122737Y0177584D01*
X0122737Y0182317D01*
X0122769Y0182348D01*
X0113839Y0182348D01*
X0113839Y0189041D02*
X0104926Y0189041D01*
X0104926Y0192246D01*
X0103446Y0193726D01*
X0045178Y0193726D01*
X0041241Y0189789D01*
X0041241Y0163017D01*
X0037304Y0159080D01*
X0029627Y0159080D01*
X0029312Y0159395D01*
X0029391Y0169317D02*
X0029312Y0169395D01*
X0029391Y0169317D02*
X0037304Y0169317D01*
X0039666Y0171679D01*
X0039666Y0190576D01*
X0044391Y0195301D01*
X0116044Y0195301D01*
X0118406Y0197663D01*
X0128643Y0197663D01*
X0131398Y0194907D01*
X0131398Y0189009D01*
X0131359Y0188970D01*
X0131485Y0188844D01*
X0139824Y0188844D01*
X0139824Y0182151D02*
X0139666Y0181994D01*
X0139666Y0178372D01*
X0137698Y0176403D01*
X0132580Y0176403D01*
X0128729Y0172553D01*
X0128729Y0168338D01*
X0143729Y0168338D02*
X0145369Y0168338D01*
X0145965Y0167742D01*
X0217619Y0167742D01*
X0227855Y0157506D01*
X0227855Y0096876D01*
X0224706Y0093726D01*
X0215060Y0093726D01*
X0214674Y0094112D01*
X0214682Y0094120D01*
X0214674Y0089112D02*
X0219871Y0089112D01*
X0221556Y0087427D01*
X0221556Y0081521D01*
X0220769Y0080734D01*
X0210532Y0080734D01*
X0203446Y0087820D01*
X0187422Y0087820D01*
X0184666Y0085065D01*
X0184666Y0078461D01*
X0189666Y0078461D02*
X0189666Y0073254D01*
X0190847Y0072072D01*
X0205020Y0072072D01*
X0206595Y0070498D01*
X0206595Y0068143D01*
X0206288Y0067836D01*
X0214430Y0067836D01*
X0214430Y0061143D02*
X0214469Y0061104D01*
X0206595Y0060836D02*
X0206595Y0040183D01*
X0205020Y0038608D01*
X0182973Y0038608D01*
X0179824Y0041757D01*
X0142816Y0041757D01*
X0139666Y0044907D01*
X0139666Y0101994D01*
X0136517Y0105143D01*
X0108957Y0105143D01*
X0101871Y0112230D01*
X0047540Y0112230D01*
X0034548Y0099238D01*
X0029469Y0099238D01*
X0029312Y0099395D01*
X0029312Y0109395D02*
X0038013Y0109395D01*
X0042422Y0113805D01*
X0103052Y0113805D01*
X0109351Y0107506D01*
X0138091Y0107506D01*
X0142422Y0103175D01*
X0142422Y0064198D01*
X0145572Y0061049D01*
X0161713Y0061049D01*
X0163682Y0063017D01*
X0163682Y0068923D01*
X0166044Y0071285D01*
X0175887Y0071285D01*
X0177461Y0069710D01*
X0177461Y0061143D01*
X0173328Y0061143D01*
X0177461Y0061143D02*
X0181469Y0061143D01*
X0181469Y0067836D02*
X0189611Y0067836D01*
X0189611Y0061143D02*
X0189666Y0061088D01*
X0197753Y0061143D02*
X0197934Y0060962D01*
X0197753Y0061143D02*
X0206288Y0061143D01*
X0206595Y0060836D01*
X0206288Y0061143D02*
X0206202Y0061057D01*
X0219981Y0071679D02*
X0219981Y0043332D01*
X0213682Y0037033D01*
X0182186Y0037033D01*
X0179036Y0040183D01*
X0138485Y0040183D01*
X0142816Y0035458D02*
X0174312Y0035458D01*
X0175887Y0033883D01*
X0215257Y0033883D01*
X0214469Y0035458D02*
X0179430Y0035458D01*
X0177461Y0037427D01*
X0159839Y0065844D02*
X0159839Y0073986D01*
X0159894Y0074041D01*
X0162501Y0074041D01*
X0166920Y0078461D01*
X0169666Y0078461D01*
X0174666Y0078461D02*
X0174666Y0085458D01*
X0178997Y0089789D01*
X0204627Y0089789D01*
X0210139Y0084277D01*
X0214509Y0084277D01*
X0214674Y0084112D01*
X0214784Y0089002D02*
X0214674Y0089112D01*
X0209351Y0078765D02*
X0202658Y0085458D01*
X0195965Y0085458D01*
X0194666Y0084159D01*
X0194666Y0078461D01*
X0181792Y0070891D02*
X0181792Y0068159D01*
X0181469Y0067836D01*
X0181792Y0070891D02*
X0179666Y0073017D01*
X0179666Y0078461D01*
X0173328Y0067836D02*
X0172839Y0067348D01*
X0153146Y0065844D02*
X0153076Y0065773D01*
X0153146Y0073986D02*
X0153146Y0082521D01*
X0153091Y0074041D02*
X0149115Y0074041D01*
X0145178Y0077978D01*
X0145178Y0104750D01*
X0139666Y0110261D01*
X0108957Y0110261D01*
X0103839Y0115380D01*
X0039272Y0115380D01*
X0035335Y0119317D01*
X0029391Y0119317D01*
X0029312Y0119395D01*
X0029312Y0129395D02*
X0035217Y0129395D01*
X0047658Y0116954D01*
X0100690Y0116954D01*
X0107776Y0124041D01*
X0107776Y0131521D01*
X0109154Y0132899D01*
X0114076Y0132899D01*
X0117028Y0132899D01*
X0118406Y0131521D01*
X0118406Y0127584D01*
X0119981Y0126009D01*
X0122540Y0126009D01*
X0122737Y0126206D01*
X0122737Y0132899D02*
X0131398Y0132899D01*
X0131398Y0136246D01*
X0133761Y0138608D01*
X0133761Y0144106D01*
X0133729Y0144138D01*
X0128729Y0144138D02*
X0128729Y0150506D01*
X0131398Y0153175D01*
X0149115Y0153175D01*
X0157383Y0161443D01*
X0213288Y0161443D01*
X0221556Y0153175D01*
X0221556Y0120498D01*
X0219981Y0118923D01*
X0214863Y0118923D01*
X0214674Y0119112D01*
X0214674Y0124112D02*
X0206918Y0124112D01*
X0205020Y0121285D02*
X0203052Y0123254D01*
X0194391Y0123254D01*
X0192816Y0124828D01*
X0192816Y0157899D01*
X0190847Y0159868D01*
X0158564Y0159868D01*
X0149902Y0151206D01*
X0141635Y0151206D01*
X0138729Y0148301D01*
X0138729Y0144138D01*
X0148328Y0155537D02*
X0155808Y0163017D01*
X0214469Y0163017D01*
X0223131Y0154356D01*
X0223131Y0116561D01*
X0220682Y0114112D01*
X0214674Y0114112D01*
X0214312Y0109474D02*
X0210139Y0109474D01*
X0205020Y0114592D01*
X0205020Y0121285D01*
X0198855Y0128836D02*
X0204131Y0134112D01*
X0214674Y0134112D01*
X0214674Y0139112D02*
X0208257Y0139112D01*
X0207186Y0140183D01*
X0211524Y0144112D02*
X0207186Y0148450D01*
X0211524Y0144112D02*
X0214674Y0144112D01*
X0214674Y0149112D02*
X0214674Y0152970D01*
X0210926Y0156718D01*
X0207186Y0156718D01*
X0189272Y0156718D02*
X0189272Y0119513D01*
X0189666Y0119120D01*
X0189666Y0112427D02*
X0189666Y0102661D01*
X0184666Y0102661D02*
X0184666Y0129238D01*
X0183367Y0130537D01*
X0175099Y0130537D01*
X0171950Y0133883D02*
X0178643Y0133883D01*
X0179430Y0134671D01*
X0179430Y0143332D01*
X0184548Y0148450D01*
X0184548Y0156718D01*
X0179824Y0156718D02*
X0179824Y0147269D01*
X0175099Y0142545D01*
X0175099Y0137230D01*
X0165650Y0137230D01*
X0168406Y0133883D02*
X0162501Y0133883D01*
X0161320Y0135065D01*
X0161320Y0142939D01*
X0162107Y0143726D01*
X0169981Y0143726D01*
X0175099Y0148844D01*
X0175099Y0156718D01*
X0175887Y0170891D02*
X0182186Y0177191D01*
X0192422Y0177191D01*
X0193997Y0178765D01*
X0193997Y0195694D01*
X0187698Y0201994D01*
X0187698Y0202387D01*
X0192422Y0202387D02*
X0195572Y0199238D01*
X0195572Y0177978D01*
X0193209Y0175616D01*
X0185335Y0175616D01*
X0180611Y0170891D01*
X0185335Y0170891D02*
X0185335Y0171285D01*
X0188091Y0174041D01*
X0193997Y0174041D01*
X0197146Y0177191D01*
X0197146Y0202387D01*
X0198721Y0199238D02*
X0201871Y0202387D01*
X0198721Y0199238D02*
X0198721Y0175616D01*
X0193997Y0170891D01*
X0190060Y0170891D01*
X0173879Y0194868D02*
X0173918Y0194907D01*
X0151477Y0197663D02*
X0131792Y0197663D01*
X0130217Y0199238D01*
X0117619Y0199238D01*
X0115257Y0196876D01*
X0043603Y0196876D01*
X0038091Y0191364D01*
X0038091Y0182545D01*
X0034942Y0179395D01*
X0029312Y0179395D01*
X0025690Y0199238D02*
X0020572Y0199238D01*
X0014666Y0199238D02*
X0007383Y0199238D01*
X0008170Y0202387D02*
X0007383Y0203962D01*
X0013682Y0207702D02*
X0013682Y0212624D01*
X0016438Y0215380D01*
X0031398Y0215380D01*
X0034154Y0218135D01*
X0034154Y0236639D01*
X0033131Y0237663D01*
X0029312Y0237663D01*
X0036517Y0242939D02*
X0036517Y0216167D01*
X0040847Y0211836D01*
X0040847Y0201206D01*
X0043603Y0198450D01*
X0114469Y0198450D01*
X0116831Y0200813D01*
X0122737Y0194907D02*
X0122769Y0194876D01*
X0131359Y0182277D02*
X0131359Y0181088D01*
X0139824Y0182151D02*
X0148272Y0182151D01*
X0148359Y0182065D01*
X0156965Y0176033D02*
X0156989Y0176009D01*
X0148359Y0194876D02*
X0148328Y0194907D01*
X0151083Y0213017D02*
X0136517Y0213017D01*
X0134548Y0214986D01*
X0130020Y0214986D01*
X0129824Y0215183D01*
X0124115Y0215183D01*
X0123524Y0215773D01*
X0125493Y0218529D02*
X0123524Y0220498D01*
X0125493Y0218529D02*
X0132973Y0218529D01*
X0135139Y0216364D01*
X0145178Y0216364D01*
X0145375Y0216167D01*
X0148721Y0216167D01*
X0149902Y0217348D01*
X0191241Y0217348D01*
X0192422Y0216167D01*
X0192422Y0214198D01*
X0187698Y0214198D02*
X0152265Y0214198D01*
X0151083Y0213017D01*
X0139272Y0237033D02*
X0134666Y0241639D01*
X0145965Y0263411D02*
X0161320Y0263411D01*
X0164076Y0260655D01*
X0168013Y0260655D02*
X0163682Y0264986D01*
X0147540Y0264986D01*
X0143209Y0269317D01*
X0143209Y0278372D01*
X0136123Y0285458D01*
X0127855Y0285458D01*
X0125493Y0287820D01*
X0125493Y0298057D01*
X0120887Y0302663D01*
X0120611Y0302663D01*
X0115650Y0298450D02*
X0115650Y0285458D01*
X0117619Y0283490D01*
X0135729Y0283490D01*
X0141241Y0277978D01*
X0141241Y0268135D01*
X0145965Y0263411D01*
X0149902Y0267742D02*
X0164076Y0267742D01*
X0168406Y0263411D01*
X0178643Y0263411D01*
X0181398Y0260655D01*
X0174312Y0260655D02*
X0168013Y0260655D01*
X0169194Y0267348D02*
X0186517Y0267348D01*
X0190060Y0263805D01*
X0190060Y0260655D01*
X0194666Y0251324D02*
X0194666Y0241639D01*
X0196359Y0237033D02*
X0201753Y0231639D01*
X0204666Y0231639D01*
X0214666Y0241639D02*
X0214666Y0251403D01*
X0216831Y0253569D01*
X0225493Y0253569D01*
X0230217Y0258293D01*
X0230217Y0278765D01*
X0235729Y0284277D01*
X0307934Y0284277D01*
X0310296Y0286639D01*
X0310296Y0292663D01*
X0300296Y0292663D02*
X0293485Y0285852D01*
X0234942Y0285852D01*
X0223524Y0297663D02*
X0264076Y0297663D01*
X0268013Y0293726D01*
X0268013Y0289789D01*
X0284154Y0274238D02*
X0286320Y0274238D01*
X0288091Y0272466D01*
X0284154Y0268332D02*
X0284154Y0264198D01*
X0293997Y0254356D01*
X0313682Y0254356D01*
X0322343Y0245694D01*
X0322343Y0218135D01*
X0343603Y0196876D01*
X0343603Y0189002D01*
X0354627Y0177978D01*
X0357580Y0177978D01*
X0357186Y0185852D02*
X0353839Y0185852D01*
X0346753Y0192939D01*
X0346753Y0198450D01*
X0325493Y0219710D01*
X0325493Y0247269D01*
X0315257Y0257506D01*
X0295572Y0257506D01*
X0293997Y0259080D01*
X0293997Y0268332D01*
X0303839Y0268332D02*
X0303839Y0262624D01*
X0305808Y0260655D01*
X0316831Y0260655D01*
X0328643Y0248844D01*
X0328643Y0221285D01*
X0349902Y0200025D01*
X0349902Y0197663D01*
X0353052Y0194513D01*
X0357580Y0194513D01*
X0354627Y0198450D02*
X0330217Y0222860D01*
X0330217Y0249631D01*
X0317619Y0262230D01*
X0308957Y0262230D01*
X0307383Y0263805D01*
X0307383Y0272466D01*
X0305611Y0274238D01*
X0303839Y0274238D01*
X0323524Y0274238D02*
X0326083Y0274238D01*
X0327068Y0273254D01*
X0327068Y0262230D01*
X0336517Y0252781D01*
X0336517Y0231521D01*
X0353052Y0214986D01*
X0354627Y0211049D02*
X0357580Y0211049D01*
X0354627Y0211049D02*
X0334942Y0230734D01*
X0334942Y0251994D01*
X0323524Y0263411D01*
X0323524Y0268332D01*
X0343209Y0268332D02*
X0343209Y0256324D01*
X0341241Y0254356D01*
X0341241Y0233883D01*
X0347540Y0227584D01*
X0357580Y0227584D01*
X0346753Y0231521D02*
X0342816Y0235458D01*
X0342816Y0253569D01*
X0346753Y0257506D01*
X0346753Y0272466D01*
X0345178Y0274041D01*
X0343406Y0274041D01*
X0343209Y0274238D01*
X0346753Y0231521D02*
X0388485Y0231521D01*
X0392422Y0227584D01*
X0392422Y0114198D01*
X0384548Y0106324D01*
X0289272Y0106324D01*
X0287698Y0104750D01*
X0287698Y0087427D01*
X0257776Y0062230D02*
X0246753Y0051206D01*
X0243800Y0051206D01*
X0237107Y0051206D02*
X0236910Y0051403D01*
X0237107Y0051206D02*
X0237107Y0039986D01*
X0241635Y0035458D01*
X0247540Y0035458D01*
X0247540Y0025222D02*
X0247540Y0013411D01*
X0245178Y0011049D01*
X0241517Y0011049D01*
X0241005Y0011561D01*
X0214469Y0035458D02*
X0221556Y0042545D01*
X0221556Y0070891D01*
X0232580Y0081915D01*
X0232580Y0201994D01*
X0227855Y0201994D02*
X0227855Y0199238D01*
X0231005Y0196088D01*
X0231005Y0082702D01*
X0219981Y0071679D01*
X0224706Y0078765D02*
X0229430Y0083490D01*
X0229430Y0194513D01*
X0223131Y0200813D01*
X0223131Y0201994D01*
X0227461Y0220498D02*
X0241635Y0220498D01*
X0244784Y0223647D01*
X0244784Y0231521D01*
X0244666Y0231639D01*
X0239666Y0237820D02*
X0234666Y0232820D01*
X0234666Y0231639D01*
X0184666Y0231639D02*
X0184666Y0232191D01*
X0179824Y0237033D01*
X0179824Y0248057D01*
X0181398Y0249631D01*
X0174666Y0249277D02*
X0174666Y0241639D01*
X0174666Y0249277D02*
X0174312Y0249631D01*
X0169194Y0267348D02*
X0163288Y0273254D01*
X0163288Y0294120D01*
X0159745Y0297663D01*
X0145572Y0297663D01*
X0140611Y0292702D01*
X0140611Y0292663D01*
X0132068Y0292663D02*
X0146359Y0278372D01*
X0146359Y0271285D01*
X0149902Y0267742D01*
X0169194Y0270891D02*
X0169194Y0294513D01*
X0172343Y0297663D01*
X0186123Y0297663D01*
X0188485Y0295301D01*
X0188485Y0288608D01*
X0190454Y0286639D01*
X0200690Y0286639D01*
X0203603Y0289553D01*
X0203603Y0292663D01*
X0210926Y0297663D02*
X0195572Y0297663D01*
X0193603Y0295694D01*
X0193603Y0292663D01*
X0132068Y0292663D02*
X0130611Y0292663D01*
X0115650Y0298450D02*
X0111438Y0302663D01*
X0110611Y0302663D01*
X0077855Y0277978D02*
X0077855Y0267348D01*
X0056989Y0246482D01*
X0056989Y0224041D01*
X0060532Y0220498D01*
X0090454Y0220498D01*
X0086910Y0218529D02*
X0059351Y0218529D01*
X0054627Y0223254D01*
X0054627Y0247663D01*
X0073918Y0266954D01*
X0073918Y0277584D01*
X0072343Y0279159D01*
X0063682Y0279159D01*
X0062501Y0277978D01*
X0031792Y0247663D02*
X0036517Y0242939D01*
X0031792Y0247663D02*
X0029312Y0247663D01*
X0025690Y0207506D02*
X0019784Y0207506D01*
X0013879Y0207506D02*
X0013682Y0207702D01*
X0029312Y0149395D02*
X0036359Y0149395D01*
X0041635Y0144120D01*
X0083957Y0144120D01*
X0084154Y0144317D01*
X0092816Y0144317D01*
X0097146Y0145694D02*
X0097146Y0148450D01*
X0094587Y0151009D01*
X0092816Y0151009D01*
X0097146Y0145694D02*
X0098721Y0144120D01*
X0101280Y0144120D01*
X0101477Y0144317D01*
X0113550Y0144317D01*
X0113729Y0144138D01*
X0118729Y0144138D02*
X0118729Y0152317D01*
X0121950Y0155537D01*
X0148328Y0155537D01*
X0168406Y0133883D02*
X0169194Y0133096D01*
X0169194Y0127584D01*
X0168406Y0126797D01*
X0155808Y0126797D01*
X0152658Y0123647D01*
X0152658Y0119120D01*
X0161320Y0119120D01*
X0161320Y0112427D02*
X0169981Y0112427D01*
X0174666Y0107742D01*
X0174666Y0102661D01*
X0179666Y0102661D02*
X0179824Y0102818D01*
X0179824Y0107899D01*
X0178643Y0109080D01*
X0178643Y0112427D01*
X0178643Y0119120D02*
X0178643Y0124828D01*
X0177068Y0126403D01*
X0172737Y0126403D01*
X0171162Y0127978D01*
X0171162Y0133096D01*
X0171950Y0133883D01*
X0214312Y0109474D02*
X0214674Y0109112D01*
X0236910Y0124041D02*
X0236910Y0125616D01*
X0224706Y0078765D02*
X0209351Y0078765D01*
X0162280Y0091946D02*
X0161887Y0091553D01*
X0162076Y0091364D01*
X0162280Y0100734D02*
X0161713Y0101301D01*
X0153091Y0074041D02*
X0153146Y0073986D01*
X0126674Y0040183D02*
X0093209Y0040183D01*
X0081398Y0028372D01*
X0074312Y0028372D01*
X0071162Y0025222D01*
X0071162Y0021561D01*
X0124312Y0021561D02*
X0124312Y0019317D01*
X0127068Y0016561D01*
X0141241Y0016561D01*
X0142816Y0018135D01*
X0142816Y0025222D01*
X0092816Y0128962D02*
X0084154Y0128962D01*
X0083957Y0128765D01*
X0041241Y0128765D01*
X0035217Y0134789D01*
X0035217Y0139395D01*
X0029312Y0139395D01*
X0084154Y0138608D02*
X0084154Y0135655D01*
X0084154Y0138608D02*
X0085335Y0139789D01*
X0107776Y0139789D01*
X0110926Y0138608D02*
X0108170Y0135852D01*
X0101674Y0135852D01*
X0101477Y0135655D01*
X0092816Y0135655D01*
X0110926Y0138608D02*
X0123131Y0138608D01*
X0123658Y0139135D01*
X0123658Y0144067D01*
X0123729Y0144138D01*
X0108548Y0166545D02*
X0108564Y0166561D01*
X0105808Y0166545D02*
X0105320Y0166057D01*
X0105414Y0165962D01*
X0105335Y0174828D02*
X0105320Y0174844D01*
X0106485Y0176009D01*
X0105808Y0175222D02*
X0105430Y0174844D01*
X0105320Y0174844D01*
X0105808Y0181466D02*
X0104926Y0182348D01*
X0090454Y0215773D02*
X0089666Y0215773D01*
X0086910Y0218529D01*
X0316831Y0163608D02*
X0317028Y0163608D01*
X0321162Y0159474D01*
X0321162Y0153569D01*
X0357186Y0185852D02*
X0357580Y0186246D01*
X0357186Y0186639D01*
D32*
X0125099Y0060261D03*
X0102658Y0079159D03*
X0090847Y0066561D03*
X0068013Y0065380D03*
X0101083Y0095301D03*
D33*
X0097737Y0066561D02*
X0090847Y0066561D01*
X0125099Y0060261D02*
X0125099Y0053765D01*
D34*
X0132580Y0070104D02*
X0132580Y0071679D01*
X0130217Y0074041D01*
X0115650Y0074041D01*
X0115454Y0074238D01*
X0112107Y0077584D01*
X0112107Y0094907D01*
X0098721Y0108293D01*
X0079824Y0108293D01*
X0076280Y0104750D01*
X0076280Y0095694D01*
X0076674Y0095301D01*
X0077265Y0095301D01*
X0046753Y0095301D01*
X0039666Y0088214D01*
X0011713Y0088214D01*
X0007383Y0093332D01*
X0007383Y0199238D01*
X0007383Y0203962D01*
X0007383Y0220104D01*
X0027068Y0220104D01*
X0029312Y0222348D01*
X0029312Y0227663D01*
X0007383Y0220104D02*
X0007383Y0274828D01*
X0012107Y0280340D01*
X0029036Y0280340D01*
X0041241Y0292545D01*
X0042422Y0292545D01*
X0042422Y0306718D01*
X0047540Y0311836D01*
X0149902Y0311836D01*
X0150611Y0311128D01*
X0150611Y0302663D01*
X0149902Y0311836D02*
X0210139Y0311836D01*
X0215729Y0306246D01*
X0215729Y0276009D01*
X0116517Y0276009D02*
X0084942Y0276009D01*
X0083761Y0277191D01*
X0083761Y0279159D01*
X0078643Y0284277D01*
X0062107Y0284277D01*
X0057383Y0289002D01*
X0057383Y0292427D01*
X0057619Y0292663D01*
X0057501Y0292545D01*
X0042422Y0292545D01*
X0083761Y0277191D02*
X0083761Y0257112D01*
X0094666Y0246206D01*
X0094666Y0241639D01*
X0104666Y0241639D01*
X0101083Y0095301D02*
X0092619Y0095301D01*
X0077265Y0095301D02*
X0076556Y0094592D01*
X0076556Y0087151D01*
X0078643Y0085065D01*
X0078643Y0079435D01*
X0078918Y0079159D01*
X0073524Y0079159D01*
X0065650Y0087033D01*
X0057580Y0087033D01*
X0057383Y0087230D01*
X0048721Y0083490D02*
X0048721Y0072860D01*
X0048721Y0065380D01*
X0048721Y0057998D01*
X0059745Y0065380D02*
X0068013Y0065380D01*
X0048721Y0046777D02*
X0048269Y0046324D01*
X0021300Y0046324D01*
X0081162Y0021561D02*
X0081674Y0022072D01*
X0088485Y0022072D01*
X0096753Y0030340D01*
X0132580Y0030340D01*
X0132580Y0023293D01*
X0134312Y0021561D01*
X0132580Y0030340D02*
X0132580Y0070104D01*
X0102658Y0079159D02*
X0094942Y0079159D01*
X0132580Y0030340D02*
X0187698Y0030340D01*
X0187698Y0021561D01*
X0187461Y0021561D01*
X0187698Y0030340D02*
X0242028Y0030340D01*
X0241005Y0029317D01*
X0241005Y0021561D01*
X0242028Y0030340D02*
X0251083Y0030340D01*
X0256202Y0035458D01*
X0256202Y0049631D01*
X0276674Y0049631D02*
X0279824Y0049631D01*
X0290060Y0059868D01*
X0315257Y0059868D01*
X0316044Y0059868D01*
X0332186Y0043726D01*
X0332580Y0043332D01*
X0332580Y0021757D01*
X0332776Y0021561D01*
X0342776Y0021561D01*
D35*
X0376674Y0271285D03*
X0250690Y0271285D03*
D36*
X0380611Y0300813D03*
X0380611Y0017348D03*
X0018406Y0017348D03*
X0018406Y0300813D03*
D37*
X0037698Y0261443D02*
X0043209Y0255931D01*
X0043209Y0218529D01*
X0055808Y0205931D01*
X0108170Y0205931D01*
X0111713Y0209474D01*
X0111713Y0223254D01*
X0117225Y0223254D02*
X0117225Y0210655D01*
X0119587Y0208293D01*
X0236910Y0208293D01*
X0239666Y0205537D01*
X0239666Y0156718D01*
X0239666Y0117742D02*
X0239666Y0080340D01*
X0276280Y0067348D02*
X0279430Y0067348D01*
X0295965Y0083883D01*
X0295965Y0095301D01*
X0301083Y0100419D01*
X0333761Y0100419D01*
X0340060Y0099631D02*
X0352265Y0087427D01*
X0352265Y0016561D01*
X0350690Y0014986D01*
D38*
X0239666Y0117742D02*
X0239666Y0118529D01*
X0242028Y0120891D01*
X0242028Y0132309D01*
X0241635Y0132702D01*
D39*
X0258564Y0114198D03*
X0267619Y0109474D03*
X0274706Y0114198D03*
X0277461Y0109474D03*
X0274706Y0103962D03*
X0277855Y0099238D03*
X0274706Y0093726D03*
X0277855Y0089002D03*
X0274706Y0084277D03*
X0261320Y0089002D03*
X0258564Y0093726D03*
X0264469Y0099238D03*
X0258564Y0103962D03*
X0258170Y0084277D03*
X0232580Y0201994D03*
X0227855Y0201994D03*
X0223131Y0201994D03*
X0201871Y0202387D03*
X0197146Y0202387D03*
X0192422Y0202387D03*
X0187698Y0202387D03*
X0187698Y0214198D03*
X0192422Y0214198D03*
X0197146Y0214198D03*
X0201871Y0214198D03*
X0227461Y0220498D03*
X0231398Y0223647D03*
X0248328Y0223647D03*
X0190060Y0249631D03*
X0181398Y0249631D03*
X0174312Y0249631D03*
X0169194Y0252387D03*
X0164076Y0249631D03*
X0164076Y0260655D03*
X0174312Y0260655D03*
X0181398Y0260655D03*
X0190060Y0260655D03*
X0169194Y0270891D03*
X0210926Y0297663D03*
X0223524Y0297663D03*
X0268013Y0289789D03*
X0268013Y0278765D03*
X0123524Y0220498D03*
X0123524Y0215773D03*
X0090454Y0215773D03*
X0090454Y0220498D03*
X0077855Y0277978D03*
X0062501Y0277978D03*
D40*
X0067619Y0275616D03*
D41*
X0256202Y0049631D03*
X0276674Y0049631D03*
M02*
