G75*
%MOIN*%
%OFA0B0*%
%FSLAX25Y25*%
%IPPOS*%
%LPD*%
%AMOC8*
5,1,8,0,0,1.08239X$1,22.5*
%
%ADD10C,0.00394*%
%ADD11C,0.00400*%
%ADD12R,0.00984X0.00984*%
%ADD13C,0.00600*%
%ADD14C,0.00200*%
%ADD15C,0.00500*%
%ADD16C,0.00787*%
%ADD17C,0.00800*%
D10*
X0002658Y0001600D02*
X0002658Y0316561D01*
X0396359Y0316561D01*
X0396359Y0001600D01*
X0002658Y0001600D01*
D11*
X0005647Y0030146D02*
X0005057Y0030736D01*
X0005647Y0030146D02*
X0006827Y0030146D01*
X0007417Y0030736D01*
X0007417Y0031916D01*
X0006827Y0032506D01*
X0006237Y0032506D01*
X0005057Y0031916D01*
X0005057Y0033686D01*
X0007417Y0033686D01*
X0008682Y0033686D02*
X0008682Y0031326D01*
X0009862Y0030146D01*
X0011042Y0031326D01*
X0011042Y0033686D01*
X0045394Y0039218D02*
X0045394Y0042758D01*
X0047754Y0042758D01*
X0049019Y0041578D02*
X0050199Y0042758D01*
X0050199Y0039218D01*
X0049019Y0039218D02*
X0051379Y0039218D01*
X0046574Y0040988D02*
X0045394Y0040988D01*
X0050606Y0023182D02*
X0050606Y0020822D01*
X0048836Y0022592D01*
X0052376Y0022592D01*
X0051196Y0019557D02*
X0048836Y0019557D01*
X0051196Y0019557D02*
X0052376Y0018377D01*
X0051196Y0017197D01*
X0048836Y0017197D01*
X0049426Y0015932D02*
X0048836Y0015342D01*
X0048836Y0014162D01*
X0049426Y0013572D01*
X0050016Y0013572D01*
X0050606Y0014162D01*
X0050606Y0015342D01*
X0051196Y0015932D01*
X0051786Y0015932D01*
X0052376Y0015342D01*
X0052376Y0014162D01*
X0051786Y0013572D01*
X0091044Y0013297D02*
X0091044Y0010937D01*
X0094584Y0010937D01*
X0094584Y0013297D01*
X0094584Y0014562D02*
X0092224Y0014562D01*
X0091044Y0015742D01*
X0092224Y0016922D01*
X0094584Y0016922D01*
X0094584Y0018187D02*
X0094584Y0019957D01*
X0093994Y0020547D01*
X0091634Y0020547D01*
X0091044Y0019957D01*
X0091044Y0018187D01*
X0094584Y0018187D01*
X0092814Y0016922D02*
X0092814Y0014562D01*
X0092814Y0012117D02*
X0092814Y0010937D01*
X0092814Y0009672D02*
X0092814Y0007312D01*
X0094584Y0007312D02*
X0091044Y0007312D01*
X0091044Y0009672D02*
X0094584Y0009672D01*
X0102379Y0014555D02*
X0102969Y0013965D01*
X0103559Y0013965D01*
X0104149Y0014555D01*
X0104149Y0015735D01*
X0104739Y0016325D01*
X0105329Y0016325D01*
X0105919Y0015735D01*
X0105919Y0014555D01*
X0105329Y0013965D01*
X0102379Y0014555D02*
X0102379Y0015735D01*
X0102969Y0016325D01*
X0102379Y0017590D02*
X0104739Y0017590D01*
X0105919Y0018770D01*
X0104739Y0019951D01*
X0102379Y0019951D01*
X0102969Y0021216D02*
X0103559Y0021216D01*
X0104149Y0021806D01*
X0104149Y0022986D01*
X0104739Y0023576D01*
X0105329Y0023576D01*
X0105919Y0022986D01*
X0105919Y0021806D01*
X0105329Y0021216D01*
X0104739Y0021216D01*
X0104149Y0021806D01*
X0104149Y0022986D02*
X0103559Y0023576D01*
X0102969Y0023576D01*
X0102379Y0022986D01*
X0102379Y0021806D01*
X0102969Y0021216D01*
X0130946Y0046180D02*
X0130946Y0047950D01*
X0131536Y0048540D01*
X0132716Y0048540D01*
X0133306Y0047950D01*
X0133306Y0046180D01*
X0134486Y0046180D02*
X0130946Y0046180D01*
X0133306Y0047360D02*
X0134486Y0048540D01*
X0132716Y0049806D02*
X0132716Y0052166D01*
X0132716Y0053431D02*
X0132716Y0055791D01*
X0134486Y0055201D02*
X0130946Y0055201D01*
X0132716Y0053431D01*
X0134486Y0051576D02*
X0130946Y0051576D01*
X0132716Y0049806D01*
X0119380Y0053977D02*
X0118790Y0053387D01*
X0116430Y0053387D01*
X0115840Y0053977D01*
X0115840Y0055157D01*
X0116430Y0055747D01*
X0118790Y0055747D01*
X0119380Y0055157D01*
X0119380Y0053977D01*
X0118200Y0054567D02*
X0119380Y0055747D01*
X0118790Y0057012D02*
X0119380Y0057602D01*
X0119380Y0058782D01*
X0118790Y0059372D01*
X0118200Y0059372D01*
X0117610Y0058782D01*
X0117610Y0057012D01*
X0118790Y0057012D01*
X0117610Y0057012D02*
X0116430Y0058192D01*
X0115840Y0059372D01*
X0116073Y0065324D02*
X0115483Y0065914D01*
X0116073Y0065324D02*
X0117253Y0065324D01*
X0117843Y0065914D01*
X0117843Y0067094D01*
X0117253Y0067684D01*
X0116663Y0067684D01*
X0115483Y0067094D01*
X0115483Y0068864D01*
X0117843Y0068864D01*
X0114217Y0067094D02*
X0111857Y0067094D01*
X0113627Y0068864D01*
X0113627Y0065324D01*
X0110592Y0065324D02*
X0109412Y0066504D01*
X0110002Y0066504D02*
X0108232Y0066504D01*
X0108232Y0065324D02*
X0108232Y0068864D01*
X0110002Y0068864D01*
X0110592Y0068274D01*
X0110592Y0067094D01*
X0110002Y0066504D01*
X0095729Y0071600D02*
X0078091Y0071600D01*
X0078091Y0086718D02*
X0095729Y0086718D01*
X0099295Y0087387D02*
X0099295Y0083847D01*
X0101065Y0083847D01*
X0101655Y0084437D01*
X0101655Y0086797D01*
X0101065Y0087387D01*
X0099295Y0087387D01*
X0102920Y0086207D02*
X0104100Y0087387D01*
X0104100Y0083847D01*
X0102920Y0083847D02*
X0105280Y0083847D01*
X0134508Y0084037D02*
X0134508Y0080497D01*
X0134508Y0081677D02*
X0136278Y0081677D01*
X0136868Y0082267D01*
X0136868Y0083447D01*
X0136278Y0084037D01*
X0134508Y0084037D01*
X0135688Y0081677D02*
X0136868Y0080497D01*
X0138133Y0081087D02*
X0138723Y0080497D01*
X0139903Y0080497D01*
X0140493Y0081087D01*
X0140493Y0081677D01*
X0139903Y0082267D01*
X0139313Y0082267D01*
X0139903Y0082267D02*
X0140493Y0082857D01*
X0140493Y0083447D01*
X0139903Y0084037D01*
X0138723Y0084037D01*
X0138133Y0083447D01*
X0141758Y0082267D02*
X0144118Y0082267D01*
X0143528Y0084037D02*
X0141758Y0082267D01*
X0143528Y0080497D02*
X0143528Y0084037D01*
X0143244Y0089253D02*
X0142654Y0089843D01*
X0143244Y0089253D02*
X0144424Y0089253D01*
X0145014Y0089843D01*
X0145014Y0091023D01*
X0144424Y0091613D01*
X0143834Y0091613D01*
X0142654Y0091023D01*
X0142654Y0092793D01*
X0145014Y0092793D01*
X0140209Y0092793D02*
X0140209Y0089253D01*
X0139029Y0089253D02*
X0141389Y0089253D01*
X0139029Y0091613D02*
X0140209Y0092793D01*
X0137764Y0092203D02*
X0137174Y0092793D01*
X0135994Y0092793D01*
X0135404Y0092203D01*
X0135404Y0089843D01*
X0135994Y0089253D01*
X0137174Y0089253D01*
X0137764Y0089843D01*
X0137568Y0098434D02*
X0138158Y0099024D01*
X0137568Y0098434D02*
X0136388Y0098434D01*
X0135798Y0099024D01*
X0135798Y0101384D01*
X0136388Y0101974D01*
X0137568Y0101974D01*
X0138158Y0101384D01*
X0139423Y0100794D02*
X0140603Y0101974D01*
X0140603Y0098434D01*
X0139423Y0098434D02*
X0141783Y0098434D01*
X0143048Y0100204D02*
X0145408Y0100204D01*
X0144818Y0098434D02*
X0144818Y0101974D01*
X0143048Y0100204D01*
X0144332Y0111535D02*
X0144332Y0113305D01*
X0144922Y0113895D01*
X0146102Y0113895D01*
X0146692Y0113305D01*
X0146692Y0111535D01*
X0147872Y0111535D02*
X0144332Y0111535D01*
X0146692Y0112715D02*
X0147872Y0113895D01*
X0147282Y0115160D02*
X0147872Y0115750D01*
X0147872Y0116930D01*
X0147282Y0117520D01*
X0146102Y0117520D01*
X0145512Y0116930D01*
X0145512Y0116340D01*
X0146102Y0115160D01*
X0144332Y0115160D01*
X0144332Y0117520D01*
X0145512Y0118785D02*
X0144332Y0119965D01*
X0147872Y0119965D01*
X0147872Y0118785D02*
X0147872Y0121145D01*
X0156930Y0129251D02*
X0156930Y0131021D01*
X0157520Y0131611D01*
X0158700Y0131611D01*
X0159290Y0131021D01*
X0159290Y0129251D01*
X0160470Y0129251D02*
X0156930Y0129251D01*
X0159290Y0130431D02*
X0160470Y0131611D01*
X0160470Y0132876D02*
X0158110Y0135236D01*
X0157520Y0135236D01*
X0156930Y0134646D01*
X0156930Y0133466D01*
X0157520Y0132876D01*
X0160470Y0132876D02*
X0160470Y0135236D01*
X0159880Y0136502D02*
X0160470Y0137092D01*
X0160470Y0138272D01*
X0159880Y0138862D01*
X0157520Y0138862D01*
X0156930Y0138272D01*
X0156930Y0137092D01*
X0157520Y0136502D01*
X0158110Y0136502D01*
X0158700Y0137092D01*
X0158700Y0138862D01*
X0170831Y0140520D02*
X0170831Y0144060D01*
X0172601Y0144060D01*
X0173191Y0143470D01*
X0173191Y0142290D01*
X0172601Y0141700D01*
X0170831Y0141700D01*
X0172011Y0141700D02*
X0173191Y0140520D01*
X0174456Y0141110D02*
X0175046Y0140520D01*
X0176226Y0140520D01*
X0176816Y0141110D01*
X0176816Y0142290D01*
X0176226Y0142880D01*
X0175636Y0142880D01*
X0174456Y0142290D01*
X0174456Y0144060D01*
X0176816Y0144060D01*
X0178081Y0143470D02*
X0178671Y0144060D01*
X0179851Y0144060D01*
X0180441Y0143470D01*
X0178081Y0141110D01*
X0178671Y0140520D01*
X0179851Y0140520D01*
X0180441Y0141110D01*
X0180441Y0143470D01*
X0178081Y0143470D02*
X0178081Y0141110D01*
X0186182Y0138635D02*
X0186772Y0139225D01*
X0187362Y0139225D01*
X0187952Y0138635D01*
X0187952Y0137455D01*
X0187362Y0136865D01*
X0186772Y0136865D01*
X0186182Y0137455D01*
X0186182Y0138635D01*
X0187952Y0138635D02*
X0188542Y0139225D01*
X0189132Y0139225D01*
X0189722Y0138635D01*
X0189722Y0137455D01*
X0189132Y0136865D01*
X0188542Y0136865D01*
X0187952Y0137455D01*
X0189722Y0135600D02*
X0189722Y0133240D01*
X0189722Y0134420D02*
X0186182Y0134420D01*
X0187362Y0133240D01*
X0186772Y0131975D02*
X0186182Y0131385D01*
X0186182Y0130205D01*
X0186772Y0129615D01*
X0189132Y0129615D01*
X0189722Y0130205D01*
X0189722Y0131385D01*
X0189132Y0131975D01*
X0184378Y0125557D02*
X0182018Y0125557D01*
X0182018Y0123787D01*
X0183198Y0124377D01*
X0183788Y0124377D01*
X0184378Y0123787D01*
X0184378Y0122607D01*
X0183788Y0122017D01*
X0182608Y0122017D01*
X0182018Y0122607D01*
X0180753Y0122607D02*
X0180163Y0122017D01*
X0178983Y0122017D01*
X0178393Y0122607D01*
X0178393Y0123787D02*
X0179573Y0124377D01*
X0180163Y0124377D01*
X0180753Y0123787D01*
X0180753Y0122607D01*
X0178393Y0123787D02*
X0178393Y0125557D01*
X0180753Y0125557D01*
X0177128Y0124967D02*
X0177128Y0123787D01*
X0176538Y0123197D01*
X0174768Y0123197D01*
X0175948Y0123197D02*
X0177128Y0122017D01*
X0174768Y0122017D02*
X0174768Y0125557D01*
X0176538Y0125557D01*
X0177128Y0124967D01*
X0172961Y0124967D02*
X0172961Y0122607D01*
X0172371Y0122017D01*
X0171191Y0122017D01*
X0170601Y0122607D01*
X0171191Y0123787D02*
X0172961Y0123787D01*
X0172961Y0124967D02*
X0172371Y0125557D01*
X0171191Y0125557D01*
X0170601Y0124967D01*
X0170601Y0124377D01*
X0171191Y0123787D01*
X0169336Y0122017D02*
X0166976Y0122017D01*
X0168156Y0122017D02*
X0168156Y0125557D01*
X0166976Y0124377D01*
X0165710Y0124967D02*
X0165120Y0125557D01*
X0163940Y0125557D01*
X0163350Y0124967D01*
X0163350Y0122607D01*
X0163940Y0122017D01*
X0165120Y0122017D01*
X0165710Y0122607D01*
X0165284Y0109021D02*
X0164104Y0109021D01*
X0163514Y0108431D01*
X0162249Y0109021D02*
X0159889Y0109021D01*
X0159889Y0107251D01*
X0161069Y0107841D01*
X0161659Y0107841D01*
X0162249Y0107251D01*
X0162249Y0106071D01*
X0161659Y0105481D01*
X0160479Y0105481D01*
X0159889Y0106071D01*
X0158624Y0105481D02*
X0157444Y0106661D01*
X0158034Y0106661D02*
X0156264Y0106661D01*
X0156264Y0105481D02*
X0156264Y0109021D01*
X0158034Y0109021D01*
X0158624Y0108431D01*
X0158624Y0107251D01*
X0158034Y0106661D01*
X0163514Y0105481D02*
X0165874Y0107841D01*
X0165874Y0108431D01*
X0165284Y0109021D01*
X0165874Y0105481D02*
X0163514Y0105481D01*
X0132824Y0113937D02*
X0132824Y0115117D01*
X0132234Y0115707D01*
X0132234Y0116972D02*
X0132824Y0117562D01*
X0132824Y0118742D01*
X0132234Y0119332D01*
X0129874Y0119332D01*
X0129284Y0118742D01*
X0129284Y0117562D01*
X0129874Y0116972D01*
X0130464Y0116972D01*
X0131054Y0117562D01*
X0131054Y0119332D01*
X0129874Y0115707D02*
X0129284Y0115117D01*
X0129284Y0113937D01*
X0129874Y0113347D01*
X0132234Y0113347D01*
X0132824Y0113937D01*
X0124761Y0113080D02*
X0121221Y0113080D01*
X0121221Y0114850D01*
X0121811Y0115440D01*
X0122991Y0115440D01*
X0123581Y0114850D01*
X0123581Y0113080D01*
X0123581Y0114260D02*
X0124761Y0115440D01*
X0124761Y0116705D02*
X0124761Y0119065D01*
X0124761Y0117885D02*
X0121221Y0117885D01*
X0122401Y0116705D01*
X0121811Y0120330D02*
X0121221Y0120920D01*
X0121221Y0122100D01*
X0121811Y0122690D01*
X0122401Y0122690D01*
X0124761Y0120330D01*
X0124761Y0122690D01*
X0115880Y0122832D02*
X0115880Y0120472D01*
X0115880Y0121652D02*
X0112340Y0121652D01*
X0113520Y0120472D01*
X0115880Y0119206D02*
X0115880Y0116846D01*
X0115880Y0118026D02*
X0112340Y0118026D01*
X0113520Y0116846D01*
X0114110Y0115581D02*
X0114700Y0114991D01*
X0114700Y0113221D01*
X0115880Y0113221D02*
X0112340Y0113221D01*
X0112340Y0114991D01*
X0112930Y0115581D01*
X0114110Y0115581D01*
X0114700Y0114401D02*
X0115880Y0115581D01*
X0103486Y0116063D02*
X0103486Y0117243D01*
X0102896Y0117833D01*
X0102896Y0119098D02*
X0102306Y0119098D01*
X0101716Y0119688D01*
X0101716Y0120868D01*
X0102306Y0121458D01*
X0102896Y0121458D01*
X0103486Y0120868D01*
X0103486Y0119688D01*
X0102896Y0119098D01*
X0101716Y0119688D02*
X0101126Y0119098D01*
X0100536Y0119098D01*
X0099946Y0119688D01*
X0099946Y0120868D01*
X0100536Y0121458D01*
X0101126Y0121458D01*
X0101716Y0120868D01*
X0100536Y0117833D02*
X0099946Y0117243D01*
X0099946Y0116063D01*
X0100536Y0115473D01*
X0102896Y0115473D01*
X0103486Y0116063D01*
X0094053Y0115835D02*
X0090513Y0115835D01*
X0090513Y0117605D01*
X0091103Y0118195D01*
X0092283Y0118195D01*
X0092873Y0117605D01*
X0092873Y0115835D01*
X0092873Y0117015D02*
X0094053Y0118195D01*
X0094053Y0119461D02*
X0094053Y0121821D01*
X0094053Y0120641D02*
X0090513Y0120641D01*
X0091693Y0119461D01*
X0091103Y0123086D02*
X0090513Y0123676D01*
X0090513Y0124856D01*
X0091103Y0125446D01*
X0093463Y0123086D01*
X0094053Y0123676D01*
X0094053Y0124856D01*
X0093463Y0125446D01*
X0091103Y0125446D01*
X0091103Y0123086D02*
X0093463Y0123086D01*
X0085391Y0121231D02*
X0085391Y0120051D01*
X0084801Y0119461D01*
X0083621Y0120051D02*
X0083621Y0121821D01*
X0082441Y0121821D02*
X0081851Y0121231D01*
X0081851Y0120051D01*
X0082441Y0119461D01*
X0083031Y0119461D01*
X0083621Y0120051D01*
X0083621Y0118195D02*
X0084211Y0117605D01*
X0084211Y0115835D01*
X0085391Y0115835D02*
X0081851Y0115835D01*
X0081851Y0117605D01*
X0082441Y0118195D01*
X0083621Y0118195D01*
X0084211Y0117015D02*
X0085391Y0118195D01*
X0085391Y0121231D02*
X0084801Y0121821D01*
X0082441Y0121821D01*
X0070636Y0101954D02*
X0070636Y0098414D01*
X0069456Y0098414D02*
X0071816Y0098414D01*
X0069456Y0100774D02*
X0070636Y0101954D01*
X0068191Y0101364D02*
X0067601Y0101954D01*
X0066421Y0101954D01*
X0065831Y0101364D01*
X0065831Y0099004D01*
X0066421Y0098414D01*
X0067601Y0098414D01*
X0068191Y0099004D01*
X0045352Y0081585D02*
X0045352Y0080405D01*
X0044762Y0079815D01*
X0043582Y0079815D02*
X0042992Y0080995D01*
X0042992Y0081585D01*
X0043582Y0082175D01*
X0044762Y0082175D01*
X0045352Y0081585D01*
X0043582Y0079815D02*
X0041812Y0079815D01*
X0041812Y0082175D01*
X0042402Y0078550D02*
X0044762Y0078550D01*
X0045352Y0077960D01*
X0045352Y0076780D01*
X0044762Y0076190D01*
X0042402Y0076190D01*
X0041812Y0076780D01*
X0041812Y0077960D01*
X0042402Y0078550D01*
X0044172Y0077370D02*
X0045352Y0078550D01*
X0050023Y0074120D02*
X0049433Y0073530D01*
X0049433Y0071170D01*
X0050023Y0070580D01*
X0051203Y0070580D01*
X0051793Y0071170D01*
X0053058Y0070580D02*
X0055418Y0070580D01*
X0054238Y0070580D02*
X0054238Y0074120D01*
X0053058Y0072940D01*
X0051793Y0073530D02*
X0051203Y0074120D01*
X0050023Y0074120D01*
X0056683Y0072350D02*
X0058453Y0072350D01*
X0059043Y0071760D01*
X0059043Y0071170D01*
X0058453Y0070580D01*
X0057273Y0070580D01*
X0056683Y0071170D01*
X0056683Y0072350D01*
X0057863Y0073530D01*
X0059043Y0074120D01*
X0035600Y0071919D02*
X0035600Y0069559D01*
X0035600Y0070739D02*
X0032060Y0070739D01*
X0033240Y0069559D01*
X0032060Y0068294D02*
X0035600Y0065934D01*
X0035600Y0068294D02*
X0032060Y0065934D01*
X0016406Y0078768D02*
X0016406Y0081128D01*
X0015816Y0081718D01*
X0014046Y0081718D01*
X0014046Y0078178D01*
X0015816Y0078178D01*
X0016406Y0078768D01*
X0012780Y0078178D02*
X0012780Y0081718D01*
X0010420Y0081718D02*
X0010420Y0078178D01*
X0009155Y0078768D02*
X0009155Y0079948D01*
X0007975Y0079948D01*
X0006795Y0081128D02*
X0006795Y0078768D01*
X0007385Y0078178D01*
X0008565Y0078178D01*
X0009155Y0078768D01*
X0009155Y0081128D02*
X0008565Y0081718D01*
X0007385Y0081718D01*
X0006795Y0081128D01*
X0010420Y0081718D02*
X0012780Y0078178D01*
X0016716Y0088497D02*
X0016126Y0089087D01*
X0016716Y0088497D02*
X0017896Y0088497D01*
X0018486Y0089087D01*
X0018486Y0089677D01*
X0017896Y0090267D01*
X0016716Y0090267D01*
X0016126Y0090857D01*
X0016126Y0091447D01*
X0016716Y0092037D01*
X0017896Y0092037D01*
X0018486Y0091447D01*
X0019751Y0092037D02*
X0019751Y0089677D01*
X0020931Y0088497D01*
X0022111Y0089677D01*
X0022111Y0092037D01*
X0023376Y0091447D02*
X0023966Y0092037D01*
X0025146Y0092037D01*
X0025736Y0091447D01*
X0025736Y0090857D01*
X0025146Y0090267D01*
X0025736Y0089677D01*
X0025736Y0089087D01*
X0025146Y0088497D01*
X0023966Y0088497D01*
X0023376Y0089087D01*
X0024556Y0090267D02*
X0025146Y0090267D01*
X0009742Y0123060D02*
X0010332Y0123650D01*
X0010332Y0124830D01*
X0009742Y0125420D01*
X0009152Y0125420D01*
X0008562Y0124830D01*
X0008562Y0123650D01*
X0007972Y0123060D01*
X0007382Y0123060D01*
X0006792Y0123650D01*
X0006792Y0124830D01*
X0007382Y0125420D01*
X0006792Y0126685D02*
X0010332Y0126685D01*
X0009152Y0127865D01*
X0010332Y0129045D01*
X0006792Y0129045D01*
X0006792Y0130310D02*
X0006792Y0131490D01*
X0006792Y0130900D02*
X0010332Y0130900D01*
X0010332Y0130310D02*
X0010332Y0131490D01*
X0010332Y0133907D02*
X0006792Y0133907D01*
X0006792Y0132727D02*
X0006792Y0135087D01*
X0007382Y0136352D02*
X0009742Y0136352D01*
X0010332Y0136942D01*
X0010332Y0138122D01*
X0009742Y0138712D01*
X0010332Y0139977D02*
X0006792Y0139977D01*
X0007382Y0138712D02*
X0006792Y0138122D01*
X0006792Y0136942D01*
X0007382Y0136352D01*
X0008562Y0139977D02*
X0008562Y0142337D01*
X0006792Y0142337D02*
X0010332Y0142337D01*
X0009742Y0147227D02*
X0007382Y0147227D01*
X0006792Y0147817D01*
X0006792Y0148997D01*
X0007382Y0149587D01*
X0007382Y0150853D02*
X0009742Y0150853D01*
X0010332Y0151443D01*
X0010332Y0152623D01*
X0009742Y0153213D01*
X0007382Y0153213D01*
X0006792Y0152623D01*
X0006792Y0151443D01*
X0007382Y0150853D01*
X0009742Y0149587D02*
X0010332Y0148997D01*
X0010332Y0147817D01*
X0009742Y0147227D01*
X0010332Y0154478D02*
X0006792Y0154478D01*
X0010332Y0156838D01*
X0006792Y0156838D01*
X0039076Y0154160D02*
X0039076Y0151800D01*
X0042616Y0151800D01*
X0042616Y0154160D01*
X0042616Y0155425D02*
X0040256Y0155425D01*
X0040256Y0157195D01*
X0040846Y0157785D01*
X0042616Y0157785D01*
X0042026Y0159640D02*
X0039666Y0159640D01*
X0040256Y0159050D02*
X0040256Y0160230D01*
X0040256Y0161467D02*
X0042026Y0161467D01*
X0042616Y0162057D01*
X0042026Y0162647D01*
X0042616Y0163237D01*
X0042026Y0163827D01*
X0040256Y0163827D01*
X0040846Y0165092D02*
X0042026Y0165092D01*
X0042616Y0165682D01*
X0042616Y0166862D01*
X0042026Y0167452D01*
X0040846Y0167452D01*
X0040256Y0166862D01*
X0040256Y0165682D01*
X0040846Y0165092D01*
X0042616Y0160230D02*
X0042026Y0159640D01*
X0046161Y0155987D02*
X0046751Y0156577D01*
X0048521Y0156577D01*
X0048521Y0154217D02*
X0046161Y0154217D01*
X0046161Y0155987D01*
X0048521Y0152980D02*
X0048521Y0151800D01*
X0048521Y0152390D02*
X0046161Y0152390D01*
X0046161Y0151800D01*
X0044981Y0152390D02*
X0044391Y0152390D01*
X0040846Y0151800D02*
X0040846Y0152980D01*
X0050887Y0151800D02*
X0050887Y0154160D01*
X0052067Y0155425D02*
X0054427Y0155425D01*
X0053247Y0155425D02*
X0052067Y0156605D01*
X0052067Y0157195D01*
X0052067Y0159036D02*
X0052067Y0160216D01*
X0052657Y0160806D01*
X0054427Y0160806D01*
X0054427Y0159036D01*
X0053837Y0158446D01*
X0053247Y0159036D01*
X0053247Y0160806D01*
X0054427Y0162071D02*
X0052067Y0162071D01*
X0052067Y0163841D01*
X0052657Y0164431D01*
X0054427Y0164431D01*
X0053837Y0165696D02*
X0054427Y0166286D01*
X0054427Y0168056D01*
X0055017Y0168056D02*
X0052067Y0168056D01*
X0052067Y0166286D01*
X0052657Y0165696D01*
X0053837Y0165696D01*
X0055607Y0166876D02*
X0055607Y0167466D01*
X0055017Y0168056D01*
X0053837Y0169321D02*
X0054427Y0169911D01*
X0054427Y0171682D01*
X0055017Y0171682D02*
X0052067Y0171682D01*
X0052067Y0169911D01*
X0052657Y0169321D01*
X0053837Y0169321D01*
X0055607Y0170502D02*
X0055607Y0171091D01*
X0055017Y0171682D01*
X0054427Y0172947D02*
X0052067Y0172947D01*
X0052067Y0174717D01*
X0052657Y0175307D01*
X0054427Y0175307D01*
X0042616Y0174155D02*
X0040256Y0174155D01*
X0040256Y0175925D01*
X0040846Y0176515D01*
X0042616Y0176515D01*
X0040846Y0172918D02*
X0040846Y0171738D01*
X0039666Y0172328D02*
X0042616Y0172328D01*
X0039666Y0172328D02*
X0039076Y0172918D01*
X0040256Y0170487D02*
X0040256Y0169897D01*
X0041436Y0168717D01*
X0042616Y0168717D02*
X0040256Y0168717D01*
X0052657Y0152980D02*
X0052657Y0151800D01*
X0054427Y0151800D02*
X0050887Y0151800D01*
X0081851Y0154812D02*
X0081851Y0156582D01*
X0082441Y0157172D01*
X0083621Y0157172D01*
X0084211Y0156582D01*
X0084211Y0154812D01*
X0084211Y0155992D02*
X0085391Y0157172D01*
X0085391Y0158437D02*
X0084801Y0158437D01*
X0082441Y0160797D01*
X0081851Y0160797D01*
X0081851Y0158437D01*
X0081851Y0154812D02*
X0085391Y0154812D01*
X0090513Y0154418D02*
X0090513Y0156188D01*
X0091103Y0156778D01*
X0092283Y0156778D01*
X0092873Y0156188D01*
X0092873Y0154418D01*
X0094053Y0154418D02*
X0090513Y0154418D01*
X0092873Y0155598D02*
X0094053Y0156778D01*
X0093463Y0158043D02*
X0092873Y0158043D01*
X0092283Y0158633D01*
X0092283Y0159813D01*
X0092873Y0160403D01*
X0093463Y0160403D01*
X0094053Y0159813D01*
X0094053Y0158633D01*
X0093463Y0158043D01*
X0092283Y0158633D02*
X0091693Y0158043D01*
X0091103Y0158043D01*
X0090513Y0158633D01*
X0090513Y0159813D01*
X0091103Y0160403D01*
X0091693Y0160403D01*
X0092283Y0159813D01*
X0092068Y0164253D02*
X0089708Y0164253D01*
X0090888Y0164253D02*
X0090888Y0167793D01*
X0089708Y0166613D01*
X0088443Y0167203D02*
X0087853Y0167793D01*
X0086673Y0167793D01*
X0086083Y0167203D01*
X0086083Y0164843D01*
X0086673Y0164253D01*
X0087853Y0164253D01*
X0088443Y0164843D01*
X0093333Y0164253D02*
X0095693Y0164253D01*
X0094513Y0164253D02*
X0094513Y0167793D01*
X0093333Y0166613D01*
X0093923Y0172788D02*
X0093333Y0173378D01*
X0095693Y0175738D01*
X0095693Y0173378D01*
X0095103Y0172788D01*
X0093923Y0172788D01*
X0093333Y0173378D02*
X0093333Y0175738D01*
X0093923Y0176328D01*
X0095103Y0176328D01*
X0095693Y0175738D01*
X0092068Y0172788D02*
X0089708Y0172788D01*
X0090888Y0172788D02*
X0090888Y0176328D01*
X0089708Y0175148D01*
X0088443Y0175738D02*
X0087853Y0176328D01*
X0086673Y0176328D01*
X0086083Y0175738D01*
X0086083Y0173378D01*
X0086673Y0172788D01*
X0087853Y0172788D01*
X0088443Y0173378D01*
X0099568Y0160419D02*
X0100158Y0160419D01*
X0102518Y0158059D01*
X0103108Y0158059D01*
X0102518Y0156794D02*
X0103108Y0156204D01*
X0103108Y0155024D01*
X0102518Y0154434D01*
X0100158Y0154434D01*
X0099568Y0155024D01*
X0099568Y0156204D01*
X0100158Y0156794D01*
X0099568Y0158059D02*
X0099568Y0160419D01*
X0105989Y0156160D02*
X0107169Y0154980D01*
X0106579Y0153715D02*
X0105989Y0153125D01*
X0105989Y0151945D01*
X0106579Y0151355D01*
X0108939Y0151355D01*
X0109529Y0151945D01*
X0109529Y0153125D01*
X0108939Y0153715D01*
X0109529Y0154980D02*
X0109529Y0157340D01*
X0109529Y0156160D02*
X0105989Y0156160D01*
X0105989Y0150118D02*
X0105989Y0148938D01*
X0105989Y0149528D02*
X0109529Y0149528D01*
X0109529Y0148938D02*
X0109529Y0150118D01*
X0110434Y0193158D02*
X0110434Y0194928D01*
X0111024Y0195518D01*
X0112204Y0195518D01*
X0112794Y0194928D01*
X0112794Y0193158D01*
X0113974Y0193158D02*
X0110434Y0193158D01*
X0112794Y0194338D02*
X0113974Y0195518D01*
X0113974Y0196783D02*
X0111614Y0199143D01*
X0111024Y0199143D01*
X0110434Y0198553D01*
X0110434Y0197373D01*
X0111024Y0196783D01*
X0113974Y0196783D02*
X0113974Y0199143D01*
X0120465Y0199026D02*
X0122236Y0197256D01*
X0122236Y0199616D01*
X0124006Y0199026D02*
X0120465Y0199026D01*
X0121055Y0195991D02*
X0120465Y0195401D01*
X0120465Y0194221D01*
X0121055Y0193631D01*
X0123416Y0193631D01*
X0124006Y0194221D01*
X0124006Y0195401D01*
X0123416Y0195991D01*
X0129135Y0195787D02*
X0129725Y0196377D01*
X0130905Y0196377D01*
X0131495Y0195787D01*
X0131495Y0194017D01*
X0131495Y0195197D02*
X0132675Y0196377D01*
X0132085Y0197642D02*
X0132675Y0198232D01*
X0132675Y0199412D01*
X0132085Y0200002D01*
X0131495Y0200002D01*
X0130905Y0199412D01*
X0130905Y0198822D01*
X0130905Y0199412D02*
X0130315Y0200002D01*
X0129725Y0200002D01*
X0129135Y0199412D01*
X0129135Y0198232D01*
X0129725Y0197642D01*
X0129135Y0195787D02*
X0129135Y0194017D01*
X0132675Y0194017D01*
X0136418Y0194143D02*
X0136418Y0195913D01*
X0137008Y0196503D01*
X0138188Y0196503D01*
X0138778Y0195913D01*
X0138778Y0194143D01*
X0138778Y0195323D02*
X0139958Y0196503D01*
X0138188Y0197768D02*
X0138188Y0200128D01*
X0136418Y0199538D02*
X0138188Y0197768D01*
X0139958Y0199538D02*
X0136418Y0199538D01*
X0136418Y0194143D02*
X0139958Y0194143D01*
X0144481Y0194725D02*
X0145071Y0194135D01*
X0147431Y0194135D01*
X0148021Y0194725D01*
X0148021Y0195905D01*
X0147431Y0196495D01*
X0147431Y0197760D02*
X0148021Y0198350D01*
X0148021Y0199530D01*
X0147431Y0200120D01*
X0146251Y0200120D01*
X0145661Y0199530D01*
X0145661Y0198940D01*
X0146251Y0197760D01*
X0144481Y0197760D01*
X0144481Y0200120D01*
X0145071Y0196495D02*
X0144481Y0195905D01*
X0144481Y0194725D01*
X0153922Y0194111D02*
X0153922Y0195881D01*
X0154512Y0196471D01*
X0155692Y0196471D01*
X0156282Y0195881D01*
X0156282Y0194111D01*
X0156282Y0195291D02*
X0157462Y0196471D01*
X0156872Y0197736D02*
X0157462Y0198326D01*
X0157462Y0199506D01*
X0156872Y0200096D01*
X0155692Y0200096D01*
X0155102Y0199506D01*
X0155102Y0198916D01*
X0155692Y0197736D01*
X0153922Y0197736D01*
X0153922Y0200096D01*
X0153922Y0194111D02*
X0157462Y0194111D01*
X0161938Y0194835D02*
X0161938Y0196605D01*
X0162528Y0197195D01*
X0163708Y0197195D01*
X0164298Y0196605D01*
X0164298Y0194835D01*
X0165478Y0194835D02*
X0161938Y0194835D01*
X0164298Y0196015D02*
X0165478Y0197195D01*
X0164888Y0198461D02*
X0165478Y0199051D01*
X0165478Y0200231D01*
X0164888Y0200821D01*
X0164298Y0200821D01*
X0163708Y0200231D01*
X0163708Y0198461D01*
X0164888Y0198461D01*
X0163708Y0198461D02*
X0162528Y0199641D01*
X0161938Y0200821D01*
X0170001Y0201088D02*
X0170591Y0199908D01*
X0171771Y0198728D01*
X0171771Y0200498D01*
X0172361Y0201088D01*
X0172951Y0201088D01*
X0173541Y0200498D01*
X0173541Y0199318D01*
X0172951Y0198728D01*
X0171771Y0198728D01*
X0172951Y0197463D02*
X0173541Y0196873D01*
X0173541Y0195693D01*
X0172951Y0195103D01*
X0170591Y0195103D01*
X0170001Y0195693D01*
X0170001Y0196873D01*
X0170591Y0197463D01*
X0152714Y0214261D02*
X0149174Y0214261D01*
X0149174Y0216031D01*
X0149764Y0216621D01*
X0150944Y0216621D01*
X0151534Y0216031D01*
X0151534Y0214261D01*
X0151534Y0215441D02*
X0152714Y0216621D01*
X0152124Y0217886D02*
X0152714Y0218476D01*
X0152714Y0219656D01*
X0152124Y0220246D01*
X0150944Y0220246D01*
X0150354Y0219656D01*
X0150354Y0219066D01*
X0150944Y0217886D01*
X0149174Y0217886D01*
X0149174Y0220246D01*
X0150944Y0221511D02*
X0150944Y0223871D01*
X0149174Y0223281D02*
X0150944Y0221511D01*
X0152714Y0223281D02*
X0149174Y0223281D01*
X0137360Y0222887D02*
X0137360Y0221707D01*
X0136770Y0221117D01*
X0136770Y0219852D02*
X0137360Y0219262D01*
X0137360Y0218082D01*
X0136770Y0217492D01*
X0135590Y0217492D02*
X0135000Y0218672D01*
X0135000Y0219262D01*
X0135590Y0219852D01*
X0136770Y0219852D01*
X0135590Y0217492D02*
X0133820Y0217492D01*
X0133820Y0219852D01*
X0134410Y0221117D02*
X0133820Y0221707D01*
X0133820Y0222887D01*
X0134410Y0223477D01*
X0135000Y0223477D01*
X0135590Y0222887D01*
X0136180Y0223477D01*
X0136770Y0223477D01*
X0137360Y0222887D01*
X0135590Y0222887D02*
X0135590Y0222297D01*
X0135590Y0216227D02*
X0136180Y0215637D01*
X0136180Y0213867D01*
X0137360Y0213867D02*
X0133820Y0213867D01*
X0133820Y0215637D01*
X0134410Y0216227D01*
X0135590Y0216227D01*
X0136180Y0215047D02*
X0137360Y0216227D01*
X0105565Y0199143D02*
X0105565Y0196783D01*
X0105565Y0197963D02*
X0102025Y0197963D01*
X0103205Y0196783D01*
X0103795Y0195518D02*
X0104385Y0194928D01*
X0104385Y0193158D01*
X0105565Y0193158D02*
X0102025Y0193158D01*
X0102025Y0194928D01*
X0102615Y0195518D01*
X0103795Y0195518D01*
X0104385Y0194338D02*
X0105565Y0195518D01*
X0044644Y0195163D02*
X0044644Y0194573D01*
X0044054Y0193983D01*
X0044644Y0193393D01*
X0044644Y0192803D01*
X0044054Y0192213D01*
X0042874Y0192213D01*
X0042284Y0192803D01*
X0043464Y0193983D02*
X0044054Y0193983D01*
X0044644Y0195163D02*
X0044054Y0195753D01*
X0042874Y0195753D01*
X0042284Y0195163D01*
X0041019Y0193983D02*
X0038659Y0193983D01*
X0040429Y0195753D01*
X0040429Y0192213D01*
X0037394Y0192213D02*
X0036214Y0193393D01*
X0036804Y0193393D02*
X0035034Y0193393D01*
X0035034Y0192213D02*
X0035034Y0195753D01*
X0036804Y0195753D01*
X0037394Y0195163D01*
X0037394Y0193983D01*
X0036804Y0193393D01*
X0037394Y0201269D02*
X0036214Y0202449D01*
X0036804Y0202449D02*
X0035034Y0202449D01*
X0035034Y0201269D02*
X0035034Y0204809D01*
X0036804Y0204809D01*
X0037394Y0204219D01*
X0037394Y0203039D01*
X0036804Y0202449D01*
X0038659Y0203039D02*
X0041019Y0203039D01*
X0042284Y0204219D02*
X0042874Y0204809D01*
X0044054Y0204809D01*
X0044644Y0204219D01*
X0044644Y0203629D01*
X0042284Y0201269D01*
X0044644Y0201269D01*
X0040429Y0201269D02*
X0040429Y0204809D01*
X0038659Y0203039D01*
X0025658Y0217631D02*
X0023298Y0217631D01*
X0025658Y0219991D01*
X0025658Y0220581D01*
X0025068Y0221171D01*
X0023888Y0221171D01*
X0023298Y0220581D01*
X0022032Y0221171D02*
X0022032Y0218811D01*
X0020852Y0217631D01*
X0019672Y0218811D01*
X0019672Y0221171D01*
X0018407Y0220581D02*
X0017817Y0221171D01*
X0016637Y0221171D01*
X0016047Y0220581D01*
X0016047Y0219991D01*
X0016637Y0219401D01*
X0017817Y0219401D01*
X0018407Y0218811D01*
X0018407Y0218221D01*
X0017817Y0217631D01*
X0016637Y0217631D01*
X0016047Y0218221D01*
X0010332Y0214757D02*
X0010332Y0213577D01*
X0009742Y0212987D01*
X0009152Y0211722D02*
X0006792Y0211722D01*
X0007382Y0212987D02*
X0006792Y0213577D01*
X0006792Y0214757D01*
X0007382Y0215347D01*
X0007972Y0215347D01*
X0008562Y0214757D01*
X0009152Y0215347D01*
X0009742Y0215347D01*
X0010332Y0214757D01*
X0008562Y0214757D02*
X0008562Y0214167D01*
X0009152Y0211722D02*
X0010332Y0210542D01*
X0009152Y0209362D01*
X0006792Y0209362D01*
X0007382Y0208097D02*
X0007972Y0208097D01*
X0008562Y0207507D01*
X0009152Y0208097D01*
X0009742Y0208097D01*
X0010332Y0207507D01*
X0010332Y0206327D01*
X0009742Y0205737D01*
X0008562Y0206917D02*
X0008562Y0207507D01*
X0007382Y0208097D02*
X0006792Y0207507D01*
X0006792Y0206327D01*
X0007382Y0205737D01*
X0006792Y0202273D02*
X0009152Y0202273D01*
X0010332Y0201093D01*
X0009152Y0199913D01*
X0006792Y0199913D01*
X0006792Y0198648D02*
X0006792Y0196288D01*
X0008562Y0196288D01*
X0007972Y0197468D01*
X0007972Y0198058D01*
X0008562Y0198648D01*
X0009742Y0198648D01*
X0010332Y0198058D01*
X0010332Y0196878D01*
X0009742Y0196288D01*
X0010332Y0238808D02*
X0006792Y0238808D01*
X0006792Y0240578D01*
X0007382Y0241168D01*
X0009742Y0241168D01*
X0010332Y0240578D01*
X0010332Y0238808D01*
X0010332Y0242433D02*
X0010332Y0243613D01*
X0010332Y0243023D02*
X0006792Y0243023D01*
X0006792Y0242433D02*
X0006792Y0243613D01*
X0007382Y0244850D02*
X0007972Y0244850D01*
X0008562Y0245440D01*
X0008562Y0246620D01*
X0009152Y0247210D01*
X0009742Y0247210D01*
X0010332Y0246620D01*
X0010332Y0245440D01*
X0009742Y0244850D01*
X0007382Y0244850D02*
X0006792Y0245440D01*
X0006792Y0246620D01*
X0007382Y0247210D01*
X0006792Y0248475D02*
X0006792Y0250245D01*
X0007382Y0250835D01*
X0008562Y0250835D01*
X0009152Y0250245D01*
X0009152Y0248475D01*
X0010332Y0248475D02*
X0006792Y0248475D01*
X0006792Y0252100D02*
X0010332Y0252100D01*
X0010332Y0254460D01*
X0010332Y0255725D02*
X0007972Y0255725D01*
X0006792Y0256905D01*
X0007972Y0258085D01*
X0010332Y0258085D01*
X0008562Y0258085D02*
X0008562Y0255725D01*
X0007382Y0259350D02*
X0008562Y0260530D01*
X0010332Y0260530D01*
X0008562Y0260530D02*
X0007382Y0261710D01*
X0006792Y0261710D01*
X0006792Y0259350D02*
X0007382Y0259350D01*
X0046558Y0301013D02*
X0046558Y0304553D01*
X0045378Y0304553D02*
X0047738Y0304553D01*
X0049003Y0304553D02*
X0051363Y0301013D01*
X0049003Y0301013D02*
X0051363Y0304553D01*
X0062701Y0311051D02*
X0062701Y0314001D01*
X0065061Y0314001D02*
X0065061Y0311051D01*
X0064471Y0310461D01*
X0063291Y0310461D01*
X0062701Y0311051D01*
X0066326Y0310461D02*
X0066326Y0312821D01*
X0067506Y0314001D01*
X0068686Y0312821D01*
X0068686Y0310461D01*
X0069951Y0310461D02*
X0069951Y0314001D01*
X0071721Y0314001D01*
X0072311Y0313411D01*
X0072311Y0312231D01*
X0071721Y0311641D01*
X0069951Y0311641D01*
X0071131Y0311641D02*
X0072311Y0310461D01*
X0074756Y0310461D02*
X0074756Y0314001D01*
X0073576Y0314001D02*
X0075936Y0314001D01*
X0068686Y0312231D02*
X0066326Y0312231D01*
X0087584Y0301165D02*
X0088174Y0301755D01*
X0088764Y0301755D01*
X0089354Y0301165D01*
X0089944Y0301755D01*
X0090534Y0301755D01*
X0091124Y0301165D01*
X0091124Y0299985D01*
X0090534Y0299395D01*
X0091124Y0298130D02*
X0091124Y0295770D01*
X0091124Y0296950D02*
X0087584Y0296950D01*
X0088764Y0295770D01*
X0089944Y0294505D02*
X0087584Y0294505D01*
X0089944Y0294505D02*
X0091124Y0293325D01*
X0089944Y0292145D01*
X0087584Y0292145D01*
X0088174Y0290880D02*
X0087584Y0290290D01*
X0087584Y0289110D01*
X0088174Y0288520D01*
X0088764Y0288520D01*
X0089354Y0289110D01*
X0089354Y0290290D01*
X0089944Y0290880D01*
X0090534Y0290880D01*
X0091124Y0290290D01*
X0091124Y0289110D01*
X0090534Y0288520D01*
X0088174Y0299395D02*
X0087584Y0299985D01*
X0087584Y0301165D01*
X0089354Y0301165D02*
X0089354Y0300575D01*
X0109945Y0310461D02*
X0109945Y0312821D01*
X0111125Y0314001D01*
X0112305Y0312821D01*
X0112305Y0310461D01*
X0113570Y0310461D02*
X0113570Y0314001D01*
X0114750Y0312821D01*
X0115930Y0314001D01*
X0115930Y0310461D01*
X0117195Y0310461D02*
X0118965Y0310461D01*
X0119555Y0311051D01*
X0119555Y0311641D01*
X0118965Y0312231D01*
X0117195Y0312231D01*
X0117195Y0310461D02*
X0117195Y0314001D01*
X0118965Y0314001D01*
X0119555Y0313411D01*
X0119555Y0312821D01*
X0118965Y0312231D01*
X0120820Y0310461D02*
X0122000Y0310461D01*
X0121410Y0310461D02*
X0121410Y0314001D01*
X0120820Y0314001D02*
X0122000Y0314001D01*
X0123237Y0314001D02*
X0123237Y0310461D01*
X0125597Y0310461D01*
X0126862Y0310461D02*
X0128042Y0310461D01*
X0127452Y0310461D02*
X0127452Y0314001D01*
X0126862Y0314001D02*
X0128042Y0314001D01*
X0129279Y0313411D02*
X0129279Y0311051D01*
X0129869Y0310461D01*
X0131049Y0310461D01*
X0131639Y0311051D01*
X0131639Y0312231D01*
X0130459Y0312231D01*
X0131639Y0313411D02*
X0131049Y0314001D01*
X0129869Y0314001D01*
X0129279Y0313411D01*
X0132904Y0314001D02*
X0132904Y0310461D01*
X0132904Y0312231D02*
X0135264Y0312231D01*
X0135264Y0314001D02*
X0135264Y0310461D01*
X0137709Y0310461D02*
X0137709Y0314001D01*
X0136529Y0314001D02*
X0138889Y0314001D01*
X0140154Y0312231D02*
X0142514Y0312231D01*
X0143779Y0312231D02*
X0144959Y0312231D01*
X0143779Y0314001D02*
X0143779Y0310461D01*
X0146139Y0310461D01*
X0147405Y0310461D02*
X0149765Y0314001D01*
X0151030Y0314001D02*
X0153390Y0314001D01*
X0152210Y0314001D02*
X0152210Y0310461D01*
X0149765Y0310461D02*
X0147405Y0314001D01*
X0146139Y0314001D02*
X0143779Y0314001D01*
X0141334Y0313411D02*
X0141334Y0311051D01*
X0160812Y0299552D02*
X0161992Y0298372D01*
X0160812Y0299552D02*
X0164352Y0299552D01*
X0164352Y0298372D02*
X0164352Y0300732D01*
X0164352Y0297107D02*
X0164352Y0294747D01*
X0164352Y0295927D02*
X0160812Y0295927D01*
X0161992Y0294747D01*
X0163172Y0293481D02*
X0160812Y0293481D01*
X0160812Y0291121D02*
X0163172Y0291121D01*
X0164352Y0292301D01*
X0163172Y0293481D01*
X0163172Y0289856D02*
X0163762Y0289856D01*
X0164352Y0289266D01*
X0164352Y0288086D01*
X0163762Y0287496D01*
X0162582Y0288086D02*
X0162582Y0289266D01*
X0163172Y0289856D01*
X0161402Y0289856D02*
X0160812Y0289266D01*
X0160812Y0288086D01*
X0161402Y0287496D01*
X0161992Y0287496D01*
X0162582Y0288086D01*
X0152815Y0277466D02*
X0152815Y0273926D01*
X0151635Y0273926D02*
X0153995Y0273926D01*
X0151635Y0276286D02*
X0152815Y0277466D01*
X0150370Y0277466D02*
X0148010Y0275106D01*
X0148600Y0275696D02*
X0150370Y0273926D01*
X0148010Y0273926D02*
X0148010Y0277466D01*
X0153734Y0256777D02*
X0153144Y0256187D01*
X0153144Y0253827D01*
X0153734Y0253237D01*
X0154914Y0253237D01*
X0155504Y0253827D01*
X0156769Y0253237D02*
X0159129Y0253237D01*
X0157949Y0253237D02*
X0157949Y0256777D01*
X0156769Y0255597D01*
X0155504Y0256187D02*
X0154914Y0256777D01*
X0153734Y0256777D01*
X0160395Y0256777D02*
X0162755Y0256777D01*
X0162755Y0256187D01*
X0160395Y0253827D01*
X0160395Y0253237D01*
X0117281Y0253629D02*
X0116101Y0252449D01*
X0116101Y0253039D02*
X0116101Y0251269D01*
X0117281Y0251269D02*
X0113741Y0251269D01*
X0113741Y0253039D01*
X0114331Y0253629D01*
X0115511Y0253629D01*
X0116101Y0253039D01*
X0117281Y0254894D02*
X0114921Y0257254D01*
X0114331Y0257254D01*
X0113741Y0256664D01*
X0113741Y0255484D01*
X0114331Y0254894D01*
X0117281Y0254894D02*
X0117281Y0257254D01*
X0117281Y0258519D02*
X0114921Y0260879D01*
X0114331Y0260879D01*
X0113741Y0260289D01*
X0113741Y0259109D01*
X0114331Y0258519D01*
X0117281Y0258519D02*
X0117281Y0260879D01*
X0106857Y0270324D02*
X0106857Y0270914D01*
X0109217Y0273274D01*
X0109217Y0273864D01*
X0106857Y0273864D01*
X0105592Y0273274D02*
X0105002Y0273864D01*
X0103822Y0273864D01*
X0103232Y0273274D01*
X0103232Y0270914D01*
X0103822Y0270324D01*
X0105002Y0270324D01*
X0105592Y0270914D01*
X0105592Y0273274D01*
X0104412Y0271504D02*
X0105592Y0270324D01*
X0085667Y0268783D02*
X0085667Y0266423D01*
X0085667Y0267603D02*
X0082127Y0267603D01*
X0083307Y0266423D01*
X0083307Y0265158D02*
X0082717Y0265158D01*
X0082127Y0264568D01*
X0082127Y0263388D01*
X0082717Y0262798D01*
X0082717Y0261533D02*
X0083897Y0261533D01*
X0084487Y0260943D01*
X0084487Y0259173D01*
X0084487Y0260353D02*
X0085667Y0261533D01*
X0085667Y0262798D02*
X0083307Y0265158D01*
X0085667Y0265158D02*
X0085667Y0262798D01*
X0082717Y0261533D02*
X0082127Y0260943D01*
X0082127Y0259173D01*
X0085667Y0259173D01*
X0109945Y0312231D02*
X0112305Y0312231D01*
X0183173Y0311641D02*
X0184353Y0310461D01*
X0185533Y0311641D01*
X0185533Y0314001D01*
X0186798Y0313411D02*
X0186798Y0311051D01*
X0187388Y0310461D01*
X0188568Y0310461D01*
X0189158Y0311051D01*
X0189158Y0313411D01*
X0188568Y0314001D01*
X0187388Y0314001D01*
X0186798Y0313411D01*
X0183173Y0314001D02*
X0183173Y0311641D01*
X0190423Y0310461D02*
X0192784Y0310461D01*
X0190423Y0310461D02*
X0190423Y0314001D01*
X0197674Y0314001D02*
X0197674Y0310461D01*
X0200034Y0310461D01*
X0201299Y0310461D02*
X0201299Y0314001D01*
X0203659Y0310461D01*
X0203659Y0314001D01*
X0204924Y0313411D02*
X0204924Y0311051D01*
X0205514Y0310461D01*
X0206694Y0310461D01*
X0207284Y0311051D01*
X0207284Y0313411D02*
X0206694Y0314001D01*
X0205514Y0314001D01*
X0204924Y0313411D01*
X0200034Y0314001D02*
X0197674Y0314001D01*
X0197674Y0312231D02*
X0198854Y0312231D01*
X0213568Y0299393D02*
X0214158Y0299393D01*
X0216518Y0297033D01*
X0217108Y0297033D01*
X0215928Y0295768D02*
X0213568Y0295768D01*
X0213568Y0297033D02*
X0213568Y0299393D01*
X0215928Y0295768D02*
X0217108Y0294588D01*
X0215928Y0293408D01*
X0213568Y0293408D01*
X0214158Y0292143D02*
X0213568Y0291553D01*
X0213568Y0290373D01*
X0214158Y0289783D01*
X0214748Y0289783D01*
X0215338Y0290373D01*
X0215338Y0291553D01*
X0215928Y0292143D01*
X0216518Y0292143D01*
X0217108Y0291553D01*
X0217108Y0290373D01*
X0216518Y0289783D01*
X0241441Y0310461D02*
X0243801Y0310461D01*
X0245066Y0310461D02*
X0246246Y0310461D01*
X0245656Y0310461D02*
X0245656Y0314001D01*
X0245066Y0314001D02*
X0246246Y0314001D01*
X0247483Y0314001D02*
X0249253Y0314001D01*
X0249843Y0313411D01*
X0249843Y0312231D01*
X0249253Y0311641D01*
X0247483Y0311641D01*
X0247483Y0310461D02*
X0247483Y0314001D01*
X0248663Y0311641D02*
X0249843Y0310461D01*
X0251108Y0311051D02*
X0251698Y0310461D01*
X0252878Y0310461D01*
X0253468Y0311051D01*
X0251108Y0311051D02*
X0251108Y0313411D01*
X0251698Y0314001D01*
X0252878Y0314001D01*
X0253468Y0313411D01*
X0241441Y0314001D02*
X0241441Y0310461D01*
X0267111Y0303528D02*
X0267701Y0304118D01*
X0270061Y0301758D01*
X0270651Y0302348D01*
X0270651Y0303528D01*
X0270061Y0304118D01*
X0267701Y0304118D01*
X0267111Y0303528D02*
X0267111Y0302348D01*
X0267701Y0301758D01*
X0270061Y0301758D01*
X0270651Y0300492D02*
X0270651Y0298132D01*
X0270651Y0299312D02*
X0267111Y0299312D01*
X0268291Y0298132D01*
X0269471Y0296867D02*
X0267111Y0296867D01*
X0267111Y0294507D02*
X0269471Y0294507D01*
X0270651Y0295687D01*
X0269471Y0296867D01*
X0269471Y0293242D02*
X0270061Y0293242D01*
X0270651Y0292652D01*
X0270651Y0291472D01*
X0270061Y0290882D01*
X0268881Y0291472D02*
X0268881Y0292652D01*
X0269471Y0293242D01*
X0267701Y0293242D02*
X0267111Y0292652D01*
X0267111Y0291472D01*
X0267701Y0290882D01*
X0268291Y0290882D01*
X0268881Y0291472D01*
X0268936Y0275220D02*
X0268936Y0273450D01*
X0268346Y0272860D01*
X0267756Y0272860D01*
X0267166Y0273450D01*
X0267166Y0274630D01*
X0267756Y0275220D01*
X0270116Y0275220D01*
X0270706Y0274630D01*
X0270706Y0273450D01*
X0270116Y0272860D01*
X0270116Y0271595D02*
X0267756Y0271595D01*
X0267166Y0271005D01*
X0267166Y0269235D01*
X0270706Y0269235D01*
X0270706Y0271005D01*
X0270116Y0271595D01*
X0270706Y0267970D02*
X0270706Y0265610D01*
X0267166Y0265610D01*
X0267166Y0267970D01*
X0268936Y0266790D02*
X0268936Y0265610D01*
X0270706Y0264344D02*
X0270706Y0261984D01*
X0267166Y0261984D01*
X0266268Y0252328D02*
X0265088Y0251738D01*
X0263908Y0250558D01*
X0265678Y0250558D01*
X0266268Y0249968D01*
X0266268Y0249378D01*
X0265678Y0248788D01*
X0264498Y0248788D01*
X0263908Y0249378D01*
X0263908Y0250558D01*
X0262643Y0249968D02*
X0262643Y0249378D01*
X0262053Y0248788D01*
X0260873Y0248788D01*
X0260283Y0249378D01*
X0259017Y0248788D02*
X0257837Y0249968D01*
X0258427Y0249968D02*
X0256657Y0249968D01*
X0256657Y0248788D02*
X0256657Y0252328D01*
X0258427Y0252328D01*
X0259017Y0251738D01*
X0259017Y0250558D01*
X0258427Y0249968D01*
X0260283Y0251738D02*
X0260873Y0252328D01*
X0262053Y0252328D01*
X0262643Y0251738D01*
X0262643Y0251148D01*
X0262053Y0250558D01*
X0262643Y0249968D01*
X0262053Y0250558D02*
X0261463Y0250558D01*
X0277009Y0261984D02*
X0280549Y0261984D01*
X0280549Y0264344D01*
X0280549Y0265610D02*
X0280549Y0267970D01*
X0280549Y0269235D02*
X0280549Y0271005D01*
X0279959Y0271595D01*
X0277599Y0271595D01*
X0277009Y0271005D01*
X0277009Y0269235D01*
X0280549Y0269235D01*
X0278779Y0266790D02*
X0278779Y0265610D01*
X0277009Y0265610D02*
X0280549Y0265610D01*
X0277009Y0265610D02*
X0277009Y0267970D01*
X0277599Y0272860D02*
X0278189Y0272860D01*
X0278779Y0273450D01*
X0278779Y0274630D01*
X0279369Y0275220D01*
X0279959Y0275220D01*
X0280549Y0274630D01*
X0280549Y0273450D01*
X0279959Y0272860D01*
X0279369Y0272860D01*
X0278779Y0273450D01*
X0278779Y0274630D02*
X0278189Y0275220D01*
X0277599Y0275220D01*
X0277009Y0274630D01*
X0277009Y0273450D01*
X0277599Y0272860D01*
X0286851Y0272860D02*
X0286851Y0275220D01*
X0287441Y0275220D01*
X0289801Y0272860D01*
X0290391Y0272860D01*
X0289801Y0271595D02*
X0287441Y0271595D01*
X0286851Y0271005D01*
X0286851Y0269235D01*
X0290391Y0269235D01*
X0290391Y0271005D01*
X0289801Y0271595D01*
X0290391Y0267970D02*
X0290391Y0265610D01*
X0286851Y0265610D01*
X0286851Y0267970D01*
X0288621Y0266790D02*
X0288621Y0265610D01*
X0290391Y0264344D02*
X0290391Y0261984D01*
X0286851Y0261984D01*
X0296694Y0261984D02*
X0300234Y0261984D01*
X0300234Y0264344D01*
X0300234Y0265610D02*
X0300234Y0267970D01*
X0300234Y0269235D02*
X0300234Y0271005D01*
X0299644Y0271595D01*
X0297284Y0271595D01*
X0296694Y0271005D01*
X0296694Y0269235D01*
X0300234Y0269235D01*
X0298464Y0266790D02*
X0298464Y0265610D01*
X0296694Y0265610D02*
X0300234Y0265610D01*
X0296694Y0265610D02*
X0296694Y0267970D01*
X0296694Y0272860D02*
X0298464Y0272860D01*
X0297874Y0274040D01*
X0297874Y0274630D01*
X0298464Y0275220D01*
X0299644Y0275220D01*
X0300234Y0274630D01*
X0300234Y0273450D01*
X0299644Y0272860D01*
X0296694Y0272860D02*
X0296694Y0275220D01*
X0306536Y0274630D02*
X0308306Y0272860D01*
X0308306Y0275220D01*
X0310076Y0274630D02*
X0306536Y0274630D01*
X0307126Y0271595D02*
X0306536Y0271005D01*
X0306536Y0269235D01*
X0310076Y0269235D01*
X0310076Y0271005D01*
X0309486Y0271595D01*
X0307126Y0271595D01*
X0306536Y0267970D02*
X0306536Y0265610D01*
X0310076Y0265610D01*
X0310076Y0267970D01*
X0308306Y0266790D02*
X0308306Y0265610D01*
X0310076Y0264344D02*
X0310076Y0261984D01*
X0306536Y0261984D01*
X0316379Y0261984D02*
X0319919Y0261984D01*
X0319919Y0264344D01*
X0319919Y0265610D02*
X0319919Y0267970D01*
X0319919Y0269235D02*
X0319919Y0271005D01*
X0319329Y0271595D01*
X0316969Y0271595D01*
X0316379Y0271005D01*
X0316379Y0269235D01*
X0319919Y0269235D01*
X0318149Y0266790D02*
X0318149Y0265610D01*
X0316379Y0265610D02*
X0319919Y0265610D01*
X0316379Y0265610D02*
X0316379Y0267970D01*
X0316969Y0272860D02*
X0316379Y0273450D01*
X0316379Y0274630D01*
X0316969Y0275220D01*
X0317559Y0275220D01*
X0318149Y0274630D01*
X0318739Y0275220D01*
X0319329Y0275220D01*
X0319919Y0274630D01*
X0319919Y0273450D01*
X0319329Y0272860D01*
X0318149Y0274040D02*
X0318149Y0274630D01*
X0326221Y0274630D02*
X0326221Y0273450D01*
X0326811Y0272860D01*
X0326811Y0271595D02*
X0326221Y0271005D01*
X0326221Y0269235D01*
X0329761Y0269235D01*
X0329761Y0271005D01*
X0329171Y0271595D01*
X0326811Y0271595D01*
X0326221Y0274630D02*
X0326811Y0275220D01*
X0327401Y0275220D01*
X0329761Y0272860D01*
X0329761Y0275220D01*
X0336064Y0274040D02*
X0337244Y0272860D01*
X0336654Y0271595D02*
X0336064Y0271005D01*
X0336064Y0269235D01*
X0339604Y0269235D01*
X0339604Y0271005D01*
X0339014Y0271595D01*
X0336654Y0271595D01*
X0336064Y0274040D02*
X0339604Y0274040D01*
X0339604Y0272860D02*
X0339604Y0275220D01*
X0345906Y0275220D02*
X0346496Y0274040D01*
X0347676Y0272860D01*
X0347676Y0274630D01*
X0348266Y0275220D01*
X0348856Y0275220D01*
X0349446Y0274630D01*
X0349446Y0273450D01*
X0348856Y0272860D01*
X0347676Y0272860D01*
X0348856Y0271595D02*
X0346496Y0271595D01*
X0345906Y0271005D01*
X0345906Y0269235D01*
X0349446Y0269235D01*
X0349446Y0271005D01*
X0348856Y0271595D01*
X0349446Y0267970D02*
X0349446Y0265610D01*
X0345906Y0265610D01*
X0345906Y0267970D01*
X0347676Y0266790D02*
X0347676Y0265610D01*
X0349446Y0264344D02*
X0349446Y0261984D01*
X0345906Y0261984D01*
X0339604Y0261984D02*
X0339604Y0264344D01*
X0339604Y0265610D02*
X0339604Y0267970D01*
X0337834Y0266790D02*
X0337834Y0265610D01*
X0336064Y0265610D02*
X0339604Y0265610D01*
X0336064Y0265610D02*
X0336064Y0267970D01*
X0336064Y0261984D02*
X0339604Y0261984D01*
X0329761Y0261984D02*
X0329761Y0264344D01*
X0329761Y0265610D02*
X0329761Y0267970D01*
X0327991Y0266790D02*
X0327991Y0265610D01*
X0326221Y0265610D02*
X0329761Y0265610D01*
X0326221Y0265610D02*
X0326221Y0267970D01*
X0326221Y0261984D02*
X0329761Y0261984D01*
X0355749Y0261984D02*
X0359289Y0261984D01*
X0359289Y0264344D01*
X0359289Y0265610D02*
X0359289Y0267380D01*
X0358699Y0267970D01*
X0356339Y0267970D01*
X0355749Y0267380D01*
X0355749Y0265610D01*
X0359289Y0265610D01*
X0357519Y0263164D02*
X0357519Y0261984D01*
X0355749Y0261984D02*
X0355749Y0264344D01*
X0356929Y0269235D02*
X0355749Y0270415D01*
X0359289Y0270415D01*
X0359289Y0269235D02*
X0359289Y0271595D01*
X0358699Y0272860D02*
X0359289Y0273450D01*
X0359289Y0274630D01*
X0358699Y0275220D01*
X0358109Y0275220D01*
X0357519Y0274630D01*
X0357519Y0274040D01*
X0357519Y0274630D02*
X0356929Y0275220D01*
X0356339Y0275220D01*
X0355749Y0274630D01*
X0355749Y0273450D01*
X0356339Y0272860D01*
X0365591Y0273450D02*
X0366181Y0272860D01*
X0365591Y0273450D02*
X0365591Y0274630D01*
X0366181Y0275220D01*
X0366771Y0275220D01*
X0369131Y0272860D01*
X0369131Y0275220D01*
X0369131Y0271595D02*
X0369131Y0269235D01*
X0369131Y0270415D02*
X0365591Y0270415D01*
X0366771Y0269235D01*
X0366181Y0267970D02*
X0365591Y0267380D01*
X0365591Y0265610D01*
X0369131Y0265610D01*
X0369131Y0267380D01*
X0368541Y0267970D01*
X0366181Y0267970D01*
X0365591Y0264344D02*
X0365591Y0261984D01*
X0369131Y0261984D01*
X0369131Y0264344D01*
X0367361Y0263164D02*
X0367361Y0261984D01*
X0369131Y0260719D02*
X0369131Y0258359D01*
X0365591Y0258359D01*
X0359289Y0258359D02*
X0359289Y0260719D01*
X0359289Y0258359D02*
X0355749Y0258359D01*
X0372436Y0245753D02*
X0374206Y0245753D01*
X0374796Y0245163D01*
X0374796Y0243983D01*
X0374206Y0243393D01*
X0372436Y0243393D01*
X0373616Y0243393D02*
X0374796Y0242213D01*
X0376061Y0242213D02*
X0378421Y0244573D01*
X0378421Y0245163D01*
X0377831Y0245753D01*
X0376651Y0245753D01*
X0376061Y0245163D01*
X0376061Y0242213D02*
X0378421Y0242213D01*
X0379686Y0243983D02*
X0381456Y0245753D01*
X0381456Y0242213D01*
X0382046Y0243983D02*
X0379686Y0243983D01*
X0379882Y0237486D02*
X0379292Y0236896D01*
X0379292Y0236306D01*
X0379882Y0235716D01*
X0381062Y0235716D01*
X0381652Y0235126D01*
X0381652Y0234536D01*
X0381062Y0233946D01*
X0379882Y0233946D01*
X0379292Y0234536D01*
X0379292Y0235126D01*
X0379882Y0235716D01*
X0381062Y0235716D02*
X0381652Y0236306D01*
X0381652Y0236896D01*
X0381062Y0237486D01*
X0379882Y0237486D01*
X0378027Y0236896D02*
X0377437Y0237486D01*
X0376257Y0237486D01*
X0375667Y0236896D01*
X0374402Y0236896D02*
X0374402Y0235716D01*
X0373812Y0235126D01*
X0372042Y0235126D01*
X0373222Y0235126D02*
X0374402Y0233946D01*
X0375667Y0233946D02*
X0378027Y0236306D01*
X0378027Y0236896D01*
X0378027Y0233946D02*
X0375667Y0233946D01*
X0374402Y0236896D02*
X0373812Y0237486D01*
X0372042Y0237486D01*
X0372042Y0233946D01*
X0373223Y0228824D02*
X0374993Y0228824D01*
X0375583Y0228234D01*
X0375583Y0227054D01*
X0374993Y0226464D01*
X0373223Y0226464D01*
X0373223Y0225284D02*
X0373223Y0228824D01*
X0374403Y0226464D02*
X0375583Y0225284D01*
X0376848Y0225284D02*
X0379208Y0225284D01*
X0378028Y0225284D02*
X0378028Y0228824D01*
X0376848Y0227644D01*
X0380473Y0228234D02*
X0381063Y0228824D01*
X0382243Y0228824D01*
X0382833Y0228234D01*
X0382833Y0227644D01*
X0382243Y0227054D01*
X0382833Y0226464D01*
X0382833Y0225874D01*
X0382243Y0225284D01*
X0381063Y0225284D01*
X0380473Y0225874D01*
X0381653Y0227054D02*
X0382243Y0227054D01*
X0382243Y0220950D02*
X0382833Y0220360D01*
X0382833Y0219770D01*
X0382243Y0219180D01*
X0381063Y0219180D01*
X0380473Y0219770D01*
X0380473Y0220360D01*
X0381063Y0220950D01*
X0382243Y0220950D01*
X0382243Y0219180D02*
X0382833Y0218590D01*
X0382833Y0218000D01*
X0382243Y0217410D01*
X0381063Y0217410D01*
X0380473Y0218000D01*
X0380473Y0218590D01*
X0381063Y0219180D01*
X0379208Y0217410D02*
X0376848Y0217410D01*
X0378028Y0217410D02*
X0378028Y0220950D01*
X0376848Y0219770D01*
X0375583Y0220360D02*
X0375583Y0219180D01*
X0374993Y0218590D01*
X0373223Y0218590D01*
X0373223Y0217410D02*
X0373223Y0220950D01*
X0374993Y0220950D01*
X0375583Y0220360D01*
X0374403Y0218590D02*
X0375583Y0217410D01*
X0375387Y0212289D02*
X0373617Y0212289D01*
X0373617Y0208749D01*
X0373617Y0209929D02*
X0375387Y0209929D01*
X0375977Y0210519D01*
X0375977Y0211699D01*
X0375387Y0212289D01*
X0377242Y0211109D02*
X0378422Y0212289D01*
X0378422Y0208749D01*
X0377242Y0208749D02*
X0379602Y0208749D01*
X0380867Y0208749D02*
X0380867Y0209339D01*
X0383227Y0211699D01*
X0383227Y0212289D01*
X0380867Y0212289D01*
X0375977Y0208749D02*
X0374797Y0209929D01*
X0375387Y0204415D02*
X0373617Y0204415D01*
X0373617Y0200875D01*
X0373617Y0202055D02*
X0375387Y0202055D01*
X0375977Y0202645D01*
X0375977Y0203825D01*
X0375387Y0204415D01*
X0377242Y0203235D02*
X0378422Y0204415D01*
X0378422Y0200875D01*
X0377242Y0200875D02*
X0379602Y0200875D01*
X0380867Y0201465D02*
X0381457Y0200875D01*
X0382637Y0200875D01*
X0383227Y0201465D01*
X0383227Y0202055D01*
X0382637Y0202645D01*
X0380867Y0202645D01*
X0380867Y0201465D01*
X0380867Y0202645D02*
X0382047Y0203825D01*
X0383227Y0204415D01*
X0375977Y0200875D02*
X0374797Y0202055D01*
X0374993Y0196541D02*
X0375583Y0195951D01*
X0375583Y0194771D01*
X0374993Y0194181D01*
X0373223Y0194181D01*
X0374403Y0194181D02*
X0375583Y0193001D01*
X0376848Y0193001D02*
X0379208Y0193001D01*
X0378028Y0193001D02*
X0378028Y0196541D01*
X0376848Y0195361D01*
X0374993Y0196541D02*
X0373223Y0196541D01*
X0373223Y0193001D01*
X0373223Y0187486D02*
X0374993Y0187486D01*
X0375583Y0186896D01*
X0375583Y0185716D01*
X0374993Y0185126D01*
X0373223Y0185126D01*
X0374403Y0185126D02*
X0375583Y0183946D01*
X0376848Y0183946D02*
X0379208Y0183946D01*
X0378028Y0183946D02*
X0378028Y0187486D01*
X0376848Y0186306D01*
X0380473Y0185716D02*
X0382833Y0185716D01*
X0382243Y0187486D02*
X0380473Y0185716D01*
X0382243Y0183946D02*
X0382243Y0187486D01*
X0382243Y0193001D02*
X0381063Y0193001D01*
X0380473Y0193591D01*
X0380473Y0194771D02*
X0381653Y0195361D01*
X0382243Y0195361D01*
X0382833Y0194771D01*
X0382833Y0193591D01*
X0382243Y0193001D01*
X0380473Y0194771D02*
X0380473Y0196541D01*
X0382833Y0196541D01*
X0373223Y0187486D02*
X0373223Y0183946D01*
X0373617Y0180005D02*
X0375387Y0180005D01*
X0375977Y0179415D01*
X0375977Y0178235D01*
X0375387Y0177645D01*
X0373617Y0177645D01*
X0373617Y0176465D02*
X0373617Y0180005D01*
X0374797Y0177645D02*
X0375977Y0176465D01*
X0377242Y0176465D02*
X0379602Y0176465D01*
X0378422Y0176465D02*
X0378422Y0180005D01*
X0377242Y0178825D01*
X0380867Y0178825D02*
X0381457Y0178235D01*
X0383227Y0178235D01*
X0383227Y0177055D02*
X0383227Y0179415D01*
X0382637Y0180005D01*
X0381457Y0180005D01*
X0380867Y0179415D01*
X0380867Y0178825D01*
X0380867Y0177055D02*
X0381457Y0176465D01*
X0382637Y0176465D01*
X0383227Y0177055D01*
X0382637Y0171344D02*
X0383227Y0170754D01*
X0380867Y0168394D01*
X0381457Y0167804D01*
X0382637Y0167804D01*
X0383227Y0168394D01*
X0383227Y0170754D01*
X0382637Y0171344D02*
X0381457Y0171344D01*
X0380867Y0170754D01*
X0380867Y0168394D01*
X0379602Y0167804D02*
X0377242Y0167804D01*
X0379602Y0170164D01*
X0379602Y0170754D01*
X0379012Y0171344D01*
X0377832Y0171344D01*
X0377242Y0170754D01*
X0375977Y0170754D02*
X0375977Y0169574D01*
X0375387Y0168984D01*
X0373617Y0168984D01*
X0374797Y0168984D02*
X0375977Y0167804D01*
X0373617Y0167804D02*
X0373617Y0171344D01*
X0375387Y0171344D01*
X0375977Y0170754D01*
X0343679Y0157701D02*
X0343679Y0156521D01*
X0343089Y0155931D01*
X0340729Y0158291D01*
X0343089Y0158291D01*
X0343679Y0157701D01*
X0343089Y0155931D02*
X0340729Y0155931D01*
X0340139Y0156521D01*
X0340139Y0157701D01*
X0340729Y0158291D01*
X0341909Y0154666D02*
X0341909Y0152306D01*
X0340139Y0154076D01*
X0343679Y0154076D01*
X0343679Y0151040D02*
X0342499Y0149860D01*
X0342499Y0150450D02*
X0342499Y0148680D01*
X0343679Y0148680D02*
X0340139Y0148680D01*
X0340139Y0150450D01*
X0340729Y0151040D01*
X0341909Y0151040D01*
X0342499Y0150450D01*
X0342538Y0146174D02*
X0340178Y0146174D01*
X0339588Y0145584D01*
X0339588Y0144404D01*
X0340178Y0143814D01*
X0340768Y0143814D01*
X0341358Y0144404D01*
X0341358Y0146174D01*
X0342538Y0146174D02*
X0343128Y0145584D01*
X0343128Y0144404D01*
X0342538Y0143814D01*
X0342538Y0142549D02*
X0343128Y0141959D01*
X0343128Y0140779D01*
X0342538Y0140189D01*
X0343128Y0138924D02*
X0341948Y0137744D01*
X0341948Y0138334D02*
X0341948Y0136564D01*
X0343128Y0136564D02*
X0339588Y0136564D01*
X0339588Y0138334D01*
X0340178Y0138924D01*
X0341358Y0138924D01*
X0341948Y0138334D01*
X0340178Y0140189D02*
X0339588Y0140779D01*
X0339588Y0141959D01*
X0340178Y0142549D01*
X0340768Y0142549D01*
X0341358Y0141959D01*
X0341948Y0142549D01*
X0342538Y0142549D01*
X0341358Y0141959D02*
X0341358Y0141369D01*
X0324375Y0131344D02*
X0324375Y0127804D01*
X0324965Y0129574D02*
X0322605Y0129574D01*
X0324375Y0131344D01*
X0321340Y0130754D02*
X0321340Y0128394D01*
X0320750Y0127804D01*
X0319570Y0127804D01*
X0318980Y0128394D01*
X0318980Y0130754D01*
X0319570Y0131344D01*
X0320750Y0131344D01*
X0321340Y0130754D01*
X0320160Y0128984D02*
X0321340Y0127804D01*
X0302400Y0128748D02*
X0301810Y0128158D01*
X0300630Y0128158D01*
X0300040Y0128748D01*
X0298775Y0128748D02*
X0298775Y0131108D01*
X0298185Y0131698D01*
X0297005Y0131698D01*
X0296415Y0131108D01*
X0296415Y0128748D01*
X0297005Y0128158D01*
X0298185Y0128158D01*
X0298775Y0128748D01*
X0298775Y0128158D02*
X0297595Y0129338D01*
X0300040Y0131108D02*
X0300630Y0131698D01*
X0301810Y0131698D01*
X0302400Y0131108D01*
X0302400Y0130518D01*
X0301810Y0129928D01*
X0302400Y0129338D01*
X0302400Y0128748D01*
X0301810Y0129928D02*
X0301220Y0129928D01*
X0285871Y0129496D02*
X0285871Y0128906D01*
X0285281Y0128316D01*
X0284101Y0128316D01*
X0283511Y0128906D01*
X0282246Y0128906D02*
X0281656Y0128316D01*
X0280476Y0128316D01*
X0279886Y0128906D01*
X0279886Y0131266D01*
X0280476Y0131856D01*
X0281656Y0131856D01*
X0282246Y0131266D01*
X0283511Y0131266D02*
X0284101Y0131856D01*
X0285281Y0131856D01*
X0285871Y0131266D01*
X0285871Y0130676D01*
X0285281Y0130086D01*
X0285871Y0129496D01*
X0285281Y0130086D02*
X0284691Y0130086D01*
X0284887Y0124769D02*
X0283707Y0124769D01*
X0283117Y0124179D01*
X0281852Y0124179D02*
X0281262Y0124769D01*
X0280082Y0124769D01*
X0279492Y0124179D01*
X0279492Y0121819D01*
X0280082Y0121229D01*
X0281262Y0121229D01*
X0281852Y0121819D01*
X0283117Y0121229D02*
X0285477Y0123589D01*
X0285477Y0124179D01*
X0284887Y0124769D01*
X0285477Y0121229D02*
X0283117Y0121229D01*
X0268088Y0141200D02*
X0264548Y0141200D01*
X0264548Y0142970D01*
X0265138Y0143560D01*
X0266318Y0143560D01*
X0266908Y0142970D01*
X0266908Y0141200D01*
X0266908Y0142380D02*
X0268088Y0143560D01*
X0267498Y0144825D02*
X0268088Y0145415D01*
X0268088Y0146595D01*
X0267498Y0147185D01*
X0266908Y0147185D01*
X0266318Y0146595D01*
X0266318Y0146005D01*
X0266318Y0146595D02*
X0265728Y0147185D01*
X0265138Y0147185D01*
X0264548Y0146595D01*
X0264548Y0145415D01*
X0265138Y0144825D01*
X0264548Y0148450D02*
X0264548Y0150810D01*
X0265138Y0150810D01*
X0267498Y0148450D01*
X0268088Y0148450D01*
X0283203Y0148765D02*
X0283203Y0145225D01*
X0283203Y0146405D02*
X0284973Y0146405D01*
X0285563Y0146995D01*
X0285563Y0148175D01*
X0284973Y0148765D01*
X0283203Y0148765D01*
X0284383Y0146405D02*
X0285563Y0145225D01*
X0286828Y0145815D02*
X0287418Y0145225D01*
X0288598Y0145225D01*
X0289188Y0145815D01*
X0289188Y0146405D01*
X0288598Y0146995D01*
X0288008Y0146995D01*
X0288598Y0146995D02*
X0289188Y0147585D01*
X0289188Y0148175D01*
X0288598Y0148765D01*
X0287418Y0148765D01*
X0286828Y0148175D01*
X0290454Y0148175D02*
X0290454Y0147585D01*
X0291044Y0146995D01*
X0292224Y0146995D01*
X0292814Y0146405D01*
X0292814Y0145815D01*
X0292224Y0145225D01*
X0291044Y0145225D01*
X0290454Y0145815D01*
X0290454Y0146405D01*
X0291044Y0146995D01*
X0292224Y0146995D02*
X0292814Y0147585D01*
X0292814Y0148175D01*
X0292224Y0148765D01*
X0291044Y0148765D01*
X0290454Y0148175D01*
X0277380Y0159792D02*
X0273840Y0159792D01*
X0273840Y0161562D01*
X0274430Y0162152D01*
X0275610Y0162152D01*
X0276200Y0161562D01*
X0276200Y0159792D01*
X0276200Y0160972D02*
X0277380Y0162152D01*
X0275610Y0163417D02*
X0275610Y0165777D01*
X0275020Y0167042D02*
X0273840Y0168222D01*
X0277380Y0168222D01*
X0277380Y0167042D02*
X0277380Y0169402D01*
X0277380Y0165187D02*
X0273840Y0165187D01*
X0275610Y0163417D01*
X0293265Y0168512D02*
X0293855Y0167922D01*
X0295035Y0167922D01*
X0295625Y0168512D01*
X0295625Y0170872D01*
X0295035Y0171462D01*
X0293855Y0171462D01*
X0293265Y0170872D01*
X0293265Y0168512D01*
X0294445Y0169102D02*
X0295625Y0167922D01*
X0296891Y0167922D02*
X0299251Y0167922D01*
X0298071Y0167922D02*
X0298071Y0171462D01*
X0296891Y0170282D01*
X0319768Y0169339D02*
X0320358Y0168749D01*
X0321538Y0168749D01*
X0322128Y0169339D01*
X0322128Y0171699D01*
X0321538Y0172289D01*
X0320358Y0172289D01*
X0319768Y0171699D01*
X0319768Y0169339D01*
X0320948Y0169929D02*
X0322128Y0168749D01*
X0323393Y0168749D02*
X0325753Y0171109D01*
X0325753Y0171699D01*
X0325163Y0172289D01*
X0323983Y0172289D01*
X0323393Y0171699D01*
X0323393Y0168749D02*
X0325753Y0168749D01*
X0372436Y0242213D02*
X0372436Y0245753D01*
X0323407Y0289192D02*
X0322817Y0288602D01*
X0323407Y0289192D02*
X0323407Y0290372D01*
X0322817Y0290962D01*
X0322227Y0290962D01*
X0321637Y0290372D01*
X0321637Y0289192D01*
X0321047Y0288602D01*
X0320457Y0288602D01*
X0319867Y0289192D01*
X0319867Y0290372D01*
X0320457Y0290962D01*
X0319867Y0292227D02*
X0322227Y0292227D01*
X0323407Y0293407D01*
X0322227Y0294587D01*
X0319867Y0294587D01*
X0321047Y0295852D02*
X0319867Y0297032D01*
X0323407Y0297032D01*
X0323407Y0295852D02*
X0323407Y0298212D01*
X0334354Y0299042D02*
X0336124Y0299042D01*
X0336714Y0298452D01*
X0336714Y0297272D01*
X0336124Y0296682D01*
X0334354Y0296682D01*
X0334354Y0300222D01*
X0334354Y0302587D02*
X0334354Y0306127D01*
X0334944Y0304357D02*
X0336714Y0302587D01*
X0337979Y0303177D02*
X0338569Y0302587D01*
X0339749Y0302587D01*
X0340339Y0303177D01*
X0340339Y0304357D01*
X0339749Y0304947D01*
X0338569Y0304947D01*
X0337979Y0304357D01*
X0337979Y0303177D01*
X0337979Y0300222D02*
X0338569Y0300222D01*
X0338569Y0296682D01*
X0337979Y0296682D02*
X0339159Y0296682D01*
X0340396Y0297272D02*
X0340986Y0297862D01*
X0342756Y0297862D01*
X0342756Y0298452D02*
X0342756Y0296682D01*
X0340986Y0296682D01*
X0340396Y0297272D01*
X0340986Y0299042D02*
X0342166Y0299042D01*
X0342756Y0298452D01*
X0344021Y0298452D02*
X0344611Y0299042D01*
X0346381Y0299042D01*
X0346381Y0300222D02*
X0346381Y0296682D01*
X0344611Y0296682D01*
X0344021Y0297272D01*
X0344021Y0298452D01*
X0347646Y0298452D02*
X0348236Y0299042D01*
X0350007Y0299042D01*
X0350007Y0300222D02*
X0350007Y0296682D01*
X0348236Y0296682D01*
X0347646Y0297272D01*
X0347646Y0298452D01*
X0351272Y0299042D02*
X0351272Y0296682D01*
X0353632Y0296682D02*
X0353632Y0298452D01*
X0353042Y0299042D01*
X0351272Y0299042D01*
X0351257Y0302587D02*
X0350667Y0303177D01*
X0350667Y0304357D01*
X0351257Y0304947D01*
X0352437Y0304947D01*
X0353027Y0304357D01*
X0353027Y0303177D01*
X0352437Y0302587D01*
X0351257Y0302587D01*
X0349416Y0304947D02*
X0348827Y0304947D01*
X0347646Y0303767D01*
X0347646Y0302587D02*
X0347646Y0304947D01*
X0346410Y0304947D02*
X0345230Y0304947D01*
X0345820Y0305537D02*
X0345820Y0303177D01*
X0346410Y0302587D01*
X0343965Y0302587D02*
X0343965Y0304357D01*
X0343375Y0304947D01*
X0341605Y0304947D01*
X0341605Y0302587D01*
X0336714Y0306127D02*
X0334354Y0303767D01*
X0337979Y0294316D02*
X0338569Y0294316D01*
X0338569Y0290776D01*
X0337979Y0290776D02*
X0339159Y0290776D01*
X0340396Y0291366D02*
X0340396Y0292546D01*
X0340986Y0293136D01*
X0342756Y0293136D01*
X0342756Y0294316D02*
X0342756Y0290776D01*
X0340986Y0290776D01*
X0340396Y0291366D01*
X0336714Y0291366D02*
X0336124Y0291956D01*
X0334944Y0291956D01*
X0334354Y0292546D01*
X0334944Y0293136D01*
X0336714Y0293136D01*
X0336714Y0291366D02*
X0336124Y0290776D01*
X0334354Y0290776D01*
X0347646Y0290776D02*
X0350007Y0293136D01*
X0350007Y0293726D01*
X0349416Y0294316D01*
X0348236Y0294316D01*
X0347646Y0293726D01*
X0347646Y0290776D02*
X0350007Y0290776D01*
X0351272Y0291366D02*
X0353632Y0293726D01*
X0353632Y0291366D01*
X0353042Y0290776D01*
X0351862Y0290776D01*
X0351272Y0291366D01*
X0351272Y0293726D01*
X0351862Y0294316D01*
X0353042Y0294316D01*
X0353632Y0293726D01*
X0354897Y0293136D02*
X0356077Y0294316D01*
X0356077Y0290776D01*
X0354897Y0290776D02*
X0357257Y0290776D01*
X0358522Y0290776D02*
X0358522Y0291366D01*
X0360882Y0293726D01*
X0360882Y0294316D01*
X0358522Y0294316D01*
X0359702Y0296682D02*
X0360882Y0299042D01*
X0362147Y0299632D02*
X0362737Y0300222D01*
X0363917Y0300222D01*
X0364507Y0299632D01*
X0364507Y0299042D01*
X0362147Y0296682D01*
X0364507Y0296682D01*
X0359702Y0296682D02*
X0358522Y0299042D01*
X0357889Y0302587D02*
X0356709Y0302587D01*
X0357299Y0302587D02*
X0357299Y0306127D01*
X0356709Y0306127D01*
X0354883Y0306127D02*
X0354883Y0302587D01*
X0354293Y0302587D02*
X0355473Y0302587D01*
X0354883Y0306127D02*
X0354293Y0306127D01*
X0359126Y0304357D02*
X0361486Y0304357D01*
X0312796Y0310264D02*
X0312206Y0309674D01*
X0311026Y0309674D01*
X0310436Y0310264D01*
X0310436Y0312624D01*
X0311026Y0313214D01*
X0312206Y0313214D01*
X0312796Y0312624D01*
X0309171Y0313214D02*
X0309171Y0309674D01*
X0306811Y0313214D01*
X0306811Y0309674D01*
X0305546Y0309674D02*
X0303186Y0309674D01*
X0303186Y0313214D01*
X0305546Y0313214D01*
X0304366Y0311444D02*
X0303186Y0311444D01*
X0298295Y0313214D02*
X0295935Y0313214D01*
X0297115Y0313214D02*
X0297115Y0309674D01*
X0294670Y0310264D02*
X0294670Y0312624D01*
X0294080Y0313214D01*
X0292900Y0313214D01*
X0292310Y0312624D01*
X0292310Y0310264D01*
X0292900Y0309674D01*
X0294080Y0309674D01*
X0294670Y0310264D01*
X0291045Y0309674D02*
X0289865Y0310854D01*
X0290455Y0310854D02*
X0288685Y0310854D01*
X0288685Y0309674D02*
X0288685Y0313214D01*
X0290455Y0313214D01*
X0291045Y0312624D01*
X0291045Y0311444D01*
X0290455Y0310854D01*
X0196583Y0159021D02*
X0194223Y0159021D01*
X0192958Y0158431D02*
X0192368Y0159021D01*
X0191188Y0159021D01*
X0190598Y0158431D01*
X0189332Y0158431D02*
X0189332Y0157251D01*
X0188742Y0156661D01*
X0186972Y0156661D01*
X0186972Y0155481D02*
X0186972Y0159021D01*
X0188742Y0159021D01*
X0189332Y0158431D01*
X0188152Y0156661D02*
X0189332Y0155481D01*
X0190598Y0155481D02*
X0192958Y0157841D01*
X0192958Y0158431D01*
X0194223Y0156071D02*
X0194223Y0155481D01*
X0194223Y0156071D02*
X0196583Y0158431D01*
X0196583Y0159021D01*
X0192958Y0155481D02*
X0190598Y0155481D01*
X0191188Y0150753D02*
X0190598Y0150163D01*
X0191188Y0150753D02*
X0192368Y0150753D01*
X0192958Y0150163D01*
X0192958Y0149573D01*
X0190598Y0147213D01*
X0192958Y0147213D01*
X0194223Y0147803D02*
X0194813Y0147213D01*
X0195993Y0147213D01*
X0196583Y0147803D01*
X0196583Y0148983D01*
X0195993Y0149573D01*
X0195403Y0149573D01*
X0194223Y0148983D01*
X0194223Y0150753D01*
X0196583Y0150753D01*
X0196583Y0144454D02*
X0195403Y0143864D01*
X0194223Y0142684D01*
X0195993Y0142684D01*
X0196583Y0142094D01*
X0196583Y0141504D01*
X0195993Y0140914D01*
X0194813Y0140914D01*
X0194223Y0141504D01*
X0194223Y0142684D01*
X0192958Y0143274D02*
X0192958Y0143864D01*
X0192368Y0144454D01*
X0191188Y0144454D01*
X0190598Y0143864D01*
X0189332Y0143864D02*
X0189332Y0142684D01*
X0188742Y0142094D01*
X0186972Y0142094D01*
X0186972Y0140914D02*
X0186972Y0144454D01*
X0188742Y0144454D01*
X0189332Y0143864D01*
X0188152Y0142094D02*
X0189332Y0140914D01*
X0190598Y0140914D02*
X0192958Y0143274D01*
X0192958Y0140914D02*
X0190598Y0140914D01*
X0189332Y0147213D02*
X0188152Y0148393D01*
X0188742Y0148393D02*
X0186972Y0148393D01*
X0186972Y0147213D02*
X0186972Y0150753D01*
X0188742Y0150753D01*
X0189332Y0150163D01*
X0189332Y0148983D01*
X0188742Y0148393D01*
X0205036Y0130716D02*
X0205626Y0130716D01*
X0206216Y0130126D01*
X0206806Y0130716D01*
X0207396Y0130716D01*
X0207986Y0130126D01*
X0207986Y0128946D01*
X0207396Y0128356D01*
X0207986Y0127091D02*
X0207986Y0124731D01*
X0205626Y0127091D01*
X0205036Y0127091D01*
X0204446Y0126501D01*
X0204446Y0125321D01*
X0205036Y0124731D01*
X0205036Y0123466D02*
X0206216Y0123466D01*
X0206806Y0122876D01*
X0206806Y0121106D01*
X0206806Y0122286D02*
X0207986Y0123466D01*
X0207986Y0121106D02*
X0204446Y0121106D01*
X0204446Y0122876D01*
X0205036Y0123466D01*
X0205036Y0128356D02*
X0204446Y0128946D01*
X0204446Y0130126D01*
X0205036Y0130716D01*
X0206216Y0130126D02*
X0206216Y0129536D01*
X0202882Y0112958D02*
X0201702Y0112368D01*
X0200522Y0111188D01*
X0202292Y0111188D01*
X0202882Y0110598D01*
X0202882Y0110008D01*
X0202292Y0109418D01*
X0201112Y0109418D01*
X0200522Y0110008D01*
X0200522Y0111188D01*
X0199257Y0111188D02*
X0198667Y0111778D01*
X0198077Y0111778D01*
X0196897Y0111188D01*
X0196897Y0112958D01*
X0199257Y0112958D01*
X0199257Y0111188D02*
X0199257Y0110008D01*
X0198667Y0109418D01*
X0197487Y0109418D01*
X0196897Y0110008D01*
X0195632Y0109418D02*
X0194452Y0110598D01*
X0195042Y0110598D02*
X0193272Y0110598D01*
X0193272Y0109418D02*
X0193272Y0112958D01*
X0195042Y0112958D01*
X0195632Y0112368D01*
X0195632Y0111188D01*
X0195042Y0110598D01*
X0204248Y0099537D02*
X0203658Y0098947D01*
X0203658Y0097767D01*
X0204248Y0097177D01*
X0204248Y0095911D02*
X0203658Y0095321D01*
X0203658Y0094141D01*
X0204248Y0093551D01*
X0206608Y0093551D01*
X0207198Y0094141D01*
X0207198Y0095321D01*
X0206608Y0095911D01*
X0207198Y0097177D02*
X0204838Y0099537D01*
X0204248Y0099537D01*
X0207198Y0099537D02*
X0207198Y0097177D01*
X0207198Y0092315D02*
X0207198Y0091135D01*
X0207198Y0091725D02*
X0203658Y0091725D01*
X0203658Y0091135D02*
X0203658Y0092315D01*
X0221128Y0079627D02*
X0222308Y0079627D01*
X0221718Y0079627D02*
X0221718Y0076087D01*
X0221128Y0076087D02*
X0222308Y0076087D01*
X0223545Y0076677D02*
X0224135Y0076087D01*
X0225315Y0076087D01*
X0225905Y0076677D01*
X0227170Y0076677D02*
X0227760Y0076087D01*
X0228940Y0076087D01*
X0229530Y0076677D01*
X0229530Y0077267D01*
X0228940Y0077857D01*
X0228350Y0077857D01*
X0228940Y0077857D02*
X0229530Y0078447D01*
X0229530Y0079037D01*
X0228940Y0079627D01*
X0227760Y0079627D01*
X0227170Y0079037D01*
X0225905Y0079037D02*
X0225315Y0079627D01*
X0224135Y0079627D01*
X0223545Y0079037D01*
X0223545Y0076677D01*
X0235001Y0077414D02*
X0235001Y0075054D01*
X0235001Y0073199D02*
X0236771Y0071429D01*
X0236771Y0073789D01*
X0237951Y0075054D02*
X0238541Y0075054D01*
X0237951Y0075054D02*
X0235591Y0077414D01*
X0235001Y0077414D01*
X0235001Y0073199D02*
X0238541Y0073199D01*
X0238541Y0070164D02*
X0237361Y0068984D01*
X0237361Y0069574D02*
X0237361Y0067804D01*
X0238541Y0067804D02*
X0235001Y0067804D01*
X0235001Y0069574D01*
X0235591Y0070164D01*
X0236771Y0070164D01*
X0237361Y0069574D01*
X0236939Y0064927D02*
X0238119Y0064927D01*
X0238709Y0064337D01*
X0238709Y0063747D01*
X0238119Y0063157D01*
X0236939Y0063157D01*
X0236349Y0063747D01*
X0236349Y0064337D01*
X0236939Y0064927D01*
X0236939Y0063157D02*
X0236349Y0062567D01*
X0236349Y0061977D01*
X0236939Y0061387D01*
X0238119Y0061387D01*
X0238709Y0061977D01*
X0238709Y0062567D01*
X0238119Y0063157D01*
X0235084Y0063157D02*
X0232724Y0063157D01*
X0234494Y0064927D01*
X0234494Y0061387D01*
X0231458Y0061387D02*
X0230278Y0062567D01*
X0230868Y0062567D02*
X0229098Y0062567D01*
X0229098Y0061387D02*
X0229098Y0064927D01*
X0230868Y0064927D01*
X0231458Y0064337D01*
X0231458Y0063157D01*
X0230868Y0062567D01*
X0241697Y0063352D02*
X0241697Y0059812D01*
X0241697Y0060992D02*
X0243467Y0060992D01*
X0244057Y0061582D01*
X0244057Y0062762D01*
X0243467Y0063352D01*
X0241697Y0063352D01*
X0242877Y0060992D02*
X0244057Y0059812D01*
X0245322Y0061582D02*
X0247682Y0061582D01*
X0248947Y0061582D02*
X0250717Y0061582D01*
X0251307Y0060992D01*
X0251307Y0060402D01*
X0250717Y0059812D01*
X0249537Y0059812D01*
X0248947Y0060402D01*
X0248947Y0061582D01*
X0250127Y0062762D01*
X0251307Y0063352D01*
X0247092Y0063352D02*
X0247092Y0059812D01*
X0245322Y0061582D02*
X0247092Y0063352D01*
X0243661Y0045360D02*
X0242481Y0045360D01*
X0241891Y0044770D01*
X0241891Y0044180D01*
X0242481Y0043590D01*
X0244251Y0043590D01*
X0244251Y0042410D02*
X0244251Y0044770D01*
X0243661Y0045360D01*
X0244251Y0042410D02*
X0243661Y0041820D01*
X0242481Y0041820D01*
X0241891Y0042410D01*
X0240625Y0043590D02*
X0238265Y0043590D01*
X0240035Y0045360D01*
X0240035Y0041820D01*
X0237000Y0041820D02*
X0235820Y0043000D01*
X0236410Y0043000D02*
X0234640Y0043000D01*
X0234640Y0041820D02*
X0234640Y0045360D01*
X0236410Y0045360D01*
X0237000Y0044770D01*
X0237000Y0043590D01*
X0236410Y0043000D01*
X0216730Y0046668D02*
X0216730Y0047848D01*
X0216140Y0048438D01*
X0216730Y0049703D02*
X0216730Y0052063D01*
X0216730Y0050883D02*
X0213190Y0050883D01*
X0214370Y0049703D01*
X0213780Y0048438D02*
X0213190Y0047848D01*
X0213190Y0046668D01*
X0213780Y0046078D01*
X0216140Y0046078D01*
X0216730Y0046668D01*
X0216140Y0053328D02*
X0216730Y0053918D01*
X0216730Y0055098D01*
X0216140Y0055688D01*
X0215550Y0055688D01*
X0214960Y0055098D01*
X0214960Y0054508D01*
X0214960Y0055098D02*
X0214370Y0055688D01*
X0213780Y0055688D01*
X0213190Y0055098D01*
X0213190Y0053918D01*
X0213780Y0053328D01*
X0208313Y0054282D02*
X0207723Y0053692D01*
X0208313Y0054282D02*
X0208313Y0055462D01*
X0207723Y0056052D01*
X0207133Y0056052D01*
X0206543Y0055462D01*
X0206543Y0054872D01*
X0206543Y0055462D02*
X0205953Y0056052D01*
X0205363Y0056052D01*
X0204773Y0055462D01*
X0204773Y0054282D01*
X0205363Y0053692D01*
X0205363Y0052427D02*
X0205953Y0052427D01*
X0206543Y0051837D01*
X0207133Y0052427D01*
X0207723Y0052427D01*
X0208313Y0051837D01*
X0208313Y0050657D01*
X0207723Y0050067D01*
X0208313Y0048802D02*
X0207133Y0047622D01*
X0207133Y0048212D02*
X0207133Y0046442D01*
X0208313Y0046442D02*
X0204773Y0046442D01*
X0204773Y0048212D01*
X0205363Y0048802D01*
X0206543Y0048802D01*
X0207133Y0048212D01*
X0205363Y0050067D02*
X0204773Y0050657D01*
X0204773Y0051837D01*
X0205363Y0052427D01*
X0206543Y0051837D02*
X0206543Y0051247D01*
X0199777Y0051837D02*
X0199777Y0050657D01*
X0199187Y0050067D01*
X0199777Y0048802D02*
X0198597Y0047622D01*
X0198597Y0048212D02*
X0198597Y0046442D01*
X0199777Y0046442D02*
X0196237Y0046442D01*
X0196237Y0048212D01*
X0196827Y0048802D01*
X0198007Y0048802D01*
X0198597Y0048212D01*
X0196827Y0050067D02*
X0196237Y0050657D01*
X0196237Y0051837D01*
X0196827Y0052427D01*
X0197417Y0052427D01*
X0198007Y0051837D01*
X0198597Y0052427D01*
X0199187Y0052427D01*
X0199777Y0051837D01*
X0198007Y0051837D02*
X0198007Y0051247D01*
X0196827Y0053692D02*
X0196237Y0054282D01*
X0196237Y0055462D01*
X0196827Y0056052D01*
X0197417Y0056052D01*
X0199777Y0053692D01*
X0199777Y0056052D01*
X0191911Y0055688D02*
X0191911Y0053328D01*
X0189551Y0055688D01*
X0188961Y0055688D01*
X0188371Y0055098D01*
X0188371Y0053918D01*
X0188961Y0053328D01*
X0188371Y0050883D02*
X0191911Y0050883D01*
X0191911Y0049703D02*
X0191911Y0052063D01*
X0189551Y0049703D02*
X0188371Y0050883D01*
X0188961Y0048438D02*
X0188371Y0047848D01*
X0188371Y0046668D01*
X0188961Y0046078D01*
X0191321Y0046078D01*
X0191911Y0046668D01*
X0191911Y0047848D01*
X0191321Y0048438D01*
X0182706Y0049589D02*
X0181526Y0048409D01*
X0181526Y0048999D02*
X0181526Y0047229D01*
X0182706Y0047229D02*
X0179166Y0047229D01*
X0179166Y0048999D01*
X0179756Y0049589D01*
X0180936Y0049589D01*
X0181526Y0048999D01*
X0182116Y0050854D02*
X0182706Y0051444D01*
X0182706Y0052624D01*
X0182116Y0053214D01*
X0181526Y0053214D01*
X0180936Y0052624D01*
X0180936Y0052034D01*
X0180936Y0052624D02*
X0180346Y0053214D01*
X0179756Y0053214D01*
X0179166Y0052624D01*
X0179166Y0051444D01*
X0179756Y0050854D01*
X0180346Y0054479D02*
X0179166Y0055659D01*
X0182706Y0055659D01*
X0182706Y0054479D02*
X0182706Y0056839D01*
X0174565Y0056249D02*
X0174565Y0055069D01*
X0173975Y0054479D01*
X0171615Y0056839D01*
X0173975Y0056839D01*
X0174565Y0056249D01*
X0173975Y0054479D02*
X0171615Y0054479D01*
X0171025Y0055069D01*
X0171025Y0056249D01*
X0171615Y0056839D01*
X0171615Y0053214D02*
X0172205Y0053214D01*
X0172795Y0052624D01*
X0173385Y0053214D01*
X0173975Y0053214D01*
X0174565Y0052624D01*
X0174565Y0051444D01*
X0173975Y0050854D01*
X0174565Y0049589D02*
X0173385Y0048409D01*
X0173385Y0048999D02*
X0173385Y0047229D01*
X0174565Y0047229D02*
X0171025Y0047229D01*
X0171025Y0048999D01*
X0171615Y0049589D01*
X0172795Y0049589D01*
X0173385Y0048999D01*
X0171615Y0050854D02*
X0171025Y0051444D01*
X0171025Y0052624D01*
X0171615Y0053214D01*
X0172795Y0052624D02*
X0172795Y0052034D01*
X0144542Y0064134D02*
X0143952Y0063544D01*
X0142772Y0063544D01*
X0142182Y0064134D01*
X0144542Y0066494D01*
X0144542Y0064134D01*
X0142182Y0064134D02*
X0142182Y0066494D01*
X0142772Y0067084D01*
X0143952Y0067084D01*
X0144542Y0066494D01*
X0140917Y0066494D02*
X0140327Y0067084D01*
X0139147Y0067084D01*
X0138557Y0066494D01*
X0137292Y0066494D02*
X0136702Y0067084D01*
X0135522Y0067084D01*
X0134932Y0066494D01*
X0134932Y0064134D01*
X0135522Y0063544D01*
X0136702Y0063544D01*
X0137292Y0064134D01*
X0138557Y0063544D02*
X0140917Y0065904D01*
X0140917Y0066494D01*
X0140917Y0063544D02*
X0138557Y0063544D01*
X0138443Y0072749D02*
X0137263Y0073929D01*
X0137853Y0073929D02*
X0136083Y0073929D01*
X0136083Y0072749D02*
X0136083Y0076289D01*
X0137853Y0076289D01*
X0138443Y0075699D01*
X0138443Y0074519D01*
X0137853Y0073929D01*
X0139708Y0073339D02*
X0140298Y0072749D01*
X0141478Y0072749D01*
X0142068Y0073339D01*
X0142068Y0073929D01*
X0141478Y0074519D01*
X0140888Y0074519D01*
X0141478Y0074519D02*
X0142068Y0075109D01*
X0142068Y0075699D01*
X0141478Y0076289D01*
X0140298Y0076289D01*
X0139708Y0075699D01*
X0143333Y0076289D02*
X0143333Y0074519D01*
X0144513Y0075109D01*
X0145103Y0075109D01*
X0145693Y0074519D01*
X0145693Y0073339D01*
X0145103Y0072749D01*
X0143923Y0072749D01*
X0143333Y0073339D01*
X0143333Y0076289D02*
X0145693Y0076289D01*
X0155135Y0023182D02*
X0155135Y0020822D01*
X0156905Y0020822D01*
X0156315Y0022002D01*
X0156315Y0022592D01*
X0156905Y0023182D01*
X0158085Y0023182D01*
X0158675Y0022592D01*
X0158675Y0021412D01*
X0158085Y0020822D01*
X0157495Y0019557D02*
X0155135Y0019557D01*
X0157495Y0019557D02*
X0158675Y0018377D01*
X0157495Y0017197D01*
X0155135Y0017197D01*
X0155725Y0015932D02*
X0155135Y0015342D01*
X0155135Y0014162D01*
X0155725Y0013572D01*
X0156315Y0013572D01*
X0156905Y0014162D01*
X0156905Y0015342D01*
X0157495Y0015932D01*
X0158085Y0015932D01*
X0158675Y0015342D01*
X0158675Y0014162D01*
X0158085Y0013572D01*
X0146553Y0013297D02*
X0143013Y0013297D01*
X0143603Y0014562D02*
X0145963Y0014562D01*
X0146553Y0015152D01*
X0146553Y0016332D01*
X0145963Y0016922D01*
X0143603Y0016922D01*
X0143013Y0016332D01*
X0143013Y0015152D01*
X0143603Y0014562D01*
X0144783Y0013297D02*
X0144783Y0010937D01*
X0144783Y0009672D02*
X0145373Y0009082D01*
X0145373Y0007312D01*
X0146553Y0007312D02*
X0143013Y0007312D01*
X0143013Y0009082D01*
X0143603Y0009672D01*
X0144783Y0009672D01*
X0146553Y0010937D02*
X0143013Y0010937D01*
X0195769Y0010937D02*
X0195769Y0012707D01*
X0196359Y0013297D01*
X0197539Y0013297D01*
X0198129Y0012707D01*
X0198129Y0010937D01*
X0199309Y0010937D02*
X0195769Y0010937D01*
X0196359Y0009672D02*
X0197539Y0009672D01*
X0198129Y0009082D01*
X0198129Y0007312D01*
X0199309Y0007312D02*
X0195769Y0007312D01*
X0195769Y0009082D01*
X0196359Y0009672D01*
X0198129Y0012117D02*
X0199309Y0013297D01*
X0199309Y0014562D02*
X0199309Y0016922D01*
X0197539Y0015742D02*
X0197539Y0014562D01*
X0195769Y0014562D02*
X0199309Y0014562D01*
X0195769Y0014562D02*
X0195769Y0016922D01*
X0209465Y0016409D02*
X0211826Y0016409D01*
X0213006Y0017589D01*
X0211826Y0018769D01*
X0209465Y0018769D01*
X0210055Y0020035D02*
X0210645Y0020035D01*
X0211236Y0020625D01*
X0211236Y0022395D01*
X0212416Y0022395D02*
X0210055Y0022395D01*
X0209465Y0021805D01*
X0209465Y0020625D01*
X0210055Y0020035D01*
X0212416Y0020035D02*
X0213006Y0020625D01*
X0213006Y0021805D01*
X0212416Y0022395D01*
X0212416Y0015144D02*
X0213006Y0014554D01*
X0213006Y0013374D01*
X0212416Y0012784D01*
X0211236Y0013374D02*
X0211236Y0014554D01*
X0211826Y0015144D01*
X0212416Y0015144D01*
X0211236Y0013374D02*
X0210645Y0012784D01*
X0210055Y0012784D01*
X0209465Y0013374D01*
X0209465Y0014554D01*
X0210055Y0015144D01*
X0249312Y0015349D02*
X0252852Y0015349D01*
X0252852Y0017709D01*
X0252262Y0014084D02*
X0249902Y0014084D01*
X0249312Y0013494D01*
X0249312Y0012314D01*
X0249902Y0011724D01*
X0252262Y0011724D01*
X0252852Y0012314D01*
X0252852Y0013494D01*
X0252262Y0014084D01*
X0251672Y0010459D02*
X0249312Y0010459D01*
X0249312Y0008099D02*
X0251672Y0008099D01*
X0252852Y0009279D01*
X0251672Y0010459D01*
X0260647Y0014752D02*
X0260647Y0015932D01*
X0261237Y0016522D01*
X0262417Y0015932D02*
X0263007Y0016522D01*
X0263597Y0016522D01*
X0264187Y0015932D01*
X0264187Y0014752D01*
X0263597Y0014162D01*
X0262417Y0014752D02*
X0262417Y0015932D01*
X0262417Y0014752D02*
X0261827Y0014162D01*
X0261237Y0014162D01*
X0260647Y0014752D01*
X0260647Y0017787D02*
X0263007Y0017787D01*
X0264187Y0018967D01*
X0263007Y0020147D01*
X0260647Y0020147D01*
X0262417Y0021412D02*
X0262417Y0023182D01*
X0263007Y0023772D01*
X0263597Y0023772D01*
X0264187Y0023182D01*
X0264187Y0022002D01*
X0263597Y0021412D01*
X0262417Y0021412D01*
X0261237Y0022592D01*
X0260647Y0023772D01*
X0358367Y0023863D02*
X0361907Y0023863D01*
X0361907Y0026223D01*
X0360137Y0025043D02*
X0360137Y0023863D01*
X0358957Y0022598D02*
X0358367Y0022008D01*
X0358367Y0020828D01*
X0358957Y0020238D01*
X0361317Y0020238D01*
X0361907Y0020828D01*
X0361907Y0022008D01*
X0361317Y0022598D01*
X0364273Y0022008D02*
X0364273Y0020238D01*
X0367813Y0020238D01*
X0367813Y0022008D01*
X0367223Y0022598D01*
X0364863Y0022598D01*
X0364273Y0022008D01*
X0364863Y0018972D02*
X0366043Y0018972D01*
X0366633Y0018382D01*
X0366633Y0016612D01*
X0367813Y0016612D02*
X0364273Y0016612D01*
X0364273Y0018382D01*
X0364863Y0018972D01*
X0366633Y0017792D02*
X0367813Y0018972D01*
X0367813Y0015347D02*
X0365453Y0015347D01*
X0364273Y0014167D01*
X0365453Y0012987D01*
X0367813Y0012987D01*
X0367223Y0011722D02*
X0364863Y0011722D01*
X0364273Y0011132D01*
X0364273Y0009952D01*
X0364863Y0009362D01*
X0367223Y0009362D01*
X0367813Y0009952D01*
X0367813Y0011132D01*
X0367223Y0011722D01*
X0366043Y0012987D02*
X0366043Y0015347D01*
X0361907Y0014757D02*
X0361317Y0015347D01*
X0358367Y0015347D01*
X0358367Y0016612D02*
X0358367Y0018382D01*
X0358957Y0018972D01*
X0360137Y0018972D01*
X0360727Y0018382D01*
X0360727Y0016612D01*
X0361907Y0016612D02*
X0358367Y0016612D01*
X0360727Y0017792D02*
X0361907Y0018972D01*
X0361907Y0014757D02*
X0361907Y0013577D01*
X0361317Y0012987D01*
X0358367Y0012987D01*
X0358957Y0011722D02*
X0358367Y0011132D01*
X0358367Y0009952D01*
X0358957Y0009362D01*
X0361317Y0009362D01*
X0361907Y0009952D01*
X0361907Y0011132D01*
X0361317Y0011722D01*
X0358957Y0011722D01*
X0358957Y0008097D02*
X0358367Y0007507D01*
X0358367Y0006327D01*
X0358957Y0005737D01*
X0359547Y0005737D01*
X0360137Y0006327D01*
X0360137Y0007507D01*
X0360727Y0008097D01*
X0361317Y0008097D01*
X0361907Y0007507D01*
X0361907Y0006327D01*
X0361317Y0005737D01*
X0364273Y0005737D02*
X0364273Y0007507D01*
X0364863Y0008097D01*
X0365453Y0008097D01*
X0366043Y0007507D01*
X0366043Y0005737D01*
X0367813Y0005737D02*
X0364273Y0005737D01*
X0366043Y0007507D02*
X0366633Y0008097D01*
X0367223Y0008097D01*
X0367813Y0007507D01*
X0367813Y0005737D01*
X0358367Y0023863D02*
X0358367Y0026223D01*
D12*
X0362894Y0270793D03*
X0353052Y0270793D03*
X0343209Y0270793D03*
X0333367Y0270793D03*
X0323524Y0270793D03*
X0313682Y0270793D03*
X0303839Y0270793D03*
X0293997Y0270793D03*
X0284154Y0270793D03*
X0274312Y0270793D03*
X0264469Y0270793D03*
X0017324Y0207506D03*
X0018111Y0199238D03*
D13*
X0016812Y0184395D02*
X0014312Y0181895D01*
X0014312Y0176895D01*
X0016812Y0174395D01*
X0014312Y0171895D01*
X0014312Y0166895D01*
X0016812Y0164395D01*
X0014312Y0161895D01*
X0014312Y0156895D01*
X0016812Y0154395D01*
X0014312Y0151895D01*
X0014312Y0146895D01*
X0016812Y0144395D01*
X0014312Y0141895D01*
X0014312Y0136895D01*
X0016812Y0134395D01*
X0014312Y0131895D01*
X0014312Y0126895D01*
X0016812Y0124395D01*
X0014312Y0121895D01*
X0014312Y0116895D01*
X0016812Y0114395D01*
X0014312Y0111895D01*
X0014312Y0106895D01*
X0016812Y0104395D01*
X0014312Y0101895D01*
X0014312Y0096895D01*
X0016812Y0094395D01*
X0031812Y0094395D01*
X0034312Y0096895D01*
X0034312Y0101895D01*
X0031812Y0104395D01*
X0034312Y0106895D01*
X0034312Y0111895D01*
X0031812Y0114395D01*
X0034312Y0116895D01*
X0034312Y0121895D01*
X0031812Y0124395D01*
X0034312Y0126895D01*
X0034312Y0131895D01*
X0031812Y0134395D01*
X0034312Y0136895D01*
X0034312Y0141895D01*
X0031812Y0144395D01*
X0034312Y0146895D01*
X0034312Y0151895D01*
X0031812Y0154395D01*
X0034312Y0156895D01*
X0034312Y0161895D01*
X0031812Y0164395D01*
X0034312Y0166895D01*
X0034312Y0171895D01*
X0031812Y0174395D01*
X0034312Y0176895D01*
X0034312Y0181895D01*
X0031812Y0184395D01*
X0016812Y0184395D01*
X0016812Y0222663D02*
X0014312Y0225163D01*
X0014312Y0230163D01*
X0016812Y0232663D01*
X0014312Y0235163D01*
X0014312Y0240163D01*
X0016812Y0242663D01*
X0014312Y0245163D01*
X0014312Y0250163D01*
X0016812Y0252663D01*
X0014312Y0255163D01*
X0014312Y0260163D01*
X0016812Y0262663D01*
X0014312Y0265163D01*
X0014312Y0270163D01*
X0016812Y0272663D01*
X0031812Y0272663D01*
X0034312Y0270163D01*
X0034312Y0265163D01*
X0031812Y0262663D01*
X0034312Y0260163D01*
X0034312Y0255163D01*
X0031812Y0252663D01*
X0034312Y0250163D01*
X0034312Y0245163D01*
X0031812Y0242663D01*
X0034312Y0240163D01*
X0034312Y0235163D01*
X0031812Y0232663D01*
X0034312Y0230163D01*
X0034312Y0225163D01*
X0031812Y0222663D01*
X0016812Y0222663D01*
X0089666Y0229139D02*
X0092166Y0226639D01*
X0097166Y0226639D01*
X0099666Y0229139D01*
X0102166Y0226639D01*
X0107166Y0226639D01*
X0109666Y0229139D01*
X0112166Y0226639D01*
X0117166Y0226639D01*
X0119666Y0229139D01*
X0122166Y0226639D01*
X0127166Y0226639D01*
X0129666Y0229139D01*
X0132166Y0226639D01*
X0137166Y0226639D01*
X0139666Y0229139D01*
X0142166Y0226639D01*
X0147166Y0226639D01*
X0149666Y0229139D01*
X0152166Y0226639D01*
X0157166Y0226639D01*
X0159666Y0229139D01*
X0162166Y0226639D01*
X0167166Y0226639D01*
X0169666Y0229139D01*
X0172166Y0226639D01*
X0177166Y0226639D01*
X0179666Y0229139D01*
X0182166Y0226639D01*
X0187166Y0226639D01*
X0189666Y0229139D01*
X0192166Y0226639D01*
X0197166Y0226639D01*
X0199666Y0229139D01*
X0202166Y0226639D01*
X0207166Y0226639D01*
X0209666Y0229139D01*
X0212166Y0226639D01*
X0217166Y0226639D01*
X0219666Y0229139D01*
X0222166Y0226639D01*
X0227166Y0226639D01*
X0229666Y0229139D01*
X0232166Y0226639D01*
X0237166Y0226639D01*
X0239666Y0229139D01*
X0242166Y0226639D01*
X0247166Y0226639D01*
X0249666Y0229139D01*
X0252166Y0226639D01*
X0257166Y0226639D01*
X0259666Y0229139D01*
X0262166Y0226639D01*
X0267166Y0226639D01*
X0269666Y0229139D01*
X0272166Y0226639D01*
X0277166Y0226639D01*
X0279666Y0229139D01*
X0282166Y0226639D01*
X0287166Y0226639D01*
X0289666Y0229139D01*
X0289666Y0244139D01*
X0287166Y0246639D01*
X0282166Y0246639D01*
X0279666Y0244139D01*
X0277166Y0246639D01*
X0272166Y0246639D01*
X0269666Y0244139D01*
X0267166Y0246639D01*
X0262166Y0246639D01*
X0259666Y0244139D01*
X0257166Y0246639D01*
X0252166Y0246639D01*
X0249666Y0244139D01*
X0247166Y0246639D01*
X0242166Y0246639D01*
X0239666Y0244139D01*
X0237166Y0246639D01*
X0232166Y0246639D01*
X0229666Y0244139D01*
X0227166Y0246639D01*
X0222166Y0246639D01*
X0219666Y0244139D01*
X0217166Y0246639D01*
X0212166Y0246639D01*
X0209666Y0244139D01*
X0207166Y0246639D01*
X0202166Y0246639D01*
X0199666Y0244139D01*
X0197166Y0246639D01*
X0192166Y0246639D01*
X0189666Y0244139D01*
X0187166Y0246639D01*
X0182166Y0246639D01*
X0179666Y0244139D01*
X0177166Y0246639D01*
X0172166Y0246639D01*
X0169666Y0244139D01*
X0167166Y0246639D01*
X0162166Y0246639D01*
X0159666Y0244139D01*
X0157166Y0246639D01*
X0152166Y0246639D01*
X0149666Y0244139D01*
X0147166Y0246639D01*
X0142166Y0246639D01*
X0139666Y0244139D01*
X0137166Y0246639D01*
X0132166Y0246639D01*
X0129666Y0244139D01*
X0127166Y0246639D01*
X0122166Y0246639D01*
X0119666Y0244139D01*
X0117166Y0246639D01*
X0112166Y0246639D01*
X0109666Y0244139D01*
X0107166Y0246639D01*
X0102166Y0246639D01*
X0099666Y0244139D01*
X0097166Y0246639D01*
X0092166Y0246639D01*
X0089666Y0244139D01*
X0089666Y0229139D01*
X0080119Y0287663D02*
X0075119Y0287663D01*
X0072619Y0290163D01*
X0070119Y0287663D01*
X0065119Y0287663D01*
X0062619Y0290163D01*
X0060119Y0287663D01*
X0055119Y0287663D01*
X0052619Y0290163D01*
X0052619Y0305163D01*
X0055119Y0307663D01*
X0060119Y0307663D01*
X0062619Y0305163D01*
X0065119Y0307663D01*
X0070119Y0307663D01*
X0072619Y0305163D01*
X0075119Y0307663D01*
X0080119Y0307663D01*
X0082619Y0305163D01*
X0082619Y0290163D01*
X0080119Y0287663D01*
X0105611Y0290163D02*
X0105611Y0305163D01*
X0108111Y0307663D01*
X0113111Y0307663D01*
X0115611Y0305163D01*
X0118111Y0307663D01*
X0123111Y0307663D01*
X0125611Y0305163D01*
X0128111Y0307663D01*
X0133111Y0307663D01*
X0135611Y0305163D01*
X0138111Y0307663D01*
X0143111Y0307663D01*
X0145611Y0305163D01*
X0148111Y0307663D01*
X0153111Y0307663D01*
X0155611Y0305163D01*
X0155611Y0290163D01*
X0153111Y0287663D01*
X0148111Y0287663D01*
X0145611Y0290163D01*
X0143111Y0287663D01*
X0138111Y0287663D01*
X0135611Y0290163D01*
X0133111Y0287663D01*
X0128111Y0287663D01*
X0125611Y0290163D01*
X0123111Y0287663D01*
X0118111Y0287663D01*
X0115611Y0290163D01*
X0113111Y0287663D01*
X0108111Y0287663D01*
X0105611Y0290163D01*
X0178603Y0290163D02*
X0178603Y0305163D01*
X0181103Y0307663D01*
X0186103Y0307663D01*
X0188603Y0305163D01*
X0191103Y0307663D01*
X0196103Y0307663D01*
X0198603Y0305163D01*
X0201103Y0307663D01*
X0206103Y0307663D01*
X0208603Y0305163D01*
X0208603Y0290163D01*
X0206103Y0287663D01*
X0201103Y0287663D01*
X0198603Y0290163D01*
X0196103Y0287663D01*
X0191103Y0287663D01*
X0188603Y0290163D01*
X0186103Y0287663D01*
X0181103Y0287663D01*
X0178603Y0290163D01*
X0232146Y0290163D02*
X0234646Y0287663D01*
X0239646Y0287663D01*
X0242146Y0290163D01*
X0244646Y0287663D01*
X0249646Y0287663D01*
X0252146Y0290163D01*
X0254646Y0287663D01*
X0259646Y0287663D01*
X0262146Y0290163D01*
X0262146Y0305163D01*
X0259646Y0307663D01*
X0254646Y0307663D01*
X0252146Y0305163D01*
X0249646Y0307663D01*
X0244646Y0307663D01*
X0242146Y0305163D01*
X0239646Y0307663D01*
X0234646Y0307663D01*
X0232146Y0305163D01*
X0232146Y0290163D01*
X0285296Y0290163D02*
X0285296Y0305163D01*
X0287796Y0307663D01*
X0292796Y0307663D01*
X0295296Y0305163D01*
X0297796Y0307663D01*
X0302796Y0307663D01*
X0305296Y0305163D01*
X0307796Y0307663D01*
X0312796Y0307663D01*
X0315296Y0305163D01*
X0315296Y0290163D01*
X0312796Y0287663D01*
X0307796Y0287663D01*
X0305296Y0290163D01*
X0302796Y0287663D01*
X0297796Y0287663D01*
X0295296Y0290163D01*
X0292796Y0287663D01*
X0287796Y0287663D01*
X0285296Y0290163D01*
X0146229Y0162438D02*
X0146229Y0150038D01*
X0146227Y0149962D01*
X0146221Y0149886D01*
X0146212Y0149811D01*
X0146198Y0149736D01*
X0146181Y0149662D01*
X0146160Y0149589D01*
X0146136Y0149517D01*
X0146107Y0149446D01*
X0146076Y0149377D01*
X0146041Y0149310D01*
X0146002Y0149245D01*
X0145960Y0149181D01*
X0145915Y0149120D01*
X0145867Y0149061D01*
X0145816Y0149005D01*
X0145762Y0148951D01*
X0145706Y0148900D01*
X0145647Y0148852D01*
X0145586Y0148807D01*
X0145522Y0148765D01*
X0145457Y0148726D01*
X0145390Y0148691D01*
X0145321Y0148660D01*
X0145250Y0148631D01*
X0145178Y0148607D01*
X0145105Y0148586D01*
X0145031Y0148569D01*
X0144956Y0148555D01*
X0144881Y0148546D01*
X0144805Y0148540D01*
X0144729Y0148538D01*
X0146229Y0162438D02*
X0146227Y0162514D01*
X0146221Y0162590D01*
X0146212Y0162665D01*
X0146198Y0162740D01*
X0146181Y0162814D01*
X0146160Y0162887D01*
X0146136Y0162959D01*
X0146107Y0163030D01*
X0146076Y0163099D01*
X0146041Y0163166D01*
X0146002Y0163231D01*
X0145960Y0163295D01*
X0145915Y0163356D01*
X0145867Y0163415D01*
X0145816Y0163471D01*
X0145762Y0163525D01*
X0145706Y0163576D01*
X0145647Y0163624D01*
X0145586Y0163669D01*
X0145522Y0163711D01*
X0145457Y0163750D01*
X0145390Y0163785D01*
X0145321Y0163816D01*
X0145250Y0163845D01*
X0145178Y0163869D01*
X0145105Y0163890D01*
X0145031Y0163907D01*
X0144956Y0163921D01*
X0144881Y0163930D01*
X0144805Y0163936D01*
X0144729Y0163938D01*
X0112729Y0163938D02*
X0112653Y0163936D01*
X0112577Y0163930D01*
X0112502Y0163921D01*
X0112427Y0163907D01*
X0112353Y0163890D01*
X0112280Y0163869D01*
X0112208Y0163845D01*
X0112137Y0163816D01*
X0112068Y0163785D01*
X0112001Y0163750D01*
X0111936Y0163711D01*
X0111872Y0163669D01*
X0111811Y0163624D01*
X0111752Y0163576D01*
X0111696Y0163525D01*
X0111642Y0163471D01*
X0111591Y0163415D01*
X0111543Y0163356D01*
X0111498Y0163295D01*
X0111456Y0163231D01*
X0111417Y0163166D01*
X0111382Y0163099D01*
X0111351Y0163030D01*
X0111322Y0162959D01*
X0111298Y0162887D01*
X0111277Y0162814D01*
X0111260Y0162740D01*
X0111246Y0162665D01*
X0111237Y0162590D01*
X0111231Y0162514D01*
X0111229Y0162438D01*
X0111229Y0158238D01*
X0111229Y0154238D01*
X0111229Y0150038D01*
X0111231Y0149962D01*
X0111237Y0149886D01*
X0111246Y0149811D01*
X0111260Y0149736D01*
X0111277Y0149662D01*
X0111298Y0149589D01*
X0111322Y0149517D01*
X0111351Y0149446D01*
X0111382Y0149377D01*
X0111417Y0149310D01*
X0111456Y0149245D01*
X0111498Y0149181D01*
X0111543Y0149120D01*
X0111591Y0149061D01*
X0111642Y0149005D01*
X0111696Y0148951D01*
X0111752Y0148900D01*
X0111811Y0148852D01*
X0111872Y0148807D01*
X0111936Y0148765D01*
X0112001Y0148726D01*
X0112068Y0148691D01*
X0112137Y0148660D01*
X0112208Y0148631D01*
X0112280Y0148607D01*
X0112353Y0148586D01*
X0112427Y0148569D01*
X0112502Y0148555D01*
X0112577Y0148546D01*
X0112653Y0148540D01*
X0112729Y0148538D01*
X0111229Y0154238D02*
X0111317Y0154240D01*
X0111406Y0154246D01*
X0111494Y0154256D01*
X0111581Y0154269D01*
X0111668Y0154287D01*
X0111754Y0154308D01*
X0111839Y0154333D01*
X0111922Y0154362D01*
X0112005Y0154395D01*
X0112085Y0154431D01*
X0112164Y0154470D01*
X0112242Y0154513D01*
X0112317Y0154560D01*
X0112390Y0154610D01*
X0112461Y0154663D01*
X0112530Y0154719D01*
X0112596Y0154778D01*
X0112659Y0154840D01*
X0112719Y0154904D01*
X0112777Y0154971D01*
X0112831Y0155041D01*
X0112883Y0155113D01*
X0112931Y0155187D01*
X0112976Y0155264D01*
X0113017Y0155342D01*
X0113055Y0155422D01*
X0113089Y0155503D01*
X0113120Y0155586D01*
X0113147Y0155671D01*
X0113170Y0155756D01*
X0113189Y0155842D01*
X0113205Y0155930D01*
X0113217Y0156017D01*
X0113225Y0156105D01*
X0113229Y0156194D01*
X0113229Y0156282D01*
X0113225Y0156371D01*
X0113217Y0156459D01*
X0113205Y0156546D01*
X0113189Y0156634D01*
X0113170Y0156720D01*
X0113147Y0156805D01*
X0113120Y0156890D01*
X0113089Y0156973D01*
X0113055Y0157054D01*
X0113017Y0157134D01*
X0112976Y0157212D01*
X0112931Y0157289D01*
X0112883Y0157363D01*
X0112831Y0157435D01*
X0112777Y0157505D01*
X0112719Y0157572D01*
X0112659Y0157636D01*
X0112596Y0157698D01*
X0112530Y0157757D01*
X0112461Y0157813D01*
X0112390Y0157866D01*
X0112317Y0157916D01*
X0112242Y0157963D01*
X0112164Y0158006D01*
X0112085Y0158045D01*
X0112005Y0158081D01*
X0111922Y0158114D01*
X0111839Y0158143D01*
X0111754Y0158168D01*
X0111668Y0158189D01*
X0111581Y0158207D01*
X0111494Y0158220D01*
X0111406Y0158230D01*
X0111317Y0158236D01*
X0111229Y0158238D01*
X0167166Y0096761D02*
X0167166Y0092561D01*
X0167166Y0088561D01*
X0167166Y0084361D01*
X0167168Y0084285D01*
X0167174Y0084209D01*
X0167183Y0084134D01*
X0167197Y0084059D01*
X0167214Y0083985D01*
X0167235Y0083912D01*
X0167259Y0083840D01*
X0167288Y0083769D01*
X0167319Y0083700D01*
X0167354Y0083633D01*
X0167393Y0083568D01*
X0167435Y0083504D01*
X0167480Y0083443D01*
X0167528Y0083384D01*
X0167579Y0083328D01*
X0167633Y0083274D01*
X0167689Y0083223D01*
X0167748Y0083175D01*
X0167809Y0083130D01*
X0167873Y0083088D01*
X0167938Y0083049D01*
X0168005Y0083014D01*
X0168074Y0082983D01*
X0168145Y0082954D01*
X0168217Y0082930D01*
X0168290Y0082909D01*
X0168364Y0082892D01*
X0168439Y0082878D01*
X0168514Y0082869D01*
X0168590Y0082863D01*
X0168666Y0082861D01*
X0167166Y0088561D02*
X0167254Y0088563D01*
X0167343Y0088569D01*
X0167431Y0088579D01*
X0167518Y0088592D01*
X0167605Y0088610D01*
X0167691Y0088631D01*
X0167776Y0088656D01*
X0167859Y0088685D01*
X0167942Y0088718D01*
X0168022Y0088754D01*
X0168101Y0088793D01*
X0168179Y0088836D01*
X0168254Y0088883D01*
X0168327Y0088933D01*
X0168398Y0088986D01*
X0168467Y0089042D01*
X0168533Y0089101D01*
X0168596Y0089163D01*
X0168656Y0089227D01*
X0168714Y0089294D01*
X0168768Y0089364D01*
X0168820Y0089436D01*
X0168868Y0089510D01*
X0168913Y0089587D01*
X0168954Y0089665D01*
X0168992Y0089745D01*
X0169026Y0089826D01*
X0169057Y0089909D01*
X0169084Y0089994D01*
X0169107Y0090079D01*
X0169126Y0090165D01*
X0169142Y0090253D01*
X0169154Y0090340D01*
X0169162Y0090428D01*
X0169166Y0090517D01*
X0169166Y0090605D01*
X0169162Y0090694D01*
X0169154Y0090782D01*
X0169142Y0090869D01*
X0169126Y0090957D01*
X0169107Y0091043D01*
X0169084Y0091128D01*
X0169057Y0091213D01*
X0169026Y0091296D01*
X0168992Y0091377D01*
X0168954Y0091457D01*
X0168913Y0091535D01*
X0168868Y0091612D01*
X0168820Y0091686D01*
X0168768Y0091758D01*
X0168714Y0091828D01*
X0168656Y0091895D01*
X0168596Y0091959D01*
X0168533Y0092021D01*
X0168467Y0092080D01*
X0168398Y0092136D01*
X0168327Y0092189D01*
X0168254Y0092239D01*
X0168179Y0092286D01*
X0168101Y0092329D01*
X0168022Y0092368D01*
X0167942Y0092404D01*
X0167859Y0092437D01*
X0167776Y0092466D01*
X0167691Y0092491D01*
X0167605Y0092512D01*
X0167518Y0092530D01*
X0167431Y0092543D01*
X0167343Y0092553D01*
X0167254Y0092559D01*
X0167166Y0092561D01*
X0167166Y0096761D02*
X0167168Y0096837D01*
X0167174Y0096913D01*
X0167183Y0096988D01*
X0167197Y0097063D01*
X0167214Y0097137D01*
X0167235Y0097210D01*
X0167259Y0097282D01*
X0167288Y0097353D01*
X0167319Y0097422D01*
X0167354Y0097489D01*
X0167393Y0097554D01*
X0167435Y0097618D01*
X0167480Y0097679D01*
X0167528Y0097738D01*
X0167579Y0097794D01*
X0167633Y0097848D01*
X0167689Y0097899D01*
X0167748Y0097947D01*
X0167809Y0097992D01*
X0167873Y0098034D01*
X0167938Y0098073D01*
X0168005Y0098108D01*
X0168074Y0098139D01*
X0168145Y0098168D01*
X0168217Y0098192D01*
X0168290Y0098213D01*
X0168364Y0098230D01*
X0168439Y0098244D01*
X0168514Y0098253D01*
X0168590Y0098259D01*
X0168666Y0098261D01*
X0200666Y0098261D02*
X0200742Y0098259D01*
X0200818Y0098253D01*
X0200893Y0098244D01*
X0200968Y0098230D01*
X0201042Y0098213D01*
X0201115Y0098192D01*
X0201187Y0098168D01*
X0201258Y0098139D01*
X0201327Y0098108D01*
X0201394Y0098073D01*
X0201459Y0098034D01*
X0201523Y0097992D01*
X0201584Y0097947D01*
X0201643Y0097899D01*
X0201699Y0097848D01*
X0201753Y0097794D01*
X0201804Y0097738D01*
X0201852Y0097679D01*
X0201897Y0097618D01*
X0201939Y0097554D01*
X0201978Y0097489D01*
X0202013Y0097422D01*
X0202044Y0097353D01*
X0202073Y0097282D01*
X0202097Y0097210D01*
X0202118Y0097137D01*
X0202135Y0097063D01*
X0202149Y0096988D01*
X0202158Y0096913D01*
X0202164Y0096837D01*
X0202166Y0096761D01*
X0202166Y0084361D01*
X0202164Y0084285D01*
X0202158Y0084209D01*
X0202149Y0084134D01*
X0202135Y0084059D01*
X0202118Y0083985D01*
X0202097Y0083912D01*
X0202073Y0083840D01*
X0202044Y0083769D01*
X0202013Y0083700D01*
X0201978Y0083633D01*
X0201939Y0083568D01*
X0201897Y0083504D01*
X0201852Y0083443D01*
X0201804Y0083384D01*
X0201753Y0083328D01*
X0201699Y0083274D01*
X0201643Y0083223D01*
X0201584Y0083175D01*
X0201523Y0083130D01*
X0201459Y0083088D01*
X0201394Y0083049D01*
X0201327Y0083014D01*
X0201258Y0082983D01*
X0201187Y0082954D01*
X0201115Y0082930D01*
X0201042Y0082909D01*
X0200968Y0082892D01*
X0200893Y0082878D01*
X0200818Y0082869D01*
X0200742Y0082863D01*
X0200666Y0082861D01*
X0218874Y0081912D02*
X0248112Y0081912D01*
X0248112Y0151412D01*
X0218874Y0151412D01*
X0218874Y0081912D01*
X0243793Y0085612D02*
X0243795Y0085704D01*
X0243801Y0085795D01*
X0243811Y0085886D01*
X0243825Y0085977D01*
X0243843Y0086067D01*
X0243865Y0086156D01*
X0243890Y0086243D01*
X0243920Y0086330D01*
X0243953Y0086416D01*
X0243990Y0086499D01*
X0244030Y0086582D01*
X0244074Y0086662D01*
X0244122Y0086740D01*
X0244173Y0086817D01*
X0244227Y0086890D01*
X0244284Y0086962D01*
X0244345Y0087031D01*
X0244408Y0087097D01*
X0244474Y0087160D01*
X0244543Y0087221D01*
X0244615Y0087278D01*
X0244688Y0087332D01*
X0244765Y0087383D01*
X0244843Y0087431D01*
X0244923Y0087475D01*
X0245006Y0087515D01*
X0245089Y0087552D01*
X0245175Y0087585D01*
X0245262Y0087615D01*
X0245349Y0087640D01*
X0245438Y0087662D01*
X0245528Y0087680D01*
X0245619Y0087694D01*
X0245710Y0087704D01*
X0245801Y0087710D01*
X0245893Y0087712D01*
X0245985Y0087710D01*
X0246076Y0087704D01*
X0246167Y0087694D01*
X0246258Y0087680D01*
X0246348Y0087662D01*
X0246437Y0087640D01*
X0246524Y0087615D01*
X0246611Y0087585D01*
X0246697Y0087552D01*
X0246780Y0087515D01*
X0246863Y0087475D01*
X0246943Y0087431D01*
X0247021Y0087383D01*
X0247098Y0087332D01*
X0247171Y0087278D01*
X0247243Y0087221D01*
X0247312Y0087160D01*
X0247378Y0087097D01*
X0247441Y0087031D01*
X0247502Y0086962D01*
X0247559Y0086890D01*
X0247613Y0086817D01*
X0247664Y0086740D01*
X0247712Y0086662D01*
X0247756Y0086582D01*
X0247796Y0086499D01*
X0247833Y0086416D01*
X0247866Y0086330D01*
X0247896Y0086243D01*
X0247921Y0086156D01*
X0247943Y0086067D01*
X0247961Y0085977D01*
X0247975Y0085886D01*
X0247985Y0085795D01*
X0247991Y0085704D01*
X0247993Y0085612D01*
X0247991Y0085520D01*
X0247985Y0085429D01*
X0247975Y0085338D01*
X0247961Y0085247D01*
X0247943Y0085157D01*
X0247921Y0085068D01*
X0247896Y0084981D01*
X0247866Y0084894D01*
X0247833Y0084808D01*
X0247796Y0084725D01*
X0247756Y0084642D01*
X0247712Y0084562D01*
X0247664Y0084484D01*
X0247613Y0084407D01*
X0247559Y0084334D01*
X0247502Y0084262D01*
X0247441Y0084193D01*
X0247378Y0084127D01*
X0247312Y0084064D01*
X0247243Y0084003D01*
X0247171Y0083946D01*
X0247098Y0083892D01*
X0247021Y0083841D01*
X0246943Y0083793D01*
X0246863Y0083749D01*
X0246780Y0083709D01*
X0246697Y0083672D01*
X0246611Y0083639D01*
X0246524Y0083609D01*
X0246437Y0083584D01*
X0246348Y0083562D01*
X0246258Y0083544D01*
X0246167Y0083530D01*
X0246076Y0083520D01*
X0245985Y0083514D01*
X0245893Y0083512D01*
X0245801Y0083514D01*
X0245710Y0083520D01*
X0245619Y0083530D01*
X0245528Y0083544D01*
X0245438Y0083562D01*
X0245349Y0083584D01*
X0245262Y0083609D01*
X0245175Y0083639D01*
X0245089Y0083672D01*
X0245006Y0083709D01*
X0244923Y0083749D01*
X0244843Y0083793D01*
X0244765Y0083841D01*
X0244688Y0083892D01*
X0244615Y0083946D01*
X0244543Y0084003D01*
X0244474Y0084064D01*
X0244408Y0084127D01*
X0244345Y0084193D01*
X0244284Y0084262D01*
X0244227Y0084334D01*
X0244173Y0084407D01*
X0244122Y0084484D01*
X0244074Y0084562D01*
X0244030Y0084642D01*
X0243990Y0084725D01*
X0243953Y0084808D01*
X0243920Y0084894D01*
X0243890Y0084981D01*
X0243865Y0085068D01*
X0243843Y0085157D01*
X0243825Y0085247D01*
X0243811Y0085338D01*
X0243801Y0085429D01*
X0243795Y0085520D01*
X0243793Y0085612D01*
X0243505Y0026561D02*
X0238505Y0026561D01*
X0236005Y0024061D01*
X0233505Y0026561D01*
X0228505Y0026561D01*
X0226005Y0024061D01*
X0223505Y0026561D01*
X0218505Y0026561D01*
X0216005Y0024061D01*
X0216005Y0009061D01*
X0218505Y0006561D01*
X0223505Y0006561D01*
X0226005Y0009061D01*
X0228505Y0006561D01*
X0233505Y0006561D01*
X0236005Y0009061D01*
X0238505Y0006561D01*
X0243505Y0006561D01*
X0246005Y0009061D01*
X0246005Y0024061D01*
X0243505Y0026561D01*
X0267776Y0024061D02*
X0267776Y0009061D01*
X0270276Y0006561D01*
X0275276Y0006561D01*
X0277776Y0009061D01*
X0280276Y0006561D01*
X0285276Y0006561D01*
X0287776Y0009061D01*
X0290276Y0006561D01*
X0295276Y0006561D01*
X0297776Y0009061D01*
X0300276Y0006561D01*
X0305276Y0006561D01*
X0307776Y0009061D01*
X0310276Y0006561D01*
X0315276Y0006561D01*
X0317776Y0009061D01*
X0320276Y0006561D01*
X0325276Y0006561D01*
X0327776Y0009061D01*
X0330276Y0006561D01*
X0335276Y0006561D01*
X0337776Y0009061D01*
X0340276Y0006561D01*
X0345276Y0006561D01*
X0347776Y0009061D01*
X0347776Y0024061D01*
X0345276Y0026561D01*
X0340276Y0026561D01*
X0337776Y0024061D01*
X0335276Y0026561D01*
X0330276Y0026561D01*
X0327776Y0024061D01*
X0325276Y0026561D01*
X0320276Y0026561D01*
X0317776Y0024061D01*
X0315276Y0026561D01*
X0310276Y0026561D01*
X0307776Y0024061D01*
X0305276Y0026561D01*
X0300276Y0026561D01*
X0297776Y0024061D01*
X0295276Y0026561D01*
X0290276Y0026561D01*
X0287776Y0024061D01*
X0285276Y0026561D01*
X0280276Y0026561D01*
X0277776Y0024061D01*
X0275276Y0026561D01*
X0270276Y0026561D01*
X0267776Y0024061D01*
X0192461Y0024061D02*
X0192461Y0009061D01*
X0189961Y0006561D01*
X0184961Y0006561D01*
X0182461Y0009061D01*
X0179961Y0006561D01*
X0174961Y0006561D01*
X0172461Y0009061D01*
X0169961Y0006561D01*
X0164961Y0006561D01*
X0162461Y0009061D01*
X0162461Y0024061D01*
X0164961Y0026561D01*
X0169961Y0026561D01*
X0172461Y0024061D01*
X0174961Y0026561D01*
X0179961Y0026561D01*
X0182461Y0024061D01*
X0184961Y0026561D01*
X0189961Y0026561D01*
X0192461Y0024061D01*
X0139312Y0024061D02*
X0139312Y0009061D01*
X0136812Y0006561D01*
X0131812Y0006561D01*
X0129312Y0009061D01*
X0126812Y0006561D01*
X0121812Y0006561D01*
X0119312Y0009061D01*
X0116812Y0006561D01*
X0111812Y0006561D01*
X0109312Y0009061D01*
X0109312Y0024061D01*
X0111812Y0026561D01*
X0116812Y0026561D01*
X0119312Y0024061D01*
X0121812Y0026561D01*
X0126812Y0026561D01*
X0129312Y0024061D01*
X0131812Y0026561D01*
X0136812Y0026561D01*
X0139312Y0024061D01*
X0112032Y0045998D02*
X0105883Y0045998D01*
X0105883Y0057198D02*
X0112032Y0057198D01*
X0083662Y0026561D02*
X0078662Y0026561D01*
X0076162Y0024061D01*
X0073662Y0026561D01*
X0068662Y0026561D01*
X0066162Y0024061D01*
X0063662Y0026561D01*
X0058662Y0026561D01*
X0056162Y0024061D01*
X0056162Y0009061D01*
X0058662Y0006561D01*
X0063662Y0006561D01*
X0066162Y0009061D01*
X0068662Y0006561D01*
X0073662Y0006561D01*
X0076162Y0009061D01*
X0078662Y0006561D01*
X0083662Y0006561D01*
X0086162Y0009061D01*
X0086162Y0024061D01*
X0083662Y0026561D01*
X0037800Y0036324D02*
X0028300Y0036324D01*
X0028300Y0042824D01*
X0028300Y0036324D02*
X0002300Y0036324D01*
X0001300Y0036324D01*
X0001300Y0076324D01*
X0002300Y0076324D01*
X0028300Y0076324D01*
X0028300Y0069824D01*
X0028300Y0062824D02*
X0028300Y0049824D01*
X0037800Y0036324D02*
X0037800Y0076324D01*
X0028300Y0076324D01*
X0050452Y0077890D02*
X0050452Y0080901D01*
X0050452Y0077890D02*
X0053782Y0077890D01*
X0050452Y0085980D02*
X0050452Y0089090D01*
X0053782Y0089090D01*
X0005600Y0066324D02*
X0005602Y0066413D01*
X0005608Y0066502D01*
X0005618Y0066591D01*
X0005632Y0066679D01*
X0005649Y0066766D01*
X0005671Y0066852D01*
X0005697Y0066938D01*
X0005726Y0067022D01*
X0005759Y0067105D01*
X0005795Y0067186D01*
X0005836Y0067266D01*
X0005879Y0067343D01*
X0005926Y0067419D01*
X0005977Y0067492D01*
X0006030Y0067563D01*
X0006087Y0067632D01*
X0006147Y0067698D01*
X0006210Y0067762D01*
X0006275Y0067822D01*
X0006343Y0067880D01*
X0006414Y0067934D01*
X0006487Y0067985D01*
X0006562Y0068033D01*
X0006639Y0068078D01*
X0006718Y0068119D01*
X0006799Y0068156D01*
X0006881Y0068190D01*
X0006965Y0068221D01*
X0007050Y0068247D01*
X0007136Y0068270D01*
X0007223Y0068288D01*
X0007311Y0068303D01*
X0007400Y0068314D01*
X0007489Y0068321D01*
X0007578Y0068324D01*
X0007667Y0068323D01*
X0007756Y0068318D01*
X0007844Y0068309D01*
X0007933Y0068296D01*
X0008020Y0068279D01*
X0008107Y0068259D01*
X0008193Y0068234D01*
X0008277Y0068206D01*
X0008360Y0068174D01*
X0008442Y0068138D01*
X0008522Y0068099D01*
X0008600Y0068056D01*
X0008676Y0068010D01*
X0008750Y0067960D01*
X0008822Y0067907D01*
X0008891Y0067851D01*
X0008958Y0067792D01*
X0009022Y0067730D01*
X0009083Y0067666D01*
X0009142Y0067598D01*
X0009197Y0067528D01*
X0009249Y0067456D01*
X0009298Y0067381D01*
X0009343Y0067305D01*
X0009385Y0067226D01*
X0009423Y0067146D01*
X0009458Y0067064D01*
X0009489Y0066980D01*
X0009517Y0066895D01*
X0009540Y0066809D01*
X0009560Y0066722D01*
X0009576Y0066635D01*
X0009588Y0066546D01*
X0009596Y0066458D01*
X0009600Y0066369D01*
X0009600Y0066279D01*
X0009596Y0066190D01*
X0009588Y0066102D01*
X0009576Y0066013D01*
X0009560Y0065926D01*
X0009540Y0065839D01*
X0009517Y0065753D01*
X0009489Y0065668D01*
X0009458Y0065584D01*
X0009423Y0065502D01*
X0009385Y0065422D01*
X0009343Y0065343D01*
X0009298Y0065267D01*
X0009249Y0065192D01*
X0009197Y0065120D01*
X0009142Y0065050D01*
X0009083Y0064982D01*
X0009022Y0064918D01*
X0008958Y0064856D01*
X0008891Y0064797D01*
X0008822Y0064741D01*
X0008750Y0064688D01*
X0008676Y0064638D01*
X0008600Y0064592D01*
X0008522Y0064549D01*
X0008442Y0064510D01*
X0008360Y0064474D01*
X0008277Y0064442D01*
X0008193Y0064414D01*
X0008107Y0064389D01*
X0008020Y0064369D01*
X0007933Y0064352D01*
X0007844Y0064339D01*
X0007756Y0064330D01*
X0007667Y0064325D01*
X0007578Y0064324D01*
X0007489Y0064327D01*
X0007400Y0064334D01*
X0007311Y0064345D01*
X0007223Y0064360D01*
X0007136Y0064378D01*
X0007050Y0064401D01*
X0006965Y0064427D01*
X0006881Y0064458D01*
X0006799Y0064492D01*
X0006718Y0064529D01*
X0006639Y0064570D01*
X0006562Y0064615D01*
X0006487Y0064663D01*
X0006414Y0064714D01*
X0006343Y0064768D01*
X0006275Y0064826D01*
X0006210Y0064886D01*
X0006147Y0064950D01*
X0006087Y0065016D01*
X0006030Y0065085D01*
X0005977Y0065156D01*
X0005926Y0065229D01*
X0005879Y0065305D01*
X0005836Y0065382D01*
X0005795Y0065462D01*
X0005759Y0065543D01*
X0005726Y0065626D01*
X0005697Y0065710D01*
X0005671Y0065796D01*
X0005649Y0065882D01*
X0005632Y0065969D01*
X0005618Y0066057D01*
X0005608Y0066146D01*
X0005602Y0066235D01*
X0005600Y0066324D01*
X0002300Y0076324D02*
X0002300Y0036324D01*
X0005600Y0046324D02*
X0005602Y0046413D01*
X0005608Y0046502D01*
X0005618Y0046591D01*
X0005632Y0046679D01*
X0005649Y0046766D01*
X0005671Y0046852D01*
X0005697Y0046938D01*
X0005726Y0047022D01*
X0005759Y0047105D01*
X0005795Y0047186D01*
X0005836Y0047266D01*
X0005879Y0047343D01*
X0005926Y0047419D01*
X0005977Y0047492D01*
X0006030Y0047563D01*
X0006087Y0047632D01*
X0006147Y0047698D01*
X0006210Y0047762D01*
X0006275Y0047822D01*
X0006343Y0047880D01*
X0006414Y0047934D01*
X0006487Y0047985D01*
X0006562Y0048033D01*
X0006639Y0048078D01*
X0006718Y0048119D01*
X0006799Y0048156D01*
X0006881Y0048190D01*
X0006965Y0048221D01*
X0007050Y0048247D01*
X0007136Y0048270D01*
X0007223Y0048288D01*
X0007311Y0048303D01*
X0007400Y0048314D01*
X0007489Y0048321D01*
X0007578Y0048324D01*
X0007667Y0048323D01*
X0007756Y0048318D01*
X0007844Y0048309D01*
X0007933Y0048296D01*
X0008020Y0048279D01*
X0008107Y0048259D01*
X0008193Y0048234D01*
X0008277Y0048206D01*
X0008360Y0048174D01*
X0008442Y0048138D01*
X0008522Y0048099D01*
X0008600Y0048056D01*
X0008676Y0048010D01*
X0008750Y0047960D01*
X0008822Y0047907D01*
X0008891Y0047851D01*
X0008958Y0047792D01*
X0009022Y0047730D01*
X0009083Y0047666D01*
X0009142Y0047598D01*
X0009197Y0047528D01*
X0009249Y0047456D01*
X0009298Y0047381D01*
X0009343Y0047305D01*
X0009385Y0047226D01*
X0009423Y0047146D01*
X0009458Y0047064D01*
X0009489Y0046980D01*
X0009517Y0046895D01*
X0009540Y0046809D01*
X0009560Y0046722D01*
X0009576Y0046635D01*
X0009588Y0046546D01*
X0009596Y0046458D01*
X0009600Y0046369D01*
X0009600Y0046279D01*
X0009596Y0046190D01*
X0009588Y0046102D01*
X0009576Y0046013D01*
X0009560Y0045926D01*
X0009540Y0045839D01*
X0009517Y0045753D01*
X0009489Y0045668D01*
X0009458Y0045584D01*
X0009423Y0045502D01*
X0009385Y0045422D01*
X0009343Y0045343D01*
X0009298Y0045267D01*
X0009249Y0045192D01*
X0009197Y0045120D01*
X0009142Y0045050D01*
X0009083Y0044982D01*
X0009022Y0044918D01*
X0008958Y0044856D01*
X0008891Y0044797D01*
X0008822Y0044741D01*
X0008750Y0044688D01*
X0008676Y0044638D01*
X0008600Y0044592D01*
X0008522Y0044549D01*
X0008442Y0044510D01*
X0008360Y0044474D01*
X0008277Y0044442D01*
X0008193Y0044414D01*
X0008107Y0044389D01*
X0008020Y0044369D01*
X0007933Y0044352D01*
X0007844Y0044339D01*
X0007756Y0044330D01*
X0007667Y0044325D01*
X0007578Y0044324D01*
X0007489Y0044327D01*
X0007400Y0044334D01*
X0007311Y0044345D01*
X0007223Y0044360D01*
X0007136Y0044378D01*
X0007050Y0044401D01*
X0006965Y0044427D01*
X0006881Y0044458D01*
X0006799Y0044492D01*
X0006718Y0044529D01*
X0006639Y0044570D01*
X0006562Y0044615D01*
X0006487Y0044663D01*
X0006414Y0044714D01*
X0006343Y0044768D01*
X0006275Y0044826D01*
X0006210Y0044886D01*
X0006147Y0044950D01*
X0006087Y0045016D01*
X0006030Y0045085D01*
X0005977Y0045156D01*
X0005926Y0045229D01*
X0005879Y0045305D01*
X0005836Y0045382D01*
X0005795Y0045462D01*
X0005759Y0045543D01*
X0005726Y0045626D01*
X0005697Y0045710D01*
X0005671Y0045796D01*
X0005649Y0045882D01*
X0005632Y0045969D01*
X0005618Y0046057D01*
X0005608Y0046146D01*
X0005602Y0046235D01*
X0005600Y0046324D01*
D14*
X0111229Y0149938D02*
X0146229Y0149938D01*
X0167166Y0084261D02*
X0202166Y0084261D01*
D15*
X0202461Y0027561D02*
X0152461Y0027561D01*
X0152461Y0005561D01*
X0202461Y0005561D01*
X0202461Y0027561D01*
X0206005Y0027561D02*
X0206005Y0005561D01*
X0256005Y0005561D01*
X0256005Y0027561D01*
X0206005Y0027561D01*
X0196714Y0023814D02*
X0195213Y0023064D01*
X0193711Y0021563D01*
X0195963Y0021563D01*
X0196714Y0020812D01*
X0196714Y0020061D01*
X0195963Y0019311D01*
X0194462Y0019311D01*
X0193711Y0020061D01*
X0193711Y0021563D01*
X0212755Y0011313D02*
X0214256Y0012814D01*
X0214256Y0008311D01*
X0212755Y0008311D02*
X0215757Y0008311D01*
X0247255Y0020061D02*
X0248005Y0019311D01*
X0249507Y0019311D01*
X0250257Y0020061D01*
X0250257Y0020812D01*
X0249507Y0021563D01*
X0247255Y0021563D01*
X0247255Y0020061D01*
X0247255Y0021563D02*
X0248756Y0023064D01*
X0250257Y0023814D01*
X0258526Y0027561D02*
X0258526Y0005561D01*
X0357026Y0005561D01*
X0357026Y0027561D01*
X0258526Y0027561D01*
X0264528Y0014814D02*
X0263026Y0013313D01*
X0264528Y0014814D02*
X0264528Y0010311D01*
X0266029Y0010311D02*
X0263026Y0010311D01*
X0350026Y0020311D02*
X0353029Y0020311D01*
X0351528Y0020311D02*
X0351528Y0024814D01*
X0350026Y0023313D01*
X0354630Y0022563D02*
X0354630Y0021061D01*
X0355381Y0020311D01*
X0356882Y0020311D01*
X0357633Y0021061D01*
X0357633Y0021812D01*
X0356882Y0022563D01*
X0354630Y0022563D01*
X0356132Y0024064D01*
X0357633Y0024814D01*
X0384548Y0029946D02*
X0073524Y0029946D01*
X0087412Y0021563D02*
X0089664Y0021563D01*
X0090415Y0020812D01*
X0090415Y0020061D01*
X0089664Y0019311D01*
X0088163Y0019311D01*
X0087412Y0020061D01*
X0087412Y0021563D01*
X0088913Y0023064D01*
X0090415Y0023814D01*
X0096162Y0027561D02*
X0096162Y0005561D01*
X0046162Y0005561D01*
X0046162Y0027561D01*
X0096162Y0027561D01*
X0099312Y0027561D02*
X0099312Y0005561D01*
X0149312Y0005561D01*
X0149312Y0027561D01*
X0099312Y0027561D01*
X0107563Y0012814D02*
X0107563Y0008311D01*
X0106062Y0008311D02*
X0109064Y0008311D01*
X0106062Y0011313D02*
X0107563Y0012814D01*
X0140562Y0020061D02*
X0141312Y0019311D01*
X0142814Y0019311D01*
X0143564Y0020061D01*
X0143564Y0020812D01*
X0142814Y0021563D01*
X0140562Y0021563D01*
X0140562Y0020061D01*
X0140562Y0021563D02*
X0142063Y0023064D01*
X0143564Y0023814D01*
X0159211Y0011313D02*
X0160713Y0012814D01*
X0160713Y0008311D01*
X0162214Y0008311D02*
X0159211Y0008311D01*
X0073524Y0029946D02*
X0073239Y0029949D01*
X0072953Y0029960D01*
X0072668Y0029977D01*
X0072384Y0030001D01*
X0072100Y0030032D01*
X0071817Y0030070D01*
X0071536Y0030115D01*
X0071255Y0030166D01*
X0070975Y0030224D01*
X0070697Y0030289D01*
X0070421Y0030361D01*
X0070147Y0030439D01*
X0069874Y0030524D01*
X0069604Y0030616D01*
X0069336Y0030714D01*
X0069070Y0030818D01*
X0068807Y0030929D01*
X0068547Y0031046D01*
X0068289Y0031169D01*
X0068035Y0031299D01*
X0067784Y0031435D01*
X0067536Y0031576D01*
X0067292Y0031724D01*
X0067051Y0031877D01*
X0066815Y0032037D01*
X0066582Y0032202D01*
X0066353Y0032372D01*
X0066128Y0032548D01*
X0065908Y0032730D01*
X0065692Y0032916D01*
X0065481Y0033108D01*
X0065274Y0033305D01*
X0065072Y0033507D01*
X0064875Y0033714D01*
X0064683Y0033925D01*
X0064497Y0034141D01*
X0064315Y0034361D01*
X0064139Y0034586D01*
X0063969Y0034815D01*
X0063804Y0035048D01*
X0063644Y0035284D01*
X0063491Y0035525D01*
X0063343Y0035769D01*
X0063202Y0036017D01*
X0063066Y0036268D01*
X0062936Y0036522D01*
X0062813Y0036780D01*
X0062696Y0037040D01*
X0062585Y0037303D01*
X0062481Y0037569D01*
X0062383Y0037837D01*
X0062291Y0038107D01*
X0062206Y0038380D01*
X0062128Y0038654D01*
X0062056Y0038930D01*
X0061991Y0039208D01*
X0061933Y0039488D01*
X0061882Y0039769D01*
X0061837Y0040050D01*
X0061799Y0040333D01*
X0061768Y0040617D01*
X0061744Y0040901D01*
X0061727Y0041186D01*
X0061716Y0041472D01*
X0061713Y0041757D01*
X0061713Y0238608D01*
X0061716Y0238893D01*
X0061727Y0239179D01*
X0061744Y0239464D01*
X0061768Y0239748D01*
X0061799Y0240032D01*
X0061837Y0240315D01*
X0061882Y0240596D01*
X0061933Y0240877D01*
X0061991Y0241157D01*
X0062056Y0241435D01*
X0062128Y0241711D01*
X0062206Y0241985D01*
X0062291Y0242258D01*
X0062383Y0242528D01*
X0062481Y0242796D01*
X0062585Y0243062D01*
X0062696Y0243325D01*
X0062813Y0243585D01*
X0062936Y0243843D01*
X0063066Y0244097D01*
X0063202Y0244348D01*
X0063343Y0244596D01*
X0063491Y0244840D01*
X0063644Y0245081D01*
X0063804Y0245317D01*
X0063969Y0245550D01*
X0064139Y0245779D01*
X0064315Y0246004D01*
X0064497Y0246224D01*
X0064683Y0246440D01*
X0064875Y0246651D01*
X0065072Y0246858D01*
X0065274Y0247060D01*
X0065481Y0247257D01*
X0065692Y0247449D01*
X0065908Y0247635D01*
X0066128Y0247817D01*
X0066353Y0247993D01*
X0066582Y0248163D01*
X0066815Y0248328D01*
X0067051Y0248488D01*
X0067292Y0248641D01*
X0067536Y0248789D01*
X0067784Y0248930D01*
X0068035Y0249066D01*
X0068289Y0249196D01*
X0068547Y0249319D01*
X0068807Y0249436D01*
X0069070Y0249547D01*
X0069336Y0249651D01*
X0069604Y0249749D01*
X0069874Y0249841D01*
X0070147Y0249926D01*
X0070421Y0250004D01*
X0070697Y0250076D01*
X0070975Y0250141D01*
X0071255Y0250199D01*
X0071536Y0250250D01*
X0071817Y0250295D01*
X0072100Y0250333D01*
X0072384Y0250364D01*
X0072668Y0250388D01*
X0072953Y0250405D01*
X0073239Y0250416D01*
X0073524Y0250419D01*
X0384548Y0250419D01*
X0384833Y0250416D01*
X0385119Y0250405D01*
X0385404Y0250388D01*
X0385688Y0250364D01*
X0385972Y0250333D01*
X0386255Y0250295D01*
X0386536Y0250250D01*
X0386817Y0250199D01*
X0387097Y0250141D01*
X0387375Y0250076D01*
X0387651Y0250004D01*
X0387925Y0249926D01*
X0388198Y0249841D01*
X0388468Y0249749D01*
X0388736Y0249651D01*
X0389002Y0249547D01*
X0389265Y0249436D01*
X0389525Y0249319D01*
X0389783Y0249196D01*
X0390037Y0249066D01*
X0390288Y0248930D01*
X0390536Y0248789D01*
X0390780Y0248641D01*
X0391021Y0248488D01*
X0391257Y0248328D01*
X0391490Y0248163D01*
X0391719Y0247993D01*
X0391944Y0247817D01*
X0392164Y0247635D01*
X0392380Y0247449D01*
X0392591Y0247257D01*
X0392798Y0247060D01*
X0393000Y0246858D01*
X0393197Y0246651D01*
X0393389Y0246440D01*
X0393575Y0246224D01*
X0393757Y0246004D01*
X0393933Y0245779D01*
X0394103Y0245550D01*
X0394268Y0245317D01*
X0394428Y0245081D01*
X0394581Y0244840D01*
X0394729Y0244596D01*
X0394870Y0244348D01*
X0395006Y0244097D01*
X0395136Y0243843D01*
X0395259Y0243585D01*
X0395376Y0243325D01*
X0395487Y0243062D01*
X0395591Y0242796D01*
X0395689Y0242528D01*
X0395781Y0242258D01*
X0395866Y0241985D01*
X0395944Y0241711D01*
X0396016Y0241435D01*
X0396081Y0241157D01*
X0396139Y0240877D01*
X0396190Y0240596D01*
X0396235Y0240315D01*
X0396273Y0240032D01*
X0396304Y0239748D01*
X0396328Y0239464D01*
X0396345Y0239179D01*
X0396356Y0238893D01*
X0396359Y0238608D01*
X0396359Y0041757D01*
X0396356Y0041472D01*
X0396345Y0041186D01*
X0396328Y0040901D01*
X0396304Y0040617D01*
X0396273Y0040333D01*
X0396235Y0040050D01*
X0396190Y0039769D01*
X0396139Y0039488D01*
X0396081Y0039208D01*
X0396016Y0038930D01*
X0395944Y0038654D01*
X0395866Y0038380D01*
X0395781Y0038107D01*
X0395689Y0037837D01*
X0395591Y0037569D01*
X0395487Y0037303D01*
X0395376Y0037040D01*
X0395259Y0036780D01*
X0395136Y0036522D01*
X0395006Y0036268D01*
X0394870Y0036017D01*
X0394729Y0035769D01*
X0394581Y0035525D01*
X0394428Y0035284D01*
X0394268Y0035048D01*
X0394103Y0034815D01*
X0393933Y0034586D01*
X0393757Y0034361D01*
X0393575Y0034141D01*
X0393389Y0033925D01*
X0393197Y0033714D01*
X0393000Y0033507D01*
X0392798Y0033305D01*
X0392591Y0033108D01*
X0392380Y0032916D01*
X0392164Y0032730D01*
X0391944Y0032548D01*
X0391719Y0032372D01*
X0391490Y0032202D01*
X0391257Y0032037D01*
X0391021Y0031877D01*
X0390780Y0031724D01*
X0390536Y0031576D01*
X0390288Y0031435D01*
X0390037Y0031299D01*
X0389783Y0031169D01*
X0389525Y0031046D01*
X0389265Y0030929D01*
X0389002Y0030818D01*
X0388736Y0030714D01*
X0388468Y0030616D01*
X0388198Y0030524D01*
X0387925Y0030439D01*
X0387651Y0030361D01*
X0387375Y0030289D01*
X0387097Y0030224D01*
X0386817Y0030166D01*
X0386536Y0030115D01*
X0386255Y0030070D01*
X0385972Y0030032D01*
X0385688Y0030001D01*
X0385404Y0029977D01*
X0385119Y0029960D01*
X0384833Y0029949D01*
X0384548Y0029946D01*
X0189666Y0230734D02*
X0189666Y0242545D01*
X0183761Y0236639D02*
X0195572Y0236639D01*
X0218603Y0286663D02*
X0168603Y0286663D01*
X0168603Y0308663D01*
X0218603Y0308663D01*
X0218603Y0286663D01*
X0222146Y0286663D02*
X0222146Y0308663D01*
X0272146Y0308663D01*
X0272146Y0286663D01*
X0222146Y0286663D01*
X0226793Y0291164D02*
X0227543Y0290413D01*
X0229044Y0290413D01*
X0229795Y0291164D01*
X0229795Y0291914D01*
X0229044Y0292665D01*
X0226793Y0292665D01*
X0226793Y0291164D01*
X0226793Y0292665D02*
X0228294Y0294166D01*
X0229795Y0294917D01*
X0210752Y0301413D02*
X0207749Y0301413D01*
X0209251Y0301413D02*
X0209251Y0305917D01*
X0207749Y0304416D01*
X0176252Y0294917D02*
X0174751Y0294166D01*
X0173249Y0292665D01*
X0175501Y0292665D01*
X0176252Y0291914D01*
X0176252Y0291164D01*
X0175501Y0290413D01*
X0174000Y0290413D01*
X0173249Y0291164D01*
X0173249Y0292665D01*
X0165611Y0286663D02*
X0165611Y0308663D01*
X0095611Y0308663D01*
X0095611Y0286663D01*
X0165611Y0286663D01*
X0159260Y0299413D02*
X0156257Y0299413D01*
X0157758Y0299413D02*
X0157758Y0303917D01*
X0156257Y0302416D01*
X0103260Y0293166D02*
X0100257Y0290164D01*
X0101008Y0289413D01*
X0102509Y0289413D01*
X0103260Y0290164D01*
X0103260Y0293166D01*
X0102509Y0293917D01*
X0101008Y0293917D01*
X0100257Y0293166D01*
X0100257Y0290164D01*
X0098656Y0289413D02*
X0095653Y0289413D01*
X0097154Y0289413D02*
X0097154Y0293917D01*
X0095653Y0292416D01*
X0092619Y0286663D02*
X0092619Y0308663D01*
X0042619Y0308663D01*
X0042619Y0286663D01*
X0092619Y0286663D01*
X0084768Y0301413D02*
X0081765Y0301413D01*
X0083266Y0301413D02*
X0083266Y0305917D01*
X0081765Y0304416D01*
X0050268Y0294917D02*
X0048766Y0294166D01*
X0047265Y0292665D01*
X0049517Y0292665D01*
X0050268Y0291914D01*
X0050268Y0291164D01*
X0049517Y0290413D01*
X0048016Y0290413D01*
X0047265Y0291164D01*
X0047265Y0292665D01*
X0035312Y0282663D02*
X0013312Y0282663D01*
X0013312Y0212663D01*
X0035312Y0212663D01*
X0035312Y0282663D01*
X0022562Y0276312D02*
X0022562Y0273309D01*
X0022562Y0274810D02*
X0018058Y0274810D01*
X0019559Y0273309D01*
X0028809Y0220312D02*
X0031811Y0217309D01*
X0032562Y0218060D01*
X0032562Y0219561D01*
X0031811Y0220312D01*
X0028809Y0220312D01*
X0028058Y0219561D01*
X0028058Y0218060D01*
X0028809Y0217309D01*
X0031811Y0217309D01*
X0032562Y0215708D02*
X0032562Y0212705D01*
X0032562Y0214206D02*
X0028058Y0214206D01*
X0029559Y0212705D01*
X0035312Y0194395D02*
X0013312Y0194395D01*
X0013312Y0084395D01*
X0035312Y0084395D01*
X0035312Y0194395D01*
X0021562Y0188044D02*
X0021562Y0185041D01*
X0021562Y0186543D02*
X0017058Y0186543D01*
X0018559Y0185041D01*
X0028809Y0092044D02*
X0029559Y0092044D01*
X0030310Y0091293D01*
X0030310Y0089792D01*
X0029559Y0089041D01*
X0028809Y0089041D01*
X0028058Y0089792D01*
X0028058Y0091293D01*
X0028809Y0092044D01*
X0030310Y0091293D02*
X0031061Y0092044D01*
X0031811Y0092044D01*
X0032562Y0091293D01*
X0032562Y0089792D01*
X0031811Y0089041D01*
X0031061Y0089041D01*
X0030310Y0089792D01*
X0032562Y0087440D02*
X0032562Y0084437D01*
X0032562Y0085939D02*
X0028058Y0085939D01*
X0029559Y0084437D01*
X0054413Y0012814D02*
X0054413Y0008311D01*
X0052912Y0008311D02*
X0055915Y0008311D01*
X0052912Y0011313D02*
X0054413Y0012814D01*
X0275296Y0286663D02*
X0275296Y0308663D01*
X0325296Y0308663D01*
X0325296Y0286663D01*
X0275296Y0286663D01*
X0279942Y0291164D02*
X0279942Y0292665D01*
X0282194Y0292665D01*
X0282945Y0291914D01*
X0282945Y0291164D01*
X0282194Y0290413D01*
X0280693Y0290413D01*
X0279942Y0291164D01*
X0279942Y0292665D02*
X0281443Y0294166D01*
X0282945Y0294917D01*
X0264295Y0301413D02*
X0261293Y0301413D01*
X0262794Y0301413D02*
X0262794Y0305917D01*
X0261293Y0304416D01*
X0314442Y0304416D02*
X0315943Y0305917D01*
X0315943Y0301413D01*
X0314442Y0301413D02*
X0317445Y0301413D01*
D16*
X0110926Y0047072D03*
D17*
X0054627Y0050025D02*
X0054627Y0054750D01*
X0042816Y0054750D02*
X0042816Y0050025D01*
X0114076Y0261443D02*
X0223623Y0261443D01*
X0223623Y0280340D01*
X0114076Y0280340D01*
M02*
