G75*
%MOIN*%
%OFA0B0*%
%FSLAX25Y25*%
%IPPOS*%
%LPD*%
%AMOC8*
5,1,8,0,0,1.08239X$1,22.5*
%
%ADD10C,0.00394*%
%ADD11R,0.04331X0.03937*%
%ADD12R,0.03150X0.03150*%
%ADD13R,0.07098X0.06299*%
%ADD14R,0.03937X0.04331*%
%ADD15R,0.02600X0.08000*%
%ADD16R,0.06693X0.02559*%
%ADD17R,0.05512X0.03937*%
%ADD18R,0.07008X0.08504*%
%ADD19R,0.03543X0.02362*%
%ADD20R,0.13780X0.03150*%
%ADD21R,0.07480X0.13386*%
%ADD22R,0.06299X0.07087*%
D10*
X0002658Y0001600D02*
X0002658Y0316561D01*
X0396359Y0316561D01*
X0396359Y0001600D01*
X0002658Y0001600D01*
D11*
X0125099Y0047072D03*
X0125099Y0053765D03*
X0153146Y0065844D03*
X0159839Y0065844D03*
X0173328Y0067836D03*
X0173328Y0061143D03*
X0181469Y0061143D03*
X0181469Y0067836D03*
X0197753Y0067836D03*
X0197753Y0061143D03*
X0206288Y0061143D03*
X0206288Y0067836D03*
X0236910Y0058096D03*
X0236910Y0051403D03*
X0243603Y0068332D03*
X0243603Y0075025D03*
X0189666Y0112427D03*
X0189666Y0119120D03*
X0178643Y0119120D03*
X0178643Y0112427D03*
X0161320Y0112427D03*
X0161320Y0119120D03*
X0152658Y0119120D03*
X0152658Y0112427D03*
X0155587Y0100734D03*
X0162280Y0100734D03*
X0161887Y0091553D03*
X0155194Y0091553D03*
X0122737Y0126206D03*
X0122737Y0132899D03*
X0114076Y0132899D03*
X0114076Y0126206D03*
X0092816Y0128962D03*
X0092816Y0135655D03*
X0084154Y0135655D03*
X0084154Y0128962D03*
X0084154Y0144317D03*
X0084154Y0151009D03*
X0092816Y0151009D03*
X0092816Y0144317D03*
X0098627Y0166057D03*
X0105320Y0166057D03*
X0105320Y0174844D03*
X0098627Y0174844D03*
X0104926Y0182348D03*
X0104926Y0189041D03*
X0113839Y0189041D03*
X0113839Y0182348D03*
X0131359Y0182277D03*
X0131359Y0188970D03*
X0139824Y0188844D03*
X0139824Y0182151D03*
X0156965Y0182183D03*
X0156965Y0188876D03*
X0165485Y0188939D03*
X0165485Y0182246D03*
X0129824Y0215183D03*
X0129824Y0221876D03*
X0145178Y0223057D03*
X0145178Y0216364D03*
X0142225Y0255143D03*
X0148918Y0255143D03*
X0092028Y0260065D03*
X0092028Y0266757D03*
X0165650Y0137230D03*
X0165650Y0130537D03*
X0175099Y0130537D03*
X0175099Y0137230D03*
X0265847Y0129946D03*
X0272540Y0129946D03*
X0272540Y0121679D03*
X0265847Y0121679D03*
X0286910Y0135261D03*
X0286910Y0141954D03*
X0334548Y0145104D03*
X0334548Y0151009D03*
X0334548Y0157702D03*
X0334548Y0138411D03*
D12*
X0333367Y0268332D03*
X0333367Y0274238D03*
X0343209Y0274238D03*
X0343209Y0268332D03*
X0353052Y0268332D03*
X0353052Y0274238D03*
X0362894Y0274238D03*
X0362894Y0268332D03*
X0323524Y0268332D03*
X0323524Y0274238D03*
X0313682Y0274238D03*
X0313682Y0268332D03*
X0303839Y0268332D03*
X0303839Y0274238D03*
X0293997Y0274238D03*
X0293997Y0268332D03*
X0284154Y0268332D03*
X0284154Y0274238D03*
X0274312Y0274238D03*
X0274312Y0268332D03*
X0264469Y0268332D03*
X0264469Y0274238D03*
X0020572Y0199238D03*
X0014666Y0199238D03*
X0013879Y0207506D03*
X0019784Y0207506D03*
D13*
X0198855Y0128836D03*
X0198855Y0117639D03*
X0274312Y0138915D03*
X0274312Y0150112D03*
X0283367Y0154269D03*
X0283367Y0165466D03*
D14*
X0357580Y0169710D03*
X0364272Y0169710D03*
X0364272Y0177978D03*
X0357580Y0177978D03*
X0357580Y0186246D03*
X0364272Y0186246D03*
X0364272Y0194513D03*
X0357580Y0194513D03*
X0357580Y0202781D03*
X0364272Y0202781D03*
X0364272Y0211049D03*
X0357580Y0211049D03*
X0357580Y0219317D03*
X0364272Y0219317D03*
X0364272Y0227584D03*
X0357580Y0227584D03*
X0357580Y0235852D03*
X0364272Y0235852D03*
X0364272Y0244120D03*
X0357580Y0244120D03*
X0263879Y0257112D03*
X0257186Y0257112D03*
X0173879Y0188939D03*
X0173879Y0182246D03*
X0148359Y0182065D03*
X0148359Y0188757D03*
X0122769Y0189041D03*
X0122769Y0182348D03*
X0101477Y0151009D03*
X0101477Y0144317D03*
X0101477Y0135655D03*
X0101477Y0128962D03*
X0131398Y0126206D03*
X0131398Y0132899D03*
X0169981Y0119120D03*
X0169981Y0112427D03*
X0183367Y0130537D03*
X0183367Y0137230D03*
X0200493Y0140183D03*
X0207186Y0140183D03*
X0207186Y0148450D03*
X0200493Y0148450D03*
X0200493Y0156718D03*
X0207186Y0156718D03*
X0159839Y0082521D03*
X0153146Y0082521D03*
X0153146Y0073986D03*
X0159839Y0073986D03*
X0189611Y0067836D03*
X0189611Y0061143D03*
X0214430Y0061143D03*
X0214430Y0067836D03*
X0237107Y0051206D03*
X0243800Y0051206D03*
X0243800Y0068135D03*
X0250493Y0068135D03*
X0104430Y0066561D03*
X0097737Y0066561D03*
X0032383Y0199238D03*
X0025690Y0199238D03*
X0025690Y0207506D03*
X0032383Y0207506D03*
X0122146Y0255143D03*
X0128839Y0255143D03*
D15*
X0128729Y0168338D03*
X0133729Y0168338D03*
X0138729Y0168338D03*
X0143729Y0168338D03*
X0123729Y0168338D03*
X0118729Y0168338D03*
X0113729Y0168338D03*
X0113729Y0144138D03*
X0118729Y0144138D03*
X0123729Y0144138D03*
X0128729Y0144138D03*
X0133729Y0144138D03*
X0138729Y0144138D03*
X0143729Y0144138D03*
X0169666Y0102661D03*
X0174666Y0102661D03*
X0179666Y0102661D03*
X0184666Y0102661D03*
X0189666Y0102661D03*
X0194666Y0102661D03*
X0199666Y0102661D03*
X0199666Y0078461D03*
X0194666Y0078461D03*
X0189666Y0078461D03*
X0184666Y0078461D03*
X0179666Y0078461D03*
X0174666Y0078461D03*
X0169666Y0078461D03*
D16*
X0214674Y0084112D03*
X0214674Y0089112D03*
X0214674Y0094112D03*
X0214674Y0099112D03*
X0214674Y0104112D03*
X0214674Y0109112D03*
X0214674Y0114112D03*
X0214674Y0119112D03*
X0214674Y0124112D03*
X0214674Y0129112D03*
X0214674Y0134112D03*
X0214674Y0139112D03*
X0214674Y0144112D03*
X0214674Y0149112D03*
X0252312Y0149112D03*
X0252312Y0144112D03*
X0252312Y0139112D03*
X0252312Y0134112D03*
X0252312Y0129112D03*
X0252312Y0124112D03*
X0252312Y0119112D03*
X0252312Y0114112D03*
X0252312Y0109112D03*
X0252312Y0104112D03*
X0252312Y0099112D03*
X0252312Y0094112D03*
X0252312Y0089112D03*
X0252312Y0084112D03*
D17*
X0304233Y0135655D03*
X0295572Y0139395D03*
X0304233Y0143135D03*
X0316831Y0143135D03*
X0325493Y0139395D03*
X0316831Y0135655D03*
X0316831Y0156128D03*
X0316831Y0163608D03*
X0325493Y0159868D03*
X0299902Y0163608D03*
X0299902Y0156128D03*
X0291241Y0159868D03*
X0110532Y0262624D03*
X0101871Y0266364D03*
X0101871Y0258883D03*
X0057383Y0087230D03*
X0057383Y0079750D03*
X0048721Y0083490D03*
D18*
X0078918Y0079159D03*
X0094942Y0079159D03*
D19*
X0104430Y0055340D03*
X0104430Y0051600D03*
X0104430Y0047860D03*
X0113485Y0047860D03*
X0113485Y0051600D03*
X0113485Y0055340D03*
D20*
X0048721Y0057998D03*
X0048721Y0046777D03*
D21*
X0077265Y0095301D03*
X0092619Y0095301D03*
D22*
X0059745Y0065380D03*
X0048721Y0065380D03*
M02*
