G75*
%MOIN*%
%OFA0B0*%
%FSLAX25Y25*%
%IPPOS*%
%LPD*%
%AMOC8*
5,1,8,0,0,1.08239X$1,22.5*
%
%ADD10C,0.00394*%
%ADD11C,0.07050*%
%ADD12R,0.10236X0.06299*%
%ADD13R,0.06299X0.10236*%
%ADD14OC8,0.06300*%
%ADD15C,0.06000*%
%ADD16C,0.05600*%
%ADD17C,0.06000*%
%ADD18OC8,0.06000*%
%ADD19C,0.03543*%
%ADD20C,0.02362*%
%ADD21C,0.01600*%
%ADD22C,0.26772*%
D10*
X0001800Y0001800D02*
X0001800Y0198650D01*
X0198650Y0198650D01*
X0198650Y0001800D01*
X0001800Y0001800D01*
D11*
X0043454Y0018413D02*
X0043454Y0025463D01*
X0063454Y0025463D02*
X0063454Y0018413D01*
X0083454Y0018413D02*
X0083454Y0025463D01*
D12*
X0090501Y0125816D03*
X0102981Y0139005D03*
X0117154Y0139005D03*
X0076328Y0125816D03*
X0048572Y0133296D03*
X0034398Y0133296D03*
D13*
X0144123Y0133217D03*
X0144123Y0119044D03*
D14*
X0166209Y0141170D03*
X0186209Y0141170D03*
X0186209Y0058493D03*
X0166209Y0058493D03*
D15*
X0167784Y0097225D02*
X0167784Y0103225D01*
X0177784Y0103225D02*
X0177784Y0097225D01*
X0187784Y0097225D02*
X0187784Y0103225D01*
X0016611Y0122509D02*
X0010611Y0122509D01*
X0010611Y0132509D02*
X0016611Y0132509D01*
X0016611Y0142509D02*
X0010611Y0142509D01*
D16*
X0072666Y0061249D03*
X0081328Y0061249D03*
X0089989Y0061249D03*
X0089989Y0048650D03*
X0081328Y0048650D03*
X0072666Y0048650D03*
X0102587Y0048650D03*
X0102587Y0061249D03*
D17*
X0124083Y0008611D03*
D18*
X0124083Y0018611D03*
X0134083Y0018611D03*
X0134083Y0008611D03*
X0144083Y0008611D03*
X0144083Y0018611D03*
D19*
X0114792Y0042745D03*
X0123060Y0054950D03*
X0132902Y0054556D03*
X0136446Y0084871D03*
X0102981Y0103769D03*
X0102981Y0115186D03*
X0091170Y0115186D03*
X0100225Y0128178D03*
X0106131Y0128178D03*
X0091564Y0136052D03*
X0084871Y0136052D03*
X0091170Y0142351D03*
X0059280Y0132115D03*
X0051013Y0117548D03*
X0041957Y0117548D03*
X0030934Y0123060D03*
X0023847Y0115580D03*
X0022272Y0103769D03*
X0021879Y0088808D03*
X0041957Y0141957D03*
X0030934Y0142745D03*
X0049438Y0163611D03*
X0093926Y0182115D03*
X0144320Y0141957D03*
X0155737Y0126997D03*
X0155737Y0118335D03*
X0180934Y0113217D03*
X0174241Y0086839D03*
X0088020Y0086839D03*
X0052194Y0035265D03*
X0022666Y0035658D03*
X0146682Y0188414D03*
D20*
X0144320Y0141957D02*
X0144320Y0133414D01*
X0144123Y0133217D01*
X0103375Y0138808D02*
X0102981Y0139005D01*
X0102981Y0139792D01*
X0100225Y0142548D01*
X0091367Y0142548D01*
X0091170Y0142351D01*
X0091170Y0130658D02*
X0090501Y0125816D01*
X0091170Y0130658D02*
X0091170Y0115186D01*
X0102981Y0115186D02*
X0102981Y0103769D01*
X0059280Y0132115D02*
X0049753Y0132115D01*
X0048572Y0133296D01*
X0048572Y0140461D01*
X0047076Y0141957D01*
X0041957Y0141957D01*
X0023847Y0115580D02*
X0022272Y0114005D01*
X0022272Y0103769D01*
D21*
X0025183Y0102506D02*
X0100071Y0102506D01*
X0100292Y0101972D02*
X0099809Y0103138D01*
X0099809Y0104399D01*
X0100292Y0105565D01*
X0100400Y0105673D01*
X0100400Y0113282D01*
X0100292Y0113389D01*
X0099809Y0114555D01*
X0099809Y0115817D01*
X0100292Y0116982D01*
X0101184Y0117875D01*
X0102350Y0118357D01*
X0103612Y0118357D01*
X0104778Y0117875D01*
X0105670Y0116982D01*
X0106153Y0115817D01*
X0106153Y0114555D01*
X0105670Y0113389D01*
X0105562Y0113282D01*
X0105562Y0105673D01*
X0105670Y0105565D01*
X0106153Y0104399D01*
X0106153Y0103138D01*
X0105670Y0101972D01*
X0104778Y0101080D01*
X0103612Y0100597D01*
X0102350Y0100597D01*
X0101184Y0101080D01*
X0100292Y0101972D01*
X0101600Y0100908D02*
X0023654Y0100908D01*
X0024069Y0101080D02*
X0024961Y0101972D01*
X0025444Y0103138D01*
X0025444Y0104399D01*
X0024961Y0105565D01*
X0024854Y0105673D01*
X0024854Y0112563D01*
X0025644Y0112891D01*
X0026536Y0113783D01*
X0027019Y0114949D01*
X0027019Y0116210D01*
X0026536Y0117376D01*
X0025644Y0118268D01*
X0024478Y0118751D01*
X0023216Y0118751D01*
X0022051Y0118268D01*
X0021158Y0117376D01*
X0020676Y0116210D01*
X0020676Y0116058D01*
X0020084Y0115467D01*
X0019691Y0114518D01*
X0019691Y0105673D01*
X0019584Y0105565D01*
X0019101Y0104399D01*
X0019101Y0103138D01*
X0019584Y0101972D01*
X0020476Y0101080D01*
X0021642Y0100597D01*
X0022903Y0100597D01*
X0024069Y0101080D01*
X0020891Y0100908D02*
X0004797Y0100908D01*
X0004797Y0102506D02*
X0019362Y0102506D01*
X0019101Y0104105D02*
X0004797Y0104105D01*
X0004797Y0105703D02*
X0019691Y0105703D01*
X0019691Y0107302D02*
X0004797Y0107302D01*
X0004797Y0108900D02*
X0019691Y0108900D01*
X0019691Y0110499D02*
X0004797Y0110499D01*
X0004797Y0112097D02*
X0019691Y0112097D01*
X0019691Y0113696D02*
X0004797Y0113696D01*
X0004797Y0115294D02*
X0020013Y0115294D01*
X0020958Y0116893D02*
X0004797Y0116893D01*
X0004797Y0118491D02*
X0008289Y0118491D01*
X0008005Y0118609D02*
X0009696Y0117909D01*
X0017526Y0117909D01*
X0019217Y0118609D01*
X0020511Y0119903D01*
X0021211Y0121594D01*
X0021211Y0123424D01*
X0020511Y0125114D01*
X0019217Y0126408D01*
X0017526Y0127109D01*
X0009696Y0127109D01*
X0008005Y0126408D01*
X0006711Y0125114D01*
X0006011Y0123424D01*
X0006011Y0121594D01*
X0006711Y0119903D01*
X0008005Y0118609D01*
X0006634Y0120090D02*
X0004797Y0120090D01*
X0004797Y0121688D02*
X0006011Y0121688D01*
X0006011Y0123287D02*
X0004797Y0123287D01*
X0004797Y0124885D02*
X0006616Y0124885D01*
X0008188Y0126484D02*
X0004797Y0126484D01*
X0004797Y0128082D02*
X0083783Y0128082D01*
X0083783Y0129628D02*
X0083783Y0122003D01*
X0084720Y0121066D01*
X0088589Y0121066D01*
X0088589Y0117090D01*
X0088481Y0116982D01*
X0087998Y0115817D01*
X0087998Y0114555D01*
X0088481Y0113389D01*
X0089373Y0112497D01*
X0090539Y0112014D01*
X0091801Y0112014D01*
X0092967Y0112497D01*
X0093859Y0113389D01*
X0094342Y0114555D01*
X0094342Y0115817D01*
X0093859Y0116982D01*
X0093751Y0117090D01*
X0093751Y0121066D01*
X0096282Y0121066D01*
X0097219Y0122003D01*
X0097219Y0129628D01*
X0096282Y0130565D01*
X0093763Y0130565D01*
X0093797Y0130813D01*
X0093751Y0130990D01*
X0093751Y0131172D01*
X0093623Y0131482D01*
X0093538Y0131807D01*
X0093428Y0131952D01*
X0093358Y0132120D01*
X0093121Y0132358D01*
X0092918Y0132626D01*
X0092761Y0132718D01*
X0092632Y0132846D01*
X0092322Y0132975D01*
X0092032Y0133145D01*
X0091852Y0133170D01*
X0091683Y0133239D01*
X0091348Y0133239D01*
X0091015Y0133285D01*
X0090839Y0133239D01*
X0090657Y0133239D01*
X0090346Y0133111D01*
X0090021Y0133026D01*
X0089876Y0132916D01*
X0089708Y0132846D01*
X0089471Y0132609D01*
X0089203Y0132406D01*
X0089111Y0132249D01*
X0088982Y0132120D01*
X0088853Y0131810D01*
X0088684Y0131520D01*
X0088659Y0131340D01*
X0088589Y0131172D01*
X0088589Y0130836D01*
X0088552Y0130565D01*
X0084720Y0130565D01*
X0083783Y0129628D01*
X0083835Y0129681D02*
X0061332Y0129681D01*
X0061077Y0129426D02*
X0061969Y0130318D01*
X0062452Y0131484D01*
X0062452Y0132746D01*
X0061969Y0133912D01*
X0061077Y0134804D01*
X0059911Y0135287D01*
X0058649Y0135287D01*
X0057484Y0134804D01*
X0057376Y0134696D01*
X0055290Y0134696D01*
X0055290Y0137108D01*
X0054352Y0138046D01*
X0051153Y0138046D01*
X0051153Y0140975D01*
X0050760Y0141923D01*
X0049264Y0143420D01*
X0048538Y0144146D01*
X0047589Y0144539D01*
X0043862Y0144539D01*
X0043754Y0144646D01*
X0042588Y0145129D01*
X0041327Y0145129D01*
X0040161Y0144646D01*
X0039269Y0143754D01*
X0038786Y0142588D01*
X0038786Y0141327D01*
X0039269Y0140161D01*
X0040161Y0139269D01*
X0041327Y0138786D01*
X0042588Y0138786D01*
X0043754Y0139269D01*
X0043862Y0139376D01*
X0045991Y0139376D01*
X0045991Y0138046D01*
X0042791Y0138046D01*
X0041854Y0137108D01*
X0041854Y0129484D01*
X0042791Y0128546D01*
X0054352Y0128546D01*
X0055290Y0129484D01*
X0055290Y0129534D01*
X0057376Y0129534D01*
X0057484Y0129426D01*
X0058649Y0128943D01*
X0059911Y0128943D01*
X0061077Y0129426D01*
X0062367Y0131279D02*
X0088634Y0131279D01*
X0089784Y0132878D02*
X0062397Y0132878D01*
X0061404Y0134476D02*
X0096979Y0134476D01*
X0097200Y0134255D02*
X0108762Y0134255D01*
X0109699Y0135192D01*
X0109699Y0142817D01*
X0108762Y0143754D01*
X0102669Y0143754D01*
X0102413Y0144010D01*
X0101687Y0144736D01*
X0100739Y0145129D01*
X0092751Y0145129D01*
X0091801Y0145523D01*
X0090539Y0145523D01*
X0089373Y0145040D01*
X0088481Y0144148D01*
X0087998Y0142982D01*
X0087998Y0141720D01*
X0088481Y0140555D01*
X0089373Y0139662D01*
X0090539Y0139180D01*
X0091801Y0139180D01*
X0092967Y0139662D01*
X0093271Y0139967D01*
X0096263Y0139967D01*
X0096263Y0135192D01*
X0097200Y0134255D01*
X0096263Y0136075D02*
X0055290Y0136075D01*
X0054725Y0137673D02*
X0096263Y0137673D01*
X0096263Y0139272D02*
X0092024Y0139272D01*
X0090316Y0139272D02*
X0051153Y0139272D01*
X0051153Y0140870D02*
X0088350Y0140870D01*
X0087998Y0142469D02*
X0050214Y0142469D01*
X0049264Y0143420D02*
X0049264Y0143420D01*
X0048616Y0144068D02*
X0088448Y0144068D01*
X0092556Y0132878D02*
X0139373Y0132878D01*
X0139373Y0134476D02*
X0108983Y0134476D01*
X0109699Y0136075D02*
X0139373Y0136075D01*
X0139373Y0137673D02*
X0109699Y0137673D01*
X0109699Y0139272D02*
X0139647Y0139272D01*
X0139373Y0138998D02*
X0139373Y0127436D01*
X0140310Y0126499D01*
X0147935Y0126499D01*
X0148872Y0127436D01*
X0148872Y0138998D01*
X0147935Y0139935D01*
X0146901Y0139935D01*
X0146901Y0140053D01*
X0147008Y0140161D01*
X0147491Y0141327D01*
X0147491Y0142588D01*
X0147008Y0143754D01*
X0146116Y0144646D01*
X0144951Y0145129D01*
X0143689Y0145129D01*
X0142523Y0144646D01*
X0141631Y0143754D01*
X0141148Y0142588D01*
X0141148Y0141327D01*
X0141631Y0140161D01*
X0141739Y0140053D01*
X0141739Y0139935D01*
X0140310Y0139935D01*
X0139373Y0138998D01*
X0141337Y0140870D02*
X0109699Y0140870D01*
X0109699Y0142469D02*
X0141148Y0142469D01*
X0141944Y0144068D02*
X0102356Y0144068D01*
X0093707Y0131279D02*
X0139373Y0131279D01*
X0139373Y0129681D02*
X0097166Y0129681D01*
X0097219Y0128082D02*
X0139373Y0128082D01*
X0148872Y0128082D02*
X0195654Y0128082D01*
X0195654Y0126484D02*
X0097219Y0126484D01*
X0097219Y0124885D02*
X0195654Y0124885D01*
X0195654Y0123287D02*
X0097219Y0123287D01*
X0096904Y0121688D02*
X0195654Y0121688D01*
X0195654Y0120090D02*
X0093751Y0120090D01*
X0093751Y0118491D02*
X0195654Y0118491D01*
X0195654Y0116893D02*
X0105707Y0116893D01*
X0106153Y0115294D02*
X0195654Y0115294D01*
X0195654Y0113696D02*
X0105797Y0113696D01*
X0105562Y0112097D02*
X0195654Y0112097D01*
X0195654Y0110499D02*
X0105562Y0110499D01*
X0105562Y0108900D02*
X0195654Y0108900D01*
X0195654Y0107302D02*
X0189963Y0107302D01*
X0190390Y0107125D02*
X0188699Y0107825D01*
X0186869Y0107825D01*
X0185179Y0107125D01*
X0183885Y0105831D01*
X0183184Y0104140D01*
X0183184Y0096310D01*
X0183885Y0094620D01*
X0185179Y0093326D01*
X0186869Y0092625D01*
X0188699Y0092625D01*
X0190390Y0093326D01*
X0191684Y0094620D01*
X0192384Y0096310D01*
X0192384Y0104140D01*
X0191684Y0105831D01*
X0190390Y0107125D01*
X0191737Y0105703D02*
X0195654Y0105703D01*
X0195654Y0104105D02*
X0192384Y0104105D01*
X0192384Y0102506D02*
X0195654Y0102506D01*
X0195654Y0100908D02*
X0192384Y0100908D01*
X0192384Y0099309D02*
X0195654Y0099309D01*
X0195654Y0097711D02*
X0192384Y0097711D01*
X0192302Y0096112D02*
X0195654Y0096112D01*
X0195654Y0094514D02*
X0191578Y0094514D01*
X0189399Y0092915D02*
X0195654Y0092915D01*
X0195654Y0091317D02*
X0004797Y0091317D01*
X0004797Y0092915D02*
X0166169Y0092915D01*
X0166869Y0092625D02*
X0168699Y0092625D01*
X0170390Y0093326D01*
X0171684Y0094620D01*
X0172384Y0096310D01*
X0172384Y0104140D01*
X0171684Y0105831D01*
X0170390Y0107125D01*
X0168699Y0107825D01*
X0166869Y0107825D01*
X0165179Y0107125D01*
X0163885Y0105831D01*
X0163184Y0104140D01*
X0163184Y0096310D01*
X0163885Y0094620D01*
X0165179Y0093326D01*
X0166869Y0092625D01*
X0163990Y0094514D02*
X0004797Y0094514D01*
X0004797Y0096112D02*
X0163266Y0096112D01*
X0163184Y0097711D02*
X0004797Y0097711D01*
X0004797Y0099309D02*
X0163184Y0099309D01*
X0163184Y0100908D02*
X0104362Y0100908D01*
X0105891Y0102506D02*
X0163184Y0102506D01*
X0163184Y0104105D02*
X0106153Y0104105D01*
X0105562Y0105703D02*
X0163832Y0105703D01*
X0165606Y0107302D02*
X0105562Y0107302D01*
X0100400Y0107302D02*
X0024854Y0107302D01*
X0024854Y0108900D02*
X0100400Y0108900D01*
X0100400Y0110499D02*
X0024854Y0110499D01*
X0024854Y0112097D02*
X0090339Y0112097D01*
X0092002Y0112097D02*
X0100400Y0112097D01*
X0100165Y0113696D02*
X0093986Y0113696D01*
X0094342Y0115294D02*
X0099809Y0115294D01*
X0100255Y0116893D02*
X0093896Y0116893D01*
X0088589Y0118491D02*
X0025105Y0118491D01*
X0026736Y0116893D02*
X0088444Y0116893D01*
X0087998Y0115294D02*
X0027019Y0115294D01*
X0026449Y0113696D02*
X0088354Y0113696D01*
X0088589Y0120090D02*
X0020588Y0120090D01*
X0021211Y0121688D02*
X0084098Y0121688D01*
X0083783Y0123287D02*
X0021211Y0123287D01*
X0020606Y0124885D02*
X0083783Y0124885D01*
X0083783Y0126484D02*
X0019034Y0126484D01*
X0018933Y0118491D02*
X0022589Y0118491D01*
X0024854Y0105703D02*
X0100400Y0105703D01*
X0099809Y0104105D02*
X0025444Y0104105D01*
X0004797Y0089718D02*
X0195654Y0089718D01*
X0195654Y0088120D02*
X0004797Y0088120D01*
X0004797Y0086521D02*
X0195654Y0086521D01*
X0195654Y0084923D02*
X0004797Y0084923D01*
X0004797Y0083324D02*
X0195654Y0083324D01*
X0195654Y0081726D02*
X0004797Y0081726D01*
X0004797Y0080127D02*
X0195654Y0080127D01*
X0195654Y0078529D02*
X0004797Y0078529D01*
X0004797Y0076930D02*
X0195654Y0076930D01*
X0195654Y0075332D02*
X0004797Y0075332D01*
X0004797Y0073733D02*
X0195654Y0073733D01*
X0195654Y0072134D02*
X0004797Y0072134D01*
X0004797Y0070536D02*
X0195654Y0070536D01*
X0195654Y0068937D02*
X0004797Y0068937D01*
X0004797Y0067339D02*
X0195654Y0067339D01*
X0195654Y0065740D02*
X0004797Y0065740D01*
X0004797Y0064142D02*
X0069337Y0064142D01*
X0068936Y0063741D02*
X0068266Y0062124D01*
X0068266Y0060374D01*
X0068936Y0058756D01*
X0070174Y0057519D01*
X0071791Y0056849D01*
X0073541Y0056849D01*
X0075159Y0057519D01*
X0076396Y0058756D01*
X0076997Y0060206D01*
X0077597Y0058756D01*
X0078835Y0057519D01*
X0080452Y0056849D01*
X0082203Y0056849D01*
X0083820Y0057519D01*
X0085058Y0058756D01*
X0085658Y0060206D01*
X0086259Y0058756D01*
X0087497Y0057519D01*
X0089114Y0056849D01*
X0090864Y0056849D01*
X0092481Y0057519D01*
X0093719Y0058756D01*
X0094389Y0060374D01*
X0094389Y0062124D01*
X0093719Y0063741D01*
X0092481Y0064979D01*
X0090864Y0065649D01*
X0089114Y0065649D01*
X0087497Y0064979D01*
X0086259Y0063741D01*
X0085658Y0062291D01*
X0085058Y0063741D01*
X0083820Y0064979D01*
X0082203Y0065649D01*
X0080452Y0065649D01*
X0078835Y0064979D01*
X0077597Y0063741D01*
X0076997Y0062291D01*
X0076396Y0063741D01*
X0075159Y0064979D01*
X0073541Y0065649D01*
X0071791Y0065649D01*
X0070174Y0064979D01*
X0068936Y0063741D01*
X0068440Y0062543D02*
X0004797Y0062543D01*
X0004797Y0060945D02*
X0068266Y0060945D01*
X0068692Y0059346D02*
X0004797Y0059346D01*
X0004797Y0057748D02*
X0069945Y0057748D01*
X0071791Y0053050D02*
X0070174Y0052381D01*
X0068936Y0051143D01*
X0068266Y0049526D01*
X0068266Y0047775D01*
X0068936Y0046158D01*
X0070174Y0044920D01*
X0071791Y0044250D01*
X0073541Y0044250D01*
X0075159Y0044920D01*
X0076396Y0046158D01*
X0076997Y0047608D01*
X0077597Y0046158D01*
X0078835Y0044920D01*
X0080452Y0044250D01*
X0082203Y0044250D01*
X0083820Y0044920D01*
X0085058Y0046158D01*
X0085658Y0047608D01*
X0086259Y0046158D01*
X0087497Y0044920D01*
X0089114Y0044250D01*
X0090864Y0044250D01*
X0092481Y0044920D01*
X0093719Y0046158D01*
X0094389Y0047775D01*
X0094389Y0049526D01*
X0093719Y0051143D01*
X0092481Y0052381D01*
X0090864Y0053050D01*
X0089114Y0053050D01*
X0087497Y0052381D01*
X0086259Y0051143D01*
X0085658Y0049693D01*
X0085058Y0051143D01*
X0083820Y0052381D01*
X0082203Y0053050D01*
X0080452Y0053050D01*
X0078835Y0052381D01*
X0077597Y0051143D01*
X0076997Y0049693D01*
X0076396Y0051143D01*
X0075159Y0052381D01*
X0073541Y0053050D01*
X0071791Y0053050D01*
X0071554Y0052952D02*
X0004797Y0052952D01*
X0004797Y0051354D02*
X0069147Y0051354D01*
X0068361Y0049755D02*
X0004797Y0049755D01*
X0004797Y0048157D02*
X0068266Y0048157D01*
X0068770Y0046558D02*
X0004797Y0046558D01*
X0004797Y0044960D02*
X0070134Y0044960D01*
X0075198Y0044960D02*
X0078796Y0044960D01*
X0077432Y0046558D02*
X0076562Y0046558D01*
X0076971Y0049755D02*
X0077023Y0049755D01*
X0077808Y0051354D02*
X0076185Y0051354D01*
X0073778Y0052952D02*
X0080216Y0052952D01*
X0082439Y0052952D02*
X0088877Y0052952D01*
X0091101Y0052952D02*
X0101476Y0052952D01*
X0101712Y0053050D02*
X0100095Y0052381D01*
X0098857Y0051143D01*
X0098187Y0049526D01*
X0098187Y0047775D01*
X0098857Y0046158D01*
X0100095Y0044920D01*
X0101712Y0044250D01*
X0103463Y0044250D01*
X0105080Y0044920D01*
X0106318Y0046158D01*
X0106987Y0047775D01*
X0106987Y0049526D01*
X0106318Y0051143D01*
X0105080Y0052381D01*
X0103463Y0053050D01*
X0101712Y0053050D01*
X0103699Y0052952D02*
X0195654Y0052952D01*
X0195654Y0051354D02*
X0106106Y0051354D01*
X0106892Y0049755D02*
X0195654Y0049755D01*
X0195654Y0048157D02*
X0106987Y0048157D01*
X0106483Y0046558D02*
X0195654Y0046558D01*
X0195654Y0044960D02*
X0105119Y0044960D01*
X0100055Y0044960D02*
X0092521Y0044960D01*
X0093885Y0046558D02*
X0098691Y0046558D01*
X0098187Y0048157D02*
X0094389Y0048157D01*
X0094294Y0049755D02*
X0098283Y0049755D01*
X0099068Y0051354D02*
X0093508Y0051354D01*
X0092711Y0057748D02*
X0099866Y0057748D01*
X0100095Y0057519D02*
X0101712Y0056849D01*
X0103463Y0056849D01*
X0105080Y0057519D01*
X0106318Y0058756D01*
X0106987Y0060374D01*
X0106987Y0062124D01*
X0106318Y0063741D01*
X0105080Y0064979D01*
X0103463Y0065649D01*
X0101712Y0065649D01*
X0100095Y0064979D01*
X0098857Y0063741D01*
X0098187Y0062124D01*
X0098187Y0060374D01*
X0098857Y0058756D01*
X0100095Y0057519D01*
X0098613Y0059346D02*
X0093963Y0059346D01*
X0094389Y0060945D02*
X0098187Y0060945D01*
X0098361Y0062543D02*
X0094215Y0062543D01*
X0093318Y0064142D02*
X0099258Y0064142D01*
X0105917Y0064142D02*
X0195654Y0064142D01*
X0195654Y0062543D02*
X0188876Y0062543D01*
X0188177Y0063243D02*
X0184242Y0063243D01*
X0181459Y0060460D01*
X0181459Y0056525D01*
X0184242Y0053743D01*
X0188177Y0053743D01*
X0190959Y0056525D01*
X0190959Y0060460D01*
X0188177Y0063243D01*
X0190475Y0060945D02*
X0195654Y0060945D01*
X0195654Y0059346D02*
X0190959Y0059346D01*
X0190959Y0057748D02*
X0195654Y0057748D01*
X0195654Y0056149D02*
X0190583Y0056149D01*
X0188985Y0054551D02*
X0195654Y0054551D01*
X0195654Y0043361D02*
X0004797Y0043361D01*
X0004797Y0041763D02*
X0195654Y0041763D01*
X0195654Y0040164D02*
X0004797Y0040164D01*
X0004797Y0038566D02*
X0195654Y0038566D01*
X0195654Y0036967D02*
X0004797Y0036967D01*
X0004797Y0035369D02*
X0195654Y0035369D01*
X0195654Y0033770D02*
X0004797Y0033770D01*
X0004797Y0032172D02*
X0195654Y0032172D01*
X0195654Y0030573D02*
X0084508Y0030573D01*
X0084473Y0030588D02*
X0082434Y0030588D01*
X0080550Y0029808D01*
X0079109Y0028366D01*
X0078329Y0026482D01*
X0078329Y0017393D01*
X0079109Y0015510D01*
X0080550Y0014068D01*
X0082434Y0013288D01*
X0084473Y0013288D01*
X0086357Y0014068D01*
X0087798Y0015510D01*
X0088579Y0017393D01*
X0088579Y0026482D01*
X0087798Y0028366D01*
X0086357Y0029808D01*
X0084473Y0030588D01*
X0087189Y0028975D02*
X0195654Y0028975D01*
X0195654Y0027376D02*
X0088208Y0027376D01*
X0088579Y0025778D02*
X0195654Y0025778D01*
X0195654Y0024179D02*
X0088579Y0024179D01*
X0088579Y0022581D02*
X0121548Y0022581D01*
X0122178Y0023211D02*
X0119483Y0020516D01*
X0119483Y0016706D01*
X0122178Y0014011D01*
X0125989Y0014011D01*
X0128683Y0016706D01*
X0128683Y0020516D01*
X0125989Y0023211D01*
X0122178Y0023211D01*
X0119949Y0020982D02*
X0088579Y0020982D01*
X0088579Y0019384D02*
X0119483Y0019384D01*
X0119483Y0017785D02*
X0088579Y0017785D01*
X0088079Y0016187D02*
X0120002Y0016187D01*
X0121601Y0014588D02*
X0086877Y0014588D01*
X0080030Y0014588D02*
X0046877Y0014588D01*
X0046357Y0014068D02*
X0047798Y0015510D01*
X0048579Y0017393D01*
X0048579Y0026482D01*
X0047798Y0028366D01*
X0046357Y0029808D01*
X0044473Y0030588D01*
X0042434Y0030588D01*
X0040550Y0029808D01*
X0039109Y0028366D01*
X0038329Y0026482D01*
X0038329Y0017393D01*
X0039109Y0015510D01*
X0040550Y0014068D01*
X0042434Y0013288D01*
X0044473Y0013288D01*
X0046357Y0014068D01*
X0048079Y0016187D02*
X0078828Y0016187D01*
X0078329Y0017785D02*
X0048579Y0017785D01*
X0048579Y0019384D02*
X0078329Y0019384D01*
X0078329Y0020982D02*
X0048579Y0020982D01*
X0048579Y0022581D02*
X0078329Y0022581D01*
X0078329Y0024179D02*
X0048579Y0024179D01*
X0048579Y0025778D02*
X0078329Y0025778D01*
X0078699Y0027376D02*
X0048208Y0027376D01*
X0047189Y0028975D02*
X0079718Y0028975D01*
X0082399Y0030573D02*
X0044508Y0030573D01*
X0042399Y0030573D02*
X0004797Y0030573D01*
X0004797Y0028975D02*
X0039718Y0028975D01*
X0038699Y0027376D02*
X0004797Y0027376D01*
X0004797Y0025778D02*
X0038329Y0025778D01*
X0038329Y0024179D02*
X0004797Y0024179D01*
X0004797Y0022581D02*
X0038329Y0022581D01*
X0038329Y0020982D02*
X0004797Y0020982D01*
X0004797Y0019384D02*
X0038329Y0019384D01*
X0038329Y0017785D02*
X0004797Y0017785D01*
X0004797Y0016187D02*
X0038828Y0016187D01*
X0040030Y0014588D02*
X0004797Y0014588D01*
X0004797Y0012990D02*
X0195654Y0012990D01*
X0195654Y0014588D02*
X0146566Y0014588D01*
X0145989Y0014011D02*
X0148683Y0016706D01*
X0148683Y0020516D01*
X0145989Y0023211D01*
X0142178Y0023211D01*
X0139483Y0020516D01*
X0139483Y0016706D01*
X0142178Y0014011D01*
X0145989Y0014011D01*
X0148164Y0016187D02*
X0195654Y0016187D01*
X0195654Y0017785D02*
X0148683Y0017785D01*
X0148683Y0019384D02*
X0195654Y0019384D01*
X0195654Y0020982D02*
X0148218Y0020982D01*
X0146619Y0022581D02*
X0195654Y0022581D01*
X0195654Y0011391D02*
X0004797Y0011391D01*
X0004797Y0009793D02*
X0195654Y0009793D01*
X0195654Y0008194D02*
X0004797Y0008194D01*
X0004797Y0006596D02*
X0195654Y0006596D01*
X0195654Y0004997D02*
X0004797Y0004997D01*
X0004797Y0004797D02*
X0004797Y0195654D01*
X0195654Y0195654D01*
X0195654Y0004797D01*
X0004797Y0004797D01*
X0004797Y0054551D02*
X0163434Y0054551D01*
X0164242Y0053743D02*
X0161459Y0056525D01*
X0161459Y0060460D01*
X0164242Y0063243D01*
X0168177Y0063243D01*
X0170959Y0060460D01*
X0170959Y0056525D01*
X0168177Y0053743D01*
X0164242Y0053743D01*
X0161835Y0056149D02*
X0004797Y0056149D01*
X0075388Y0057748D02*
X0078606Y0057748D01*
X0077353Y0059346D02*
X0076641Y0059346D01*
X0076892Y0062543D02*
X0077101Y0062543D01*
X0077998Y0064142D02*
X0075996Y0064142D01*
X0084049Y0057748D02*
X0087267Y0057748D01*
X0086014Y0059346D02*
X0085302Y0059346D01*
X0085554Y0062543D02*
X0085763Y0062543D01*
X0086660Y0064142D02*
X0084657Y0064142D01*
X0084847Y0051354D02*
X0086470Y0051354D01*
X0085684Y0049755D02*
X0085632Y0049755D01*
X0085223Y0046558D02*
X0086093Y0046558D01*
X0087457Y0044960D02*
X0083860Y0044960D01*
X0105309Y0057748D02*
X0161459Y0057748D01*
X0161459Y0059346D02*
X0106562Y0059346D01*
X0106987Y0060945D02*
X0161944Y0060945D01*
X0163542Y0062543D02*
X0106814Y0062543D01*
X0126619Y0022581D02*
X0131548Y0022581D01*
X0132178Y0023211D02*
X0129483Y0020516D01*
X0129483Y0016706D01*
X0132178Y0014011D01*
X0135989Y0014011D01*
X0138683Y0016706D01*
X0138683Y0020516D01*
X0135989Y0023211D01*
X0132178Y0023211D01*
X0129949Y0020982D02*
X0128218Y0020982D01*
X0128683Y0019384D02*
X0129483Y0019384D01*
X0129483Y0017785D02*
X0128683Y0017785D01*
X0128164Y0016187D02*
X0130002Y0016187D01*
X0131601Y0014588D02*
X0126566Y0014588D01*
X0136566Y0014588D02*
X0141601Y0014588D01*
X0140002Y0016187D02*
X0138164Y0016187D01*
X0138683Y0017785D02*
X0139483Y0017785D01*
X0139483Y0019384D02*
X0138683Y0019384D01*
X0138218Y0020982D02*
X0139949Y0020982D01*
X0141548Y0022581D02*
X0136619Y0022581D01*
X0168985Y0054551D02*
X0183434Y0054551D01*
X0181835Y0056149D02*
X0170583Y0056149D01*
X0170959Y0057748D02*
X0181459Y0057748D01*
X0181459Y0059346D02*
X0170959Y0059346D01*
X0170475Y0060945D02*
X0181944Y0060945D01*
X0183542Y0062543D02*
X0168876Y0062543D01*
X0169399Y0092915D02*
X0186169Y0092915D01*
X0183990Y0094514D02*
X0171578Y0094514D01*
X0172302Y0096112D02*
X0183266Y0096112D01*
X0183184Y0097711D02*
X0172384Y0097711D01*
X0172384Y0099309D02*
X0183184Y0099309D01*
X0183184Y0100908D02*
X0172384Y0100908D01*
X0172384Y0102506D02*
X0183184Y0102506D01*
X0183184Y0104105D02*
X0172384Y0104105D01*
X0171737Y0105703D02*
X0183832Y0105703D01*
X0185606Y0107302D02*
X0169963Y0107302D01*
X0148872Y0129681D02*
X0195654Y0129681D01*
X0195654Y0131279D02*
X0148872Y0131279D01*
X0148872Y0132878D02*
X0195654Y0132878D01*
X0195654Y0134476D02*
X0148872Y0134476D01*
X0148872Y0136075D02*
X0195654Y0136075D01*
X0195654Y0137673D02*
X0189430Y0137673D01*
X0188177Y0136420D02*
X0190959Y0139203D01*
X0190959Y0143138D01*
X0188177Y0145920D01*
X0184242Y0145920D01*
X0181459Y0143138D01*
X0181459Y0139203D01*
X0184242Y0136420D01*
X0188177Y0136420D01*
X0190959Y0139272D02*
X0195654Y0139272D01*
X0195654Y0140870D02*
X0190959Y0140870D01*
X0190959Y0142469D02*
X0195654Y0142469D01*
X0195654Y0144068D02*
X0190030Y0144068D01*
X0188431Y0145666D02*
X0195654Y0145666D01*
X0195654Y0147265D02*
X0004797Y0147265D01*
X0004797Y0148863D02*
X0195654Y0148863D01*
X0195654Y0150462D02*
X0004797Y0150462D01*
X0004797Y0152060D02*
X0195654Y0152060D01*
X0195654Y0153659D02*
X0004797Y0153659D01*
X0004797Y0155257D02*
X0195654Y0155257D01*
X0195654Y0156856D02*
X0004797Y0156856D01*
X0004797Y0158454D02*
X0195654Y0158454D01*
X0195654Y0160053D02*
X0004797Y0160053D01*
X0004797Y0161651D02*
X0195654Y0161651D01*
X0195654Y0163250D02*
X0004797Y0163250D01*
X0004797Y0164848D02*
X0195654Y0164848D01*
X0195654Y0166447D02*
X0004797Y0166447D01*
X0004797Y0168045D02*
X0195654Y0168045D01*
X0195654Y0169644D02*
X0004797Y0169644D01*
X0004797Y0171242D02*
X0195654Y0171242D01*
X0195654Y0172841D02*
X0004797Y0172841D01*
X0004797Y0174439D02*
X0195654Y0174439D01*
X0195654Y0176038D02*
X0004797Y0176038D01*
X0004797Y0177636D02*
X0195654Y0177636D01*
X0195654Y0179235D02*
X0004797Y0179235D01*
X0004797Y0180833D02*
X0195654Y0180833D01*
X0195654Y0182432D02*
X0004797Y0182432D01*
X0004797Y0184030D02*
X0195654Y0184030D01*
X0195654Y0185629D02*
X0004797Y0185629D01*
X0004797Y0187227D02*
X0195654Y0187227D01*
X0195654Y0188826D02*
X0004797Y0188826D01*
X0004797Y0190424D02*
X0195654Y0190424D01*
X0195654Y0192023D02*
X0004797Y0192023D01*
X0004797Y0193621D02*
X0195654Y0193621D01*
X0195654Y0195220D02*
X0004797Y0195220D01*
X0009696Y0147109D02*
X0008005Y0146408D01*
X0006711Y0145114D01*
X0006011Y0143424D01*
X0006011Y0141594D01*
X0006711Y0139903D01*
X0008005Y0138609D01*
X0009696Y0137909D01*
X0017526Y0137909D01*
X0019217Y0138609D01*
X0020511Y0139903D01*
X0021211Y0141594D01*
X0021211Y0143424D01*
X0020511Y0145114D01*
X0019217Y0146408D01*
X0017526Y0147109D01*
X0009696Y0147109D01*
X0007263Y0145666D02*
X0004797Y0145666D01*
X0004797Y0144068D02*
X0006278Y0144068D01*
X0006011Y0142469D02*
X0004797Y0142469D01*
X0004797Y0140870D02*
X0006311Y0140870D01*
X0007342Y0139272D02*
X0004797Y0139272D01*
X0004797Y0137673D02*
X0042419Y0137673D01*
X0041854Y0136075D02*
X0004797Y0136075D01*
X0004797Y0134476D02*
X0041854Y0134476D01*
X0041854Y0132878D02*
X0004797Y0132878D01*
X0004797Y0131279D02*
X0041854Y0131279D01*
X0041854Y0129681D02*
X0004797Y0129681D01*
X0019880Y0139272D02*
X0040158Y0139272D01*
X0038975Y0140870D02*
X0020911Y0140870D01*
X0021211Y0142469D02*
X0038786Y0142469D01*
X0039582Y0144068D02*
X0020944Y0144068D01*
X0019959Y0145666D02*
X0163988Y0145666D01*
X0164242Y0145920D02*
X0161459Y0143138D01*
X0161459Y0139203D01*
X0164242Y0136420D01*
X0168177Y0136420D01*
X0170959Y0139203D01*
X0170959Y0143138D01*
X0168177Y0145920D01*
X0164242Y0145920D01*
X0162389Y0144068D02*
X0146695Y0144068D01*
X0147491Y0142469D02*
X0161459Y0142469D01*
X0161459Y0140870D02*
X0147302Y0140870D01*
X0148599Y0139272D02*
X0161459Y0139272D01*
X0162989Y0137673D02*
X0148872Y0137673D01*
X0168431Y0145666D02*
X0183988Y0145666D01*
X0182389Y0144068D02*
X0170030Y0144068D01*
X0170959Y0142469D02*
X0181459Y0142469D01*
X0181459Y0140870D02*
X0170959Y0140870D01*
X0170959Y0139272D02*
X0181459Y0139272D01*
X0182989Y0137673D02*
X0169430Y0137673D01*
X0045991Y0139272D02*
X0043757Y0139272D01*
D22*
X0017548Y0182902D03*
X0182902Y0182902D03*
X0182902Y0017548D03*
X0017548Y0017548D03*
M02*
