%
M48
M72
T01C0.01575
T02C0.03200
T03C0.03543
T04C0.04000
T05C0.04700
T06C0.12598
%
T01
X22666Y35658
X52194Y35265
X88020Y86839
X102981Y103769
X102981Y115186
X91170Y115186
X100225Y128178
X106131Y128178
X91564Y136052
X84871Y136052
X91170Y142351
X59280Y132115
X51013Y117548
X41957Y117548
X30934Y123060
X23847Y115580
X22272Y103769
X21879Y88808
X41957Y141957
X30934Y142745
X49438Y163611
X93926Y182115
X144320Y141957
X155737Y126997
X155737Y118335
X180934Y113217
X174241Y86839
X136446Y84871
X132902Y54556
X123060Y54950
X114792Y42745
X146682Y188414
T02
X166209Y141170
X186209Y141170
X186209Y58493
X166209Y58493
T03
X102587Y61249
X102587Y48650
X89989Y48650
X81328Y48650
X72666Y48650
X72666Y61249
X81328Y61249
X89989Y61249
T04
X124083Y18611
X124083Y8611
X134083Y8611
X134083Y18611
X144083Y18611
X144083Y8611
X167784Y100225
X177784Y100225
X187784Y100225
X13611Y122509
X13611Y132509
X13611Y142509
T05
X43454Y21938
X63454Y21938
X83454Y21938
T06
X17548Y17548
X182902Y17548
X182902Y182902
X17548Y182902
M30
