G75*
%MOIN*%
%OFA0B0*%
%FSLAX25Y25*%
%IPPOS*%
%LPD*%
%AMOC8*
5,1,8,0,0,1.08239X$1,22.5*
%
%ADD10C,0.00394*%
%ADD11C,0.00300*%
%ADD12C,0.00600*%
%ADD13C,0.00400*%
%ADD14C,0.00800*%
%ADD15C,0.01600*%
%ADD16C,0.00500*%
D10*
X0001800Y0001800D02*
X0001800Y0198650D01*
X0198650Y0198650D01*
X0198650Y0001800D01*
X0001800Y0001800D01*
D11*
X0038170Y0041172D02*
X0040597Y0041172D01*
X0041796Y0041778D02*
X0043009Y0042992D01*
X0043009Y0039352D01*
X0041796Y0039352D02*
X0044222Y0039352D01*
X0045421Y0039958D02*
X0045421Y0040565D01*
X0046027Y0041172D01*
X0047241Y0041172D01*
X0047847Y0040565D01*
X0047847Y0039958D01*
X0047241Y0039352D01*
X0046027Y0039352D01*
X0045421Y0039958D01*
X0046027Y0041172D02*
X0045421Y0041778D01*
X0045421Y0042385D01*
X0046027Y0042992D01*
X0047241Y0042992D01*
X0047847Y0042385D01*
X0047847Y0041778D01*
X0047241Y0041172D01*
X0049046Y0040565D02*
X0050259Y0039352D01*
X0051473Y0040565D01*
X0051473Y0042992D01*
X0049046Y0042992D02*
X0049046Y0040565D01*
X0057856Y0041172D02*
X0059069Y0041172D01*
X0060282Y0042992D02*
X0057856Y0042992D01*
X0057856Y0039352D01*
X0060282Y0039352D01*
X0061481Y0039352D02*
X0061481Y0041778D01*
X0061481Y0040565D02*
X0062694Y0041778D01*
X0063301Y0041778D01*
X0064502Y0041172D02*
X0064502Y0039958D01*
X0065108Y0039352D01*
X0066928Y0039352D01*
X0066928Y0042992D01*
X0066928Y0041778D02*
X0065108Y0041778D01*
X0064502Y0041172D01*
X0068127Y0041172D02*
X0068127Y0039958D01*
X0068733Y0039352D01*
X0069947Y0039352D01*
X0070553Y0040565D02*
X0068127Y0040565D01*
X0068127Y0041172D02*
X0068733Y0041778D01*
X0069947Y0041778D01*
X0070553Y0041172D01*
X0070553Y0040565D01*
X0077934Y0041172D02*
X0080361Y0041172D01*
X0081559Y0041778D02*
X0082773Y0042992D01*
X0082773Y0039352D01*
X0083986Y0039352D02*
X0081559Y0039352D01*
X0079148Y0039958D02*
X0079148Y0042385D01*
X0085185Y0042385D02*
X0085185Y0041778D01*
X0085791Y0041172D01*
X0087005Y0041172D01*
X0087611Y0040565D01*
X0087611Y0039958D01*
X0087005Y0039352D01*
X0085791Y0039352D01*
X0085185Y0039958D01*
X0085185Y0040565D01*
X0085791Y0041172D01*
X0087005Y0041172D02*
X0087611Y0041778D01*
X0087611Y0042385D01*
X0087005Y0042992D01*
X0085791Y0042992D01*
X0085185Y0042385D01*
X0088810Y0042992D02*
X0088810Y0040565D01*
X0090023Y0039352D01*
X0091236Y0040565D01*
X0091236Y0042992D01*
X0102534Y0028848D02*
X0101927Y0028242D01*
X0101927Y0027028D01*
X0102534Y0026422D01*
X0102534Y0025223D02*
X0104961Y0025223D01*
X0105567Y0024617D01*
X0105567Y0023403D01*
X0104961Y0022796D01*
X0102534Y0022796D01*
X0101927Y0023403D01*
X0101927Y0024617D01*
X0102534Y0025223D01*
X0104354Y0024010D02*
X0105567Y0025223D01*
X0105567Y0026422D02*
X0103141Y0028848D01*
X0102534Y0028848D01*
X0105567Y0028848D02*
X0105567Y0026422D01*
X0116195Y0045513D02*
X0118622Y0045513D01*
X0119229Y0046120D01*
X0119229Y0047333D01*
X0118622Y0047940D01*
X0119229Y0049138D02*
X0119229Y0051565D01*
X0119229Y0050351D02*
X0115589Y0050351D01*
X0116802Y0049138D01*
X0116195Y0047940D02*
X0115589Y0047333D01*
X0115589Y0046120D01*
X0116195Y0045513D01*
X0126612Y0037785D02*
X0126612Y0035359D01*
X0127219Y0034160D02*
X0126612Y0033554D01*
X0126612Y0031733D01*
X0130252Y0031733D01*
X0129039Y0031733D02*
X0129039Y0033554D01*
X0128432Y0034160D01*
X0127219Y0034160D01*
X0129039Y0032947D02*
X0130252Y0034160D01*
X0130252Y0035359D02*
X0129646Y0035359D01*
X0127219Y0037785D01*
X0126612Y0037785D01*
X0136455Y0041576D02*
X0136455Y0043396D01*
X0137061Y0044003D01*
X0138275Y0044003D01*
X0138882Y0043396D01*
X0138882Y0041576D01*
X0140095Y0041576D02*
X0136455Y0041576D01*
X0138882Y0042789D02*
X0140095Y0044003D01*
X0139488Y0045201D02*
X0140095Y0045808D01*
X0140095Y0047021D01*
X0139488Y0047628D01*
X0138882Y0047628D01*
X0138275Y0047021D01*
X0138275Y0046414D01*
X0138275Y0047021D02*
X0137668Y0047628D01*
X0137061Y0047628D01*
X0136455Y0047021D01*
X0136455Y0045808D01*
X0137061Y0045201D01*
X0136455Y0048826D02*
X0138275Y0048826D01*
X0137668Y0050040D01*
X0137668Y0050646D01*
X0138275Y0051253D01*
X0139488Y0051253D01*
X0140095Y0050646D01*
X0140095Y0049433D01*
X0139488Y0048826D01*
X0136455Y0048826D02*
X0136455Y0051253D01*
X0134828Y0070454D02*
X0133008Y0070454D01*
X0132401Y0071061D01*
X0132401Y0072274D01*
X0133008Y0072881D01*
X0134828Y0072881D01*
X0134828Y0074094D02*
X0134828Y0070454D01*
X0131198Y0070454D02*
X0129985Y0070454D01*
X0130591Y0070454D02*
X0130591Y0074094D01*
X0129985Y0074094D01*
X0128786Y0072881D02*
X0126966Y0072881D01*
X0126359Y0072274D01*
X0126966Y0071667D01*
X0128180Y0071667D01*
X0128786Y0071061D01*
X0128180Y0070454D01*
X0126359Y0070454D01*
X0113507Y0073289D02*
X0112294Y0074502D01*
X0112901Y0074502D02*
X0111081Y0074502D01*
X0109882Y0074502D02*
X0109882Y0073895D01*
X0109276Y0073289D01*
X0108062Y0073289D01*
X0107456Y0073895D01*
X0106257Y0073895D02*
X0105651Y0073289D01*
X0104437Y0073289D01*
X0103830Y0073895D01*
X0103830Y0076322D01*
X0104437Y0076929D01*
X0105651Y0076929D01*
X0106257Y0076322D01*
X0107456Y0076322D02*
X0108062Y0076929D01*
X0109276Y0076929D01*
X0109882Y0076322D01*
X0109882Y0075715D01*
X0109276Y0075109D01*
X0109882Y0074502D01*
X0109276Y0075109D02*
X0108669Y0075109D01*
X0111081Y0073289D02*
X0111081Y0076929D01*
X0112901Y0076929D01*
X0113507Y0076322D01*
X0113507Y0075109D01*
X0112901Y0074502D01*
X0113520Y0065220D02*
X0113520Y0062793D01*
X0113520Y0061595D02*
X0111700Y0059775D01*
X0112307Y0059168D02*
X0109880Y0061595D01*
X0111093Y0062793D02*
X0109880Y0064007D01*
X0113520Y0064007D01*
X0113520Y0059168D02*
X0109880Y0059168D01*
X0139652Y0070454D02*
X0142078Y0072881D01*
X0142078Y0073487D01*
X0141472Y0074094D01*
X0140258Y0074094D01*
X0139652Y0073487D01*
X0139652Y0070454D02*
X0142078Y0070454D01*
X0143277Y0071061D02*
X0143277Y0073487D01*
X0143883Y0074094D01*
X0145097Y0074094D01*
X0145703Y0073487D01*
X0143277Y0071061D01*
X0143883Y0070454D01*
X0145097Y0070454D01*
X0145703Y0071061D01*
X0145703Y0073487D01*
X0146902Y0072881D02*
X0148115Y0074094D01*
X0148115Y0070454D01*
X0146902Y0070454D02*
X0149329Y0070454D01*
X0150527Y0070454D02*
X0150527Y0071061D01*
X0152954Y0073487D01*
X0152954Y0074094D01*
X0150527Y0074094D01*
X0148803Y0083426D02*
X0147589Y0084640D01*
X0148196Y0084640D02*
X0146376Y0084640D01*
X0146376Y0083426D02*
X0146376Y0087066D01*
X0148196Y0087066D01*
X0148803Y0086460D01*
X0148803Y0085246D01*
X0148196Y0084640D01*
X0145178Y0085246D02*
X0142751Y0085246D01*
X0144571Y0087066D01*
X0144571Y0083426D01*
X0141552Y0084033D02*
X0140946Y0083426D01*
X0139732Y0083426D01*
X0139126Y0084033D01*
X0139126Y0086460D01*
X0139732Y0087066D01*
X0140946Y0087066D01*
X0141552Y0086460D01*
X0142133Y0101694D02*
X0142133Y0105334D01*
X0143953Y0105334D01*
X0144560Y0104728D01*
X0144560Y0103514D01*
X0143953Y0102907D01*
X0142133Y0102907D01*
X0140935Y0102907D02*
X0140935Y0102301D01*
X0140328Y0101694D01*
X0139115Y0101694D01*
X0138508Y0102301D01*
X0138508Y0102907D01*
X0139115Y0103514D01*
X0140328Y0103514D01*
X0140935Y0102907D01*
X0140328Y0103514D02*
X0140935Y0104121D01*
X0140935Y0104728D01*
X0140328Y0105334D01*
X0139115Y0105334D01*
X0138508Y0104728D01*
X0138508Y0104121D01*
X0139115Y0103514D01*
X0137310Y0103514D02*
X0137310Y0104728D01*
X0136703Y0105334D01*
X0134883Y0105334D01*
X0134883Y0101694D01*
X0134883Y0102907D02*
X0136703Y0102907D01*
X0137310Y0103514D01*
X0136096Y0102907D02*
X0137310Y0101694D01*
X0143347Y0102907D02*
X0144560Y0101694D01*
X0151887Y0112068D02*
X0153101Y0112068D01*
X0153707Y0112675D01*
X0154906Y0112068D02*
X0157333Y0112068D01*
X0156119Y0112068D02*
X0156119Y0115708D01*
X0154906Y0114495D01*
X0153707Y0115102D02*
X0153101Y0115708D01*
X0151887Y0115708D01*
X0151281Y0115102D01*
X0151281Y0112675D01*
X0151887Y0112068D01*
X0158531Y0113888D02*
X0160958Y0113888D01*
X0160351Y0112068D02*
X0160351Y0115708D01*
X0158531Y0113888D01*
X0169323Y0110334D02*
X0169323Y0106694D01*
X0169323Y0107907D02*
X0171143Y0107907D01*
X0171749Y0108514D01*
X0171749Y0109728D01*
X0171143Y0110334D01*
X0169323Y0110334D01*
X0170536Y0107907D02*
X0171749Y0106694D01*
X0172948Y0107301D02*
X0173554Y0106694D01*
X0174768Y0106694D01*
X0175374Y0107301D01*
X0175374Y0109728D01*
X0174768Y0110334D01*
X0173554Y0110334D01*
X0172948Y0109728D01*
X0172948Y0109121D01*
X0173554Y0108514D01*
X0175374Y0108514D01*
X0176573Y0106694D02*
X0179000Y0106694D01*
X0176573Y0106694D02*
X0176573Y0110334D01*
X0176346Y0093563D02*
X0178166Y0093563D01*
X0178773Y0092956D01*
X0178773Y0091742D01*
X0178166Y0091136D01*
X0176346Y0091136D01*
X0177559Y0091136D02*
X0178773Y0089922D01*
X0176346Y0089922D02*
X0176346Y0093563D01*
X0175148Y0092956D02*
X0174541Y0093563D01*
X0173327Y0093563D01*
X0172721Y0092956D01*
X0172721Y0092349D01*
X0173327Y0091742D01*
X0175148Y0091742D01*
X0175148Y0090529D02*
X0175148Y0092956D01*
X0175148Y0090529D02*
X0174541Y0089922D01*
X0173327Y0089922D01*
X0172721Y0090529D01*
X0171522Y0089922D02*
X0170309Y0091136D01*
X0170916Y0091136D02*
X0169096Y0091136D01*
X0169096Y0089922D02*
X0169096Y0093563D01*
X0170916Y0093563D01*
X0171522Y0092956D01*
X0171522Y0091742D01*
X0170916Y0091136D01*
X0156414Y0131753D02*
X0155201Y0131753D01*
X0154594Y0132360D01*
X0154594Y0133573D02*
X0155807Y0134180D01*
X0156414Y0134180D01*
X0157021Y0133573D01*
X0157021Y0132360D01*
X0156414Y0131753D01*
X0154594Y0133573D02*
X0154594Y0135393D01*
X0157021Y0135393D01*
X0153396Y0131753D02*
X0150969Y0131753D01*
X0152182Y0131753D02*
X0152182Y0135393D01*
X0150969Y0134180D01*
X0149770Y0134787D02*
X0149164Y0135393D01*
X0147950Y0135393D01*
X0147344Y0134787D01*
X0147344Y0132360D01*
X0147950Y0131753D01*
X0149164Y0131753D01*
X0149770Y0132360D01*
X0140103Y0135216D02*
X0140103Y0136429D01*
X0140103Y0135823D02*
X0136463Y0135823D01*
X0136463Y0136429D02*
X0136463Y0135216D01*
X0137069Y0137633D02*
X0136463Y0138239D01*
X0136463Y0139453D01*
X0137069Y0140060D01*
X0137069Y0141258D02*
X0136463Y0141865D01*
X0136463Y0143078D01*
X0137069Y0143685D01*
X0137676Y0143685D01*
X0140103Y0141258D01*
X0140103Y0143685D01*
X0139496Y0140060D02*
X0140103Y0139453D01*
X0140103Y0138239D01*
X0139496Y0137633D01*
X0137069Y0137633D01*
X0117674Y0137921D02*
X0114034Y0137921D01*
X0115247Y0136708D01*
X0114640Y0135509D02*
X0114034Y0134902D01*
X0114034Y0133689D01*
X0114640Y0133082D01*
X0117067Y0133082D01*
X0117674Y0133689D01*
X0117674Y0134902D01*
X0117067Y0135509D01*
X0117674Y0136708D02*
X0117674Y0139134D01*
X0117067Y0140333D02*
X0116460Y0140333D01*
X0115854Y0140939D01*
X0115854Y0142153D01*
X0116460Y0142759D01*
X0117067Y0142759D01*
X0117674Y0142153D01*
X0117674Y0140939D01*
X0117067Y0140333D01*
X0115854Y0140939D02*
X0115247Y0140333D01*
X0114640Y0140333D01*
X0114034Y0140939D01*
X0114034Y0142153D01*
X0114640Y0142759D01*
X0115247Y0142759D01*
X0115854Y0142153D01*
X0109012Y0140333D02*
X0108406Y0140333D01*
X0105979Y0142759D01*
X0105372Y0142759D01*
X0105372Y0140333D01*
X0105372Y0137921D02*
X0109012Y0137921D01*
X0109012Y0136708D02*
X0109012Y0139134D01*
X0106585Y0136708D02*
X0105372Y0137921D01*
X0105979Y0135509D02*
X0105372Y0134902D01*
X0105372Y0133689D01*
X0105979Y0133082D01*
X0108406Y0133082D01*
X0109012Y0133689D01*
X0109012Y0134902D01*
X0108406Y0135509D01*
X0098996Y0123468D02*
X0098389Y0123468D01*
X0097783Y0122861D01*
X0097783Y0121648D01*
X0097176Y0121041D01*
X0096569Y0121041D01*
X0095963Y0121648D01*
X0095963Y0122861D01*
X0096569Y0123468D01*
X0097176Y0123468D01*
X0097783Y0122861D01*
X0097783Y0121648D02*
X0098389Y0121041D01*
X0098996Y0121041D01*
X0099603Y0121648D01*
X0099603Y0122861D01*
X0098996Y0123468D01*
X0098996Y0119843D02*
X0099603Y0119236D01*
X0099603Y0118023D01*
X0098996Y0117416D01*
X0096569Y0117416D01*
X0095963Y0118023D01*
X0095963Y0119236D01*
X0096569Y0119843D01*
X0096543Y0110308D02*
X0095329Y0110308D01*
X0094722Y0109701D01*
X0094722Y0107881D01*
X0098363Y0107881D01*
X0097149Y0107881D02*
X0097149Y0109701D01*
X0096543Y0110308D01*
X0097149Y0109095D02*
X0098363Y0110308D01*
X0097756Y0106683D02*
X0098363Y0106076D01*
X0098363Y0104863D01*
X0097756Y0104256D01*
X0096543Y0104256D02*
X0095936Y0105470D01*
X0095936Y0106076D01*
X0096543Y0106683D01*
X0097756Y0106683D01*
X0096543Y0104256D02*
X0094722Y0104256D01*
X0094722Y0106683D01*
X0095329Y0103058D02*
X0096543Y0103058D01*
X0097149Y0102451D01*
X0097149Y0100631D01*
X0097149Y0101844D02*
X0098363Y0103058D01*
X0098363Y0100631D02*
X0094722Y0100631D01*
X0094722Y0102451D01*
X0095329Y0103058D01*
X0084285Y0114037D02*
X0084892Y0114643D01*
X0084892Y0117070D01*
X0084285Y0117677D01*
X0083072Y0117677D01*
X0082465Y0117070D01*
X0082465Y0116463D01*
X0083072Y0115857D01*
X0084892Y0115857D01*
X0084285Y0114037D02*
X0083072Y0114037D01*
X0082465Y0114643D01*
X0081266Y0114643D02*
X0080660Y0114037D01*
X0079446Y0114037D01*
X0078840Y0114643D01*
X0078840Y0117070D01*
X0079446Y0117677D01*
X0080660Y0117677D01*
X0081266Y0117070D01*
X0076017Y0115003D02*
X0076017Y0113790D01*
X0075410Y0113183D01*
X0073590Y0113183D01*
X0073590Y0111970D02*
X0073590Y0115610D01*
X0075410Y0115610D01*
X0076017Y0115003D01*
X0074803Y0113183D02*
X0076017Y0111970D01*
X0072392Y0113790D02*
X0069965Y0113790D01*
X0071785Y0115610D01*
X0071785Y0111970D01*
X0068766Y0111970D02*
X0067553Y0113183D01*
X0068160Y0113183D02*
X0066340Y0113183D01*
X0066340Y0111970D02*
X0066340Y0115610D01*
X0068160Y0115610D01*
X0068766Y0115003D01*
X0068766Y0113790D01*
X0068160Y0113183D01*
X0052828Y0105515D02*
X0052828Y0104302D01*
X0052221Y0103695D01*
X0050401Y0103695D01*
X0051614Y0103695D02*
X0052828Y0102481D01*
X0050401Y0102481D02*
X0050401Y0106122D01*
X0052221Y0106122D01*
X0052828Y0105515D01*
X0049203Y0105515D02*
X0048596Y0106122D01*
X0047383Y0106122D01*
X0046776Y0105515D01*
X0045578Y0105515D02*
X0045578Y0104302D01*
X0044971Y0103695D01*
X0043151Y0103695D01*
X0044364Y0103695D02*
X0045578Y0102481D01*
X0046776Y0102481D02*
X0049203Y0104908D01*
X0049203Y0105515D01*
X0049203Y0102481D02*
X0046776Y0102481D01*
X0045578Y0105515D02*
X0044971Y0106122D01*
X0043151Y0106122D01*
X0043151Y0102481D01*
X0038048Y0104519D02*
X0034408Y0104519D01*
X0034408Y0106340D01*
X0035014Y0106946D01*
X0036228Y0106946D01*
X0036834Y0106340D01*
X0036834Y0104519D01*
X0036834Y0105733D02*
X0038048Y0106946D01*
X0038048Y0108145D02*
X0038048Y0110571D01*
X0038048Y0111770D02*
X0034408Y0111770D01*
X0034408Y0113590D01*
X0035014Y0114196D01*
X0036228Y0114196D01*
X0036834Y0113590D01*
X0036834Y0111770D01*
X0036834Y0112983D02*
X0038048Y0114196D01*
X0038048Y0109358D02*
X0034408Y0109358D01*
X0035621Y0108145D01*
X0035231Y0122531D02*
X0037657Y0122531D01*
X0038264Y0123138D01*
X0038264Y0124351D01*
X0037657Y0124958D01*
X0038264Y0126156D02*
X0038264Y0128583D01*
X0038264Y0129782D02*
X0038264Y0132208D01*
X0038264Y0130995D02*
X0034624Y0130995D01*
X0035837Y0129782D01*
X0034624Y0127370D02*
X0038264Y0127370D01*
X0035837Y0126156D02*
X0034624Y0127370D01*
X0035231Y0124958D02*
X0034624Y0124351D01*
X0034624Y0123138D01*
X0035231Y0122531D01*
X0051317Y0135343D02*
X0051924Y0134736D01*
X0054350Y0134736D01*
X0054957Y0135343D01*
X0054957Y0136556D01*
X0054350Y0137163D01*
X0054957Y0138361D02*
X0054957Y0140788D01*
X0054957Y0141986D02*
X0052530Y0144413D01*
X0051924Y0144413D01*
X0051317Y0143806D01*
X0051317Y0142593D01*
X0051924Y0141986D01*
X0051317Y0139574D02*
X0054957Y0139574D01*
X0054957Y0141986D02*
X0054957Y0144413D01*
X0051317Y0139574D02*
X0052530Y0138361D01*
X0051924Y0137163D02*
X0051317Y0136556D01*
X0051317Y0135343D01*
X0068978Y0151340D02*
X0068978Y0154980D01*
X0070798Y0154980D01*
X0071404Y0154373D01*
X0071404Y0153160D01*
X0070798Y0152553D01*
X0068978Y0152553D01*
X0070191Y0152553D02*
X0071404Y0151340D01*
X0072603Y0153160D02*
X0075029Y0153160D01*
X0074423Y0151340D02*
X0074423Y0154980D01*
X0072603Y0153160D01*
X0076228Y0154980D02*
X0076228Y0151340D01*
X0078655Y0151340D01*
X0081835Y0141322D02*
X0081835Y0138896D01*
X0081835Y0140109D02*
X0078195Y0140109D01*
X0079408Y0138896D01*
X0078802Y0137697D02*
X0078195Y0137091D01*
X0078195Y0135877D01*
X0078802Y0135271D01*
X0081228Y0135271D01*
X0081835Y0135877D01*
X0081835Y0137091D01*
X0081228Y0137697D01*
X0081835Y0134067D02*
X0081835Y0132854D01*
X0081835Y0133460D02*
X0078195Y0133460D01*
X0078195Y0132854D02*
X0078195Y0134067D01*
X0094604Y0156567D02*
X0094604Y0158387D01*
X0095211Y0158993D01*
X0096424Y0158993D01*
X0097031Y0158387D01*
X0097031Y0156567D01*
X0097031Y0157780D02*
X0098244Y0158993D01*
X0097638Y0160192D02*
X0098244Y0160799D01*
X0098244Y0162012D01*
X0097638Y0162619D01*
X0096424Y0162619D01*
X0095818Y0162012D01*
X0095818Y0161405D01*
X0096424Y0160192D01*
X0094604Y0160192D01*
X0094604Y0162619D01*
X0094604Y0163817D02*
X0098244Y0163817D01*
X0098244Y0166244D01*
X0098244Y0156567D02*
X0094604Y0156567D01*
X0106665Y0169171D02*
X0107272Y0168564D01*
X0108485Y0168564D01*
X0109092Y0169171D01*
X0110290Y0169171D02*
X0110897Y0168564D01*
X0112110Y0168564D01*
X0112717Y0169171D01*
X0112717Y0169778D01*
X0112110Y0170384D01*
X0111504Y0170384D01*
X0112110Y0170384D02*
X0112717Y0170991D01*
X0112717Y0171598D01*
X0112110Y0172204D01*
X0110897Y0172204D01*
X0110290Y0171598D01*
X0109092Y0171598D02*
X0108485Y0172204D01*
X0107272Y0172204D01*
X0106665Y0171598D01*
X0106665Y0169171D01*
X0113915Y0168564D02*
X0116342Y0168564D01*
X0113915Y0168564D02*
X0113915Y0172204D01*
X0127245Y0164822D02*
X0127245Y0161182D01*
X0127245Y0162396D02*
X0129065Y0162396D01*
X0129672Y0163002D01*
X0129672Y0164216D01*
X0129065Y0164822D01*
X0127245Y0164822D01*
X0128459Y0162396D02*
X0129672Y0161182D01*
X0130870Y0161789D02*
X0130870Y0163002D01*
X0132690Y0163002D01*
X0133297Y0162396D01*
X0133297Y0161789D01*
X0132690Y0161182D01*
X0131477Y0161182D01*
X0130870Y0161789D01*
X0130870Y0163002D02*
X0132084Y0164216D01*
X0133297Y0164822D01*
X0134496Y0164822D02*
X0134496Y0161182D01*
X0136922Y0161182D01*
X0141182Y0161143D02*
X0141182Y0164783D01*
X0143002Y0164783D01*
X0143609Y0164176D01*
X0143609Y0162963D01*
X0143002Y0162356D01*
X0141182Y0162356D01*
X0142396Y0162356D02*
X0143609Y0161143D01*
X0144807Y0161750D02*
X0144807Y0162356D01*
X0145414Y0162963D01*
X0146627Y0162963D01*
X0147234Y0162356D01*
X0147234Y0161750D01*
X0146627Y0161143D01*
X0145414Y0161143D01*
X0144807Y0161750D01*
X0145414Y0162963D02*
X0144807Y0163570D01*
X0144807Y0164176D01*
X0145414Y0164783D01*
X0146627Y0164783D01*
X0147234Y0164176D01*
X0147234Y0163570D01*
X0146627Y0162963D01*
X0148433Y0164783D02*
X0148433Y0161143D01*
X0150859Y0161143D01*
X0154896Y0172796D02*
X0154289Y0173403D01*
X0154289Y0174617D01*
X0154896Y0175223D01*
X0156109Y0176422D02*
X0154289Y0178242D01*
X0157930Y0178242D01*
X0157930Y0180047D02*
X0157930Y0182473D01*
X0157930Y0180047D02*
X0154289Y0180047D01*
X0156109Y0178848D02*
X0156109Y0176422D01*
X0157323Y0175223D02*
X0157930Y0174617D01*
X0157930Y0173403D01*
X0157323Y0172796D01*
X0154896Y0172796D01*
X0135095Y0174211D02*
X0135095Y0176637D01*
X0135095Y0174211D02*
X0131455Y0174211D01*
X0131455Y0173012D02*
X0132061Y0173012D01*
X0134488Y0170586D01*
X0135095Y0170586D01*
X0135095Y0169387D02*
X0133882Y0168174D01*
X0133882Y0168780D02*
X0133882Y0166960D01*
X0135095Y0166960D02*
X0131455Y0166960D01*
X0131455Y0168780D01*
X0132061Y0169387D01*
X0133275Y0169387D01*
X0133882Y0168780D01*
X0131455Y0170586D02*
X0131455Y0173012D01*
X0080712Y0174076D02*
X0078285Y0174076D01*
X0078285Y0177716D01*
X0075874Y0177716D02*
X0075874Y0174076D01*
X0077087Y0174076D02*
X0074660Y0174076D01*
X0073462Y0174683D02*
X0072855Y0174076D01*
X0071642Y0174076D01*
X0071035Y0174683D01*
X0071035Y0177109D01*
X0071642Y0177716D01*
X0072855Y0177716D01*
X0073462Y0177109D01*
X0074660Y0176503D02*
X0075874Y0177716D01*
X0073930Y0185001D02*
X0071503Y0185001D01*
X0071503Y0188641D01*
X0070305Y0188035D02*
X0070305Y0187428D01*
X0069698Y0186821D01*
X0070305Y0186215D01*
X0070305Y0185608D01*
X0069698Y0185001D01*
X0068485Y0185001D01*
X0067878Y0185608D01*
X0066680Y0185001D02*
X0065467Y0186215D01*
X0066073Y0186215D02*
X0064253Y0186215D01*
X0064253Y0185001D02*
X0064253Y0188641D01*
X0066073Y0188641D01*
X0066680Y0188035D01*
X0066680Y0186821D01*
X0066073Y0186215D01*
X0067878Y0188035D02*
X0068485Y0188641D01*
X0069698Y0188641D01*
X0070305Y0188035D01*
X0069698Y0186821D02*
X0069092Y0186821D01*
X0044889Y0162815D02*
X0044889Y0159174D01*
X0047316Y0159174D01*
X0043691Y0159174D02*
X0041264Y0159174D01*
X0043691Y0161601D01*
X0043691Y0162208D01*
X0043084Y0162815D01*
X0041871Y0162815D01*
X0041264Y0162208D01*
X0040066Y0162208D02*
X0039459Y0162815D01*
X0037639Y0162815D01*
X0037639Y0159174D01*
X0037639Y0160388D02*
X0039459Y0160388D01*
X0040066Y0160994D01*
X0040066Y0162208D01*
X0038852Y0160388D02*
X0040066Y0159174D01*
X0026709Y0156765D02*
X0026709Y0154338D01*
X0023069Y0154338D01*
X0023069Y0151926D02*
X0026709Y0151926D01*
X0026709Y0150713D02*
X0026709Y0153140D01*
X0024282Y0150713D02*
X0023069Y0151926D01*
X0023676Y0149515D02*
X0024889Y0149515D01*
X0025496Y0148908D01*
X0025496Y0147088D01*
X0026709Y0147088D02*
X0023069Y0147088D01*
X0023069Y0148908D01*
X0023676Y0149515D01*
X0025496Y0148301D02*
X0026709Y0149515D01*
X0035939Y0173240D02*
X0038366Y0173240D01*
X0038973Y0173847D01*
X0038973Y0175060D01*
X0038366Y0175667D01*
X0038973Y0176865D02*
X0036546Y0179292D01*
X0035939Y0179292D01*
X0035333Y0178685D01*
X0035333Y0177472D01*
X0035939Y0176865D01*
X0035939Y0175667D02*
X0035333Y0175060D01*
X0035333Y0173847D01*
X0035939Y0173240D01*
X0038973Y0176865D02*
X0038973Y0179292D01*
X0038973Y0180490D02*
X0038973Y0182917D01*
X0038973Y0180490D02*
X0035333Y0180490D01*
X0115352Y0102339D02*
X0115352Y0100519D01*
X0118993Y0100519D01*
X0117779Y0100519D02*
X0117779Y0102339D01*
X0117172Y0102946D01*
X0115959Y0102946D01*
X0115352Y0102339D01*
X0117779Y0101733D02*
X0118993Y0102946D01*
X0115959Y0099321D02*
X0118386Y0096894D01*
X0118993Y0096894D01*
X0118993Y0095696D02*
X0117779Y0094482D01*
X0117779Y0095089D02*
X0117779Y0093269D01*
X0118993Y0093269D02*
X0115352Y0093269D01*
X0115352Y0095089D01*
X0115959Y0095696D01*
X0117172Y0095696D01*
X0117779Y0095089D01*
X0115352Y0096894D02*
X0115352Y0099321D01*
X0115959Y0099321D01*
X0122442Y0112363D02*
X0122442Y0116003D01*
X0124262Y0116003D01*
X0124869Y0115397D01*
X0124869Y0114183D01*
X0124262Y0113577D01*
X0122442Y0113577D01*
X0123655Y0113577D02*
X0124869Y0112363D01*
X0126067Y0112970D02*
X0126674Y0112363D01*
X0127887Y0112363D01*
X0128494Y0112970D01*
X0128494Y0113577D01*
X0127887Y0114183D01*
X0126067Y0114183D01*
X0126067Y0112970D01*
X0126067Y0114183D02*
X0127281Y0115397D01*
X0128494Y0116003D01*
X0129692Y0116003D02*
X0129692Y0112363D01*
X0129692Y0113577D02*
X0131512Y0113577D01*
X0132119Y0114183D01*
X0132119Y0115397D01*
X0131512Y0116003D01*
X0129692Y0116003D01*
X0130906Y0113577D02*
X0132119Y0112363D01*
X0076460Y0094039D02*
X0076460Y0092825D01*
X0075854Y0092218D01*
X0074034Y0092218D01*
X0075247Y0092218D02*
X0076460Y0091005D01*
X0076460Y0094039D02*
X0075854Y0094645D01*
X0074034Y0094645D01*
X0074034Y0091005D01*
X0072835Y0091005D02*
X0070408Y0091005D01*
X0071622Y0091005D02*
X0071622Y0094645D01*
X0070408Y0093432D01*
X0069210Y0094039D02*
X0068603Y0094645D01*
X0067390Y0094645D01*
X0066783Y0094039D01*
X0066783Y0091612D01*
X0067390Y0091005D01*
X0068603Y0091005D01*
X0069210Y0091612D01*
X0066276Y0085492D02*
X0066883Y0084885D01*
X0066883Y0083672D01*
X0066276Y0083065D01*
X0064456Y0083065D01*
X0063258Y0083065D02*
X0063258Y0082458D01*
X0062651Y0081852D01*
X0061438Y0081852D01*
X0060831Y0082458D01*
X0059633Y0081852D02*
X0058419Y0083065D01*
X0059026Y0083065D02*
X0057206Y0083065D01*
X0057206Y0081852D02*
X0057206Y0085492D01*
X0059026Y0085492D01*
X0059633Y0084885D01*
X0059633Y0083672D01*
X0059026Y0083065D01*
X0060831Y0084885D02*
X0061438Y0085492D01*
X0062651Y0085492D01*
X0063258Y0084885D01*
X0063258Y0084278D01*
X0062651Y0083672D01*
X0063258Y0083065D01*
X0062651Y0083672D02*
X0062044Y0083672D01*
X0064456Y0081852D02*
X0064456Y0085492D01*
X0066276Y0085492D01*
X0065670Y0083065D02*
X0066883Y0081852D01*
X0063671Y0075669D02*
X0062458Y0075062D01*
X0061244Y0073849D01*
X0063064Y0073849D01*
X0063671Y0073242D01*
X0063671Y0072635D01*
X0063064Y0072029D01*
X0061851Y0072029D01*
X0061244Y0072635D01*
X0061244Y0073849D01*
X0060046Y0075062D02*
X0059439Y0075669D01*
X0058226Y0075669D01*
X0057619Y0075062D01*
X0057619Y0072635D01*
X0058226Y0072029D01*
X0059439Y0072029D01*
X0060046Y0072635D01*
X0046736Y0075139D02*
X0045522Y0076352D01*
X0046129Y0076352D02*
X0044309Y0076352D01*
X0044309Y0075139D02*
X0044309Y0078779D01*
X0046129Y0078779D01*
X0046736Y0078172D01*
X0046736Y0076959D01*
X0046129Y0076352D01*
X0043111Y0075139D02*
X0040684Y0075139D01*
X0043111Y0077566D01*
X0043111Y0078172D01*
X0042504Y0078779D01*
X0041291Y0078779D01*
X0040684Y0078172D01*
X0039486Y0078172D02*
X0038879Y0078779D01*
X0037666Y0078779D01*
X0037059Y0078172D01*
X0037059Y0075746D01*
X0037666Y0075139D01*
X0038879Y0075139D01*
X0039486Y0075746D01*
X0034774Y0075669D02*
X0032347Y0075669D01*
X0032347Y0073849D01*
X0033560Y0074455D01*
X0034167Y0074455D01*
X0034774Y0073849D01*
X0034774Y0072635D01*
X0034167Y0072029D01*
X0032953Y0072029D01*
X0032347Y0072635D01*
X0031148Y0072635D02*
X0030542Y0072029D01*
X0029328Y0072029D01*
X0028722Y0072635D01*
X0028722Y0075062D01*
X0029328Y0075669D01*
X0030542Y0075669D01*
X0031148Y0075062D01*
X0066237Y0026850D02*
X0066237Y0023210D01*
X0065024Y0023210D02*
X0067451Y0023210D01*
X0068649Y0023817D02*
X0068649Y0024423D01*
X0069256Y0025030D01*
X0070469Y0025030D01*
X0071076Y0024423D01*
X0071076Y0023817D01*
X0070469Y0023210D01*
X0069256Y0023210D01*
X0068649Y0023817D01*
X0069256Y0025030D02*
X0068649Y0025637D01*
X0068649Y0026243D01*
X0069256Y0026850D01*
X0070469Y0026850D01*
X0071076Y0026243D01*
X0071076Y0025637D01*
X0070469Y0025030D01*
X0072274Y0024423D02*
X0073488Y0023210D01*
X0074701Y0024423D01*
X0074701Y0026850D01*
X0072274Y0026850D02*
X0072274Y0024423D01*
X0066237Y0026850D02*
X0065024Y0025637D01*
X0063826Y0025030D02*
X0061399Y0025030D01*
D12*
X0059454Y0028938D02*
X0047454Y0028938D01*
X0039454Y0028938D02*
X0033454Y0028938D01*
X0033454Y0002938D01*
X0033454Y0001938D01*
X0093454Y0001938D01*
X0093454Y0002938D01*
X0033454Y0002938D01*
X0041454Y0008238D02*
X0041456Y0008327D01*
X0041462Y0008416D01*
X0041472Y0008505D01*
X0041486Y0008593D01*
X0041503Y0008680D01*
X0041525Y0008766D01*
X0041551Y0008852D01*
X0041580Y0008936D01*
X0041613Y0009019D01*
X0041649Y0009100D01*
X0041690Y0009180D01*
X0041733Y0009257D01*
X0041780Y0009333D01*
X0041831Y0009406D01*
X0041884Y0009477D01*
X0041941Y0009546D01*
X0042001Y0009612D01*
X0042064Y0009676D01*
X0042129Y0009736D01*
X0042197Y0009794D01*
X0042268Y0009848D01*
X0042341Y0009899D01*
X0042416Y0009947D01*
X0042493Y0009992D01*
X0042572Y0010033D01*
X0042653Y0010070D01*
X0042735Y0010104D01*
X0042819Y0010135D01*
X0042904Y0010161D01*
X0042990Y0010184D01*
X0043077Y0010202D01*
X0043165Y0010217D01*
X0043254Y0010228D01*
X0043343Y0010235D01*
X0043432Y0010238D01*
X0043521Y0010237D01*
X0043610Y0010232D01*
X0043698Y0010223D01*
X0043787Y0010210D01*
X0043874Y0010193D01*
X0043961Y0010173D01*
X0044047Y0010148D01*
X0044131Y0010120D01*
X0044214Y0010088D01*
X0044296Y0010052D01*
X0044376Y0010013D01*
X0044454Y0009970D01*
X0044530Y0009924D01*
X0044604Y0009874D01*
X0044676Y0009821D01*
X0044745Y0009765D01*
X0044812Y0009706D01*
X0044876Y0009644D01*
X0044937Y0009580D01*
X0044996Y0009512D01*
X0045051Y0009442D01*
X0045103Y0009370D01*
X0045152Y0009295D01*
X0045197Y0009219D01*
X0045239Y0009140D01*
X0045277Y0009060D01*
X0045312Y0008978D01*
X0045343Y0008894D01*
X0045371Y0008809D01*
X0045394Y0008723D01*
X0045414Y0008636D01*
X0045430Y0008549D01*
X0045442Y0008460D01*
X0045450Y0008372D01*
X0045454Y0008283D01*
X0045454Y0008193D01*
X0045450Y0008104D01*
X0045442Y0008016D01*
X0045430Y0007927D01*
X0045414Y0007840D01*
X0045394Y0007753D01*
X0045371Y0007667D01*
X0045343Y0007582D01*
X0045312Y0007498D01*
X0045277Y0007416D01*
X0045239Y0007336D01*
X0045197Y0007257D01*
X0045152Y0007181D01*
X0045103Y0007106D01*
X0045051Y0007034D01*
X0044996Y0006964D01*
X0044937Y0006896D01*
X0044876Y0006832D01*
X0044812Y0006770D01*
X0044745Y0006711D01*
X0044676Y0006655D01*
X0044604Y0006602D01*
X0044530Y0006552D01*
X0044454Y0006506D01*
X0044376Y0006463D01*
X0044296Y0006424D01*
X0044214Y0006388D01*
X0044131Y0006356D01*
X0044047Y0006328D01*
X0043961Y0006303D01*
X0043874Y0006283D01*
X0043787Y0006266D01*
X0043698Y0006253D01*
X0043610Y0006244D01*
X0043521Y0006239D01*
X0043432Y0006238D01*
X0043343Y0006241D01*
X0043254Y0006248D01*
X0043165Y0006259D01*
X0043077Y0006274D01*
X0042990Y0006292D01*
X0042904Y0006315D01*
X0042819Y0006341D01*
X0042735Y0006372D01*
X0042653Y0006406D01*
X0042572Y0006443D01*
X0042493Y0006484D01*
X0042416Y0006529D01*
X0042341Y0006577D01*
X0042268Y0006628D01*
X0042197Y0006682D01*
X0042129Y0006740D01*
X0042064Y0006800D01*
X0042001Y0006864D01*
X0041941Y0006930D01*
X0041884Y0006999D01*
X0041831Y0007070D01*
X0041780Y0007143D01*
X0041733Y0007219D01*
X0041690Y0007296D01*
X0041649Y0007376D01*
X0041613Y0007457D01*
X0041580Y0007540D01*
X0041551Y0007624D01*
X0041525Y0007710D01*
X0041503Y0007796D01*
X0041486Y0007883D01*
X0041472Y0007971D01*
X0041462Y0008060D01*
X0041456Y0008149D01*
X0041454Y0008238D01*
X0033454Y0028938D02*
X0033454Y0038438D01*
X0093454Y0038438D01*
X0093454Y0028938D01*
X0087454Y0028938D01*
X0093454Y0028938D02*
X0093454Y0002938D01*
X0081454Y0008238D02*
X0081456Y0008327D01*
X0081462Y0008416D01*
X0081472Y0008505D01*
X0081486Y0008593D01*
X0081503Y0008680D01*
X0081525Y0008766D01*
X0081551Y0008852D01*
X0081580Y0008936D01*
X0081613Y0009019D01*
X0081649Y0009100D01*
X0081690Y0009180D01*
X0081733Y0009257D01*
X0081780Y0009333D01*
X0081831Y0009406D01*
X0081884Y0009477D01*
X0081941Y0009546D01*
X0082001Y0009612D01*
X0082064Y0009676D01*
X0082129Y0009736D01*
X0082197Y0009794D01*
X0082268Y0009848D01*
X0082341Y0009899D01*
X0082416Y0009947D01*
X0082493Y0009992D01*
X0082572Y0010033D01*
X0082653Y0010070D01*
X0082735Y0010104D01*
X0082819Y0010135D01*
X0082904Y0010161D01*
X0082990Y0010184D01*
X0083077Y0010202D01*
X0083165Y0010217D01*
X0083254Y0010228D01*
X0083343Y0010235D01*
X0083432Y0010238D01*
X0083521Y0010237D01*
X0083610Y0010232D01*
X0083698Y0010223D01*
X0083787Y0010210D01*
X0083874Y0010193D01*
X0083961Y0010173D01*
X0084047Y0010148D01*
X0084131Y0010120D01*
X0084214Y0010088D01*
X0084296Y0010052D01*
X0084376Y0010013D01*
X0084454Y0009970D01*
X0084530Y0009924D01*
X0084604Y0009874D01*
X0084676Y0009821D01*
X0084745Y0009765D01*
X0084812Y0009706D01*
X0084876Y0009644D01*
X0084937Y0009580D01*
X0084996Y0009512D01*
X0085051Y0009442D01*
X0085103Y0009370D01*
X0085152Y0009295D01*
X0085197Y0009219D01*
X0085239Y0009140D01*
X0085277Y0009060D01*
X0085312Y0008978D01*
X0085343Y0008894D01*
X0085371Y0008809D01*
X0085394Y0008723D01*
X0085414Y0008636D01*
X0085430Y0008549D01*
X0085442Y0008460D01*
X0085450Y0008372D01*
X0085454Y0008283D01*
X0085454Y0008193D01*
X0085450Y0008104D01*
X0085442Y0008016D01*
X0085430Y0007927D01*
X0085414Y0007840D01*
X0085394Y0007753D01*
X0085371Y0007667D01*
X0085343Y0007582D01*
X0085312Y0007498D01*
X0085277Y0007416D01*
X0085239Y0007336D01*
X0085197Y0007257D01*
X0085152Y0007181D01*
X0085103Y0007106D01*
X0085051Y0007034D01*
X0084996Y0006964D01*
X0084937Y0006896D01*
X0084876Y0006832D01*
X0084812Y0006770D01*
X0084745Y0006711D01*
X0084676Y0006655D01*
X0084604Y0006602D01*
X0084530Y0006552D01*
X0084454Y0006506D01*
X0084376Y0006463D01*
X0084296Y0006424D01*
X0084214Y0006388D01*
X0084131Y0006356D01*
X0084047Y0006328D01*
X0083961Y0006303D01*
X0083874Y0006283D01*
X0083787Y0006266D01*
X0083698Y0006253D01*
X0083610Y0006244D01*
X0083521Y0006239D01*
X0083432Y0006238D01*
X0083343Y0006241D01*
X0083254Y0006248D01*
X0083165Y0006259D01*
X0083077Y0006274D01*
X0082990Y0006292D01*
X0082904Y0006315D01*
X0082819Y0006341D01*
X0082735Y0006372D01*
X0082653Y0006406D01*
X0082572Y0006443D01*
X0082493Y0006484D01*
X0082416Y0006529D01*
X0082341Y0006577D01*
X0082268Y0006628D01*
X0082197Y0006682D01*
X0082129Y0006740D01*
X0082064Y0006800D01*
X0082001Y0006864D01*
X0081941Y0006930D01*
X0081884Y0006999D01*
X0081831Y0007070D01*
X0081780Y0007143D01*
X0081733Y0007219D01*
X0081690Y0007296D01*
X0081649Y0007376D01*
X0081613Y0007457D01*
X0081580Y0007540D01*
X0081551Y0007624D01*
X0081525Y0007710D01*
X0081503Y0007796D01*
X0081486Y0007883D01*
X0081472Y0007971D01*
X0081462Y0008060D01*
X0081456Y0008149D01*
X0081454Y0008238D01*
X0061454Y0008238D02*
X0061456Y0008327D01*
X0061462Y0008416D01*
X0061472Y0008505D01*
X0061486Y0008593D01*
X0061503Y0008680D01*
X0061525Y0008766D01*
X0061551Y0008852D01*
X0061580Y0008936D01*
X0061613Y0009019D01*
X0061649Y0009100D01*
X0061690Y0009180D01*
X0061733Y0009257D01*
X0061780Y0009333D01*
X0061831Y0009406D01*
X0061884Y0009477D01*
X0061941Y0009546D01*
X0062001Y0009612D01*
X0062064Y0009676D01*
X0062129Y0009736D01*
X0062197Y0009794D01*
X0062268Y0009848D01*
X0062341Y0009899D01*
X0062416Y0009947D01*
X0062493Y0009992D01*
X0062572Y0010033D01*
X0062653Y0010070D01*
X0062735Y0010104D01*
X0062819Y0010135D01*
X0062904Y0010161D01*
X0062990Y0010184D01*
X0063077Y0010202D01*
X0063165Y0010217D01*
X0063254Y0010228D01*
X0063343Y0010235D01*
X0063432Y0010238D01*
X0063521Y0010237D01*
X0063610Y0010232D01*
X0063698Y0010223D01*
X0063787Y0010210D01*
X0063874Y0010193D01*
X0063961Y0010173D01*
X0064047Y0010148D01*
X0064131Y0010120D01*
X0064214Y0010088D01*
X0064296Y0010052D01*
X0064376Y0010013D01*
X0064454Y0009970D01*
X0064530Y0009924D01*
X0064604Y0009874D01*
X0064676Y0009821D01*
X0064745Y0009765D01*
X0064812Y0009706D01*
X0064876Y0009644D01*
X0064937Y0009580D01*
X0064996Y0009512D01*
X0065051Y0009442D01*
X0065103Y0009370D01*
X0065152Y0009295D01*
X0065197Y0009219D01*
X0065239Y0009140D01*
X0065277Y0009060D01*
X0065312Y0008978D01*
X0065343Y0008894D01*
X0065371Y0008809D01*
X0065394Y0008723D01*
X0065414Y0008636D01*
X0065430Y0008549D01*
X0065442Y0008460D01*
X0065450Y0008372D01*
X0065454Y0008283D01*
X0065454Y0008193D01*
X0065450Y0008104D01*
X0065442Y0008016D01*
X0065430Y0007927D01*
X0065414Y0007840D01*
X0065394Y0007753D01*
X0065371Y0007667D01*
X0065343Y0007582D01*
X0065312Y0007498D01*
X0065277Y0007416D01*
X0065239Y0007336D01*
X0065197Y0007257D01*
X0065152Y0007181D01*
X0065103Y0007106D01*
X0065051Y0007034D01*
X0064996Y0006964D01*
X0064937Y0006896D01*
X0064876Y0006832D01*
X0064812Y0006770D01*
X0064745Y0006711D01*
X0064676Y0006655D01*
X0064604Y0006602D01*
X0064530Y0006552D01*
X0064454Y0006506D01*
X0064376Y0006463D01*
X0064296Y0006424D01*
X0064214Y0006388D01*
X0064131Y0006356D01*
X0064047Y0006328D01*
X0063961Y0006303D01*
X0063874Y0006283D01*
X0063787Y0006266D01*
X0063698Y0006253D01*
X0063610Y0006244D01*
X0063521Y0006239D01*
X0063432Y0006238D01*
X0063343Y0006241D01*
X0063254Y0006248D01*
X0063165Y0006259D01*
X0063077Y0006274D01*
X0062990Y0006292D01*
X0062904Y0006315D01*
X0062819Y0006341D01*
X0062735Y0006372D01*
X0062653Y0006406D01*
X0062572Y0006443D01*
X0062493Y0006484D01*
X0062416Y0006529D01*
X0062341Y0006577D01*
X0062268Y0006628D01*
X0062197Y0006682D01*
X0062129Y0006740D01*
X0062064Y0006800D01*
X0062001Y0006864D01*
X0061941Y0006930D01*
X0061884Y0006999D01*
X0061831Y0007070D01*
X0061780Y0007143D01*
X0061733Y0007219D01*
X0061690Y0007296D01*
X0061649Y0007376D01*
X0061613Y0007457D01*
X0061580Y0007540D01*
X0061551Y0007624D01*
X0061525Y0007710D01*
X0061503Y0007796D01*
X0061486Y0007883D01*
X0061472Y0007971D01*
X0061462Y0008060D01*
X0061456Y0008149D01*
X0061454Y0008238D01*
X0067454Y0028938D02*
X0079454Y0028938D01*
X0119083Y0021111D02*
X0119083Y0006111D01*
X0121583Y0003611D01*
X0126583Y0003611D01*
X0129083Y0006111D01*
X0131583Y0003611D01*
X0136583Y0003611D01*
X0139083Y0006111D01*
X0141583Y0003611D01*
X0146583Y0003611D01*
X0149083Y0006111D01*
X0149083Y0021111D01*
X0146583Y0023611D01*
X0141583Y0023611D01*
X0139083Y0021111D01*
X0136583Y0023611D01*
X0131583Y0023611D01*
X0129083Y0021111D01*
X0126583Y0023611D01*
X0121583Y0023611D01*
X0119083Y0021111D01*
X0161709Y0038808D02*
X0161709Y0078178D01*
X0161710Y0078178D02*
X0161688Y0078251D01*
X0161670Y0078326D01*
X0161655Y0078401D01*
X0161644Y0078477D01*
X0161637Y0078553D01*
X0161633Y0078629D01*
X0161634Y0078706D01*
X0161638Y0078783D01*
X0161645Y0078859D01*
X0161657Y0078935D01*
X0161672Y0079010D01*
X0161691Y0079084D01*
X0161714Y0079157D01*
X0161740Y0079229D01*
X0161769Y0079300D01*
X0161802Y0079369D01*
X0161839Y0079436D01*
X0161878Y0079502D01*
X0161921Y0079566D01*
X0161967Y0079627D01*
X0162016Y0079686D01*
X0162067Y0079743D01*
X0162122Y0079797D01*
X0162179Y0079848D01*
X0162238Y0079896D01*
X0162300Y0079942D01*
X0162364Y0079984D01*
X0162430Y0080023D01*
X0162497Y0080059D01*
X0162567Y0080091D01*
X0162638Y0080120D01*
X0162710Y0080146D01*
X0162709Y0080146D02*
X0189709Y0080146D01*
X0189781Y0080120D01*
X0189852Y0080091D01*
X0189922Y0080059D01*
X0189989Y0080023D01*
X0190055Y0079984D01*
X0190119Y0079942D01*
X0190181Y0079896D01*
X0190240Y0079848D01*
X0190297Y0079797D01*
X0190352Y0079743D01*
X0190403Y0079686D01*
X0190452Y0079627D01*
X0190498Y0079566D01*
X0190541Y0079502D01*
X0190580Y0079436D01*
X0190617Y0079369D01*
X0190650Y0079300D01*
X0190679Y0079229D01*
X0190705Y0079157D01*
X0190728Y0079084D01*
X0190747Y0079010D01*
X0190762Y0078935D01*
X0190774Y0078859D01*
X0190781Y0078783D01*
X0190785Y0078706D01*
X0190786Y0078629D01*
X0190782Y0078553D01*
X0190775Y0078477D01*
X0190764Y0078401D01*
X0190749Y0078326D01*
X0190731Y0078251D01*
X0190709Y0078178D01*
X0190709Y0038808D01*
X0190731Y0038735D01*
X0190749Y0038660D01*
X0190764Y0038585D01*
X0190775Y0038509D01*
X0190782Y0038433D01*
X0190786Y0038357D01*
X0190785Y0038280D01*
X0190781Y0038203D01*
X0190774Y0038127D01*
X0190762Y0038051D01*
X0190747Y0037976D01*
X0190728Y0037902D01*
X0190705Y0037829D01*
X0190679Y0037757D01*
X0190650Y0037686D01*
X0190617Y0037617D01*
X0190580Y0037550D01*
X0190541Y0037484D01*
X0190498Y0037420D01*
X0190452Y0037359D01*
X0190403Y0037300D01*
X0190352Y0037243D01*
X0190297Y0037189D01*
X0190240Y0037138D01*
X0190181Y0037090D01*
X0190119Y0037044D01*
X0190055Y0037002D01*
X0189989Y0036963D01*
X0189922Y0036927D01*
X0189852Y0036895D01*
X0189781Y0036866D01*
X0189709Y0036840D01*
X0189709Y0036839D02*
X0162709Y0036839D01*
X0162710Y0036840D02*
X0162638Y0036866D01*
X0162567Y0036895D01*
X0162497Y0036927D01*
X0162430Y0036963D01*
X0162364Y0037002D01*
X0162300Y0037044D01*
X0162238Y0037090D01*
X0162179Y0037138D01*
X0162122Y0037189D01*
X0162067Y0037243D01*
X0162016Y0037300D01*
X0161967Y0037359D01*
X0161921Y0037420D01*
X0161878Y0037484D01*
X0161839Y0037550D01*
X0161802Y0037617D01*
X0161769Y0037686D01*
X0161740Y0037757D01*
X0161714Y0037829D01*
X0161691Y0037902D01*
X0161672Y0037976D01*
X0161657Y0038051D01*
X0161645Y0038127D01*
X0161638Y0038203D01*
X0161634Y0038280D01*
X0161633Y0038357D01*
X0161637Y0038433D01*
X0161644Y0038509D01*
X0161655Y0038585D01*
X0161670Y0038660D01*
X0161688Y0038735D01*
X0161710Y0038808D01*
X0170209Y0058493D02*
X0174409Y0058493D01*
X0177909Y0058493D02*
X0182209Y0058493D01*
X0180284Y0095225D02*
X0175284Y0095225D01*
X0172784Y0097725D01*
X0170284Y0095225D01*
X0165284Y0095225D01*
X0162784Y0097725D01*
X0162784Y0102725D01*
X0165284Y0105225D01*
X0170284Y0105225D01*
X0172784Y0102725D01*
X0175284Y0105225D01*
X0180284Y0105225D01*
X0182784Y0102725D01*
X0185284Y0105225D01*
X0190284Y0105225D01*
X0192784Y0102725D01*
X0192784Y0097725D01*
X0190284Y0095225D01*
X0185284Y0095225D01*
X0182784Y0097725D01*
X0180284Y0095225D01*
X0189709Y0119517D02*
X0162709Y0119517D01*
X0162710Y0119517D02*
X0162638Y0119543D01*
X0162567Y0119572D01*
X0162497Y0119604D01*
X0162430Y0119640D01*
X0162364Y0119679D01*
X0162300Y0119721D01*
X0162238Y0119767D01*
X0162179Y0119815D01*
X0162122Y0119866D01*
X0162067Y0119920D01*
X0162016Y0119977D01*
X0161967Y0120036D01*
X0161921Y0120097D01*
X0161878Y0120161D01*
X0161839Y0120227D01*
X0161802Y0120294D01*
X0161769Y0120363D01*
X0161740Y0120434D01*
X0161714Y0120506D01*
X0161691Y0120579D01*
X0161672Y0120653D01*
X0161657Y0120728D01*
X0161645Y0120804D01*
X0161638Y0120880D01*
X0161634Y0120957D01*
X0161633Y0121034D01*
X0161637Y0121110D01*
X0161644Y0121186D01*
X0161655Y0121262D01*
X0161670Y0121337D01*
X0161688Y0121412D01*
X0161710Y0121485D01*
X0161709Y0121485D02*
X0161709Y0160855D01*
X0161710Y0160855D02*
X0161688Y0160928D01*
X0161670Y0161003D01*
X0161655Y0161078D01*
X0161644Y0161154D01*
X0161637Y0161230D01*
X0161633Y0161306D01*
X0161634Y0161383D01*
X0161638Y0161460D01*
X0161645Y0161536D01*
X0161657Y0161612D01*
X0161672Y0161687D01*
X0161691Y0161761D01*
X0161714Y0161834D01*
X0161740Y0161906D01*
X0161769Y0161977D01*
X0161802Y0162046D01*
X0161839Y0162113D01*
X0161878Y0162179D01*
X0161921Y0162243D01*
X0161967Y0162304D01*
X0162016Y0162363D01*
X0162067Y0162420D01*
X0162122Y0162474D01*
X0162179Y0162525D01*
X0162238Y0162573D01*
X0162300Y0162619D01*
X0162364Y0162661D01*
X0162430Y0162700D01*
X0162497Y0162736D01*
X0162567Y0162768D01*
X0162638Y0162797D01*
X0162710Y0162823D01*
X0162709Y0162824D02*
X0189709Y0162824D01*
X0189709Y0162823D02*
X0189781Y0162797D01*
X0189852Y0162768D01*
X0189922Y0162736D01*
X0189989Y0162700D01*
X0190055Y0162661D01*
X0190119Y0162619D01*
X0190181Y0162573D01*
X0190240Y0162525D01*
X0190297Y0162474D01*
X0190352Y0162420D01*
X0190403Y0162363D01*
X0190452Y0162304D01*
X0190498Y0162243D01*
X0190541Y0162179D01*
X0190580Y0162113D01*
X0190617Y0162046D01*
X0190650Y0161977D01*
X0190679Y0161906D01*
X0190705Y0161834D01*
X0190728Y0161761D01*
X0190747Y0161687D01*
X0190762Y0161612D01*
X0190774Y0161536D01*
X0190781Y0161460D01*
X0190785Y0161383D01*
X0190786Y0161306D01*
X0190782Y0161230D01*
X0190775Y0161154D01*
X0190764Y0161078D01*
X0190749Y0161003D01*
X0190731Y0160928D01*
X0190709Y0160855D01*
X0190709Y0121485D01*
X0190731Y0121412D01*
X0190749Y0121337D01*
X0190764Y0121262D01*
X0190775Y0121186D01*
X0190782Y0121110D01*
X0190786Y0121034D01*
X0190785Y0120957D01*
X0190781Y0120880D01*
X0190774Y0120804D01*
X0190762Y0120728D01*
X0190747Y0120653D01*
X0190728Y0120579D01*
X0190705Y0120506D01*
X0190679Y0120434D01*
X0190650Y0120363D01*
X0190617Y0120294D01*
X0190580Y0120227D01*
X0190541Y0120161D01*
X0190498Y0120097D01*
X0190452Y0120036D01*
X0190403Y0119977D01*
X0190352Y0119920D01*
X0190297Y0119866D01*
X0190240Y0119815D01*
X0190181Y0119767D01*
X0190119Y0119721D01*
X0190055Y0119679D01*
X0189989Y0119640D01*
X0189922Y0119604D01*
X0189852Y0119572D01*
X0189781Y0119543D01*
X0189709Y0119517D01*
X0182209Y0141170D02*
X0177909Y0141170D01*
X0174409Y0141170D02*
X0170209Y0141170D01*
X0018611Y0140009D02*
X0016111Y0137509D01*
X0018611Y0135009D01*
X0018611Y0130009D01*
X0016111Y0127509D01*
X0018611Y0125009D01*
X0018611Y0120009D01*
X0016111Y0117509D01*
X0011111Y0117509D01*
X0008611Y0120009D01*
X0008611Y0125009D01*
X0011111Y0127509D01*
X0008611Y0130009D01*
X0008611Y0135009D01*
X0011111Y0137509D01*
X0008611Y0140009D01*
X0008611Y0145009D01*
X0011111Y0147509D01*
X0016111Y0147509D01*
X0018611Y0145009D01*
X0018611Y0140009D01*
D13*
X0021481Y0139048D02*
X0023841Y0139048D01*
X0025021Y0137868D01*
X0023841Y0136688D01*
X0021481Y0136688D01*
X0022071Y0135423D02*
X0021481Y0134833D01*
X0021481Y0133653D01*
X0022071Y0133063D01*
X0022661Y0133063D01*
X0023251Y0133653D01*
X0023251Y0134833D01*
X0023841Y0135423D01*
X0024431Y0135423D01*
X0025021Y0134833D01*
X0025021Y0133653D01*
X0024431Y0133063D01*
X0025021Y0140313D02*
X0025021Y0142673D01*
X0025021Y0141493D02*
X0021481Y0141493D01*
X0022661Y0140313D01*
X0098694Y0016916D02*
X0098694Y0014556D01*
X0098694Y0015736D02*
X0095154Y0015736D01*
X0096334Y0014556D01*
X0095154Y0013291D02*
X0098694Y0010931D01*
X0098694Y0013291D02*
X0095154Y0010931D01*
X0148024Y0027082D02*
X0148614Y0026492D01*
X0149794Y0026492D01*
X0150384Y0027082D01*
X0150384Y0027672D01*
X0149794Y0028262D01*
X0148614Y0028262D01*
X0148024Y0028852D01*
X0148024Y0029442D01*
X0148614Y0030032D01*
X0149794Y0030032D01*
X0150384Y0029442D01*
X0151649Y0030032D02*
X0151649Y0027672D01*
X0152829Y0026492D01*
X0154009Y0027672D01*
X0154009Y0030032D01*
X0155274Y0029442D02*
X0155274Y0028852D01*
X0155864Y0028262D01*
X0157044Y0028262D01*
X0157634Y0027672D01*
X0157634Y0027082D01*
X0157044Y0026492D01*
X0155864Y0026492D01*
X0155274Y0027082D01*
X0155274Y0027672D01*
X0155864Y0028262D01*
X0157044Y0028262D02*
X0157634Y0028852D01*
X0157634Y0029442D01*
X0157044Y0030032D01*
X0155864Y0030032D01*
X0155274Y0029442D01*
X0161094Y0082173D02*
X0162274Y0082173D01*
X0162864Y0082763D01*
X0164129Y0082763D02*
X0164719Y0082173D01*
X0165899Y0082173D01*
X0166489Y0082763D01*
X0166489Y0083943D01*
X0165899Y0084533D01*
X0165309Y0084533D01*
X0164129Y0083943D01*
X0164129Y0085713D01*
X0166489Y0085713D01*
X0167754Y0085713D02*
X0169524Y0085713D01*
X0170114Y0085123D01*
X0170114Y0083943D01*
X0169524Y0083353D01*
X0167754Y0083353D01*
X0167754Y0082173D02*
X0167754Y0085713D01*
X0168934Y0083353D02*
X0170114Y0082173D01*
X0162864Y0085123D02*
X0162274Y0085713D01*
X0161094Y0085713D01*
X0160504Y0085123D01*
X0160504Y0082763D01*
X0161094Y0082173D01*
X0183486Y0106524D02*
X0182896Y0107114D01*
X0183486Y0106524D02*
X0184666Y0106524D01*
X0185256Y0107114D01*
X0185256Y0107704D01*
X0184666Y0108294D01*
X0183486Y0108294D01*
X0182896Y0108884D01*
X0182896Y0109474D01*
X0183486Y0110064D01*
X0184666Y0110064D01*
X0185256Y0109474D01*
X0186521Y0110064D02*
X0186521Y0107704D01*
X0187701Y0106524D01*
X0188881Y0107704D01*
X0188881Y0110064D01*
X0190146Y0109474D02*
X0190736Y0110064D01*
X0191916Y0110064D01*
X0192507Y0109474D01*
X0192507Y0108884D01*
X0190146Y0106524D01*
X0192507Y0106524D01*
X0159026Y0146331D02*
X0156666Y0146331D01*
X0156076Y0146921D01*
X0156076Y0148101D01*
X0156666Y0148691D01*
X0156076Y0149956D02*
X0157846Y0149956D01*
X0157256Y0151136D01*
X0157256Y0151726D01*
X0157846Y0152316D01*
X0159026Y0152316D01*
X0159616Y0151726D01*
X0159616Y0150546D01*
X0159026Y0149956D01*
X0159026Y0148691D02*
X0159616Y0148101D01*
X0159616Y0146921D01*
X0159026Y0146331D01*
X0156076Y0149956D02*
X0156076Y0152316D01*
X0156076Y0153581D02*
X0159616Y0153581D01*
X0159616Y0155941D01*
D14*
X0119005Y0173650D02*
X0105619Y0173650D01*
X0102076Y0177194D01*
X0102076Y0177784D01*
X0102076Y0186249D02*
X0102076Y0187036D01*
X0105619Y0190580D01*
X0119005Y0190580D01*
X0119005Y0186446D01*
X0119005Y0177784D02*
X0119005Y0173650D01*
X0117036Y0185855D02*
X0116943Y0186012D01*
X0116846Y0186167D01*
X0116746Y0186320D01*
X0116641Y0186470D01*
X0116533Y0186617D01*
X0116422Y0186762D01*
X0116307Y0186904D01*
X0116188Y0187043D01*
X0116066Y0187180D01*
X0115941Y0187313D01*
X0115813Y0187443D01*
X0115681Y0187570D01*
X0115547Y0187694D01*
X0115409Y0187814D01*
X0115269Y0187931D01*
X0115126Y0188045D01*
X0114980Y0188155D01*
X0114831Y0188261D01*
X0114680Y0188364D01*
X0114527Y0188463D01*
X0114371Y0188558D01*
X0114212Y0188650D01*
X0114052Y0188737D01*
X0113890Y0188821D01*
X0113725Y0188901D01*
X0113559Y0188976D01*
X0113391Y0189048D01*
X0113221Y0189115D01*
X0113049Y0189179D01*
X0112876Y0189238D01*
X0112702Y0189292D01*
X0112526Y0189343D01*
X0112350Y0189389D01*
X0112172Y0189431D01*
X0111993Y0189469D01*
X0111813Y0189502D01*
X0111633Y0189531D01*
X0111452Y0189555D01*
X0111270Y0189575D01*
X0111088Y0189591D01*
X0110905Y0189602D01*
X0110723Y0189609D01*
X0110540Y0189611D01*
X0110357Y0189609D01*
X0110175Y0189602D01*
X0109992Y0189591D01*
X0109810Y0189575D01*
X0109628Y0189555D01*
X0109447Y0189531D01*
X0109267Y0189502D01*
X0109087Y0189469D01*
X0108908Y0189431D01*
X0108730Y0189389D01*
X0108554Y0189343D01*
X0108378Y0189292D01*
X0108204Y0189238D01*
X0108031Y0189179D01*
X0107859Y0189115D01*
X0107689Y0189048D01*
X0107521Y0188976D01*
X0107355Y0188901D01*
X0107190Y0188821D01*
X0107028Y0188737D01*
X0106868Y0188650D01*
X0106709Y0188558D01*
X0106553Y0188463D01*
X0106400Y0188364D01*
X0106249Y0188261D01*
X0106100Y0188155D01*
X0105954Y0188045D01*
X0105811Y0187931D01*
X0105671Y0187814D01*
X0105533Y0187694D01*
X0105399Y0187570D01*
X0105267Y0187443D01*
X0105139Y0187313D01*
X0105014Y0187180D01*
X0104892Y0187043D01*
X0104773Y0186904D01*
X0104658Y0186762D01*
X0104547Y0186617D01*
X0104439Y0186470D01*
X0104334Y0186320D01*
X0104234Y0186167D01*
X0104137Y0186012D01*
X0104044Y0185855D01*
X0104044Y0178375D02*
X0104137Y0178218D01*
X0104234Y0178063D01*
X0104334Y0177910D01*
X0104439Y0177760D01*
X0104547Y0177613D01*
X0104658Y0177468D01*
X0104773Y0177326D01*
X0104892Y0177187D01*
X0105014Y0177050D01*
X0105139Y0176917D01*
X0105267Y0176787D01*
X0105399Y0176660D01*
X0105533Y0176536D01*
X0105671Y0176416D01*
X0105811Y0176299D01*
X0105954Y0176185D01*
X0106100Y0176075D01*
X0106249Y0175969D01*
X0106400Y0175866D01*
X0106553Y0175767D01*
X0106709Y0175672D01*
X0106868Y0175580D01*
X0107028Y0175493D01*
X0107190Y0175409D01*
X0107355Y0175329D01*
X0107521Y0175254D01*
X0107689Y0175182D01*
X0107859Y0175115D01*
X0108031Y0175051D01*
X0108204Y0174992D01*
X0108378Y0174938D01*
X0108554Y0174887D01*
X0108730Y0174841D01*
X0108908Y0174799D01*
X0109087Y0174761D01*
X0109267Y0174728D01*
X0109447Y0174699D01*
X0109628Y0174675D01*
X0109810Y0174655D01*
X0109992Y0174639D01*
X0110175Y0174628D01*
X0110357Y0174621D01*
X0110540Y0174619D01*
X0110723Y0174621D01*
X0110905Y0174628D01*
X0111088Y0174639D01*
X0111270Y0174655D01*
X0111452Y0174675D01*
X0111633Y0174699D01*
X0111813Y0174728D01*
X0111993Y0174761D01*
X0112172Y0174799D01*
X0112350Y0174841D01*
X0112526Y0174887D01*
X0112702Y0174938D01*
X0112876Y0174992D01*
X0113049Y0175051D01*
X0113221Y0175115D01*
X0113391Y0175182D01*
X0113559Y0175254D01*
X0113725Y0175329D01*
X0113890Y0175409D01*
X0114052Y0175493D01*
X0114212Y0175580D01*
X0114371Y0175672D01*
X0114527Y0175767D01*
X0114680Y0175866D01*
X0114831Y0175969D01*
X0114980Y0176075D01*
X0115126Y0176185D01*
X0115269Y0176299D01*
X0115409Y0176416D01*
X0115547Y0176536D01*
X0115681Y0176660D01*
X0115813Y0176787D01*
X0115941Y0176917D01*
X0116066Y0177050D01*
X0116188Y0177187D01*
X0116307Y0177326D01*
X0116422Y0177468D01*
X0116533Y0177613D01*
X0116641Y0177760D01*
X0116746Y0177910D01*
X0116846Y0178063D01*
X0116943Y0178218D01*
X0117036Y0178375D01*
X0057902Y0174162D02*
X0054359Y0170619D01*
X0053769Y0170619D01*
X0057902Y0174162D02*
X0057902Y0187548D01*
X0053769Y0187548D01*
X0045107Y0187548D02*
X0040973Y0187548D01*
X0040973Y0174162D01*
X0044517Y0170619D01*
X0045304Y0170619D01*
X0053178Y0172587D02*
X0053335Y0172680D01*
X0053490Y0172777D01*
X0053643Y0172877D01*
X0053793Y0172982D01*
X0053940Y0173090D01*
X0054085Y0173201D01*
X0054227Y0173316D01*
X0054366Y0173435D01*
X0054503Y0173557D01*
X0054636Y0173682D01*
X0054766Y0173810D01*
X0054893Y0173942D01*
X0055017Y0174076D01*
X0055137Y0174214D01*
X0055254Y0174354D01*
X0055368Y0174497D01*
X0055478Y0174643D01*
X0055584Y0174792D01*
X0055687Y0174943D01*
X0055786Y0175096D01*
X0055881Y0175252D01*
X0055973Y0175411D01*
X0056060Y0175571D01*
X0056144Y0175733D01*
X0056224Y0175898D01*
X0056299Y0176064D01*
X0056371Y0176232D01*
X0056438Y0176402D01*
X0056502Y0176574D01*
X0056561Y0176747D01*
X0056615Y0176921D01*
X0056666Y0177097D01*
X0056712Y0177273D01*
X0056754Y0177451D01*
X0056792Y0177630D01*
X0056825Y0177810D01*
X0056854Y0177990D01*
X0056878Y0178171D01*
X0056898Y0178353D01*
X0056914Y0178535D01*
X0056925Y0178718D01*
X0056932Y0178900D01*
X0056934Y0179083D01*
X0056932Y0179266D01*
X0056925Y0179448D01*
X0056914Y0179631D01*
X0056898Y0179813D01*
X0056878Y0179995D01*
X0056854Y0180176D01*
X0056825Y0180356D01*
X0056792Y0180536D01*
X0056754Y0180715D01*
X0056712Y0180893D01*
X0056666Y0181069D01*
X0056615Y0181245D01*
X0056561Y0181419D01*
X0056502Y0181592D01*
X0056438Y0181764D01*
X0056371Y0181934D01*
X0056299Y0182102D01*
X0056224Y0182268D01*
X0056144Y0182433D01*
X0056060Y0182595D01*
X0055973Y0182755D01*
X0055881Y0182914D01*
X0055786Y0183070D01*
X0055687Y0183223D01*
X0055584Y0183374D01*
X0055478Y0183523D01*
X0055368Y0183669D01*
X0055254Y0183812D01*
X0055137Y0183952D01*
X0055017Y0184090D01*
X0054893Y0184224D01*
X0054766Y0184356D01*
X0054636Y0184484D01*
X0054503Y0184609D01*
X0054366Y0184731D01*
X0054227Y0184850D01*
X0054085Y0184965D01*
X0053940Y0185076D01*
X0053793Y0185184D01*
X0053643Y0185289D01*
X0053490Y0185389D01*
X0053335Y0185486D01*
X0053178Y0185579D01*
X0045698Y0185579D02*
X0045541Y0185486D01*
X0045386Y0185389D01*
X0045233Y0185289D01*
X0045083Y0185184D01*
X0044936Y0185076D01*
X0044791Y0184965D01*
X0044649Y0184850D01*
X0044510Y0184731D01*
X0044373Y0184609D01*
X0044240Y0184484D01*
X0044110Y0184356D01*
X0043983Y0184224D01*
X0043859Y0184090D01*
X0043739Y0183952D01*
X0043622Y0183812D01*
X0043508Y0183669D01*
X0043398Y0183523D01*
X0043292Y0183374D01*
X0043189Y0183223D01*
X0043090Y0183070D01*
X0042995Y0182914D01*
X0042903Y0182755D01*
X0042816Y0182595D01*
X0042732Y0182433D01*
X0042652Y0182268D01*
X0042577Y0182102D01*
X0042505Y0181934D01*
X0042438Y0181764D01*
X0042374Y0181592D01*
X0042315Y0181419D01*
X0042261Y0181245D01*
X0042210Y0181069D01*
X0042164Y0180893D01*
X0042122Y0180715D01*
X0042084Y0180536D01*
X0042051Y0180356D01*
X0042022Y0180176D01*
X0041998Y0179995D01*
X0041978Y0179813D01*
X0041962Y0179631D01*
X0041951Y0179448D01*
X0041944Y0179266D01*
X0041942Y0179083D01*
X0041944Y0178900D01*
X0041951Y0178718D01*
X0041962Y0178535D01*
X0041978Y0178353D01*
X0041998Y0178171D01*
X0042022Y0177990D01*
X0042051Y0177810D01*
X0042084Y0177630D01*
X0042122Y0177451D01*
X0042164Y0177273D01*
X0042210Y0177097D01*
X0042261Y0176921D01*
X0042315Y0176747D01*
X0042374Y0176574D01*
X0042438Y0176402D01*
X0042505Y0176232D01*
X0042577Y0176064D01*
X0042652Y0175898D01*
X0042732Y0175733D01*
X0042816Y0175571D01*
X0042903Y0175411D01*
X0042995Y0175252D01*
X0043090Y0175096D01*
X0043189Y0174943D01*
X0043292Y0174792D01*
X0043398Y0174643D01*
X0043508Y0174497D01*
X0043622Y0174354D01*
X0043739Y0174214D01*
X0043859Y0174076D01*
X0043983Y0173942D01*
X0044110Y0173810D01*
X0044240Y0173682D01*
X0044373Y0173557D01*
X0044510Y0173435D01*
X0044649Y0173316D01*
X0044791Y0173201D01*
X0044936Y0173090D01*
X0045083Y0172982D01*
X0045233Y0172877D01*
X0045386Y0172777D01*
X0045541Y0172680D01*
X0045698Y0172587D01*
X0047430Y0097154D02*
X0034044Y0097154D01*
X0030501Y0093611D01*
X0030501Y0092824D01*
X0030501Y0084359D02*
X0030501Y0083769D01*
X0034044Y0080225D01*
X0047430Y0080225D01*
X0047430Y0084359D01*
X0047430Y0093020D02*
X0047430Y0097154D01*
X0045461Y0084950D02*
X0045368Y0084793D01*
X0045271Y0084638D01*
X0045171Y0084485D01*
X0045066Y0084335D01*
X0044958Y0084188D01*
X0044847Y0084043D01*
X0044732Y0083901D01*
X0044613Y0083762D01*
X0044491Y0083625D01*
X0044366Y0083492D01*
X0044238Y0083362D01*
X0044106Y0083235D01*
X0043972Y0083111D01*
X0043834Y0082991D01*
X0043694Y0082874D01*
X0043551Y0082760D01*
X0043405Y0082650D01*
X0043256Y0082544D01*
X0043105Y0082441D01*
X0042952Y0082342D01*
X0042796Y0082247D01*
X0042637Y0082155D01*
X0042477Y0082068D01*
X0042315Y0081984D01*
X0042150Y0081904D01*
X0041984Y0081829D01*
X0041816Y0081757D01*
X0041646Y0081690D01*
X0041474Y0081626D01*
X0041301Y0081567D01*
X0041127Y0081513D01*
X0040951Y0081462D01*
X0040775Y0081416D01*
X0040597Y0081374D01*
X0040418Y0081336D01*
X0040238Y0081303D01*
X0040058Y0081274D01*
X0039877Y0081250D01*
X0039695Y0081230D01*
X0039513Y0081214D01*
X0039330Y0081203D01*
X0039148Y0081196D01*
X0038965Y0081194D01*
X0038782Y0081196D01*
X0038600Y0081203D01*
X0038417Y0081214D01*
X0038235Y0081230D01*
X0038053Y0081250D01*
X0037872Y0081274D01*
X0037692Y0081303D01*
X0037512Y0081336D01*
X0037333Y0081374D01*
X0037155Y0081416D01*
X0036979Y0081462D01*
X0036803Y0081513D01*
X0036629Y0081567D01*
X0036456Y0081626D01*
X0036284Y0081690D01*
X0036114Y0081757D01*
X0035946Y0081829D01*
X0035780Y0081904D01*
X0035615Y0081984D01*
X0035453Y0082068D01*
X0035293Y0082155D01*
X0035134Y0082247D01*
X0034978Y0082342D01*
X0034825Y0082441D01*
X0034674Y0082544D01*
X0034525Y0082650D01*
X0034379Y0082760D01*
X0034236Y0082874D01*
X0034096Y0082991D01*
X0033958Y0083111D01*
X0033824Y0083235D01*
X0033692Y0083362D01*
X0033564Y0083492D01*
X0033439Y0083625D01*
X0033317Y0083762D01*
X0033198Y0083901D01*
X0033083Y0084043D01*
X0032972Y0084188D01*
X0032864Y0084335D01*
X0032759Y0084485D01*
X0032659Y0084638D01*
X0032562Y0084793D01*
X0032469Y0084950D01*
X0032469Y0092430D02*
X0032562Y0092587D01*
X0032659Y0092742D01*
X0032759Y0092895D01*
X0032864Y0093045D01*
X0032972Y0093192D01*
X0033083Y0093337D01*
X0033198Y0093479D01*
X0033317Y0093618D01*
X0033439Y0093755D01*
X0033564Y0093888D01*
X0033692Y0094018D01*
X0033824Y0094145D01*
X0033958Y0094269D01*
X0034096Y0094389D01*
X0034236Y0094506D01*
X0034379Y0094620D01*
X0034525Y0094730D01*
X0034674Y0094836D01*
X0034825Y0094939D01*
X0034978Y0095038D01*
X0035134Y0095133D01*
X0035293Y0095225D01*
X0035453Y0095312D01*
X0035615Y0095396D01*
X0035780Y0095476D01*
X0035946Y0095551D01*
X0036114Y0095623D01*
X0036284Y0095690D01*
X0036456Y0095754D01*
X0036629Y0095813D01*
X0036803Y0095867D01*
X0036979Y0095918D01*
X0037155Y0095964D01*
X0037333Y0096006D01*
X0037512Y0096044D01*
X0037692Y0096077D01*
X0037872Y0096106D01*
X0038053Y0096130D01*
X0038235Y0096150D01*
X0038417Y0096166D01*
X0038600Y0096177D01*
X0038782Y0096184D01*
X0038965Y0096186D01*
X0039148Y0096184D01*
X0039330Y0096177D01*
X0039513Y0096166D01*
X0039695Y0096150D01*
X0039877Y0096130D01*
X0040058Y0096106D01*
X0040238Y0096077D01*
X0040418Y0096044D01*
X0040597Y0096006D01*
X0040775Y0095964D01*
X0040951Y0095918D01*
X0041127Y0095867D01*
X0041301Y0095813D01*
X0041474Y0095754D01*
X0041646Y0095690D01*
X0041816Y0095623D01*
X0041984Y0095551D01*
X0042150Y0095476D01*
X0042315Y0095396D01*
X0042477Y0095312D01*
X0042637Y0095225D01*
X0042796Y0095133D01*
X0042952Y0095038D01*
X0043105Y0094939D01*
X0043256Y0094836D01*
X0043405Y0094730D01*
X0043551Y0094620D01*
X0043694Y0094506D01*
X0043834Y0094389D01*
X0043972Y0094269D01*
X0044106Y0094145D01*
X0044238Y0094018D01*
X0044366Y0093888D01*
X0044491Y0093755D01*
X0044613Y0093618D01*
X0044732Y0093479D01*
X0044847Y0093337D01*
X0044958Y0093192D01*
X0045066Y0093045D01*
X0045171Y0092895D01*
X0045271Y0092742D01*
X0045368Y0092587D01*
X0045461Y0092430D01*
X0047981Y0070028D02*
X0042863Y0070028D01*
X0039320Y0066485D01*
X0039320Y0044044D01*
X0047981Y0044044D01*
X0056643Y0044044D02*
X0065304Y0044044D01*
X0065304Y0066485D01*
X0061761Y0070028D01*
X0056643Y0070028D01*
X0068139Y0065776D02*
X0107115Y0065776D01*
X0107115Y0044123D01*
X0068139Y0044123D01*
X0068139Y0065776D01*
X0056052Y0068650D02*
X0056333Y0068556D01*
X0056612Y0068454D01*
X0056888Y0068346D01*
X0057161Y0068231D01*
X0057432Y0068110D01*
X0057699Y0067982D01*
X0057964Y0067847D01*
X0058225Y0067706D01*
X0058482Y0067559D01*
X0058736Y0067406D01*
X0058986Y0067246D01*
X0059232Y0067081D01*
X0059474Y0066909D01*
X0059711Y0066732D01*
X0059945Y0066549D01*
X0060173Y0066360D01*
X0060398Y0066165D01*
X0060617Y0065966D01*
X0060831Y0065761D01*
X0061040Y0065551D01*
X0061244Y0065336D01*
X0061443Y0065115D01*
X0061637Y0064891D01*
X0061824Y0064661D01*
X0062007Y0064427D01*
X0062183Y0064189D01*
X0062354Y0063946D01*
X0062518Y0063700D01*
X0062677Y0063449D01*
X0062829Y0063195D01*
X0062975Y0062936D01*
X0063115Y0062675D01*
X0063249Y0062410D01*
X0063376Y0062142D01*
X0063496Y0061871D01*
X0063610Y0061597D01*
X0063717Y0061321D01*
X0063817Y0061041D01*
X0063910Y0060760D01*
X0063997Y0060476D01*
X0064076Y0060191D01*
X0064149Y0059903D01*
X0064215Y0059614D01*
X0064273Y0059323D01*
X0064324Y0059031D01*
X0064369Y0058738D01*
X0064406Y0058444D01*
X0064436Y0058149D01*
X0064459Y0057853D01*
X0064474Y0057557D01*
X0064482Y0057260D01*
X0064484Y0056964D01*
X0064477Y0056667D01*
X0064464Y0056371D01*
X0064444Y0056075D01*
X0064416Y0055780D01*
X0064381Y0055486D01*
X0064339Y0055192D01*
X0064289Y0054900D01*
X0064233Y0054608D01*
X0064170Y0054319D01*
X0064099Y0054031D01*
X0064022Y0053744D01*
X0063937Y0053460D01*
X0063846Y0053178D01*
X0063748Y0052898D01*
X0063643Y0052621D01*
X0063531Y0052346D01*
X0063413Y0052074D01*
X0063288Y0051805D01*
X0063156Y0051539D01*
X0063019Y0051277D01*
X0062874Y0051018D01*
X0062724Y0050762D01*
X0062567Y0050510D01*
X0062404Y0050262D01*
X0062236Y0050019D01*
X0062061Y0049779D01*
X0061880Y0049544D01*
X0061694Y0049313D01*
X0061503Y0049086D01*
X0061306Y0048865D01*
X0061103Y0048648D01*
X0060895Y0048437D01*
X0060683Y0048230D01*
X0060465Y0048029D01*
X0060242Y0047833D01*
X0060015Y0047642D01*
X0059783Y0047457D01*
X0059547Y0047278D01*
X0059306Y0047105D01*
X0059061Y0046938D01*
X0058812Y0046776D01*
X0058560Y0046621D01*
X0058303Y0046472D01*
X0058044Y0046329D01*
X0057780Y0046192D01*
X0057514Y0046062D01*
X0057244Y0045939D01*
X0056972Y0045822D01*
X0056696Y0045712D01*
X0056418Y0045609D01*
X0056138Y0045512D01*
X0055855Y0045422D01*
X0048572Y0045422D02*
X0048291Y0045516D01*
X0048012Y0045618D01*
X0047736Y0045726D01*
X0047463Y0045841D01*
X0047192Y0045962D01*
X0046925Y0046090D01*
X0046660Y0046225D01*
X0046399Y0046366D01*
X0046142Y0046513D01*
X0045888Y0046666D01*
X0045638Y0046826D01*
X0045392Y0046991D01*
X0045150Y0047163D01*
X0044913Y0047340D01*
X0044679Y0047523D01*
X0044451Y0047712D01*
X0044226Y0047907D01*
X0044007Y0048106D01*
X0043793Y0048311D01*
X0043584Y0048521D01*
X0043380Y0048736D01*
X0043181Y0048957D01*
X0042987Y0049181D01*
X0042800Y0049411D01*
X0042617Y0049645D01*
X0042441Y0049883D01*
X0042270Y0050126D01*
X0042106Y0050372D01*
X0041947Y0050623D01*
X0041795Y0050877D01*
X0041649Y0051136D01*
X0041509Y0051397D01*
X0041375Y0051662D01*
X0041248Y0051930D01*
X0041128Y0052201D01*
X0041014Y0052475D01*
X0040907Y0052751D01*
X0040807Y0053031D01*
X0040714Y0053312D01*
X0040627Y0053596D01*
X0040548Y0053881D01*
X0040475Y0054169D01*
X0040409Y0054458D01*
X0040351Y0054749D01*
X0040300Y0055041D01*
X0040255Y0055334D01*
X0040218Y0055628D01*
X0040188Y0055923D01*
X0040165Y0056219D01*
X0040150Y0056515D01*
X0040142Y0056812D01*
X0040140Y0057108D01*
X0040147Y0057405D01*
X0040160Y0057701D01*
X0040180Y0057997D01*
X0040208Y0058292D01*
X0040243Y0058586D01*
X0040285Y0058880D01*
X0040335Y0059172D01*
X0040391Y0059464D01*
X0040454Y0059753D01*
X0040525Y0060041D01*
X0040602Y0060328D01*
X0040687Y0060612D01*
X0040778Y0060894D01*
X0040876Y0061174D01*
X0040981Y0061451D01*
X0041093Y0061726D01*
X0041211Y0061998D01*
X0041336Y0062267D01*
X0041468Y0062533D01*
X0041605Y0062795D01*
X0041750Y0063054D01*
X0041900Y0063310D01*
X0042057Y0063562D01*
X0042220Y0063810D01*
X0042388Y0064053D01*
X0042563Y0064293D01*
X0042744Y0064528D01*
X0042930Y0064759D01*
X0043121Y0064986D01*
X0043318Y0065207D01*
X0043521Y0065424D01*
X0043729Y0065635D01*
X0043941Y0065842D01*
X0044159Y0066043D01*
X0044382Y0066239D01*
X0044609Y0066430D01*
X0044841Y0066615D01*
X0045077Y0066794D01*
X0045318Y0066967D01*
X0045563Y0067134D01*
X0045812Y0067296D01*
X0046064Y0067451D01*
X0046321Y0067600D01*
X0046580Y0067743D01*
X0046844Y0067880D01*
X0047110Y0068010D01*
X0047380Y0068133D01*
X0047652Y0068250D01*
X0047928Y0068360D01*
X0048206Y0068463D01*
X0048486Y0068560D01*
X0048769Y0068650D01*
X0035934Y0069950D02*
X0035934Y0047509D01*
X0032391Y0043965D01*
X0027272Y0043965D01*
X0018611Y0043965D02*
X0013493Y0043965D01*
X0009950Y0047509D01*
X0009950Y0069950D01*
X0018611Y0069950D01*
X0027272Y0069950D02*
X0035934Y0069950D01*
X0026682Y0068571D02*
X0026963Y0068477D01*
X0027242Y0068375D01*
X0027518Y0068267D01*
X0027791Y0068152D01*
X0028062Y0068031D01*
X0028329Y0067903D01*
X0028594Y0067768D01*
X0028855Y0067627D01*
X0029112Y0067480D01*
X0029366Y0067327D01*
X0029616Y0067167D01*
X0029862Y0067002D01*
X0030104Y0066830D01*
X0030341Y0066653D01*
X0030575Y0066470D01*
X0030803Y0066281D01*
X0031028Y0066086D01*
X0031247Y0065887D01*
X0031461Y0065682D01*
X0031670Y0065472D01*
X0031874Y0065257D01*
X0032073Y0065036D01*
X0032267Y0064812D01*
X0032454Y0064582D01*
X0032637Y0064348D01*
X0032813Y0064110D01*
X0032984Y0063867D01*
X0033148Y0063621D01*
X0033307Y0063370D01*
X0033459Y0063116D01*
X0033605Y0062857D01*
X0033745Y0062596D01*
X0033879Y0062331D01*
X0034006Y0062063D01*
X0034126Y0061792D01*
X0034240Y0061518D01*
X0034347Y0061242D01*
X0034447Y0060962D01*
X0034540Y0060681D01*
X0034627Y0060397D01*
X0034706Y0060112D01*
X0034779Y0059824D01*
X0034845Y0059535D01*
X0034903Y0059244D01*
X0034954Y0058952D01*
X0034999Y0058659D01*
X0035036Y0058365D01*
X0035066Y0058070D01*
X0035089Y0057774D01*
X0035104Y0057478D01*
X0035112Y0057181D01*
X0035114Y0056885D01*
X0035107Y0056588D01*
X0035094Y0056292D01*
X0035074Y0055996D01*
X0035046Y0055701D01*
X0035011Y0055407D01*
X0034969Y0055113D01*
X0034919Y0054821D01*
X0034863Y0054529D01*
X0034800Y0054240D01*
X0034729Y0053952D01*
X0034652Y0053665D01*
X0034567Y0053381D01*
X0034476Y0053099D01*
X0034378Y0052819D01*
X0034273Y0052542D01*
X0034161Y0052267D01*
X0034043Y0051995D01*
X0033918Y0051726D01*
X0033786Y0051460D01*
X0033649Y0051198D01*
X0033504Y0050939D01*
X0033354Y0050683D01*
X0033197Y0050431D01*
X0033034Y0050183D01*
X0032866Y0049940D01*
X0032691Y0049700D01*
X0032510Y0049465D01*
X0032324Y0049234D01*
X0032133Y0049007D01*
X0031936Y0048786D01*
X0031733Y0048569D01*
X0031525Y0048358D01*
X0031313Y0048151D01*
X0031095Y0047950D01*
X0030872Y0047754D01*
X0030645Y0047563D01*
X0030413Y0047378D01*
X0030177Y0047199D01*
X0029936Y0047026D01*
X0029691Y0046859D01*
X0029442Y0046697D01*
X0029190Y0046542D01*
X0028933Y0046393D01*
X0028674Y0046250D01*
X0028410Y0046113D01*
X0028144Y0045983D01*
X0027874Y0045860D01*
X0027602Y0045743D01*
X0027326Y0045633D01*
X0027048Y0045530D01*
X0026768Y0045433D01*
X0026485Y0045343D01*
X0019202Y0045344D02*
X0018921Y0045438D01*
X0018642Y0045540D01*
X0018366Y0045648D01*
X0018093Y0045763D01*
X0017822Y0045884D01*
X0017555Y0046012D01*
X0017290Y0046147D01*
X0017029Y0046288D01*
X0016772Y0046435D01*
X0016518Y0046588D01*
X0016268Y0046748D01*
X0016022Y0046913D01*
X0015780Y0047085D01*
X0015543Y0047262D01*
X0015309Y0047445D01*
X0015081Y0047634D01*
X0014856Y0047829D01*
X0014637Y0048028D01*
X0014423Y0048233D01*
X0014214Y0048443D01*
X0014010Y0048658D01*
X0013811Y0048879D01*
X0013617Y0049103D01*
X0013430Y0049333D01*
X0013247Y0049567D01*
X0013071Y0049805D01*
X0012900Y0050048D01*
X0012736Y0050294D01*
X0012577Y0050545D01*
X0012425Y0050799D01*
X0012279Y0051058D01*
X0012139Y0051319D01*
X0012005Y0051584D01*
X0011878Y0051852D01*
X0011758Y0052123D01*
X0011644Y0052397D01*
X0011537Y0052673D01*
X0011437Y0052953D01*
X0011344Y0053234D01*
X0011257Y0053518D01*
X0011178Y0053803D01*
X0011105Y0054091D01*
X0011039Y0054380D01*
X0010981Y0054671D01*
X0010930Y0054963D01*
X0010885Y0055256D01*
X0010848Y0055550D01*
X0010818Y0055845D01*
X0010795Y0056141D01*
X0010780Y0056437D01*
X0010772Y0056734D01*
X0010770Y0057030D01*
X0010777Y0057327D01*
X0010790Y0057623D01*
X0010810Y0057919D01*
X0010838Y0058214D01*
X0010873Y0058508D01*
X0010915Y0058802D01*
X0010965Y0059094D01*
X0011021Y0059386D01*
X0011084Y0059675D01*
X0011155Y0059963D01*
X0011232Y0060250D01*
X0011317Y0060534D01*
X0011408Y0060816D01*
X0011506Y0061096D01*
X0011611Y0061373D01*
X0011723Y0061648D01*
X0011841Y0061920D01*
X0011966Y0062189D01*
X0012098Y0062455D01*
X0012235Y0062717D01*
X0012380Y0062976D01*
X0012530Y0063232D01*
X0012687Y0063484D01*
X0012850Y0063732D01*
X0013018Y0063975D01*
X0013193Y0064215D01*
X0013374Y0064450D01*
X0013560Y0064681D01*
X0013751Y0064908D01*
X0013948Y0065129D01*
X0014151Y0065346D01*
X0014359Y0065557D01*
X0014571Y0065764D01*
X0014789Y0065965D01*
X0015012Y0066161D01*
X0015239Y0066352D01*
X0015471Y0066537D01*
X0015707Y0066716D01*
X0015948Y0066889D01*
X0016193Y0067056D01*
X0016442Y0067218D01*
X0016694Y0067373D01*
X0016951Y0067522D01*
X0017210Y0067665D01*
X0017474Y0067802D01*
X0017740Y0067932D01*
X0018010Y0068055D01*
X0018282Y0068172D01*
X0018558Y0068282D01*
X0018836Y0068385D01*
X0019116Y0068482D01*
X0019399Y0068572D01*
X0097272Y0081918D02*
X0100816Y0078375D01*
X0114202Y0078375D01*
X0114202Y0082509D01*
X0114202Y0091170D02*
X0114202Y0095304D01*
X0100816Y0095304D01*
X0097272Y0091761D01*
X0097272Y0090973D01*
X0097272Y0082509D02*
X0097272Y0081918D01*
X0099241Y0083099D02*
X0099334Y0082942D01*
X0099431Y0082787D01*
X0099531Y0082634D01*
X0099636Y0082484D01*
X0099744Y0082337D01*
X0099855Y0082192D01*
X0099970Y0082050D01*
X0100089Y0081911D01*
X0100211Y0081774D01*
X0100336Y0081641D01*
X0100464Y0081511D01*
X0100596Y0081384D01*
X0100730Y0081260D01*
X0100868Y0081140D01*
X0101008Y0081023D01*
X0101151Y0080909D01*
X0101297Y0080799D01*
X0101446Y0080693D01*
X0101597Y0080590D01*
X0101750Y0080491D01*
X0101906Y0080396D01*
X0102065Y0080304D01*
X0102225Y0080217D01*
X0102387Y0080133D01*
X0102552Y0080053D01*
X0102718Y0079978D01*
X0102886Y0079906D01*
X0103056Y0079839D01*
X0103228Y0079775D01*
X0103401Y0079716D01*
X0103575Y0079662D01*
X0103751Y0079611D01*
X0103927Y0079565D01*
X0104105Y0079523D01*
X0104284Y0079485D01*
X0104464Y0079452D01*
X0104644Y0079423D01*
X0104825Y0079399D01*
X0105007Y0079379D01*
X0105189Y0079363D01*
X0105372Y0079352D01*
X0105554Y0079345D01*
X0105737Y0079343D01*
X0105920Y0079345D01*
X0106102Y0079352D01*
X0106285Y0079363D01*
X0106467Y0079379D01*
X0106649Y0079399D01*
X0106830Y0079423D01*
X0107010Y0079452D01*
X0107190Y0079485D01*
X0107369Y0079523D01*
X0107547Y0079565D01*
X0107723Y0079611D01*
X0107899Y0079662D01*
X0108073Y0079716D01*
X0108246Y0079775D01*
X0108418Y0079839D01*
X0108588Y0079906D01*
X0108756Y0079978D01*
X0108922Y0080053D01*
X0109087Y0080133D01*
X0109249Y0080217D01*
X0109409Y0080304D01*
X0109568Y0080396D01*
X0109724Y0080491D01*
X0109877Y0080590D01*
X0110028Y0080693D01*
X0110177Y0080799D01*
X0110323Y0080909D01*
X0110466Y0081023D01*
X0110606Y0081140D01*
X0110744Y0081260D01*
X0110878Y0081384D01*
X0111010Y0081511D01*
X0111138Y0081641D01*
X0111263Y0081774D01*
X0111385Y0081911D01*
X0111504Y0082050D01*
X0111619Y0082192D01*
X0111730Y0082337D01*
X0111838Y0082484D01*
X0111943Y0082634D01*
X0112043Y0082787D01*
X0112140Y0082942D01*
X0112233Y0083099D01*
X0112233Y0090579D02*
X0112140Y0090736D01*
X0112043Y0090891D01*
X0111943Y0091044D01*
X0111838Y0091194D01*
X0111730Y0091341D01*
X0111619Y0091486D01*
X0111504Y0091628D01*
X0111385Y0091767D01*
X0111263Y0091904D01*
X0111138Y0092037D01*
X0111010Y0092167D01*
X0110878Y0092294D01*
X0110744Y0092418D01*
X0110606Y0092538D01*
X0110466Y0092655D01*
X0110323Y0092769D01*
X0110177Y0092879D01*
X0110028Y0092985D01*
X0109877Y0093088D01*
X0109724Y0093187D01*
X0109568Y0093282D01*
X0109409Y0093374D01*
X0109249Y0093461D01*
X0109087Y0093545D01*
X0108922Y0093625D01*
X0108756Y0093700D01*
X0108588Y0093772D01*
X0108418Y0093839D01*
X0108246Y0093903D01*
X0108073Y0093962D01*
X0107899Y0094016D01*
X0107723Y0094067D01*
X0107547Y0094113D01*
X0107369Y0094155D01*
X0107190Y0094193D01*
X0107010Y0094226D01*
X0106830Y0094255D01*
X0106649Y0094279D01*
X0106467Y0094299D01*
X0106285Y0094315D01*
X0106102Y0094326D01*
X0105920Y0094333D01*
X0105737Y0094335D01*
X0105554Y0094333D01*
X0105372Y0094326D01*
X0105189Y0094315D01*
X0105007Y0094299D01*
X0104825Y0094279D01*
X0104644Y0094255D01*
X0104464Y0094226D01*
X0104284Y0094193D01*
X0104105Y0094155D01*
X0103927Y0094113D01*
X0103751Y0094067D01*
X0103575Y0094016D01*
X0103401Y0093962D01*
X0103228Y0093903D01*
X0103056Y0093839D01*
X0102886Y0093772D01*
X0102718Y0093700D01*
X0102552Y0093625D01*
X0102387Y0093545D01*
X0102225Y0093461D01*
X0102065Y0093374D01*
X0101906Y0093282D01*
X0101750Y0093187D01*
X0101597Y0093088D01*
X0101446Y0092985D01*
X0101297Y0092879D01*
X0101151Y0092769D01*
X0101008Y0092655D01*
X0100868Y0092538D01*
X0100730Y0092418D01*
X0100596Y0092294D01*
X0100464Y0092167D01*
X0100336Y0092037D01*
X0100211Y0091904D01*
X0100089Y0091767D01*
X0099970Y0091628D01*
X0099855Y0091486D01*
X0099744Y0091341D01*
X0099636Y0091194D01*
X0099531Y0091044D01*
X0099431Y0090891D01*
X0099334Y0090736D01*
X0099241Y0090579D01*
D15*
X0174409Y0061493D02*
X0174409Y0058493D01*
X0174409Y0055493D01*
X0177909Y0055493D02*
X0177909Y0058493D01*
X0177909Y0061493D01*
X0177909Y0138170D02*
X0177909Y0141170D01*
X0177909Y0144170D01*
X0174409Y0144170D02*
X0174409Y0141170D01*
X0174409Y0138170D01*
D16*
X0194932Y0102479D02*
X0194932Y0097975D01*
X0196433Y0097975D02*
X0193430Y0097975D01*
X0193430Y0100978D02*
X0194932Y0102479D01*
X0159083Y0024611D02*
X0159083Y0002611D01*
X0109083Y0002611D01*
X0109083Y0024611D01*
X0159083Y0024611D01*
X0153336Y0020865D02*
X0151835Y0020114D01*
X0150333Y0018613D01*
X0152585Y0018613D01*
X0153336Y0017862D01*
X0153336Y0017112D01*
X0152585Y0016361D01*
X0151084Y0016361D01*
X0150333Y0017112D01*
X0150333Y0018613D01*
X0118836Y0005361D02*
X0115833Y0005361D01*
X0117335Y0005361D02*
X0117335Y0009865D01*
X0115833Y0008364D01*
X0015861Y0112759D02*
X0015861Y0115761D01*
X0015861Y0114260D02*
X0011357Y0114260D01*
X0012858Y0112759D01*
M02*
