G75*
%MOIN*%
%OFA0B0*%
%FSLAX25Y25*%
%IPPOS*%
%LPD*%
%AMOC8*
5,1,8,0,0,1.08239X$1,22.5*
%
%ADD10C,0.00394*%
%ADD11C,0.07050*%
%ADD12R,0.10236X0.06299*%
%ADD13R,0.06299X0.10236*%
%ADD14OC8,0.06300*%
%ADD15C,0.06000*%
%ADD16C,0.05600*%
%ADD17C,0.06000*%
%ADD18OC8,0.06000*%
%ADD19C,0.26772*%
D10*
X0001800Y0001800D02*
X0001800Y0198650D01*
X0198650Y0198650D01*
X0198650Y0001800D01*
X0001800Y0001800D01*
D11*
X0043454Y0018413D02*
X0043454Y0025463D01*
X0063454Y0025463D02*
X0063454Y0018413D01*
X0083454Y0018413D02*
X0083454Y0025463D01*
D12*
X0090501Y0125816D03*
X0102981Y0139005D03*
X0117154Y0139005D03*
X0076328Y0125816D03*
X0048572Y0133296D03*
X0034398Y0133296D03*
D13*
X0144123Y0133217D03*
X0144123Y0119044D03*
D14*
X0166209Y0141170D03*
X0186209Y0141170D03*
X0186209Y0058493D03*
X0166209Y0058493D03*
D15*
X0167784Y0097225D02*
X0167784Y0103225D01*
X0177784Y0103225D02*
X0177784Y0097225D01*
X0187784Y0097225D02*
X0187784Y0103225D01*
X0016611Y0122509D02*
X0010611Y0122509D01*
X0010611Y0132509D02*
X0016611Y0132509D01*
X0016611Y0142509D02*
X0010611Y0142509D01*
D16*
X0072666Y0061249D03*
X0081328Y0061249D03*
X0089989Y0061249D03*
X0089989Y0048650D03*
X0081328Y0048650D03*
X0072666Y0048650D03*
X0102587Y0048650D03*
X0102587Y0061249D03*
D17*
X0124083Y0008611D03*
D18*
X0124083Y0018611D03*
X0134083Y0018611D03*
X0134083Y0008611D03*
X0144083Y0008611D03*
X0144083Y0018611D03*
D19*
X0182902Y0017548D03*
X0017548Y0017548D03*
X0017548Y0182902D03*
X0182902Y0182902D03*
M02*
