G75*
%MOIN*%
%OFA0B0*%
%FSLAX25Y25*%
%IPPOS*%
%LPD*%
%AMOC8*
5,1,8,0,0,1.08239X$1,22.5*
%
%ADD10C,0.00591*%
%ADD11C,0.04800*%
%ADD12C,0.06000*%
%ADD13R,0.05512X0.03937*%
%ADD14R,0.03937X0.04331*%
%ADD15R,0.03937X0.05512*%
%ADD16R,0.04331X0.03937*%
%ADD17OC8,0.06000*%
%ADD18C,0.05118*%
%ADD19C,0.26772*%
%ADD20C,0.00787*%
%ADD21C,0.03543*%
%ADD22C,0.01575*%
D10*
X0001394Y0001394D02*
X0001394Y0186433D01*
X0032890Y0186433D01*
X0032890Y0174622D01*
X0088008Y0174622D01*
X0088008Y0186433D01*
X0119504Y0186433D01*
X0119504Y0158874D01*
X0355724Y0158874D01*
X0355724Y0001394D01*
X0001394Y0001394D01*
D11*
X0082025Y0046197D02*
X0086825Y0046197D01*
X0086825Y0056197D02*
X0082025Y0056197D01*
X0112025Y0056197D02*
X0116825Y0056197D01*
X0116825Y0046197D02*
X0112025Y0046197D01*
X0133206Y0046197D02*
X0138006Y0046197D01*
X0138006Y0056197D02*
X0133206Y0056197D01*
X0163206Y0056197D02*
X0168006Y0056197D01*
X0168006Y0046197D02*
X0163206Y0046197D01*
X0200529Y0046197D02*
X0205329Y0046197D01*
X0205329Y0056197D02*
X0200529Y0056197D01*
X0230529Y0056197D02*
X0235329Y0056197D01*
X0235329Y0046197D02*
X0230529Y0046197D01*
X0279269Y0046197D02*
X0284069Y0046197D01*
X0284069Y0056197D02*
X0279269Y0056197D01*
X0309269Y0056197D02*
X0314069Y0056197D01*
X0314069Y0046197D02*
X0309269Y0046197D01*
X0309269Y0096197D02*
X0314069Y0096197D01*
X0314069Y0106197D02*
X0309269Y0106197D01*
X0284069Y0106197D02*
X0279269Y0106197D01*
X0279269Y0096197D02*
X0284069Y0096197D01*
X0235329Y0096197D02*
X0230529Y0096197D01*
X0230529Y0106197D02*
X0235329Y0106197D01*
X0205329Y0106197D02*
X0200529Y0106197D01*
X0200529Y0096197D02*
X0205329Y0096197D01*
X0168006Y0096197D02*
X0163206Y0096197D01*
X0163206Y0106197D02*
X0168006Y0106197D01*
X0138006Y0106197D02*
X0133206Y0106197D01*
X0133206Y0096197D02*
X0138006Y0096197D01*
X0116825Y0096197D02*
X0112025Y0096197D01*
X0112025Y0106197D02*
X0116825Y0106197D01*
X0086825Y0106197D02*
X0082025Y0106197D01*
X0082025Y0096197D02*
X0086825Y0096197D01*
D12*
X0339063Y0066276D02*
X0345063Y0066276D01*
X0345063Y0056276D02*
X0339063Y0056276D01*
X0339063Y0046276D02*
X0345063Y0046276D01*
D13*
X0159512Y0087913D03*
X0150850Y0084173D03*
X0150850Y0091654D03*
D14*
X0141354Y0087220D03*
X0134661Y0087220D03*
X0115402Y0082937D03*
X0115402Y0076244D03*
X0094110Y0074622D03*
X0087417Y0074622D03*
X0229543Y0073047D03*
X0236236Y0073047D03*
X0309071Y0070685D03*
X0315764Y0070685D03*
D15*
X0301197Y0085252D03*
X0293717Y0085252D03*
X0297457Y0093913D03*
X0221276Y0086827D03*
X0213795Y0086827D03*
X0217535Y0095488D03*
X0098142Y0083260D03*
X0090661Y0083260D03*
X0094402Y0091921D03*
D16*
X0107189Y0082937D03*
X0107189Y0076244D03*
X0124008Y0076244D03*
X0124008Y0082937D03*
X0216551Y0073047D03*
X0223244Y0073047D03*
X0230528Y0080331D03*
X0230528Y0087024D03*
X0296472Y0070685D03*
X0303165Y0070685D03*
X0310449Y0078362D03*
X0310449Y0085055D03*
D17*
X0075449Y0134189D03*
X0065449Y0134189D03*
X0055449Y0134189D03*
X0045449Y0134189D03*
X0045449Y0144189D03*
X0055449Y0144189D03*
X0065449Y0144189D03*
X0075449Y0144189D03*
X0046551Y0115134D03*
X0036551Y0115134D03*
X0036551Y0105134D03*
X0046551Y0105134D03*
X0046551Y0095134D03*
X0036551Y0095134D03*
X0036551Y0085134D03*
X0046551Y0085134D03*
X0046551Y0075134D03*
X0036551Y0075134D03*
X0036551Y0065134D03*
X0046551Y0065134D03*
X0046551Y0055134D03*
X0036551Y0055134D03*
X0036551Y0045134D03*
X0046551Y0045134D03*
D18*
X0063598Y0043913D03*
X0071866Y0043520D03*
X0099819Y0029740D03*
X0178165Y0076984D03*
X0243913Y0096669D03*
X0321472Y0097457D03*
X0257299Y0029740D03*
X0217929Y0029740D03*
X0062024Y0099819D03*
X0091157Y0128953D03*
X0124622Y0118717D03*
D19*
X0103756Y0170685D03*
X0017142Y0170685D03*
X0017142Y0017142D03*
X0339976Y0017142D03*
X0339976Y0143126D03*
D20*
X0353035Y0142858D02*
X0069643Y0142858D01*
X0069643Y0142452D02*
X0067186Y0139995D01*
X0063712Y0139995D01*
X0061255Y0142452D01*
X0061255Y0145926D01*
X0063712Y0148383D01*
X0067186Y0148383D01*
X0069643Y0145926D01*
X0069643Y0142452D01*
X0069263Y0142072D02*
X0353035Y0142072D01*
X0353035Y0141286D02*
X0068477Y0141286D01*
X0067691Y0140500D02*
X0353035Y0140500D01*
X0353035Y0139714D02*
X0004083Y0139714D01*
X0004083Y0138928D02*
X0353035Y0138928D01*
X0353035Y0138143D02*
X0067426Y0138143D01*
X0067186Y0138383D02*
X0063712Y0138383D01*
X0061255Y0135926D01*
X0061255Y0132452D01*
X0063712Y0129995D01*
X0067186Y0129995D01*
X0069643Y0132452D01*
X0069643Y0135926D01*
X0067186Y0138383D01*
X0068212Y0137357D02*
X0353035Y0137357D01*
X0353035Y0136571D02*
X0068998Y0136571D01*
X0069643Y0135785D02*
X0353035Y0135785D01*
X0353035Y0134999D02*
X0069643Y0134999D01*
X0069643Y0134213D02*
X0353035Y0134213D01*
X0353035Y0133427D02*
X0069643Y0133427D01*
X0069643Y0132641D02*
X0353035Y0132641D01*
X0353035Y0131855D02*
X0069046Y0131855D01*
X0068260Y0131069D02*
X0353035Y0131069D01*
X0353035Y0130283D02*
X0067474Y0130283D01*
X0063424Y0130283D02*
X0057474Y0130283D01*
X0057186Y0129995D02*
X0059643Y0132452D01*
X0059643Y0135926D01*
X0057186Y0138383D01*
X0053712Y0138383D01*
X0051255Y0135926D01*
X0051255Y0132452D01*
X0053712Y0129995D01*
X0057186Y0129995D01*
X0058260Y0131069D02*
X0062638Y0131069D01*
X0061852Y0131855D02*
X0059046Y0131855D01*
X0059643Y0132641D02*
X0061255Y0132641D01*
X0061255Y0133427D02*
X0059643Y0133427D01*
X0059643Y0134213D02*
X0061255Y0134213D01*
X0061255Y0134999D02*
X0059643Y0134999D01*
X0059643Y0135785D02*
X0061255Y0135785D01*
X0061900Y0136571D02*
X0058998Y0136571D01*
X0058212Y0137357D02*
X0062686Y0137357D01*
X0063472Y0138143D02*
X0057426Y0138143D01*
X0057186Y0139995D02*
X0053712Y0139995D01*
X0051255Y0142452D01*
X0051255Y0145926D01*
X0053712Y0148383D01*
X0057186Y0148383D01*
X0059643Y0145926D01*
X0059643Y0142452D01*
X0057186Y0139995D01*
X0057691Y0140500D02*
X0063207Y0140500D01*
X0062421Y0141286D02*
X0058477Y0141286D01*
X0059263Y0142072D02*
X0061635Y0142072D01*
X0061255Y0142858D02*
X0059643Y0142858D01*
X0059643Y0143644D02*
X0061255Y0143644D01*
X0061255Y0144430D02*
X0059643Y0144430D01*
X0059643Y0145216D02*
X0061255Y0145216D01*
X0061331Y0146002D02*
X0059567Y0146002D01*
X0058781Y0146788D02*
X0062117Y0146788D01*
X0062903Y0147573D02*
X0057995Y0147573D01*
X0057209Y0148359D02*
X0063688Y0148359D01*
X0067209Y0148359D02*
X0353035Y0148359D01*
X0353035Y0147573D02*
X0067995Y0147573D01*
X0068781Y0146788D02*
X0353035Y0146788D01*
X0353035Y0146002D02*
X0069567Y0146002D01*
X0069643Y0145216D02*
X0353035Y0145216D01*
X0353035Y0144430D02*
X0069643Y0144430D01*
X0069643Y0143644D02*
X0353035Y0143644D01*
X0353035Y0149145D02*
X0004083Y0149145D01*
X0004083Y0148359D02*
X0053688Y0148359D01*
X0052903Y0147573D02*
X0004083Y0147573D01*
X0004083Y0146788D02*
X0052117Y0146788D01*
X0051331Y0146002D02*
X0004083Y0146002D01*
X0004083Y0145216D02*
X0051255Y0145216D01*
X0051255Y0144430D02*
X0004083Y0144430D01*
X0004083Y0143644D02*
X0051255Y0143644D01*
X0051255Y0142858D02*
X0004083Y0142858D01*
X0004083Y0142072D02*
X0051635Y0142072D01*
X0052421Y0141286D02*
X0004083Y0141286D01*
X0004083Y0140500D02*
X0053207Y0140500D01*
X0053472Y0138143D02*
X0004083Y0138143D01*
X0004083Y0137357D02*
X0052686Y0137357D01*
X0051900Y0136571D02*
X0004083Y0136571D01*
X0004083Y0135785D02*
X0051255Y0135785D01*
X0051255Y0134999D02*
X0004083Y0134999D01*
X0004083Y0134213D02*
X0051255Y0134213D01*
X0051255Y0133427D02*
X0004083Y0133427D01*
X0004083Y0132641D02*
X0051255Y0132641D01*
X0051852Y0131855D02*
X0004083Y0131855D01*
X0004083Y0131069D02*
X0052638Y0131069D01*
X0053424Y0130283D02*
X0004083Y0130283D01*
X0004083Y0129498D02*
X0353035Y0129498D01*
X0353035Y0128712D02*
X0004083Y0128712D01*
X0004083Y0127926D02*
X0353035Y0127926D01*
X0353035Y0127140D02*
X0004083Y0127140D01*
X0004083Y0126354D02*
X0353035Y0126354D01*
X0353035Y0125568D02*
X0004083Y0125568D01*
X0004083Y0124782D02*
X0353035Y0124782D01*
X0353035Y0123996D02*
X0004083Y0123996D01*
X0004083Y0123210D02*
X0353035Y0123210D01*
X0353035Y0122424D02*
X0004083Y0122424D01*
X0004083Y0121638D02*
X0353035Y0121638D01*
X0353035Y0120852D02*
X0004083Y0120852D01*
X0004083Y0120067D02*
X0353035Y0120067D01*
X0353035Y0119281D02*
X0048335Y0119281D01*
X0048288Y0119328D02*
X0044814Y0119328D01*
X0042357Y0116871D01*
X0042357Y0113397D01*
X0044814Y0110940D01*
X0048288Y0110940D01*
X0050745Y0113397D01*
X0050745Y0116871D01*
X0048288Y0119328D01*
X0049121Y0118495D02*
X0353035Y0118495D01*
X0353035Y0117709D02*
X0049907Y0117709D01*
X0050693Y0116923D02*
X0353035Y0116923D01*
X0353035Y0116137D02*
X0050745Y0116137D01*
X0050745Y0115351D02*
X0353035Y0115351D01*
X0353035Y0114565D02*
X0050745Y0114565D01*
X0050745Y0113779D02*
X0353035Y0113779D01*
X0353035Y0112993D02*
X0050341Y0112993D01*
X0049556Y0112207D02*
X0353035Y0112207D01*
X0353035Y0111422D02*
X0048770Y0111422D01*
X0048288Y0109328D02*
X0044814Y0109328D01*
X0042357Y0106871D01*
X0042357Y0103397D01*
X0044814Y0100940D01*
X0048288Y0100940D01*
X0050745Y0103397D01*
X0050745Y0106871D01*
X0048288Y0109328D01*
X0048552Y0109064D02*
X0079810Y0109064D01*
X0079990Y0109243D02*
X0078979Y0108233D01*
X0078431Y0106912D01*
X0078431Y0105482D01*
X0078979Y0104161D01*
X0079990Y0103150D01*
X0081310Y0102603D01*
X0087540Y0102603D01*
X0088861Y0103150D01*
X0089872Y0104161D01*
X0090419Y0105482D01*
X0090419Y0106912D01*
X0089872Y0108233D01*
X0088861Y0109243D01*
X0087540Y0109791D01*
X0081310Y0109791D01*
X0079990Y0109243D01*
X0079024Y0108278D02*
X0049338Y0108278D01*
X0050124Y0107492D02*
X0078672Y0107492D01*
X0078431Y0106706D02*
X0050745Y0106706D01*
X0050745Y0105920D02*
X0078431Y0105920D01*
X0078576Y0105134D02*
X0050745Y0105134D01*
X0050745Y0104348D02*
X0078901Y0104348D01*
X0079577Y0103562D02*
X0050745Y0103562D01*
X0050125Y0102776D02*
X0080892Y0102776D01*
X0081310Y0099791D02*
X0079990Y0099243D01*
X0078979Y0098233D01*
X0078431Y0096912D01*
X0078431Y0095482D01*
X0078979Y0094161D01*
X0079990Y0093150D01*
X0081310Y0092603D01*
X0087540Y0092603D01*
X0088861Y0093150D01*
X0089872Y0094161D01*
X0090419Y0095482D01*
X0090419Y0096912D01*
X0089872Y0098233D01*
X0088861Y0099243D01*
X0087540Y0099791D01*
X0081310Y0099791D01*
X0080930Y0099633D02*
X0004083Y0099633D01*
X0004083Y0100419D02*
X0353035Y0100419D01*
X0353035Y0101205D02*
X0048553Y0101205D01*
X0049339Y0101991D02*
X0353035Y0101991D01*
X0353035Y0102776D02*
X0315203Y0102776D01*
X0314784Y0102603D02*
X0316105Y0103150D01*
X0317116Y0104161D01*
X0317663Y0105482D01*
X0317663Y0106912D01*
X0317116Y0108233D01*
X0316105Y0109243D01*
X0314784Y0109791D01*
X0308554Y0109791D01*
X0307234Y0109243D01*
X0306223Y0108233D01*
X0305676Y0106912D01*
X0305676Y0105482D01*
X0306223Y0104161D01*
X0307234Y0103150D01*
X0308554Y0102603D01*
X0314784Y0102603D01*
X0316517Y0103562D02*
X0353035Y0103562D01*
X0353035Y0104348D02*
X0317193Y0104348D01*
X0317519Y0105134D02*
X0353035Y0105134D01*
X0353035Y0105920D02*
X0317663Y0105920D01*
X0317663Y0106706D02*
X0353035Y0106706D01*
X0353035Y0107492D02*
X0317423Y0107492D01*
X0317071Y0108278D02*
X0353035Y0108278D01*
X0353035Y0109064D02*
X0316285Y0109064D01*
X0307054Y0109064D02*
X0286285Y0109064D01*
X0286105Y0109243D02*
X0284784Y0109791D01*
X0278554Y0109791D01*
X0277234Y0109243D01*
X0276223Y0108233D01*
X0275676Y0106912D01*
X0275676Y0105482D01*
X0276223Y0104161D01*
X0277234Y0103150D01*
X0278554Y0102603D01*
X0284784Y0102603D01*
X0286105Y0103150D01*
X0287116Y0104161D01*
X0287663Y0105482D01*
X0287663Y0106912D01*
X0287116Y0108233D01*
X0286105Y0109243D01*
X0287071Y0108278D02*
X0306268Y0108278D01*
X0305916Y0107492D02*
X0287423Y0107492D01*
X0287663Y0106706D02*
X0305676Y0106706D01*
X0305676Y0105920D02*
X0287663Y0105920D01*
X0287519Y0105134D02*
X0305820Y0105134D01*
X0306145Y0104348D02*
X0287193Y0104348D01*
X0286517Y0103562D02*
X0306821Y0103562D01*
X0308136Y0102776D02*
X0285203Y0102776D01*
X0284784Y0099791D02*
X0278554Y0099791D01*
X0277234Y0099243D01*
X0276223Y0098233D01*
X0275676Y0096912D01*
X0275676Y0095482D01*
X0276223Y0094161D01*
X0277234Y0093150D01*
X0278554Y0092603D01*
X0284784Y0092603D01*
X0286105Y0093150D01*
X0287116Y0094161D01*
X0287663Y0095482D01*
X0287663Y0096912D01*
X0287116Y0098233D01*
X0286105Y0099243D01*
X0284784Y0099791D01*
X0285165Y0099633D02*
X0308174Y0099633D01*
X0308554Y0099791D02*
X0307234Y0099243D01*
X0306223Y0098233D01*
X0306117Y0097978D01*
X0298651Y0097978D01*
X0298452Y0097863D01*
X0294994Y0097863D01*
X0294294Y0097164D01*
X0294294Y0090663D01*
X0294994Y0089964D01*
X0299920Y0089964D01*
X0300619Y0090663D01*
X0300619Y0094416D01*
X0306117Y0094416D01*
X0306223Y0094161D01*
X0307234Y0093150D01*
X0308554Y0092603D01*
X0314784Y0092603D01*
X0316105Y0093150D01*
X0317116Y0094161D01*
X0317663Y0095482D01*
X0317663Y0096912D01*
X0317116Y0098233D01*
X0316105Y0099243D01*
X0314784Y0099791D01*
X0308554Y0099791D01*
X0306837Y0098847D02*
X0286501Y0098847D01*
X0287187Y0098061D02*
X0306152Y0098061D01*
X0306252Y0094131D02*
X0300619Y0094131D01*
X0300619Y0093346D02*
X0307038Y0093346D01*
X0300619Y0092560D02*
X0353035Y0092560D01*
X0353035Y0093346D02*
X0316300Y0093346D01*
X0317086Y0094131D02*
X0353035Y0094131D01*
X0353035Y0094917D02*
X0317429Y0094917D01*
X0317663Y0095703D02*
X0353035Y0095703D01*
X0353035Y0096489D02*
X0317663Y0096489D01*
X0317512Y0097275D02*
X0353035Y0097275D01*
X0353035Y0098061D02*
X0317187Y0098061D01*
X0316501Y0098847D02*
X0353035Y0098847D01*
X0353035Y0099633D02*
X0315165Y0099633D01*
X0300619Y0091774D02*
X0353035Y0091774D01*
X0353035Y0090988D02*
X0300619Y0090988D01*
X0300158Y0090202D02*
X0353035Y0090202D01*
X0353035Y0089416D02*
X0233887Y0089416D01*
X0233887Y0089487D02*
X0233187Y0090186D01*
X0227868Y0090186D01*
X0227169Y0089487D01*
X0227169Y0088411D01*
X0224438Y0088411D01*
X0224438Y0090077D01*
X0223739Y0090776D01*
X0218813Y0090776D01*
X0218113Y0090077D01*
X0218113Y0083576D01*
X0218813Y0082877D01*
X0223739Y0082877D01*
X0224438Y0083576D01*
X0224438Y0085636D01*
X0227169Y0085636D01*
X0227169Y0084561D01*
X0227868Y0083861D01*
X0233187Y0083861D01*
X0233887Y0084561D01*
X0233887Y0089487D01*
X0233887Y0088630D02*
X0298162Y0088630D01*
X0298035Y0088502D02*
X0298035Y0082002D01*
X0298734Y0081302D01*
X0303660Y0081302D01*
X0304359Y0082002D01*
X0304359Y0083668D01*
X0307090Y0083668D01*
X0307090Y0082592D01*
X0307789Y0081893D01*
X0313109Y0081893D01*
X0313808Y0082592D01*
X0313808Y0087518D01*
X0313109Y0088217D01*
X0307789Y0088217D01*
X0307090Y0087518D01*
X0307090Y0086443D01*
X0304359Y0086443D01*
X0304359Y0088502D01*
X0303660Y0089202D01*
X0298734Y0089202D01*
X0298035Y0088502D01*
X0298035Y0087844D02*
X0233887Y0087844D01*
X0233887Y0087058D02*
X0298035Y0087058D01*
X0298035Y0086272D02*
X0233887Y0086272D01*
X0233887Y0085486D02*
X0298035Y0085486D01*
X0298035Y0084700D02*
X0233887Y0084700D01*
X0233240Y0083915D02*
X0298035Y0083915D01*
X0298035Y0083129D02*
X0233552Y0083129D01*
X0233887Y0082794D02*
X0233187Y0083493D01*
X0227868Y0083493D01*
X0227169Y0082794D01*
X0227169Y0077868D01*
X0227868Y0077169D01*
X0228156Y0077169D01*
X0228156Y0076406D01*
X0227080Y0076406D01*
X0226394Y0075720D01*
X0225904Y0076209D01*
X0220584Y0076209D01*
X0219885Y0075510D01*
X0219885Y0070584D01*
X0220584Y0069885D01*
X0222054Y0069885D01*
X0222054Y0069167D01*
X0221874Y0069092D01*
X0221097Y0068314D01*
X0220676Y0067298D01*
X0220676Y0066198D01*
X0221097Y0065182D01*
X0221874Y0064404D01*
X0222891Y0063983D01*
X0223991Y0063983D01*
X0225007Y0064404D01*
X0225785Y0065182D01*
X0226206Y0066198D01*
X0226206Y0067298D01*
X0225785Y0068314D01*
X0225007Y0069092D01*
X0224828Y0069167D01*
X0224828Y0069885D01*
X0225904Y0069885D01*
X0226394Y0070375D01*
X0227080Y0069688D01*
X0232006Y0069688D01*
X0232705Y0070387D01*
X0232705Y0075707D01*
X0232006Y0076406D01*
X0230931Y0076406D01*
X0230931Y0077169D01*
X0233187Y0077169D01*
X0233887Y0077868D01*
X0233887Y0082794D01*
X0233887Y0082343D02*
X0298035Y0082343D01*
X0298479Y0081557D02*
X0233887Y0081557D01*
X0233887Y0080771D02*
X0302033Y0080771D01*
X0302418Y0080931D02*
X0301402Y0080510D01*
X0300624Y0079732D01*
X0300203Y0078715D01*
X0300203Y0077615D01*
X0300624Y0076599D01*
X0301402Y0075821D01*
X0301581Y0075747D01*
X0301581Y0073847D01*
X0300506Y0073847D01*
X0299806Y0073148D01*
X0299806Y0068222D01*
X0300506Y0067523D01*
X0305825Y0067523D01*
X0306118Y0067816D01*
X0306608Y0067326D01*
X0311534Y0067326D01*
X0312233Y0068025D01*
X0312233Y0073345D01*
X0311639Y0073939D01*
X0311639Y0075200D01*
X0313109Y0075200D01*
X0313808Y0075899D01*
X0313808Y0080825D01*
X0313109Y0081524D01*
X0307789Y0081524D01*
X0307090Y0080825D01*
X0307090Y0075899D01*
X0307789Y0075200D01*
X0308865Y0075200D01*
X0308865Y0074044D01*
X0306608Y0074044D01*
X0306118Y0073554D01*
X0305825Y0073847D01*
X0304356Y0073847D01*
X0304356Y0075747D01*
X0304535Y0075821D01*
X0305313Y0076599D01*
X0305734Y0077615D01*
X0305734Y0078715D01*
X0305313Y0079732D01*
X0304535Y0080510D01*
X0303519Y0080931D01*
X0302418Y0080931D01*
X0303904Y0080771D02*
X0307090Y0080771D01*
X0307090Y0079985D02*
X0305060Y0079985D01*
X0305534Y0079199D02*
X0307090Y0079199D01*
X0307090Y0078413D02*
X0305734Y0078413D01*
X0305734Y0077627D02*
X0307090Y0077627D01*
X0307090Y0076841D02*
X0305413Y0076841D01*
X0304769Y0076055D02*
X0307090Y0076055D01*
X0307720Y0075270D02*
X0304356Y0075270D01*
X0304356Y0074484D02*
X0308865Y0074484D01*
X0310252Y0071866D02*
X0310250Y0071800D01*
X0310245Y0071734D01*
X0310235Y0071668D01*
X0310222Y0071603D01*
X0310206Y0071539D01*
X0310186Y0071476D01*
X0310162Y0071414D01*
X0310135Y0071354D01*
X0310105Y0071295D01*
X0310071Y0071238D01*
X0310034Y0071183D01*
X0309994Y0071130D01*
X0309952Y0071079D01*
X0309906Y0071031D01*
X0309858Y0070985D01*
X0309807Y0070943D01*
X0309754Y0070903D01*
X0309699Y0070866D01*
X0309642Y0070832D01*
X0309583Y0070802D01*
X0309523Y0070775D01*
X0309461Y0070751D01*
X0309398Y0070731D01*
X0309334Y0070715D01*
X0309269Y0070702D01*
X0309203Y0070692D01*
X0309137Y0070687D01*
X0309071Y0070685D01*
X0303165Y0070685D01*
X0303139Y0070683D01*
X0303114Y0070678D01*
X0303090Y0070670D01*
X0303067Y0070659D01*
X0303045Y0070644D01*
X0303026Y0070627D01*
X0303009Y0070608D01*
X0302994Y0070587D01*
X0302983Y0070563D01*
X0302975Y0070539D01*
X0302970Y0070514D01*
X0302968Y0070488D01*
X0302969Y0070488D02*
X0302969Y0078165D01*
X0300403Y0079199D02*
X0233887Y0079199D01*
X0233887Y0078413D02*
X0300203Y0078413D01*
X0300203Y0077627D02*
X0233646Y0077627D01*
X0232357Y0076055D02*
X0301168Y0076055D01*
X0301581Y0075270D02*
X0232705Y0075270D01*
X0232705Y0074484D02*
X0301581Y0074484D01*
X0300356Y0073698D02*
X0232705Y0073698D01*
X0232705Y0072912D02*
X0299806Y0072912D01*
X0299806Y0072126D02*
X0232705Y0072126D01*
X0232705Y0071340D02*
X0299806Y0071340D01*
X0299806Y0070554D02*
X0232705Y0070554D01*
X0232086Y0069768D02*
X0299806Y0069768D01*
X0299806Y0068982D02*
X0225118Y0068982D01*
X0224828Y0069768D02*
X0227000Y0069768D01*
X0225834Y0068196D02*
X0299832Y0068196D01*
X0306524Y0067410D02*
X0226160Y0067410D01*
X0226206Y0066624D02*
X0334869Y0066624D01*
X0334869Y0067110D02*
X0334869Y0065441D01*
X0335508Y0063900D01*
X0336687Y0062720D01*
X0338229Y0062082D01*
X0345897Y0062082D01*
X0347439Y0062720D01*
X0348618Y0063900D01*
X0349257Y0065441D01*
X0349257Y0067110D01*
X0348618Y0068651D01*
X0347439Y0069831D01*
X0345897Y0070469D01*
X0338229Y0070469D01*
X0336687Y0069831D01*
X0335508Y0068651D01*
X0334869Y0067110D01*
X0334994Y0067410D02*
X0311618Y0067410D01*
X0312233Y0068196D02*
X0335319Y0068196D01*
X0335839Y0068982D02*
X0312233Y0068982D01*
X0312233Y0069768D02*
X0336625Y0069768D01*
X0334869Y0065839D02*
X0226057Y0065839D01*
X0225656Y0065053D02*
X0335030Y0065053D01*
X0335356Y0064267D02*
X0224677Y0064267D01*
X0222205Y0064267D02*
X0040745Y0064267D01*
X0040745Y0065053D02*
X0221226Y0065053D01*
X0220824Y0065839D02*
X0040745Y0065839D01*
X0040745Y0066624D02*
X0220676Y0066624D01*
X0220722Y0067410D02*
X0040205Y0067410D01*
X0040745Y0066871D02*
X0038288Y0069328D01*
X0034814Y0069328D01*
X0032357Y0066871D01*
X0032357Y0063397D01*
X0034814Y0060940D01*
X0038288Y0060940D01*
X0040745Y0063397D01*
X0040745Y0066871D01*
X0039420Y0068196D02*
X0221048Y0068196D01*
X0221764Y0068982D02*
X0038634Y0068982D01*
X0034469Y0068982D02*
X0004083Y0068982D01*
X0004083Y0068196D02*
X0033683Y0068196D01*
X0032897Y0067410D02*
X0004083Y0067410D01*
X0004083Y0066624D02*
X0032357Y0066624D01*
X0032357Y0065839D02*
X0004083Y0065839D01*
X0004083Y0065053D02*
X0032357Y0065053D01*
X0032357Y0064267D02*
X0004083Y0064267D01*
X0004083Y0063481D02*
X0032357Y0063481D01*
X0033059Y0062695D02*
X0004083Y0062695D01*
X0004083Y0061909D02*
X0033845Y0061909D01*
X0034631Y0061123D02*
X0004083Y0061123D01*
X0004083Y0060337D02*
X0353035Y0060337D01*
X0353035Y0059551D02*
X0315362Y0059551D01*
X0314784Y0059791D02*
X0308554Y0059791D01*
X0307234Y0059243D01*
X0306223Y0058233D01*
X0305676Y0056912D01*
X0305676Y0055482D01*
X0306223Y0054161D01*
X0307234Y0053150D01*
X0308554Y0052603D01*
X0314784Y0052603D01*
X0316105Y0053150D01*
X0317116Y0054161D01*
X0317663Y0055482D01*
X0317663Y0056912D01*
X0317116Y0058233D01*
X0316105Y0059243D01*
X0314784Y0059791D01*
X0316583Y0058765D02*
X0353035Y0058765D01*
X0353035Y0057979D02*
X0317221Y0057979D01*
X0317546Y0057194D02*
X0353035Y0057194D01*
X0353035Y0056408D02*
X0317663Y0056408D01*
X0317663Y0055622D02*
X0353035Y0055622D01*
X0353035Y0054836D02*
X0317395Y0054836D01*
X0317005Y0054050D02*
X0353035Y0054050D01*
X0353035Y0053264D02*
X0316219Y0053264D01*
X0314784Y0049791D02*
X0308554Y0049791D01*
X0307234Y0049243D01*
X0306223Y0048233D01*
X0305676Y0046912D01*
X0305676Y0045482D01*
X0306223Y0044161D01*
X0307234Y0043150D01*
X0308554Y0042603D01*
X0314784Y0042603D01*
X0316105Y0043150D01*
X0317116Y0044161D01*
X0317663Y0045482D01*
X0317663Y0046912D01*
X0317116Y0048233D01*
X0316105Y0049243D01*
X0314784Y0049791D01*
X0315885Y0049334D02*
X0336191Y0049334D01*
X0336687Y0049831D02*
X0335508Y0048651D01*
X0334869Y0047110D01*
X0334869Y0045441D01*
X0335508Y0043900D01*
X0336687Y0042720D01*
X0338229Y0042082D01*
X0345897Y0042082D01*
X0347439Y0042720D01*
X0348618Y0043900D01*
X0349257Y0045441D01*
X0349257Y0047110D01*
X0348618Y0048651D01*
X0347439Y0049831D01*
X0345897Y0050469D01*
X0338229Y0050469D01*
X0336687Y0049831D01*
X0337386Y0050120D02*
X0004083Y0050120D01*
X0004083Y0049334D02*
X0080209Y0049334D01*
X0079990Y0049243D02*
X0078979Y0048233D01*
X0078431Y0046912D01*
X0078431Y0045482D01*
X0078979Y0044161D01*
X0079990Y0043150D01*
X0081310Y0042603D01*
X0087540Y0042603D01*
X0088861Y0043150D01*
X0089872Y0044161D01*
X0090419Y0045482D01*
X0090419Y0046912D01*
X0089872Y0048233D01*
X0088861Y0049243D01*
X0087540Y0049791D01*
X0081310Y0049791D01*
X0079990Y0049243D01*
X0079295Y0048548D02*
X0049067Y0048548D01*
X0048288Y0049328D02*
X0044814Y0049328D01*
X0042357Y0046871D01*
X0042357Y0043397D01*
X0044814Y0040940D01*
X0048288Y0040940D01*
X0050745Y0043397D01*
X0050745Y0046871D01*
X0048288Y0049328D01*
X0048288Y0050940D02*
X0044814Y0050940D01*
X0042357Y0053397D01*
X0042357Y0056871D01*
X0044814Y0059328D01*
X0048288Y0059328D01*
X0050745Y0056871D01*
X0050745Y0053397D01*
X0048288Y0050940D01*
X0049040Y0051692D02*
X0353035Y0051692D01*
X0353035Y0050906D02*
X0004083Y0050906D01*
X0004083Y0051692D02*
X0044062Y0051692D01*
X0043276Y0052478D02*
X0004083Y0052478D01*
X0004083Y0053264D02*
X0042490Y0053264D01*
X0042357Y0054050D02*
X0004083Y0054050D01*
X0004083Y0054836D02*
X0042357Y0054836D01*
X0042357Y0055622D02*
X0004083Y0055622D01*
X0004083Y0056408D02*
X0042357Y0056408D01*
X0042680Y0057194D02*
X0004083Y0057194D01*
X0004083Y0057979D02*
X0043466Y0057979D01*
X0044252Y0058765D02*
X0004083Y0058765D01*
X0004083Y0059551D02*
X0080733Y0059551D01*
X0081310Y0059791D02*
X0079990Y0059243D01*
X0078979Y0058233D01*
X0078431Y0056912D01*
X0078431Y0055482D01*
X0078979Y0054161D01*
X0079990Y0053150D01*
X0081310Y0052603D01*
X0087540Y0052603D01*
X0088861Y0053150D01*
X0089872Y0054161D01*
X0090419Y0055482D01*
X0090419Y0056912D01*
X0089872Y0058233D01*
X0088861Y0059243D01*
X0087540Y0059791D01*
X0081310Y0059791D01*
X0079511Y0058765D02*
X0048850Y0058765D01*
X0049636Y0057979D02*
X0078874Y0057979D01*
X0078548Y0057194D02*
X0050422Y0057194D01*
X0050745Y0056408D02*
X0078431Y0056408D01*
X0078431Y0055622D02*
X0050745Y0055622D01*
X0050745Y0054836D02*
X0078699Y0054836D01*
X0079090Y0054050D02*
X0050745Y0054050D01*
X0050612Y0053264D02*
X0079876Y0053264D01*
X0088975Y0053264D02*
X0109876Y0053264D01*
X0109990Y0053150D02*
X0111310Y0052603D01*
X0117540Y0052603D01*
X0118861Y0053150D01*
X0119872Y0054161D01*
X0120419Y0055482D01*
X0120419Y0056912D01*
X0119872Y0058233D01*
X0118861Y0059243D01*
X0117540Y0059791D01*
X0111310Y0059791D01*
X0109990Y0059243D01*
X0108979Y0058233D01*
X0108431Y0056912D01*
X0108431Y0055482D01*
X0108979Y0054161D01*
X0109990Y0053150D01*
X0109090Y0054050D02*
X0089760Y0054050D01*
X0090151Y0054836D02*
X0108699Y0054836D01*
X0108431Y0055622D02*
X0090419Y0055622D01*
X0090419Y0056408D02*
X0108431Y0056408D01*
X0108548Y0057194D02*
X0090302Y0057194D01*
X0089977Y0057979D02*
X0108874Y0057979D01*
X0109511Y0058765D02*
X0089339Y0058765D01*
X0088118Y0059551D02*
X0110733Y0059551D01*
X0118118Y0059551D02*
X0131914Y0059551D01*
X0132491Y0059791D02*
X0131171Y0059243D01*
X0130160Y0058233D01*
X0129613Y0056912D01*
X0129613Y0055482D01*
X0130160Y0054161D01*
X0131171Y0053150D01*
X0132491Y0052603D01*
X0138721Y0052603D01*
X0140042Y0053150D01*
X0141053Y0054161D01*
X0141600Y0055482D01*
X0141600Y0056912D01*
X0141053Y0058233D01*
X0140042Y0059243D01*
X0138721Y0059791D01*
X0132491Y0059791D01*
X0130693Y0058765D02*
X0119339Y0058765D01*
X0119977Y0057979D02*
X0130055Y0057979D01*
X0129729Y0057194D02*
X0120302Y0057194D01*
X0120419Y0056408D02*
X0129613Y0056408D01*
X0129613Y0055622D02*
X0120419Y0055622D01*
X0120151Y0054836D02*
X0129880Y0054836D01*
X0130271Y0054050D02*
X0119760Y0054050D01*
X0118975Y0053264D02*
X0131057Y0053264D01*
X0132491Y0049791D02*
X0131171Y0049243D01*
X0130160Y0048233D01*
X0129613Y0046912D01*
X0129613Y0045482D01*
X0130160Y0044161D01*
X0131171Y0043150D01*
X0132491Y0042603D01*
X0138721Y0042603D01*
X0140042Y0043150D01*
X0141053Y0044161D01*
X0141600Y0045482D01*
X0141600Y0046912D01*
X0141053Y0048233D01*
X0140042Y0049243D01*
X0138721Y0049791D01*
X0132491Y0049791D01*
X0131390Y0049334D02*
X0118641Y0049334D01*
X0118861Y0049243D02*
X0117540Y0049791D01*
X0111310Y0049791D01*
X0109990Y0049243D01*
X0108979Y0048233D01*
X0108431Y0046912D01*
X0108431Y0045482D01*
X0108979Y0044161D01*
X0109990Y0043150D01*
X0111310Y0042603D01*
X0117540Y0042603D01*
X0118861Y0043150D01*
X0119872Y0044161D01*
X0120419Y0045482D01*
X0120419Y0046912D01*
X0119872Y0048233D01*
X0118861Y0049243D01*
X0119556Y0048548D02*
X0130476Y0048548D01*
X0129965Y0047763D02*
X0120066Y0047763D01*
X0120392Y0046977D02*
X0129640Y0046977D01*
X0129613Y0046191D02*
X0120419Y0046191D01*
X0120387Y0045405D02*
X0129645Y0045405D01*
X0129970Y0044619D02*
X0120061Y0044619D01*
X0119544Y0043833D02*
X0130488Y0043833D01*
X0131420Y0043047D02*
X0118612Y0043047D01*
X0110239Y0043047D02*
X0088612Y0043047D01*
X0089544Y0043833D02*
X0109307Y0043833D01*
X0108789Y0044619D02*
X0090061Y0044619D01*
X0090387Y0045405D02*
X0108463Y0045405D01*
X0108431Y0046191D02*
X0090419Y0046191D01*
X0090392Y0046977D02*
X0108458Y0046977D01*
X0108784Y0047763D02*
X0090066Y0047763D01*
X0089556Y0048548D02*
X0109295Y0048548D01*
X0110209Y0049334D02*
X0088641Y0049334D01*
X0078784Y0047763D02*
X0049853Y0047763D01*
X0050639Y0046977D02*
X0078458Y0046977D01*
X0078431Y0046191D02*
X0050745Y0046191D01*
X0050745Y0045405D02*
X0078463Y0045405D01*
X0078789Y0044619D02*
X0050745Y0044619D01*
X0050745Y0043833D02*
X0079307Y0043833D01*
X0080239Y0043047D02*
X0050395Y0043047D01*
X0049609Y0042261D02*
X0337796Y0042261D01*
X0336361Y0043047D02*
X0315856Y0043047D01*
X0316788Y0043833D02*
X0335575Y0043833D01*
X0335210Y0044619D02*
X0317305Y0044619D01*
X0317631Y0045405D02*
X0334884Y0045405D01*
X0334869Y0046191D02*
X0317663Y0046191D01*
X0317636Y0046977D02*
X0334869Y0046977D01*
X0335140Y0047763D02*
X0317311Y0047763D01*
X0316800Y0048548D02*
X0335465Y0048548D01*
X0346330Y0042261D02*
X0353035Y0042261D01*
X0353035Y0041475D02*
X0048823Y0041475D01*
X0044279Y0041475D02*
X0038823Y0041475D01*
X0038288Y0040940D02*
X0034814Y0040940D01*
X0032357Y0043397D01*
X0032357Y0046871D01*
X0034814Y0049328D01*
X0038288Y0049328D01*
X0040745Y0046871D01*
X0040745Y0043397D01*
X0038288Y0040940D01*
X0039609Y0042261D02*
X0043493Y0042261D01*
X0042707Y0043047D02*
X0040395Y0043047D01*
X0040745Y0043833D02*
X0042357Y0043833D01*
X0042357Y0044619D02*
X0040745Y0044619D01*
X0040745Y0045405D02*
X0042357Y0045405D01*
X0042357Y0046191D02*
X0040745Y0046191D01*
X0040639Y0046977D02*
X0042463Y0046977D01*
X0043249Y0047763D02*
X0039853Y0047763D01*
X0039067Y0048548D02*
X0044035Y0048548D01*
X0049826Y0052478D02*
X0353035Y0052478D01*
X0353035Y0050120D02*
X0346740Y0050120D01*
X0347935Y0049334D02*
X0353035Y0049334D01*
X0353035Y0048548D02*
X0348661Y0048548D01*
X0348986Y0047763D02*
X0353035Y0047763D01*
X0353035Y0046977D02*
X0349257Y0046977D01*
X0349257Y0046191D02*
X0353035Y0046191D01*
X0353035Y0045405D02*
X0349242Y0045405D01*
X0348916Y0044619D02*
X0353035Y0044619D01*
X0353035Y0043833D02*
X0348551Y0043833D01*
X0347765Y0043047D02*
X0353035Y0043047D01*
X0353035Y0040689D02*
X0004083Y0040689D01*
X0004083Y0039903D02*
X0353035Y0039903D01*
X0353035Y0039118D02*
X0004083Y0039118D01*
X0004083Y0038332D02*
X0353035Y0038332D01*
X0353035Y0037546D02*
X0004083Y0037546D01*
X0004083Y0036760D02*
X0353035Y0036760D01*
X0353035Y0035974D02*
X0004083Y0035974D01*
X0004083Y0035188D02*
X0353035Y0035188D01*
X0353035Y0034402D02*
X0004083Y0034402D01*
X0004083Y0033616D02*
X0353035Y0033616D01*
X0353035Y0032830D02*
X0004083Y0032830D01*
X0004083Y0032044D02*
X0353035Y0032044D01*
X0353035Y0031258D02*
X0004083Y0031258D01*
X0004083Y0030472D02*
X0353035Y0030472D01*
X0353035Y0029687D02*
X0004083Y0029687D01*
X0004083Y0028901D02*
X0353035Y0028901D01*
X0353035Y0028115D02*
X0004083Y0028115D01*
X0004083Y0027329D02*
X0353035Y0027329D01*
X0353035Y0026543D02*
X0004083Y0026543D01*
X0004083Y0025757D02*
X0353035Y0025757D01*
X0353035Y0024971D02*
X0004083Y0024971D01*
X0004083Y0024185D02*
X0353035Y0024185D01*
X0353035Y0023399D02*
X0004083Y0023399D01*
X0004083Y0022613D02*
X0353035Y0022613D01*
X0353035Y0021827D02*
X0004083Y0021827D01*
X0004083Y0021042D02*
X0353035Y0021042D01*
X0353035Y0020256D02*
X0004083Y0020256D01*
X0004083Y0019470D02*
X0353035Y0019470D01*
X0353035Y0018684D02*
X0004083Y0018684D01*
X0004083Y0017898D02*
X0353035Y0017898D01*
X0353035Y0017112D02*
X0004083Y0017112D01*
X0004083Y0016326D02*
X0353035Y0016326D01*
X0353035Y0015540D02*
X0004083Y0015540D01*
X0004083Y0014754D02*
X0353035Y0014754D01*
X0353035Y0013968D02*
X0004083Y0013968D01*
X0004083Y0013182D02*
X0353035Y0013182D01*
X0353035Y0012396D02*
X0004083Y0012396D01*
X0004083Y0011611D02*
X0353035Y0011611D01*
X0353035Y0010825D02*
X0004083Y0010825D01*
X0004083Y0010039D02*
X0353035Y0010039D01*
X0353035Y0009253D02*
X0004083Y0009253D01*
X0004083Y0008467D02*
X0353035Y0008467D01*
X0353035Y0007681D02*
X0004083Y0007681D01*
X0004083Y0006895D02*
X0353035Y0006895D01*
X0353035Y0006109D02*
X0004083Y0006109D01*
X0004083Y0005323D02*
X0353035Y0005323D01*
X0353035Y0004537D02*
X0004083Y0004537D01*
X0004083Y0004083D02*
X0004083Y0183744D01*
X0030201Y0183744D01*
X0030201Y0174087D01*
X0030610Y0173099D01*
X0031367Y0172342D01*
X0032355Y0171933D01*
X0088543Y0171933D01*
X0089531Y0172342D01*
X0090287Y0173099D01*
X0090697Y0174087D01*
X0090697Y0183744D01*
X0116815Y0183744D01*
X0116815Y0158339D01*
X0117224Y0157351D01*
X0117981Y0156594D01*
X0118969Y0156185D01*
X0353035Y0156185D01*
X0353035Y0004083D01*
X0004083Y0004083D01*
X0004083Y0041475D02*
X0034279Y0041475D01*
X0033493Y0042261D02*
X0004083Y0042261D01*
X0004083Y0043047D02*
X0032707Y0043047D01*
X0032357Y0043833D02*
X0004083Y0043833D01*
X0004083Y0044619D02*
X0032357Y0044619D01*
X0032357Y0045405D02*
X0004083Y0045405D01*
X0004083Y0046191D02*
X0032357Y0046191D01*
X0032463Y0046977D02*
X0004083Y0046977D01*
X0004083Y0047763D02*
X0033249Y0047763D01*
X0034035Y0048548D02*
X0004083Y0048548D01*
X0038471Y0061123D02*
X0353035Y0061123D01*
X0353035Y0061909D02*
X0039257Y0061909D01*
X0040043Y0062695D02*
X0336749Y0062695D01*
X0335927Y0063481D02*
X0040745Y0063481D01*
X0038288Y0080940D02*
X0034814Y0080940D01*
X0032357Y0083397D01*
X0032357Y0086871D01*
X0034814Y0089328D01*
X0038288Y0089328D01*
X0040745Y0086871D01*
X0040745Y0083397D01*
X0038288Y0080940D01*
X0038905Y0081557D02*
X0044197Y0081557D01*
X0044814Y0080940D02*
X0048288Y0080940D01*
X0050745Y0083397D01*
X0050745Y0086871D01*
X0048288Y0089328D01*
X0044814Y0089328D01*
X0042357Y0086871D01*
X0042357Y0083397D01*
X0044814Y0080940D01*
X0043412Y0082343D02*
X0039691Y0082343D01*
X0040477Y0083129D02*
X0042626Y0083129D01*
X0042357Y0083915D02*
X0040745Y0083915D01*
X0040745Y0084700D02*
X0042357Y0084700D01*
X0042357Y0085486D02*
X0040745Y0085486D01*
X0040745Y0086272D02*
X0042357Y0086272D01*
X0042545Y0087058D02*
X0040558Y0087058D01*
X0039772Y0087844D02*
X0043331Y0087844D01*
X0044117Y0088630D02*
X0038986Y0088630D01*
X0038288Y0090940D02*
X0034814Y0090940D01*
X0032357Y0093397D01*
X0032357Y0096871D01*
X0034814Y0099328D01*
X0038288Y0099328D01*
X0040745Y0096871D01*
X0040745Y0093397D01*
X0038288Y0090940D01*
X0038336Y0090988D02*
X0044766Y0090988D01*
X0044814Y0090940D02*
X0048288Y0090940D01*
X0050745Y0093397D01*
X0050745Y0096871D01*
X0048288Y0099328D01*
X0044814Y0099328D01*
X0042357Y0096871D01*
X0042357Y0093397D01*
X0044814Y0090940D01*
X0043981Y0091774D02*
X0039122Y0091774D01*
X0039908Y0092560D02*
X0043195Y0092560D01*
X0042409Y0093346D02*
X0040694Y0093346D01*
X0040745Y0094131D02*
X0042357Y0094131D01*
X0042357Y0094917D02*
X0040745Y0094917D01*
X0040745Y0095703D02*
X0042357Y0095703D01*
X0042357Y0096489D02*
X0040745Y0096489D01*
X0040341Y0097275D02*
X0042762Y0097275D01*
X0043548Y0098061D02*
X0039555Y0098061D01*
X0038769Y0098847D02*
X0044333Y0098847D01*
X0044550Y0101205D02*
X0038553Y0101205D01*
X0038288Y0100940D02*
X0040745Y0103397D01*
X0040745Y0106871D01*
X0038288Y0109328D01*
X0034814Y0109328D01*
X0032357Y0106871D01*
X0032357Y0103397D01*
X0034814Y0100940D01*
X0038288Y0100940D01*
X0039339Y0101991D02*
X0043764Y0101991D01*
X0042978Y0102776D02*
X0040125Y0102776D01*
X0040745Y0103562D02*
X0042357Y0103562D01*
X0042357Y0104348D02*
X0040745Y0104348D01*
X0040745Y0105134D02*
X0042357Y0105134D01*
X0042357Y0105920D02*
X0040745Y0105920D01*
X0040745Y0106706D02*
X0042357Y0106706D01*
X0042978Y0107492D02*
X0040124Y0107492D01*
X0039338Y0108278D02*
X0043764Y0108278D01*
X0044550Y0109064D02*
X0038552Y0109064D01*
X0038288Y0110940D02*
X0034814Y0110940D01*
X0032357Y0113397D01*
X0032357Y0116871D01*
X0034814Y0119328D01*
X0038288Y0119328D01*
X0040745Y0116871D01*
X0040745Y0113397D01*
X0038288Y0110940D01*
X0038770Y0111422D02*
X0044333Y0111422D01*
X0043547Y0112207D02*
X0039556Y0112207D01*
X0040341Y0112993D02*
X0042761Y0112993D01*
X0042357Y0113779D02*
X0040745Y0113779D01*
X0040745Y0114565D02*
X0042357Y0114565D01*
X0042357Y0115351D02*
X0040745Y0115351D01*
X0040745Y0116137D02*
X0042357Y0116137D01*
X0042409Y0116923D02*
X0040693Y0116923D01*
X0039907Y0117709D02*
X0043195Y0117709D01*
X0043981Y0118495D02*
X0039121Y0118495D01*
X0038335Y0119281D02*
X0044767Y0119281D01*
X0034767Y0119281D02*
X0004083Y0119281D01*
X0004083Y0118495D02*
X0033981Y0118495D01*
X0033195Y0117709D02*
X0004083Y0117709D01*
X0004083Y0116923D02*
X0032409Y0116923D01*
X0032357Y0116137D02*
X0004083Y0116137D01*
X0004083Y0115351D02*
X0032357Y0115351D01*
X0032357Y0114565D02*
X0004083Y0114565D01*
X0004083Y0113779D02*
X0032357Y0113779D01*
X0032761Y0112993D02*
X0004083Y0112993D01*
X0004083Y0112207D02*
X0033547Y0112207D01*
X0034333Y0111422D02*
X0004083Y0111422D01*
X0004083Y0110636D02*
X0353035Y0110636D01*
X0353035Y0109850D02*
X0004083Y0109850D01*
X0004083Y0109064D02*
X0034550Y0109064D01*
X0033764Y0108278D02*
X0004083Y0108278D01*
X0004083Y0107492D02*
X0032978Y0107492D01*
X0032357Y0106706D02*
X0004083Y0106706D01*
X0004083Y0105920D02*
X0032357Y0105920D01*
X0032357Y0105134D02*
X0004083Y0105134D01*
X0004083Y0104348D02*
X0032357Y0104348D01*
X0032357Y0103562D02*
X0004083Y0103562D01*
X0004083Y0102776D02*
X0032978Y0102776D01*
X0033764Y0101991D02*
X0004083Y0101991D01*
X0004083Y0101205D02*
X0034550Y0101205D01*
X0034333Y0098847D02*
X0004083Y0098847D01*
X0004083Y0098061D02*
X0033548Y0098061D01*
X0032762Y0097275D02*
X0004083Y0097275D01*
X0004083Y0096489D02*
X0032357Y0096489D01*
X0032357Y0095703D02*
X0004083Y0095703D01*
X0004083Y0094917D02*
X0032357Y0094917D01*
X0032357Y0094131D02*
X0004083Y0094131D01*
X0004083Y0093346D02*
X0032409Y0093346D01*
X0033195Y0092560D02*
X0004083Y0092560D01*
X0004083Y0091774D02*
X0033981Y0091774D01*
X0034766Y0090988D02*
X0004083Y0090988D01*
X0004083Y0090202D02*
X0091239Y0090202D01*
X0091239Y0090988D02*
X0048336Y0090988D01*
X0049122Y0091774D02*
X0091239Y0091774D01*
X0091239Y0092560D02*
X0049908Y0092560D01*
X0050694Y0093346D02*
X0079794Y0093346D01*
X0079008Y0094131D02*
X0050745Y0094131D01*
X0050745Y0094917D02*
X0078665Y0094917D01*
X0078431Y0095703D02*
X0050745Y0095703D01*
X0050745Y0096489D02*
X0078431Y0096489D01*
X0078582Y0097275D02*
X0050341Y0097275D01*
X0049555Y0098061D02*
X0078908Y0098061D01*
X0079593Y0098847D02*
X0048769Y0098847D01*
X0048986Y0088630D02*
X0091280Y0088630D01*
X0091239Y0088671D02*
X0091939Y0087972D01*
X0096865Y0087972D01*
X0097564Y0088671D01*
X0097564Y0094494D01*
X0108841Y0094494D01*
X0108979Y0094161D01*
X0109990Y0093150D01*
X0111310Y0092603D01*
X0117540Y0092603D01*
X0118861Y0093150D01*
X0119872Y0094161D01*
X0120140Y0094809D01*
X0123913Y0094809D01*
X0124549Y0094747D01*
X0125724Y0094260D01*
X0126623Y0093361D01*
X0127109Y0092187D01*
X0127172Y0091551D01*
X0127172Y0088290D01*
X0128071Y0086732D01*
X0129628Y0085833D01*
X0131499Y0085833D01*
X0131499Y0084561D01*
X0132198Y0083861D01*
X0137124Y0083861D01*
X0137824Y0084561D01*
X0137824Y0089880D01*
X0137124Y0090580D01*
X0132198Y0090580D01*
X0131499Y0089880D01*
X0131499Y0088608D01*
X0130528Y0088608D01*
X0130377Y0088628D01*
X0130117Y0088778D01*
X0129966Y0089039D01*
X0129946Y0089189D01*
X0129946Y0092751D01*
X0129028Y0094969D01*
X0127331Y0096666D01*
X0125113Y0097584D01*
X0120140Y0097584D01*
X0119872Y0098233D01*
X0118861Y0099243D01*
X0117540Y0099791D01*
X0111310Y0099791D01*
X0109990Y0099243D01*
X0108979Y0098233D01*
X0108906Y0098057D01*
X0095584Y0098057D01*
X0093705Y0096972D01*
X0093070Y0095871D01*
X0091939Y0095871D01*
X0091239Y0095172D01*
X0091239Y0088671D01*
X0091239Y0089416D02*
X0004083Y0089416D01*
X0004083Y0088630D02*
X0034117Y0088630D01*
X0033331Y0087844D02*
X0004083Y0087844D01*
X0004083Y0087058D02*
X0032545Y0087058D01*
X0032357Y0086272D02*
X0004083Y0086272D01*
X0004083Y0085486D02*
X0032357Y0085486D01*
X0032357Y0084700D02*
X0004083Y0084700D01*
X0004083Y0083915D02*
X0032357Y0083915D01*
X0032626Y0083129D02*
X0004083Y0083129D01*
X0004083Y0082343D02*
X0033412Y0082343D01*
X0034197Y0081557D02*
X0004083Y0081557D01*
X0004083Y0080771D02*
X0094980Y0080771D01*
X0094980Y0080009D02*
X0095679Y0079310D01*
X0100605Y0079310D01*
X0101304Y0080009D01*
X0101304Y0081872D01*
X0103830Y0081872D01*
X0103830Y0080474D01*
X0104529Y0079775D01*
X0109849Y0079775D01*
X0110548Y0080474D01*
X0110548Y0085400D01*
X0109849Y0086099D01*
X0104529Y0086099D01*
X0103830Y0085400D01*
X0103830Y0084647D01*
X0101304Y0084647D01*
X0101304Y0086510D01*
X0100605Y0087209D01*
X0095679Y0087209D01*
X0094980Y0086510D01*
X0094980Y0080009D01*
X0095004Y0079985D02*
X0004083Y0079985D01*
X0004083Y0079199D02*
X0104322Y0079199D01*
X0104529Y0079406D02*
X0103830Y0078707D01*
X0103830Y0077631D01*
X0101189Y0077631D01*
X0100551Y0076994D01*
X0100056Y0076994D01*
X0099040Y0076573D01*
X0098477Y0076009D01*
X0097272Y0076009D01*
X0097272Y0077282D01*
X0096573Y0077981D01*
X0091647Y0077981D01*
X0090948Y0077282D01*
X0090948Y0071962D01*
X0091647Y0071263D01*
X0096573Y0071263D01*
X0097272Y0071962D01*
X0097272Y0073235D01*
X0098025Y0073235D01*
X0098262Y0072662D01*
X0099040Y0071884D01*
X0100056Y0071463D01*
X0101156Y0071463D01*
X0102173Y0071884D01*
X0102951Y0072662D01*
X0103372Y0073678D01*
X0103372Y0074778D01*
X0103339Y0074857D01*
X0103830Y0074857D01*
X0103830Y0073781D01*
X0104529Y0073082D01*
X0109849Y0073082D01*
X0110548Y0073781D01*
X0110548Y0074857D01*
X0112239Y0074857D01*
X0112239Y0073584D01*
X0112939Y0072885D01*
X0117865Y0072885D01*
X0118564Y0073584D01*
X0118564Y0074857D01*
X0120649Y0074857D01*
X0120649Y0073781D01*
X0121348Y0073082D01*
X0126668Y0073082D01*
X0127367Y0073781D01*
X0127367Y0078707D01*
X0126668Y0079406D01*
X0121348Y0079406D01*
X0120649Y0078707D01*
X0120649Y0077631D01*
X0118564Y0077631D01*
X0118564Y0078904D01*
X0117865Y0079603D01*
X0112939Y0079603D01*
X0112239Y0078904D01*
X0112239Y0077631D01*
X0110548Y0077631D01*
X0110548Y0078707D01*
X0109849Y0079406D01*
X0104529Y0079406D01*
X0104319Y0079985D02*
X0101279Y0079985D01*
X0101304Y0080771D02*
X0103830Y0080771D01*
X0103830Y0081557D02*
X0101304Y0081557D01*
X0098142Y0083260D02*
X0106866Y0083260D01*
X0103830Y0084700D02*
X0101304Y0084700D01*
X0101304Y0085486D02*
X0103916Y0085486D01*
X0101304Y0086272D02*
X0128868Y0086272D01*
X0128071Y0086732D02*
X0128071Y0086732D01*
X0128071Y0086732D01*
X0127883Y0087058D02*
X0100756Y0087058D01*
X0097523Y0088630D02*
X0127172Y0088630D01*
X0127172Y0089416D02*
X0097564Y0089416D01*
X0097564Y0090202D02*
X0127172Y0090202D01*
X0127172Y0090988D02*
X0097564Y0090988D01*
X0097564Y0091774D02*
X0127150Y0091774D01*
X0126955Y0092560D02*
X0097564Y0092560D01*
X0097564Y0093346D02*
X0109794Y0093346D01*
X0109008Y0094131D02*
X0097564Y0094131D01*
X0094231Y0097275D02*
X0090268Y0097275D01*
X0090419Y0096489D02*
X0093427Y0096489D01*
X0093705Y0096972D02*
X0093705Y0096972D01*
X0093705Y0096972D01*
X0091771Y0095703D02*
X0090419Y0095703D01*
X0090185Y0094917D02*
X0091239Y0094917D01*
X0091239Y0094131D02*
X0089842Y0094131D01*
X0089056Y0093346D02*
X0091239Y0093346D01*
X0089943Y0098061D02*
X0108908Y0098061D01*
X0109593Y0098847D02*
X0089257Y0098847D01*
X0087921Y0099633D02*
X0110930Y0099633D01*
X0111310Y0102603D02*
X0109990Y0103150D01*
X0108979Y0104161D01*
X0108431Y0105482D01*
X0108431Y0106912D01*
X0108979Y0108233D01*
X0109990Y0109243D01*
X0111310Y0109791D01*
X0117540Y0109791D01*
X0118861Y0109243D01*
X0119872Y0108233D01*
X0120419Y0106912D01*
X0120419Y0105482D01*
X0119872Y0104161D01*
X0118861Y0103150D01*
X0117540Y0102603D01*
X0111310Y0102603D01*
X0110892Y0102776D02*
X0087958Y0102776D01*
X0089273Y0103562D02*
X0109577Y0103562D01*
X0108901Y0104348D02*
X0089949Y0104348D01*
X0090275Y0105134D02*
X0108576Y0105134D01*
X0108431Y0105920D02*
X0090419Y0105920D01*
X0090419Y0106706D02*
X0108431Y0106706D01*
X0108672Y0107492D02*
X0090179Y0107492D01*
X0089826Y0108278D02*
X0109024Y0108278D01*
X0109810Y0109064D02*
X0089041Y0109064D01*
X0114425Y0096197D02*
X0123913Y0096197D01*
X0125860Y0097275D02*
X0129763Y0097275D01*
X0129613Y0096912D02*
X0129613Y0095482D01*
X0130160Y0094161D01*
X0131171Y0093150D01*
X0132491Y0092603D01*
X0138721Y0092603D01*
X0140042Y0093150D01*
X0141053Y0094161D01*
X0141600Y0095482D01*
X0141600Y0096912D01*
X0141053Y0098233D01*
X0140042Y0099243D01*
X0138721Y0099791D01*
X0132491Y0099791D01*
X0131171Y0099243D01*
X0130160Y0098233D01*
X0129613Y0096912D01*
X0129613Y0096489D02*
X0127507Y0096489D01*
X0127331Y0096666D02*
X0127331Y0096666D01*
X0127331Y0096666D01*
X0128293Y0095703D02*
X0129613Y0095703D01*
X0129846Y0094917D02*
X0129049Y0094917D01*
X0129375Y0094131D02*
X0130189Y0094131D01*
X0129700Y0093346D02*
X0130975Y0093346D01*
X0129946Y0092560D02*
X0163786Y0092560D01*
X0163786Y0092603D02*
X0163786Y0091945D01*
X0163743Y0091506D01*
X0163407Y0090695D01*
X0163275Y0090563D01*
X0162762Y0091076D01*
X0156261Y0091076D01*
X0155562Y0090376D01*
X0155562Y0085450D01*
X0156261Y0084751D01*
X0162762Y0084751D01*
X0163461Y0085450D01*
X0163461Y0086451D01*
X0164828Y0087017D01*
X0166463Y0088652D01*
X0166463Y0088652D01*
X0167348Y0090789D01*
X0167348Y0092603D01*
X0168721Y0092603D01*
X0170042Y0093150D01*
X0171053Y0094161D01*
X0171600Y0095482D01*
X0171600Y0096912D01*
X0171053Y0098233D01*
X0170042Y0099243D01*
X0168721Y0099791D01*
X0162491Y0099791D01*
X0161171Y0099243D01*
X0160160Y0098233D01*
X0159613Y0096912D01*
X0159613Y0095482D01*
X0160160Y0094161D01*
X0161171Y0093150D01*
X0162491Y0092603D01*
X0163786Y0092603D01*
X0163769Y0091774D02*
X0129946Y0091774D01*
X0129946Y0090988D02*
X0156174Y0090988D01*
X0155562Y0090202D02*
X0144195Y0090202D01*
X0144517Y0089880D02*
X0143817Y0090580D01*
X0138891Y0090580D01*
X0138192Y0089880D01*
X0138192Y0084561D01*
X0138891Y0083861D01*
X0143817Y0083861D01*
X0144517Y0084561D01*
X0144517Y0084655D01*
X0145676Y0083496D01*
X0146488Y0082683D01*
X0146901Y0082683D01*
X0146901Y0081710D01*
X0147600Y0081011D01*
X0154101Y0081011D01*
X0154800Y0081710D01*
X0154800Y0086636D01*
X0154101Y0087335D01*
X0147600Y0087335D01*
X0146901Y0086636D01*
X0146901Y0086195D01*
X0144517Y0088579D01*
X0144517Y0089880D01*
X0144517Y0089416D02*
X0155562Y0089416D01*
X0155562Y0088630D02*
X0144517Y0088630D01*
X0145252Y0087844D02*
X0155562Y0087844D01*
X0155562Y0087058D02*
X0154378Y0087058D01*
X0154800Y0086272D02*
X0155562Y0086272D01*
X0155562Y0085486D02*
X0154800Y0085486D01*
X0154800Y0084700D02*
X0218113Y0084700D01*
X0218113Y0083915D02*
X0154800Y0083915D01*
X0154800Y0083129D02*
X0218561Y0083129D01*
X0218113Y0085486D02*
X0163461Y0085486D01*
X0163461Y0086272D02*
X0218113Y0086272D01*
X0218113Y0087058D02*
X0164869Y0087058D01*
X0164828Y0087017D02*
X0164828Y0087017D01*
X0165655Y0087844D02*
X0218113Y0087844D01*
X0218113Y0088630D02*
X0166441Y0088630D01*
X0166779Y0089416D02*
X0218113Y0089416D01*
X0218238Y0090202D02*
X0167105Y0090202D01*
X0167348Y0090988D02*
X0294294Y0090988D01*
X0294294Y0091774D02*
X0220233Y0091774D01*
X0219998Y0091539D02*
X0220698Y0092238D01*
X0220698Y0093707D01*
X0227937Y0093707D01*
X0228493Y0093150D01*
X0229814Y0092603D01*
X0236044Y0092603D01*
X0237365Y0093150D01*
X0238376Y0094161D01*
X0238923Y0095482D01*
X0238923Y0096912D01*
X0238376Y0098233D01*
X0237365Y0099243D01*
X0236044Y0099791D01*
X0229814Y0099791D01*
X0228493Y0099243D01*
X0227483Y0098233D01*
X0227084Y0097269D01*
X0220698Y0097269D01*
X0220698Y0098739D01*
X0219998Y0099438D01*
X0215072Y0099438D01*
X0214373Y0098739D01*
X0214373Y0092238D01*
X0215072Y0091539D01*
X0219998Y0091539D01*
X0220698Y0092560D02*
X0294294Y0092560D01*
X0294294Y0093346D02*
X0286300Y0093346D01*
X0287086Y0094131D02*
X0294294Y0094131D01*
X0294294Y0094917D02*
X0287429Y0094917D01*
X0287663Y0095703D02*
X0294294Y0095703D01*
X0294294Y0096489D02*
X0287663Y0096489D01*
X0287512Y0097275D02*
X0294406Y0097275D01*
X0294756Y0090202D02*
X0224313Y0090202D01*
X0224438Y0089416D02*
X0227169Y0089416D01*
X0227169Y0088630D02*
X0224438Y0088630D01*
X0221472Y0087024D02*
X0230528Y0087024D01*
X0227169Y0085486D02*
X0224438Y0085486D01*
X0224438Y0084700D02*
X0227169Y0084700D01*
X0227815Y0083915D02*
X0224438Y0083915D01*
X0223990Y0083129D02*
X0227503Y0083129D01*
X0227169Y0082343D02*
X0154800Y0082343D01*
X0154647Y0081557D02*
X0227169Y0081557D01*
X0227169Y0080771D02*
X0110548Y0080771D01*
X0110548Y0081557D02*
X0147054Y0081557D01*
X0146901Y0082343D02*
X0110548Y0082343D01*
X0110548Y0083129D02*
X0146043Y0083129D01*
X0145257Y0083915D02*
X0143870Y0083915D01*
X0147063Y0084071D02*
X0150748Y0084071D01*
X0150850Y0084173D01*
X0147063Y0084071D02*
X0143913Y0087220D01*
X0141354Y0087220D01*
X0138192Y0087058D02*
X0137824Y0087058D01*
X0137824Y0086272D02*
X0138192Y0086272D01*
X0138192Y0085486D02*
X0137824Y0085486D01*
X0137824Y0084700D02*
X0138192Y0084700D01*
X0138838Y0083915D02*
X0137177Y0083915D01*
X0132145Y0083915D02*
X0110548Y0083915D01*
X0110548Y0084700D02*
X0131499Y0084700D01*
X0131499Y0085486D02*
X0110462Y0085486D01*
X0110059Y0079985D02*
X0227169Y0079985D01*
X0227169Y0079199D02*
X0126875Y0079199D01*
X0127367Y0078413D02*
X0227169Y0078413D01*
X0227409Y0077627D02*
X0127367Y0077627D01*
X0127367Y0076841D02*
X0228156Y0076841D01*
X0226729Y0076055D02*
X0226058Y0076055D01*
X0230931Y0076841D02*
X0300524Y0076841D01*
X0305975Y0073698D02*
X0306262Y0073698D01*
X0310252Y0071866D02*
X0310252Y0078165D01*
X0310254Y0078191D01*
X0310259Y0078216D01*
X0310267Y0078240D01*
X0310278Y0078264D01*
X0310293Y0078285D01*
X0310310Y0078304D01*
X0310329Y0078321D01*
X0310351Y0078336D01*
X0310374Y0078347D01*
X0310398Y0078355D01*
X0310423Y0078360D01*
X0310449Y0078362D01*
X0313808Y0078413D02*
X0353035Y0078413D01*
X0353035Y0077627D02*
X0313808Y0077627D01*
X0313808Y0076841D02*
X0353035Y0076841D01*
X0353035Y0076055D02*
X0313808Y0076055D01*
X0313178Y0075270D02*
X0353035Y0075270D01*
X0353035Y0074484D02*
X0311639Y0074484D01*
X0311880Y0073698D02*
X0353035Y0073698D01*
X0353035Y0072912D02*
X0312233Y0072912D01*
X0312233Y0072126D02*
X0353035Y0072126D01*
X0353035Y0071340D02*
X0312233Y0071340D01*
X0312233Y0070554D02*
X0353035Y0070554D01*
X0353035Y0069768D02*
X0347501Y0069768D01*
X0348287Y0068982D02*
X0353035Y0068982D01*
X0353035Y0068196D02*
X0348807Y0068196D01*
X0349132Y0067410D02*
X0353035Y0067410D01*
X0353035Y0066624D02*
X0349257Y0066624D01*
X0349257Y0065839D02*
X0353035Y0065839D01*
X0353035Y0065053D02*
X0349096Y0065053D01*
X0348770Y0064267D02*
X0353035Y0064267D01*
X0353035Y0063481D02*
X0348199Y0063481D01*
X0347377Y0062695D02*
X0353035Y0062695D01*
X0353035Y0079199D02*
X0313808Y0079199D01*
X0313808Y0079985D02*
X0353035Y0079985D01*
X0353035Y0080771D02*
X0313808Y0080771D01*
X0313558Y0082343D02*
X0353035Y0082343D01*
X0353035Y0083129D02*
X0313808Y0083129D01*
X0313808Y0083915D02*
X0353035Y0083915D01*
X0353035Y0084700D02*
X0313808Y0084700D01*
X0313808Y0085486D02*
X0353035Y0085486D01*
X0353035Y0086272D02*
X0313808Y0086272D01*
X0313808Y0087058D02*
X0353035Y0087058D01*
X0353035Y0087844D02*
X0313482Y0087844D01*
X0310449Y0085055D02*
X0301394Y0085055D01*
X0301368Y0085057D01*
X0301343Y0085062D01*
X0301319Y0085070D01*
X0301296Y0085081D01*
X0301274Y0085096D01*
X0301255Y0085113D01*
X0301238Y0085132D01*
X0301223Y0085154D01*
X0301212Y0085177D01*
X0301204Y0085201D01*
X0301199Y0085226D01*
X0301197Y0085252D01*
X0304359Y0087058D02*
X0307090Y0087058D01*
X0307416Y0087844D02*
X0304359Y0087844D01*
X0304231Y0088630D02*
X0353035Y0088630D01*
X0353035Y0081557D02*
X0303914Y0081557D01*
X0304359Y0082343D02*
X0307339Y0082343D01*
X0307090Y0083129D02*
X0304359Y0083129D01*
X0300877Y0079985D02*
X0233887Y0079985D01*
X0230528Y0080330D02*
X0230466Y0080328D01*
X0230405Y0080322D01*
X0230344Y0080313D01*
X0230283Y0080299D01*
X0230224Y0080282D01*
X0230166Y0080261D01*
X0230109Y0080236D01*
X0230054Y0080208D01*
X0230001Y0080177D01*
X0229950Y0080142D01*
X0229901Y0080104D01*
X0229854Y0080063D01*
X0229811Y0080020D01*
X0229770Y0079973D01*
X0229732Y0079924D01*
X0229697Y0079873D01*
X0229666Y0079820D01*
X0229638Y0079765D01*
X0229613Y0079708D01*
X0229592Y0079650D01*
X0229575Y0079591D01*
X0229561Y0079530D01*
X0229552Y0079469D01*
X0229546Y0079408D01*
X0229544Y0079346D01*
X0229543Y0079346D02*
X0229543Y0073047D01*
X0223244Y0073047D01*
X0223270Y0073045D01*
X0223295Y0073040D01*
X0223319Y0073032D01*
X0223343Y0073021D01*
X0223364Y0073006D01*
X0223383Y0072989D01*
X0223400Y0072970D01*
X0223415Y0072949D01*
X0223426Y0072925D01*
X0223434Y0072901D01*
X0223439Y0072876D01*
X0223441Y0072850D01*
X0223441Y0066748D01*
X0222054Y0069768D02*
X0004083Y0069768D01*
X0004083Y0070554D02*
X0219915Y0070554D01*
X0219885Y0071340D02*
X0096650Y0071340D01*
X0097272Y0072126D02*
X0098798Y0072126D01*
X0098158Y0072912D02*
X0097272Y0072912D01*
X0100213Y0074622D02*
X0094110Y0074622D01*
X0090948Y0074484D02*
X0090580Y0074484D01*
X0090580Y0075270D02*
X0090948Y0075270D01*
X0090948Y0076055D02*
X0090580Y0076055D01*
X0090580Y0076841D02*
X0090948Y0076841D01*
X0090580Y0077282D02*
X0089880Y0077981D01*
X0084954Y0077981D01*
X0084255Y0077282D01*
X0084255Y0076403D01*
X0084232Y0076403D01*
X0083669Y0076966D01*
X0082652Y0077387D01*
X0081552Y0077387D01*
X0080536Y0076966D01*
X0079758Y0076188D01*
X0079337Y0075172D01*
X0079337Y0074072D01*
X0079758Y0073056D01*
X0080536Y0072278D01*
X0081552Y0071857D01*
X0082652Y0071857D01*
X0083669Y0072278D01*
X0084232Y0072841D01*
X0084255Y0072841D01*
X0084255Y0071962D01*
X0084954Y0071263D01*
X0089880Y0071263D01*
X0090580Y0071962D01*
X0090580Y0077282D01*
X0090234Y0077627D02*
X0091293Y0077627D01*
X0090948Y0073698D02*
X0090580Y0073698D01*
X0090580Y0072912D02*
X0090948Y0072912D01*
X0090948Y0072126D02*
X0090580Y0072126D01*
X0089957Y0071340D02*
X0091570Y0071340D01*
X0084877Y0071340D02*
X0004083Y0071340D01*
X0004083Y0072126D02*
X0080902Y0072126D01*
X0079902Y0072912D02*
X0004083Y0072912D01*
X0004083Y0073698D02*
X0079492Y0073698D01*
X0079337Y0074484D02*
X0004083Y0074484D01*
X0004083Y0075270D02*
X0079377Y0075270D01*
X0079703Y0076055D02*
X0004083Y0076055D01*
X0004083Y0076841D02*
X0080411Y0076841D01*
X0083794Y0076841D02*
X0084255Y0076841D01*
X0084601Y0077627D02*
X0004083Y0077627D01*
X0004083Y0078413D02*
X0103830Y0078413D01*
X0101185Y0077627D02*
X0096927Y0077627D01*
X0097272Y0076841D02*
X0099688Y0076841D01*
X0098523Y0076055D02*
X0097272Y0076055D01*
X0100213Y0074622D02*
X0100606Y0074228D01*
X0100606Y0075087D01*
X0101764Y0076244D01*
X0107189Y0076244D01*
X0107252Y0076244D02*
X0115402Y0076244D01*
X0124008Y0076244D01*
X0127367Y0076055D02*
X0220430Y0076055D01*
X0219885Y0075270D02*
X0127367Y0075270D01*
X0127367Y0074484D02*
X0219885Y0074484D01*
X0219885Y0073698D02*
X0127283Y0073698D01*
X0120732Y0073698D02*
X0118564Y0073698D01*
X0118564Y0074484D02*
X0120649Y0074484D01*
X0117891Y0072912D02*
X0219885Y0072912D01*
X0219885Y0072126D02*
X0102415Y0072126D01*
X0103054Y0072912D02*
X0112912Y0072912D01*
X0112239Y0073698D02*
X0110465Y0073698D01*
X0110548Y0074484D02*
X0112239Y0074484D01*
X0112239Y0078413D02*
X0110548Y0078413D01*
X0110056Y0079199D02*
X0112535Y0079199D01*
X0118269Y0079199D02*
X0121141Y0079199D01*
X0120649Y0078413D02*
X0118564Y0078413D01*
X0103830Y0074484D02*
X0103372Y0074484D01*
X0103372Y0073698D02*
X0103913Y0073698D01*
X0094980Y0081557D02*
X0048905Y0081557D01*
X0049691Y0082343D02*
X0094980Y0082343D01*
X0094980Y0083129D02*
X0050477Y0083129D01*
X0050745Y0083915D02*
X0094980Y0083915D01*
X0094980Y0084700D02*
X0050745Y0084700D01*
X0050745Y0085486D02*
X0094980Y0085486D01*
X0094980Y0086272D02*
X0050745Y0086272D01*
X0050558Y0087058D02*
X0095528Y0087058D01*
X0119056Y0093346D02*
X0126629Y0093346D01*
X0125852Y0094131D02*
X0119842Y0094131D01*
X0119943Y0098061D02*
X0130089Y0098061D01*
X0130774Y0098847D02*
X0119257Y0098847D01*
X0117921Y0099633D02*
X0132111Y0099633D01*
X0132491Y0102603D02*
X0131171Y0103150D01*
X0130160Y0104161D01*
X0129613Y0105482D01*
X0129613Y0106912D01*
X0130160Y0108233D01*
X0131171Y0109243D01*
X0132491Y0109791D01*
X0138721Y0109791D01*
X0140042Y0109243D01*
X0141053Y0108233D01*
X0141600Y0106912D01*
X0141600Y0105482D01*
X0141053Y0104161D01*
X0140042Y0103150D01*
X0138721Y0102603D01*
X0132491Y0102603D01*
X0132073Y0102776D02*
X0117958Y0102776D01*
X0119273Y0103562D02*
X0130759Y0103562D01*
X0130082Y0104348D02*
X0119949Y0104348D01*
X0120275Y0105134D02*
X0129757Y0105134D01*
X0129613Y0105920D02*
X0120419Y0105920D01*
X0120419Y0106706D02*
X0129613Y0106706D01*
X0129853Y0107492D02*
X0120179Y0107492D01*
X0119826Y0108278D02*
X0130205Y0108278D01*
X0130991Y0109064D02*
X0119041Y0109064D01*
X0139140Y0102776D02*
X0162073Y0102776D01*
X0162491Y0102603D02*
X0161171Y0103150D01*
X0160160Y0104161D01*
X0159613Y0105482D01*
X0159613Y0106912D01*
X0160160Y0108233D01*
X0161171Y0109243D01*
X0162491Y0109791D01*
X0168721Y0109791D01*
X0170042Y0109243D01*
X0171053Y0108233D01*
X0171600Y0106912D01*
X0171600Y0105482D01*
X0171053Y0104161D01*
X0170042Y0103150D01*
X0168721Y0102603D01*
X0162491Y0102603D01*
X0160759Y0103562D02*
X0140454Y0103562D01*
X0141130Y0104348D02*
X0160082Y0104348D01*
X0159757Y0105134D02*
X0141456Y0105134D01*
X0141600Y0105920D02*
X0159613Y0105920D01*
X0159613Y0106706D02*
X0141600Y0106706D01*
X0141360Y0107492D02*
X0159853Y0107492D01*
X0160205Y0108278D02*
X0141008Y0108278D01*
X0140222Y0109064D02*
X0160991Y0109064D01*
X0170222Y0109064D02*
X0198314Y0109064D01*
X0198493Y0109243D02*
X0197483Y0108233D01*
X0196935Y0106912D01*
X0196935Y0105482D01*
X0197483Y0104161D01*
X0198493Y0103150D01*
X0199814Y0102603D01*
X0206044Y0102603D01*
X0207365Y0103150D01*
X0208376Y0104161D01*
X0208923Y0105482D01*
X0208923Y0106912D01*
X0208376Y0108233D01*
X0207365Y0109243D01*
X0206044Y0109791D01*
X0199814Y0109791D01*
X0198493Y0109243D01*
X0197528Y0108278D02*
X0171008Y0108278D01*
X0171360Y0107492D02*
X0197176Y0107492D01*
X0196935Y0106706D02*
X0171600Y0106706D01*
X0171600Y0105920D02*
X0196935Y0105920D01*
X0197079Y0105134D02*
X0171456Y0105134D01*
X0171130Y0104348D02*
X0197405Y0104348D01*
X0198081Y0103562D02*
X0170454Y0103562D01*
X0169140Y0102776D02*
X0199396Y0102776D01*
X0199814Y0099791D02*
X0198493Y0099243D01*
X0197483Y0098233D01*
X0196935Y0096912D01*
X0196935Y0095482D01*
X0197483Y0094161D01*
X0198493Y0093150D01*
X0199814Y0092603D01*
X0206044Y0092603D01*
X0207365Y0093150D01*
X0208376Y0094161D01*
X0208923Y0095482D01*
X0208923Y0096912D01*
X0208376Y0098233D01*
X0207365Y0099243D01*
X0206044Y0099791D01*
X0199814Y0099791D01*
X0199434Y0099633D02*
X0169102Y0099633D01*
X0170438Y0098847D02*
X0198097Y0098847D01*
X0197412Y0098061D02*
X0171124Y0098061D01*
X0171449Y0097275D02*
X0197086Y0097275D01*
X0196935Y0096489D02*
X0171600Y0096489D01*
X0171600Y0095703D02*
X0196935Y0095703D01*
X0197169Y0094917D02*
X0171366Y0094917D01*
X0171023Y0094131D02*
X0197512Y0094131D01*
X0198298Y0093346D02*
X0170237Y0093346D01*
X0167348Y0092560D02*
X0214373Y0092560D01*
X0214373Y0093346D02*
X0207560Y0093346D01*
X0208346Y0094131D02*
X0214373Y0094131D01*
X0214373Y0094917D02*
X0208689Y0094917D01*
X0208923Y0095703D02*
X0214373Y0095703D01*
X0214373Y0096489D02*
X0208923Y0096489D01*
X0208772Y0097275D02*
X0214373Y0097275D01*
X0214373Y0098061D02*
X0208447Y0098061D01*
X0207761Y0098847D02*
X0214482Y0098847D01*
X0220589Y0098847D02*
X0228097Y0098847D01*
X0227412Y0098061D02*
X0220698Y0098061D01*
X0220698Y0097275D02*
X0227086Y0097275D01*
X0229434Y0099633D02*
X0206425Y0099633D01*
X0206462Y0102776D02*
X0229396Y0102776D01*
X0229814Y0102603D02*
X0228493Y0103150D01*
X0227483Y0104161D01*
X0226935Y0105482D01*
X0226935Y0106912D01*
X0227483Y0108233D01*
X0228493Y0109243D01*
X0229814Y0109791D01*
X0236044Y0109791D01*
X0237365Y0109243D01*
X0238376Y0108233D01*
X0238923Y0106912D01*
X0238923Y0105482D01*
X0238376Y0104161D01*
X0237365Y0103150D01*
X0236044Y0102603D01*
X0229814Y0102603D01*
X0228081Y0103562D02*
X0207777Y0103562D01*
X0208453Y0104348D02*
X0227405Y0104348D01*
X0227079Y0105134D02*
X0208779Y0105134D01*
X0208923Y0105920D02*
X0226935Y0105920D01*
X0226935Y0106706D02*
X0208923Y0106706D01*
X0208682Y0107492D02*
X0227176Y0107492D01*
X0227528Y0108278D02*
X0208330Y0108278D01*
X0207544Y0109064D02*
X0228314Y0109064D01*
X0237544Y0109064D02*
X0277054Y0109064D01*
X0276268Y0108278D02*
X0238330Y0108278D01*
X0238682Y0107492D02*
X0275916Y0107492D01*
X0275676Y0106706D02*
X0238923Y0106706D01*
X0238923Y0105920D02*
X0275676Y0105920D01*
X0275820Y0105134D02*
X0238779Y0105134D01*
X0238453Y0104348D02*
X0276145Y0104348D01*
X0276821Y0103562D02*
X0237777Y0103562D01*
X0236462Y0102776D02*
X0278136Y0102776D01*
X0278174Y0099633D02*
X0236425Y0099633D01*
X0237761Y0098847D02*
X0276837Y0098847D01*
X0276152Y0098061D02*
X0238447Y0098061D01*
X0238772Y0097275D02*
X0275826Y0097275D01*
X0275676Y0096489D02*
X0238923Y0096489D01*
X0238923Y0095703D02*
X0275676Y0095703D01*
X0275909Y0094917D02*
X0238689Y0094917D01*
X0238346Y0094131D02*
X0276252Y0094131D01*
X0277038Y0093346D02*
X0237560Y0093346D01*
X0228298Y0093346D02*
X0220698Y0093346D01*
X0214837Y0091774D02*
X0167348Y0091774D01*
X0163528Y0090988D02*
X0162850Y0090988D01*
X0160975Y0093346D02*
X0140237Y0093346D01*
X0141023Y0094131D02*
X0160189Y0094131D01*
X0159846Y0094917D02*
X0141366Y0094917D01*
X0141600Y0095703D02*
X0159613Y0095703D01*
X0159613Y0096489D02*
X0141600Y0096489D01*
X0141449Y0097275D02*
X0159763Y0097275D01*
X0160089Y0098061D02*
X0141124Y0098061D01*
X0140438Y0098847D02*
X0160774Y0098847D01*
X0162111Y0099633D02*
X0139102Y0099633D01*
X0138514Y0090202D02*
X0137502Y0090202D01*
X0137824Y0089416D02*
X0138192Y0089416D01*
X0138192Y0088630D02*
X0137824Y0088630D01*
X0137824Y0087844D02*
X0138192Y0087844D01*
X0134661Y0087220D02*
X0130528Y0087220D01*
X0130373Y0088630D02*
X0131499Y0088630D01*
X0131499Y0089416D02*
X0129946Y0089416D01*
X0128559Y0089189D02*
X0128561Y0089103D01*
X0128566Y0089017D01*
X0128576Y0088932D01*
X0128589Y0088847D01*
X0128606Y0088763D01*
X0128626Y0088679D01*
X0128650Y0088597D01*
X0128678Y0088516D01*
X0128709Y0088435D01*
X0128743Y0088357D01*
X0128781Y0088280D01*
X0128823Y0088205D01*
X0128867Y0088131D01*
X0128915Y0088060D01*
X0128966Y0087990D01*
X0129020Y0087923D01*
X0129076Y0087859D01*
X0129136Y0087797D01*
X0129198Y0087737D01*
X0129262Y0087681D01*
X0129329Y0087627D01*
X0129399Y0087576D01*
X0129470Y0087528D01*
X0129544Y0087484D01*
X0129619Y0087442D01*
X0129696Y0087404D01*
X0129774Y0087370D01*
X0129855Y0087339D01*
X0129936Y0087311D01*
X0130018Y0087287D01*
X0130102Y0087267D01*
X0130186Y0087250D01*
X0130271Y0087237D01*
X0130356Y0087227D01*
X0130442Y0087222D01*
X0130528Y0087220D01*
X0128559Y0089189D02*
X0128559Y0091551D01*
X0129946Y0090202D02*
X0131821Y0090202D01*
X0127429Y0087844D02*
X0049772Y0087844D01*
X0083302Y0072126D02*
X0084255Y0072126D01*
X0123913Y0096197D02*
X0124048Y0096195D01*
X0124183Y0096189D01*
X0124318Y0096179D01*
X0124452Y0096166D01*
X0124586Y0096148D01*
X0124720Y0096126D01*
X0124853Y0096101D01*
X0124984Y0096072D01*
X0125115Y0096039D01*
X0125245Y0096002D01*
X0125374Y0095961D01*
X0125502Y0095917D01*
X0125628Y0095869D01*
X0125753Y0095817D01*
X0125876Y0095762D01*
X0125998Y0095703D01*
X0126118Y0095640D01*
X0126236Y0095575D01*
X0126352Y0095505D01*
X0126466Y0095433D01*
X0126578Y0095357D01*
X0126687Y0095278D01*
X0126795Y0095195D01*
X0126899Y0095110D01*
X0127002Y0095022D01*
X0127101Y0094930D01*
X0127198Y0094836D01*
X0127292Y0094739D01*
X0127384Y0094640D01*
X0127472Y0094537D01*
X0127557Y0094433D01*
X0127640Y0094325D01*
X0127719Y0094216D01*
X0127795Y0094104D01*
X0127867Y0093990D01*
X0127937Y0093874D01*
X0128002Y0093756D01*
X0128065Y0093636D01*
X0128124Y0093514D01*
X0128179Y0093391D01*
X0128231Y0093266D01*
X0128279Y0093140D01*
X0128323Y0093012D01*
X0128364Y0092883D01*
X0128401Y0092753D01*
X0128434Y0092622D01*
X0128463Y0092491D01*
X0128488Y0092358D01*
X0128510Y0092224D01*
X0128528Y0092090D01*
X0128541Y0091956D01*
X0128551Y0091821D01*
X0128557Y0091686D01*
X0128559Y0091551D01*
X0146038Y0087058D02*
X0147323Y0087058D01*
X0146901Y0086272D02*
X0146824Y0086272D01*
X0139299Y0059551D02*
X0161914Y0059551D01*
X0162491Y0059791D02*
X0161171Y0059243D01*
X0160160Y0058233D01*
X0159613Y0056912D01*
X0159613Y0055482D01*
X0160160Y0054161D01*
X0161171Y0053150D01*
X0162491Y0052603D01*
X0168721Y0052603D01*
X0170042Y0053150D01*
X0171053Y0054161D01*
X0171600Y0055482D01*
X0171600Y0056912D01*
X0171053Y0058233D01*
X0170042Y0059243D01*
X0168721Y0059791D01*
X0162491Y0059791D01*
X0160693Y0058765D02*
X0140520Y0058765D01*
X0141158Y0057979D02*
X0160055Y0057979D01*
X0159729Y0057194D02*
X0141483Y0057194D01*
X0141600Y0056408D02*
X0159613Y0056408D01*
X0159613Y0055622D02*
X0141600Y0055622D01*
X0141332Y0054836D02*
X0159880Y0054836D01*
X0160271Y0054050D02*
X0140942Y0054050D01*
X0140156Y0053264D02*
X0161057Y0053264D01*
X0162491Y0049791D02*
X0161171Y0049243D01*
X0160160Y0048233D01*
X0159613Y0046912D01*
X0159613Y0045482D01*
X0160160Y0044161D01*
X0161171Y0043150D01*
X0162491Y0042603D01*
X0168721Y0042603D01*
X0170042Y0043150D01*
X0171053Y0044161D01*
X0171600Y0045482D01*
X0171600Y0046912D01*
X0171053Y0048233D01*
X0170042Y0049243D01*
X0168721Y0049791D01*
X0162491Y0049791D01*
X0161390Y0049334D02*
X0139822Y0049334D01*
X0140737Y0048548D02*
X0160476Y0048548D01*
X0159965Y0047763D02*
X0141248Y0047763D01*
X0141573Y0046977D02*
X0159640Y0046977D01*
X0159613Y0046191D02*
X0141600Y0046191D01*
X0141568Y0045405D02*
X0159645Y0045405D01*
X0159970Y0044619D02*
X0141242Y0044619D01*
X0140725Y0043833D02*
X0160488Y0043833D01*
X0161420Y0043047D02*
X0139793Y0043047D01*
X0169793Y0043047D02*
X0198743Y0043047D01*
X0198493Y0043150D02*
X0199814Y0042603D01*
X0206044Y0042603D01*
X0207365Y0043150D01*
X0208376Y0044161D01*
X0208923Y0045482D01*
X0208923Y0046912D01*
X0208376Y0048233D01*
X0207365Y0049243D01*
X0206044Y0049791D01*
X0199814Y0049791D01*
X0198493Y0049243D01*
X0197483Y0048233D01*
X0196935Y0046912D01*
X0196935Y0045482D01*
X0197483Y0044161D01*
X0198493Y0043150D01*
X0197811Y0043833D02*
X0170725Y0043833D01*
X0171242Y0044619D02*
X0197293Y0044619D01*
X0196967Y0045405D02*
X0171568Y0045405D01*
X0171600Y0046191D02*
X0196935Y0046191D01*
X0196962Y0046977D02*
X0171573Y0046977D01*
X0171248Y0047763D02*
X0197288Y0047763D01*
X0197798Y0048548D02*
X0170737Y0048548D01*
X0169822Y0049334D02*
X0198713Y0049334D01*
X0199814Y0052603D02*
X0198493Y0053150D01*
X0197483Y0054161D01*
X0196935Y0055482D01*
X0196935Y0056912D01*
X0197483Y0058233D01*
X0198493Y0059243D01*
X0199814Y0059791D01*
X0206044Y0059791D01*
X0207365Y0059243D01*
X0208376Y0058233D01*
X0208923Y0056912D01*
X0208923Y0055482D01*
X0208376Y0054161D01*
X0207365Y0053150D01*
X0206044Y0052603D01*
X0199814Y0052603D01*
X0198380Y0053264D02*
X0170156Y0053264D01*
X0170942Y0054050D02*
X0197594Y0054050D01*
X0197203Y0054836D02*
X0171332Y0054836D01*
X0171600Y0055622D02*
X0196935Y0055622D01*
X0196935Y0056408D02*
X0171600Y0056408D01*
X0171483Y0057194D02*
X0197052Y0057194D01*
X0197378Y0057979D02*
X0171158Y0057979D01*
X0170520Y0058765D02*
X0198015Y0058765D01*
X0199237Y0059551D02*
X0169299Y0059551D01*
X0206622Y0059551D02*
X0229237Y0059551D01*
X0229814Y0059791D02*
X0228493Y0059243D01*
X0227483Y0058233D01*
X0226935Y0056912D01*
X0226935Y0055482D01*
X0227483Y0054161D01*
X0228493Y0053150D01*
X0229814Y0052603D01*
X0236044Y0052603D01*
X0237365Y0053150D01*
X0238376Y0054161D01*
X0238923Y0055482D01*
X0238923Y0056912D01*
X0238376Y0058233D01*
X0237365Y0059243D01*
X0236044Y0059791D01*
X0229814Y0059791D01*
X0228015Y0058765D02*
X0207843Y0058765D01*
X0208481Y0057979D02*
X0227378Y0057979D01*
X0227052Y0057194D02*
X0208806Y0057194D01*
X0208923Y0056408D02*
X0226935Y0056408D01*
X0226935Y0055622D02*
X0208923Y0055622D01*
X0208655Y0054836D02*
X0227203Y0054836D01*
X0227594Y0054050D02*
X0208264Y0054050D01*
X0207478Y0053264D02*
X0228380Y0053264D01*
X0229814Y0049791D02*
X0228493Y0049243D01*
X0227483Y0048233D01*
X0226935Y0046912D01*
X0226935Y0045482D01*
X0227483Y0044161D01*
X0228493Y0043150D01*
X0229814Y0042603D01*
X0236044Y0042603D01*
X0237365Y0043150D01*
X0238376Y0044161D01*
X0238923Y0045482D01*
X0238923Y0046912D01*
X0238376Y0048233D01*
X0237365Y0049243D01*
X0236044Y0049791D01*
X0229814Y0049791D01*
X0228713Y0049334D02*
X0207145Y0049334D01*
X0208060Y0048548D02*
X0227798Y0048548D01*
X0227288Y0047763D02*
X0208570Y0047763D01*
X0208896Y0046977D02*
X0226962Y0046977D01*
X0226935Y0046191D02*
X0208923Y0046191D01*
X0208891Y0045405D02*
X0226967Y0045405D01*
X0227293Y0044619D02*
X0208565Y0044619D01*
X0208048Y0043833D02*
X0227811Y0043833D01*
X0228743Y0043047D02*
X0207116Y0043047D01*
X0237116Y0043047D02*
X0277483Y0043047D01*
X0277234Y0043150D02*
X0278554Y0042603D01*
X0284784Y0042603D01*
X0286105Y0043150D01*
X0287116Y0044161D01*
X0287663Y0045482D01*
X0287663Y0046912D01*
X0287116Y0048233D01*
X0286105Y0049243D01*
X0284784Y0049791D01*
X0278554Y0049791D01*
X0277234Y0049243D01*
X0276223Y0048233D01*
X0275676Y0046912D01*
X0275676Y0045482D01*
X0276223Y0044161D01*
X0277234Y0043150D01*
X0276551Y0043833D02*
X0238048Y0043833D01*
X0238565Y0044619D02*
X0276033Y0044619D01*
X0275708Y0045405D02*
X0238891Y0045405D01*
X0238923Y0046191D02*
X0275676Y0046191D01*
X0275703Y0046977D02*
X0238896Y0046977D01*
X0238570Y0047763D02*
X0276028Y0047763D01*
X0276539Y0048548D02*
X0238060Y0048548D01*
X0237145Y0049334D02*
X0277453Y0049334D01*
X0278554Y0052603D02*
X0277234Y0053150D01*
X0276223Y0054161D01*
X0275676Y0055482D01*
X0275676Y0056912D01*
X0276223Y0058233D01*
X0277234Y0059243D01*
X0278554Y0059791D01*
X0284784Y0059791D01*
X0286105Y0059243D01*
X0287116Y0058233D01*
X0287663Y0056912D01*
X0287663Y0055482D01*
X0287116Y0054161D01*
X0286105Y0053150D01*
X0284784Y0052603D01*
X0278554Y0052603D01*
X0277120Y0053264D02*
X0237478Y0053264D01*
X0238264Y0054050D02*
X0276334Y0054050D01*
X0275943Y0054836D02*
X0238655Y0054836D01*
X0238923Y0055622D02*
X0275676Y0055622D01*
X0275676Y0056408D02*
X0238923Y0056408D01*
X0238806Y0057194D02*
X0275792Y0057194D01*
X0276118Y0057979D02*
X0238481Y0057979D01*
X0237843Y0058765D02*
X0276756Y0058765D01*
X0277977Y0059551D02*
X0236622Y0059551D01*
X0285362Y0059551D02*
X0307977Y0059551D01*
X0306756Y0058765D02*
X0286583Y0058765D01*
X0287221Y0057979D02*
X0306118Y0057979D01*
X0305792Y0057194D02*
X0287546Y0057194D01*
X0287663Y0056408D02*
X0305676Y0056408D01*
X0305676Y0055622D02*
X0287663Y0055622D01*
X0287395Y0054836D02*
X0305943Y0054836D01*
X0306334Y0054050D02*
X0287005Y0054050D01*
X0286219Y0053264D02*
X0307120Y0053264D01*
X0307453Y0049334D02*
X0285885Y0049334D01*
X0286800Y0048548D02*
X0306539Y0048548D01*
X0306028Y0047763D02*
X0287311Y0047763D01*
X0287636Y0046977D02*
X0305703Y0046977D01*
X0305676Y0046191D02*
X0287663Y0046191D01*
X0287631Y0045405D02*
X0305708Y0045405D01*
X0306033Y0044619D02*
X0287305Y0044619D01*
X0286788Y0043833D02*
X0306551Y0043833D01*
X0307483Y0043047D02*
X0285856Y0043047D01*
X0221472Y0087024D02*
X0221446Y0087022D01*
X0221421Y0087017D01*
X0221397Y0087009D01*
X0221374Y0086998D01*
X0221352Y0086983D01*
X0221333Y0086966D01*
X0221316Y0086947D01*
X0221301Y0086926D01*
X0221290Y0086902D01*
X0221282Y0086878D01*
X0221277Y0086853D01*
X0221275Y0086827D01*
X0118888Y0156219D02*
X0004083Y0156219D01*
X0004083Y0157004D02*
X0117571Y0157004D01*
X0117042Y0157790D02*
X0004083Y0157790D01*
X0004083Y0158576D02*
X0116815Y0158576D01*
X0116815Y0159362D02*
X0004083Y0159362D01*
X0004083Y0160148D02*
X0116815Y0160148D01*
X0116815Y0160934D02*
X0004083Y0160934D01*
X0004083Y0161720D02*
X0116815Y0161720D01*
X0116815Y0162506D02*
X0004083Y0162506D01*
X0004083Y0163292D02*
X0116815Y0163292D01*
X0116815Y0164078D02*
X0004083Y0164078D01*
X0004083Y0164864D02*
X0116815Y0164864D01*
X0116815Y0165649D02*
X0004083Y0165649D01*
X0004083Y0166435D02*
X0116815Y0166435D01*
X0116815Y0167221D02*
X0004083Y0167221D01*
X0004083Y0168007D02*
X0116815Y0168007D01*
X0116815Y0168793D02*
X0004083Y0168793D01*
X0004083Y0169579D02*
X0116815Y0169579D01*
X0116815Y0170365D02*
X0004083Y0170365D01*
X0004083Y0171151D02*
X0116815Y0171151D01*
X0116815Y0171937D02*
X0088552Y0171937D01*
X0089911Y0172723D02*
X0116815Y0172723D01*
X0116815Y0173509D02*
X0090457Y0173509D01*
X0090697Y0174295D02*
X0116815Y0174295D01*
X0116815Y0175080D02*
X0090697Y0175080D01*
X0090697Y0175866D02*
X0116815Y0175866D01*
X0116815Y0176652D02*
X0090697Y0176652D01*
X0090697Y0177438D02*
X0116815Y0177438D01*
X0116815Y0178224D02*
X0090697Y0178224D01*
X0090697Y0179010D02*
X0116815Y0179010D01*
X0116815Y0179796D02*
X0090697Y0179796D01*
X0090697Y0180582D02*
X0116815Y0180582D01*
X0116815Y0181368D02*
X0090697Y0181368D01*
X0090697Y0182154D02*
X0116815Y0182154D01*
X0116815Y0182940D02*
X0090697Y0182940D01*
X0090697Y0183725D02*
X0116815Y0183725D01*
X0032346Y0171937D02*
X0004083Y0171937D01*
X0004083Y0172723D02*
X0030986Y0172723D01*
X0030440Y0173509D02*
X0004083Y0173509D01*
X0004083Y0174295D02*
X0030201Y0174295D01*
X0030201Y0175080D02*
X0004083Y0175080D01*
X0004083Y0175866D02*
X0030201Y0175866D01*
X0030201Y0176652D02*
X0004083Y0176652D01*
X0004083Y0177438D02*
X0030201Y0177438D01*
X0030201Y0178224D02*
X0004083Y0178224D01*
X0004083Y0179010D02*
X0030201Y0179010D01*
X0030201Y0179796D02*
X0004083Y0179796D01*
X0004083Y0180582D02*
X0030201Y0180582D01*
X0030201Y0181368D02*
X0004083Y0181368D01*
X0004083Y0182154D02*
X0030201Y0182154D01*
X0030201Y0182940D02*
X0004083Y0182940D01*
X0004083Y0183725D02*
X0030201Y0183725D01*
X0004083Y0155433D02*
X0353035Y0155433D01*
X0353035Y0154647D02*
X0004083Y0154647D01*
X0004083Y0153861D02*
X0353035Y0153861D01*
X0353035Y0153075D02*
X0004083Y0153075D01*
X0004083Y0152289D02*
X0353035Y0152289D01*
X0353035Y0151503D02*
X0004083Y0151503D01*
X0004083Y0150717D02*
X0353035Y0150717D01*
X0353035Y0149931D02*
X0004083Y0149931D01*
D21*
X0082102Y0074622D03*
X0100606Y0074228D03*
X0223441Y0066748D03*
X0302969Y0078165D03*
D22*
X0297457Y0093913D02*
X0297459Y0094007D01*
X0297465Y0094102D01*
X0297475Y0094195D01*
X0297488Y0094289D01*
X0297506Y0094382D01*
X0297527Y0094473D01*
X0297552Y0094564D01*
X0297581Y0094654D01*
X0297613Y0094743D01*
X0297649Y0094830D01*
X0297689Y0094916D01*
X0297732Y0095000D01*
X0297779Y0095082D01*
X0297829Y0095162D01*
X0297882Y0095240D01*
X0297938Y0095315D01*
X0297998Y0095389D01*
X0298060Y0095459D01*
X0298126Y0095527D01*
X0298194Y0095593D01*
X0298264Y0095655D01*
X0298338Y0095715D01*
X0298413Y0095771D01*
X0298491Y0095824D01*
X0298571Y0095874D01*
X0298653Y0095921D01*
X0298737Y0095964D01*
X0298823Y0096004D01*
X0298910Y0096040D01*
X0298999Y0096072D01*
X0299089Y0096101D01*
X0299180Y0096126D01*
X0299271Y0096147D01*
X0299364Y0096165D01*
X0299458Y0096178D01*
X0299551Y0096188D01*
X0299646Y0096194D01*
X0299740Y0096196D01*
X0299740Y0096197D02*
X0311669Y0096197D01*
X0232929Y0096197D02*
X0232927Y0096146D01*
X0232922Y0096096D01*
X0232913Y0096046D01*
X0232900Y0095997D01*
X0232884Y0095949D01*
X0232865Y0095902D01*
X0232842Y0095857D01*
X0232816Y0095814D01*
X0232788Y0095772D01*
X0232756Y0095733D01*
X0232721Y0095696D01*
X0232684Y0095661D01*
X0232645Y0095629D01*
X0232603Y0095601D01*
X0232560Y0095575D01*
X0232515Y0095552D01*
X0232468Y0095533D01*
X0232420Y0095517D01*
X0232371Y0095504D01*
X0232321Y0095495D01*
X0232271Y0095490D01*
X0232220Y0095488D01*
X0217535Y0095488D01*
X0165606Y0096196D02*
X0165596Y0096195D01*
X0165587Y0096191D01*
X0165578Y0096185D01*
X0165572Y0096177D01*
X0165568Y0096167D01*
X0165567Y0096157D01*
X0165567Y0091945D01*
X0165566Y0091945D02*
X0165564Y0091821D01*
X0165558Y0091697D01*
X0165549Y0091573D01*
X0165535Y0091450D01*
X0165518Y0091327D01*
X0165497Y0091204D01*
X0165473Y0091083D01*
X0165444Y0090962D01*
X0165412Y0090842D01*
X0165376Y0090723D01*
X0165337Y0090605D01*
X0165294Y0090489D01*
X0165247Y0090374D01*
X0165197Y0090260D01*
X0165143Y0090148D01*
X0165086Y0090038D01*
X0165026Y0089929D01*
X0164962Y0089823D01*
X0164895Y0089718D01*
X0164825Y0089616D01*
X0164752Y0089516D01*
X0164675Y0089418D01*
X0164596Y0089322D01*
X0164514Y0089229D01*
X0164429Y0089139D01*
X0164341Y0089051D01*
X0164251Y0088966D01*
X0164158Y0088884D01*
X0164062Y0088805D01*
X0163964Y0088728D01*
X0163864Y0088655D01*
X0163762Y0088585D01*
X0163657Y0088518D01*
X0163551Y0088454D01*
X0163442Y0088394D01*
X0163332Y0088337D01*
X0163220Y0088283D01*
X0163106Y0088233D01*
X0162991Y0088186D01*
X0162875Y0088143D01*
X0162757Y0088104D01*
X0162638Y0088068D01*
X0162518Y0088036D01*
X0162397Y0088007D01*
X0162276Y0087983D01*
X0162153Y0087962D01*
X0162030Y0087945D01*
X0161907Y0087931D01*
X0161783Y0087922D01*
X0161659Y0087916D01*
X0161535Y0087914D01*
X0161535Y0087913D02*
X0159512Y0087913D01*
X0114425Y0096197D02*
X0114423Y0096212D01*
X0114419Y0096227D01*
X0114412Y0096241D01*
X0114402Y0096253D01*
X0114390Y0096263D01*
X0114376Y0096270D01*
X0114361Y0096274D01*
X0114346Y0096276D01*
X0096669Y0096276D01*
X0096575Y0096274D01*
X0096482Y0096268D01*
X0096388Y0096259D01*
X0096296Y0096245D01*
X0096204Y0096228D01*
X0096112Y0096207D01*
X0096022Y0096182D01*
X0095933Y0096153D01*
X0095845Y0096121D01*
X0095758Y0096085D01*
X0095673Y0096046D01*
X0095590Y0096003D01*
X0095508Y0095956D01*
X0095429Y0095907D01*
X0095351Y0095854D01*
X0095276Y0095798D01*
X0095203Y0095739D01*
X0095133Y0095677D01*
X0095065Y0095612D01*
X0095000Y0095544D01*
X0094938Y0095474D01*
X0094879Y0095401D01*
X0094823Y0095326D01*
X0094770Y0095248D01*
X0094721Y0095169D01*
X0094674Y0095087D01*
X0094631Y0095004D01*
X0094592Y0094919D01*
X0094556Y0094832D01*
X0094524Y0094744D01*
X0094495Y0094655D01*
X0094470Y0094565D01*
X0094449Y0094473D01*
X0094432Y0094381D01*
X0094418Y0094289D01*
X0094409Y0094195D01*
X0094403Y0094102D01*
X0094401Y0094008D01*
X0094402Y0094008D02*
X0094402Y0091921D01*
X0106866Y0083260D02*
X0106900Y0083258D01*
X0106933Y0083253D01*
X0106966Y0083244D01*
X0106997Y0083232D01*
X0107028Y0083217D01*
X0107056Y0083198D01*
X0107082Y0083177D01*
X0107106Y0083153D01*
X0107127Y0083127D01*
X0107146Y0083099D01*
X0107161Y0083068D01*
X0107173Y0083037D01*
X0107182Y0083004D01*
X0107187Y0082971D01*
X0107189Y0082937D01*
X0107189Y0076244D02*
X0107252Y0076244D01*
X0107264Y0076242D01*
X0107276Y0076238D01*
X0107285Y0076230D01*
X0107293Y0076221D01*
X0107297Y0076209D01*
X0107299Y0076197D01*
X0087417Y0074622D02*
X0082102Y0074622D01*
M02*
