%
M48
M72
T01C0.01575
T02C0.02362
T03C0.03200
T04C0.04000
T05C0.12598
%
T01
X82102Y74622
X100606Y74228
X223441Y66748
X302969Y78165
T02
X321472Y97457
X243913Y96669
X178165Y76984
X124622Y118717
X91157Y128953
X62024Y99819
X63598Y43913
X71866Y43520
X99819Y29740
X217929Y29740
X257299Y29740
T03
X232929Y46197
X232929Y56197
X202929Y56197
X202929Y46197
X165606Y46197
X165606Y56197
X135606Y56197
X135606Y46197
X114425Y46197
X114425Y56197
X84425Y56197
X84425Y46197
X84425Y96197
X84425Y106197
X114425Y106197
X114425Y96197
X135606Y96197
X135606Y106197
X165606Y106197
X165606Y96197
X202929Y96197
X202929Y106197
X232929Y106197
X232929Y96197
X281669Y96197
X281669Y106197
X311669Y106197
X311669Y96197
X311669Y56197
X311669Y46197
X281669Y46197
X281669Y56197
T04
X342063Y56276
X342063Y46276
X342063Y66276
X75449Y134189
X65449Y134189
X55449Y134189
X45449Y134189
X45449Y144189
X55449Y144189
X65449Y144189
X75449Y144189
X46551Y115134
X36551Y115134
X36551Y105134
X46551Y105134
X46551Y95134
X36551Y95134
X36551Y85134
X46551Y85134
X46551Y75134
X36551Y75134
X36551Y65134
X46551Y65134
X46551Y55134
X36551Y55134
X36551Y45134
X46551Y45134
T05
X17142Y17142
X17142Y170685
X103756Y170685
X339976Y143126
X339976Y17142
M30
