G75*
%MOIN*%
%OFA0B0*%
%FSLAX25Y25*%
%IPPOS*%
%LPD*%
%AMOC8*
5,1,8,0,0,1.08239X$1,22.5*
%
%ADD10C,0.00591*%
%ADD11C,0.04800*%
%ADD12C,0.06000*%
%ADD13R,0.04331X0.03937*%
%ADD14R,0.03937X0.04331*%
%ADD15OC8,0.06000*%
%ADD16R,0.10000X0.20000*%
%ADD17R,0.03150X0.03150*%
%ADD18C,0.26772*%
D10*
X0001394Y0001394D02*
X0001394Y0186433D01*
X0032890Y0186433D01*
X0032890Y0174622D01*
X0088008Y0174622D01*
X0088008Y0186433D01*
X0119504Y0186433D01*
X0119504Y0158874D01*
X0355724Y0158874D01*
X0355724Y0001394D01*
X0001394Y0001394D01*
D11*
X0082025Y0046197D02*
X0086825Y0046197D01*
X0086825Y0056197D02*
X0082025Y0056197D01*
X0112025Y0056197D02*
X0116825Y0056197D01*
X0116825Y0046197D02*
X0112025Y0046197D01*
X0133206Y0046197D02*
X0138006Y0046197D01*
X0138006Y0056197D02*
X0133206Y0056197D01*
X0163206Y0056197D02*
X0168006Y0056197D01*
X0168006Y0046197D02*
X0163206Y0046197D01*
X0200529Y0046197D02*
X0205329Y0046197D01*
X0205329Y0056197D02*
X0200529Y0056197D01*
X0230529Y0056197D02*
X0235329Y0056197D01*
X0235329Y0046197D02*
X0230529Y0046197D01*
X0279269Y0046197D02*
X0284069Y0046197D01*
X0284069Y0056197D02*
X0279269Y0056197D01*
X0309269Y0056197D02*
X0314069Y0056197D01*
X0314069Y0046197D02*
X0309269Y0046197D01*
X0309269Y0096197D02*
X0314069Y0096197D01*
X0314069Y0106197D02*
X0309269Y0106197D01*
X0284069Y0106197D02*
X0279269Y0106197D01*
X0279269Y0096197D02*
X0284069Y0096197D01*
X0235329Y0096197D02*
X0230529Y0096197D01*
X0230529Y0106197D02*
X0235329Y0106197D01*
X0205329Y0106197D02*
X0200529Y0106197D01*
X0200529Y0096197D02*
X0205329Y0096197D01*
X0168006Y0096197D02*
X0163206Y0096197D01*
X0163206Y0106197D02*
X0168006Y0106197D01*
X0138006Y0106197D02*
X0133206Y0106197D01*
X0133206Y0096197D02*
X0138006Y0096197D01*
X0116825Y0096197D02*
X0112025Y0096197D01*
X0112025Y0106197D02*
X0116825Y0106197D01*
X0086825Y0106197D02*
X0082025Y0106197D01*
X0082025Y0096197D02*
X0086825Y0096197D01*
D12*
X0339063Y0066276D02*
X0345063Y0066276D01*
X0345063Y0056276D02*
X0339063Y0056276D01*
X0339063Y0046276D02*
X0345063Y0046276D01*
D13*
X0321472Y0083874D03*
X0321472Y0090567D03*
X0243913Y0090173D03*
X0243913Y0083480D03*
X0124622Y0105134D03*
X0124622Y0111827D03*
X0091157Y0135449D03*
X0091157Y0142142D03*
D14*
X0074819Y0099819D03*
X0068126Y0099819D03*
X0071866Y0056315D03*
X0071866Y0049622D03*
X0063598Y0049622D03*
X0063598Y0056315D03*
X0183874Y0076984D03*
X0190567Y0076984D03*
D15*
X0075449Y0134189D03*
X0065449Y0134189D03*
X0055449Y0134189D03*
X0045449Y0134189D03*
X0045449Y0144189D03*
X0055449Y0144189D03*
X0065449Y0144189D03*
X0075449Y0144189D03*
X0046551Y0115134D03*
X0036551Y0115134D03*
X0036551Y0105134D03*
X0046551Y0105134D03*
X0046551Y0095134D03*
X0036551Y0095134D03*
X0036551Y0085134D03*
X0046551Y0085134D03*
X0046551Y0075134D03*
X0036551Y0075134D03*
X0036551Y0065134D03*
X0046551Y0065134D03*
X0046551Y0055134D03*
X0036551Y0055134D03*
X0036551Y0045134D03*
X0046551Y0045134D03*
D16*
X0060449Y0013992D03*
X0099819Y0013992D03*
X0178559Y0013992D03*
X0217929Y0013992D03*
X0257299Y0013992D03*
X0296669Y0013992D03*
D17*
X0321472Y0071669D03*
X0321472Y0077575D03*
X0243913Y0077575D03*
X0243913Y0071669D03*
X0124622Y0091748D03*
X0124622Y0097654D03*
X0074819Y0092732D03*
X0068913Y0092732D03*
D18*
X0017142Y0017142D03*
X0017142Y0170685D03*
X0103756Y0170685D03*
X0339976Y0143126D03*
X0339976Y0017142D03*
M02*
