G75*
%MOIN*%
%OFA0B0*%
%FSLAX25Y25*%
%IPPOS*%
%LPD*%
%AMOC8*
5,1,8,0,0,1.08239X$1,22.5*
%
%ADD10C,0.00591*%
%ADD11C,0.00400*%
D10*
X0001394Y0001394D02*
X0001394Y0186433D01*
X0032890Y0186433D01*
X0032890Y0174622D01*
X0088008Y0174622D01*
X0088008Y0186433D01*
X0119504Y0186433D01*
X0119504Y0158874D01*
X0355724Y0158874D01*
X0355724Y0001394D01*
X0001394Y0001394D01*
D11*
X0104495Y0062360D02*
X0108035Y0062360D01*
X0108035Y0064130D01*
X0107445Y0064720D01*
X0106265Y0064720D01*
X0105675Y0064130D01*
X0105675Y0062360D01*
X0105675Y0063540D02*
X0104495Y0064720D01*
X0104495Y0065985D02*
X0106855Y0068345D01*
X0107445Y0068345D01*
X0108035Y0067755D01*
X0108035Y0066575D01*
X0107445Y0065985D01*
X0104495Y0065985D02*
X0104495Y0068345D01*
X0104495Y0069610D02*
X0105085Y0069610D01*
X0107445Y0071970D01*
X0108035Y0071970D01*
X0108035Y0069610D01*
X0113771Y0069695D02*
X0114361Y0069105D01*
X0113771Y0069695D02*
X0113771Y0070875D01*
X0114361Y0071465D01*
X0114951Y0071465D01*
X0115541Y0070875D01*
X0115541Y0070285D01*
X0115541Y0070875D02*
X0116131Y0071465D01*
X0116721Y0071465D01*
X0117311Y0070875D01*
X0117311Y0069695D01*
X0116721Y0069105D01*
X0116721Y0067840D02*
X0117311Y0067250D01*
X0117311Y0066070D01*
X0116721Y0065480D01*
X0114361Y0065480D01*
X0113771Y0066070D01*
X0113771Y0067250D01*
X0114361Y0067840D01*
X0122102Y0067361D02*
X0122102Y0066181D01*
X0122692Y0065591D01*
X0122102Y0064326D02*
X0123282Y0063146D01*
X0123282Y0063736D02*
X0123282Y0061966D01*
X0122102Y0061966D02*
X0125642Y0061966D01*
X0125642Y0063736D01*
X0125052Y0064326D01*
X0123872Y0064326D01*
X0123282Y0063736D01*
X0125052Y0065591D02*
X0125642Y0066181D01*
X0125642Y0067361D01*
X0125052Y0067951D01*
X0124462Y0067951D01*
X0123872Y0067361D01*
X0123282Y0067951D01*
X0122692Y0067951D01*
X0122102Y0067361D01*
X0123872Y0067361D02*
X0123872Y0066771D01*
X0122692Y0069217D02*
X0125052Y0069217D01*
X0125642Y0069807D01*
X0125642Y0070987D01*
X0125052Y0071577D01*
X0122692Y0069217D01*
X0122102Y0069807D01*
X0122102Y0070987D01*
X0122692Y0071577D01*
X0125052Y0071577D01*
X0133060Y0079093D02*
X0133650Y0078503D01*
X0134830Y0078503D01*
X0135420Y0079093D01*
X0136685Y0078503D02*
X0139045Y0078503D01*
X0136685Y0080863D01*
X0136685Y0081453D01*
X0137275Y0082043D01*
X0138455Y0082043D01*
X0139045Y0081453D01*
X0140310Y0081453D02*
X0140310Y0080273D01*
X0140900Y0079683D01*
X0142670Y0079683D01*
X0142670Y0078503D02*
X0142670Y0082043D01*
X0140900Y0082043D01*
X0140310Y0081453D01*
X0141490Y0079683D02*
X0140310Y0078503D01*
X0135420Y0081453D02*
X0134830Y0082043D01*
X0133650Y0082043D01*
X0133060Y0081453D01*
X0133060Y0080863D01*
X0133650Y0080273D01*
X0133060Y0079683D01*
X0133060Y0079093D01*
X0133650Y0080273D02*
X0134240Y0080273D01*
X0159731Y0079430D02*
X0160912Y0078250D01*
X0160321Y0077070D02*
X0162682Y0077070D01*
X0163272Y0077660D01*
X0163272Y0078840D01*
X0162682Y0079430D01*
X0160321Y0079430D01*
X0159731Y0078840D01*
X0159731Y0077660D01*
X0160321Y0077070D01*
X0160321Y0080695D02*
X0159731Y0081285D01*
X0159731Y0082465D01*
X0160321Y0083055D01*
X0160912Y0083055D01*
X0161502Y0082465D01*
X0161502Y0080695D01*
X0160321Y0080695D01*
X0161502Y0080695D02*
X0162682Y0081875D01*
X0163272Y0083055D01*
X0213338Y0100432D02*
X0215698Y0100432D01*
X0214518Y0100432D02*
X0214518Y0103972D01*
X0215698Y0102792D01*
X0216964Y0103382D02*
X0216964Y0101022D01*
X0217554Y0100432D01*
X0218734Y0100432D01*
X0219324Y0101022D01*
X0219324Y0103382D01*
X0218734Y0103972D01*
X0217554Y0103972D01*
X0216964Y0103382D01*
X0218144Y0101612D02*
X0216964Y0100432D01*
X0235708Y0085506D02*
X0235708Y0083146D01*
X0235708Y0084326D02*
X0239248Y0084326D01*
X0238068Y0083146D01*
X0238658Y0081881D02*
X0237478Y0081881D01*
X0236888Y0081291D01*
X0236888Y0079521D01*
X0236888Y0080701D02*
X0235708Y0081881D01*
X0235708Y0079521D02*
X0239248Y0079521D01*
X0239248Y0081291D01*
X0238658Y0081881D01*
X0221410Y0067280D02*
X0220820Y0067870D01*
X0219640Y0067870D01*
X0219050Y0067280D01*
X0217785Y0067280D02*
X0217195Y0067870D01*
X0216015Y0067870D01*
X0215425Y0067280D01*
X0215425Y0066690D01*
X0216015Y0066100D01*
X0217195Y0066100D01*
X0217785Y0066690D01*
X0217785Y0067280D01*
X0217195Y0066100D02*
X0217785Y0065510D01*
X0217785Y0064920D01*
X0217195Y0064330D01*
X0216015Y0064330D01*
X0215425Y0064920D01*
X0215425Y0065510D01*
X0216015Y0066100D01*
X0219050Y0064920D02*
X0219640Y0064330D01*
X0220820Y0064330D01*
X0221410Y0064920D01*
X0221410Y0067280D01*
X0229093Y0065824D02*
X0231453Y0065824D01*
X0229683Y0067594D01*
X0229683Y0064054D01*
X0232718Y0064644D02*
X0233308Y0064054D01*
X0234488Y0064054D01*
X0235078Y0064644D01*
X0236343Y0064054D02*
X0237523Y0065234D01*
X0236933Y0065234D02*
X0238703Y0065234D01*
X0238703Y0064054D02*
X0238703Y0067594D01*
X0236933Y0067594D01*
X0236343Y0067004D01*
X0236343Y0065824D01*
X0236933Y0065234D01*
X0235078Y0067004D02*
X0234488Y0067594D01*
X0233308Y0067594D01*
X0232718Y0067004D01*
X0232718Y0066414D01*
X0233308Y0065824D01*
X0232718Y0065234D01*
X0232718Y0064644D01*
X0233308Y0065824D02*
X0233898Y0065824D01*
X0296134Y0063738D02*
X0298494Y0063738D01*
X0296724Y0065508D01*
X0296724Y0061968D01*
X0299759Y0062558D02*
X0300349Y0061968D01*
X0301529Y0061968D01*
X0302119Y0062558D01*
X0302119Y0064918D01*
X0301529Y0065508D01*
X0300349Y0065508D01*
X0299759Y0064918D01*
X0309408Y0063068D02*
X0311768Y0063068D01*
X0309998Y0064838D01*
X0309998Y0061298D01*
X0313033Y0061298D02*
X0314213Y0062478D01*
X0313623Y0062478D02*
X0315393Y0062478D01*
X0315393Y0061298D02*
X0315393Y0064838D01*
X0313623Y0064838D01*
X0313033Y0064248D01*
X0313033Y0063068D01*
X0313623Y0062478D01*
X0315235Y0077946D02*
X0318775Y0077946D01*
X0318775Y0079716D01*
X0318185Y0080306D01*
X0317005Y0080306D01*
X0316415Y0079716D01*
X0316415Y0077946D01*
X0316415Y0079126D02*
X0315235Y0080306D01*
X0315825Y0081571D02*
X0315235Y0082161D01*
X0315235Y0083341D01*
X0315825Y0083931D01*
X0316415Y0083931D01*
X0317005Y0083341D01*
X0317005Y0082751D01*
X0317005Y0083341D02*
X0317595Y0083931D01*
X0318185Y0083931D01*
X0318775Y0083341D01*
X0318775Y0082161D01*
X0318185Y0081571D01*
X0298851Y0099447D02*
X0298261Y0098857D01*
X0297081Y0098857D01*
X0296491Y0099447D01*
X0296491Y0101808D01*
X0297081Y0102398D01*
X0298261Y0102398D01*
X0298851Y0101808D01*
X0298851Y0099447D01*
X0297671Y0100037D02*
X0296491Y0098857D01*
X0295226Y0098857D02*
X0292866Y0101217D01*
X0292866Y0101808D01*
X0293456Y0102398D01*
X0294636Y0102398D01*
X0295226Y0101808D01*
X0295226Y0098857D02*
X0292866Y0098857D01*
X0104851Y0094697D02*
X0104851Y0092337D01*
X0104261Y0091747D01*
X0103081Y0091747D01*
X0102491Y0092337D01*
X0102491Y0094697D01*
X0103081Y0095287D01*
X0104261Y0095287D01*
X0104851Y0094697D01*
X0103671Y0092927D02*
X0102491Y0091747D01*
X0101226Y0091747D02*
X0101226Y0092337D01*
X0098866Y0094697D01*
X0098866Y0095287D01*
X0101226Y0095287D01*
X0094639Y0069445D02*
X0092869Y0069445D01*
X0092279Y0068855D01*
X0092279Y0067675D01*
X0092869Y0067085D01*
X0094639Y0067085D01*
X0094639Y0065905D02*
X0094639Y0069445D01*
X0093459Y0067085D02*
X0092279Y0065905D01*
X0091013Y0065905D02*
X0088653Y0068265D01*
X0088653Y0068855D01*
X0089243Y0069445D01*
X0090423Y0069445D01*
X0091013Y0068855D01*
X0091013Y0065905D02*
X0088653Y0065905D01*
X0087388Y0066495D02*
X0086798Y0065905D01*
X0085618Y0065905D01*
X0085028Y0066495D01*
X0085028Y0068855D01*
X0085618Y0069445D01*
X0086798Y0069445D01*
X0087388Y0068855D01*
X0087388Y0068265D01*
X0086798Y0067675D01*
X0085028Y0067675D01*
M02*
