G75*
%MOIN*%
%OFA0B0*%
%FSLAX25Y25*%
%IPPOS*%
%LPD*%
%AMOC8*
5,1,8,0,0,1.08239X$1,22.5*
%
%ADD10C,0.00591*%
%ADD11R,0.05512X0.03937*%
%ADD12R,0.03937X0.04331*%
%ADD13R,0.03937X0.05512*%
%ADD14R,0.04331X0.03937*%
D10*
X0001394Y0001394D02*
X0001394Y0186433D01*
X0032890Y0186433D01*
X0032890Y0174622D01*
X0088008Y0174622D01*
X0088008Y0186433D01*
X0119504Y0186433D01*
X0119504Y0158874D01*
X0355724Y0158874D01*
X0355724Y0001394D01*
X0001394Y0001394D01*
D11*
X0150850Y0084173D03*
X0159512Y0087913D03*
X0150850Y0091654D03*
D12*
X0141354Y0087220D03*
X0134661Y0087220D03*
X0115402Y0082937D03*
X0115402Y0076244D03*
X0094110Y0074622D03*
X0087417Y0074622D03*
X0229543Y0073047D03*
X0236236Y0073047D03*
X0309071Y0070685D03*
X0315764Y0070685D03*
D13*
X0301197Y0085252D03*
X0293717Y0085252D03*
X0297457Y0093913D03*
X0221276Y0086827D03*
X0213795Y0086827D03*
X0217535Y0095488D03*
X0098142Y0083260D03*
X0090661Y0083260D03*
X0094402Y0091921D03*
D14*
X0107189Y0082937D03*
X0107189Y0076244D03*
X0124008Y0076244D03*
X0124008Y0082937D03*
X0216551Y0073047D03*
X0223244Y0073047D03*
X0230528Y0080331D03*
X0230528Y0087024D03*
X0296472Y0070685D03*
X0303165Y0070685D03*
X0310449Y0078362D03*
X0310449Y0085055D03*
M02*
