G75*
%MOIN*%
%OFA0B0*%
%FSLAX25Y25*%
%IPPOS*%
%LPD*%
%AMOC8*
5,1,8,0,0,1.08239X$1,22.5*
%
%ADD10C,0.00591*%
%ADD11C,0.04800*%
%ADD12C,0.06000*%
%ADD13R,0.05512X0.03937*%
%ADD14R,0.03937X0.04331*%
%ADD15R,0.03937X0.05512*%
%ADD16R,0.04331X0.03937*%
%ADD17OC8,0.06000*%
%ADD18C,0.26772*%
D10*
X0001394Y0001394D02*
X0001394Y0186433D01*
X0032890Y0186433D01*
X0032890Y0174622D01*
X0088008Y0174622D01*
X0088008Y0186433D01*
X0119504Y0186433D01*
X0119504Y0158874D01*
X0355724Y0158874D01*
X0355724Y0001394D01*
X0001394Y0001394D01*
D11*
X0082025Y0046197D02*
X0086825Y0046197D01*
X0086825Y0056197D02*
X0082025Y0056197D01*
X0112025Y0056197D02*
X0116825Y0056197D01*
X0116825Y0046197D02*
X0112025Y0046197D01*
X0133206Y0046197D02*
X0138006Y0046197D01*
X0138006Y0056197D02*
X0133206Y0056197D01*
X0163206Y0056197D02*
X0168006Y0056197D01*
X0168006Y0046197D02*
X0163206Y0046197D01*
X0200529Y0046197D02*
X0205329Y0046197D01*
X0205329Y0056197D02*
X0200529Y0056197D01*
X0230529Y0056197D02*
X0235329Y0056197D01*
X0235329Y0046197D02*
X0230529Y0046197D01*
X0279269Y0046197D02*
X0284069Y0046197D01*
X0284069Y0056197D02*
X0279269Y0056197D01*
X0309269Y0056197D02*
X0314069Y0056197D01*
X0314069Y0046197D02*
X0309269Y0046197D01*
X0309269Y0096197D02*
X0314069Y0096197D01*
X0314069Y0106197D02*
X0309269Y0106197D01*
X0284069Y0106197D02*
X0279269Y0106197D01*
X0279269Y0096197D02*
X0284069Y0096197D01*
X0235329Y0096197D02*
X0230529Y0096197D01*
X0230529Y0106197D02*
X0235329Y0106197D01*
X0205329Y0106197D02*
X0200529Y0106197D01*
X0200529Y0096197D02*
X0205329Y0096197D01*
X0168006Y0096197D02*
X0163206Y0096197D01*
X0163206Y0106197D02*
X0168006Y0106197D01*
X0138006Y0106197D02*
X0133206Y0106197D01*
X0133206Y0096197D02*
X0138006Y0096197D01*
X0116825Y0096197D02*
X0112025Y0096197D01*
X0112025Y0106197D02*
X0116825Y0106197D01*
X0086825Y0106197D02*
X0082025Y0106197D01*
X0082025Y0096197D02*
X0086825Y0096197D01*
D12*
X0339063Y0066276D02*
X0345063Y0066276D01*
X0345063Y0056276D02*
X0339063Y0056276D01*
X0339063Y0046276D02*
X0345063Y0046276D01*
D13*
X0159512Y0087913D03*
X0150850Y0084173D03*
X0150850Y0091654D03*
D14*
X0141354Y0087220D03*
X0134661Y0087220D03*
X0115402Y0082937D03*
X0115402Y0076244D03*
X0094110Y0074622D03*
X0087417Y0074622D03*
X0229543Y0073047D03*
X0236236Y0073047D03*
X0309071Y0070685D03*
X0315764Y0070685D03*
D15*
X0301197Y0085252D03*
X0293717Y0085252D03*
X0297457Y0093913D03*
X0221276Y0086827D03*
X0213795Y0086827D03*
X0217535Y0095488D03*
X0098142Y0083260D03*
X0090661Y0083260D03*
X0094402Y0091921D03*
D16*
X0107189Y0082937D03*
X0107189Y0076244D03*
X0124008Y0076244D03*
X0124008Y0082937D03*
X0216551Y0073047D03*
X0223244Y0073047D03*
X0230528Y0080331D03*
X0230528Y0087024D03*
X0296472Y0070685D03*
X0303165Y0070685D03*
X0310449Y0078362D03*
X0310449Y0085055D03*
D17*
X0075449Y0134189D03*
X0065449Y0134189D03*
X0055449Y0134189D03*
X0045449Y0134189D03*
X0045449Y0144189D03*
X0055449Y0144189D03*
X0065449Y0144189D03*
X0075449Y0144189D03*
X0046551Y0115134D03*
X0036551Y0115134D03*
X0036551Y0105134D03*
X0046551Y0105134D03*
X0046551Y0095134D03*
X0036551Y0095134D03*
X0036551Y0085134D03*
X0046551Y0085134D03*
X0046551Y0075134D03*
X0036551Y0075134D03*
X0036551Y0065134D03*
X0046551Y0065134D03*
X0046551Y0055134D03*
X0036551Y0055134D03*
X0036551Y0045134D03*
X0046551Y0045134D03*
D18*
X0017142Y0017142D03*
X0017142Y0170685D03*
X0103756Y0170685D03*
X0339976Y0143126D03*
X0339976Y0017142D03*
M02*
