G75*
%MOIN*%
%OFA0B0*%
%FSLAX25Y25*%
%IPPOS*%
%LPD*%
%AMOC8*
5,1,8,0,0,1.08239X$1,22.5*
%
%ADD10C,0.00591*%
%ADD11C,0.00400*%
%ADD12C,0.00600*%
%ADD13C,0.00500*%
%ADD14R,0.03200X0.02600*%
%ADD15C,0.02600*%
%ADD16R,0.02600X0.03000*%
%ADD17R,0.02600X0.02600*%
%ADD18R,0.02600X0.03200*%
%ADD19R,0.00984X0.00984*%
D10*
X0001394Y0001394D02*
X0001394Y0186433D01*
X0032890Y0186433D01*
X0032890Y0174622D01*
X0088008Y0174622D01*
X0088008Y0186433D01*
X0119504Y0186433D01*
X0119504Y0158874D01*
X0355724Y0158874D01*
X0355724Y0001394D01*
X0001394Y0001394D01*
D11*
X0068917Y0007499D02*
X0070687Y0007499D01*
X0071277Y0008089D01*
X0071277Y0009269D01*
X0070687Y0009859D01*
X0068917Y0009859D01*
X0068917Y0011039D02*
X0068917Y0007499D01*
X0072542Y0008089D02*
X0072542Y0009269D01*
X0073132Y0009859D01*
X0074312Y0009859D01*
X0074902Y0009269D01*
X0074902Y0008679D01*
X0072542Y0008679D01*
X0072542Y0008089D02*
X0073132Y0007499D01*
X0074312Y0007499D01*
X0076167Y0007499D02*
X0076167Y0009859D01*
X0076167Y0008679D02*
X0077347Y0009859D01*
X0077937Y0009859D01*
X0079188Y0009269D02*
X0079188Y0008089D01*
X0079778Y0007499D01*
X0081548Y0007499D01*
X0081548Y0006909D02*
X0081548Y0009859D01*
X0079778Y0009859D01*
X0079188Y0009269D01*
X0080368Y0006319D02*
X0080958Y0006319D01*
X0081548Y0006909D01*
X0082813Y0008089D02*
X0082813Y0009269D01*
X0083403Y0009859D01*
X0084583Y0009859D01*
X0085173Y0009269D01*
X0085173Y0008679D01*
X0082813Y0008679D01*
X0082813Y0008089D02*
X0083403Y0007499D01*
X0084583Y0007499D01*
X0086438Y0007499D02*
X0086438Y0009859D01*
X0086438Y0008679D02*
X0087618Y0009859D01*
X0088208Y0009859D01*
X0079735Y0015175D02*
X0077375Y0015175D01*
X0076138Y0013405D02*
X0074958Y0013405D01*
X0075548Y0013405D02*
X0075548Y0016945D01*
X0074958Y0016945D01*
X0073693Y0015765D02*
X0071333Y0015765D01*
X0070097Y0015765D02*
X0068917Y0015765D01*
X0069507Y0016355D02*
X0069507Y0013995D01*
X0070097Y0013405D01*
X0071333Y0013405D02*
X0073693Y0013405D01*
X0073693Y0015765D02*
X0071333Y0013405D01*
X0070687Y0019310D02*
X0069507Y0019310D01*
X0068917Y0019900D01*
X0069507Y0021080D02*
X0070687Y0021080D01*
X0071277Y0020490D01*
X0071277Y0019900D01*
X0070687Y0019310D01*
X0072542Y0019900D02*
X0072542Y0021080D01*
X0073132Y0021670D01*
X0074902Y0021670D01*
X0076167Y0021080D02*
X0076757Y0021670D01*
X0077937Y0021670D01*
X0078527Y0021080D01*
X0078527Y0019310D01*
X0079792Y0019310D02*
X0079792Y0021670D01*
X0081562Y0021670D01*
X0082152Y0021080D01*
X0082152Y0019310D01*
X0083417Y0019900D02*
X0083417Y0021080D01*
X0084007Y0021670D01*
X0085187Y0021670D01*
X0085777Y0021080D01*
X0085777Y0020490D01*
X0083417Y0020490D01*
X0083417Y0019900D02*
X0084007Y0019310D01*
X0085187Y0019310D01*
X0087042Y0019310D02*
X0088222Y0019310D01*
X0087632Y0019310D02*
X0087632Y0021670D01*
X0087042Y0021670D01*
X0087632Y0022850D02*
X0087632Y0023440D01*
X0089459Y0021080D02*
X0091819Y0021080D01*
X0076167Y0022850D02*
X0076167Y0019310D01*
X0074902Y0019310D02*
X0073132Y0019310D01*
X0072542Y0019900D01*
X0071277Y0022260D02*
X0070687Y0022850D01*
X0069507Y0022850D01*
X0068917Y0022260D01*
X0068917Y0021670D01*
X0069507Y0021080D01*
X0080965Y0033062D02*
X0082145Y0033062D01*
X0082735Y0033652D01*
X0082735Y0036602D01*
X0084000Y0034832D02*
X0086360Y0034832D01*
X0085770Y0033062D02*
X0085770Y0036602D01*
X0084000Y0034832D01*
X0080965Y0033062D02*
X0080375Y0033652D01*
X0080375Y0036602D01*
X0073576Y0059442D02*
X0071216Y0059442D01*
X0070626Y0060032D01*
X0070626Y0061212D01*
X0071216Y0061802D01*
X0071216Y0063067D02*
X0070626Y0063657D01*
X0070626Y0064837D01*
X0071216Y0065427D01*
X0071806Y0065427D01*
X0074166Y0063067D01*
X0074166Y0065427D01*
X0073576Y0061802D02*
X0074166Y0061212D01*
X0074166Y0060032D01*
X0073576Y0059442D01*
X0066292Y0060426D02*
X0065702Y0059836D01*
X0063342Y0059836D01*
X0062752Y0060426D01*
X0062752Y0061606D01*
X0063342Y0062196D01*
X0063932Y0063461D02*
X0062752Y0064641D01*
X0066292Y0064641D01*
X0066292Y0063461D02*
X0066292Y0065821D01*
X0065702Y0062196D02*
X0066292Y0061606D01*
X0066292Y0060426D01*
X0065491Y0085590D02*
X0067851Y0085590D01*
X0069116Y0085590D02*
X0071476Y0085590D01*
X0072742Y0085590D02*
X0074512Y0085590D01*
X0075102Y0086180D01*
X0075102Y0088540D01*
X0074512Y0089130D01*
X0072742Y0089130D01*
X0072742Y0085590D01*
X0070296Y0087360D02*
X0069116Y0087360D01*
X0069116Y0089130D02*
X0069116Y0085590D01*
X0065491Y0085590D02*
X0065491Y0089130D01*
X0069116Y0089130D02*
X0071476Y0089130D01*
X0076367Y0087360D02*
X0078727Y0087360D01*
X0078137Y0085590D02*
X0078137Y0089130D01*
X0076367Y0087360D01*
X0072798Y0104094D02*
X0072798Y0104684D01*
X0075158Y0107044D01*
X0075158Y0107634D01*
X0072798Y0107634D01*
X0071532Y0107044D02*
X0071532Y0105864D01*
X0070942Y0105274D01*
X0069172Y0105274D01*
X0069172Y0104094D02*
X0069172Y0107634D01*
X0070942Y0107634D01*
X0071532Y0107044D01*
X0070352Y0105274D02*
X0071532Y0104094D01*
X0055288Y0106423D02*
X0054698Y0105833D01*
X0055288Y0106423D02*
X0055288Y0107603D01*
X0054698Y0108193D01*
X0054108Y0108193D01*
X0053518Y0107603D01*
X0053518Y0106423D01*
X0052928Y0105833D01*
X0052338Y0105833D01*
X0051748Y0106423D01*
X0051748Y0107603D01*
X0052338Y0108193D01*
X0051748Y0109458D02*
X0054108Y0109458D01*
X0055288Y0110638D01*
X0054108Y0111818D01*
X0051748Y0111818D01*
X0052928Y0113084D02*
X0051748Y0114264D01*
X0055288Y0114264D01*
X0055288Y0113084D02*
X0055288Y0115444D01*
X0053518Y0116709D02*
X0053518Y0119069D01*
X0051748Y0118479D02*
X0053518Y0116709D01*
X0055288Y0118479D02*
X0051748Y0118479D01*
X0036864Y0136350D02*
X0037454Y0136940D01*
X0037454Y0138120D01*
X0036864Y0138710D01*
X0036274Y0138710D01*
X0035684Y0138120D01*
X0035684Y0136940D01*
X0035094Y0136350D01*
X0034504Y0136350D01*
X0033914Y0136940D01*
X0033914Y0138120D01*
X0034504Y0138710D01*
X0033914Y0139975D02*
X0036274Y0139975D01*
X0037454Y0141155D01*
X0036274Y0142335D01*
X0033914Y0142335D01*
X0035094Y0143600D02*
X0033914Y0144780D01*
X0037454Y0144780D01*
X0037454Y0143600D02*
X0037454Y0145960D01*
X0096335Y0142760D02*
X0096335Y0141580D01*
X0096925Y0140990D01*
X0096925Y0139725D02*
X0096335Y0139135D01*
X0096335Y0137955D01*
X0096925Y0137365D01*
X0096925Y0136099D02*
X0096335Y0135509D01*
X0096335Y0133739D01*
X0099875Y0133739D01*
X0098695Y0133739D02*
X0098695Y0135509D01*
X0098105Y0136099D01*
X0096925Y0136099D01*
X0098695Y0134919D02*
X0099875Y0136099D01*
X0099875Y0137365D02*
X0097515Y0139725D01*
X0096925Y0139725D01*
X0099875Y0139725D02*
X0099875Y0137365D01*
X0099875Y0140990D02*
X0097515Y0143350D01*
X0096925Y0143350D01*
X0096335Y0142760D01*
X0099875Y0143350D02*
X0099875Y0140990D01*
X0121928Y0120232D02*
X0123698Y0120232D01*
X0124288Y0119642D01*
X0124288Y0118462D01*
X0123698Y0117872D01*
X0121928Y0117872D01*
X0121928Y0116692D02*
X0121928Y0120232D01*
X0125553Y0118462D02*
X0127323Y0118462D01*
X0127913Y0117872D01*
X0127913Y0117282D01*
X0127323Y0116692D01*
X0126143Y0116692D01*
X0125553Y0117282D01*
X0125553Y0118462D01*
X0126733Y0119642D01*
X0127913Y0120232D01*
X0124288Y0116692D02*
X0123108Y0117872D01*
X0122909Y0088569D02*
X0123499Y0088569D01*
X0124089Y0087979D01*
X0124679Y0088569D01*
X0125269Y0088569D01*
X0125859Y0087979D01*
X0125859Y0086799D01*
X0125269Y0086209D01*
X0125269Y0084944D02*
X0122909Y0084944D01*
X0122319Y0084354D01*
X0122319Y0082584D01*
X0125859Y0082584D01*
X0125859Y0084354D01*
X0125269Y0084944D01*
X0122909Y0086209D02*
X0122319Y0086799D01*
X0122319Y0087979D01*
X0122909Y0088569D01*
X0124089Y0087979D02*
X0124089Y0087389D01*
X0122319Y0081319D02*
X0122319Y0078959D01*
X0125859Y0078959D01*
X0125859Y0081319D01*
X0124089Y0080139D02*
X0124089Y0078959D01*
X0125859Y0077694D02*
X0125859Y0075334D01*
X0122319Y0075334D01*
X0182558Y0082834D02*
X0182558Y0086374D01*
X0184328Y0086374D01*
X0184918Y0085784D01*
X0184918Y0084604D01*
X0184328Y0084014D01*
X0182558Y0084014D01*
X0183738Y0084014D02*
X0184918Y0082834D01*
X0186183Y0082834D02*
X0188543Y0085194D01*
X0188543Y0085784D01*
X0187953Y0086374D01*
X0186773Y0086374D01*
X0186183Y0085784D01*
X0186183Y0082834D02*
X0188543Y0082834D01*
X0189809Y0083424D02*
X0189809Y0084604D01*
X0191579Y0084604D01*
X0192169Y0084014D01*
X0192169Y0083424D01*
X0191579Y0082834D01*
X0190399Y0082834D01*
X0189809Y0083424D01*
X0189809Y0084604D02*
X0190989Y0085784D01*
X0192169Y0086374D01*
X0248579Y0085228D02*
X0248579Y0083458D01*
X0252119Y0083458D01*
X0250939Y0083458D02*
X0250939Y0085228D01*
X0250349Y0085818D01*
X0249169Y0085818D01*
X0248579Y0085228D01*
X0249169Y0087083D02*
X0248579Y0087673D01*
X0248579Y0088853D01*
X0249169Y0089443D01*
X0249759Y0089443D01*
X0252119Y0087083D01*
X0252119Y0089443D01*
X0252119Y0085818D02*
X0250939Y0084638D01*
X0251843Y0079120D02*
X0251843Y0076760D01*
X0251843Y0077940D02*
X0248303Y0077940D01*
X0249483Y0076760D01*
X0248893Y0075495D02*
X0248303Y0074905D01*
X0248303Y0073135D01*
X0251843Y0073135D01*
X0251843Y0074905D01*
X0251253Y0075495D01*
X0248893Y0075495D01*
X0248303Y0071870D02*
X0248303Y0069510D01*
X0251843Y0069510D01*
X0251843Y0071870D01*
X0250073Y0070690D02*
X0250073Y0069510D01*
X0251843Y0068245D02*
X0251843Y0065885D01*
X0248303Y0065885D01*
X0277225Y0035815D02*
X0277225Y0032865D01*
X0277815Y0032275D01*
X0278995Y0032275D01*
X0279585Y0032865D01*
X0279585Y0035815D01*
X0280850Y0034635D02*
X0282030Y0035815D01*
X0282030Y0032275D01*
X0280850Y0032275D02*
X0283210Y0032275D01*
X0281758Y0022063D02*
X0281758Y0018523D01*
X0279988Y0018523D01*
X0279398Y0019113D01*
X0279398Y0020293D01*
X0279988Y0020883D01*
X0281758Y0020883D01*
X0283023Y0020293D02*
X0285383Y0020293D01*
X0278133Y0020293D02*
X0278133Y0018523D01*
X0276363Y0018523D01*
X0275773Y0019113D01*
X0276363Y0019703D01*
X0278133Y0019703D01*
X0278133Y0020293D02*
X0277543Y0020883D01*
X0276363Y0020883D01*
X0274508Y0020293D02*
X0274508Y0019703D01*
X0272148Y0019703D01*
X0272148Y0020293D02*
X0272738Y0020883D01*
X0273918Y0020883D01*
X0274508Y0020293D01*
X0273918Y0018523D02*
X0272738Y0018523D01*
X0272148Y0019113D01*
X0272148Y0020293D01*
X0270883Y0020293D02*
X0268523Y0020293D01*
X0268523Y0018523D02*
X0268523Y0022063D01*
X0270883Y0022063D02*
X0270883Y0018523D01*
X0272148Y0016157D02*
X0272148Y0012617D01*
X0270883Y0013207D02*
X0270293Y0012617D01*
X0268523Y0012617D01*
X0268523Y0011437D02*
X0268523Y0014977D01*
X0270293Y0014977D01*
X0270883Y0014387D01*
X0270883Y0013207D01*
X0272148Y0014387D02*
X0272738Y0014977D01*
X0273918Y0014977D01*
X0274508Y0014387D01*
X0274508Y0012617D01*
X0275773Y0013207D02*
X0276363Y0012617D01*
X0277543Y0012617D01*
X0278133Y0013207D01*
X0278133Y0014387D01*
X0277543Y0014977D01*
X0276363Y0014977D01*
X0275773Y0014387D01*
X0275773Y0013207D01*
X0279398Y0012617D02*
X0279398Y0014977D01*
X0281168Y0014977D01*
X0281758Y0014387D01*
X0281758Y0012617D01*
X0283023Y0013207D02*
X0283023Y0014387D01*
X0283613Y0014977D01*
X0284793Y0014977D01*
X0285383Y0014387D01*
X0285383Y0013797D01*
X0283023Y0013797D01*
X0283023Y0013207D02*
X0283613Y0012617D01*
X0284793Y0012617D01*
X0276953Y0009072D02*
X0275773Y0009072D01*
X0276363Y0009662D02*
X0276363Y0007302D01*
X0276953Y0006712D01*
X0274508Y0006712D02*
X0274508Y0009072D01*
X0272148Y0009072D02*
X0272148Y0007302D01*
X0272738Y0006712D01*
X0274508Y0006712D01*
X0270883Y0007302D02*
X0270883Y0009662D01*
X0270293Y0010252D01*
X0269113Y0010252D01*
X0268523Y0009662D01*
X0268523Y0007302D01*
X0269113Y0006712D01*
X0270293Y0006712D01*
X0270883Y0007302D01*
X0204864Y0032669D02*
X0202504Y0032669D01*
X0204864Y0035029D01*
X0204864Y0035619D01*
X0204274Y0036209D01*
X0203094Y0036209D01*
X0202504Y0035619D01*
X0201239Y0036209D02*
X0201239Y0033259D01*
X0200649Y0032669D01*
X0199469Y0032669D01*
X0198879Y0033259D01*
X0198879Y0036209D01*
X0193719Y0019307D02*
X0194899Y0018127D01*
X0194899Y0015767D01*
X0196164Y0015767D02*
X0196164Y0018127D01*
X0196754Y0018127D01*
X0197344Y0017537D01*
X0197934Y0018127D01*
X0198524Y0017537D01*
X0198524Y0015767D01*
X0197344Y0015767D02*
X0197344Y0017537D01*
X0194899Y0017537D02*
X0192539Y0017537D01*
X0192539Y0018127D02*
X0193719Y0019307D01*
X0192539Y0018127D02*
X0192539Y0015767D01*
X0193129Y0013401D02*
X0192539Y0012811D01*
X0192539Y0010451D01*
X0193129Y0009861D01*
X0194309Y0009861D01*
X0194899Y0010451D01*
X0194899Y0012811D01*
X0194309Y0013401D01*
X0193129Y0013401D01*
X0196164Y0012221D02*
X0196164Y0010451D01*
X0196754Y0009861D01*
X0198524Y0009861D01*
X0198524Y0012221D01*
X0199789Y0012221D02*
X0200969Y0012221D01*
X0200379Y0012811D02*
X0200379Y0010451D01*
X0200969Y0009861D01*
X0199789Y0014587D02*
X0199789Y0018127D01*
X0201559Y0018127D01*
X0202149Y0017537D01*
X0202149Y0016357D01*
X0201559Y0015767D01*
X0199789Y0015767D01*
X0137541Y0034046D02*
X0136951Y0033456D01*
X0135771Y0033456D01*
X0135181Y0034046D01*
X0133916Y0034046D02*
X0133916Y0036996D01*
X0135181Y0036406D02*
X0135771Y0036996D01*
X0136951Y0036996D01*
X0137541Y0036406D01*
X0137541Y0035816D01*
X0136951Y0035226D01*
X0137541Y0034636D01*
X0137541Y0034046D01*
X0136951Y0035226D02*
X0136361Y0035226D01*
X0133916Y0034046D02*
X0133326Y0033456D01*
X0132146Y0033456D01*
X0131556Y0034046D01*
X0131556Y0036996D01*
X0177972Y0137420D02*
X0179742Y0137420D01*
X0180332Y0138010D01*
X0179742Y0138600D01*
X0178562Y0138600D01*
X0177972Y0139190D01*
X0178562Y0139780D01*
X0180332Y0139780D01*
X0181597Y0140960D02*
X0182187Y0140960D01*
X0182187Y0137420D01*
X0181597Y0137420D02*
X0182777Y0137420D01*
X0184014Y0138010D02*
X0184014Y0139190D01*
X0184604Y0139780D01*
X0186374Y0139780D01*
X0186374Y0140960D02*
X0186374Y0137420D01*
X0184604Y0137420D01*
X0184014Y0138010D01*
X0191264Y0137420D02*
X0193624Y0139780D01*
X0193624Y0140370D01*
X0193034Y0140960D01*
X0191854Y0140960D01*
X0191264Y0140370D01*
X0191264Y0137420D02*
X0193624Y0137420D01*
X0194889Y0138010D02*
X0197249Y0140370D01*
X0197249Y0138010D01*
X0196659Y0137420D01*
X0195479Y0137420D01*
X0194889Y0138010D01*
X0194889Y0140370D01*
X0195479Y0140960D01*
X0196659Y0140960D01*
X0197249Y0140370D01*
X0198514Y0139780D02*
X0199694Y0140960D01*
X0199694Y0137420D01*
X0198514Y0137420D02*
X0200874Y0137420D01*
X0202139Y0137420D02*
X0202139Y0138010D01*
X0204499Y0140370D01*
X0204499Y0140960D01*
X0202139Y0140960D01*
X0203319Y0143326D02*
X0204499Y0145686D01*
X0205764Y0146276D02*
X0206354Y0146866D01*
X0207534Y0146866D01*
X0208124Y0146276D01*
X0208124Y0145686D01*
X0207534Y0145096D01*
X0208124Y0144506D01*
X0208124Y0143916D01*
X0207534Y0143326D01*
X0206354Y0143326D01*
X0205764Y0143916D01*
X0206944Y0145096D02*
X0207534Y0145096D01*
X0203319Y0143326D02*
X0202139Y0145686D01*
X0201492Y0148051D02*
X0202082Y0148641D01*
X0202082Y0151592D01*
X0200312Y0151592D01*
X0199722Y0151002D01*
X0199722Y0149821D01*
X0200312Y0149231D01*
X0202082Y0149231D01*
X0203348Y0149231D02*
X0205118Y0149231D01*
X0205708Y0149821D01*
X0205118Y0150412D01*
X0203938Y0150412D01*
X0203348Y0151002D01*
X0203938Y0151592D01*
X0205708Y0151592D01*
X0206973Y0151002D02*
X0209333Y0151002D01*
X0201492Y0148051D02*
X0200902Y0148051D01*
X0198457Y0149231D02*
X0198457Y0151002D01*
X0197867Y0151592D01*
X0196097Y0151592D01*
X0196097Y0149231D01*
X0194832Y0149231D02*
X0193062Y0149231D01*
X0192472Y0149821D01*
X0193062Y0150412D01*
X0194832Y0150412D01*
X0194832Y0151002D02*
X0194832Y0149231D01*
X0194832Y0151002D02*
X0194242Y0151592D01*
X0193062Y0151592D01*
X0191207Y0151592D02*
X0191207Y0148641D01*
X0190617Y0148051D01*
X0190027Y0148051D01*
X0189999Y0146866D02*
X0189999Y0143326D01*
X0188229Y0143326D01*
X0187639Y0143916D01*
X0187639Y0145096D01*
X0188229Y0145686D01*
X0189999Y0145686D01*
X0191264Y0145096D02*
X0191854Y0145686D01*
X0193624Y0145686D01*
X0193624Y0146866D02*
X0193624Y0143326D01*
X0191854Y0143326D01*
X0191264Y0143916D01*
X0191264Y0145096D01*
X0194889Y0145686D02*
X0194889Y0143326D01*
X0197249Y0143326D02*
X0197249Y0145096D01*
X0196659Y0145686D01*
X0194889Y0145686D01*
X0191207Y0149231D02*
X0189437Y0149231D01*
X0188847Y0149821D01*
X0188847Y0151002D01*
X0189437Y0151592D01*
X0191207Y0151592D01*
X0187582Y0151592D02*
X0185812Y0151592D01*
X0185222Y0151002D01*
X0185812Y0150412D01*
X0186992Y0150412D01*
X0187582Y0149821D01*
X0186992Y0149231D01*
X0185222Y0149231D01*
X0183957Y0149231D02*
X0183957Y0151592D01*
X0181597Y0151592D02*
X0181597Y0149821D01*
X0182187Y0149231D01*
X0183957Y0149231D01*
X0182187Y0146866D02*
X0181597Y0146866D01*
X0182187Y0146866D02*
X0182187Y0143326D01*
X0181597Y0143326D02*
X0182777Y0143326D01*
X0184014Y0143916D02*
X0184604Y0144506D01*
X0186374Y0144506D01*
X0186374Y0145096D02*
X0186374Y0143326D01*
X0184604Y0143326D01*
X0184014Y0143916D01*
X0184604Y0145686D02*
X0185784Y0145686D01*
X0186374Y0145096D01*
X0180332Y0145096D02*
X0180332Y0143916D01*
X0179742Y0143326D01*
X0177972Y0143326D01*
X0177972Y0146866D01*
X0177972Y0145686D02*
X0179742Y0145686D01*
X0180332Y0145096D01*
X0180332Y0149231D02*
X0180332Y0151592D01*
X0179152Y0152772D01*
X0177972Y0151592D01*
X0177972Y0149231D01*
X0177972Y0151002D02*
X0180332Y0151002D01*
X0279940Y0151789D02*
X0281120Y0151789D01*
X0279940Y0153559D02*
X0279940Y0150019D01*
X0282300Y0150019D01*
X0283565Y0150019D02*
X0283565Y0152379D01*
X0285335Y0152379D01*
X0285925Y0151789D01*
X0285925Y0150019D01*
X0287780Y0150609D02*
X0288370Y0150019D01*
X0287780Y0150609D02*
X0287780Y0152969D01*
X0287190Y0152379D02*
X0288370Y0152379D01*
X0289607Y0152379D02*
X0289607Y0150609D01*
X0290197Y0150019D01*
X0290787Y0150609D01*
X0291377Y0150019D01*
X0291967Y0150609D01*
X0291967Y0152379D01*
X0293232Y0151789D02*
X0293232Y0150609D01*
X0293822Y0150019D01*
X0295002Y0150019D01*
X0295592Y0150609D01*
X0295592Y0151789D01*
X0295002Y0152379D01*
X0293822Y0152379D01*
X0293232Y0151789D01*
X0296857Y0152379D02*
X0296857Y0150019D01*
X0296857Y0151199D02*
X0298037Y0152379D01*
X0298627Y0152379D01*
X0299878Y0151789D02*
X0301058Y0151789D01*
X0300468Y0152969D02*
X0300468Y0150019D01*
X0302295Y0150019D02*
X0302295Y0152379D01*
X0304065Y0152379D01*
X0304655Y0151789D01*
X0304655Y0150019D01*
X0309545Y0150019D02*
X0310725Y0150019D01*
X0310135Y0150019D02*
X0310135Y0152379D01*
X0309545Y0152379D01*
X0310135Y0153559D02*
X0310135Y0154149D01*
X0311962Y0152379D02*
X0313732Y0152379D01*
X0314322Y0151789D01*
X0314322Y0150019D01*
X0311962Y0150019D02*
X0311962Y0152379D01*
X0301058Y0153559D02*
X0300468Y0152969D01*
X0301087Y0146473D02*
X0302857Y0146473D01*
X0303447Y0145883D01*
X0303447Y0144113D01*
X0301087Y0144113D02*
X0301087Y0146473D01*
X0299822Y0146473D02*
X0299822Y0143523D01*
X0299232Y0142933D01*
X0298642Y0142933D01*
X0298052Y0144113D02*
X0299822Y0144113D01*
X0298052Y0144113D02*
X0297462Y0144703D01*
X0297462Y0145883D01*
X0298052Y0146473D01*
X0299822Y0146473D01*
X0296197Y0146473D02*
X0296197Y0143523D01*
X0295607Y0142933D01*
X0295017Y0142933D01*
X0294427Y0144113D02*
X0296197Y0144113D01*
X0294427Y0144113D02*
X0293837Y0144703D01*
X0293837Y0145883D01*
X0294427Y0146473D01*
X0296197Y0146473D01*
X0292571Y0145883D02*
X0292571Y0144113D01*
X0292571Y0145883D02*
X0291981Y0146473D01*
X0290211Y0146473D01*
X0290211Y0144113D01*
X0288946Y0144113D02*
X0288946Y0145883D01*
X0288356Y0146473D01*
X0287176Y0146473D01*
X0287176Y0145293D02*
X0288946Y0145293D01*
X0288946Y0144113D02*
X0287176Y0144113D01*
X0286586Y0144703D01*
X0287176Y0145293D01*
X0285335Y0146473D02*
X0284745Y0146473D01*
X0283565Y0145293D01*
X0283565Y0144113D02*
X0283565Y0146473D01*
X0282300Y0147653D02*
X0279940Y0147653D01*
X0279940Y0144113D01*
X0279940Y0145883D02*
X0281120Y0145883D01*
X0282300Y0153559D02*
X0279940Y0153559D01*
X0326532Y0089836D02*
X0326532Y0087476D01*
X0328302Y0087476D01*
X0327712Y0088656D01*
X0327712Y0089246D01*
X0328302Y0089836D01*
X0329482Y0089836D01*
X0330072Y0089246D01*
X0330072Y0088066D01*
X0329482Y0087476D01*
X0330072Y0086211D02*
X0328892Y0085031D01*
X0328892Y0085621D02*
X0328892Y0083851D01*
X0330072Y0083851D02*
X0326532Y0083851D01*
X0326532Y0085621D01*
X0327122Y0086211D01*
X0328302Y0086211D01*
X0328892Y0085621D01*
X0327830Y0079908D02*
X0327240Y0079908D01*
X0326650Y0079318D01*
X0326650Y0078138D01*
X0327240Y0077548D01*
X0327240Y0076283D02*
X0326650Y0075693D01*
X0326650Y0073923D01*
X0330190Y0073923D01*
X0330190Y0075693D01*
X0329600Y0076283D01*
X0327240Y0076283D01*
X0330190Y0077548D02*
X0327830Y0079908D01*
X0330190Y0079908D02*
X0330190Y0077548D01*
X0330190Y0072658D02*
X0330190Y0070298D01*
X0326650Y0070298D01*
X0326650Y0072658D01*
X0328420Y0071478D02*
X0328420Y0070298D01*
X0330190Y0069032D02*
X0330190Y0066672D01*
X0326650Y0066672D01*
X0331823Y0051086D02*
X0332413Y0049906D01*
X0333593Y0048726D01*
X0333593Y0050496D01*
X0334183Y0051086D01*
X0334773Y0051086D01*
X0335363Y0050496D01*
X0335363Y0049316D01*
X0334773Y0048726D01*
X0333593Y0048726D01*
X0334183Y0047461D02*
X0331823Y0047461D01*
X0334183Y0047461D02*
X0335363Y0046281D01*
X0334183Y0045101D01*
X0331823Y0045101D01*
X0332413Y0043836D02*
X0331823Y0043246D01*
X0331823Y0042066D01*
X0332413Y0041476D01*
X0333003Y0041476D01*
X0333593Y0042066D01*
X0333593Y0043246D01*
X0334183Y0043836D01*
X0334773Y0043836D01*
X0335363Y0043246D01*
X0335363Y0042066D01*
X0334773Y0041476D01*
D12*
X0337063Y0043776D02*
X0339563Y0041276D01*
X0344563Y0041276D01*
X0347063Y0043776D01*
X0347063Y0048776D01*
X0344563Y0051276D01*
X0347063Y0053776D01*
X0347063Y0058776D01*
X0344563Y0061276D01*
X0347063Y0063776D01*
X0347063Y0068776D01*
X0344563Y0071276D01*
X0339563Y0071276D01*
X0337063Y0068776D01*
X0337063Y0063776D01*
X0339563Y0061276D01*
X0337063Y0058776D01*
X0337063Y0053776D01*
X0339563Y0051276D01*
X0337063Y0048776D01*
X0337063Y0043776D01*
X0316169Y0041197D02*
X0316169Y0038197D01*
X0302169Y0038197D01*
X0302169Y0040697D01*
X0286669Y0040697D01*
X0286669Y0038197D01*
X0302169Y0038197D01*
X0307669Y0041197D02*
X0316169Y0041197D01*
X0316169Y0111197D01*
X0316169Y0114197D01*
X0279669Y0114197D01*
X0277169Y0114197D01*
X0277169Y0038197D01*
X0279669Y0038197D01*
X0279669Y0043197D01*
X0279669Y0038197D02*
X0286669Y0038197D01*
X0299965Y0047298D02*
X0301766Y0045497D01*
X0299965Y0047298D02*
X0305369Y0047298D01*
X0305369Y0045497D02*
X0305369Y0049100D01*
X0305369Y0054497D02*
X0301766Y0058100D01*
X0300865Y0058100D01*
X0299965Y0057199D01*
X0299965Y0055398D01*
X0300865Y0054497D01*
X0305369Y0054497D02*
X0305369Y0058100D01*
X0279669Y0059197D02*
X0279669Y0063197D01*
X0279669Y0069197D02*
X0279669Y0073197D01*
X0279669Y0079197D02*
X0279669Y0083197D01*
X0279669Y0089197D02*
X0279669Y0093197D01*
X0279669Y0099197D02*
X0279669Y0103197D01*
X0289965Y0105398D02*
X0289965Y0107199D01*
X0290865Y0108100D01*
X0291766Y0108100D01*
X0292667Y0107199D01*
X0292667Y0105398D01*
X0291766Y0104497D01*
X0290865Y0104497D01*
X0289965Y0105398D01*
X0292667Y0105398D02*
X0293568Y0104497D01*
X0294469Y0104497D01*
X0295369Y0105398D01*
X0295369Y0107199D01*
X0294469Y0108100D01*
X0293568Y0108100D01*
X0292667Y0107199D01*
X0299965Y0108100D02*
X0299965Y0104497D01*
X0299965Y0108100D02*
X0300865Y0108100D01*
X0304469Y0104497D01*
X0305369Y0104497D01*
X0304469Y0098100D02*
X0303568Y0098100D01*
X0302667Y0097199D01*
X0302667Y0094497D01*
X0304469Y0094497D01*
X0305369Y0095398D01*
X0305369Y0097199D01*
X0304469Y0098100D01*
X0302667Y0094497D02*
X0300865Y0096298D01*
X0299965Y0098100D01*
X0279669Y0109197D02*
X0279669Y0114197D01*
X0307669Y0111197D02*
X0316169Y0111197D01*
X0237429Y0111197D02*
X0237429Y0041197D01*
X0228929Y0041197D01*
X0223429Y0040697D02*
X0223429Y0038197D01*
X0237429Y0038197D01*
X0237429Y0041197D01*
X0226629Y0045497D02*
X0226629Y0049100D01*
X0226629Y0047298D02*
X0221225Y0047298D01*
X0223026Y0045497D01*
X0223429Y0040697D02*
X0207929Y0040697D01*
X0207929Y0038197D01*
X0223429Y0038197D01*
X0207929Y0038197D02*
X0200929Y0038197D01*
X0200929Y0043197D01*
X0200929Y0038197D02*
X0198429Y0038197D01*
X0198429Y0114197D01*
X0200929Y0114197D01*
X0200929Y0109197D01*
X0200929Y0114197D02*
X0237429Y0114197D01*
X0237429Y0111197D01*
X0228929Y0111197D01*
X0225728Y0104497D02*
X0222125Y0108100D01*
X0221225Y0108100D01*
X0221225Y0104497D01*
X0216629Y0105398D02*
X0215728Y0104497D01*
X0214828Y0104497D01*
X0213927Y0105398D01*
X0213927Y0107199D01*
X0214828Y0108100D01*
X0215728Y0108100D01*
X0216629Y0107199D01*
X0216629Y0105398D01*
X0213927Y0105398D02*
X0213026Y0104497D01*
X0212125Y0104497D01*
X0211225Y0105398D01*
X0211225Y0107199D01*
X0212125Y0108100D01*
X0213026Y0108100D01*
X0213927Y0107199D01*
X0200929Y0103197D02*
X0200929Y0099197D01*
X0200929Y0093197D02*
X0200929Y0089197D01*
X0200929Y0083197D02*
X0200929Y0079197D01*
X0200929Y0073197D02*
X0200929Y0069197D01*
X0200929Y0063197D02*
X0200929Y0059197D01*
X0200929Y0053197D02*
X0200929Y0049197D01*
X0221225Y0055398D02*
X0222125Y0054497D01*
X0221225Y0055398D02*
X0221225Y0057199D01*
X0222125Y0058100D01*
X0223026Y0058100D01*
X0226629Y0054497D01*
X0226629Y0058100D01*
X0279669Y0053197D02*
X0279669Y0049197D01*
X0290669Y0024992D02*
X0290669Y0002992D01*
X0302669Y0002992D01*
X0302669Y0024992D01*
X0290669Y0024992D01*
X0263299Y0024992D02*
X0263299Y0002992D01*
X0251299Y0002992D01*
X0251299Y0024992D01*
X0263299Y0024992D01*
X0223929Y0024992D02*
X0223929Y0002992D01*
X0211929Y0002992D01*
X0211929Y0024992D01*
X0223929Y0024992D01*
X0184559Y0024992D02*
X0184559Y0002992D01*
X0172559Y0002992D01*
X0172559Y0024992D01*
X0184559Y0024992D01*
X0170106Y0038197D02*
X0156106Y0038197D01*
X0156106Y0040697D01*
X0140606Y0040697D01*
X0140606Y0038197D01*
X0156106Y0038197D01*
X0161606Y0041197D02*
X0170106Y0041197D01*
X0170106Y0111197D01*
X0170106Y0114197D01*
X0133606Y0114197D01*
X0131106Y0114197D01*
X0131106Y0038197D01*
X0133606Y0038197D01*
X0133606Y0043197D01*
X0133606Y0038197D02*
X0140606Y0038197D01*
X0153902Y0047298D02*
X0155703Y0045497D01*
X0153902Y0047298D02*
X0159306Y0047298D01*
X0159306Y0045497D02*
X0159306Y0049100D01*
X0159306Y0054497D02*
X0155703Y0058100D01*
X0154802Y0058100D01*
X0153902Y0057199D01*
X0153902Y0055398D01*
X0154802Y0054497D01*
X0159306Y0054497D02*
X0159306Y0058100D01*
X0133606Y0059197D02*
X0133606Y0063197D01*
X0133606Y0069197D02*
X0133606Y0073197D01*
X0133606Y0079197D02*
X0133606Y0083197D01*
X0133606Y0089197D02*
X0133606Y0093197D01*
X0133606Y0099197D02*
X0133606Y0103197D01*
X0143902Y0105398D02*
X0143902Y0107199D01*
X0144802Y0108100D01*
X0145703Y0108100D01*
X0146604Y0107199D01*
X0146604Y0105398D01*
X0145703Y0104497D01*
X0144802Y0104497D01*
X0143902Y0105398D01*
X0146604Y0105398D02*
X0147505Y0104497D01*
X0148406Y0104497D01*
X0149306Y0105398D01*
X0149306Y0107199D01*
X0148406Y0108100D01*
X0147505Y0108100D01*
X0146604Y0107199D01*
X0153902Y0108100D02*
X0153902Y0104497D01*
X0154802Y0108100D02*
X0158406Y0104497D01*
X0159306Y0104497D01*
X0154802Y0108100D02*
X0153902Y0108100D01*
X0161606Y0111197D02*
X0170106Y0111197D01*
X0158406Y0098100D02*
X0157505Y0098100D01*
X0156604Y0097199D01*
X0156604Y0094497D01*
X0158406Y0094497D01*
X0159306Y0095398D01*
X0159306Y0097199D01*
X0158406Y0098100D01*
X0156604Y0094497D02*
X0154802Y0096298D01*
X0153902Y0098100D01*
X0133606Y0109197D02*
X0133606Y0114197D01*
X0118925Y0114197D02*
X0118925Y0111197D01*
X0118925Y0041197D01*
X0110425Y0041197D01*
X0104925Y0040697D02*
X0104925Y0038197D01*
X0118925Y0038197D01*
X0118925Y0041197D01*
X0108125Y0045497D02*
X0108125Y0049100D01*
X0108125Y0047298D02*
X0102721Y0047298D01*
X0104522Y0045497D01*
X0104925Y0040697D02*
X0089425Y0040697D01*
X0089425Y0038197D01*
X0104925Y0038197D01*
X0089425Y0038197D02*
X0082425Y0038197D01*
X0082425Y0043197D01*
X0082425Y0038197D02*
X0079925Y0038197D01*
X0079925Y0114197D01*
X0082425Y0114197D01*
X0082425Y0109197D01*
X0082425Y0114197D02*
X0118925Y0114197D01*
X0118925Y0111197D02*
X0110425Y0111197D01*
X0107224Y0104497D02*
X0103621Y0108100D01*
X0102721Y0108100D01*
X0102721Y0104497D01*
X0098125Y0105398D02*
X0097224Y0104497D01*
X0096324Y0104497D01*
X0095423Y0105398D01*
X0095423Y0107199D01*
X0096324Y0108100D01*
X0097224Y0108100D01*
X0098125Y0107199D01*
X0098125Y0105398D01*
X0095423Y0105398D02*
X0094522Y0104497D01*
X0093621Y0104497D01*
X0092721Y0105398D01*
X0092721Y0107199D01*
X0093621Y0108100D01*
X0094522Y0108100D01*
X0095423Y0107199D01*
X0082425Y0103197D02*
X0082425Y0099197D01*
X0082425Y0093197D02*
X0082425Y0089197D01*
X0082425Y0083197D02*
X0082425Y0079197D01*
X0082425Y0073197D02*
X0082425Y0069197D01*
X0082425Y0063197D02*
X0082425Y0059197D01*
X0082425Y0053197D02*
X0082425Y0049197D01*
X0102721Y0055398D02*
X0103621Y0054497D01*
X0102721Y0055398D02*
X0102721Y0057199D01*
X0103621Y0058100D01*
X0104522Y0058100D01*
X0108125Y0054497D01*
X0108125Y0058100D01*
X0133606Y0053197D02*
X0133606Y0049197D01*
X0170106Y0041197D02*
X0170106Y0038197D01*
X0105819Y0024992D02*
X0105819Y0002992D01*
X0093819Y0002992D01*
X0093819Y0024992D01*
X0105819Y0024992D01*
X0066449Y0024992D02*
X0066449Y0002992D01*
X0054449Y0002992D01*
X0054449Y0024992D01*
X0066449Y0024992D01*
X0033051Y0040134D02*
X0033051Y0043134D01*
X0033051Y0040134D02*
X0001551Y0040134D01*
X0001551Y0050134D01*
X0001551Y0060134D01*
X0001551Y0070134D01*
X0033051Y0070134D01*
X0033051Y0067134D01*
X0033051Y0070134D02*
X0033051Y0073134D01*
X0033051Y0077134D02*
X0033051Y0080134D01*
X0033051Y0083134D01*
X0033051Y0080134D02*
X0001551Y0080134D01*
X0001551Y0090134D01*
X0033051Y0090134D01*
X0033051Y0087134D01*
X0033051Y0090134D02*
X0033051Y0093134D01*
X0033051Y0097134D02*
X0033051Y0100134D01*
X0001551Y0100134D01*
X0001551Y0090134D01*
X0001551Y0080134D02*
X0001551Y0070134D01*
X0001551Y0060134D02*
X0033051Y0060134D01*
X0033051Y0057134D01*
X0033051Y0060134D02*
X0033051Y0063134D01*
X0033051Y0053134D02*
X0033051Y0050134D01*
X0033051Y0047134D01*
X0033051Y0050134D02*
X0001551Y0050134D01*
X0001551Y0100134D02*
X0001551Y0110134D01*
X0001551Y0120134D01*
X0033051Y0120134D01*
X0033051Y0117134D01*
X0033051Y0113134D02*
X0033051Y0110134D01*
X0033051Y0107134D01*
X0033051Y0110134D02*
X0001551Y0110134D01*
X0033051Y0103134D02*
X0033051Y0100134D01*
X0102721Y0098100D02*
X0103621Y0096298D01*
X0105423Y0094497D01*
X0105423Y0097199D01*
X0106324Y0098100D01*
X0107224Y0098100D01*
X0108125Y0097199D01*
X0108125Y0095398D01*
X0107224Y0094497D01*
X0105423Y0094497D01*
X0107224Y0104497D02*
X0108125Y0104497D01*
X0080449Y0150189D02*
X0070449Y0150189D01*
X0060449Y0150189D01*
X0050449Y0150189D01*
X0040449Y0150189D01*
X0040449Y0161189D01*
X0050449Y0161189D01*
X0060449Y0161189D01*
X0060449Y0150189D01*
X0050449Y0150189D02*
X0050449Y0161189D01*
X0060449Y0161189D02*
X0070449Y0161189D01*
X0080449Y0161189D01*
X0080449Y0150189D01*
X0070449Y0150189D02*
X0070449Y0161189D01*
X0221225Y0098100D02*
X0222125Y0096298D01*
X0223927Y0094497D01*
X0223927Y0097199D01*
X0224828Y0098100D01*
X0225728Y0098100D01*
X0226629Y0097199D01*
X0226629Y0095398D01*
X0225728Y0094497D01*
X0223927Y0094497D01*
X0225728Y0104497D02*
X0226629Y0104497D01*
D13*
X0344313Y0039528D02*
X0344313Y0036526D01*
X0344313Y0038027D02*
X0339809Y0038027D01*
X0341310Y0036526D01*
X0077699Y0154190D02*
X0076948Y0153439D01*
X0076198Y0153439D01*
X0075447Y0154190D01*
X0075447Y0155691D01*
X0076198Y0156442D01*
X0076948Y0156442D01*
X0077699Y0155691D01*
X0077699Y0154190D01*
X0075447Y0154190D02*
X0074696Y0153439D01*
X0073946Y0153439D01*
X0073195Y0154190D01*
X0073195Y0155691D01*
X0073946Y0156442D01*
X0074696Y0156442D01*
X0075447Y0155691D01*
X0067699Y0155691D02*
X0066948Y0156442D01*
X0066198Y0156442D01*
X0065447Y0155691D01*
X0065447Y0153439D01*
X0066948Y0153439D01*
X0067699Y0154190D01*
X0067699Y0155691D01*
X0065447Y0153439D02*
X0063946Y0154940D01*
X0063195Y0156442D01*
X0057699Y0155691D02*
X0053195Y0155691D01*
X0055447Y0153439D01*
X0055447Y0156442D01*
X0047699Y0156442D02*
X0047699Y0153439D01*
X0044696Y0156442D01*
X0043946Y0156442D01*
X0043195Y0155691D01*
X0043195Y0154190D01*
X0043946Y0153439D01*
X0007553Y0117388D02*
X0006052Y0117388D01*
X0005301Y0116637D01*
X0007553Y0117388D02*
X0008304Y0116637D01*
X0008304Y0115886D01*
X0005301Y0112884D01*
X0008304Y0112884D01*
X0007553Y0107388D02*
X0005301Y0105136D01*
X0008304Y0105136D01*
X0007553Y0102884D02*
X0007553Y0107388D01*
X0008304Y0097388D02*
X0006802Y0096637D01*
X0005301Y0095136D01*
X0007553Y0095136D01*
X0008304Y0094385D01*
X0008304Y0093634D01*
X0007553Y0092884D01*
X0006052Y0092884D01*
X0005301Y0093634D01*
X0005301Y0095136D01*
X0006052Y0087388D02*
X0007553Y0087388D01*
X0008304Y0086637D01*
X0008304Y0085886D01*
X0007553Y0085136D01*
X0006052Y0085136D01*
X0005301Y0085886D01*
X0005301Y0086637D01*
X0006052Y0087388D01*
X0006052Y0085136D02*
X0005301Y0084385D01*
X0005301Y0083634D01*
X0006052Y0082884D01*
X0007553Y0082884D01*
X0008304Y0083634D01*
X0008304Y0084385D01*
X0007553Y0085136D01*
X0005802Y0077388D02*
X0005802Y0072884D01*
X0004301Y0072884D02*
X0007304Y0072884D01*
X0008905Y0073634D02*
X0009656Y0072884D01*
X0011157Y0072884D01*
X0011908Y0073634D01*
X0011908Y0076637D01*
X0008905Y0073634D01*
X0008905Y0076637D01*
X0009656Y0077388D01*
X0011157Y0077388D01*
X0011908Y0076637D01*
X0005802Y0077388D02*
X0004301Y0075886D01*
X0005802Y0067388D02*
X0005802Y0062884D01*
X0004301Y0062884D02*
X0007304Y0062884D01*
X0008905Y0062884D02*
X0011908Y0065886D01*
X0011908Y0066637D01*
X0011157Y0067388D01*
X0009656Y0067388D01*
X0008905Y0066637D01*
X0005802Y0067388D02*
X0004301Y0065886D01*
X0008905Y0062884D02*
X0011908Y0062884D01*
X0011157Y0057388D02*
X0008905Y0055136D01*
X0011908Y0055136D01*
X0011157Y0052884D02*
X0011157Y0057388D01*
X0005802Y0057388D02*
X0005802Y0052884D01*
X0004301Y0052884D02*
X0007304Y0052884D01*
X0004301Y0055886D02*
X0005802Y0057388D01*
X0005802Y0047388D02*
X0005802Y0042884D01*
X0004301Y0042884D02*
X0007304Y0042884D01*
X0008905Y0043634D02*
X0009656Y0042884D01*
X0011157Y0042884D01*
X0011908Y0043634D01*
X0011908Y0044385D01*
X0011157Y0045136D01*
X0008905Y0045136D01*
X0008905Y0043634D01*
X0008905Y0045136D02*
X0010406Y0046637D01*
X0011908Y0047388D01*
X0005802Y0047388D02*
X0004301Y0045886D01*
D14*
X0041551Y0045134D03*
X0041551Y0055134D03*
X0041551Y0065134D03*
X0041551Y0075134D03*
X0041551Y0085134D03*
X0041551Y0095134D03*
X0041551Y0105134D03*
X0041551Y0115134D03*
D15*
X0045449Y0164189D02*
X0045449Y0182689D01*
X0055449Y0182689D02*
X0055449Y0164189D01*
X0065449Y0164189D02*
X0065449Y0182689D01*
X0075449Y0182689D02*
X0075449Y0164189D01*
D16*
X0075449Y0162689D03*
X0065449Y0162689D03*
X0055449Y0162689D03*
X0045449Y0162689D03*
D17*
X0045449Y0148889D03*
X0055449Y0148889D03*
X0065449Y0148889D03*
X0075449Y0148889D03*
D18*
X0075449Y0139189D03*
X0065449Y0139189D03*
X0055449Y0139189D03*
X0045449Y0139189D03*
D19*
X0124622Y0095193D03*
X0072358Y0092732D03*
X0243913Y0075114D03*
X0321472Y0075114D03*
M02*
