G75*
%MOIN*%
%OFA0B0*%
%FSLAX25Y25*%
%IPPOS*%
%LPD*%
%AMOC8*
5,1,8,0,0,1.08239X$1,22.5*
%
%ADD10C,0.00591*%
%ADD11R,0.02362X0.08661*%
%ADD12OC8,0.06300*%
%ADD13R,0.03937X0.04331*%
%ADD14R,0.04331X0.03937*%
%ADD15OC8,0.06000*%
%ADD16C,0.07050*%
%ADD17R,0.06299X0.13780*%
%ADD18R,0.06299X0.10236*%
%ADD19R,0.10236X0.06299*%
%ADD20C,0.26772*%
%ADD21C,0.26575*%
D10*
X0001800Y0002213D02*
X0001800Y0206937D01*
X0395501Y0206937D01*
X0395501Y0002213D01*
X0001800Y0002213D01*
D11*
X0098954Y0107953D03*
X0103954Y0107953D03*
X0108954Y0107953D03*
X0113954Y0107953D03*
X0113954Y0128425D03*
X0108954Y0128425D03*
X0103954Y0128425D03*
X0098954Y0128425D03*
X0153284Y0127976D03*
X0158284Y0127976D03*
X0163284Y0127976D03*
X0168284Y0127976D03*
X0173284Y0127976D03*
X0178284Y0127976D03*
X0183284Y0127976D03*
X0188284Y0127976D03*
X0188284Y0107504D03*
X0183284Y0107504D03*
X0178284Y0107504D03*
X0173284Y0107504D03*
X0168284Y0107504D03*
X0163284Y0107504D03*
X0158284Y0107504D03*
X0153284Y0107504D03*
X0261591Y0107165D03*
X0266591Y0107165D03*
X0271591Y0107165D03*
X0276591Y0107165D03*
X0276591Y0127638D03*
X0271591Y0127638D03*
X0266591Y0127638D03*
X0261591Y0127638D03*
D12*
X0334320Y0147882D03*
X0354320Y0147882D03*
X0354320Y0096701D03*
X0334320Y0096701D03*
X0149595Y0082528D03*
X0129595Y0082528D03*
X0129595Y0151819D03*
X0149595Y0151819D03*
D13*
X0103965Y0144142D03*
X0097272Y0144142D03*
X0089989Y0135874D03*
X0081721Y0135874D03*
X0081721Y0129181D03*
X0089989Y0129181D03*
X0090186Y0118945D03*
X0081918Y0118945D03*
X0081918Y0112252D03*
X0090186Y0112252D03*
X0092280Y0096567D03*
X0098973Y0096567D03*
X0115776Y0093417D03*
X0122469Y0093417D03*
X0183422Y0096575D03*
X0183422Y0089882D03*
X0198650Y0095126D03*
X0205343Y0095126D03*
X0253965Y0097094D03*
X0260658Y0097094D03*
X0266367Y0097094D03*
X0273060Y0097094D03*
X0284871Y0107331D03*
X0293139Y0107331D03*
X0293139Y0114024D03*
X0284871Y0114024D03*
X0319517Y0107724D03*
X0326209Y0107724D03*
X0282375Y0137780D03*
X0275682Y0137780D03*
X0275690Y0145976D03*
X0282383Y0145976D03*
X0282115Y0162843D03*
X0288808Y0162843D03*
D14*
X0255737Y0140008D03*
X0249044Y0140008D03*
X0249044Y0131740D03*
X0255737Y0131740D03*
X0205146Y0146307D03*
X0196879Y0146307D03*
X0188808Y0146307D03*
X0188808Y0153000D03*
X0196879Y0153000D03*
X0205146Y0153000D03*
X0175816Y0153000D03*
X0167548Y0153000D03*
X0167548Y0146307D03*
X0175816Y0146307D03*
X0173257Y0139417D03*
X0166564Y0139417D03*
X0122272Y0137252D03*
X0114107Y0137173D03*
X0114107Y0143866D03*
X0122272Y0143945D03*
X0086839Y0156150D03*
X0086839Y0162843D03*
X0193729Y0108118D03*
X0200422Y0108118D03*
X0191761Y0096504D03*
X0191761Y0089811D03*
X0165186Y0092567D03*
X0165186Y0099260D03*
X0108950Y0099000D03*
X0108950Y0092307D03*
X0059083Y0091386D03*
X0059083Y0098079D03*
D15*
X0055540Y0066268D03*
X0045540Y0066268D03*
X0045540Y0056268D03*
X0055540Y0056268D03*
X0065540Y0056268D03*
X0075540Y0056268D03*
X0085540Y0056268D03*
X0095540Y0056268D03*
X0105540Y0056268D03*
X0115540Y0056268D03*
X0115540Y0066268D03*
X0105540Y0066268D03*
X0095540Y0066268D03*
X0085540Y0066268D03*
X0075540Y0066268D03*
X0065540Y0066268D03*
X0063414Y0034772D03*
X0053414Y0034772D03*
X0053414Y0024772D03*
X0063414Y0024772D03*
X0073414Y0024772D03*
X0083414Y0024772D03*
X0093414Y0024772D03*
X0103414Y0024772D03*
X0113414Y0024772D03*
X0123414Y0024772D03*
X0123414Y0034772D03*
X0113414Y0034772D03*
X0103414Y0034772D03*
X0093414Y0034772D03*
X0083414Y0034772D03*
X0073414Y0034772D03*
X0163650Y0056268D03*
X0173650Y0056268D03*
X0183650Y0056268D03*
X0193650Y0056268D03*
X0203650Y0056268D03*
X0213650Y0056268D03*
X0223650Y0056268D03*
X0233650Y0056268D03*
X0233650Y0066268D03*
X0223650Y0066268D03*
X0213650Y0066268D03*
X0203650Y0066268D03*
X0193650Y0066268D03*
X0183650Y0066268D03*
X0173650Y0066268D03*
X0163650Y0066268D03*
X0321446Y0066268D03*
X0331446Y0066268D03*
X0341446Y0066268D03*
X0351446Y0066268D03*
X0351446Y0056268D03*
X0341446Y0056268D03*
X0331446Y0056268D03*
X0321446Y0056268D03*
X0321446Y0178315D03*
X0331446Y0178315D03*
X0341446Y0178315D03*
X0351446Y0178315D03*
X0351446Y0188315D03*
X0341446Y0188315D03*
X0331446Y0188315D03*
X0321446Y0188315D03*
X0233650Y0188315D03*
X0223650Y0188315D03*
X0213650Y0188315D03*
X0203650Y0188315D03*
X0193650Y0188315D03*
X0183650Y0188315D03*
X0173650Y0188315D03*
X0163650Y0188315D03*
X0163650Y0178315D03*
X0173650Y0178315D03*
X0183650Y0178315D03*
X0193650Y0178315D03*
X0203650Y0178315D03*
X0213650Y0178315D03*
X0223650Y0178315D03*
X0233650Y0178315D03*
X0115540Y0178315D03*
X0105540Y0178315D03*
X0095540Y0178315D03*
X0085540Y0178315D03*
X0075540Y0178315D03*
X0065540Y0178315D03*
X0055540Y0178315D03*
X0045540Y0178315D03*
X0045540Y0188315D03*
X0055540Y0188315D03*
X0065540Y0188315D03*
X0075540Y0188315D03*
X0085540Y0188315D03*
X0095540Y0188315D03*
X0105540Y0188315D03*
X0115540Y0188315D03*
D16*
X0234556Y0027647D02*
X0234556Y0020597D01*
X0254556Y0020597D02*
X0254556Y0027647D01*
X0274556Y0027647D02*
X0274556Y0020597D01*
D17*
X0308493Y0013630D03*
X0308493Y0034890D03*
X0210068Y0032921D03*
X0210068Y0011661D03*
D18*
X0187430Y0018748D03*
X0169320Y0018748D03*
X0169320Y0032921D03*
X0187430Y0032921D03*
X0068335Y0104575D03*
X0068335Y0118748D03*
X0307115Y0121504D03*
X0307115Y0107331D03*
X0331721Y0027016D03*
X0350619Y0027016D03*
X0350619Y0012843D03*
X0331721Y0012843D03*
D19*
X0080343Y0148079D03*
X0066170Y0148079D03*
X0255934Y0155165D03*
X0270107Y0155165D03*
D20*
X0261643Y0183315D03*
X0293139Y0183315D03*
X0293139Y0061268D03*
X0261643Y0061268D03*
X0017548Y0061268D03*
X0017548Y0017961D03*
X0017548Y0140008D03*
X0017548Y0183315D03*
D21*
X0379753Y0183315D03*
X0379753Y0140008D03*
X0379753Y0061268D03*
X0379753Y0017961D03*
M02*
