%
M48
M72
T01C0.01575
T02C0.03200
T03C0.04000
T04C0.04700
T05C0.12598
%
T01
X123060Y48866
X132902Y49063
X132312Y66386
X140383Y66386
X148847Y66386
X155934Y66386
X163611Y76819
X171091Y76819
X178769Y76819
X186249Y76819
X194320Y76819
X202587Y76819
X208099Y72094
X218139Y71898
X245698Y74457
X245698Y83118
X251209Y88827
X258296Y86858
X267154Y86858
X280343Y86858
X291367Y86858
X300422Y86858
X309083Y86858
X315186Y80756
X320894Y75047
X351406Y75047
X354950Y81937
X359871Y86858
X361249Y93354
X361249Y99850
X357509Y103787
X349438Y103787
X340383Y103787
X332312Y103787
X326603Y98866
X318532Y97094
X310068Y97094
X301603Y97094
X294320Y97094
X286643Y97094
X281131Y100244
X274635Y116386
X265580Y115008
X257115Y115008
X246879Y115008
X234674Y115008
X229162Y120323
X222076Y120323
X214989Y120323
X206918Y120323
X200028Y120323
X193532Y128000
X197469Y131740
X204753Y131740
X212430Y131740
X219910Y131740
X227784Y131740
X236249Y131740
X243335Y131740
X244517Y140008
X277391Y155559
X287036Y145913
X294713Y145913
X301013Y145913
X308296Y153000
X314792Y159496
X320894Y165598
X319320Y135677
X307706Y135677
X307115Y128394
X297272Y130559
X288808Y127016
X284871Y118551
X293139Y118551
X331918Y135677
X344123Y135677
X354753Y135677
X249241Y97291
X243139Y97291
X236643Y97488
X231918Y102213
X226013Y108118
X219910Y108118
X212627Y108118
X205540Y108118
X191761Y85677
X183296Y85677
X165186Y87646
X159280Y81150
X154162Y86268
X149044Y91386
X141761Y93354
X133493Y93354
X126800Y93354
X149241Y107331
X152391Y116780
X158296Y120126
X144910Y116780
X138020Y116780
X130146Y116780
X123257Y116780
X116761Y119535
X122272Y132528
X92548Y144142
X92548Y150638
X101013Y158906
X111839Y158906
X121485Y158906
X129753Y158906
X136839Y165992
X143139Y172291
X149044Y178197
X157115Y178197
X171879Y163630
X182115Y163630
X191367Y163630
X200816Y163630
X209477Y163630
X216957Y170913
X239202Y196110
X249831Y199654
X167548Y157921
X162627Y139417
X89989Y124654
X81721Y124654
X82115Y107528
X90186Y107528
X87824Y96504
X76209Y90008
X68335Y97291
X83099Y83118
X89398Y76819
X97666Y76819
X105146Y76819
X114398Y76819
X121879Y76819
X127391Y71307
X237992Y52419
X242342Y53000
X242351Y41583
X238002Y41573
X201800Y11858
X187430Y11465
X169320Y11465
X239005Y8709
X243926Y8709
X316761Y34890
X331721Y36858
X350619Y36858
X58493Y148079
T02
X129595Y151819
X149595Y151819
X149595Y82528
X129595Y82528
X334320Y96701
X354320Y96701
X354320Y147882
X334320Y147882
T03
X331446Y178315
X341446Y178315
X351446Y178315
X351446Y188315
X341446Y188315
X331446Y188315
X321446Y188315
X321446Y178315
X233650Y178315
X223650Y178315
X213650Y178315
X203650Y178315
X193650Y178315
X183650Y178315
X173650Y178315
X163650Y178315
X163650Y188315
X173650Y188315
X183650Y188315
X193650Y188315
X203650Y188315
X213650Y188315
X223650Y188315
X233650Y188315
X115540Y188315
X105540Y188315
X95540Y188315
X85540Y188315
X75540Y188315
X65540Y188315
X55540Y188315
X45540Y188315
X45540Y178315
X55540Y178315
X65540Y178315
X75540Y178315
X85540Y178315
X95540Y178315
X105540Y178315
X115540Y178315
X115540Y66268
X105540Y66268
X95540Y66268
X85540Y66268
X75540Y66268
X65540Y66268
X55540Y66268
X45540Y66268
X45540Y56268
X55540Y56268
X65540Y56268
X75540Y56268
X85540Y56268
X95540Y56268
X105540Y56268
X115540Y56268
X113414Y34772
X123414Y34772
X123414Y24772
X113414Y24772
X103414Y24772
X93414Y24772
X83414Y24772
X73414Y24772
X63414Y24772
X53414Y24772
X53414Y34772
X63414Y34772
X73414Y34772
X83414Y34772
X93414Y34772
X103414Y34772
X163650Y56268
X173650Y56268
X183650Y56268
X193650Y56268
X203650Y56268
X213650Y56268
X223650Y56268
X233650Y56268
X233650Y66268
X223650Y66268
X213650Y66268
X203650Y66268
X193650Y66268
X183650Y66268
X173650Y66268
X163650Y66268
X321446Y66268
X331446Y66268
X341446Y66268
X351446Y66268
X351446Y56268
X341446Y56268
X331446Y56268
X321446Y56268
T04
X274556Y24122
X254556Y24122
X234556Y24122
T05
X17548Y17961
X17548Y61268
X17548Y140008
X17548Y183315
X261643Y183315
X293139Y183315
X379753Y183315
X379753Y140008
X379753Y61268
X379753Y17961
X293139Y61268
X261643Y61268
M30
