G75*
%MOIN*%
%OFA0B0*%
%FSLAX25Y25*%
%IPPOS*%
%LPD*%
%AMOC8*
5,1,8,0,0,1.08239X$1,22.5*
%
%ADD10C,0.00591*%
%ADD11R,0.02362X0.08661*%
%ADD12OC8,0.06300*%
%ADD13R,0.03937X0.04331*%
%ADD14R,0.04331X0.03937*%
%ADD15OC8,0.06000*%
%ADD16C,0.07050*%
%ADD17R,0.06299X0.13780*%
%ADD18R,0.06299X0.10236*%
%ADD19R,0.10236X0.06299*%
%ADD20C,0.02362*%
%ADD21C,0.01575*%
%ADD22C,0.03150*%
%ADD23C,0.00630*%
%ADD24C,0.00787*%
%ADD25C,0.03150*%
%ADD26C,0.26772*%
%ADD27C,0.26575*%
%ADD28C,0.03543*%
%ADD29C,0.02775*%
D10*
X0001800Y0002213D02*
X0001800Y0206937D01*
X0395501Y0206937D01*
X0395501Y0002213D01*
X0001800Y0002213D01*
D11*
X0098954Y0107953D03*
X0103954Y0107953D03*
X0108954Y0107953D03*
X0113954Y0107953D03*
X0113954Y0128425D03*
X0108954Y0128425D03*
X0103954Y0128425D03*
X0098954Y0128425D03*
X0153284Y0127976D03*
X0158284Y0127976D03*
X0163284Y0127976D03*
X0168284Y0127976D03*
X0173284Y0127976D03*
X0178284Y0127976D03*
X0183284Y0127976D03*
X0188284Y0127976D03*
X0188284Y0107504D03*
X0183284Y0107504D03*
X0178284Y0107504D03*
X0173284Y0107504D03*
X0168284Y0107504D03*
X0163284Y0107504D03*
X0158284Y0107504D03*
X0153284Y0107504D03*
X0261591Y0107165D03*
X0266591Y0107165D03*
X0271591Y0107165D03*
X0276591Y0107165D03*
X0276591Y0127638D03*
X0271591Y0127638D03*
X0266591Y0127638D03*
X0261591Y0127638D03*
D12*
X0334320Y0147882D03*
X0354320Y0147882D03*
X0354320Y0096701D03*
X0334320Y0096701D03*
X0149595Y0082528D03*
X0129595Y0082528D03*
X0129595Y0151819D03*
X0149595Y0151819D03*
D13*
X0103965Y0144142D03*
X0097272Y0144142D03*
X0089989Y0135874D03*
X0081721Y0135874D03*
X0081721Y0129181D03*
X0089989Y0129181D03*
X0090186Y0118945D03*
X0081918Y0118945D03*
X0081918Y0112252D03*
X0090186Y0112252D03*
X0092280Y0096567D03*
X0098973Y0096567D03*
X0115776Y0093417D03*
X0122469Y0093417D03*
X0183422Y0096575D03*
X0183422Y0089882D03*
X0198650Y0095126D03*
X0205343Y0095126D03*
X0253965Y0097094D03*
X0260658Y0097094D03*
X0266367Y0097094D03*
X0273060Y0097094D03*
X0284871Y0107331D03*
X0293139Y0107331D03*
X0293139Y0114024D03*
X0284871Y0114024D03*
X0319517Y0107724D03*
X0326209Y0107724D03*
X0282375Y0137780D03*
X0275682Y0137780D03*
X0275690Y0145976D03*
X0282383Y0145976D03*
X0282115Y0162843D03*
X0288808Y0162843D03*
D14*
X0255737Y0140008D03*
X0249044Y0140008D03*
X0249044Y0131740D03*
X0255737Y0131740D03*
X0205146Y0146307D03*
X0196879Y0146307D03*
X0188808Y0146307D03*
X0188808Y0153000D03*
X0196879Y0153000D03*
X0205146Y0153000D03*
X0175816Y0153000D03*
X0167548Y0153000D03*
X0167548Y0146307D03*
X0175816Y0146307D03*
X0173257Y0139417D03*
X0166564Y0139417D03*
X0122272Y0137252D03*
X0114107Y0137173D03*
X0114107Y0143866D03*
X0122272Y0143945D03*
X0086839Y0156150D03*
X0086839Y0162843D03*
X0193729Y0108118D03*
X0200422Y0108118D03*
X0191761Y0096504D03*
X0191761Y0089811D03*
X0165186Y0092567D03*
X0165186Y0099260D03*
X0108950Y0099000D03*
X0108950Y0092307D03*
X0059083Y0091386D03*
X0059083Y0098079D03*
D15*
X0055540Y0066268D03*
X0045540Y0066268D03*
X0045540Y0056268D03*
X0055540Y0056268D03*
X0065540Y0056268D03*
X0075540Y0056268D03*
X0085540Y0056268D03*
X0095540Y0056268D03*
X0105540Y0056268D03*
X0115540Y0056268D03*
X0115540Y0066268D03*
X0105540Y0066268D03*
X0095540Y0066268D03*
X0085540Y0066268D03*
X0075540Y0066268D03*
X0065540Y0066268D03*
X0063414Y0034772D03*
X0053414Y0034772D03*
X0053414Y0024772D03*
X0063414Y0024772D03*
X0073414Y0024772D03*
X0083414Y0024772D03*
X0093414Y0024772D03*
X0103414Y0024772D03*
X0113414Y0024772D03*
X0123414Y0024772D03*
X0123414Y0034772D03*
X0113414Y0034772D03*
X0103414Y0034772D03*
X0093414Y0034772D03*
X0083414Y0034772D03*
X0073414Y0034772D03*
X0163650Y0056268D03*
X0173650Y0056268D03*
X0183650Y0056268D03*
X0193650Y0056268D03*
X0203650Y0056268D03*
X0213650Y0056268D03*
X0223650Y0056268D03*
X0233650Y0056268D03*
X0233650Y0066268D03*
X0223650Y0066268D03*
X0213650Y0066268D03*
X0203650Y0066268D03*
X0193650Y0066268D03*
X0183650Y0066268D03*
X0173650Y0066268D03*
X0163650Y0066268D03*
X0321446Y0066268D03*
X0331446Y0066268D03*
X0341446Y0066268D03*
X0351446Y0066268D03*
X0351446Y0056268D03*
X0341446Y0056268D03*
X0331446Y0056268D03*
X0321446Y0056268D03*
X0321446Y0178315D03*
X0331446Y0178315D03*
X0341446Y0178315D03*
X0351446Y0178315D03*
X0351446Y0188315D03*
X0341446Y0188315D03*
X0331446Y0188315D03*
X0321446Y0188315D03*
X0233650Y0188315D03*
X0223650Y0188315D03*
X0213650Y0188315D03*
X0203650Y0188315D03*
X0193650Y0188315D03*
X0183650Y0188315D03*
X0173650Y0188315D03*
X0163650Y0188315D03*
X0163650Y0178315D03*
X0173650Y0178315D03*
X0183650Y0178315D03*
X0193650Y0178315D03*
X0203650Y0178315D03*
X0213650Y0178315D03*
X0223650Y0178315D03*
X0233650Y0178315D03*
X0115540Y0178315D03*
X0105540Y0178315D03*
X0095540Y0178315D03*
X0085540Y0178315D03*
X0075540Y0178315D03*
X0065540Y0178315D03*
X0055540Y0178315D03*
X0045540Y0178315D03*
X0045540Y0188315D03*
X0055540Y0188315D03*
X0065540Y0188315D03*
X0075540Y0188315D03*
X0085540Y0188315D03*
X0095540Y0188315D03*
X0105540Y0188315D03*
X0115540Y0188315D03*
D16*
X0234556Y0027647D02*
X0234556Y0020597D01*
X0254556Y0020597D02*
X0254556Y0027647D01*
X0274556Y0027647D02*
X0274556Y0020597D01*
D17*
X0308493Y0013630D03*
X0308493Y0034890D03*
X0210068Y0032921D03*
X0210068Y0011661D03*
D18*
X0187430Y0018748D03*
X0169320Y0018748D03*
X0169320Y0032921D03*
X0187430Y0032921D03*
X0068335Y0104575D03*
X0068335Y0118748D03*
X0307115Y0121504D03*
X0307115Y0107331D03*
X0331721Y0027016D03*
X0350619Y0027016D03*
X0350619Y0012843D03*
X0331721Y0012843D03*
D19*
X0080343Y0148079D03*
X0066170Y0148079D03*
X0255934Y0155165D03*
X0270107Y0155165D03*
D20*
X0270501Y0155559D01*
X0263611Y0162843D02*
X0255934Y0155165D01*
X0255737Y0154969D01*
X0255737Y0140008D01*
X0255737Y0131740D01*
X0259839Y0127638D01*
X0261591Y0127638D01*
X0266591Y0127638D02*
X0266591Y0120547D01*
X0264989Y0118945D01*
X0239792Y0118945D01*
X0233493Y0125244D01*
X0198847Y0125244D01*
X0193729Y0120126D01*
X0164989Y0120126D01*
X0163284Y0121831D01*
X0163284Y0127976D01*
X0158284Y0127976D02*
X0158284Y0120138D01*
X0158296Y0120126D01*
X0164792Y0115008D02*
X0226997Y0115008D01*
X0234839Y0107165D01*
X0261591Y0107165D01*
X0266591Y0107165D02*
X0266591Y0097319D01*
X0266367Y0097094D01*
X0260658Y0097094D01*
X0253965Y0097094D02*
X0249438Y0097094D01*
X0249241Y0097291D01*
X0271591Y0098563D02*
X0273060Y0097094D01*
X0276603Y0097094D01*
X0281328Y0092370D01*
X0329989Y0092370D01*
X0334320Y0096701D01*
X0333926Y0097094D01*
X0326209Y0107724D02*
X0360658Y0107724D01*
X0366170Y0102213D01*
X0366170Y0079181D01*
X0357902Y0070913D01*
X0357902Y0049260D01*
X0353769Y0045126D01*
X0312627Y0045126D01*
X0312627Y0069339D01*
X0303572Y0078394D01*
X0236446Y0078394D01*
X0219713Y0095126D01*
X0205343Y0095126D01*
X0198650Y0095126D02*
X0196485Y0095126D01*
X0195107Y0096504D01*
X0191761Y0096504D01*
X0183493Y0096504D01*
X0183284Y0096713D01*
X0183422Y0096575D01*
X0183284Y0096713D02*
X0183284Y0107504D01*
X0188284Y0107504D02*
X0188284Y0104902D01*
X0188284Y0107504D02*
X0193115Y0107504D01*
X0193729Y0108118D01*
X0193729Y0104181D01*
X0195107Y0102803D01*
X0220698Y0102803D01*
X0240383Y0083118D01*
X0245698Y0083118D01*
X0245698Y0074457D02*
X0245698Y0051425D01*
X0243335Y0049063D01*
X0132902Y0049063D01*
X0128375Y0046110D02*
X0128375Y0061858D01*
X0118532Y0071701D01*
X0083493Y0071701D01*
X0071485Y0083709D01*
X0062430Y0083709D01*
X0059083Y0087055D01*
X0059083Y0091386D01*
X0059083Y0098079D02*
X0058887Y0098276D01*
X0058887Y0116189D01*
X0061446Y0118748D01*
X0068335Y0118748D01*
X0068532Y0118945D01*
X0081918Y0118945D01*
X0090186Y0118945D01*
X0095501Y0118945D01*
X0098257Y0116189D01*
X0112233Y0116189D01*
X0114005Y0114417D01*
X0114005Y0108004D01*
X0113954Y0107953D01*
X0108954Y0107953D02*
X0108954Y0099004D01*
X0109013Y0099063D01*
X0156131Y0099063D01*
X0158493Y0101425D01*
X0158493Y0107295D01*
X0158284Y0107504D01*
X0153284Y0107504D02*
X0153111Y0107331D01*
X0149241Y0107331D01*
X0163284Y0107504D02*
X0163284Y0113500D01*
X0164792Y0115008D01*
X0173284Y0127976D02*
X0173284Y0139390D01*
X0173257Y0139417D01*
X0175816Y0141976D01*
X0175816Y0146307D01*
X0167548Y0146307D01*
X0175816Y0153000D02*
X0175816Y0156740D01*
X0177981Y0158906D01*
X0231328Y0158906D01*
X0240383Y0167961D01*
X0240383Y0194929D01*
X0239202Y0196110D01*
X0238808Y0196504D01*
X0137036Y0196504D01*
X0129950Y0189417D01*
X0129950Y0173669D01*
X0123650Y0167370D01*
X0091367Y0167370D01*
X0086839Y0162843D01*
X0086839Y0156150D02*
X0080343Y0149654D01*
X0080343Y0148079D01*
X0081721Y0146701D01*
X0081721Y0135874D01*
X0089989Y0135874D01*
X0097076Y0135874D01*
X0098954Y0133996D01*
X0098954Y0128425D01*
X0103954Y0128425D02*
X0103954Y0144130D01*
X0103965Y0144142D01*
X0103965Y0147882D01*
X0108099Y0152016D01*
X0129398Y0152016D01*
X0129595Y0151819D01*
X0122272Y0143945D02*
X0114186Y0143945D01*
X0114107Y0143866D01*
X0114028Y0143945D01*
X0110855Y0143945D01*
X0108954Y0142043D01*
X0108954Y0128425D01*
X0113954Y0128425D02*
X0114402Y0127976D01*
X0153284Y0127976D01*
X0113954Y0128425D02*
X0113954Y0137020D01*
X0114107Y0137173D01*
X0149595Y0151819D02*
X0166131Y0168354D01*
X0199438Y0168354D01*
X0203650Y0172567D01*
X0203650Y0178315D01*
X0233296Y0153000D02*
X0244320Y0164024D01*
X0244320Y0198866D01*
X0241761Y0201425D01*
X0104950Y0201425D01*
X0042745Y0201425D01*
X0035452Y0194132D01*
X0035452Y0024072D01*
X0044123Y0015402D01*
X0123454Y0015402D01*
X0128572Y0020520D01*
X0128572Y0024654D01*
X0123532Y0024654D01*
X0123414Y0024772D01*
X0113414Y0024772D01*
X0128572Y0024654D02*
X0128572Y0040205D01*
X0123060Y0045717D01*
X0123060Y0048866D01*
X0123060Y0061858D01*
X0118650Y0066268D01*
X0115540Y0066268D01*
X0105540Y0066268D01*
X0104162Y0082528D02*
X0099044Y0087646D01*
X0099044Y0096496D01*
X0098973Y0096567D01*
X0098954Y0096587D01*
X0098954Y0107953D01*
X0103954Y0107953D02*
X0103965Y0107941D01*
X0103965Y0093945D01*
X0105603Y0092307D01*
X0108950Y0092307D01*
X0114666Y0092307D01*
X0115776Y0093417D01*
X0122469Y0093417D02*
X0126800Y0093354D01*
X0109406Y0099457D02*
X0109013Y0099063D01*
X0108954Y0099004D02*
X0108950Y0099000D01*
X0087887Y0096567D02*
X0087824Y0096504D01*
X0082115Y0112055D02*
X0081918Y0112252D01*
X0104162Y0082528D02*
X0129595Y0082528D01*
X0149595Y0082528D02*
X0160225Y0071898D01*
X0201013Y0071898D01*
X0203572Y0069339D01*
X0203572Y0066346D01*
X0203650Y0066268D01*
X0183422Y0085803D02*
X0183296Y0085677D01*
X0130540Y0043945D02*
X0128375Y0046110D01*
X0130540Y0043945D02*
X0135658Y0043945D01*
X0136839Y0045126D01*
X0168729Y0045126D01*
X0312627Y0045126D01*
X0341446Y0066268D02*
X0341446Y0083827D01*
X0354320Y0096701D01*
X0319517Y0107724D02*
X0319123Y0107331D01*
X0307115Y0107331D01*
X0293139Y0107331D01*
X0284871Y0107331D01*
X0276757Y0107331D01*
X0276591Y0107165D01*
X0271591Y0107165D02*
X0271591Y0098563D01*
X0284871Y0118354D02*
X0284871Y0118551D01*
X0276591Y0127638D02*
X0282375Y0133421D01*
X0282375Y0137780D01*
X0299894Y0137780D01*
X0309997Y0147882D01*
X0334320Y0147882D01*
X0354320Y0147882D02*
X0354320Y0165441D01*
X0341446Y0178315D01*
X0355934Y0199654D02*
X0363217Y0192370D01*
X0363217Y0126622D01*
X0371485Y0118354D01*
X0371485Y0077803D01*
X0363020Y0069339D01*
X0363020Y0019339D01*
X0356918Y0013236D01*
X0351013Y0013236D01*
X0350619Y0012843D01*
X0331721Y0012843D01*
X0330934Y0013630D01*
X0308493Y0013630D01*
X0291957Y0013630D01*
X0281465Y0024122D01*
X0274556Y0024122D01*
X0234556Y0024122D02*
X0218867Y0024122D01*
X0210068Y0032921D01*
X0187430Y0032921D01*
X0169320Y0032921D01*
X0169320Y0044535D01*
X0168729Y0045126D01*
X0209871Y0011858D02*
X0210068Y0011661D01*
X0271591Y0127638D02*
X0271591Y0135783D01*
X0273587Y0137780D01*
X0275682Y0137780D01*
X0275690Y0137787D01*
X0275690Y0145976D01*
X0282383Y0145976D02*
X0282446Y0145913D01*
X0249044Y0140008D02*
X0244517Y0140008D01*
X0233296Y0153000D02*
X0205146Y0153000D01*
X0196879Y0153000D01*
X0188808Y0153000D01*
X0263611Y0162843D02*
X0282115Y0162843D01*
X0288808Y0162843D02*
X0289398Y0163039D01*
X0306918Y0163039D01*
X0311643Y0167764D01*
X0311643Y0199654D01*
X0355934Y0199654D01*
X0311643Y0199654D02*
X0249831Y0199654D01*
X0115540Y0188315D02*
X0105540Y0188315D01*
X0104950Y0188906D01*
X0104950Y0201425D01*
D21*
X0115580Y0188354D02*
X0115540Y0188315D01*
D22*
X0143139Y0172291D03*
X0149044Y0178197D03*
X0157115Y0178197D03*
X0136839Y0165992D03*
X0129753Y0158906D03*
X0121485Y0158906D03*
X0111839Y0158906D03*
X0101013Y0158906D03*
X0092548Y0150638D03*
X0092548Y0144142D03*
X0122272Y0132528D03*
X0116761Y0119535D03*
X0123257Y0116780D03*
X0130146Y0116780D03*
X0138020Y0116780D03*
X0144910Y0116780D03*
X0152391Y0116780D03*
X0158296Y0120126D03*
X0149241Y0107331D03*
X0141761Y0093354D03*
X0149044Y0091386D03*
X0154162Y0086268D03*
X0159280Y0081150D03*
X0163611Y0076819D03*
X0171091Y0076819D03*
X0178769Y0076819D03*
X0186249Y0076819D03*
X0194320Y0076819D03*
X0202587Y0076819D03*
X0208099Y0072094D03*
X0218139Y0071898D03*
X0245698Y0074457D03*
X0245698Y0083118D03*
X0251209Y0088827D03*
X0258296Y0086858D03*
X0267154Y0086858D03*
X0280343Y0086858D03*
X0291367Y0086858D03*
X0300422Y0086858D03*
X0309083Y0086858D03*
X0315186Y0080756D03*
X0320894Y0075047D03*
X0351406Y0075047D03*
X0354950Y0081937D03*
X0359871Y0086858D03*
X0361249Y0093354D03*
X0361249Y0099850D03*
X0357509Y0103787D03*
X0349438Y0103787D03*
X0340383Y0103787D03*
X0332312Y0103787D03*
X0326603Y0098866D03*
X0318532Y0097094D03*
X0310068Y0097094D03*
X0301603Y0097094D03*
X0294320Y0097094D03*
X0286643Y0097094D03*
X0281131Y0100244D03*
X0274635Y0116386D03*
X0265580Y0115008D03*
X0257115Y0115008D03*
X0246879Y0115008D03*
X0234674Y0115008D03*
X0229162Y0120323D03*
X0222076Y0120323D03*
X0214989Y0120323D03*
X0206918Y0120323D03*
X0200028Y0120323D03*
X0193532Y0128000D03*
X0197469Y0131740D03*
X0204753Y0131740D03*
X0212430Y0131740D03*
X0219910Y0131740D03*
X0227784Y0131740D03*
X0236249Y0131740D03*
X0243335Y0131740D03*
X0244517Y0140008D03*
X0277391Y0155559D03*
X0287036Y0145913D03*
X0294713Y0145913D03*
X0301013Y0145913D03*
X0308296Y0153000D03*
X0314792Y0159496D03*
X0320894Y0165598D03*
X0319320Y0135677D03*
X0307706Y0135677D03*
X0297272Y0130559D03*
X0288808Y0127016D03*
X0284871Y0118551D03*
X0293139Y0118551D03*
X0331918Y0135677D03*
X0344123Y0135677D03*
X0354753Y0135677D03*
X0243139Y0097291D03*
X0236643Y0097488D03*
X0231918Y0102213D03*
X0226013Y0108118D03*
X0219910Y0108118D03*
X0212627Y0108118D03*
X0205540Y0108118D03*
X0191761Y0085677D03*
X0183296Y0085677D03*
X0165186Y0087646D03*
X0133493Y0093354D03*
X0126800Y0093354D03*
X0121879Y0076819D03*
X0114398Y0076819D03*
X0105146Y0076819D03*
X0097666Y0076819D03*
X0089398Y0076819D03*
X0083099Y0083118D03*
X0076209Y0090008D03*
X0068335Y0097291D03*
X0082115Y0107528D03*
X0090186Y0107528D03*
X0087824Y0096504D03*
X0127391Y0071307D03*
X0132312Y0066386D03*
X0140383Y0066386D03*
X0148847Y0066386D03*
X0155934Y0066386D03*
X0132902Y0049063D03*
X0123060Y0048866D03*
X0169320Y0011465D03*
X0187430Y0011465D03*
X0201800Y0011858D03*
X0239005Y0008709D03*
X0243926Y0008709D03*
X0242351Y0041583D03*
X0238002Y0041573D03*
X0237992Y0052419D03*
X0242342Y0053000D03*
X0316761Y0034890D03*
X0331721Y0036858D03*
X0350619Y0036858D03*
X0162627Y0139417D03*
X0171879Y0163630D03*
X0182115Y0163630D03*
X0191367Y0163630D03*
X0200816Y0163630D03*
X0209477Y0163630D03*
X0216957Y0170913D03*
X0239202Y0196110D03*
X0249831Y0199654D03*
X0089989Y0124654D03*
X0081721Y0124654D03*
X0058493Y0148079D03*
D23*
X0051117Y0164518D02*
X0047272Y0164518D01*
X0046551Y0163797D01*
X0046551Y0078002D01*
X0047096Y0077457D01*
X0068453Y0077457D01*
X0071731Y0074179D01*
X0071731Y0070235D01*
X0075619Y0066346D01*
X0075540Y0066268D01*
X0080540Y0061268D01*
X0080540Y0043551D01*
X0084477Y0039614D01*
X0086052Y0039614D01*
X0089005Y0036661D01*
X0089005Y0030362D01*
X0083414Y0024772D01*
X0078572Y0029929D02*
X0073414Y0024772D01*
X0068335Y0029693D02*
X0063414Y0024772D01*
X0058493Y0029850D02*
X0053414Y0024772D01*
X0058493Y0029850D02*
X0058493Y0037252D01*
X0050422Y0045323D01*
X0050422Y0058512D01*
X0045540Y0063394D01*
X0045540Y0066268D01*
X0039172Y0072636D01*
X0039172Y0166946D01*
X0044123Y0171898D01*
X0048060Y0171898D01*
X0050619Y0174457D01*
X0050619Y0182528D01*
X0045540Y0187606D01*
X0045540Y0188315D01*
X0055540Y0188315D02*
X0060461Y0183394D01*
X0060461Y0175441D01*
X0058099Y0173079D01*
X0052720Y0173079D01*
X0049079Y0169438D01*
X0045142Y0169438D01*
X0041631Y0165928D01*
X0041631Y0075964D01*
X0045058Y0072537D01*
X0054113Y0072537D01*
X0055540Y0071110D01*
X0055540Y0065205D01*
X0055540Y0066268D02*
X0055540Y0062646D01*
X0061052Y0057134D01*
X0061052Y0044732D01*
X0068335Y0037449D01*
X0068335Y0029693D01*
X0063414Y0034772D02*
X0063414Y0038236D01*
X0055540Y0046110D01*
X0055540Y0056268D01*
X0055540Y0056150D02*
X0050619Y0061071D01*
X0050619Y0068748D01*
X0048060Y0071307D01*
X0044549Y0071307D01*
X0040402Y0075454D01*
X0040402Y0166437D01*
X0044632Y0170668D01*
X0048569Y0170668D01*
X0051849Y0173947D01*
X0051849Y0174624D01*
X0055540Y0178315D01*
X0045540Y0178315D02*
X0045540Y0176071D01*
X0037942Y0168472D01*
X0037942Y0063866D01*
X0045540Y0056268D01*
X0045540Y0042646D01*
X0053414Y0034772D01*
X0065540Y0042646D02*
X0073414Y0034772D01*
X0078572Y0037252D02*
X0078572Y0029929D01*
X0083414Y0034772D02*
X0075540Y0042646D01*
X0075540Y0056268D01*
X0070501Y0061307D01*
X0070501Y0073669D01*
X0067943Y0076227D01*
X0046587Y0076227D01*
X0045321Y0077492D01*
X0045321Y0164399D01*
X0046670Y0165748D01*
X0050607Y0165748D01*
X0054248Y0169389D01*
X0072717Y0169389D01*
X0075422Y0172094D01*
X0075422Y0178197D01*
X0075540Y0178315D01*
X0079753Y0179922D02*
X0079753Y0170520D01*
X0077392Y0168159D01*
X0054758Y0168159D01*
X0051117Y0164518D01*
X0050098Y0166978D02*
X0046161Y0166978D01*
X0044091Y0164909D01*
X0044091Y0076983D01*
X0046077Y0074997D01*
X0063465Y0074997D01*
X0065580Y0072882D01*
X0065580Y0066307D01*
X0065540Y0066268D01*
X0065540Y0062882D01*
X0070304Y0058118D01*
X0070304Y0045520D01*
X0078572Y0037252D01*
X0065540Y0042646D02*
X0065540Y0056268D01*
X0060658Y0061150D01*
X0060658Y0071307D01*
X0058198Y0073767D01*
X0045568Y0073767D01*
X0042861Y0076473D01*
X0042861Y0165418D01*
X0045651Y0168208D01*
X0049588Y0168208D01*
X0053229Y0171849D01*
X0058609Y0171849D01*
X0058658Y0171898D01*
X0063414Y0171898D01*
X0065540Y0174024D01*
X0065540Y0178315D01*
X0070501Y0183354D02*
X0070501Y0172883D01*
X0068236Y0170619D01*
X0053739Y0170619D01*
X0050098Y0166978D01*
X0070501Y0183354D02*
X0065540Y0188315D01*
X0075540Y0188315D02*
X0075540Y0184134D01*
X0079753Y0179922D01*
X0158493Y0145520D02*
X0158493Y0138630D01*
X0161839Y0135283D01*
X0166761Y0135283D01*
X0168335Y0133709D01*
X0168284Y0133657D01*
X0168284Y0127976D01*
X0178284Y0127976D02*
X0178284Y0136965D01*
X0180934Y0139614D01*
X0190186Y0139614D01*
X0196879Y0146307D01*
X0188808Y0146307D02*
X0186251Y0146307D01*
X0183167Y0149391D01*
X0162364Y0149391D01*
X0158493Y0145520D01*
X0183284Y0135075D02*
X0183284Y0127976D01*
X0183284Y0135075D02*
X0185855Y0137646D01*
X0196485Y0137646D01*
X0205146Y0146307D01*
X0207706Y0082134D02*
X0226406Y0082134D01*
X0233099Y0075441D01*
X0240186Y0075441D01*
X0242342Y0073285D01*
X0242342Y0053000D01*
X0237992Y0052419D02*
X0237992Y0069564D01*
X0235166Y0072390D01*
X0228080Y0072390D01*
X0220304Y0080165D01*
X0176013Y0080165D01*
X0238002Y0041573D02*
X0238002Y0039043D01*
X0242154Y0034890D01*
X0242154Y0011858D01*
X0239005Y0008709D01*
X0243926Y0008709D02*
X0245894Y0010677D01*
X0245894Y0038039D01*
X0242351Y0041583D01*
D24*
X0215481Y0054083D02*
X0201898Y0054083D01*
X0202587Y0053394D02*
X0200619Y0055362D01*
X0200619Y0067567D01*
X0202194Y0069142D01*
X0214792Y0069142D01*
X0216367Y0067567D01*
X0216367Y0054969D01*
X0214792Y0053394D01*
X0202587Y0053394D01*
X0201112Y0054869D02*
X0216267Y0054869D01*
X0216367Y0055655D02*
X0200619Y0055655D01*
X0200619Y0056441D02*
X0216367Y0056441D01*
X0216367Y0057227D02*
X0200619Y0057227D01*
X0200619Y0058012D02*
X0216367Y0058012D01*
X0216367Y0058798D02*
X0200619Y0058798D01*
X0200619Y0059584D02*
X0216367Y0059584D01*
X0216367Y0060370D02*
X0200619Y0060370D01*
X0200619Y0061156D02*
X0216367Y0061156D01*
X0216367Y0061942D02*
X0200619Y0061942D01*
X0200619Y0062728D02*
X0216367Y0062728D01*
X0216367Y0063514D02*
X0200619Y0063514D01*
X0200619Y0064300D02*
X0216367Y0064300D01*
X0216367Y0065086D02*
X0200619Y0065086D01*
X0200619Y0065872D02*
X0216367Y0065872D01*
X0216367Y0066657D02*
X0200619Y0066657D01*
X0200619Y0067443D02*
X0216367Y0067443D01*
X0215705Y0068229D02*
X0201281Y0068229D01*
X0202067Y0069015D02*
X0214919Y0069015D01*
X0207706Y0082134D02*
X0176997Y0082134D01*
X0174241Y0084890D01*
X0174241Y0098866D01*
X0178284Y0102909D01*
X0178284Y0107504D01*
X0178375Y0107413D01*
X0173284Y0107504D02*
X0173284Y0101846D01*
X0170698Y0099260D01*
X0170698Y0085480D01*
X0176013Y0080165D01*
X0165186Y0099260D02*
X0168284Y0102358D01*
X0168284Y0107504D01*
X0168335Y0107453D01*
X0055540Y0066268D02*
X0055540Y0065205D01*
X0045540Y0066268D02*
X0045265Y0065992D01*
X0055540Y0056268D02*
X0055540Y0056150D01*
X0201013Y0177016D02*
X0201013Y0190008D01*
X0202194Y0191189D01*
X0214792Y0191189D01*
X0216367Y0189614D01*
X0216367Y0177016D01*
X0214792Y0175441D01*
X0202587Y0175441D01*
X0201013Y0177016D01*
X0201013Y0177471D02*
X0216367Y0177471D01*
X0216367Y0178257D02*
X0201013Y0178257D01*
X0201013Y0179043D02*
X0216367Y0179043D01*
X0216367Y0179829D02*
X0201013Y0179829D01*
X0201013Y0180615D02*
X0216367Y0180615D01*
X0216367Y0181401D02*
X0201013Y0181401D01*
X0201013Y0182187D02*
X0216367Y0182187D01*
X0216367Y0182973D02*
X0201013Y0182973D01*
X0201013Y0183758D02*
X0216367Y0183758D01*
X0216367Y0184544D02*
X0201013Y0184544D01*
X0201013Y0185330D02*
X0216367Y0185330D01*
X0216367Y0186116D02*
X0201013Y0186116D01*
X0201013Y0186902D02*
X0216367Y0186902D01*
X0216367Y0187688D02*
X0201013Y0187688D01*
X0201013Y0188474D02*
X0216367Y0188474D01*
X0216367Y0189260D02*
X0201013Y0189260D01*
X0201051Y0190046D02*
X0215935Y0190046D01*
X0215149Y0190832D02*
X0201836Y0190832D01*
X0201343Y0176685D02*
X0216036Y0176685D01*
X0215251Y0175899D02*
X0202129Y0175899D01*
X0328178Y0177016D02*
X0328178Y0189614D01*
X0329753Y0191189D01*
X0342745Y0191189D01*
X0344320Y0189614D01*
X0344320Y0177409D01*
X0342351Y0175441D01*
X0329753Y0175441D01*
X0328178Y0177016D01*
X0328178Y0177471D02*
X0344320Y0177471D01*
X0344320Y0178257D02*
X0328178Y0178257D01*
X0328178Y0179043D02*
X0344320Y0179043D01*
X0344320Y0179829D02*
X0328178Y0179829D01*
X0328178Y0180615D02*
X0344320Y0180615D01*
X0344320Y0181401D02*
X0328178Y0181401D01*
X0328178Y0182187D02*
X0344320Y0182187D01*
X0344320Y0182973D02*
X0328178Y0182973D01*
X0328178Y0183758D02*
X0344320Y0183758D01*
X0344320Y0184544D02*
X0328178Y0184544D01*
X0328178Y0185330D02*
X0344320Y0185330D01*
X0344320Y0186116D02*
X0328178Y0186116D01*
X0328178Y0186902D02*
X0344320Y0186902D01*
X0344320Y0187688D02*
X0328178Y0187688D01*
X0328178Y0188474D02*
X0344320Y0188474D01*
X0344320Y0189260D02*
X0328178Y0189260D01*
X0328610Y0190046D02*
X0343888Y0190046D01*
X0343102Y0190832D02*
X0329395Y0190832D01*
X0328508Y0176685D02*
X0343595Y0176685D01*
X0342810Y0175899D02*
X0329294Y0175899D01*
X0330146Y0069142D02*
X0328572Y0067567D01*
X0328572Y0054969D01*
X0330146Y0053394D01*
X0342745Y0053394D01*
X0344320Y0054969D01*
X0344320Y0067567D01*
X0342745Y0069142D01*
X0330146Y0069142D01*
X0330020Y0069015D02*
X0342871Y0069015D01*
X0343657Y0068229D02*
X0329234Y0068229D01*
X0328572Y0067443D02*
X0344320Y0067443D01*
X0344320Y0066657D02*
X0328572Y0066657D01*
X0328572Y0065872D02*
X0344320Y0065872D01*
X0344320Y0065086D02*
X0328572Y0065086D01*
X0328572Y0064300D02*
X0344320Y0064300D01*
X0344320Y0063514D02*
X0328572Y0063514D01*
X0328572Y0062728D02*
X0344320Y0062728D01*
X0344320Y0061942D02*
X0328572Y0061942D01*
X0328572Y0061156D02*
X0344320Y0061156D01*
X0344320Y0060370D02*
X0328572Y0060370D01*
X0328572Y0059584D02*
X0344320Y0059584D01*
X0344320Y0058798D02*
X0328572Y0058798D01*
X0328572Y0058012D02*
X0344320Y0058012D01*
X0344320Y0057227D02*
X0328572Y0057227D01*
X0328572Y0056441D02*
X0344320Y0056441D01*
X0344320Y0055655D02*
X0328572Y0055655D01*
X0328671Y0054869D02*
X0344220Y0054869D01*
X0343434Y0054083D02*
X0329457Y0054083D01*
D25*
X0321446Y0066268D02*
X0320894Y0066819D01*
X0320894Y0075047D01*
X0315186Y0080756D01*
X0309083Y0086858D01*
X0300422Y0086858D01*
X0291367Y0086858D01*
X0280343Y0086858D01*
X0267154Y0086858D01*
X0258296Y0086858D01*
X0253178Y0086858D01*
X0251209Y0088827D01*
X0249241Y0090795D01*
X0249241Y0097291D01*
X0243139Y0097291D01*
X0236839Y0097291D01*
X0236643Y0097488D01*
X0231918Y0102213D01*
X0226013Y0108118D01*
X0219910Y0108118D01*
X0212627Y0108118D01*
X0205540Y0108118D01*
X0200422Y0108118D01*
X0200028Y0120323D02*
X0206918Y0120323D01*
X0214989Y0120323D01*
X0222076Y0120323D01*
X0229162Y0120323D01*
X0229359Y0120323D01*
X0234674Y0115008D01*
X0246879Y0115008D01*
X0257115Y0115008D01*
X0265580Y0115008D01*
X0273257Y0115008D01*
X0274635Y0116386D01*
X0276603Y0118354D01*
X0284871Y0118354D01*
X0284871Y0114024D01*
X0284871Y0118551D02*
X0284871Y0123079D01*
X0288808Y0127016D01*
X0292351Y0130559D01*
X0297272Y0130559D01*
X0302587Y0130559D01*
X0307706Y0135677D01*
X0319320Y0135677D01*
X0331918Y0135677D01*
X0344123Y0135677D01*
X0354753Y0135677D01*
X0314792Y0159496D02*
X0308296Y0153000D01*
X0301209Y0145913D01*
X0301013Y0145913D01*
X0294713Y0145913D01*
X0287036Y0145913D01*
X0282446Y0145913D01*
X0277391Y0155559D02*
X0270501Y0155559D01*
X0249044Y0131740D02*
X0243335Y0131740D01*
X0236249Y0131740D01*
X0227784Y0131740D01*
X0219910Y0131740D01*
X0212430Y0131740D01*
X0204753Y0131740D01*
X0197469Y0131740D01*
X0193729Y0128000D01*
X0193532Y0128000D01*
X0188308Y0128000D01*
X0188284Y0127976D01*
X0166564Y0139417D02*
X0162627Y0139417D01*
X0167548Y0153000D02*
X0167548Y0157921D01*
X0167548Y0159299D01*
X0171879Y0163630D01*
X0182115Y0163630D01*
X0191367Y0163630D01*
X0200816Y0163630D01*
X0209477Y0163630D01*
X0209674Y0163630D01*
X0216957Y0170913D01*
X0223847Y0177803D01*
X0163650Y0178315D02*
X0163532Y0178197D01*
X0157115Y0178197D01*
X0149044Y0178197D01*
X0143139Y0172291D01*
X0136839Y0165992D01*
X0129753Y0158906D01*
X0121485Y0158906D01*
X0111839Y0158906D01*
X0101013Y0158906D01*
X0100816Y0158906D01*
X0092548Y0150638D01*
X0092548Y0144142D01*
X0097272Y0144142D01*
X0122272Y0137252D02*
X0122272Y0132528D01*
X0116761Y0119535D02*
X0119517Y0116780D01*
X0123257Y0116780D01*
X0130146Y0116780D01*
X0138020Y0116780D01*
X0144910Y0116780D01*
X0152391Y0116780D01*
X0152587Y0116780D01*
X0155934Y0120126D01*
X0158296Y0120126D01*
X0165186Y0092567D02*
X0165186Y0087646D01*
X0159280Y0081150D02*
X0163611Y0076819D01*
X0171091Y0076819D01*
X0178769Y0076819D01*
X0186249Y0076819D01*
X0194320Y0076819D01*
X0202587Y0076819D01*
X0202784Y0076819D01*
X0207509Y0072094D01*
X0208099Y0072094D01*
X0217942Y0072094D01*
X0218139Y0071898D01*
X0223847Y0066189D01*
X0191761Y0085677D02*
X0191761Y0089811D01*
X0183422Y0089882D02*
X0183422Y0085803D01*
X0159280Y0081150D02*
X0154162Y0086268D01*
X0149044Y0091386D01*
X0147076Y0093354D01*
X0141761Y0093354D01*
X0133493Y0093354D01*
X0126800Y0093354D01*
X0121879Y0076819D02*
X0114398Y0076819D01*
X0105146Y0076819D01*
X0097666Y0076819D01*
X0089398Y0076819D01*
X0083099Y0083118D01*
X0076209Y0090008D01*
X0068729Y0097488D01*
X0068335Y0097291D02*
X0068335Y0104575D01*
X0082115Y0107528D02*
X0082115Y0112055D01*
X0090186Y0112252D02*
X0090186Y0107528D01*
X0092280Y0096567D02*
X0087887Y0096567D01*
X0121879Y0076819D02*
X0127391Y0071307D01*
X0132312Y0066386D01*
X0140383Y0066386D01*
X0148847Y0066386D01*
X0155934Y0066386D01*
X0163532Y0066386D01*
X0163650Y0066268D01*
X0169320Y0018748D02*
X0169320Y0011465D01*
X0187430Y0011465D02*
X0187430Y0018748D01*
X0201800Y0011858D02*
X0209871Y0011858D01*
X0308493Y0034890D02*
X0316761Y0034890D01*
X0331721Y0036858D02*
X0331721Y0027016D01*
X0350619Y0027016D02*
X0350619Y0036858D01*
X0351446Y0066268D02*
X0351406Y0066307D01*
X0351406Y0075047D01*
X0351406Y0078394D01*
X0354950Y0081937D01*
X0359871Y0086858D01*
X0361249Y0088236D01*
X0361249Y0093354D01*
X0361249Y0099850D01*
X0361249Y0100047D01*
X0357509Y0103787D01*
X0349438Y0103787D01*
X0340383Y0103787D01*
X0332312Y0103787D01*
X0331524Y0103787D01*
X0326603Y0098866D01*
X0324831Y0097094D01*
X0318532Y0097094D01*
X0310068Y0097094D01*
X0301603Y0097094D01*
X0294320Y0097094D01*
X0286643Y0097094D01*
X0284280Y0097094D01*
X0281131Y0100244D01*
X0293139Y0114024D02*
X0293139Y0118551D01*
X0307115Y0121504D02*
X0307115Y0128394D01*
X0314792Y0159496D02*
X0320894Y0165598D01*
X0321446Y0166150D01*
X0321446Y0178315D01*
X0089989Y0129181D02*
X0089989Y0124654D01*
X0081721Y0124654D02*
X0081721Y0129181D01*
X0066170Y0148079D02*
X0058493Y0148079D01*
D26*
X0017548Y0140008D03*
X0017548Y0183315D03*
X0017548Y0061268D03*
X0017548Y0017961D03*
X0261643Y0061268D03*
X0293139Y0061268D03*
X0293139Y0183315D03*
X0261643Y0183315D03*
D27*
X0379753Y0183315D03*
X0379753Y0140008D03*
X0379753Y0061268D03*
X0379753Y0017961D03*
D28*
X0167548Y0157921D03*
D29*
X0249241Y0097291D03*
X0307115Y0128394D03*
M02*
