G75*
%MOIN*%
%OFA0B0*%
%FSLAX25Y25*%
%IPPOS*%
%LPD*%
%AMOC8*
5,1,8,0,0,1.08239X$1,22.5*
%
%ADD10C,0.00591*%
%ADD11C,0.00400*%
%ADD12C,0.00600*%
%ADD13C,0.00500*%
%ADD14C,0.00800*%
D10*
X0001800Y0002213D02*
X0001800Y0206937D01*
X0395501Y0206937D01*
X0395501Y0002213D01*
X0001800Y0002213D01*
D11*
X0063024Y0011074D02*
X0063024Y0014614D01*
X0063614Y0012844D02*
X0065384Y0011074D01*
X0066649Y0011664D02*
X0067239Y0011074D01*
X0068419Y0011074D01*
X0069009Y0011664D01*
X0069009Y0012844D01*
X0068419Y0013434D01*
X0067239Y0013434D01*
X0066649Y0012844D01*
X0066649Y0011664D01*
X0065384Y0014614D02*
X0063024Y0012254D01*
X0070274Y0011074D02*
X0070274Y0013434D01*
X0072044Y0013434D01*
X0072634Y0012844D01*
X0072634Y0011074D01*
X0074489Y0011664D02*
X0075079Y0011074D01*
X0074489Y0011664D02*
X0074489Y0014024D01*
X0073899Y0013434D02*
X0075079Y0013434D01*
X0076316Y0013434D02*
X0076316Y0011074D01*
X0076316Y0012254D02*
X0077496Y0013434D01*
X0078086Y0013434D01*
X0079337Y0012844D02*
X0079337Y0011664D01*
X0079927Y0011074D01*
X0081107Y0011074D01*
X0081697Y0011664D01*
X0081697Y0012844D01*
X0081107Y0013434D01*
X0079927Y0013434D01*
X0079337Y0012844D01*
X0082962Y0011074D02*
X0084142Y0011074D01*
X0083552Y0011074D02*
X0083552Y0014614D01*
X0082962Y0014614D01*
X0085379Y0014614D02*
X0085969Y0014614D01*
X0085969Y0011074D01*
X0085379Y0011074D02*
X0086559Y0011074D01*
X0087795Y0011074D02*
X0089565Y0011074D01*
X0090155Y0011664D01*
X0090155Y0012844D01*
X0089565Y0013434D01*
X0087795Y0013434D01*
X0087795Y0014614D02*
X0087795Y0011074D01*
X0091421Y0011074D02*
X0092601Y0011074D01*
X0092011Y0011074D02*
X0092011Y0014614D01*
X0091421Y0014614D01*
X0094427Y0013434D02*
X0095607Y0013434D01*
X0096197Y0012844D01*
X0096197Y0011074D01*
X0094427Y0011074D01*
X0093837Y0011664D01*
X0094427Y0012254D01*
X0096197Y0012254D01*
X0097462Y0011664D02*
X0097462Y0012844D01*
X0098052Y0013434D01*
X0099822Y0013434D01*
X0099822Y0014614D02*
X0099822Y0011074D01*
X0098052Y0011074D01*
X0097462Y0011664D01*
X0101088Y0011664D02*
X0101088Y0012844D01*
X0101678Y0013434D01*
X0103448Y0013434D01*
X0103448Y0014614D02*
X0103448Y0011074D01*
X0101678Y0011074D01*
X0101088Y0011664D01*
X0104713Y0011074D02*
X0104713Y0013434D01*
X0106483Y0013434D01*
X0107073Y0012844D01*
X0107073Y0011074D01*
X0165183Y0036546D02*
X0165773Y0035956D01*
X0166953Y0035956D01*
X0167543Y0036546D01*
X0168808Y0036546D02*
X0168808Y0035956D01*
X0168808Y0036546D02*
X0171168Y0038906D01*
X0171168Y0039496D01*
X0168808Y0039496D01*
X0167543Y0038906D02*
X0166953Y0039496D01*
X0165773Y0039496D01*
X0165183Y0038906D01*
X0165183Y0036546D01*
X0182424Y0036546D02*
X0183014Y0035956D01*
X0184194Y0035956D01*
X0184784Y0036546D01*
X0186049Y0035956D02*
X0188409Y0038316D01*
X0188409Y0038906D01*
X0187819Y0039496D01*
X0186639Y0039496D01*
X0186049Y0038906D01*
X0184784Y0038906D02*
X0184194Y0039496D01*
X0183014Y0039496D01*
X0182424Y0038906D01*
X0182424Y0036546D01*
X0186049Y0035956D02*
X0188409Y0035956D01*
X0189674Y0036546D02*
X0192034Y0038906D01*
X0192034Y0036546D01*
X0191444Y0035956D01*
X0190264Y0035956D01*
X0189674Y0036546D01*
X0189674Y0038906D01*
X0190264Y0039496D01*
X0191444Y0039496D01*
X0192034Y0038906D01*
X0206128Y0039496D02*
X0206128Y0037136D01*
X0206718Y0036546D01*
X0207898Y0036546D01*
X0208488Y0037136D01*
X0209753Y0037136D02*
X0209753Y0037726D01*
X0210343Y0038316D01*
X0211523Y0038316D01*
X0212113Y0037726D01*
X0212113Y0037136D01*
X0211523Y0036546D01*
X0210343Y0036546D01*
X0209753Y0037136D01*
X0210343Y0038316D02*
X0209753Y0038906D01*
X0209753Y0039496D01*
X0210343Y0040086D01*
X0211523Y0040086D01*
X0212113Y0039496D01*
X0212113Y0038906D01*
X0211523Y0038316D01*
X0208488Y0039496D02*
X0207898Y0040086D01*
X0206718Y0040086D01*
X0206128Y0039496D01*
X0157350Y0061663D02*
X0154990Y0061663D01*
X0153724Y0062253D02*
X0151954Y0062253D01*
X0151364Y0061663D01*
X0151954Y0061073D01*
X0153134Y0061073D01*
X0153724Y0060483D01*
X0153134Y0059893D01*
X0151364Y0059893D01*
X0150099Y0059893D02*
X0148329Y0059893D01*
X0147739Y0060483D01*
X0147739Y0061663D01*
X0148329Y0062253D01*
X0150099Y0062253D01*
X0150099Y0059303D01*
X0149509Y0058713D01*
X0148919Y0058713D01*
X0146474Y0059893D02*
X0146474Y0061663D01*
X0145884Y0062253D01*
X0144114Y0062253D01*
X0144114Y0059893D01*
X0142849Y0059893D02*
X0142849Y0061663D01*
X0142259Y0062253D01*
X0141079Y0062253D01*
X0141079Y0061073D02*
X0142849Y0061073D01*
X0142849Y0059893D02*
X0141079Y0059893D01*
X0140489Y0060483D01*
X0141079Y0061073D01*
X0139224Y0062253D02*
X0139224Y0059303D01*
X0138634Y0058713D01*
X0138044Y0058713D01*
X0137454Y0059893D02*
X0139224Y0059893D01*
X0137454Y0059893D02*
X0136864Y0060483D01*
X0136864Y0061663D01*
X0137454Y0062253D01*
X0139224Y0062253D01*
X0135599Y0061663D02*
X0135599Y0059893D01*
X0135599Y0061663D02*
X0135009Y0062253D01*
X0133239Y0062253D01*
X0133239Y0059893D01*
X0132002Y0059893D02*
X0130822Y0059893D01*
X0131412Y0059893D02*
X0131412Y0062253D01*
X0130822Y0062253D01*
X0131412Y0063433D02*
X0131412Y0064023D01*
X0131412Y0065798D02*
X0130822Y0066388D01*
X0130822Y0067568D01*
X0131412Y0068158D01*
X0132592Y0068158D01*
X0133182Y0067568D01*
X0133182Y0066978D01*
X0130822Y0066978D01*
X0131412Y0065798D02*
X0132592Y0065798D01*
X0134447Y0066388D02*
X0135037Y0065798D01*
X0136807Y0065798D01*
X0138072Y0065798D02*
X0138072Y0069338D01*
X0138662Y0068158D02*
X0139842Y0068158D01*
X0140432Y0067568D01*
X0140432Y0065798D01*
X0142287Y0066388D02*
X0142877Y0065798D01*
X0142287Y0066388D02*
X0142287Y0068748D01*
X0141697Y0068158D02*
X0142877Y0068158D01*
X0144114Y0067568D02*
X0144114Y0066388D01*
X0144704Y0065798D01*
X0145884Y0065798D01*
X0146474Y0066978D02*
X0144114Y0066978D01*
X0144114Y0067568D02*
X0144704Y0068158D01*
X0145884Y0068158D01*
X0146474Y0067568D01*
X0146474Y0066978D01*
X0138662Y0068158D02*
X0138072Y0067568D01*
X0136807Y0068158D02*
X0135037Y0068158D01*
X0134447Y0067568D01*
X0134447Y0066388D01*
X0129557Y0065798D02*
X0128377Y0066978D01*
X0128967Y0066978D02*
X0127197Y0066978D01*
X0127197Y0065798D02*
X0127197Y0069338D01*
X0128967Y0069338D01*
X0129557Y0068748D01*
X0129557Y0067568D01*
X0128967Y0066978D01*
X0129557Y0063433D02*
X0127197Y0063433D01*
X0127197Y0059893D01*
X0129557Y0059893D01*
X0128377Y0061663D02*
X0127197Y0061663D01*
X0127197Y0057527D02*
X0127197Y0053987D01*
X0128967Y0053987D01*
X0129557Y0054577D01*
X0129557Y0055757D01*
X0128967Y0056347D01*
X0127197Y0056347D01*
X0130822Y0057527D02*
X0131412Y0057527D01*
X0131412Y0053987D01*
X0130822Y0053987D02*
X0132002Y0053987D01*
X0133239Y0054577D02*
X0133829Y0053987D01*
X0135599Y0053987D01*
X0135599Y0055757D01*
X0135009Y0056347D01*
X0133829Y0056347D01*
X0133829Y0055167D02*
X0135599Y0055167D01*
X0136864Y0054577D02*
X0136864Y0055757D01*
X0137454Y0056347D01*
X0139224Y0056347D01*
X0139224Y0057527D02*
X0139224Y0053987D01*
X0137454Y0053987D01*
X0136864Y0054577D01*
X0133829Y0055167D02*
X0133239Y0054577D01*
X0140489Y0054577D02*
X0141079Y0053987D01*
X0142849Y0053987D01*
X0142849Y0057527D01*
X0142849Y0056347D02*
X0141079Y0056347D01*
X0140489Y0055757D01*
X0140489Y0054577D01*
X0144114Y0053987D02*
X0144114Y0056347D01*
X0145884Y0056347D01*
X0146474Y0055757D01*
X0146474Y0053987D01*
X0159440Y0072968D02*
X0158850Y0073558D01*
X0159440Y0072968D02*
X0160620Y0072968D01*
X0161210Y0073558D01*
X0161210Y0074148D01*
X0160620Y0074738D01*
X0159440Y0074738D01*
X0158850Y0075328D01*
X0158850Y0075918D01*
X0159440Y0076508D01*
X0160620Y0076508D01*
X0161210Y0075918D01*
X0162476Y0076508D02*
X0162476Y0074148D01*
X0163656Y0072968D01*
X0164836Y0074148D01*
X0164836Y0076508D01*
X0166101Y0075918D02*
X0166691Y0076508D01*
X0167871Y0076508D01*
X0168461Y0075918D01*
X0168461Y0075328D01*
X0166101Y0072968D01*
X0168461Y0072968D01*
X0170961Y0087415D02*
X0173321Y0087415D01*
X0173911Y0088005D01*
X0173911Y0089185D01*
X0173321Y0089775D01*
X0173911Y0091040D02*
X0173911Y0093400D01*
X0173911Y0092220D02*
X0170371Y0092220D01*
X0171551Y0091040D01*
X0170961Y0089775D02*
X0170371Y0089185D01*
X0170371Y0088005D01*
X0170961Y0087415D01*
X0175088Y0087511D02*
X0175088Y0089281D01*
X0175678Y0089871D01*
X0176858Y0089871D01*
X0177448Y0089281D01*
X0177448Y0087511D01*
X0178628Y0087511D02*
X0175088Y0087511D01*
X0177448Y0088691D02*
X0178628Y0089871D01*
X0176858Y0091136D02*
X0176858Y0093496D01*
X0176268Y0094761D02*
X0176858Y0095351D01*
X0176858Y0097121D01*
X0178038Y0097121D02*
X0175678Y0097121D01*
X0175088Y0096531D01*
X0175088Y0095351D01*
X0175678Y0094761D01*
X0176268Y0094761D01*
X0178038Y0094761D02*
X0178628Y0095351D01*
X0178628Y0096531D01*
X0178038Y0097121D01*
X0173911Y0096435D02*
X0170371Y0096435D01*
X0172141Y0094665D01*
X0172141Y0097025D01*
X0175088Y0092906D02*
X0176858Y0091136D01*
X0178628Y0092906D02*
X0175088Y0092906D01*
X0159809Y0093248D02*
X0158629Y0092068D01*
X0158629Y0092658D02*
X0158629Y0090888D01*
X0159809Y0090888D02*
X0156269Y0090888D01*
X0156269Y0092658D01*
X0156859Y0093248D01*
X0158039Y0093248D01*
X0158629Y0092658D01*
X0158039Y0094513D02*
X0158039Y0096873D01*
X0158039Y0098138D02*
X0157449Y0099318D01*
X0157449Y0099908D01*
X0158039Y0100498D01*
X0159219Y0100498D01*
X0159809Y0099908D01*
X0159809Y0098728D01*
X0159219Y0098138D01*
X0158039Y0098138D02*
X0156269Y0098138D01*
X0156269Y0100498D01*
X0156269Y0096283D02*
X0158039Y0094513D01*
X0159809Y0096283D02*
X0156269Y0096283D01*
X0149246Y0112820D02*
X0149246Y0114000D01*
X0149246Y0113410D02*
X0145706Y0113410D01*
X0145706Y0112820D02*
X0145706Y0114000D01*
X0146296Y0115237D02*
X0148656Y0115237D01*
X0149246Y0115827D01*
X0149246Y0117007D01*
X0148656Y0117597D01*
X0147476Y0118862D02*
X0145706Y0120632D01*
X0149246Y0120632D01*
X0147476Y0121222D02*
X0147476Y0118862D01*
X0146296Y0117597D02*
X0145706Y0117007D01*
X0145706Y0115827D01*
X0146296Y0115237D01*
X0121478Y0115237D02*
X0117938Y0115237D01*
X0117938Y0114647D02*
X0117938Y0115827D01*
X0118528Y0117064D02*
X0120888Y0117064D01*
X0121478Y0117654D01*
X0121478Y0118834D01*
X0120888Y0119424D01*
X0121478Y0120689D02*
X0121478Y0123049D01*
X0121478Y0121869D02*
X0117938Y0121869D01*
X0119118Y0120689D01*
X0118528Y0119424D02*
X0117938Y0118834D01*
X0117938Y0117654D01*
X0118528Y0117064D01*
X0121478Y0115827D02*
X0121478Y0114647D01*
X0121874Y0101618D02*
X0123054Y0101618D01*
X0123644Y0101028D01*
X0121284Y0098668D01*
X0121874Y0098078D01*
X0123054Y0098078D01*
X0123644Y0098668D01*
X0123644Y0101028D01*
X0121874Y0101618D02*
X0121284Y0101028D01*
X0121284Y0098668D01*
X0120019Y0098078D02*
X0117659Y0098078D01*
X0120019Y0100438D01*
X0120019Y0101028D01*
X0119429Y0101618D01*
X0118249Y0101618D01*
X0117659Y0101028D01*
X0116394Y0101028D02*
X0116394Y0099848D01*
X0115804Y0099258D01*
X0114034Y0099258D01*
X0115214Y0099258D02*
X0116394Y0098078D01*
X0114034Y0098078D02*
X0114034Y0101618D01*
X0115804Y0101618D01*
X0116394Y0101028D01*
X0100772Y0090996D02*
X0099592Y0090406D01*
X0098412Y0089226D01*
X0100182Y0089226D01*
X0100772Y0088636D01*
X0100772Y0088046D01*
X0100182Y0087456D01*
X0099002Y0087456D01*
X0098412Y0088046D01*
X0098412Y0089226D01*
X0097147Y0087456D02*
X0094787Y0087456D01*
X0095967Y0087456D02*
X0095967Y0090996D01*
X0094787Y0089816D01*
X0093521Y0090406D02*
X0093521Y0089226D01*
X0092931Y0088636D01*
X0091161Y0088636D01*
X0091161Y0087456D02*
X0091161Y0090996D01*
X0092931Y0090996D01*
X0093521Y0090406D01*
X0092341Y0088636D02*
X0093521Y0087456D01*
X0116035Y0086864D02*
X0117805Y0086864D01*
X0118395Y0087454D01*
X0118395Y0088634D01*
X0117805Y0089224D01*
X0116035Y0089224D01*
X0116035Y0085684D01*
X0117215Y0086864D02*
X0118395Y0085684D01*
X0119661Y0085684D02*
X0122021Y0088044D01*
X0122021Y0088634D01*
X0121431Y0089224D01*
X0120251Y0089224D01*
X0119661Y0088634D01*
X0119661Y0085684D02*
X0122021Y0085684D01*
X0123286Y0087454D02*
X0125646Y0087454D01*
X0125056Y0085684D02*
X0125056Y0089224D01*
X0123286Y0087454D01*
X0094462Y0102747D02*
X0093872Y0102157D01*
X0092692Y0102157D01*
X0092102Y0102747D01*
X0092102Y0103927D02*
X0093282Y0104517D01*
X0093872Y0104517D01*
X0094462Y0103927D01*
X0094462Y0102747D01*
X0092102Y0103927D02*
X0092102Y0105697D01*
X0094462Y0105697D01*
X0090836Y0105107D02*
X0090246Y0105697D01*
X0089066Y0105697D01*
X0088476Y0105107D01*
X0088476Y0102747D01*
X0089066Y0102157D01*
X0090246Y0102157D01*
X0090836Y0102747D01*
X0085406Y0102550D02*
X0084816Y0101960D01*
X0083636Y0101960D01*
X0083046Y0102550D01*
X0083046Y0103730D01*
X0084816Y0103730D01*
X0085406Y0103140D01*
X0085406Y0102550D01*
X0084226Y0104910D02*
X0083046Y0103730D01*
X0084226Y0104910D02*
X0085406Y0105500D01*
X0081781Y0104910D02*
X0081191Y0105500D01*
X0080011Y0105500D01*
X0079421Y0104910D01*
X0079421Y0102550D01*
X0080011Y0101960D01*
X0081191Y0101960D01*
X0081781Y0102550D01*
X0058214Y0106655D02*
X0057624Y0106065D01*
X0055264Y0106065D01*
X0054674Y0106655D01*
X0054674Y0107835D01*
X0055264Y0108425D01*
X0055264Y0109690D02*
X0054674Y0110280D01*
X0054674Y0111460D01*
X0055264Y0112050D01*
X0055854Y0112050D01*
X0058214Y0109690D01*
X0058214Y0112050D01*
X0058214Y0113315D02*
X0055854Y0115675D01*
X0055264Y0115675D01*
X0054674Y0115085D01*
X0054674Y0113905D01*
X0055264Y0113315D01*
X0058214Y0113315D02*
X0058214Y0115675D01*
X0057624Y0108425D02*
X0058214Y0107835D01*
X0058214Y0106655D01*
X0053883Y0095917D02*
X0053883Y0093557D01*
X0053883Y0094737D02*
X0050343Y0094737D01*
X0051523Y0093557D01*
X0050933Y0092292D02*
X0052113Y0092292D01*
X0052703Y0091702D01*
X0052703Y0089932D01*
X0052703Y0091112D02*
X0053883Y0092292D01*
X0053883Y0089932D02*
X0050343Y0089932D01*
X0050343Y0091702D01*
X0050933Y0092292D01*
X0024041Y0093833D02*
X0021681Y0093833D01*
X0022861Y0093833D02*
X0021681Y0095013D01*
X0021681Y0095603D01*
X0021681Y0097444D02*
X0021681Y0098624D01*
X0022271Y0099214D01*
X0024041Y0099214D01*
X0024041Y0097444D01*
X0023451Y0096854D01*
X0022861Y0097444D01*
X0022861Y0099214D01*
X0024041Y0100479D02*
X0021681Y0100479D01*
X0021681Y0102249D01*
X0022271Y0102839D01*
X0024041Y0102839D01*
X0023451Y0104104D02*
X0024041Y0104694D01*
X0024041Y0106464D01*
X0024631Y0106464D02*
X0021681Y0106464D01*
X0021681Y0104694D01*
X0022271Y0104104D01*
X0023451Y0104104D01*
X0025221Y0105284D02*
X0025221Y0105874D01*
X0024631Y0106464D01*
X0023451Y0107729D02*
X0024041Y0108319D01*
X0024041Y0110089D01*
X0024631Y0110089D02*
X0021681Y0110089D01*
X0021681Y0108319D01*
X0022271Y0107729D01*
X0023451Y0107729D01*
X0025221Y0108909D02*
X0025221Y0109499D01*
X0024631Y0110089D01*
X0024041Y0111355D02*
X0021681Y0111355D01*
X0021681Y0113125D01*
X0022271Y0113715D01*
X0024041Y0113715D01*
X0012230Y0110736D02*
X0009280Y0110736D01*
X0008690Y0111326D01*
X0010460Y0111326D02*
X0010460Y0110146D01*
X0009870Y0108895D02*
X0009870Y0108305D01*
X0011050Y0107125D01*
X0012230Y0107125D02*
X0009870Y0107125D01*
X0010460Y0105860D02*
X0009870Y0105270D01*
X0009870Y0104090D01*
X0010460Y0103500D01*
X0011640Y0103500D01*
X0012230Y0104090D01*
X0012230Y0105270D01*
X0011640Y0105860D01*
X0010460Y0105860D01*
X0009870Y0102235D02*
X0011640Y0102235D01*
X0012230Y0101645D01*
X0011640Y0101055D01*
X0012230Y0100465D01*
X0011640Y0099875D01*
X0009870Y0099875D01*
X0009870Y0098638D02*
X0009870Y0097458D01*
X0009280Y0098048D02*
X0011640Y0098048D01*
X0012230Y0098638D01*
X0012230Y0096193D02*
X0010460Y0096193D01*
X0009870Y0095603D01*
X0009870Y0093833D01*
X0012230Y0093833D01*
X0012230Y0092568D02*
X0012230Y0090208D01*
X0008690Y0090208D01*
X0008690Y0092568D01*
X0010460Y0091388D02*
X0010460Y0090208D01*
X0014005Y0090798D02*
X0014595Y0090798D01*
X0015775Y0090798D02*
X0018135Y0090798D01*
X0018135Y0090208D02*
X0018135Y0091388D01*
X0018135Y0092625D02*
X0015775Y0092625D01*
X0015775Y0094395D01*
X0016365Y0094985D01*
X0018135Y0094985D01*
X0020501Y0092568D02*
X0020501Y0090208D01*
X0024041Y0090208D01*
X0022271Y0090208D02*
X0022271Y0091388D01*
X0015775Y0090798D02*
X0015775Y0090208D01*
X0035379Y0068480D02*
X0035969Y0067300D01*
X0037149Y0066120D01*
X0037149Y0067890D01*
X0037739Y0068480D01*
X0038329Y0068480D01*
X0038919Y0067890D01*
X0038919Y0066710D01*
X0038329Y0066120D01*
X0037149Y0066120D01*
X0037739Y0064854D02*
X0035379Y0064854D01*
X0037739Y0064854D02*
X0038919Y0063674D01*
X0037739Y0062494D01*
X0035379Y0062494D01*
X0035969Y0061229D02*
X0035379Y0060639D01*
X0035379Y0059459D01*
X0035969Y0058869D01*
X0036559Y0058869D01*
X0037149Y0059459D01*
X0037149Y0060639D01*
X0037739Y0061229D01*
X0038329Y0061229D01*
X0038919Y0060639D01*
X0038919Y0059459D01*
X0038329Y0058869D01*
X0069260Y0129749D02*
X0071620Y0129749D01*
X0072210Y0130339D01*
X0072210Y0131519D01*
X0071620Y0132109D01*
X0072210Y0133374D02*
X0069850Y0135734D01*
X0069260Y0135734D01*
X0068670Y0135144D01*
X0068670Y0133964D01*
X0069260Y0133374D01*
X0069260Y0132109D02*
X0068670Y0131519D01*
X0068670Y0130339D01*
X0069260Y0129749D01*
X0073316Y0130621D02*
X0073316Y0131801D01*
X0073906Y0132391D01*
X0074496Y0133656D02*
X0073316Y0134836D01*
X0076856Y0134836D01*
X0076856Y0133656D02*
X0076856Y0136016D01*
X0072210Y0135734D02*
X0072210Y0133374D01*
X0073316Y0130621D02*
X0073906Y0130031D01*
X0076266Y0130031D01*
X0076856Y0130621D01*
X0076856Y0131801D01*
X0076266Y0132391D01*
X0066686Y0137373D02*
X0066686Y0137963D01*
X0066096Y0138553D01*
X0065506Y0138553D01*
X0066096Y0138553D02*
X0066686Y0139143D01*
X0066686Y0139733D01*
X0066096Y0140323D01*
X0064916Y0140323D01*
X0064326Y0139733D01*
X0063061Y0139733D02*
X0062471Y0140323D01*
X0061291Y0140323D01*
X0060701Y0139733D01*
X0060701Y0137373D01*
X0061291Y0136783D01*
X0062471Y0136783D01*
X0063061Y0137373D01*
X0064326Y0137373D02*
X0064916Y0136783D01*
X0066096Y0136783D01*
X0066686Y0137373D01*
X0085343Y0146028D02*
X0085343Y0147798D01*
X0085933Y0148388D01*
X0087113Y0148388D01*
X0087703Y0147798D01*
X0087703Y0146028D01*
X0088883Y0146028D02*
X0085343Y0146028D01*
X0087703Y0147208D02*
X0088883Y0148388D01*
X0088883Y0149654D02*
X0086523Y0152014D01*
X0085933Y0152014D01*
X0085343Y0151424D01*
X0085343Y0150244D01*
X0085933Y0149654D01*
X0088883Y0149654D02*
X0088883Y0152014D01*
X0097138Y0151957D02*
X0097138Y0148417D01*
X0097138Y0149597D02*
X0098908Y0149597D01*
X0099498Y0150187D01*
X0099498Y0151367D01*
X0098908Y0151957D01*
X0097138Y0151957D01*
X0098318Y0149597D02*
X0099498Y0148417D01*
X0100763Y0150187D02*
X0102533Y0151957D01*
X0102533Y0148417D01*
X0103123Y0150187D02*
X0100763Y0150187D01*
X0112395Y0149439D02*
X0112395Y0147669D01*
X0115935Y0147669D01*
X0114755Y0147669D02*
X0114755Y0149439D01*
X0114165Y0150029D01*
X0112985Y0150029D01*
X0112395Y0149439D01*
X0112985Y0151294D02*
X0113575Y0151294D01*
X0114165Y0151884D01*
X0114165Y0153064D01*
X0114755Y0153654D01*
X0115345Y0153654D01*
X0115935Y0153064D01*
X0115935Y0151884D01*
X0115345Y0151294D01*
X0114755Y0151294D01*
X0114165Y0151884D01*
X0114165Y0153064D02*
X0113575Y0153654D01*
X0112985Y0153654D01*
X0112395Y0153064D01*
X0112395Y0151884D01*
X0112985Y0151294D01*
X0114755Y0148849D02*
X0115935Y0150029D01*
X0121426Y0149350D02*
X0121426Y0147580D01*
X0124966Y0147580D01*
X0123786Y0147580D02*
X0123786Y0149350D01*
X0123196Y0149940D01*
X0122016Y0149940D01*
X0121426Y0149350D01*
X0122606Y0151206D02*
X0121426Y0152386D01*
X0124966Y0152386D01*
X0124966Y0151206D02*
X0124966Y0153566D01*
X0124966Y0154831D02*
X0122606Y0157191D01*
X0122016Y0157191D01*
X0121426Y0156601D01*
X0121426Y0155421D01*
X0122016Y0154831D01*
X0124966Y0154831D02*
X0124966Y0157191D01*
X0124966Y0149940D02*
X0123786Y0148760D01*
X0149136Y0139674D02*
X0149136Y0137314D01*
X0149726Y0136724D01*
X0150906Y0136724D01*
X0151496Y0137314D01*
X0152762Y0136724D02*
X0155122Y0136724D01*
X0153942Y0136724D02*
X0153942Y0140264D01*
X0152762Y0139084D01*
X0151496Y0139674D02*
X0150906Y0140264D01*
X0149726Y0140264D01*
X0149136Y0139674D01*
X0156387Y0140264D02*
X0156387Y0138494D01*
X0157567Y0139084D01*
X0158157Y0139084D01*
X0158747Y0138494D01*
X0158747Y0137314D01*
X0158157Y0136724D01*
X0156977Y0136724D01*
X0156387Y0137314D01*
X0156387Y0140264D02*
X0158747Y0140264D01*
X0166308Y0156832D02*
X0166308Y0158602D01*
X0166898Y0159192D01*
X0168078Y0159192D01*
X0168668Y0158602D01*
X0168668Y0156832D01*
X0169848Y0156832D02*
X0166308Y0156832D01*
X0168668Y0158012D02*
X0169848Y0159192D01*
X0168078Y0160458D02*
X0168078Y0162818D01*
X0169258Y0164083D02*
X0169848Y0164083D01*
X0169258Y0164083D02*
X0166898Y0166443D01*
X0166308Y0166443D01*
X0166308Y0164083D01*
X0166308Y0162228D02*
X0168078Y0160458D01*
X0169848Y0162228D02*
X0166308Y0162228D01*
X0173906Y0162198D02*
X0175676Y0160427D01*
X0175676Y0162788D01*
X0175676Y0164053D02*
X0175676Y0165823D01*
X0176266Y0166413D01*
X0176856Y0166413D01*
X0177446Y0165823D01*
X0177446Y0164643D01*
X0176856Y0164053D01*
X0175676Y0164053D01*
X0174496Y0165233D01*
X0173906Y0166413D01*
X0174512Y0168472D02*
X0175692Y0169652D01*
X0175692Y0172012D01*
X0176958Y0170832D02*
X0178138Y0172012D01*
X0178138Y0168472D01*
X0176958Y0168472D02*
X0179318Y0168472D01*
X0174512Y0168472D02*
X0173332Y0169652D01*
X0173332Y0172012D01*
X0172067Y0171422D02*
X0171477Y0172012D01*
X0170297Y0172012D01*
X0169707Y0171422D01*
X0169707Y0170832D01*
X0170297Y0170242D01*
X0171477Y0170242D01*
X0172067Y0169652D01*
X0172067Y0169062D01*
X0171477Y0168472D01*
X0170297Y0168472D01*
X0169707Y0169062D01*
X0173906Y0162198D02*
X0177446Y0162198D01*
X0177446Y0159162D02*
X0176266Y0157982D01*
X0176266Y0158572D02*
X0176266Y0156802D01*
X0177446Y0156802D02*
X0173906Y0156802D01*
X0173906Y0158572D01*
X0174496Y0159162D01*
X0175676Y0159162D01*
X0176266Y0158572D01*
X0186505Y0158966D02*
X0186505Y0157196D01*
X0190045Y0157196D01*
X0188865Y0157196D02*
X0188865Y0158966D01*
X0188275Y0159556D01*
X0187095Y0159556D01*
X0186505Y0158966D01*
X0188865Y0158376D02*
X0190045Y0159556D01*
X0188275Y0160821D02*
X0186505Y0162591D01*
X0190045Y0162591D01*
X0188275Y0163181D02*
X0188275Y0160821D01*
X0189455Y0164446D02*
X0190045Y0165036D01*
X0190045Y0166216D01*
X0189455Y0166806D01*
X0188865Y0166806D01*
X0188275Y0166216D01*
X0188275Y0165626D01*
X0188275Y0166216D02*
X0187685Y0166806D01*
X0187095Y0166806D01*
X0186505Y0166216D01*
X0186505Y0165036D01*
X0187095Y0164446D01*
X0194969Y0164643D02*
X0195559Y0164053D01*
X0194969Y0164643D02*
X0194969Y0165823D01*
X0195559Y0166413D01*
X0196149Y0166413D01*
X0198509Y0164053D01*
X0198509Y0166413D01*
X0203237Y0165233D02*
X0206777Y0165233D01*
X0206777Y0164053D02*
X0206777Y0166413D01*
X0204417Y0164053D02*
X0203237Y0165233D01*
X0205007Y0162788D02*
X0205007Y0160427D01*
X0203237Y0162198D01*
X0206777Y0162198D01*
X0206777Y0159162D02*
X0205597Y0157982D01*
X0205597Y0158572D02*
X0205597Y0156802D01*
X0206777Y0156802D02*
X0203237Y0156802D01*
X0203237Y0158572D01*
X0203827Y0159162D01*
X0205007Y0159162D01*
X0205597Y0158572D01*
X0198509Y0159162D02*
X0197329Y0157982D01*
X0197329Y0158572D02*
X0197329Y0156802D01*
X0198509Y0156802D02*
X0194969Y0156802D01*
X0194969Y0158572D01*
X0195559Y0159162D01*
X0196739Y0159162D01*
X0197329Y0158572D01*
X0196739Y0160427D02*
X0196739Y0162788D01*
X0198509Y0162198D02*
X0194969Y0162198D01*
X0196739Y0160427D01*
X0242640Y0148138D02*
X0242640Y0145778D01*
X0243230Y0145188D01*
X0244410Y0145188D01*
X0245000Y0145778D01*
X0246265Y0145188D02*
X0248625Y0147548D01*
X0248625Y0148138D01*
X0248035Y0148728D01*
X0246855Y0148728D01*
X0246265Y0148138D01*
X0245000Y0148138D02*
X0244410Y0148728D01*
X0243230Y0148728D01*
X0242640Y0148138D01*
X0246265Y0145188D02*
X0248625Y0145188D01*
X0249891Y0145778D02*
X0250481Y0145188D01*
X0251661Y0145188D01*
X0252251Y0145778D01*
X0252251Y0146368D01*
X0251661Y0146958D01*
X0251071Y0146958D01*
X0251661Y0146958D02*
X0252251Y0147548D01*
X0252251Y0148138D01*
X0251661Y0148728D01*
X0250481Y0148728D01*
X0249891Y0148138D01*
X0281657Y0151629D02*
X0281657Y0155169D01*
X0283427Y0155169D01*
X0284017Y0154579D01*
X0284017Y0153399D01*
X0283427Y0152809D01*
X0281657Y0152809D01*
X0282837Y0152809D02*
X0284017Y0151629D01*
X0285283Y0152219D02*
X0285873Y0151629D01*
X0287053Y0151629D01*
X0287643Y0152219D01*
X0287643Y0152809D01*
X0287053Y0153399D01*
X0286463Y0153399D01*
X0287053Y0153399D02*
X0287643Y0153989D01*
X0287643Y0154579D01*
X0287053Y0155169D01*
X0285873Y0155169D01*
X0285283Y0154579D01*
X0288908Y0154579D02*
X0288908Y0153989D01*
X0289498Y0153399D01*
X0290678Y0153399D01*
X0291268Y0152809D01*
X0291268Y0152219D01*
X0290678Y0151629D01*
X0289498Y0151629D01*
X0288908Y0152219D01*
X0288908Y0152809D01*
X0289498Y0153399D01*
X0290678Y0153399D02*
X0291268Y0153989D01*
X0291268Y0154579D01*
X0290678Y0155169D01*
X0289498Y0155169D01*
X0288908Y0154579D01*
X0277644Y0166113D02*
X0277054Y0165523D01*
X0275874Y0165523D01*
X0275284Y0166113D01*
X0275284Y0167293D02*
X0276464Y0167883D01*
X0277054Y0167883D01*
X0277644Y0167293D01*
X0277644Y0166113D01*
X0275284Y0167293D02*
X0275284Y0169063D01*
X0277644Y0169063D01*
X0274019Y0168473D02*
X0274019Y0167293D01*
X0273429Y0166703D01*
X0271659Y0166703D01*
X0272839Y0166703D02*
X0274019Y0165523D01*
X0271659Y0165523D02*
X0271659Y0169063D01*
X0273429Y0169063D01*
X0274019Y0168473D01*
X0264012Y0166899D02*
X0261652Y0166899D01*
X0263422Y0168669D01*
X0263422Y0165129D01*
X0260387Y0165129D02*
X0258027Y0165129D01*
X0260387Y0167489D01*
X0260387Y0168079D01*
X0259797Y0168669D01*
X0258617Y0168669D01*
X0258027Y0168079D01*
X0256762Y0168079D02*
X0256172Y0168669D01*
X0254992Y0168669D01*
X0254402Y0168079D01*
X0254402Y0165719D01*
X0254992Y0165129D01*
X0256172Y0165129D01*
X0256762Y0165719D01*
X0285814Y0139807D02*
X0287584Y0139807D01*
X0288174Y0139217D01*
X0288174Y0138037D01*
X0287584Y0137447D01*
X0285814Y0137447D01*
X0286994Y0137447D02*
X0288174Y0136267D01*
X0289439Y0136267D02*
X0291799Y0138627D01*
X0291799Y0139217D01*
X0291209Y0139807D01*
X0290029Y0139807D01*
X0289439Y0139217D01*
X0289439Y0136267D02*
X0291799Y0136267D01*
X0293064Y0136857D02*
X0293064Y0137447D01*
X0293654Y0138037D01*
X0294834Y0138037D01*
X0295424Y0137447D01*
X0295424Y0136857D01*
X0294834Y0136267D01*
X0293654Y0136267D01*
X0293064Y0136857D01*
X0293654Y0138037D02*
X0293064Y0138627D01*
X0293064Y0139217D01*
X0293654Y0139807D01*
X0294834Y0139807D01*
X0295424Y0139217D01*
X0295424Y0138627D01*
X0294834Y0138037D01*
X0285814Y0136267D02*
X0285814Y0139807D01*
X0285269Y0126854D02*
X0284089Y0126854D01*
X0283499Y0126264D01*
X0283499Y0123904D01*
X0284089Y0123314D01*
X0285269Y0123314D01*
X0285859Y0123904D01*
X0287125Y0123314D02*
X0289485Y0125674D01*
X0289485Y0126264D01*
X0288895Y0126854D01*
X0287715Y0126854D01*
X0287125Y0126264D01*
X0285859Y0126264D02*
X0285269Y0126854D01*
X0282263Y0126854D02*
X0281083Y0126854D01*
X0281673Y0126854D02*
X0281673Y0123314D01*
X0281083Y0123314D02*
X0282263Y0123314D01*
X0287125Y0123314D02*
X0289485Y0123314D01*
X0253713Y0124399D02*
X0251353Y0124399D01*
X0253123Y0126169D01*
X0253123Y0122629D01*
X0250088Y0123219D02*
X0249498Y0122629D01*
X0248318Y0122629D01*
X0247728Y0123219D01*
X0247728Y0125579D01*
X0248318Y0126169D01*
X0249498Y0126169D01*
X0250088Y0125579D01*
X0282568Y0102831D02*
X0283158Y0103421D01*
X0283748Y0103421D01*
X0284338Y0102831D01*
X0284338Y0101651D01*
X0283748Y0101061D01*
X0283158Y0101061D01*
X0282568Y0101651D01*
X0282568Y0102831D01*
X0284338Y0102831D02*
X0284928Y0103421D01*
X0285518Y0103421D01*
X0286108Y0102831D01*
X0286108Y0101651D01*
X0285518Y0101061D01*
X0284928Y0101061D01*
X0284338Y0101651D01*
X0286108Y0099795D02*
X0286108Y0097435D01*
X0286108Y0098615D02*
X0282568Y0098615D01*
X0283748Y0097435D01*
X0283158Y0096170D02*
X0282568Y0095580D01*
X0282568Y0094400D01*
X0283158Y0093810D01*
X0285518Y0093810D01*
X0286108Y0094400D01*
X0286108Y0095580D01*
X0285518Y0096170D01*
X0291032Y0095580D02*
X0291032Y0094400D01*
X0291622Y0093810D01*
X0293982Y0093810D01*
X0294572Y0094400D01*
X0294572Y0095580D01*
X0293982Y0096170D01*
X0294572Y0097435D02*
X0294572Y0099795D01*
X0294572Y0098615D02*
X0291032Y0098615D01*
X0292212Y0097435D01*
X0291622Y0096170D02*
X0291032Y0095580D01*
X0302039Y0098003D02*
X0302629Y0097413D01*
X0303809Y0097413D01*
X0304399Y0098003D01*
X0305665Y0097413D02*
X0308025Y0099773D01*
X0308025Y0100363D01*
X0307435Y0100953D01*
X0306255Y0100953D01*
X0305665Y0100363D01*
X0304399Y0100363D02*
X0303809Y0100953D01*
X0302629Y0100953D01*
X0302039Y0100363D01*
X0302039Y0098003D01*
X0305665Y0097413D02*
X0308025Y0097413D01*
X0309290Y0098003D02*
X0309880Y0097413D01*
X0311060Y0097413D01*
X0311650Y0098003D01*
X0311650Y0099183D01*
X0311060Y0099773D01*
X0310470Y0099773D01*
X0309290Y0099183D01*
X0309290Y0100953D01*
X0311650Y0100953D01*
X0319494Y0100167D02*
X0321264Y0100167D01*
X0321854Y0100757D01*
X0321854Y0101937D01*
X0321264Y0102527D01*
X0319494Y0102527D01*
X0319494Y0098987D01*
X0320674Y0100167D02*
X0321854Y0098987D01*
X0323119Y0099577D02*
X0323709Y0098987D01*
X0324889Y0098987D01*
X0325479Y0099577D01*
X0325479Y0100167D01*
X0324889Y0100757D01*
X0324299Y0100757D01*
X0324889Y0100757D02*
X0325479Y0101347D01*
X0325479Y0101937D01*
X0324889Y0102527D01*
X0323709Y0102527D01*
X0323119Y0101937D01*
X0323654Y0090205D02*
X0325424Y0090205D01*
X0326014Y0089615D01*
X0326014Y0088435D01*
X0325424Y0087845D01*
X0323654Y0087845D01*
X0324834Y0087845D02*
X0326014Y0086665D01*
X0327279Y0087255D02*
X0327279Y0088435D01*
X0327869Y0089025D01*
X0329049Y0089025D01*
X0329639Y0088435D01*
X0329639Y0087845D01*
X0327279Y0087845D01*
X0327279Y0087255D02*
X0327869Y0086665D01*
X0329049Y0086665D01*
X0330904Y0087255D02*
X0330904Y0088435D01*
X0331494Y0089025D01*
X0333264Y0089025D01*
X0334529Y0088435D02*
X0335119Y0089025D01*
X0336299Y0089025D01*
X0336889Y0088435D01*
X0336889Y0086665D01*
X0338744Y0087255D02*
X0339334Y0086665D01*
X0338744Y0087255D02*
X0338744Y0089615D01*
X0338154Y0089025D02*
X0339334Y0089025D01*
X0340571Y0088435D02*
X0341161Y0089025D01*
X0342341Y0089025D01*
X0342931Y0088435D01*
X0342931Y0087845D01*
X0340571Y0087845D01*
X0340571Y0087255D02*
X0340571Y0088435D01*
X0340571Y0087255D02*
X0341161Y0086665D01*
X0342341Y0086665D01*
X0341779Y0083119D02*
X0343549Y0083119D01*
X0344139Y0082529D01*
X0344139Y0080759D01*
X0345404Y0081349D02*
X0345994Y0080759D01*
X0347764Y0080759D01*
X0347764Y0080169D02*
X0347764Y0083119D01*
X0345994Y0083119D01*
X0345404Y0082529D01*
X0345404Y0081349D01*
X0346584Y0079579D02*
X0347174Y0079579D01*
X0347764Y0080169D01*
X0349029Y0080759D02*
X0350799Y0080759D01*
X0351390Y0081349D01*
X0350799Y0081939D01*
X0349619Y0081939D01*
X0349029Y0082529D01*
X0349619Y0083119D01*
X0351390Y0083119D01*
X0352655Y0082529D02*
X0355015Y0082529D01*
X0342931Y0076624D02*
X0342931Y0074854D01*
X0342931Y0076624D02*
X0342341Y0077214D01*
X0340571Y0077214D01*
X0340571Y0074854D01*
X0339306Y0074854D02*
X0337536Y0074854D01*
X0336946Y0075444D01*
X0336946Y0076624D01*
X0337536Y0077214D01*
X0339306Y0077214D01*
X0339306Y0078394D02*
X0339306Y0074854D01*
X0335681Y0074854D02*
X0333911Y0074854D01*
X0333321Y0075444D01*
X0333321Y0076624D01*
X0333911Y0077214D01*
X0335681Y0077214D01*
X0335681Y0078394D02*
X0335681Y0074854D01*
X0332055Y0074854D02*
X0332055Y0076624D01*
X0331465Y0077214D01*
X0330285Y0077214D01*
X0330285Y0076034D02*
X0332055Y0076034D01*
X0332055Y0074854D02*
X0330285Y0074854D01*
X0329695Y0075444D01*
X0330285Y0076034D01*
X0328459Y0074854D02*
X0327279Y0074854D01*
X0327869Y0074854D02*
X0327869Y0078394D01*
X0327279Y0078394D01*
X0326014Y0076624D02*
X0325424Y0077214D01*
X0323654Y0077214D01*
X0323654Y0078394D02*
X0323654Y0074854D01*
X0325424Y0074854D01*
X0326014Y0075444D01*
X0326014Y0076624D01*
X0326014Y0080759D02*
X0326014Y0083119D01*
X0324834Y0084299D01*
X0323654Y0083119D01*
X0323654Y0080759D01*
X0323654Y0082529D02*
X0326014Y0082529D01*
X0327279Y0083119D02*
X0327279Y0081349D01*
X0327869Y0080759D01*
X0329639Y0080759D01*
X0329639Y0083119D01*
X0330904Y0082529D02*
X0331494Y0083119D01*
X0333264Y0083119D01*
X0332674Y0081939D02*
X0331494Y0081939D01*
X0330904Y0082529D01*
X0330904Y0080759D02*
X0332674Y0080759D01*
X0333264Y0081349D01*
X0332674Y0081939D01*
X0334529Y0082529D02*
X0334529Y0081349D01*
X0335119Y0080759D01*
X0336889Y0080759D01*
X0336889Y0080169D02*
X0336889Y0083119D01*
X0335119Y0083119D01*
X0334529Y0082529D01*
X0335709Y0079579D02*
X0336299Y0079579D01*
X0336889Y0080169D01*
X0338154Y0081349D02*
X0338744Y0081939D01*
X0340514Y0081939D01*
X0340514Y0082529D02*
X0340514Y0080759D01*
X0338744Y0080759D01*
X0338154Y0081349D01*
X0338744Y0083119D02*
X0339924Y0083119D01*
X0340514Y0082529D01*
X0341779Y0083119D02*
X0341779Y0080759D01*
X0334529Y0086665D02*
X0334529Y0090205D01*
X0333264Y0086665D02*
X0331494Y0086665D01*
X0330904Y0087255D01*
X0323654Y0086665D02*
X0323654Y0090205D01*
X0294572Y0101651D02*
X0294572Y0102831D01*
X0293982Y0103421D01*
X0291622Y0103421D01*
X0291032Y0102831D01*
X0291032Y0101651D01*
X0291622Y0101061D01*
X0292212Y0101061D01*
X0292802Y0101651D01*
X0292802Y0103421D01*
X0294572Y0101651D02*
X0293982Y0101061D01*
X0274298Y0091642D02*
X0273708Y0092232D01*
X0272528Y0092232D01*
X0271938Y0091642D01*
X0271938Y0091052D01*
X0272528Y0090462D01*
X0274298Y0090462D01*
X0274298Y0089282D02*
X0274298Y0091642D01*
X0274298Y0089282D02*
X0273708Y0088692D01*
X0272528Y0088692D01*
X0271938Y0089282D01*
X0270673Y0089282D02*
X0270673Y0089872D01*
X0270083Y0090462D01*
X0269493Y0090462D01*
X0270083Y0090462D02*
X0270673Y0091052D01*
X0270673Y0091642D01*
X0270083Y0092232D01*
X0268903Y0092232D01*
X0268313Y0091642D01*
X0267048Y0091642D02*
X0266458Y0092232D01*
X0264688Y0092232D01*
X0264688Y0088692D01*
X0264688Y0089872D02*
X0266458Y0089872D01*
X0267048Y0090462D01*
X0267048Y0091642D01*
X0265868Y0089872D02*
X0267048Y0088692D01*
X0268313Y0089282D02*
X0268903Y0088692D01*
X0270083Y0088692D01*
X0270673Y0089282D01*
X0261503Y0089282D02*
X0260913Y0088692D01*
X0259733Y0088692D01*
X0259143Y0089282D01*
X0261503Y0091642D01*
X0261503Y0089282D01*
X0261503Y0091642D02*
X0260913Y0092232D01*
X0259733Y0092232D01*
X0259143Y0091642D01*
X0259143Y0089282D01*
X0257877Y0090462D02*
X0255517Y0090462D01*
X0257287Y0092232D01*
X0257287Y0088692D01*
X0254252Y0088692D02*
X0253072Y0089872D01*
X0253662Y0089872D02*
X0251892Y0089872D01*
X0251892Y0088692D02*
X0251892Y0092232D01*
X0253662Y0092232D01*
X0254252Y0091642D01*
X0254252Y0090462D01*
X0253662Y0089872D01*
X0206945Y0089162D02*
X0206945Y0088572D01*
X0206355Y0087982D01*
X0205175Y0087982D01*
X0204585Y0088572D01*
X0204585Y0089162D01*
X0205175Y0089752D01*
X0206355Y0089752D01*
X0206945Y0089162D01*
X0206355Y0087982D02*
X0206945Y0087392D01*
X0206945Y0086802D01*
X0206355Y0086212D01*
X0205175Y0086212D01*
X0204585Y0086802D01*
X0204585Y0087392D01*
X0205175Y0087982D01*
X0203320Y0087982D02*
X0200960Y0087982D01*
X0202730Y0089752D01*
X0202730Y0086212D01*
X0199695Y0086212D02*
X0198515Y0087392D01*
X0199105Y0087392D02*
X0197335Y0087392D01*
X0197335Y0086212D02*
X0197335Y0089752D01*
X0199105Y0089752D01*
X0199695Y0089162D01*
X0199695Y0087982D01*
X0199105Y0087392D01*
X0199580Y0113574D02*
X0197220Y0113574D01*
X0198400Y0113574D02*
X0198400Y0117114D01*
X0197220Y0115934D01*
X0195955Y0116524D02*
X0195364Y0117114D01*
X0194184Y0117114D01*
X0193594Y0116524D01*
X0193594Y0114164D01*
X0194184Y0113574D01*
X0195364Y0113574D01*
X0195955Y0114164D01*
X0200845Y0114164D02*
X0201435Y0113574D01*
X0202615Y0113574D01*
X0203205Y0114164D01*
X0203205Y0114754D01*
X0202615Y0115344D01*
X0202025Y0115344D01*
X0202615Y0115344D02*
X0203205Y0115934D01*
X0203205Y0116524D01*
X0202615Y0117114D01*
X0201435Y0117114D01*
X0200845Y0116524D01*
X0142143Y0174460D02*
X0142143Y0176230D01*
X0141553Y0176820D01*
X0139783Y0176820D01*
X0139783Y0174460D01*
X0138518Y0174460D02*
X0136748Y0174460D01*
X0136158Y0175050D01*
X0136158Y0176230D01*
X0136748Y0176820D01*
X0138518Y0176820D01*
X0138518Y0178000D02*
X0138518Y0174460D01*
X0134893Y0174460D02*
X0133123Y0174460D01*
X0132533Y0175050D01*
X0132533Y0176230D01*
X0133123Y0176820D01*
X0134893Y0176820D01*
X0134893Y0178000D02*
X0134893Y0174460D01*
X0131268Y0174460D02*
X0131268Y0176230D01*
X0130678Y0176820D01*
X0129498Y0176820D01*
X0129498Y0175640D02*
X0131268Y0175640D01*
X0131268Y0174460D02*
X0129498Y0174460D01*
X0128908Y0175050D01*
X0129498Y0175640D01*
X0127671Y0174460D02*
X0126491Y0174460D01*
X0127081Y0174460D02*
X0127081Y0178000D01*
X0126491Y0178000D01*
X0125226Y0176230D02*
X0124636Y0176820D01*
X0122866Y0176820D01*
X0122866Y0178000D02*
X0122866Y0174460D01*
X0124636Y0174460D01*
X0125226Y0175050D01*
X0125226Y0176230D01*
X0125226Y0180365D02*
X0122866Y0180365D01*
X0122866Y0183905D01*
X0125226Y0183905D01*
X0126491Y0182725D02*
X0127081Y0182725D01*
X0127081Y0180365D01*
X0126491Y0180365D02*
X0127671Y0180365D01*
X0128908Y0180365D02*
X0128908Y0182725D01*
X0130678Y0182725D01*
X0131268Y0182135D01*
X0131268Y0180365D01*
X0132533Y0180955D02*
X0132533Y0182135D01*
X0133123Y0182725D01*
X0134893Y0182725D01*
X0134893Y0179775D01*
X0134303Y0179185D01*
X0133713Y0179185D01*
X0133123Y0180365D02*
X0134893Y0180365D01*
X0136158Y0180955D02*
X0136748Y0181545D01*
X0138518Y0181545D01*
X0138518Y0182135D02*
X0138518Y0180365D01*
X0136748Y0180365D01*
X0136158Y0180955D01*
X0136748Y0182725D02*
X0137928Y0182725D01*
X0138518Y0182135D01*
X0139783Y0182725D02*
X0139783Y0180365D01*
X0139783Y0182725D02*
X0141553Y0182725D01*
X0142143Y0182135D01*
X0142143Y0180365D01*
X0143409Y0180955D02*
X0143999Y0180365D01*
X0145769Y0180365D01*
X0145769Y0179775D02*
X0145769Y0182725D01*
X0143999Y0182725D01*
X0143409Y0182135D01*
X0143409Y0180955D01*
X0144589Y0179185D02*
X0145179Y0179185D01*
X0145769Y0179775D01*
X0147034Y0180365D02*
X0148804Y0180365D01*
X0149394Y0180955D01*
X0148804Y0181545D01*
X0147624Y0181545D01*
X0147034Y0182135D01*
X0147624Y0182725D01*
X0149394Y0182725D01*
X0150659Y0182135D02*
X0153019Y0182135D01*
X0137914Y0187451D02*
X0135554Y0187451D01*
X0135554Y0186861D02*
X0135554Y0188041D01*
X0136144Y0188631D01*
X0137324Y0188631D01*
X0137914Y0188041D01*
X0137914Y0187451D01*
X0137324Y0186271D02*
X0136144Y0186271D01*
X0135554Y0186861D01*
X0134303Y0186271D02*
X0132533Y0187451D01*
X0134303Y0188631D01*
X0132533Y0189811D02*
X0132533Y0186271D01*
X0131268Y0186271D02*
X0131268Y0188041D01*
X0130678Y0188631D01*
X0128908Y0188631D01*
X0128908Y0186271D01*
X0127671Y0186271D02*
X0126491Y0186271D01*
X0127081Y0186271D02*
X0127081Y0188631D01*
X0126491Y0188631D01*
X0127081Y0189811D02*
X0127081Y0190401D01*
X0122866Y0189811D02*
X0122866Y0186271D01*
X0125226Y0186271D01*
X0127081Y0184495D02*
X0127081Y0183905D01*
X0124046Y0182135D02*
X0122866Y0182135D01*
X0132533Y0180955D02*
X0133123Y0180365D01*
X0138613Y0199854D02*
X0139793Y0201034D01*
X0139793Y0203394D01*
X0141058Y0201624D02*
X0141058Y0200444D01*
X0141648Y0199854D01*
X0142828Y0199854D01*
X0143418Y0200444D01*
X0143418Y0201624D01*
X0142828Y0202214D01*
X0141648Y0202214D01*
X0141058Y0201624D01*
X0138613Y0199854D02*
X0137433Y0201034D01*
X0137433Y0203394D01*
X0144683Y0203394D02*
X0145273Y0203394D01*
X0145273Y0199854D01*
X0144683Y0199854D02*
X0145863Y0199854D01*
X0147100Y0200444D02*
X0147690Y0199854D01*
X0149460Y0199854D01*
X0149460Y0202214D01*
X0150725Y0202214D02*
X0151315Y0202214D01*
X0151905Y0201624D01*
X0152495Y0202214D01*
X0153085Y0201624D01*
X0153085Y0199854D01*
X0151905Y0199854D02*
X0151905Y0201624D01*
X0150725Y0202214D02*
X0150725Y0199854D01*
X0147100Y0200444D02*
X0147100Y0202214D01*
X0154350Y0201624D02*
X0154940Y0202214D01*
X0156120Y0202214D01*
X0156710Y0201624D01*
X0156710Y0201034D01*
X0154350Y0201034D01*
X0154350Y0200444D02*
X0154350Y0201624D01*
X0154350Y0200444D02*
X0154940Y0199854D01*
X0156120Y0199854D01*
X0157976Y0199854D02*
X0157976Y0202214D01*
X0159746Y0202214D01*
X0160336Y0201624D01*
X0160336Y0199854D01*
X0161601Y0199854D02*
X0163371Y0199854D01*
X0163961Y0200444D01*
X0163961Y0201624D01*
X0163371Y0202214D01*
X0161601Y0202214D01*
X0161601Y0203394D02*
X0161601Y0199854D01*
X0165226Y0199854D02*
X0166406Y0199854D01*
X0165816Y0199854D02*
X0165816Y0203394D01*
X0165226Y0203394D01*
X0168233Y0202214D02*
X0169413Y0202214D01*
X0170003Y0201624D01*
X0170003Y0199854D01*
X0168233Y0199854D01*
X0167643Y0200444D01*
X0168233Y0201034D01*
X0170003Y0201034D01*
X0171268Y0201624D02*
X0171858Y0202214D01*
X0173628Y0202214D01*
X0173628Y0203394D02*
X0173628Y0199854D01*
X0171858Y0199854D01*
X0171268Y0200444D01*
X0171268Y0201624D01*
X0174893Y0201624D02*
X0175483Y0202214D01*
X0177253Y0202214D01*
X0177253Y0203394D02*
X0177253Y0199854D01*
X0175483Y0199854D01*
X0174893Y0200444D01*
X0174893Y0201624D01*
X0178518Y0202214D02*
X0178518Y0199854D01*
X0178518Y0202214D02*
X0180288Y0202214D01*
X0180878Y0201624D01*
X0180878Y0199854D01*
X0185768Y0202214D02*
X0186948Y0199854D01*
X0188128Y0202214D01*
X0189393Y0202804D02*
X0189983Y0203394D01*
X0191163Y0203394D01*
X0191753Y0202804D01*
X0191753Y0202214D01*
X0191163Y0201624D01*
X0191753Y0201034D01*
X0191753Y0200444D01*
X0191163Y0199854D01*
X0189983Y0199854D01*
X0189393Y0200444D01*
X0190573Y0201624D02*
X0191163Y0201624D01*
X0269323Y0201427D02*
X0269913Y0202017D01*
X0271683Y0202017D01*
X0271093Y0200837D02*
X0269913Y0200837D01*
X0269323Y0201427D01*
X0269323Y0199657D02*
X0271093Y0199657D01*
X0271683Y0200247D01*
X0271093Y0200837D01*
X0272948Y0199657D02*
X0274128Y0199657D01*
X0273538Y0199657D02*
X0273538Y0203197D01*
X0272948Y0203197D01*
X0275365Y0201427D02*
X0275955Y0202017D01*
X0277725Y0202017D01*
X0277725Y0203197D02*
X0277725Y0199657D01*
X0275955Y0199657D01*
X0275365Y0200247D01*
X0275365Y0201427D01*
X0282615Y0202607D02*
X0283205Y0203197D01*
X0284385Y0203197D01*
X0284975Y0202607D01*
X0284975Y0202017D01*
X0282615Y0199657D01*
X0284975Y0199657D01*
X0286240Y0200247D02*
X0288600Y0202607D01*
X0288600Y0200247D01*
X0288010Y0199657D01*
X0286830Y0199657D01*
X0286240Y0200247D01*
X0286240Y0202607D01*
X0286830Y0203197D01*
X0288010Y0203197D01*
X0288600Y0202607D01*
X0289865Y0202017D02*
X0291045Y0203197D01*
X0291045Y0199657D01*
X0289865Y0199657D02*
X0292225Y0199657D01*
X0293490Y0199657D02*
X0293490Y0200247D01*
X0295850Y0202607D01*
X0295850Y0203197D01*
X0293490Y0203197D01*
X0311363Y0189464D02*
X0311953Y0190054D01*
X0314313Y0190054D01*
X0314903Y0189464D01*
X0314903Y0188284D01*
X0314313Y0187694D01*
X0313133Y0188284D02*
X0312543Y0187694D01*
X0311953Y0187694D01*
X0311363Y0188284D01*
X0311363Y0189464D01*
X0313133Y0190054D02*
X0313133Y0188284D01*
X0313723Y0186429D02*
X0311363Y0186429D01*
X0311363Y0184069D02*
X0313723Y0184069D01*
X0314903Y0185249D01*
X0313723Y0186429D01*
X0313723Y0182804D02*
X0314313Y0182804D01*
X0314903Y0182214D01*
X0314903Y0181034D01*
X0314313Y0180444D01*
X0313133Y0181034D02*
X0313133Y0182214D01*
X0313723Y0182804D01*
X0311953Y0182804D02*
X0311363Y0182214D01*
X0311363Y0181034D01*
X0311953Y0180444D01*
X0312543Y0180444D01*
X0313133Y0181034D01*
X0329165Y0169732D02*
X0329165Y0166192D01*
X0331525Y0166192D01*
X0332790Y0166192D02*
X0333970Y0166192D01*
X0333380Y0166192D02*
X0333380Y0168552D01*
X0332790Y0168552D01*
X0333380Y0169732D02*
X0333380Y0170322D01*
X0335207Y0168552D02*
X0336977Y0168552D01*
X0337567Y0167962D01*
X0337567Y0166192D01*
X0338832Y0166192D02*
X0338832Y0169732D01*
X0340602Y0168552D02*
X0338832Y0167372D01*
X0340602Y0166192D01*
X0341853Y0166782D02*
X0341853Y0167962D01*
X0342443Y0168552D01*
X0343623Y0168552D01*
X0344213Y0167962D01*
X0344213Y0167372D01*
X0341853Y0167372D01*
X0341853Y0166782D02*
X0342443Y0166192D01*
X0343623Y0166192D01*
X0344256Y0162647D02*
X0345436Y0162647D01*
X0346026Y0162057D01*
X0346026Y0160287D01*
X0344256Y0160287D01*
X0343666Y0160877D01*
X0344256Y0161467D01*
X0346026Y0161467D01*
X0347291Y0160287D02*
X0347291Y0162647D01*
X0349061Y0162647D01*
X0349651Y0162057D01*
X0349651Y0160287D01*
X0350916Y0160877D02*
X0351506Y0160287D01*
X0353276Y0160287D01*
X0353276Y0159697D02*
X0353276Y0162647D01*
X0351506Y0162647D01*
X0350916Y0162057D01*
X0350916Y0160877D01*
X0352096Y0159107D02*
X0352686Y0159107D01*
X0353276Y0159697D01*
X0354541Y0160287D02*
X0356311Y0160287D01*
X0356901Y0160877D01*
X0356311Y0161467D01*
X0355131Y0161467D01*
X0354541Y0162057D01*
X0355131Y0162647D01*
X0356901Y0162647D01*
X0358166Y0162057D02*
X0360526Y0162057D01*
X0348443Y0156151D02*
X0348443Y0154381D01*
X0348443Y0156151D02*
X0347853Y0156741D01*
X0346083Y0156741D01*
X0346083Y0154381D01*
X0344818Y0154381D02*
X0343048Y0154381D01*
X0342458Y0154971D01*
X0342458Y0156151D01*
X0343048Y0156741D01*
X0344818Y0156741D01*
X0344818Y0157921D02*
X0344818Y0154381D01*
X0341192Y0154381D02*
X0339422Y0154381D01*
X0338832Y0154971D01*
X0338832Y0156151D01*
X0339422Y0156741D01*
X0341192Y0156741D01*
X0341192Y0157921D02*
X0341192Y0154381D01*
X0337567Y0154381D02*
X0337567Y0156151D01*
X0336977Y0156741D01*
X0335797Y0156741D01*
X0335797Y0155561D02*
X0337567Y0155561D01*
X0337567Y0154381D02*
X0335797Y0154381D01*
X0335207Y0154971D01*
X0335797Y0155561D01*
X0333970Y0154381D02*
X0332790Y0154381D01*
X0333380Y0154381D02*
X0333380Y0157921D01*
X0332790Y0157921D01*
X0331525Y0156151D02*
X0330935Y0156741D01*
X0329165Y0156741D01*
X0329165Y0157921D02*
X0329165Y0154381D01*
X0330935Y0154381D01*
X0331525Y0154971D01*
X0331525Y0156151D01*
X0331525Y0160287D02*
X0331525Y0162647D01*
X0330345Y0163827D01*
X0329165Y0162647D01*
X0329165Y0160287D01*
X0329165Y0162057D02*
X0331525Y0162057D01*
X0332790Y0162647D02*
X0332790Y0160877D01*
X0333380Y0160287D01*
X0335151Y0160287D01*
X0335151Y0162647D01*
X0336416Y0162057D02*
X0337006Y0162647D01*
X0338776Y0162647D01*
X0338186Y0161467D02*
X0337006Y0161467D01*
X0336416Y0162057D01*
X0336416Y0160287D02*
X0338186Y0160287D01*
X0338776Y0160877D01*
X0338186Y0161467D01*
X0340041Y0162057D02*
X0340041Y0160877D01*
X0340631Y0160287D01*
X0342401Y0160287D01*
X0342401Y0159697D02*
X0342401Y0162647D01*
X0340631Y0162647D01*
X0340041Y0162057D01*
X0341221Y0159107D02*
X0341811Y0159107D01*
X0342401Y0159697D01*
X0335207Y0166192D02*
X0335207Y0168552D01*
X0313919Y0069664D02*
X0314509Y0069074D01*
X0314509Y0067894D01*
X0313919Y0067304D01*
X0311559Y0069664D01*
X0313919Y0069664D01*
X0311559Y0069664D02*
X0310969Y0069074D01*
X0310969Y0067894D01*
X0311559Y0067304D01*
X0313919Y0067304D01*
X0314509Y0066039D02*
X0314509Y0063679D01*
X0314509Y0064859D02*
X0310969Y0064859D01*
X0312149Y0063679D01*
X0313329Y0062413D02*
X0310969Y0062413D01*
X0310969Y0060053D02*
X0313329Y0060053D01*
X0314509Y0061233D01*
X0313329Y0062413D01*
X0313329Y0058788D02*
X0313919Y0058788D01*
X0314509Y0058198D01*
X0314509Y0057018D01*
X0313919Y0056428D01*
X0312739Y0057018D02*
X0312739Y0058198D01*
X0313329Y0058788D01*
X0311559Y0058788D02*
X0310969Y0058198D01*
X0310969Y0057018D01*
X0311559Y0056428D01*
X0312149Y0056428D01*
X0312739Y0057018D01*
X0312900Y0009772D02*
X0311720Y0009182D01*
X0310540Y0008002D01*
X0312310Y0008002D01*
X0312900Y0007412D01*
X0312900Y0006821D01*
X0312310Y0006231D01*
X0311130Y0006231D01*
X0310540Y0006821D01*
X0310540Y0008002D01*
X0309275Y0006231D02*
X0306915Y0006231D01*
X0308095Y0006231D02*
X0308095Y0009772D01*
X0306915Y0008592D01*
X0305650Y0009182D02*
X0305060Y0009772D01*
X0303880Y0009772D01*
X0303290Y0009182D01*
X0303290Y0006821D01*
X0303880Y0006231D01*
X0305060Y0006231D01*
X0305650Y0006821D01*
X0327109Y0007018D02*
X0327699Y0006428D01*
X0328879Y0006428D01*
X0329469Y0007018D01*
X0330734Y0006428D02*
X0333094Y0006428D01*
X0331914Y0006428D02*
X0331914Y0009968D01*
X0330734Y0008788D01*
X0329469Y0009378D02*
X0328879Y0009968D01*
X0327699Y0009968D01*
X0327109Y0009378D01*
X0327109Y0007018D01*
X0334359Y0007018D02*
X0334359Y0006428D01*
X0334359Y0007018D02*
X0336719Y0009378D01*
X0336719Y0009968D01*
X0334359Y0009968D01*
X0345219Y0009378D02*
X0345219Y0007018D01*
X0345809Y0006428D01*
X0346989Y0006428D01*
X0347579Y0007018D01*
X0348844Y0006428D02*
X0351204Y0008788D01*
X0351204Y0009378D01*
X0350614Y0009968D01*
X0349434Y0009968D01*
X0348844Y0009378D01*
X0347579Y0009378D02*
X0346989Y0009968D01*
X0345809Y0009968D01*
X0345219Y0009378D01*
X0348844Y0006428D02*
X0351204Y0006428D01*
X0352469Y0006428D02*
X0354829Y0006428D01*
X0353649Y0006428D02*
X0353649Y0009968D01*
X0352469Y0008788D01*
X0280196Y0006740D02*
X0280196Y0004380D01*
X0279016Y0003200D01*
X0277836Y0004380D01*
X0277836Y0006740D01*
X0276571Y0006150D02*
X0275981Y0006740D01*
X0274801Y0006740D01*
X0274211Y0006150D01*
X0274211Y0005560D01*
X0274801Y0004970D01*
X0275981Y0004970D01*
X0276571Y0004380D01*
X0276571Y0003790D01*
X0275981Y0003200D01*
X0274801Y0003200D01*
X0274211Y0003790D01*
X0274211Y0004380D01*
X0274801Y0004970D01*
X0275981Y0004970D02*
X0276571Y0005560D01*
X0276571Y0006150D01*
X0272946Y0003200D02*
X0270586Y0003200D01*
X0271766Y0003200D02*
X0271766Y0006740D01*
X0270586Y0005560D01*
X0269321Y0004970D02*
X0266961Y0004970D01*
X0261692Y0003200D02*
X0259332Y0003200D01*
X0259332Y0006740D01*
X0261692Y0006740D01*
X0260512Y0004970D02*
X0259332Y0004970D01*
X0258067Y0003790D02*
X0258067Y0006150D01*
X0257477Y0006740D01*
X0255707Y0006740D01*
X0255707Y0003200D01*
X0257477Y0003200D01*
X0258067Y0003790D01*
X0254442Y0003200D02*
X0253262Y0004380D01*
X0253852Y0004380D02*
X0252082Y0004380D01*
X0252082Y0003200D02*
X0252082Y0006740D01*
X0253852Y0006740D01*
X0254442Y0006150D01*
X0254442Y0004970D01*
X0253852Y0004380D01*
X0250817Y0003200D02*
X0248457Y0003200D01*
X0248457Y0006740D01*
X0250817Y0006740D01*
X0249637Y0004970D02*
X0248457Y0004970D01*
X0239251Y0004380D02*
X0239251Y0006740D01*
X0236891Y0006740D02*
X0236891Y0004380D01*
X0238071Y0003200D01*
X0239251Y0004380D01*
X0235626Y0004380D02*
X0235626Y0003790D01*
X0235036Y0003200D01*
X0233856Y0003200D01*
X0233266Y0003790D01*
X0233266Y0004380D01*
X0233856Y0004970D01*
X0235036Y0004970D01*
X0235626Y0004380D01*
X0235036Y0004970D02*
X0235626Y0005560D01*
X0235626Y0006150D01*
X0235036Y0006740D01*
X0233856Y0006740D01*
X0233266Y0006150D01*
X0233266Y0005560D01*
X0233856Y0004970D01*
X0232001Y0003200D02*
X0229641Y0003200D01*
X0230821Y0003200D02*
X0230821Y0006740D01*
X0229641Y0005560D01*
X0228376Y0004970D02*
X0226016Y0004970D01*
X0227196Y0006150D02*
X0227196Y0003790D01*
X0039313Y0181900D02*
X0038723Y0181310D01*
X0039313Y0181900D02*
X0039313Y0183080D01*
X0038723Y0183670D01*
X0038133Y0183670D01*
X0037543Y0183080D01*
X0037543Y0181900D01*
X0036953Y0181310D01*
X0036363Y0181310D01*
X0035773Y0181900D01*
X0035773Y0183080D01*
X0036363Y0183670D01*
X0035773Y0184935D02*
X0038133Y0184935D01*
X0039313Y0186115D01*
X0038133Y0187295D01*
X0035773Y0187295D01*
X0036363Y0188561D02*
X0035773Y0189151D01*
X0035773Y0190331D01*
X0036363Y0190921D01*
X0036953Y0190921D01*
X0037543Y0190331D01*
X0038133Y0190921D01*
X0038723Y0190921D01*
X0039313Y0190331D01*
X0039313Y0189151D01*
X0038723Y0188561D01*
X0037543Y0189741D02*
X0037543Y0190331D01*
D12*
X0040540Y0190815D02*
X0043040Y0193315D01*
X0048040Y0193315D01*
X0050540Y0190815D01*
X0053040Y0193315D01*
X0058040Y0193315D01*
X0060540Y0190815D01*
X0063040Y0193315D01*
X0068040Y0193315D01*
X0070540Y0190815D01*
X0073040Y0193315D01*
X0078040Y0193315D01*
X0080540Y0190815D01*
X0083040Y0193315D01*
X0088040Y0193315D01*
X0090540Y0190815D01*
X0093040Y0193315D01*
X0098040Y0193315D01*
X0100540Y0190815D01*
X0103040Y0193315D01*
X0108040Y0193315D01*
X0110540Y0190815D01*
X0113040Y0193315D01*
X0118040Y0193315D01*
X0120540Y0190815D01*
X0120540Y0175815D01*
X0118040Y0173315D01*
X0113040Y0173315D01*
X0110540Y0175815D01*
X0108040Y0173315D01*
X0103040Y0173315D01*
X0100540Y0175815D01*
X0098040Y0173315D01*
X0093040Y0173315D01*
X0090540Y0175815D01*
X0088040Y0173315D01*
X0083040Y0173315D01*
X0080540Y0175815D01*
X0078040Y0173315D01*
X0073040Y0173315D01*
X0070540Y0175815D01*
X0068040Y0173315D01*
X0063040Y0173315D01*
X0060540Y0175815D01*
X0058040Y0173315D01*
X0053040Y0173315D01*
X0050540Y0175815D01*
X0048040Y0173315D01*
X0043040Y0173315D01*
X0040540Y0175815D01*
X0040540Y0190815D01*
X0158650Y0190815D02*
X0158650Y0175815D01*
X0161150Y0173315D01*
X0166150Y0173315D01*
X0168650Y0175815D01*
X0171150Y0173315D01*
X0176150Y0173315D01*
X0178650Y0175815D01*
X0181150Y0173315D01*
X0186150Y0173315D01*
X0188650Y0175815D01*
X0191150Y0173315D01*
X0196150Y0173315D01*
X0198650Y0175815D01*
X0201150Y0173315D01*
X0206150Y0173315D01*
X0208650Y0175815D01*
X0211150Y0173315D01*
X0216150Y0173315D01*
X0218650Y0175815D01*
X0221150Y0173315D01*
X0226150Y0173315D01*
X0228650Y0175815D01*
X0231150Y0173315D01*
X0236150Y0173315D01*
X0238650Y0175815D01*
X0238650Y0190815D01*
X0236150Y0193315D01*
X0231150Y0193315D01*
X0228650Y0190815D01*
X0226150Y0193315D01*
X0221150Y0193315D01*
X0218650Y0190815D01*
X0216150Y0193315D01*
X0211150Y0193315D01*
X0208650Y0190815D01*
X0206150Y0193315D01*
X0201150Y0193315D01*
X0198650Y0190815D01*
X0196150Y0193315D01*
X0191150Y0193315D01*
X0188650Y0190815D01*
X0186150Y0193315D01*
X0181150Y0193315D01*
X0178650Y0190815D01*
X0176150Y0193315D01*
X0171150Y0193315D01*
X0168650Y0190815D01*
X0166150Y0193315D01*
X0161150Y0193315D01*
X0158650Y0190815D01*
X0316446Y0190815D02*
X0316446Y0175815D01*
X0318946Y0173315D01*
X0323946Y0173315D01*
X0326446Y0175815D01*
X0328946Y0173315D01*
X0333946Y0173315D01*
X0336446Y0175815D01*
X0338946Y0173315D01*
X0343946Y0173315D01*
X0346446Y0175815D01*
X0348946Y0173315D01*
X0353946Y0173315D01*
X0356446Y0175815D01*
X0356446Y0190815D01*
X0353946Y0193315D01*
X0348946Y0193315D01*
X0346446Y0190815D01*
X0343946Y0193315D01*
X0338946Y0193315D01*
X0336446Y0190815D01*
X0333946Y0193315D01*
X0328946Y0193315D01*
X0326446Y0190815D01*
X0323946Y0193315D01*
X0318946Y0193315D01*
X0316446Y0190815D01*
X0318946Y0071268D02*
X0316446Y0068768D01*
X0316446Y0053768D01*
X0318946Y0051268D01*
X0323946Y0051268D01*
X0326446Y0053768D01*
X0328946Y0051268D01*
X0333946Y0051268D01*
X0336446Y0053768D01*
X0338946Y0051268D01*
X0343946Y0051268D01*
X0346446Y0053768D01*
X0348946Y0051268D01*
X0353946Y0051268D01*
X0356446Y0053768D01*
X0356446Y0068768D01*
X0353946Y0071268D01*
X0348946Y0071268D01*
X0346446Y0068768D01*
X0343946Y0071268D01*
X0338946Y0071268D01*
X0336446Y0068768D01*
X0333946Y0071268D01*
X0328946Y0071268D01*
X0326446Y0068768D01*
X0323946Y0071268D01*
X0318946Y0071268D01*
X0238650Y0068768D02*
X0238650Y0053768D01*
X0236150Y0051268D01*
X0231150Y0051268D01*
X0228650Y0053768D01*
X0226150Y0051268D01*
X0221150Y0051268D01*
X0218650Y0053768D01*
X0216150Y0051268D01*
X0211150Y0051268D01*
X0208650Y0053768D01*
X0206150Y0051268D01*
X0201150Y0051268D01*
X0198650Y0053768D01*
X0196150Y0051268D01*
X0191150Y0051268D01*
X0188650Y0053768D01*
X0186150Y0051268D01*
X0181150Y0051268D01*
X0178650Y0053768D01*
X0176150Y0051268D01*
X0171150Y0051268D01*
X0168650Y0053768D01*
X0166150Y0051268D01*
X0161150Y0051268D01*
X0158650Y0053768D01*
X0158650Y0068768D01*
X0161150Y0071268D01*
X0166150Y0071268D01*
X0168650Y0068768D01*
X0171150Y0071268D01*
X0176150Y0071268D01*
X0178650Y0068768D01*
X0181150Y0071268D01*
X0186150Y0071268D01*
X0188650Y0068768D01*
X0191150Y0071268D01*
X0196150Y0071268D01*
X0198650Y0068768D01*
X0201150Y0071268D01*
X0206150Y0071268D01*
X0208650Y0068768D01*
X0211150Y0071268D01*
X0216150Y0071268D01*
X0218650Y0068768D01*
X0221150Y0071268D01*
X0226150Y0071268D01*
X0228650Y0068768D01*
X0231150Y0071268D01*
X0236150Y0071268D01*
X0238650Y0068768D01*
X0120540Y0068768D02*
X0120540Y0053768D01*
X0118040Y0051268D01*
X0113040Y0051268D01*
X0110540Y0053768D01*
X0108040Y0051268D01*
X0103040Y0051268D01*
X0100540Y0053768D01*
X0098040Y0051268D01*
X0093040Y0051268D01*
X0090540Y0053768D01*
X0088040Y0051268D01*
X0083040Y0051268D01*
X0080540Y0053768D01*
X0078040Y0051268D01*
X0073040Y0051268D01*
X0070540Y0053768D01*
X0068040Y0051268D01*
X0063040Y0051268D01*
X0060540Y0053768D01*
X0058040Y0051268D01*
X0053040Y0051268D01*
X0050540Y0053768D01*
X0048040Y0051268D01*
X0043040Y0051268D01*
X0040540Y0053768D01*
X0040540Y0068768D01*
X0043040Y0071268D01*
X0048040Y0071268D01*
X0050540Y0068768D01*
X0053040Y0071268D01*
X0058040Y0071268D01*
X0060540Y0068768D01*
X0063040Y0071268D01*
X0068040Y0071268D01*
X0070540Y0068768D01*
X0073040Y0071268D01*
X0078040Y0071268D01*
X0080540Y0068768D01*
X0083040Y0071268D01*
X0088040Y0071268D01*
X0090540Y0068768D01*
X0093040Y0071268D01*
X0098040Y0071268D01*
X0100540Y0068768D01*
X0103040Y0071268D01*
X0108040Y0071268D01*
X0110540Y0068768D01*
X0113040Y0071268D01*
X0118040Y0071268D01*
X0120540Y0068768D01*
D13*
X0117646Y0073018D02*
X0118397Y0073768D01*
X0118397Y0074519D01*
X0117646Y0075270D01*
X0115394Y0075270D01*
X0115394Y0073768D01*
X0116145Y0073018D01*
X0117646Y0073018D01*
X0113793Y0073018D02*
X0110790Y0073018D01*
X0112291Y0073018D02*
X0112291Y0077522D01*
X0110790Y0076020D01*
X0115394Y0075270D02*
X0116895Y0076771D01*
X0118397Y0077522D01*
X0161900Y0048020D02*
X0163402Y0049522D01*
X0163402Y0045018D01*
X0164903Y0045018D02*
X0161900Y0045018D01*
X0228900Y0073018D02*
X0231903Y0073018D01*
X0230402Y0073018D02*
X0230402Y0077522D01*
X0228900Y0076020D01*
X0233504Y0075270D02*
X0233504Y0073768D01*
X0234255Y0073018D01*
X0235756Y0073018D01*
X0236507Y0073768D01*
X0236507Y0074519D01*
X0235756Y0075270D01*
X0233504Y0075270D01*
X0235006Y0076771D01*
X0236507Y0077522D01*
X0319696Y0048020D02*
X0321197Y0049522D01*
X0321197Y0045018D01*
X0319696Y0045018D02*
X0322698Y0045018D01*
X0351696Y0073768D02*
X0352446Y0073018D01*
X0353948Y0073018D01*
X0354698Y0073768D01*
X0354698Y0074519D01*
X0353948Y0075270D01*
X0352446Y0075270D01*
X0351696Y0076020D01*
X0351696Y0076771D01*
X0352446Y0077522D01*
X0353948Y0077522D01*
X0354698Y0076771D01*
X0354698Y0076020D01*
X0353948Y0075270D01*
X0352446Y0075270D02*
X0351696Y0074519D01*
X0351696Y0073768D01*
X0322698Y0167065D02*
X0319696Y0167065D01*
X0321197Y0167065D02*
X0321197Y0171569D01*
X0319696Y0170068D01*
X0351696Y0195816D02*
X0351696Y0196566D01*
X0352446Y0197317D01*
X0353948Y0197317D01*
X0354698Y0196566D01*
X0354698Y0195816D01*
X0353948Y0195065D01*
X0352446Y0195065D01*
X0351696Y0195816D01*
X0352446Y0197317D02*
X0351696Y0198068D01*
X0351696Y0198818D01*
X0352446Y0199569D01*
X0353948Y0199569D01*
X0354698Y0198818D01*
X0354698Y0198068D01*
X0353948Y0197317D01*
X0236507Y0196566D02*
X0236507Y0195816D01*
X0235756Y0195065D01*
X0234255Y0195065D01*
X0233504Y0195816D01*
X0233504Y0197317D01*
X0235756Y0197317D01*
X0236507Y0196566D01*
X0235006Y0198818D02*
X0233504Y0197317D01*
X0235006Y0198818D02*
X0236507Y0199569D01*
X0230402Y0199569D02*
X0230402Y0195065D01*
X0231903Y0195065D02*
X0228900Y0195065D01*
X0228900Y0198068D02*
X0230402Y0199569D01*
X0164903Y0167065D02*
X0161900Y0167065D01*
X0163402Y0167065D02*
X0163402Y0171569D01*
X0161900Y0170068D01*
X0118397Y0195816D02*
X0118397Y0196566D01*
X0117646Y0197317D01*
X0115394Y0197317D01*
X0115394Y0195816D01*
X0116145Y0195065D01*
X0117646Y0195065D01*
X0118397Y0195816D01*
X0116895Y0198818D02*
X0115394Y0197317D01*
X0116895Y0198818D02*
X0118397Y0199569D01*
X0112291Y0199569D02*
X0112291Y0195065D01*
X0110790Y0195065D02*
X0113793Y0195065D01*
X0110790Y0198068D02*
X0112291Y0199569D01*
X0045291Y0171569D02*
X0045291Y0167065D01*
X0043790Y0167065D02*
X0046793Y0167065D01*
X0043790Y0170068D02*
X0045291Y0171569D01*
X0045291Y0049522D02*
X0043790Y0048020D01*
X0045291Y0049522D02*
X0045291Y0045018D01*
X0043790Y0045018D02*
X0046793Y0045018D01*
D14*
X0059871Y0103197D02*
X0059871Y0116583D01*
X0063414Y0120126D01*
X0064005Y0120126D01*
X0072469Y0120126D02*
X0073257Y0120126D01*
X0076800Y0116583D01*
X0076800Y0103197D01*
X0072666Y0103197D01*
X0064005Y0103197D02*
X0059871Y0103197D01*
X0072075Y0105165D02*
X0072232Y0105258D01*
X0072387Y0105355D01*
X0072540Y0105455D01*
X0072690Y0105560D01*
X0072837Y0105668D01*
X0072982Y0105779D01*
X0073124Y0105894D01*
X0073263Y0106013D01*
X0073400Y0106135D01*
X0073533Y0106260D01*
X0073663Y0106388D01*
X0073790Y0106520D01*
X0073914Y0106654D01*
X0074034Y0106792D01*
X0074151Y0106932D01*
X0074265Y0107075D01*
X0074375Y0107221D01*
X0074481Y0107370D01*
X0074584Y0107521D01*
X0074683Y0107674D01*
X0074778Y0107830D01*
X0074870Y0107989D01*
X0074957Y0108149D01*
X0075041Y0108311D01*
X0075121Y0108476D01*
X0075196Y0108642D01*
X0075268Y0108810D01*
X0075335Y0108980D01*
X0075399Y0109152D01*
X0075458Y0109325D01*
X0075512Y0109499D01*
X0075563Y0109675D01*
X0075609Y0109851D01*
X0075651Y0110029D01*
X0075689Y0110208D01*
X0075722Y0110388D01*
X0075751Y0110568D01*
X0075775Y0110749D01*
X0075795Y0110931D01*
X0075811Y0111113D01*
X0075822Y0111296D01*
X0075829Y0111478D01*
X0075831Y0111661D01*
X0075829Y0111844D01*
X0075822Y0112026D01*
X0075811Y0112209D01*
X0075795Y0112391D01*
X0075775Y0112573D01*
X0075751Y0112754D01*
X0075722Y0112934D01*
X0075689Y0113114D01*
X0075651Y0113293D01*
X0075609Y0113471D01*
X0075563Y0113647D01*
X0075512Y0113823D01*
X0075458Y0113997D01*
X0075399Y0114170D01*
X0075335Y0114342D01*
X0075268Y0114512D01*
X0075196Y0114680D01*
X0075121Y0114846D01*
X0075041Y0115011D01*
X0074957Y0115173D01*
X0074870Y0115333D01*
X0074778Y0115492D01*
X0074683Y0115648D01*
X0074584Y0115801D01*
X0074481Y0115952D01*
X0074375Y0116101D01*
X0074265Y0116247D01*
X0074151Y0116390D01*
X0074034Y0116530D01*
X0073914Y0116668D01*
X0073790Y0116802D01*
X0073663Y0116934D01*
X0073533Y0117062D01*
X0073400Y0117187D01*
X0073263Y0117309D01*
X0073124Y0117428D01*
X0072982Y0117543D01*
X0072837Y0117654D01*
X0072690Y0117762D01*
X0072540Y0117867D01*
X0072387Y0117967D01*
X0072232Y0118064D01*
X0072075Y0118157D01*
X0064595Y0118157D02*
X0064438Y0118064D01*
X0064283Y0117967D01*
X0064130Y0117867D01*
X0063980Y0117762D01*
X0063833Y0117654D01*
X0063688Y0117543D01*
X0063546Y0117428D01*
X0063407Y0117309D01*
X0063270Y0117187D01*
X0063137Y0117062D01*
X0063007Y0116934D01*
X0062880Y0116802D01*
X0062756Y0116668D01*
X0062636Y0116530D01*
X0062519Y0116390D01*
X0062405Y0116247D01*
X0062295Y0116101D01*
X0062189Y0115952D01*
X0062086Y0115801D01*
X0061987Y0115648D01*
X0061892Y0115492D01*
X0061800Y0115333D01*
X0061713Y0115173D01*
X0061629Y0115011D01*
X0061549Y0114846D01*
X0061474Y0114680D01*
X0061402Y0114512D01*
X0061335Y0114342D01*
X0061271Y0114170D01*
X0061212Y0113997D01*
X0061158Y0113823D01*
X0061107Y0113647D01*
X0061061Y0113471D01*
X0061019Y0113293D01*
X0060981Y0113114D01*
X0060948Y0112934D01*
X0060919Y0112754D01*
X0060895Y0112573D01*
X0060875Y0112391D01*
X0060859Y0112209D01*
X0060848Y0112026D01*
X0060841Y0111844D01*
X0060839Y0111661D01*
X0060841Y0111478D01*
X0060848Y0111296D01*
X0060859Y0111113D01*
X0060875Y0110931D01*
X0060895Y0110749D01*
X0060919Y0110568D01*
X0060948Y0110388D01*
X0060981Y0110208D01*
X0061019Y0110029D01*
X0061061Y0109851D01*
X0061107Y0109675D01*
X0061158Y0109499D01*
X0061212Y0109325D01*
X0061271Y0109152D01*
X0061335Y0108980D01*
X0061402Y0108810D01*
X0061474Y0108642D01*
X0061549Y0108476D01*
X0061629Y0108311D01*
X0061713Y0108149D01*
X0061800Y0107989D01*
X0061892Y0107830D01*
X0061987Y0107674D01*
X0062086Y0107521D01*
X0062189Y0107370D01*
X0062295Y0107221D01*
X0062405Y0107075D01*
X0062519Y0106932D01*
X0062636Y0106792D01*
X0062756Y0106654D01*
X0062880Y0106520D01*
X0063007Y0106388D01*
X0063137Y0106260D01*
X0063270Y0106135D01*
X0063407Y0106013D01*
X0063546Y0105894D01*
X0063688Y0105779D01*
X0063833Y0105668D01*
X0063980Y0105560D01*
X0064130Y0105455D01*
X0064283Y0105355D01*
X0064438Y0105258D01*
X0064595Y0105165D01*
X0068335Y0139614D02*
X0064792Y0143157D01*
X0064792Y0143748D01*
X0068335Y0139614D02*
X0081721Y0139614D01*
X0081721Y0143748D01*
X0079753Y0144339D02*
X0079660Y0144182D01*
X0079563Y0144027D01*
X0079463Y0143874D01*
X0079358Y0143724D01*
X0079250Y0143577D01*
X0079139Y0143432D01*
X0079024Y0143290D01*
X0078905Y0143151D01*
X0078783Y0143014D01*
X0078658Y0142881D01*
X0078530Y0142751D01*
X0078398Y0142624D01*
X0078264Y0142500D01*
X0078126Y0142380D01*
X0077986Y0142263D01*
X0077843Y0142149D01*
X0077697Y0142039D01*
X0077548Y0141933D01*
X0077397Y0141830D01*
X0077244Y0141731D01*
X0077088Y0141636D01*
X0076929Y0141544D01*
X0076769Y0141457D01*
X0076607Y0141373D01*
X0076442Y0141293D01*
X0076276Y0141218D01*
X0076108Y0141146D01*
X0075938Y0141079D01*
X0075766Y0141015D01*
X0075593Y0140956D01*
X0075419Y0140902D01*
X0075243Y0140851D01*
X0075067Y0140805D01*
X0074889Y0140763D01*
X0074710Y0140725D01*
X0074530Y0140692D01*
X0074350Y0140663D01*
X0074169Y0140639D01*
X0073987Y0140619D01*
X0073805Y0140603D01*
X0073622Y0140592D01*
X0073440Y0140585D01*
X0073257Y0140583D01*
X0073074Y0140585D01*
X0072892Y0140592D01*
X0072709Y0140603D01*
X0072527Y0140619D01*
X0072345Y0140639D01*
X0072164Y0140663D01*
X0071984Y0140692D01*
X0071804Y0140725D01*
X0071625Y0140763D01*
X0071447Y0140805D01*
X0071271Y0140851D01*
X0071095Y0140902D01*
X0070921Y0140956D01*
X0070748Y0141015D01*
X0070576Y0141079D01*
X0070406Y0141146D01*
X0070238Y0141218D01*
X0070072Y0141293D01*
X0069907Y0141373D01*
X0069745Y0141457D01*
X0069585Y0141544D01*
X0069426Y0141636D01*
X0069270Y0141731D01*
X0069117Y0141830D01*
X0068966Y0141933D01*
X0068817Y0142039D01*
X0068671Y0142149D01*
X0068528Y0142263D01*
X0068388Y0142380D01*
X0068250Y0142500D01*
X0068116Y0142624D01*
X0067984Y0142751D01*
X0067856Y0142881D01*
X0067731Y0143014D01*
X0067609Y0143151D01*
X0067490Y0143290D01*
X0067375Y0143432D01*
X0067264Y0143577D01*
X0067156Y0143724D01*
X0067051Y0143874D01*
X0066951Y0144027D01*
X0066854Y0144182D01*
X0066761Y0144339D01*
X0066761Y0151819D02*
X0066854Y0151976D01*
X0066951Y0152131D01*
X0067051Y0152284D01*
X0067156Y0152434D01*
X0067264Y0152581D01*
X0067375Y0152726D01*
X0067490Y0152868D01*
X0067609Y0153007D01*
X0067731Y0153144D01*
X0067856Y0153277D01*
X0067984Y0153407D01*
X0068116Y0153534D01*
X0068250Y0153658D01*
X0068388Y0153778D01*
X0068528Y0153895D01*
X0068671Y0154009D01*
X0068817Y0154119D01*
X0068966Y0154225D01*
X0069117Y0154328D01*
X0069270Y0154427D01*
X0069426Y0154522D01*
X0069585Y0154614D01*
X0069745Y0154701D01*
X0069907Y0154785D01*
X0070072Y0154865D01*
X0070238Y0154940D01*
X0070406Y0155012D01*
X0070576Y0155079D01*
X0070748Y0155143D01*
X0070921Y0155202D01*
X0071095Y0155256D01*
X0071271Y0155307D01*
X0071447Y0155353D01*
X0071625Y0155395D01*
X0071804Y0155433D01*
X0071984Y0155466D01*
X0072164Y0155495D01*
X0072345Y0155519D01*
X0072527Y0155539D01*
X0072709Y0155555D01*
X0072892Y0155566D01*
X0073074Y0155573D01*
X0073257Y0155575D01*
X0073440Y0155573D01*
X0073622Y0155566D01*
X0073805Y0155555D01*
X0073987Y0155539D01*
X0074169Y0155519D01*
X0074350Y0155495D01*
X0074530Y0155466D01*
X0074710Y0155433D01*
X0074889Y0155395D01*
X0075067Y0155353D01*
X0075243Y0155307D01*
X0075419Y0155256D01*
X0075593Y0155202D01*
X0075766Y0155143D01*
X0075938Y0155079D01*
X0076108Y0155012D01*
X0076276Y0154940D01*
X0076442Y0154865D01*
X0076607Y0154785D01*
X0076769Y0154701D01*
X0076929Y0154614D01*
X0077088Y0154522D01*
X0077244Y0154427D01*
X0077397Y0154328D01*
X0077548Y0154225D01*
X0077697Y0154119D01*
X0077843Y0154009D01*
X0077986Y0153895D01*
X0078126Y0153778D01*
X0078264Y0153658D01*
X0078398Y0153534D01*
X0078530Y0153407D01*
X0078658Y0153277D01*
X0078783Y0153144D01*
X0078905Y0153007D01*
X0079024Y0152868D01*
X0079139Y0152726D01*
X0079250Y0152581D01*
X0079358Y0152434D01*
X0079463Y0152284D01*
X0079563Y0152131D01*
X0079660Y0151976D01*
X0079753Y0151819D01*
X0081721Y0152409D02*
X0081721Y0156543D01*
X0068335Y0156543D01*
X0064792Y0153000D01*
X0064792Y0152213D01*
X0254556Y0150835D02*
X0254556Y0146701D01*
X0267942Y0146701D01*
X0271485Y0150244D01*
X0271485Y0151031D01*
X0269516Y0158905D02*
X0269423Y0159062D01*
X0269326Y0159217D01*
X0269226Y0159370D01*
X0269121Y0159520D01*
X0269013Y0159667D01*
X0268902Y0159812D01*
X0268787Y0159954D01*
X0268668Y0160093D01*
X0268546Y0160230D01*
X0268421Y0160363D01*
X0268293Y0160493D01*
X0268161Y0160620D01*
X0268027Y0160744D01*
X0267889Y0160864D01*
X0267749Y0160981D01*
X0267606Y0161095D01*
X0267460Y0161205D01*
X0267311Y0161311D01*
X0267160Y0161414D01*
X0267007Y0161513D01*
X0266851Y0161608D01*
X0266692Y0161700D01*
X0266532Y0161787D01*
X0266370Y0161871D01*
X0266205Y0161951D01*
X0266039Y0162026D01*
X0265871Y0162098D01*
X0265701Y0162165D01*
X0265529Y0162229D01*
X0265356Y0162288D01*
X0265182Y0162342D01*
X0265006Y0162393D01*
X0264830Y0162439D01*
X0264652Y0162481D01*
X0264473Y0162519D01*
X0264293Y0162552D01*
X0264113Y0162581D01*
X0263932Y0162605D01*
X0263750Y0162625D01*
X0263568Y0162641D01*
X0263385Y0162652D01*
X0263203Y0162659D01*
X0263020Y0162661D01*
X0262837Y0162659D01*
X0262655Y0162652D01*
X0262472Y0162641D01*
X0262290Y0162625D01*
X0262108Y0162605D01*
X0261927Y0162581D01*
X0261747Y0162552D01*
X0261567Y0162519D01*
X0261388Y0162481D01*
X0261210Y0162439D01*
X0261034Y0162393D01*
X0260858Y0162342D01*
X0260684Y0162288D01*
X0260511Y0162229D01*
X0260339Y0162165D01*
X0260169Y0162098D01*
X0260001Y0162026D01*
X0259835Y0161951D01*
X0259670Y0161871D01*
X0259508Y0161787D01*
X0259348Y0161700D01*
X0259189Y0161608D01*
X0259033Y0161513D01*
X0258880Y0161414D01*
X0258729Y0161311D01*
X0258580Y0161205D01*
X0258434Y0161095D01*
X0258291Y0160981D01*
X0258151Y0160864D01*
X0258013Y0160744D01*
X0257879Y0160620D01*
X0257747Y0160493D01*
X0257619Y0160363D01*
X0257494Y0160230D01*
X0257372Y0160093D01*
X0257253Y0159954D01*
X0257138Y0159812D01*
X0257027Y0159667D01*
X0256919Y0159520D01*
X0256814Y0159370D01*
X0256714Y0159217D01*
X0256617Y0159062D01*
X0256524Y0158905D01*
X0254556Y0159496D02*
X0254556Y0163630D01*
X0267942Y0163630D01*
X0271485Y0160087D01*
X0271485Y0159496D01*
X0269516Y0151425D02*
X0269423Y0151268D01*
X0269326Y0151113D01*
X0269226Y0150960D01*
X0269121Y0150810D01*
X0269013Y0150663D01*
X0268902Y0150518D01*
X0268787Y0150376D01*
X0268668Y0150237D01*
X0268546Y0150100D01*
X0268421Y0149967D01*
X0268293Y0149837D01*
X0268161Y0149710D01*
X0268027Y0149586D01*
X0267889Y0149466D01*
X0267749Y0149349D01*
X0267606Y0149235D01*
X0267460Y0149125D01*
X0267311Y0149019D01*
X0267160Y0148916D01*
X0267007Y0148817D01*
X0266851Y0148722D01*
X0266692Y0148630D01*
X0266532Y0148543D01*
X0266370Y0148459D01*
X0266205Y0148379D01*
X0266039Y0148304D01*
X0265871Y0148232D01*
X0265701Y0148165D01*
X0265529Y0148101D01*
X0265356Y0148042D01*
X0265182Y0147988D01*
X0265006Y0147937D01*
X0264830Y0147891D01*
X0264652Y0147849D01*
X0264473Y0147811D01*
X0264293Y0147778D01*
X0264113Y0147749D01*
X0263932Y0147725D01*
X0263750Y0147705D01*
X0263568Y0147689D01*
X0263385Y0147678D01*
X0263203Y0147671D01*
X0263020Y0147669D01*
X0262837Y0147671D01*
X0262655Y0147678D01*
X0262472Y0147689D01*
X0262290Y0147705D01*
X0262108Y0147725D01*
X0261927Y0147749D01*
X0261747Y0147778D01*
X0261567Y0147811D01*
X0261388Y0147849D01*
X0261210Y0147891D01*
X0261034Y0147937D01*
X0260858Y0147988D01*
X0260684Y0148042D01*
X0260511Y0148101D01*
X0260339Y0148165D01*
X0260169Y0148232D01*
X0260001Y0148304D01*
X0259835Y0148379D01*
X0259670Y0148459D01*
X0259508Y0148543D01*
X0259348Y0148630D01*
X0259189Y0148722D01*
X0259033Y0148817D01*
X0258880Y0148916D01*
X0258729Y0149019D01*
X0258580Y0149125D01*
X0258434Y0149235D01*
X0258291Y0149349D01*
X0258151Y0149466D01*
X0258013Y0149586D01*
X0257879Y0149710D01*
X0257747Y0149837D01*
X0257619Y0149967D01*
X0257494Y0150100D01*
X0257372Y0150237D01*
X0257253Y0150376D01*
X0257138Y0150518D01*
X0257027Y0150663D01*
X0256919Y0150810D01*
X0256814Y0150960D01*
X0256714Y0151113D01*
X0256617Y0151268D01*
X0256524Y0151425D01*
X0298650Y0122882D02*
X0302784Y0122882D01*
X0298650Y0122882D02*
X0298650Y0109496D01*
X0302194Y0105953D01*
X0302981Y0105953D01*
X0311446Y0105953D02*
X0312036Y0105953D01*
X0315580Y0109496D01*
X0315580Y0122882D01*
X0311446Y0122882D01*
X0310855Y0120913D02*
X0311012Y0120820D01*
X0311167Y0120723D01*
X0311320Y0120623D01*
X0311470Y0120518D01*
X0311617Y0120410D01*
X0311762Y0120299D01*
X0311904Y0120184D01*
X0312043Y0120065D01*
X0312180Y0119943D01*
X0312313Y0119818D01*
X0312443Y0119690D01*
X0312570Y0119558D01*
X0312694Y0119424D01*
X0312814Y0119286D01*
X0312931Y0119146D01*
X0313045Y0119003D01*
X0313155Y0118857D01*
X0313261Y0118708D01*
X0313364Y0118557D01*
X0313463Y0118404D01*
X0313558Y0118248D01*
X0313650Y0118089D01*
X0313737Y0117929D01*
X0313821Y0117767D01*
X0313901Y0117602D01*
X0313976Y0117436D01*
X0314048Y0117268D01*
X0314115Y0117098D01*
X0314179Y0116926D01*
X0314238Y0116753D01*
X0314292Y0116579D01*
X0314343Y0116403D01*
X0314389Y0116227D01*
X0314431Y0116049D01*
X0314469Y0115870D01*
X0314502Y0115690D01*
X0314531Y0115510D01*
X0314555Y0115329D01*
X0314575Y0115147D01*
X0314591Y0114965D01*
X0314602Y0114782D01*
X0314609Y0114600D01*
X0314611Y0114417D01*
X0314609Y0114234D01*
X0314602Y0114052D01*
X0314591Y0113869D01*
X0314575Y0113687D01*
X0314555Y0113505D01*
X0314531Y0113324D01*
X0314502Y0113144D01*
X0314469Y0112964D01*
X0314431Y0112785D01*
X0314389Y0112607D01*
X0314343Y0112431D01*
X0314292Y0112255D01*
X0314238Y0112081D01*
X0314179Y0111908D01*
X0314115Y0111736D01*
X0314048Y0111566D01*
X0313976Y0111398D01*
X0313901Y0111232D01*
X0313821Y0111067D01*
X0313737Y0110905D01*
X0313650Y0110745D01*
X0313558Y0110586D01*
X0313463Y0110430D01*
X0313364Y0110277D01*
X0313261Y0110126D01*
X0313155Y0109977D01*
X0313045Y0109831D01*
X0312931Y0109688D01*
X0312814Y0109548D01*
X0312694Y0109410D01*
X0312570Y0109276D01*
X0312443Y0109144D01*
X0312313Y0109016D01*
X0312180Y0108891D01*
X0312043Y0108769D01*
X0311904Y0108650D01*
X0311762Y0108535D01*
X0311617Y0108424D01*
X0311470Y0108316D01*
X0311320Y0108211D01*
X0311167Y0108111D01*
X0311012Y0108014D01*
X0310855Y0107921D01*
X0303375Y0107921D02*
X0303218Y0108014D01*
X0303063Y0108111D01*
X0302910Y0108211D01*
X0302760Y0108316D01*
X0302613Y0108424D01*
X0302468Y0108535D01*
X0302326Y0108650D01*
X0302187Y0108769D01*
X0302050Y0108891D01*
X0301917Y0109016D01*
X0301787Y0109144D01*
X0301660Y0109276D01*
X0301536Y0109410D01*
X0301416Y0109548D01*
X0301299Y0109688D01*
X0301185Y0109831D01*
X0301075Y0109977D01*
X0300969Y0110126D01*
X0300866Y0110277D01*
X0300767Y0110430D01*
X0300672Y0110586D01*
X0300580Y0110745D01*
X0300493Y0110905D01*
X0300409Y0111067D01*
X0300329Y0111232D01*
X0300254Y0111398D01*
X0300182Y0111566D01*
X0300115Y0111736D01*
X0300051Y0111908D01*
X0299992Y0112081D01*
X0299938Y0112255D01*
X0299887Y0112431D01*
X0299841Y0112607D01*
X0299799Y0112785D01*
X0299761Y0112964D01*
X0299728Y0113144D01*
X0299699Y0113324D01*
X0299675Y0113505D01*
X0299655Y0113687D01*
X0299639Y0113869D01*
X0299628Y0114052D01*
X0299621Y0114234D01*
X0299619Y0114417D01*
X0299621Y0114600D01*
X0299628Y0114782D01*
X0299639Y0114965D01*
X0299655Y0115147D01*
X0299675Y0115329D01*
X0299699Y0115510D01*
X0299728Y0115690D01*
X0299761Y0115870D01*
X0299799Y0116049D01*
X0299841Y0116227D01*
X0299887Y0116403D01*
X0299938Y0116579D01*
X0299992Y0116753D01*
X0300051Y0116926D01*
X0300115Y0117098D01*
X0300182Y0117268D01*
X0300254Y0117436D01*
X0300329Y0117602D01*
X0300409Y0117767D01*
X0300493Y0117929D01*
X0300580Y0118089D01*
X0300672Y0118248D01*
X0300767Y0118404D01*
X0300866Y0118557D01*
X0300969Y0118708D01*
X0301075Y0118857D01*
X0301185Y0119003D01*
X0301299Y0119146D01*
X0301416Y0119286D01*
X0301536Y0119424D01*
X0301660Y0119558D01*
X0301787Y0119690D01*
X0301917Y0119818D01*
X0302050Y0119943D01*
X0302187Y0120065D01*
X0302326Y0120184D01*
X0302468Y0120299D01*
X0302613Y0120410D01*
X0302760Y0120518D01*
X0302910Y0120623D01*
X0303063Y0120723D01*
X0303218Y0120820D01*
X0303375Y0120913D01*
X0304162Y0037252D02*
X0299044Y0037252D01*
X0295501Y0033709D01*
X0295501Y0011268D01*
X0304162Y0011268D01*
X0312824Y0011268D02*
X0321485Y0011268D01*
X0321485Y0033709D01*
X0317942Y0037252D01*
X0312824Y0037252D01*
X0323257Y0024850D02*
X0326800Y0028394D01*
X0327391Y0028394D01*
X0323257Y0024850D02*
X0323257Y0011465D01*
X0327391Y0011465D01*
X0336052Y0011465D02*
X0340186Y0011465D01*
X0340186Y0024850D01*
X0336643Y0028394D01*
X0335855Y0028394D01*
X0342154Y0024850D02*
X0345698Y0028394D01*
X0346288Y0028394D01*
X0342154Y0024850D02*
X0342154Y0011465D01*
X0346288Y0011465D01*
X0354950Y0011465D02*
X0359083Y0011465D01*
X0359083Y0024850D01*
X0355540Y0028394D01*
X0354753Y0028394D01*
X0346879Y0026425D02*
X0346722Y0026332D01*
X0346567Y0026235D01*
X0346414Y0026135D01*
X0346264Y0026030D01*
X0346117Y0025922D01*
X0345972Y0025811D01*
X0345830Y0025696D01*
X0345691Y0025577D01*
X0345554Y0025455D01*
X0345421Y0025330D01*
X0345291Y0025202D01*
X0345164Y0025070D01*
X0345040Y0024936D01*
X0344920Y0024798D01*
X0344803Y0024658D01*
X0344689Y0024515D01*
X0344579Y0024369D01*
X0344473Y0024220D01*
X0344370Y0024069D01*
X0344271Y0023916D01*
X0344176Y0023760D01*
X0344084Y0023601D01*
X0343997Y0023441D01*
X0343913Y0023279D01*
X0343833Y0023114D01*
X0343758Y0022948D01*
X0343686Y0022780D01*
X0343619Y0022610D01*
X0343555Y0022438D01*
X0343496Y0022265D01*
X0343442Y0022091D01*
X0343391Y0021915D01*
X0343345Y0021739D01*
X0343303Y0021561D01*
X0343265Y0021382D01*
X0343232Y0021202D01*
X0343203Y0021022D01*
X0343179Y0020841D01*
X0343159Y0020659D01*
X0343143Y0020477D01*
X0343132Y0020294D01*
X0343125Y0020112D01*
X0343123Y0019929D01*
X0343125Y0019746D01*
X0343132Y0019564D01*
X0343143Y0019381D01*
X0343159Y0019199D01*
X0343179Y0019017D01*
X0343203Y0018836D01*
X0343232Y0018656D01*
X0343265Y0018476D01*
X0343303Y0018297D01*
X0343345Y0018119D01*
X0343391Y0017943D01*
X0343442Y0017767D01*
X0343496Y0017593D01*
X0343555Y0017420D01*
X0343619Y0017248D01*
X0343686Y0017078D01*
X0343758Y0016910D01*
X0343833Y0016744D01*
X0343913Y0016579D01*
X0343997Y0016417D01*
X0344084Y0016257D01*
X0344176Y0016098D01*
X0344271Y0015942D01*
X0344370Y0015789D01*
X0344473Y0015638D01*
X0344579Y0015489D01*
X0344689Y0015343D01*
X0344803Y0015200D01*
X0344920Y0015060D01*
X0345040Y0014922D01*
X0345164Y0014788D01*
X0345291Y0014656D01*
X0345421Y0014528D01*
X0345554Y0014403D01*
X0345691Y0014281D01*
X0345830Y0014162D01*
X0345972Y0014047D01*
X0346117Y0013936D01*
X0346264Y0013828D01*
X0346414Y0013723D01*
X0346567Y0013623D01*
X0346722Y0013526D01*
X0346879Y0013433D01*
X0354359Y0013433D02*
X0354516Y0013526D01*
X0354671Y0013623D01*
X0354824Y0013723D01*
X0354974Y0013828D01*
X0355121Y0013936D01*
X0355266Y0014047D01*
X0355408Y0014162D01*
X0355547Y0014281D01*
X0355684Y0014403D01*
X0355817Y0014528D01*
X0355947Y0014656D01*
X0356074Y0014788D01*
X0356198Y0014922D01*
X0356318Y0015060D01*
X0356435Y0015200D01*
X0356549Y0015343D01*
X0356659Y0015489D01*
X0356765Y0015638D01*
X0356868Y0015789D01*
X0356967Y0015942D01*
X0357062Y0016098D01*
X0357154Y0016257D01*
X0357241Y0016417D01*
X0357325Y0016579D01*
X0357405Y0016744D01*
X0357480Y0016910D01*
X0357552Y0017078D01*
X0357619Y0017248D01*
X0357683Y0017420D01*
X0357742Y0017593D01*
X0357796Y0017767D01*
X0357847Y0017943D01*
X0357893Y0018119D01*
X0357935Y0018297D01*
X0357973Y0018476D01*
X0358006Y0018656D01*
X0358035Y0018836D01*
X0358059Y0019017D01*
X0358079Y0019199D01*
X0358095Y0019381D01*
X0358106Y0019564D01*
X0358113Y0019746D01*
X0358115Y0019929D01*
X0358113Y0020112D01*
X0358106Y0020294D01*
X0358095Y0020477D01*
X0358079Y0020659D01*
X0358059Y0020841D01*
X0358035Y0021022D01*
X0358006Y0021202D01*
X0357973Y0021382D01*
X0357935Y0021561D01*
X0357893Y0021739D01*
X0357847Y0021915D01*
X0357796Y0022091D01*
X0357742Y0022265D01*
X0357683Y0022438D01*
X0357619Y0022610D01*
X0357552Y0022780D01*
X0357480Y0022948D01*
X0357405Y0023114D01*
X0357325Y0023279D01*
X0357241Y0023441D01*
X0357154Y0023601D01*
X0357062Y0023760D01*
X0356967Y0023916D01*
X0356868Y0024069D01*
X0356765Y0024220D01*
X0356659Y0024369D01*
X0356549Y0024515D01*
X0356435Y0024658D01*
X0356318Y0024798D01*
X0356198Y0024936D01*
X0356074Y0025070D01*
X0355947Y0025202D01*
X0355817Y0025330D01*
X0355684Y0025455D01*
X0355547Y0025577D01*
X0355408Y0025696D01*
X0355266Y0025811D01*
X0355121Y0025922D01*
X0354974Y0026030D01*
X0354824Y0026135D01*
X0354671Y0026235D01*
X0354516Y0026332D01*
X0354359Y0026425D01*
X0327981Y0026425D02*
X0327824Y0026332D01*
X0327669Y0026235D01*
X0327516Y0026135D01*
X0327366Y0026030D01*
X0327219Y0025922D01*
X0327074Y0025811D01*
X0326932Y0025696D01*
X0326793Y0025577D01*
X0326656Y0025455D01*
X0326523Y0025330D01*
X0326393Y0025202D01*
X0326266Y0025070D01*
X0326142Y0024936D01*
X0326022Y0024798D01*
X0325905Y0024658D01*
X0325791Y0024515D01*
X0325681Y0024369D01*
X0325575Y0024220D01*
X0325472Y0024069D01*
X0325373Y0023916D01*
X0325278Y0023760D01*
X0325186Y0023601D01*
X0325099Y0023441D01*
X0325015Y0023279D01*
X0324935Y0023114D01*
X0324860Y0022948D01*
X0324788Y0022780D01*
X0324721Y0022610D01*
X0324657Y0022438D01*
X0324598Y0022265D01*
X0324544Y0022091D01*
X0324493Y0021915D01*
X0324447Y0021739D01*
X0324405Y0021561D01*
X0324367Y0021382D01*
X0324334Y0021202D01*
X0324305Y0021022D01*
X0324281Y0020841D01*
X0324261Y0020659D01*
X0324245Y0020477D01*
X0324234Y0020294D01*
X0324227Y0020112D01*
X0324225Y0019929D01*
X0324227Y0019746D01*
X0324234Y0019564D01*
X0324245Y0019381D01*
X0324261Y0019199D01*
X0324281Y0019017D01*
X0324305Y0018836D01*
X0324334Y0018656D01*
X0324367Y0018476D01*
X0324405Y0018297D01*
X0324447Y0018119D01*
X0324493Y0017943D01*
X0324544Y0017767D01*
X0324598Y0017593D01*
X0324657Y0017420D01*
X0324721Y0017248D01*
X0324788Y0017078D01*
X0324860Y0016910D01*
X0324935Y0016744D01*
X0325015Y0016579D01*
X0325099Y0016417D01*
X0325186Y0016257D01*
X0325278Y0016098D01*
X0325373Y0015942D01*
X0325472Y0015789D01*
X0325575Y0015638D01*
X0325681Y0015489D01*
X0325791Y0015343D01*
X0325905Y0015200D01*
X0326022Y0015060D01*
X0326142Y0014922D01*
X0326266Y0014788D01*
X0326393Y0014656D01*
X0326523Y0014528D01*
X0326656Y0014403D01*
X0326793Y0014281D01*
X0326932Y0014162D01*
X0327074Y0014047D01*
X0327219Y0013936D01*
X0327366Y0013828D01*
X0327516Y0013723D01*
X0327669Y0013623D01*
X0327824Y0013526D01*
X0327981Y0013433D01*
X0335461Y0013433D02*
X0335618Y0013526D01*
X0335773Y0013623D01*
X0335926Y0013723D01*
X0336076Y0013828D01*
X0336223Y0013936D01*
X0336368Y0014047D01*
X0336510Y0014162D01*
X0336649Y0014281D01*
X0336786Y0014403D01*
X0336919Y0014528D01*
X0337049Y0014656D01*
X0337176Y0014788D01*
X0337300Y0014922D01*
X0337420Y0015060D01*
X0337537Y0015200D01*
X0337651Y0015343D01*
X0337761Y0015489D01*
X0337867Y0015638D01*
X0337970Y0015789D01*
X0338069Y0015942D01*
X0338164Y0016098D01*
X0338256Y0016257D01*
X0338343Y0016417D01*
X0338427Y0016579D01*
X0338507Y0016744D01*
X0338582Y0016910D01*
X0338654Y0017078D01*
X0338721Y0017248D01*
X0338785Y0017420D01*
X0338844Y0017593D01*
X0338898Y0017767D01*
X0338949Y0017943D01*
X0338995Y0018119D01*
X0339037Y0018297D01*
X0339075Y0018476D01*
X0339108Y0018656D01*
X0339137Y0018836D01*
X0339161Y0019017D01*
X0339181Y0019199D01*
X0339197Y0019381D01*
X0339208Y0019564D01*
X0339215Y0019746D01*
X0339217Y0019929D01*
X0339215Y0020112D01*
X0339208Y0020294D01*
X0339197Y0020477D01*
X0339181Y0020659D01*
X0339161Y0020841D01*
X0339137Y0021022D01*
X0339108Y0021202D01*
X0339075Y0021382D01*
X0339037Y0021561D01*
X0338995Y0021739D01*
X0338949Y0021915D01*
X0338898Y0022091D01*
X0338844Y0022265D01*
X0338785Y0022438D01*
X0338721Y0022610D01*
X0338654Y0022780D01*
X0338582Y0022948D01*
X0338507Y0023114D01*
X0338427Y0023279D01*
X0338343Y0023441D01*
X0338256Y0023601D01*
X0338164Y0023760D01*
X0338069Y0023916D01*
X0337970Y0024069D01*
X0337867Y0024220D01*
X0337761Y0024369D01*
X0337651Y0024515D01*
X0337537Y0024658D01*
X0337420Y0024798D01*
X0337300Y0024936D01*
X0337176Y0025070D01*
X0337049Y0025202D01*
X0336919Y0025330D01*
X0336786Y0025455D01*
X0336649Y0025577D01*
X0336510Y0025696D01*
X0336368Y0025811D01*
X0336223Y0025922D01*
X0336076Y0026030D01*
X0335926Y0026135D01*
X0335773Y0026235D01*
X0335618Y0026332D01*
X0335461Y0026425D01*
X0312233Y0035874D02*
X0312514Y0035780D01*
X0312793Y0035678D01*
X0313069Y0035570D01*
X0313342Y0035455D01*
X0313613Y0035334D01*
X0313880Y0035206D01*
X0314145Y0035071D01*
X0314406Y0034930D01*
X0314663Y0034783D01*
X0314917Y0034630D01*
X0315167Y0034470D01*
X0315413Y0034305D01*
X0315655Y0034133D01*
X0315892Y0033956D01*
X0316126Y0033773D01*
X0316354Y0033584D01*
X0316579Y0033389D01*
X0316798Y0033190D01*
X0317012Y0032985D01*
X0317221Y0032775D01*
X0317425Y0032560D01*
X0317624Y0032339D01*
X0317818Y0032115D01*
X0318005Y0031885D01*
X0318188Y0031651D01*
X0318364Y0031413D01*
X0318535Y0031170D01*
X0318699Y0030924D01*
X0318858Y0030673D01*
X0319010Y0030419D01*
X0319156Y0030160D01*
X0319296Y0029899D01*
X0319430Y0029634D01*
X0319557Y0029366D01*
X0319677Y0029095D01*
X0319791Y0028821D01*
X0319898Y0028545D01*
X0319998Y0028265D01*
X0320091Y0027984D01*
X0320178Y0027700D01*
X0320257Y0027415D01*
X0320330Y0027127D01*
X0320396Y0026838D01*
X0320454Y0026547D01*
X0320505Y0026255D01*
X0320550Y0025962D01*
X0320587Y0025668D01*
X0320617Y0025373D01*
X0320640Y0025077D01*
X0320655Y0024781D01*
X0320663Y0024484D01*
X0320665Y0024188D01*
X0320658Y0023891D01*
X0320645Y0023595D01*
X0320625Y0023299D01*
X0320597Y0023004D01*
X0320562Y0022710D01*
X0320520Y0022416D01*
X0320470Y0022124D01*
X0320414Y0021832D01*
X0320351Y0021543D01*
X0320280Y0021255D01*
X0320203Y0020968D01*
X0320118Y0020684D01*
X0320027Y0020402D01*
X0319929Y0020122D01*
X0319824Y0019845D01*
X0319712Y0019570D01*
X0319594Y0019298D01*
X0319469Y0019029D01*
X0319337Y0018763D01*
X0319200Y0018501D01*
X0319055Y0018242D01*
X0318905Y0017986D01*
X0318748Y0017734D01*
X0318585Y0017486D01*
X0318417Y0017243D01*
X0318242Y0017003D01*
X0318061Y0016768D01*
X0317875Y0016537D01*
X0317684Y0016310D01*
X0317487Y0016089D01*
X0317284Y0015872D01*
X0317076Y0015661D01*
X0316864Y0015454D01*
X0316646Y0015253D01*
X0316423Y0015057D01*
X0316196Y0014866D01*
X0315964Y0014681D01*
X0315728Y0014502D01*
X0315487Y0014329D01*
X0315242Y0014162D01*
X0314993Y0014000D01*
X0314741Y0013845D01*
X0314484Y0013696D01*
X0314225Y0013553D01*
X0313961Y0013416D01*
X0313695Y0013286D01*
X0313425Y0013163D01*
X0313153Y0013046D01*
X0312877Y0012936D01*
X0312599Y0012833D01*
X0312319Y0012736D01*
X0312036Y0012646D01*
X0304753Y0012646D02*
X0304472Y0012740D01*
X0304193Y0012842D01*
X0303917Y0012950D01*
X0303644Y0013065D01*
X0303373Y0013186D01*
X0303106Y0013314D01*
X0302841Y0013449D01*
X0302580Y0013590D01*
X0302323Y0013737D01*
X0302069Y0013890D01*
X0301819Y0014050D01*
X0301573Y0014215D01*
X0301331Y0014387D01*
X0301094Y0014564D01*
X0300860Y0014747D01*
X0300632Y0014936D01*
X0300407Y0015131D01*
X0300188Y0015330D01*
X0299974Y0015535D01*
X0299765Y0015745D01*
X0299561Y0015960D01*
X0299362Y0016181D01*
X0299168Y0016405D01*
X0298981Y0016635D01*
X0298798Y0016869D01*
X0298622Y0017107D01*
X0298451Y0017350D01*
X0298287Y0017596D01*
X0298128Y0017847D01*
X0297976Y0018101D01*
X0297830Y0018360D01*
X0297690Y0018621D01*
X0297556Y0018886D01*
X0297429Y0019154D01*
X0297309Y0019425D01*
X0297195Y0019699D01*
X0297088Y0019975D01*
X0296988Y0020255D01*
X0296895Y0020536D01*
X0296808Y0020820D01*
X0296729Y0021105D01*
X0296656Y0021393D01*
X0296590Y0021682D01*
X0296532Y0021973D01*
X0296481Y0022265D01*
X0296436Y0022558D01*
X0296399Y0022852D01*
X0296369Y0023147D01*
X0296346Y0023443D01*
X0296331Y0023739D01*
X0296323Y0024036D01*
X0296321Y0024332D01*
X0296328Y0024629D01*
X0296341Y0024925D01*
X0296361Y0025221D01*
X0296389Y0025516D01*
X0296424Y0025810D01*
X0296466Y0026104D01*
X0296516Y0026396D01*
X0296572Y0026688D01*
X0296635Y0026977D01*
X0296706Y0027265D01*
X0296783Y0027552D01*
X0296868Y0027836D01*
X0296959Y0028118D01*
X0297057Y0028398D01*
X0297162Y0028675D01*
X0297274Y0028950D01*
X0297392Y0029222D01*
X0297517Y0029491D01*
X0297649Y0029757D01*
X0297786Y0030019D01*
X0297931Y0030278D01*
X0298081Y0030534D01*
X0298238Y0030786D01*
X0298401Y0031034D01*
X0298569Y0031277D01*
X0298744Y0031517D01*
X0298925Y0031752D01*
X0299111Y0031983D01*
X0299302Y0032210D01*
X0299499Y0032431D01*
X0299702Y0032648D01*
X0299910Y0032859D01*
X0300122Y0033066D01*
X0300340Y0033267D01*
X0300563Y0033463D01*
X0300790Y0033654D01*
X0301022Y0033839D01*
X0301258Y0034018D01*
X0301499Y0034191D01*
X0301744Y0034358D01*
X0301993Y0034520D01*
X0302245Y0034675D01*
X0302502Y0034824D01*
X0302761Y0034967D01*
X0303025Y0035104D01*
X0303291Y0035234D01*
X0303561Y0035357D01*
X0303833Y0035474D01*
X0304109Y0035584D01*
X0304387Y0035687D01*
X0304667Y0035784D01*
X0304950Y0035874D01*
X0223060Y0031740D02*
X0223060Y0009299D01*
X0214398Y0009299D01*
X0205737Y0009299D02*
X0197076Y0009299D01*
X0197076Y0031740D01*
X0200619Y0035283D01*
X0205737Y0035283D01*
X0214398Y0035283D02*
X0219517Y0035283D01*
X0223060Y0031740D01*
X0213808Y0033905D02*
X0214089Y0033811D01*
X0214368Y0033709D01*
X0214644Y0033601D01*
X0214917Y0033486D01*
X0215188Y0033365D01*
X0215455Y0033237D01*
X0215720Y0033102D01*
X0215981Y0032961D01*
X0216238Y0032814D01*
X0216492Y0032661D01*
X0216742Y0032501D01*
X0216988Y0032336D01*
X0217230Y0032164D01*
X0217467Y0031987D01*
X0217701Y0031804D01*
X0217929Y0031615D01*
X0218154Y0031420D01*
X0218373Y0031221D01*
X0218587Y0031016D01*
X0218796Y0030806D01*
X0219000Y0030591D01*
X0219199Y0030370D01*
X0219393Y0030146D01*
X0219580Y0029916D01*
X0219763Y0029682D01*
X0219939Y0029444D01*
X0220110Y0029201D01*
X0220274Y0028955D01*
X0220433Y0028704D01*
X0220585Y0028450D01*
X0220731Y0028191D01*
X0220871Y0027930D01*
X0221005Y0027665D01*
X0221132Y0027397D01*
X0221252Y0027126D01*
X0221366Y0026852D01*
X0221473Y0026576D01*
X0221573Y0026296D01*
X0221666Y0026015D01*
X0221753Y0025731D01*
X0221832Y0025446D01*
X0221905Y0025158D01*
X0221971Y0024869D01*
X0222029Y0024578D01*
X0222080Y0024286D01*
X0222125Y0023993D01*
X0222162Y0023699D01*
X0222192Y0023404D01*
X0222215Y0023108D01*
X0222230Y0022812D01*
X0222238Y0022515D01*
X0222240Y0022219D01*
X0222233Y0021922D01*
X0222220Y0021626D01*
X0222200Y0021330D01*
X0222172Y0021035D01*
X0222137Y0020741D01*
X0222095Y0020447D01*
X0222045Y0020155D01*
X0221989Y0019863D01*
X0221926Y0019574D01*
X0221855Y0019286D01*
X0221778Y0018999D01*
X0221693Y0018715D01*
X0221602Y0018433D01*
X0221504Y0018153D01*
X0221399Y0017876D01*
X0221287Y0017601D01*
X0221169Y0017329D01*
X0221044Y0017060D01*
X0220912Y0016794D01*
X0220775Y0016532D01*
X0220630Y0016273D01*
X0220480Y0016017D01*
X0220323Y0015765D01*
X0220160Y0015517D01*
X0219992Y0015274D01*
X0219817Y0015034D01*
X0219636Y0014799D01*
X0219450Y0014568D01*
X0219259Y0014341D01*
X0219062Y0014120D01*
X0218859Y0013903D01*
X0218651Y0013692D01*
X0218439Y0013485D01*
X0218221Y0013284D01*
X0217998Y0013088D01*
X0217771Y0012897D01*
X0217539Y0012712D01*
X0217303Y0012533D01*
X0217062Y0012360D01*
X0216817Y0012193D01*
X0216568Y0012031D01*
X0216316Y0011876D01*
X0216059Y0011727D01*
X0215800Y0011584D01*
X0215536Y0011447D01*
X0215270Y0011317D01*
X0215000Y0011194D01*
X0214728Y0011077D01*
X0214452Y0010967D01*
X0214174Y0010864D01*
X0213894Y0010767D01*
X0213611Y0010677D01*
X0195894Y0017370D02*
X0191761Y0017370D01*
X0195894Y0017370D02*
X0195894Y0030756D01*
X0192351Y0034299D01*
X0191564Y0034299D01*
X0183099Y0034299D02*
X0182509Y0034299D01*
X0178965Y0030756D01*
X0178965Y0017370D01*
X0183099Y0017370D01*
X0177784Y0017370D02*
X0173650Y0017370D01*
X0177784Y0017370D02*
X0177784Y0030756D01*
X0174241Y0034299D01*
X0173454Y0034299D01*
X0164989Y0034299D02*
X0164398Y0034299D01*
X0160855Y0030756D01*
X0160855Y0017370D01*
X0164989Y0017370D01*
X0165580Y0019339D02*
X0165423Y0019432D01*
X0165268Y0019529D01*
X0165115Y0019629D01*
X0164965Y0019734D01*
X0164818Y0019842D01*
X0164673Y0019953D01*
X0164531Y0020068D01*
X0164392Y0020187D01*
X0164255Y0020309D01*
X0164122Y0020434D01*
X0163992Y0020562D01*
X0163865Y0020694D01*
X0163741Y0020828D01*
X0163621Y0020966D01*
X0163504Y0021106D01*
X0163390Y0021249D01*
X0163280Y0021395D01*
X0163174Y0021544D01*
X0163071Y0021695D01*
X0162972Y0021848D01*
X0162877Y0022004D01*
X0162785Y0022163D01*
X0162698Y0022323D01*
X0162614Y0022485D01*
X0162534Y0022650D01*
X0162459Y0022816D01*
X0162387Y0022984D01*
X0162320Y0023154D01*
X0162256Y0023326D01*
X0162197Y0023499D01*
X0162143Y0023673D01*
X0162092Y0023849D01*
X0162046Y0024025D01*
X0162004Y0024203D01*
X0161966Y0024382D01*
X0161933Y0024562D01*
X0161904Y0024742D01*
X0161880Y0024923D01*
X0161860Y0025105D01*
X0161844Y0025287D01*
X0161833Y0025470D01*
X0161826Y0025652D01*
X0161824Y0025835D01*
X0161826Y0026018D01*
X0161833Y0026200D01*
X0161844Y0026383D01*
X0161860Y0026565D01*
X0161880Y0026747D01*
X0161904Y0026928D01*
X0161933Y0027108D01*
X0161966Y0027288D01*
X0162004Y0027467D01*
X0162046Y0027645D01*
X0162092Y0027821D01*
X0162143Y0027997D01*
X0162197Y0028171D01*
X0162256Y0028344D01*
X0162320Y0028516D01*
X0162387Y0028686D01*
X0162459Y0028854D01*
X0162534Y0029020D01*
X0162614Y0029185D01*
X0162698Y0029347D01*
X0162785Y0029507D01*
X0162877Y0029666D01*
X0162972Y0029822D01*
X0163071Y0029975D01*
X0163174Y0030126D01*
X0163280Y0030275D01*
X0163390Y0030421D01*
X0163504Y0030564D01*
X0163621Y0030704D01*
X0163741Y0030842D01*
X0163865Y0030976D01*
X0163992Y0031108D01*
X0164122Y0031236D01*
X0164255Y0031361D01*
X0164392Y0031483D01*
X0164531Y0031602D01*
X0164673Y0031717D01*
X0164818Y0031828D01*
X0164965Y0031936D01*
X0165115Y0032041D01*
X0165268Y0032141D01*
X0165423Y0032238D01*
X0165580Y0032331D01*
X0173060Y0032331D02*
X0173217Y0032238D01*
X0173372Y0032141D01*
X0173525Y0032041D01*
X0173675Y0031936D01*
X0173822Y0031828D01*
X0173967Y0031717D01*
X0174109Y0031602D01*
X0174248Y0031483D01*
X0174385Y0031361D01*
X0174518Y0031236D01*
X0174648Y0031108D01*
X0174775Y0030976D01*
X0174899Y0030842D01*
X0175019Y0030704D01*
X0175136Y0030564D01*
X0175250Y0030421D01*
X0175360Y0030275D01*
X0175466Y0030126D01*
X0175569Y0029975D01*
X0175668Y0029822D01*
X0175763Y0029666D01*
X0175855Y0029507D01*
X0175942Y0029347D01*
X0176026Y0029185D01*
X0176106Y0029020D01*
X0176181Y0028854D01*
X0176253Y0028686D01*
X0176320Y0028516D01*
X0176384Y0028344D01*
X0176443Y0028171D01*
X0176497Y0027997D01*
X0176548Y0027821D01*
X0176594Y0027645D01*
X0176636Y0027467D01*
X0176674Y0027288D01*
X0176707Y0027108D01*
X0176736Y0026928D01*
X0176760Y0026747D01*
X0176780Y0026565D01*
X0176796Y0026383D01*
X0176807Y0026200D01*
X0176814Y0026018D01*
X0176816Y0025835D01*
X0176814Y0025652D01*
X0176807Y0025470D01*
X0176796Y0025287D01*
X0176780Y0025105D01*
X0176760Y0024923D01*
X0176736Y0024742D01*
X0176707Y0024562D01*
X0176674Y0024382D01*
X0176636Y0024203D01*
X0176594Y0024025D01*
X0176548Y0023849D01*
X0176497Y0023673D01*
X0176443Y0023499D01*
X0176384Y0023326D01*
X0176320Y0023154D01*
X0176253Y0022984D01*
X0176181Y0022816D01*
X0176106Y0022650D01*
X0176026Y0022485D01*
X0175942Y0022323D01*
X0175855Y0022163D01*
X0175763Y0022004D01*
X0175668Y0021848D01*
X0175569Y0021695D01*
X0175466Y0021544D01*
X0175360Y0021395D01*
X0175250Y0021249D01*
X0175136Y0021106D01*
X0175019Y0020966D01*
X0174899Y0020828D01*
X0174775Y0020694D01*
X0174648Y0020562D01*
X0174518Y0020434D01*
X0174385Y0020309D01*
X0174248Y0020187D01*
X0174109Y0020068D01*
X0173967Y0019953D01*
X0173822Y0019842D01*
X0173675Y0019734D01*
X0173525Y0019629D01*
X0173372Y0019529D01*
X0173217Y0019432D01*
X0173060Y0019339D01*
X0191170Y0019339D02*
X0191327Y0019432D01*
X0191482Y0019529D01*
X0191635Y0019629D01*
X0191785Y0019734D01*
X0191932Y0019842D01*
X0192077Y0019953D01*
X0192219Y0020068D01*
X0192358Y0020187D01*
X0192495Y0020309D01*
X0192628Y0020434D01*
X0192758Y0020562D01*
X0192885Y0020694D01*
X0193009Y0020828D01*
X0193129Y0020966D01*
X0193246Y0021106D01*
X0193360Y0021249D01*
X0193470Y0021395D01*
X0193576Y0021544D01*
X0193679Y0021695D01*
X0193778Y0021848D01*
X0193873Y0022004D01*
X0193965Y0022163D01*
X0194052Y0022323D01*
X0194136Y0022485D01*
X0194216Y0022650D01*
X0194291Y0022816D01*
X0194363Y0022984D01*
X0194430Y0023154D01*
X0194494Y0023326D01*
X0194553Y0023499D01*
X0194607Y0023673D01*
X0194658Y0023849D01*
X0194704Y0024025D01*
X0194746Y0024203D01*
X0194784Y0024382D01*
X0194817Y0024562D01*
X0194846Y0024742D01*
X0194870Y0024923D01*
X0194890Y0025105D01*
X0194906Y0025287D01*
X0194917Y0025470D01*
X0194924Y0025652D01*
X0194926Y0025835D01*
X0194924Y0026018D01*
X0194917Y0026200D01*
X0194906Y0026383D01*
X0194890Y0026565D01*
X0194870Y0026747D01*
X0194846Y0026928D01*
X0194817Y0027108D01*
X0194784Y0027288D01*
X0194746Y0027467D01*
X0194704Y0027645D01*
X0194658Y0027821D01*
X0194607Y0027997D01*
X0194553Y0028171D01*
X0194494Y0028344D01*
X0194430Y0028516D01*
X0194363Y0028686D01*
X0194291Y0028854D01*
X0194216Y0029020D01*
X0194136Y0029185D01*
X0194052Y0029347D01*
X0193965Y0029507D01*
X0193873Y0029666D01*
X0193778Y0029822D01*
X0193679Y0029975D01*
X0193576Y0030126D01*
X0193470Y0030275D01*
X0193360Y0030421D01*
X0193246Y0030564D01*
X0193129Y0030704D01*
X0193009Y0030842D01*
X0192885Y0030976D01*
X0192758Y0031108D01*
X0192628Y0031236D01*
X0192495Y0031361D01*
X0192358Y0031483D01*
X0192219Y0031602D01*
X0192077Y0031717D01*
X0191932Y0031828D01*
X0191785Y0031936D01*
X0191635Y0032041D01*
X0191482Y0032141D01*
X0191327Y0032238D01*
X0191170Y0032331D01*
X0183690Y0032331D02*
X0183533Y0032238D01*
X0183378Y0032141D01*
X0183225Y0032041D01*
X0183075Y0031936D01*
X0182928Y0031828D01*
X0182783Y0031717D01*
X0182641Y0031602D01*
X0182502Y0031483D01*
X0182365Y0031361D01*
X0182232Y0031236D01*
X0182102Y0031108D01*
X0181975Y0030976D01*
X0181851Y0030842D01*
X0181731Y0030704D01*
X0181614Y0030564D01*
X0181500Y0030421D01*
X0181390Y0030275D01*
X0181284Y0030126D01*
X0181181Y0029975D01*
X0181082Y0029822D01*
X0180987Y0029666D01*
X0180895Y0029507D01*
X0180808Y0029347D01*
X0180724Y0029185D01*
X0180644Y0029020D01*
X0180569Y0028854D01*
X0180497Y0028686D01*
X0180430Y0028516D01*
X0180366Y0028344D01*
X0180307Y0028171D01*
X0180253Y0027997D01*
X0180202Y0027821D01*
X0180156Y0027645D01*
X0180114Y0027467D01*
X0180076Y0027288D01*
X0180043Y0027108D01*
X0180014Y0026928D01*
X0179990Y0026747D01*
X0179970Y0026565D01*
X0179954Y0026383D01*
X0179943Y0026200D01*
X0179936Y0026018D01*
X0179934Y0025835D01*
X0179936Y0025652D01*
X0179943Y0025470D01*
X0179954Y0025287D01*
X0179970Y0025105D01*
X0179990Y0024923D01*
X0180014Y0024742D01*
X0180043Y0024562D01*
X0180076Y0024382D01*
X0180114Y0024203D01*
X0180156Y0024025D01*
X0180202Y0023849D01*
X0180253Y0023673D01*
X0180307Y0023499D01*
X0180366Y0023326D01*
X0180430Y0023154D01*
X0180497Y0022984D01*
X0180569Y0022816D01*
X0180644Y0022650D01*
X0180724Y0022485D01*
X0180808Y0022323D01*
X0180895Y0022163D01*
X0180987Y0022004D01*
X0181082Y0021848D01*
X0181181Y0021695D01*
X0181284Y0021544D01*
X0181390Y0021395D01*
X0181500Y0021249D01*
X0181614Y0021106D01*
X0181731Y0020966D01*
X0181851Y0020828D01*
X0181975Y0020694D01*
X0182102Y0020562D01*
X0182232Y0020434D01*
X0182365Y0020309D01*
X0182502Y0020187D01*
X0182641Y0020068D01*
X0182783Y0019953D01*
X0182928Y0019842D01*
X0183075Y0019734D01*
X0183225Y0019629D01*
X0183378Y0019529D01*
X0183533Y0019432D01*
X0183690Y0019339D01*
X0206328Y0010677D02*
X0206047Y0010771D01*
X0205768Y0010873D01*
X0205492Y0010981D01*
X0205219Y0011096D01*
X0204948Y0011217D01*
X0204681Y0011345D01*
X0204416Y0011480D01*
X0204155Y0011621D01*
X0203898Y0011768D01*
X0203644Y0011921D01*
X0203394Y0012081D01*
X0203148Y0012246D01*
X0202906Y0012418D01*
X0202669Y0012595D01*
X0202435Y0012778D01*
X0202207Y0012967D01*
X0201982Y0013162D01*
X0201763Y0013361D01*
X0201549Y0013566D01*
X0201340Y0013776D01*
X0201136Y0013991D01*
X0200937Y0014212D01*
X0200743Y0014436D01*
X0200556Y0014666D01*
X0200373Y0014900D01*
X0200197Y0015138D01*
X0200026Y0015381D01*
X0199862Y0015627D01*
X0199703Y0015878D01*
X0199551Y0016132D01*
X0199405Y0016391D01*
X0199265Y0016652D01*
X0199131Y0016917D01*
X0199004Y0017185D01*
X0198884Y0017456D01*
X0198770Y0017730D01*
X0198663Y0018006D01*
X0198563Y0018286D01*
X0198470Y0018567D01*
X0198383Y0018851D01*
X0198304Y0019136D01*
X0198231Y0019424D01*
X0198165Y0019713D01*
X0198107Y0020004D01*
X0198056Y0020296D01*
X0198011Y0020589D01*
X0197974Y0020883D01*
X0197944Y0021178D01*
X0197921Y0021474D01*
X0197906Y0021770D01*
X0197898Y0022067D01*
X0197896Y0022363D01*
X0197903Y0022660D01*
X0197916Y0022956D01*
X0197936Y0023252D01*
X0197964Y0023547D01*
X0197999Y0023841D01*
X0198041Y0024135D01*
X0198091Y0024427D01*
X0198147Y0024719D01*
X0198210Y0025008D01*
X0198281Y0025296D01*
X0198358Y0025583D01*
X0198443Y0025867D01*
X0198534Y0026149D01*
X0198632Y0026429D01*
X0198737Y0026706D01*
X0198849Y0026981D01*
X0198967Y0027253D01*
X0199092Y0027522D01*
X0199224Y0027788D01*
X0199361Y0028050D01*
X0199506Y0028309D01*
X0199656Y0028565D01*
X0199813Y0028817D01*
X0199976Y0029065D01*
X0200144Y0029308D01*
X0200319Y0029548D01*
X0200500Y0029783D01*
X0200686Y0030014D01*
X0200877Y0030241D01*
X0201074Y0030462D01*
X0201277Y0030679D01*
X0201485Y0030890D01*
X0201697Y0031097D01*
X0201915Y0031298D01*
X0202138Y0031494D01*
X0202365Y0031685D01*
X0202597Y0031870D01*
X0202833Y0032049D01*
X0203074Y0032222D01*
X0203319Y0032389D01*
X0203568Y0032551D01*
X0203820Y0032706D01*
X0204077Y0032855D01*
X0204336Y0032998D01*
X0204600Y0033135D01*
X0204866Y0033265D01*
X0205136Y0033388D01*
X0205408Y0033505D01*
X0205684Y0033615D01*
X0205962Y0033718D01*
X0206242Y0033815D01*
X0206525Y0033905D01*
M02*
