G75*
%MOIN*%
%OFA0B0*%
%FSLAX25Y25*%
%IPPOS*%
%LPD*%
%AMOC8*
5,1,8,0,0,1.08239X$1,22.5*
%
%ADD10C,0.00591*%
%ADD11R,0.02362X0.08661*%
%ADD12R,0.03937X0.04331*%
%ADD13R,0.04331X0.03937*%
%ADD14R,0.06299X0.13780*%
%ADD15R,0.06299X0.10236*%
%ADD16R,0.10236X0.06299*%
D10*
X0001800Y0002213D02*
X0001800Y0206937D01*
X0395501Y0206937D01*
X0395501Y0002213D01*
X0001800Y0002213D01*
D11*
X0098954Y0107953D03*
X0103954Y0107953D03*
X0108954Y0107953D03*
X0113954Y0107953D03*
X0113954Y0128425D03*
X0108954Y0128425D03*
X0103954Y0128425D03*
X0098954Y0128425D03*
X0153284Y0127976D03*
X0158284Y0127976D03*
X0163284Y0127976D03*
X0168284Y0127976D03*
X0173284Y0127976D03*
X0178284Y0127976D03*
X0183284Y0127976D03*
X0188284Y0127976D03*
X0188284Y0107504D03*
X0183284Y0107504D03*
X0178284Y0107504D03*
X0173284Y0107504D03*
X0168284Y0107504D03*
X0163284Y0107504D03*
X0158284Y0107504D03*
X0153284Y0107504D03*
X0261591Y0107165D03*
X0266591Y0107165D03*
X0271591Y0107165D03*
X0276591Y0107165D03*
X0276591Y0127638D03*
X0271591Y0127638D03*
X0266591Y0127638D03*
X0261591Y0127638D03*
D12*
X0275682Y0137780D03*
X0282375Y0137780D03*
X0282383Y0145976D03*
X0275690Y0145976D03*
X0282115Y0162843D03*
X0288808Y0162843D03*
X0284871Y0114024D03*
X0293139Y0114024D03*
X0293139Y0107331D03*
X0284871Y0107331D03*
X0273060Y0097094D03*
X0266367Y0097094D03*
X0260658Y0097094D03*
X0253965Y0097094D03*
X0205343Y0095126D03*
X0198650Y0095126D03*
X0183422Y0096575D03*
X0183422Y0089882D03*
X0122469Y0093417D03*
X0115776Y0093417D03*
X0098973Y0096567D03*
X0092280Y0096567D03*
X0090186Y0112252D03*
X0081918Y0112252D03*
X0081918Y0118945D03*
X0090186Y0118945D03*
X0089989Y0129181D03*
X0081721Y0129181D03*
X0081721Y0135874D03*
X0089989Y0135874D03*
X0097272Y0144142D03*
X0103965Y0144142D03*
X0319517Y0107724D03*
X0326209Y0107724D03*
D13*
X0255737Y0131740D03*
X0249044Y0131740D03*
X0249044Y0140008D03*
X0255737Y0140008D03*
X0205146Y0146307D03*
X0196879Y0146307D03*
X0188808Y0146307D03*
X0188808Y0153000D03*
X0196879Y0153000D03*
X0205146Y0153000D03*
X0175816Y0153000D03*
X0167548Y0153000D03*
X0167548Y0146307D03*
X0175816Y0146307D03*
X0173257Y0139417D03*
X0166564Y0139417D03*
X0122272Y0137252D03*
X0114107Y0137173D03*
X0114107Y0143866D03*
X0122272Y0143945D03*
X0086839Y0156150D03*
X0086839Y0162843D03*
X0193729Y0108118D03*
X0200422Y0108118D03*
X0191761Y0096504D03*
X0191761Y0089811D03*
X0165186Y0092567D03*
X0165186Y0099260D03*
X0108950Y0099000D03*
X0108950Y0092307D03*
X0059083Y0091386D03*
X0059083Y0098079D03*
D14*
X0210068Y0032921D03*
X0210068Y0011661D03*
X0308493Y0013630D03*
X0308493Y0034890D03*
D15*
X0331721Y0027016D03*
X0350619Y0027016D03*
X0350619Y0012843D03*
X0331721Y0012843D03*
X0187430Y0018748D03*
X0169320Y0018748D03*
X0169320Y0032921D03*
X0187430Y0032921D03*
X0068335Y0104575D03*
X0068335Y0118748D03*
X0307115Y0121504D03*
X0307115Y0107331D03*
D16*
X0270107Y0155165D03*
X0255934Y0155165D03*
X0080343Y0148079D03*
X0066170Y0148079D03*
M02*
